<svg xmlns="http://www.w3.org/2000/svg" xmlns:xlink="http://www.w3.org/1999/xlink" width="118" height="118" viewBox="0 0 118 118">
  <defs>
    <filter id="Trazado_874925" x="0" y="0" width="117.999" height="118" filterUnits="userSpaceOnUse">
      <feOffset dy="3" input="SourceAlpha"/>
      <feGaussianBlur stdDeviation="3" result="blur"/>
      <feFlood flood-opacity="0.161"/>
      <feComposite operator="in" in2="blur"/>
      <feComposite in="SourceGraphic"/>
    </filter>
  </defs>
  <g id="Grupo_1117976" data-name="Grupo 1117976" transform="translate(-1107 -6844.075)">
    <g id="Grupo_1111553" data-name="Grupo 1111553" transform="translate(307.5 4332.918)">
      <g id="Grupo_1111316" data-name="Grupo 1111316" transform="translate(808.5 2517.157)">
        <g id="Grupo_1109835" data-name="Grupo 1109835" transform="translate(0 0)">
          <g id="Grupo_1107913" data-name="Grupo 1107913" transform="translate(0 0)">
            <g transform="matrix(1, 0, 0, 1, -9, -6)" filter="url(#Trazado_874925)">
              <g id="Trazado_874925-2" data-name="Trazado 874925" transform="translate(9 6)" fill="#9cc8ff" opacity="0.859">
                <path d="M 49.99972534179688 98.4998779296875 C 43.45164108276367 98.4998779296875 37.10022354125977 97.21776580810547 31.12189674377441 94.68914794921875 C 25.34676742553711 92.24647521972656 20.15985298156738 88.74925994873047 15.70523929595947 84.29464721679688 C 11.25062561035156 79.84004974365234 7.753411293029785 74.65313720703125 5.310725212097168 68.87800598144531 C 2.782111167907715 62.89969253540039 1.499996781349182 56.54829406738281 1.499996781349182 50.00022125244141 C 1.499996781349182 43.45157623291016 2.782111167907715 37.10017776489258 5.310725212097168 31.12186431884766 C 7.753411293029785 25.34673500061035 11.25062561035156 20.15983581542969 15.70523929595947 15.70522117614746 C 20.15985298156738 11.25062084197998 25.34676742553711 7.753406524658203 31.12189674377441 5.31073522567749 C 37.10022354125977 2.782120943069458 43.45164108276367 1.500006556510925 49.99972534179688 1.500006556510925 C 56.54780960083008 1.500006556510925 62.89922714233398 2.782120943069458 68.87755584716797 5.31073522567749 C 74.65267944335938 7.753406524658203 79.839599609375 11.25062084197998 84.29421234130859 15.70522117614746 C 88.74882507324219 20.15983581542969 92.24604034423828 25.34673500061035 94.68872833251953 31.12186431884766 C 97.21733856201172 37.10017776489258 98.49945068359375 43.45157623291016 98.49945068359375 49.99964904785156 C 98.49945068359375 56.54829406738281 97.21733856201172 62.89969253540039 94.68872833251953 68.87800598144531 C 92.24604034423828 74.65313720703125 88.74882507324219 79.84004974365234 84.29421234130859 84.29464721679688 C 79.839599609375 88.74925994873047 74.65267944335938 92.24647521972656 68.87755584716797 94.68914794921875 C 62.89922714233398 97.21776580810547 56.54780960083008 98.4998779296875 49.99972534179688 98.4998779296875 Z" stroke="none"/>
                <path d="M 49.99972534179688 3 C 43.65348052978516 3 37.49866485595703 4.242240905761719 31.70623016357422 6.692230224609375 C 26.10989379882812 9.059272766113281 21.08323669433594 12.44853210449219 16.76589202880859 16.76587677001953 C 12.44855499267578 21.08321380615234 9.059295654296875 26.10985565185547 6.692230224609375 31.70618438720703 C 4.24224853515625 37.49859619140625 3 43.65341186523438 3 50.00022888183594 C 3 56.34645843505859 4.24224853515625 62.50127410888672 6.692230224609375 68.29368591308594 C 9.059295654296875 73.8900146484375 12.44855499267578 78.91665649414062 16.76589202880859 83.23399353027344 C 21.08323669433594 87.55132293701172 26.10989379882812 90.94059753417969 31.70623016357422 93.30764007568359 C 37.49866485595703 95.75762939453125 43.65348052978516 96.99987030029297 49.99972534179688 96.99987030029297 C 56.34597015380859 96.99987030029297 62.50078582763672 95.75762939453125 68.293212890625 93.30764007568359 C 73.88955688476562 90.94059753417969 78.91621398925781 87.55132293701172 83.23355865478516 83.23399353027344 C 87.55089569091797 78.91665649414062 90.94015502929688 73.8900146484375 93.30722045898438 68.29368591308594 C 95.7572021484375 62.50127410888672 96.99945068359375 56.34645843505859 96.99945068359375 49.99964141845703 C 96.99945068359375 43.65341186523438 95.7572021484375 37.49859619140625 93.30722045898438 31.70618438720703 C 90.94015502929688 26.10985565185547 87.55089569091797 21.08321380615234 83.23355865478516 16.76587677001953 C 78.91621398925781 12.44853210449219 73.88955688476562 9.059272766113281 68.293212890625 6.692230224609375 C 62.50078582763672 4.242240905761719 56.34597015380859 3 49.99972534179688 3 M 49.99972534179688 0 C 77.61381530761719 0 99.99945068359375 22.38559722900391 99.99945068359375 49.99964141845703 L 99.99945068359375 50.00022888183594 C 99.99945068359375 77.6142578125 77.61381530761719 99.99987030029297 49.99972534179688 99.99987030029297 C 22.38563537597656 99.99987030029297 0 77.6142578125 0 50.00022888183594 L 0 49.99964141845703 C 0 22.38559722900391 22.38563537597656 0 49.99972534179688 0 Z" stroke="none" fill="#fff"/>
              </g>
            </g>
            <g id="Trazado_874923" data-name="Trazado 874923" transform="translate(0 0)" fill="none">
              <path d="M50,0a50,50,0,0,1,50,50h0A50,50,0,0,1,0,50H0A50,50,0,0,1,50,0Z" stroke="none"/>
              <path d="M 49.99972534179688 3 C 43.65348052978516 3 37.49866485595703 4.242240905761719 31.70623016357422 6.692230224609375 C 26.10989379882812 9.059272766113281 21.08323669433594 12.44853210449219 16.76589202880859 16.76587677001953 C 12.44855499267578 21.08321380615234 9.059295654296875 26.10985565185547 6.692230224609375 31.70618438720703 C 4.24224853515625 37.49859619140625 3 43.65341186523438 3 50.00022888183594 C 3 56.34645843505859 4.24224853515625 62.50127410888672 6.692230224609375 68.29368591308594 C 9.059295654296875 73.8900146484375 12.44855499267578 78.91665649414062 16.76589202880859 83.23399353027344 C 21.08323669433594 87.55132293701172 26.10989379882812 90.94059753417969 31.70623016357422 93.30764007568359 C 37.49866485595703 95.75762939453125 43.65348052978516 96.99987030029297 49.99972534179688 96.99987030029297 C 56.34597015380859 96.99987030029297 62.50078582763672 95.75762939453125 68.293212890625 93.30764007568359 C 73.88955688476562 90.94059753417969 78.91621398925781 87.55132293701172 83.23355865478516 83.23399353027344 C 87.55089569091797 78.91665649414062 90.94015502929688 73.8900146484375 93.30722045898438 68.29368591308594 C 95.7572021484375 62.50127410888672 96.99945068359375 56.34645843505859 96.99945068359375 49.99964141845703 C 96.99945068359375 43.65341186523438 95.7572021484375 37.49859619140625 93.30722045898438 31.70618438720703 C 90.94015502929688 26.10985565185547 87.55089569091797 21.08321380615234 83.23355865478516 16.76587677001953 C 78.91621398925781 12.44853210449219 73.88955688476562 9.059272766113281 68.293212890625 6.692230224609375 C 62.50078582763672 4.242240905761719 56.34597015380859 3 49.99972534179688 3 M 49.99972534179688 0 C 77.61381530761719 0 99.99945068359375 22.38559722900391 99.99945068359375 49.99964141845703 L 99.99945068359375 50.00022888183594 C 99.99945068359375 77.6142578125 77.61381530761719 99.99987030029297 49.99972534179688 99.99987030029297 C 22.38563537597656 99.99987030029297 0 77.6142578125 0 50.00022888183594 L 0 49.99964141845703 C 0 22.38559722900391 22.38563537597656 0 49.99972534179688 0 Z" stroke="none" fill="#fff"/>
            </g>
          </g>
        </g>
      </g>
    </g>
    <g id="Salary" transform="translate(1133.335 6869.517)">
      <path id="Trazado_909694" data-name="Trazado 909694" d="M33.511,29,8.2,44.136,33.511,59.272,58.823,44.136Z" transform="translate(-0.353 -10.58)" fill="#ffa64d"/>
      <path id="Trazado_909695" data-name="Trazado 909695" d="M33.159,59.526c-.254,0,1.463.954-25.629-15.263a.626.626,0,0,1-.191-.89c.127-.191-1.59.827,25.5-15.327a.578.578,0,0,1,.636,0l25.311,15.2a.626.626,0,0,1,0,1.081C31.7,60.48,33.413,59.526,33.159,59.526ZM9.119,43.754,33.159,58.19,57.2,43.817,33.159,29.381Z" transform="translate(0 -10.198)" fill="#302d3d"/>
      <path id="Trazado_909696" data-name="Trazado 909696" d="M52.149,15.876,28.364,48.947a1.87,1.87,0,0,1-2.671.445c-1.717-1.208,6.169,4.452-16.662-12.02A1.878,1.878,0,0,1,8.586,34.7L32.371,1.631a1.87,1.87,0,0,1,2.671-.445c1.717,1.208-6.169-4.452,16.662,12.02a2,2,0,0,1,.445,2.671Z" transform="translate(-0.357 -0.318)" fill="#58b178"/>
      <path id="Trazado_909697" data-name="Trazado 909697" d="M12.091,36.37,34.668,4.953A1.083,1.083,0,0,1,36.131,4.7L51.139,15.447a1.083,1.083,0,0,1,.254,1.463c-2.162,3.053,1.018-1.336-23.149,32.243-.064,0-15.9-11.447-15.836-11.384a.933.933,0,0,1-.318-1.4Z" transform="translate(-1.7 -1.669)" fill="#67c582"/>
      <path id="Trazado_909698" data-name="Trazado 909698" d="M27.567,46.978,19.3,41a3.064,3.064,0,0,0-.7-4.325L36.343,12a3.073,3.073,0,0,0,4.325-.7L49,17.278a3.073,3.073,0,0,0,.7,4.325L31.955,46.278a3.149,3.149,0,0,0-4.388.7Z" transform="translate(-4.139 -4.137)" fill="#99d98c"/>
      <path id="Trazado_909699" data-name="Trazado 909699" d="M50.019,24.826,28.4,54.907a1.87,1.87,0,0,1-2.671.445c-1.717-1.208,6.169,4.452-16.662-12.02A1.757,1.757,0,0,1,8.3,42.124L40.925,17.83a3.165,3.165,0,0,1,4.452.636Z" transform="translate(-0.389 -6.279)" fill="#4ea278"/>
      <path id="Trazado_909700" data-name="Trazado 909700" d="M24.957,49.582,8.295,37.626a2.546,2.546,0,0,1-.572-3.561C8.74,32.6,2,42.014,31.507.995A2.623,2.623,0,0,1,35.132.422L51.795,12.378a2.546,2.546,0,0,1,.572,3.561C51.349,17.4,58.091,7.99,28.582,49.01a2.574,2.574,0,0,1-3.625.572ZM32.525,1.758,8.74,34.828a1.244,1.244,0,0,0,.254,1.781c1.654,1.208-6.105-4.388,16.662,11.956a1.2,1.2,0,0,0,1.781-.318C52.176,13.968,51.159,15.24,51.222,15.24a1.236,1.236,0,0,0-.254-1.781L34.305,1.44a1.341,1.341,0,0,0-1.781.318Z" transform="translate(-0.002)" fill="#302d3d"/>
      <path id="Trazado_909701" data-name="Trazado 909701" d="M27.212,47.222c-.318,0,.318.382-8.649-6.105a.673.673,0,0,1-.127-.89,2.48,2.48,0,0,0-.572-3.5.673.673,0,0,1-.127-.89L35.48,11.163a.673.673,0,0,1,.89-.127,2.4,2.4,0,0,0,3.434-.572.673.673,0,0,1,.89-.127l8.331,6.042a.673.673,0,0,1,.127.89,2.4,2.4,0,0,0,.572,3.434.614.614,0,0,1,.127.89c-1.272,1.844,5.6-7.759-17.807,24.675a.673.673,0,0,1-.89.127,2.4,2.4,0,0,0-3.434.572.467.467,0,0,1-.509.254Zm-7.441-6.741,7.377,5.279a3.688,3.688,0,0,1,4.261-.7L48.517,21.339a3.775,3.775,0,0,1-.7-4.261L40.44,11.736a3.793,3.793,0,0,1-4.261.7L19.072,36.22a3.672,3.672,0,0,1,.7,4.261Z" transform="translate(-3.784 -3.745)" fill="#302d3d"/>
      <path id="Trazado_909702" data-name="Trazado 909702" d="M56.217,39.207,23.528,63.5a1.922,1.922,0,0,1-2.671-.382c-1.272-1.654,4.515,6.042-12.274-16.471a1.922,1.922,0,0,1,.382-2.671L41.59,19.683a1.922,1.922,0,0,1,2.671.382c3.5,4.706-7.568-10.175,12.274,16.471a1.843,1.843,0,0,1-.318,2.671Z" transform="translate(-0.354 -7.051)" fill="#58b178"/>
      <path id="Trazado_909703" data-name="Trazado 909703" d="M23.088,62.452l-11-14.818a1.091,1.091,0,0,1,.191-1.463L43.312,23.086a1.091,1.091,0,0,1,1.463.191l11,14.818a1.091,1.091,0,0,1-.191,1.463c-1.463,1.081,7.5-5.6-31.035,23.086Z" transform="translate(-1.695 -8.355)" fill="#67c582"/>
      <path id="Trazado_909704" data-name="Trazado 909704" d="M53.451,42.928,29.093,61.053a3.137,3.137,0,0,0-4.388-.636l-6.105-8.2a3.07,3.07,0,0,0,.636-4.325L43.657,29.7a3.07,3.07,0,0,0,4.325.636l6.105,8.2A3.2,3.2,0,0,0,53.451,42.928Z" transform="translate(-4.139 -10.835)" fill="#99d98c"/>
      <path id="Trazado_909705" data-name="Trazado 909705" d="M55.339,45.505,27.992,65.856,17.944,68.909a1.932,1.932,0,0,1-2.417-1.272C9.8,48.876,9.995,49.512,9.549,48.049a1.978,1.978,0,0,1,1.208-2.417c.064-.064,6.8-2.1,38.158-11.7a2.722,2.722,0,0,1,3.371,1.781Z" transform="translate(-0.812 -12.331)" fill="#4ea278"/>
      <path id="Trazado_909706" data-name="Trazado 909706" d="M20.02,63.136,7.809,46.664A2.535,2.535,0,0,1,8.318,43.1C9.717,42.022.5,48.89,41.007,18.809a2.535,2.535,0,0,1,3.561.509L56.842,35.789a2.535,2.535,0,0,1-.509,3.561c-6.8,5.088-8.14,6.042-32.689,24.294a2.555,2.555,0,0,1-3.625-.509ZM41.706,19.827,9.081,44.121A1.244,1.244,0,0,0,8.827,45.9C10.035,47.555,4.311,39.86,21.1,62.373a1.244,1.244,0,0,0,1.781.254C55.761,38.142,55.507,38.27,55.507,38.333a1.236,1.236,0,0,0,.254-1.781c-1.208-1.717,4.515,6.042-12.274-16.471a1.236,1.236,0,0,0-1.781-.254Z" transform="translate(-0.025 -6.685)" fill="#302d3d"/>
      <path id="Trazado_909707" data-name="Trazado 909707" d="M28.775,61.334a.578.578,0,0,1-.509-.254,2.448,2.448,0,0,0-3.434-.509.684.684,0,0,1-.89-.127c-.636-.827,2.226,2.989-6.105-8.2a.684.684,0,0,1,.127-.89,2.516,2.516,0,0,0,.509-3.5.684.684,0,0,1,.127-.89c.064,0-1.336.954,24.421-18.125a.684.684,0,0,1,.89.127,2.516,2.516,0,0,0,3.5.509.684.684,0,0,1,.89.127c0,.064-.509-.7,6.105,8.2a.684.684,0,0,1-.127.89,2.516,2.516,0,0,0-.509,3.5.684.684,0,0,1-.127.89C27.5,62.479,29.093,61.334,28.775,61.334ZM52.369,42.383a3.777,3.777,0,0,1,.636-4.261L47.6,30.872a3.777,3.777,0,0,1-4.261-.636L19.808,47.661a3.777,3.777,0,0,1-.636,4.261l5.406,7.25a3.777,3.777,0,0,1,4.261.636s-.827.7,23.531-17.425Z" transform="translate(-3.82 -10.48)" fill="#302d3d"/>
      <path id="Trazado_909708" data-name="Trazado 909708" d="M57,57.409a1.849,1.849,0,0,1-1.336,1.717L16.744,71.082a1.932,1.932,0,0,1-2.417-1.272L8.35,50.159a1.932,1.932,0,0,1,1.272-2.417C11.275,47.233.337,50.6,48.543,35.85a1.932,1.932,0,0,1,2.417,1.272c6.487,21.3,6.105,19.842,6.042,20.287Z" transform="translate(-0.375 -13.042)" fill="#58b178"/>
      <path id="Trazado_909709" data-name="Trazado 909709" d="M17.087,69.49,11.682,51.874a1.06,1.06,0,0,1,.7-1.272l36.95-11.32a1.06,1.06,0,0,1,1.272.7L56.008,57.6a1.007,1.007,0,0,1-.7,1.272L18.359,70.19Z" transform="translate(-1.608 -14.311)" fill="#67c582"/>
      <path id="Trazado_909710" data-name="Trazado 909710" d="M19.689,66.777,16.7,56.983A3.073,3.073,0,0,0,18.735,53.1c0-.064-.763.254,29.064-8.9a3.073,3.073,0,0,0,3.879,2.035l2.989,9.794a3.161,3.161,0,0,0-2.1,3.879c0,.064,1.4-.382-29.064,8.9a3.029,3.029,0,0,0-3.816-2.035Z" transform="translate(-3.447 -16.113)" fill="#99d98c"/>
      <path id="Trazado_909711" data-name="Trazado 909711" d="M57.438,63.429c-.382.318,2.226-.572-39.493,12.211a1.932,1.932,0,0,1-2.417-1.272c-.636-1.971,2.226,7.25-5.978-19.651A1.978,1.978,0,0,1,10.758,52.3L33.971,66.291l20.669-12.4C57.565,63.493,57.5,62.984,57.438,63.429Z" transform="translate(-0.812 -19.062)" fill="#4ea278"/>
      <circle id="Elipse_11795" data-name="Elipse 11795" cx="3.879" cy="3.879" r="3.879" transform="translate(28.389 36.545)" fill="#58b178"/>
      <path id="Trazado_909712" data-name="Trazado 909712" d="M45.471,64.429A1.984,1.984,0,0,1,44.9,60.55a1.959,1.959,0,0,1,2.48,1.336,2.038,2.038,0,0,1-1.908,2.544Z" transform="translate(-13.203 -22.033)" fill="#4ea278"/>
      <g id="Grupo_1117975" data-name="Grupo 1117975" transform="translate(7.235 22.133)">
        <path id="Trazado_909713" data-name="Trazado 909713" d="M15.8,71.445a2.6,2.6,0,0,1-2.48-1.781L7.341,50.013a2.534,2.534,0,0,1,1.717-3.18L47.979,34.941a2.561,2.561,0,0,1,3.18,1.717c.509,1.717-2.035-6.741,6.042,19.651a2.585,2.585,0,0,1-1.717,3.18C13.891,72.145,16.372,71.445,15.8,71.445Zm32.943-35.36c-.318,0,2.289-.763-39.3,11.956a1.272,1.272,0,0,0-.89,1.59c.572,1.971-2.226-7.25,6.042,19.651a1.215,1.215,0,0,0,1.59.827C56.755,57.708,55.038,58.154,55.1,58.154a1.272,1.272,0,0,0,.89-1.59c-.572-1.971,2.226,7.25-6.042-19.651a1.267,1.267,0,0,0-1.208-.827Z" transform="translate(-7.238 -34.838)" fill="#302d3d"/>
        <path id="Trazado_909714" data-name="Trazado 909714" d="M23.182,69.161a.632.632,0,0,1-.636-.445,2.48,2.48,0,0,0-3.116-1.654.654.654,0,0,1-.763-.445l-2.989-9.794a.565.565,0,0,1,.445-.763,2.48,2.48,0,0,0,1.654-3.116.565.565,0,0,1,.445-.763l29.064-8.9a.565.565,0,0,1,.763.445,2.48,2.48,0,0,0,3.116,1.654.565.565,0,0,1,.763.445l2.989,9.794a.565.565,0,0,1-.445.763,2.48,2.48,0,0,0-1.654,3.116.565.565,0,0,1-.445.763C21.338,69.734,23.373,69.161,23.182,69.161Zm28.364-9.985a3.763,3.763,0,0,1,2.035-3.816L50.91,46.648a3.763,3.763,0,0,1-3.816-2.035L19.112,53.2a3.763,3.763,0,0,1-2.035,3.816l2.671,8.649A3.763,3.763,0,0,1,23.564,67.7c0,.127-1.081.382,27.982-8.522Z" transform="translate(-10.296 -37.896)" fill="#302d3d"/>
        <path id="Trazado_909715" data-name="Trazado 909715" d="M44.015,65.531a4.515,4.515,0,1,1,0-9.031,4.515,4.515,0,0,1,0,9.031Zm0-7.759a3.243,3.243,0,1,0,3.116,2.289,3.257,3.257,0,0,0-3.116-2.289Z" transform="translate(-18.982 -42.724)" fill="#302d3d"/>
        <path id="Trazado_909716" data-name="Trazado 909716" d="M57.894,59.889a.574.574,0,0,1-.7-.572.566.566,0,0,1,.509-.7l2.1-.636a.664.664,0,1,1,.382,1.272C57.894,59.952,58.021,59.889,57.894,59.889Z" transform="translate(-25.42 -43.25)" fill="#302d3d"/>
      </g>
      <path id="Trazado_909717" data-name="Trazado 909717" d="M58.9,52.8V76.9a2.687,2.687,0,0,1-2.671,2.671H11.071A2.687,2.687,0,0,1,8.4,76.9c.064,0,0,.763,0-24.1L33.584,67.936Z" transform="translate(-0.425 -19.244)" fill="#ffe391"/>
      <path id="Trazado_909718" data-name="Trazado 909718" d="M8.2,76.967V52.8l2.162,1.272V76.967Z" transform="translate(-0.353 -19.244)" fill="#ffc541"/>
      <path id="Trazado_909719" data-name="Trazado 909719" d="M86.562,76.967V52.8L84.4,54.072V76.967Z" transform="translate(-28.092 -19.244)" fill="#ffc541"/>
      <path id="Trazado_909720" data-name="Trazado 909720" d="M58.89,82.072a2.647,2.647,0,0,1-2.671,2.671H11.066a2.687,2.687,0,0,1-2.671-2.671S7.5,82.9,23.4,67l10.175,6.105L43.754,67Z" transform="translate(-0.42 -24.413)" fill="#ffc541"/>
      <path id="Trazado_909721" data-name="Trazado 909721" d="M58.469,84.663a2.693,2.693,0,0,1-1.908.763H11.408A2.693,2.693,0,0,1,9.5,84.663L25.463,68.7l8.522,5.088L42.507,68.7Z" transform="translate(-0.826 -25.032)" fill="#ffe391"/>
      <path id="Trazado_909722" data-name="Trazado 909722" d="M26.74,81.906l4.579-4.579a1.633,1.633,0,0,1,1.908-.254L39.268,80.7a1.443,1.443,0,0,0,1.59,0L46.9,77.073a1.542,1.542,0,0,1,1.908.254l4.579,4.579a1.547,1.547,0,0,1-1.081,2.671H27.821a1.566,1.566,0,0,1-1.081-2.671Z" transform="translate(-6.936 -28)" fill="#fff"/>
      <path id="Trazado_909723" data-name="Trazado 909723" d="M55.761,79.931H10.607A3.284,3.284,0,0,1,7.3,76.624v-24.1a.626.626,0,0,1,.954-.509l24.93,14.882,24.93-14.945a.633.633,0,0,1,.954.572v24.1A3.245,3.245,0,0,1,55.761,79.931ZM8.508,53.6V76.624a2.009,2.009,0,0,0,2.035,2.035H55.7a2.008,2.008,0,0,0,2.035-2.035V53.6L33.5,68.166a.578.578,0,0,1-.636,0Z" transform="translate(-0.025 -18.902)" fill="#302d3d"/>
      <path id="Trazado_909724" data-name="Trazado 909724" d="M56.2,85.686H11.044a3.266,3.266,0,0,1-2.353-.954.615.615,0,0,1,0-.89L24.654,67.879a.676.676,0,0,1,.763-.127l8.2,4.9,8.2-4.9a.588.588,0,0,1,.763.127l15.963,15.9a.615.615,0,0,1,0,.89A3.219,3.219,0,0,1,56.2,85.686ZM10.09,84.16c.636.318-2.1.254,46.107.254a1.8,1.8,0,0,0,.954-.254L42.015,69.088l-8.077,4.833a.578.578,0,0,1-.636,0l-8.077-4.833Z" transform="translate(-0.462 -24.657)" fill="#302d3d"/>
    </g>
  </g>
</svg>
