<svg xmlns="http://www.w3.org/2000/svg" xmlns:xlink="http://www.w3.org/1999/xlink" width="117.999" height="118" viewBox="0 0 117.999 118">
  <defs>
    <filter id="Trazado_874925" x="0" y="0" width="117.999" height="118" filterUnits="userSpaceOnUse">
      <feOffset dy="3" input="SourceAlpha"/>
      <feGaussianBlur stdDeviation="3" result="blur"/>
      <feFlood flood-opacity="0.161"/>
      <feComposite operator="in" in2="blur"/>
      <feComposite in="SourceGraphic"/>
    </filter>
    <linearGradient id="linear-gradient" y1="0.5" x2="1" y2="0.5" gradientUnits="objectBoundingBox">
      <stop offset="0.015" stop-color="#cacad5"/>
      <stop offset="1" stop-color="#dcdce3"/>
    </linearGradient>
    <linearGradient id="linear-gradient-2" y1="0.5" x2="1" y2="0.5" gradientUnits="objectBoundingBox">
      <stop offset="0.015" stop-color="#a6a6b9"/>
      <stop offset="1" stop-color="#cacad5"/>
    </linearGradient>
    <linearGradient id="linear-gradient-3" y1="0.5" x2="1" y2="0.5" gradientUnits="objectBoundingBox">
      <stop offset="0.011" stop-color="#dcdce3"/>
      <stop offset="1" stop-color="#ededf1"/>
    </linearGradient>
    <linearGradient id="linear-gradient-4" x1="-0.113" y1="0.5" x2="1" y2="0.5" gradientUnits="objectBoundingBox">
      <stop offset="0.011" stop-color="#80d1cb"/>
      <stop offset="1" stop-color="#bfe8e5"/>
    </linearGradient>
    <linearGradient id="linear-gradient-5" x1="0.146" y1="0.854" x2="0.854" y2="0.146" gradientUnits="objectBoundingBox">
      <stop offset="0.011" stop-color="#f8c73f"/>
      <stop offset="1" stop-color="#fada7f"/>
    </linearGradient>
  </defs>
  <g id="Grupo_1112513" data-name="Grupo 1112513" transform="translate(-793.782 -1933.999)">
    <g id="Grupo_1111552" data-name="Grupo 1111552" transform="translate(-5.719 -577.158)">
      <g id="Grupo_1111316" data-name="Grupo 1111316" transform="translate(808.5 2517.157)">
        <g id="Grupo_1109835" data-name="Grupo 1109835" transform="translate(0 0)">
          <g id="Grupo_1107913" data-name="Grupo 1107913" transform="translate(0 0)">
            <g transform="matrix(1, 0, 0, 1, -9, -6)" filter="url(#Trazado_874925)">
              <g id="Trazado_874925-2" data-name="Trazado 874925" transform="translate(9 6)" fill="#9cc8ff" opacity="0.859">
                <path d="M 49.99972534179688 98.4998779296875 C 43.45164108276367 98.4998779296875 37.10022354125977 97.21776580810547 31.12189674377441 94.68914794921875 C 25.34676742553711 92.24647521972656 20.15985298156738 88.74925994873047 15.70523929595947 84.29464721679688 C 11.25062561035156 79.84004974365234 7.753411293029785 74.65313720703125 5.310725212097168 68.87800598144531 C 2.782111167907715 62.89969253540039 1.499996781349182 56.54829406738281 1.499996781349182 50.00022125244141 C 1.499996781349182 43.45157623291016 2.782111167907715 37.10017776489258 5.310725212097168 31.12186431884766 C 7.753411293029785 25.34673500061035 11.25062561035156 20.15983581542969 15.70523929595947 15.70522117614746 C 20.15985298156738 11.25062084197998 25.34676742553711 7.753406524658203 31.12189674377441 5.31073522567749 C 37.10022354125977 2.782120943069458 43.45164108276367 1.500006556510925 49.99972534179688 1.500006556510925 C 56.54780960083008 1.500006556510925 62.89922714233398 2.782120943069458 68.87755584716797 5.31073522567749 C 74.65267944335938 7.753406524658203 79.839599609375 11.25062084197998 84.29421234130859 15.70522117614746 C 88.74882507324219 20.15983581542969 92.24604034423828 25.34673500061035 94.68872833251953 31.12186431884766 C 97.21733856201172 37.10017776489258 98.49945068359375 43.45157623291016 98.49945068359375 49.99964904785156 C 98.49945068359375 56.54829406738281 97.21733856201172 62.89969253540039 94.68872833251953 68.87800598144531 C 92.24604034423828 74.65313720703125 88.74882507324219 79.84004974365234 84.29421234130859 84.29464721679688 C 79.839599609375 88.74925994873047 74.65267944335938 92.24647521972656 68.87755584716797 94.68914794921875 C 62.89922714233398 97.21776580810547 56.54780960083008 98.4998779296875 49.99972534179688 98.4998779296875 Z" stroke="none"/>
                <path d="M 49.99972534179688 3 C 43.65348052978516 3 37.49866485595703 4.242240905761719 31.70623016357422 6.692230224609375 C 26.10989379882812 9.059272766113281 21.08323669433594 12.44853210449219 16.76589202880859 16.76587677001953 C 12.44855499267578 21.08321380615234 9.059295654296875 26.10985565185547 6.692230224609375 31.70618438720703 C 4.24224853515625 37.49859619140625 3 43.65341186523438 3 50.00022888183594 C 3 56.34645843505859 4.24224853515625 62.50127410888672 6.692230224609375 68.29368591308594 C 9.059295654296875 73.8900146484375 12.44855499267578 78.91665649414062 16.76589202880859 83.23399353027344 C 21.08323669433594 87.55132293701172 26.10989379882812 90.94059753417969 31.70623016357422 93.30764007568359 C 37.49866485595703 95.75762939453125 43.65348052978516 96.99987030029297 49.99972534179688 96.99987030029297 C 56.34597015380859 96.99987030029297 62.50078582763672 95.75762939453125 68.293212890625 93.30764007568359 C 73.88955688476562 90.94059753417969 78.91621398925781 87.55132293701172 83.23355865478516 83.23399353027344 C 87.55089569091797 78.91665649414062 90.94015502929688 73.8900146484375 93.30722045898438 68.29368591308594 C 95.7572021484375 62.50127410888672 96.99945068359375 56.34645843505859 96.99945068359375 49.99964141845703 C 96.99945068359375 43.65341186523438 95.7572021484375 37.49859619140625 93.30722045898438 31.70618438720703 C 90.94015502929688 26.10985565185547 87.55089569091797 21.08321380615234 83.23355865478516 16.76587677001953 C 78.91621398925781 12.44853210449219 73.88955688476562 9.059272766113281 68.293212890625 6.692230224609375 C 62.50078582763672 4.242240905761719 56.34597015380859 3 49.99972534179688 3 M 49.99972534179688 0 C 77.61381530761719 0 99.99945068359375 22.38559722900391 99.99945068359375 49.99964141845703 L 99.99945068359375 50.00022888183594 C 99.99945068359375 77.6142578125 77.61381530761719 99.99987030029297 49.99972534179688 99.99987030029297 C 22.38563537597656 99.99987030029297 0 77.6142578125 0 50.00022888183594 L 0 49.99964141845703 C 0 22.38559722900391 22.38563537597656 0 49.99972534179688 0 Z" stroke="none" fill="#fff"/>
              </g>
            </g>
            <g id="Trazado_874923" data-name="Trazado 874923" transform="translate(0 0)" fill="none">
              <path d="M50,0a50,50,0,0,1,50,50h0A50,50,0,0,1,0,50H0A50,50,0,0,1,50,0Z" stroke="none"/>
              <path d="M 49.99972534179688 3 C 43.65348052978516 3 37.49866485595703 4.242240905761719 31.70623016357422 6.692230224609375 C 26.10989379882812 9.059272766113281 21.08323669433594 12.44853210449219 16.76589202880859 16.76587677001953 C 12.44855499267578 21.08321380615234 9.059295654296875 26.10985565185547 6.692230224609375 31.70618438720703 C 4.24224853515625 37.49859619140625 3 43.65341186523438 3 50.00022888183594 C 3 56.34645843505859 4.24224853515625 62.50127410888672 6.692230224609375 68.29368591308594 C 9.059295654296875 73.8900146484375 12.44855499267578 78.91665649414062 16.76589202880859 83.23399353027344 C 21.08323669433594 87.55132293701172 26.10989379882812 90.94059753417969 31.70623016357422 93.30764007568359 C 37.49866485595703 95.75762939453125 43.65348052978516 96.99987030029297 49.99972534179688 96.99987030029297 C 56.34597015380859 96.99987030029297 62.50078582763672 95.75762939453125 68.293212890625 93.30764007568359 C 73.88955688476562 90.94059753417969 78.91621398925781 87.55132293701172 83.23355865478516 83.23399353027344 C 87.55089569091797 78.91665649414062 90.94015502929688 73.8900146484375 93.30722045898438 68.29368591308594 C 95.7572021484375 62.50127410888672 96.99945068359375 56.34645843505859 96.99945068359375 49.99964141845703 C 96.99945068359375 43.65341186523438 95.7572021484375 37.49859619140625 93.30722045898438 31.70618438720703 C 90.94015502929688 26.10985565185547 87.55089569091797 21.08321380615234 83.23355865478516 16.76587677001953 C 78.91621398925781 12.44853210449219 73.88955688476562 9.059272766113281 68.293212890625 6.692230224609375 C 62.50078582763672 4.242240905761719 56.34597015380859 3 49.99972534179688 3 M 49.99972534179688 0 C 77.61381530761719 0 99.99945068359375 22.38559722900391 99.99945068359375 49.99964141845703 L 99.99945068359375 50.00022888183594 C 99.99945068359375 77.6142578125 77.61381530761719 99.99987030029297 49.99972534179688 99.99987030029297 C 22.38563537597656 99.99987030029297 0 77.6142578125 0 50.00022888183594 L 0 49.99964141845703 C 0 22.38559722900391 22.38563537597656 0 49.99972534179688 0 Z" stroke="none" fill="#fff"/>
            </g>
          </g>
        </g>
      </g>
    </g>
    <g id="_30-appointment" data-name="30-appointment" transform="translate(816.322 1935.838)">
      <g id="linear_color" data-name="linear color" transform="translate(5.262 25.523)">
        <path id="Trazado_907573" data-name="Trazado 907573" d="M81.265,77.522h46.548v39.615H81.265Z" transform="translate(-71.856 -71.085)" fill="url(#linear-gradient)"/>
        <path id="Trazado_907574" data-name="Trazado 907574" d="M457.265,77.522h4.952v39.615h-4.952Z" transform="translate(-401.308 -71.085)" fill="url(#linear-gradient-2)"/>
        <path id="Trazado_907575" data-name="Trazado 907575" d="M63.813,110.2H17.265l7.923-32.683H71.736Z" transform="translate(-15.779 -71.085)" fill="url(#linear-gradient-3)"/>
        <path id="Trazado_907576" data-name="Trazado 907576" d="M110.82,77.522H64.272l-2.4,9.9h46.548Z" transform="translate(-54.863 -71.085)" fill="url(#linear-gradient-4)"/>
        <circle id="Elipse_11679" data-name="Elipse 11679" cx="11.885" cy="11.885" r="11.885" transform="translate(37.107 34.168)" fill="url(#linear-gradient-5)"/>
        <path id="Trazado_907577" data-name="Trazado 907577" d="M67.656,31.96a1.486,1.486,0,0,0-1.486-1.486H59.558a6.436,6.436,0,0,0-12.525,0H44.7a6.436,6.436,0,0,0-12.525,0H29.847a6.436,6.436,0,0,0-12.525,0H14.67a1.5,1.5,0,0,0-1.443,1.135L5.3,64.293a1.486,1.486,0,0,0,1.443,1.836h6.437v5.447a1.486,1.486,0,0,0,1.486,1.486h26.3A13.37,13.37,0,0,0,67.62,71.9C67.62,71.745,67.656,31.96,67.656,31.96ZM64.685,63.223a13.494,13.494,0,0,0-1.981-2V51.768a1.486,1.486,0,0,0-2.971,0V59.38a13.259,13.259,0,0,0-3.389-1.011l6.042-24.924h2.3ZM15.839,33.446h1.482A6.447,6.447,0,0,0,23.584,38.4a1.486,1.486,0,1,0,0-2.971,3.47,3.47,0,0,1-3.131-1.981H32.177A6.447,6.447,0,0,0,38.44,38.4a1.486,1.486,0,1,0,0-2.971,3.47,3.47,0,0,1-3.131-1.981H47.033A6.447,6.447,0,0,0,53.3,38.4a1.486,1.486,0,1,0,0-2.971,3.47,3.47,0,0,1-3.131-1.981h9.165l-1.681,6.933H14.159ZM53.3,28.494a3.471,3.471,0,0,1,3.131,1.981H50.165A3.47,3.47,0,0,1,53.3,28.494Zm-14.856,0a3.471,3.471,0,0,1,3.131,1.981H35.309a3.47,3.47,0,0,1,3.131-1.981Zm-14.856,0a3.471,3.471,0,0,1,3.131,1.981H20.453a3.47,3.47,0,0,1,3.131-1.981ZM13.437,43.35h43.49L53.318,58.239a13.356,13.356,0,0,0-9.444,4.918H8.636Zm2.718,22.779H42.044a13.263,13.263,0,0,0-1.078,3.962H16.156ZM55.739,81.867V80.489a1.486,1.486,0,0,0-2.971,0v1.378a10.42,10.42,0,0,1-8.806-8.806H45.34a1.486,1.486,0,0,0,0-2.971H43.962a10.42,10.42,0,0,1,8.806-8.806v1.378a1.486,1.486,0,1,0,2.971,0V61.284a10.42,10.42,0,0,1,8.806,8.806H63.167a1.486,1.486,0,1,0,0,2.971h1.378A10.42,10.42,0,0,1,55.739,81.867Z" transform="translate(-5.262 -25.523)"/>
        <path id="Trazado_907578" data-name="Trazado 907578" d="M250.751,192.492h3.962a1.486,1.486,0,0,0,0-2.971h-3.962a1.486,1.486,0,1,0,0,2.971Z" transform="translate(-219.058 -169.218)"/>
        <path id="Trazado_907579" data-name="Trazado 907579" d="M170.751,192.492h3.962a1.486,1.486,0,1,0,0-2.971h-3.962a1.486,1.486,0,1,0,0,2.971Z" transform="translate(-148.962 -169.218)"/>
        <path id="Trazado_907580" data-name="Trazado 907580" d="M90.751,192.492h3.962a1.486,1.486,0,1,0,0-2.971H90.751a1.486,1.486,0,1,0,0,2.971Z" transform="translate(-78.866 -169.218)"/>
        <path id="Trazado_907581" data-name="Trazado 907581" d="M330.751,192.492h3.962a1.486,1.486,0,1,0,0-2.971h-3.962a1.486,1.486,0,0,0,0,2.971Z" transform="translate(-289.154 -169.218)"/>
        <path id="Trazado_907582" data-name="Trazado 907582" d="M234.751,240.492h3.962a1.486,1.486,0,0,0,0-2.971h-3.962a1.486,1.486,0,0,0,0,2.971Z" transform="translate(-205.039 -211.276)"/>
        <path id="Trazado_907583" data-name="Trazado 907583" d="M154.751,240.492h3.962a1.486,1.486,0,1,0,0-2.971h-3.962a1.486,1.486,0,1,0,0,2.971Z" transform="translate(-134.943 -211.276)"/>
        <path id="Trazado_907584" data-name="Trazado 907584" d="M74.751,240.492h3.962a1.486,1.486,0,0,0,0-2.971H74.751a1.486,1.486,0,0,0,0,2.971Z" transform="translate(-64.846 -211.276)"/>
        <path id="Trazado_907585" data-name="Trazado 907585" d="M314.751,240.492h3.962a1.486,1.486,0,0,0,0-2.971h-3.962a1.486,1.486,0,0,0,0,2.971Z" transform="translate(-275.135 -211.276)"/>
        <path id="Trazado_907586" data-name="Trazado 907586" d="M226.751,288.492h3.962a1.486,1.486,0,1,0,0-2.971h-3.962a1.486,1.486,0,1,0,0,2.971Z" transform="translate(-198.029 -253.334)"/>
        <path id="Trazado_907587" data-name="Trazado 907587" d="M146.751,288.492h3.962a1.486,1.486,0,1,0,0-2.971h-3.962a1.486,1.486,0,0,0,0,2.971Z" transform="translate(-127.933 -253.334)"/>
        <path id="Trazado_907588" data-name="Trazado 907588" d="M72.2,287.007a1.486,1.486,0,0,0-1.486-1.486H66.751a1.486,1.486,0,0,0,0,2.971h3.962A1.486,1.486,0,0,0,72.2,287.007Z" transform="translate(-57.837 -253.334)"/>
        <path id="Trazado_907589" data-name="Trazado 907589" d="M365.356,353.957l-3.2,3.2-3-1.5a1.486,1.486,0,1,0-1.329,2.658l3.962,1.981a1.486,1.486,0,0,0,1.715-.278l3.962-3.962a1.486,1.486,0,1,0-2.1-2.1Z" transform="translate(-313.453 -312.916)"/>
      </g>
    </g>
  </g>
</svg>
