<svg xmlns="http://www.w3.org/2000/svg" xmlns:xlink="http://www.w3.org/1999/xlink" width="117.999" height="118" viewBox="0 0 117.999 118">
  <defs>
    <filter id="Trazado_874925" x="0" y="0" width="117.999" height="118" filterUnits="userSpaceOnUse">
      <feOffset dy="3" input="SourceAlpha"/>
      <feGaussianBlur stdDeviation="3" result="blur"/>
      <feFlood flood-opacity="0.161"/>
      <feComposite operator="in" in2="blur"/>
      <feComposite in="SourceGraphic"/>
    </filter>
  </defs>
  <g id="Grupo_1112505" data-name="Grupo 1112505" transform="translate(-793.782 -1933.999)">
    <g id="Grupo_1111552" data-name="Grupo 1111552" transform="translate(-5.719 -577.158)">
      <g id="Grupo_1111316" data-name="Grupo 1111316" transform="translate(808.5 2517.157)">
        <g id="Grupo_1109835" data-name="Grupo 1109835" transform="translate(0 0)">
          <g id="Grupo_1107913" data-name="Grupo 1107913" transform="translate(0 0)">
            <g transform="matrix(1, 0, 0, 1, -9, -6)" filter="url(#Trazado_874925)">
              <g id="Trazado_874925-2" data-name="Trazado 874925" transform="translate(9 6)" fill="#9cc8ff" opacity="0.859">
                <path d="M 49.99972534179688 98.4998779296875 C 43.45164108276367 98.4998779296875 37.10022354125977 97.21776580810547 31.12189674377441 94.68914794921875 C 25.34676742553711 92.24647521972656 20.15985298156738 88.74925994873047 15.70523929595947 84.29464721679688 C 11.25062561035156 79.84004974365234 7.753411293029785 74.65313720703125 5.310725212097168 68.87800598144531 C 2.782111167907715 62.89969253540039 1.499996781349182 56.54829406738281 1.499996781349182 50.00022125244141 C 1.499996781349182 43.45157623291016 2.782111167907715 37.10017776489258 5.310725212097168 31.12186431884766 C 7.753411293029785 25.34673500061035 11.25062561035156 20.15983581542969 15.70523929595947 15.70522117614746 C 20.15985298156738 11.25062084197998 25.34676742553711 7.753406524658203 31.12189674377441 5.31073522567749 C 37.10022354125977 2.782120943069458 43.45164108276367 1.500006556510925 49.99972534179688 1.500006556510925 C 56.54780960083008 1.500006556510925 62.89922714233398 2.782120943069458 68.87755584716797 5.31073522567749 C 74.65267944335938 7.753406524658203 79.839599609375 11.25062084197998 84.29421234130859 15.70522117614746 C 88.74882507324219 20.15983581542969 92.24604034423828 25.34673500061035 94.68872833251953 31.12186431884766 C 97.21733856201172 37.10017776489258 98.49945068359375 43.45157623291016 98.49945068359375 49.99964904785156 C 98.49945068359375 56.54829406738281 97.21733856201172 62.89969253540039 94.68872833251953 68.87800598144531 C 92.24604034423828 74.65313720703125 88.74882507324219 79.84004974365234 84.29421234130859 84.29464721679688 C 79.839599609375 88.74925994873047 74.65267944335938 92.24647521972656 68.87755584716797 94.68914794921875 C 62.89922714233398 97.21776580810547 56.54780960083008 98.4998779296875 49.99972534179688 98.4998779296875 Z" stroke="none"/>
                <path d="M 49.99972534179688 3 C 43.65348052978516 3 37.49866485595703 4.242240905761719 31.70623016357422 6.692230224609375 C 26.10989379882812 9.059272766113281 21.08323669433594 12.44853210449219 16.76589202880859 16.76587677001953 C 12.44855499267578 21.08321380615234 9.059295654296875 26.10985565185547 6.692230224609375 31.70618438720703 C 4.24224853515625 37.49859619140625 3 43.65341186523438 3 50.00022888183594 C 3 56.34645843505859 4.24224853515625 62.50127410888672 6.692230224609375 68.29368591308594 C 9.059295654296875 73.8900146484375 12.44855499267578 78.91665649414062 16.76589202880859 83.23399353027344 C 21.08323669433594 87.55132293701172 26.10989379882812 90.94059753417969 31.70623016357422 93.30764007568359 C 37.49866485595703 95.75762939453125 43.65348052978516 96.99987030029297 49.99972534179688 96.99987030029297 C 56.34597015380859 96.99987030029297 62.50078582763672 95.75762939453125 68.293212890625 93.30764007568359 C 73.88955688476562 90.94059753417969 78.91621398925781 87.55132293701172 83.23355865478516 83.23399353027344 C 87.55089569091797 78.91665649414062 90.94015502929688 73.8900146484375 93.30722045898438 68.29368591308594 C 95.7572021484375 62.50127410888672 96.99945068359375 56.34645843505859 96.99945068359375 49.99964141845703 C 96.99945068359375 43.65341186523438 95.7572021484375 37.49859619140625 93.30722045898438 31.70618438720703 C 90.94015502929688 26.10985565185547 87.55089569091797 21.08321380615234 83.23355865478516 16.76587677001953 C 78.91621398925781 12.44853210449219 73.88955688476562 9.059272766113281 68.293212890625 6.692230224609375 C 62.50078582763672 4.242240905761719 56.34597015380859 3 49.99972534179688 3 M 49.99972534179688 0 C 77.61381530761719 0 99.99945068359375 22.38559722900391 99.99945068359375 49.99964141845703 L 99.99945068359375 50.00022888183594 C 99.99945068359375 77.6142578125 77.61381530761719 99.99987030029297 49.99972534179688 99.99987030029297 C 22.38563537597656 99.99987030029297 0 77.6142578125 0 50.00022888183594 L 0 49.99964141845703 C 0 22.38559722900391 22.38563537597656 0 49.99972534179688 0 Z" stroke="none" fill="#fff"/>
              </g>
            </g>
            <g id="Trazado_874923" data-name="Trazado 874923" transform="translate(0 0)" fill="none">
              <path d="M50,0a50,50,0,0,1,50,50h0A50,50,0,0,1,0,50H0A50,50,0,0,1,50,0Z" stroke="none"/>
              <path d="M 49.99972534179688 3 C 43.65348052978516 3 37.49866485595703 4.242240905761719 31.70623016357422 6.692230224609375 C 26.10989379882812 9.059272766113281 21.08323669433594 12.44853210449219 16.76589202880859 16.76587677001953 C 12.44855499267578 21.08321380615234 9.059295654296875 26.10985565185547 6.692230224609375 31.70618438720703 C 4.24224853515625 37.49859619140625 3 43.65341186523438 3 50.00022888183594 C 3 56.34645843505859 4.24224853515625 62.50127410888672 6.692230224609375 68.29368591308594 C 9.059295654296875 73.8900146484375 12.44855499267578 78.91665649414062 16.76589202880859 83.23399353027344 C 21.08323669433594 87.55132293701172 26.10989379882812 90.94059753417969 31.70623016357422 93.30764007568359 C 37.49866485595703 95.75762939453125 43.65348052978516 96.99987030029297 49.99972534179688 96.99987030029297 C 56.34597015380859 96.99987030029297 62.50078582763672 95.75762939453125 68.293212890625 93.30764007568359 C 73.88955688476562 90.94059753417969 78.91621398925781 87.55132293701172 83.23355865478516 83.23399353027344 C 87.55089569091797 78.91665649414062 90.94015502929688 73.8900146484375 93.30722045898438 68.29368591308594 C 95.7572021484375 62.50127410888672 96.99945068359375 56.34645843505859 96.99945068359375 49.99964141845703 C 96.99945068359375 43.65341186523438 95.7572021484375 37.49859619140625 93.30722045898438 31.70618438720703 C 90.94015502929688 26.10985565185547 87.55089569091797 21.08321380615234 83.23355865478516 16.76587677001953 C 78.91621398925781 12.44853210449219 73.88955688476562 9.059272766113281 68.293212890625 6.692230224609375 C 62.50078582763672 4.242240905761719 56.34597015380859 3 49.99972534179688 3 M 49.99972534179688 0 C 77.61381530761719 0 99.99945068359375 22.38559722900391 99.99945068359375 49.99964141845703 L 99.99945068359375 50.00022888183594 C 99.99945068359375 77.6142578125 77.61381530761719 99.99987030029297 49.99972534179688 99.99987030029297 C 22.38563537597656 99.99987030029297 0 77.6142578125 0 50.00022888183594 L 0 49.99964141845703 C 0 22.38559722900391 22.38563537597656 0 49.99972534179688 0 Z" stroke="none" fill="#fff"/>
            </g>
          </g>
        </g>
      </g>
    </g>
    <g id="Grupo_1114785" data-name="Grupo 1114785" transform="translate(823.73 1964.166)">
      <g id="Grupo_1114789" data-name="Grupo 1114789" transform="translate(0.875 0.896)">
        <path id="Trazado_907480" data-name="Trazado 907480" d="M223.915,70.722v34.473a3.48,3.48,0,0,1-3.48,3.48H187.093L204.2,70.722Z" transform="translate(-166.266 -63.392)" fill="#b5e6a8"/>
        <path id="Trazado_907481" data-name="Trazado 907481" d="M439.184,7.526h-4.64a3.48,3.48,0,0,1,3.48,3.48V49.329a3.48,3.48,0,0,1-3.48,3.48h4.64a3.48,3.48,0,0,0,3.48-3.48V11.006A3.48,3.48,0,0,0,439.184,7.526Z" transform="translate(-385.015 -7.526)" fill="#a5d998"/>
        <g id="Grupo_1114788" data-name="Grupo 1114788" transform="translate(0 0)">
          <g id="Grupo_1114785-2" data-name="Grupo 1114785" transform="translate(0 0)">
            <path id="Trazado_907482" data-name="Trazado 907482" d="M65.193,11.006a3.48,3.48,0,0,0-3.48-3.48H11.024a3.48,3.48,0,0,0-3.48,3.48v3.851H65.193Z" transform="translate(-7.544 -7.526)" fill="#65b9d7"/>
          </g>
          <path id="Trazado_907483" data-name="Trazado 907483" d="M439.184,7.526h-4.64a3.48,3.48,0,0,1,3.48,3.48v3.851h4.64V11.006A3.48,3.48,0,0,0,439.184,7.526Z" transform="translate(-385.015 -7.526)" fill="#56aac7"/>
          <path id="Trazado_907484" data-name="Trazado 907484" d="M28.371,108.675,45.478,70.722H7.544v34.6a3.48,3.48,0,0,0,3.506,3.48Z" transform="translate(-7.544 -63.392)" fill="#ffe563"/>
          <g id="Grupo_1114786" data-name="Grupo 1114786" transform="translate(5.48 17.818)">
            <path id="Trazado_907485" data-name="Trazado 907485" d="M98.369,175.629H57.407a2.621,2.621,0,0,1-2.621-2.621V163.76a2.621,2.621,0,0,1,2.621-2.621H98.369a2.621,2.621,0,0,1,2.621,2.621v9.249A2.62,2.62,0,0,1,98.369,175.629Z" transform="translate(-54.786 -161.139)" fill="#fff"/>
          </g>
          <g id="Grupo_1114787" data-name="Grupo 1114787" transform="translate(39.076 35.752)">
            <path id="Trazado_907486" data-name="Trazado 907486" d="M344.421,315.745l.037,21.9,6.285-7.381,9.7.416Z" transform="translate(-344.421 -315.745)" fill="#ff5781"/>
            <path id="Trazado_907487" data-name="Trazado 907487" d="M379.958,403.746l-1.934-4.4a.87.87,0,0,0-1.595.7l1.925,4.389.62-.728Z" transform="translate(-372.652 -389.188)" fill="#ff4170"/>
          </g>
        </g>
      </g>
      <g id="Grupo_1114790" data-name="Grupo 1114790" transform="translate(0 0.026)">
        <path id="Trazado_907488" data-name="Trazado 907488" d="M55.044.026H50.5a.87.87,0,0,0,0,1.74h4.548a2.613,2.613,0,0,1,2.61,2.61v2.98H1.745V4.376a2.613,2.613,0,0,1,2.61-2.61H45.4a.87.87,0,0,0,0-1.74H4.355a4.355,4.355,0,0,0-4.35,4.35V42.7a4.406,4.406,0,0,0,4.382,4.478H39.1l.019,11.369a.874.874,0,0,0,1.532.563l6.01-7.058,9.271.4a.876.876,0,0,0,.631-1.505l-4.177-3.894h2.66a4.355,4.355,0,0,0,4.35-4.35V4.376a4.354,4.354,0,0,0-4.35-4.35ZM37.463,9.1,33.52,17.844H8.975a3.494,3.494,0,0,0-3.49,3.49v9.249a3.494,3.494,0,0,0,3.49,3.49h6.107a.87.87,0,0,0,0-1.74H8.975a1.753,1.753,0,0,1-1.751-1.751V21.335a1.753,1.753,0,0,1,1.751-1.751H49.938a1.753,1.753,0,0,1,1.751,1.751v9.249a1.753,1.753,0,0,1-1.751,1.751H19.714a.87.87,0,0,0,0,1.74H26.2L21.14,45.309H4.355a2.613,2.613,0,0,1-2.61-2.61V9.1Zm9.39,41.222-1.53-3.511a.87.87,0,0,0-1.595.7l1.53,3.511-4.4,5.173-.029-17.535L53.651,50.609Zm8.191-5.009H50.518l-9.974-9.3a.877.877,0,0,0-1.463.638l.014,8.66H23.048l5.064-11.235H49.938a3.494,3.494,0,0,0,3.49-3.49V21.335a3.494,3.494,0,0,0-3.49-3.49H35.428L39.371,9.1H57.654V42.7A2.613,2.613,0,0,1,55.044,45.309Z" transform="translate(0 -0.026)"/>
        <path id="Trazado_907489" data-name="Trazado 907489" d="M345.764,195.143a.87.87,0,0,0,.87-.87V187.4a.87.87,0,0,0-1.74,0v6.87A.87.87,0,0,0,345.764,195.143Z" transform="translate(-304.888 -164.904)"/>
        <path id="Trazado_907490" data-name="Trazado 907490" d="M224.825,195.031h2.868a.87.87,0,0,0,0-1.74h-2v-1.664h1.787a.87.87,0,1,0,0-1.74h-1.787v-1.664h2a.87.87,0,0,0,0-1.74h-2.868a.87.87,0,0,0-.87.87v6.808A.87.87,0,0,0,224.825,195.031Z" transform="translate(-197.978 -164.855)"/>
        <path id="Trazado_907491" data-name="Trazado 907491" d="M277.314,194.636a.9.9,0,0,0,.616.253c.057,0,1.4.009,1.942,0,4.653-.092,4.67-8.478-.071-8.407h-1.888a.87.87,0,0,0-.87.877v6.552A1.207,1.207,0,0,0,277.314,194.636Zm2.488-6.414c1.691,0,1.822,1.886,1.822,2.464,0,1.67-.9,2.444-1.782,2.459-.241,0-.662,0-1.048,0q-.008-2.461-.009-4.923Z" transform="translate(-244.909 -164.854)"/>
        <path id="Trazado_907492" data-name="Trazado 907492" d="M94.07,193.79a.87.87,0,0,0-1.333-1.118c-1.478,1.573-4.121.126-4.063-1.906a2.574,2.574,0,0,1,4-2.128.87.87,0,0,0,.974-1.442,4.32,4.32,0,0,0-6.713,3.569c-.077,3.63,4.646,5.86,7.135,3.025Z" transform="translate(-76.85 -164.832)"/>
        <path id="Trazado_907493" data-name="Trazado 907493" d="M374.171,188.224h1.019v6a.87.87,0,0,0,1.74,0v-6h1.035a.87.87,0,0,0,0-1.74h-3.794A.87.87,0,0,0,374.171,188.224Z" transform="translate(-330.006 -164.856)"/>
        <path id="Trazado_907494" data-name="Trazado 907494" d="M164.443,195.093a.87.87,0,0,0,.87-.87v-1.915l2.191,2.49a.87.87,0,0,0,1.306-1.15l-1.734-1.97a2.647,2.647,0,0,0-.805-5.2h-1.828a.87.87,0,0,0-.87.87v6.87A.87.87,0,0,0,164.443,195.093Zm1.828-6.87a.921.921,0,1,1,0,1.831l-.948,0c0-.611,0-1.223-.005-1.834h.953Z" transform="translate(-144.6 -164.855)"/>
        <path id="Trazado_907495" data-name="Trazado 907495" d="M38.639,33.962a.87.87,0,0,0,0-1.74A.87.87,0,0,0,38.639,33.962Z" transform="translate(-33.415 -28.487)"/>
        <path id="Trazado_907496" data-name="Trazado 907496" d="M69.931,33.962a.87.87,0,0,0,0-1.74A.87.87,0,0,0,69.931,33.962Z" transform="translate(-61.077 -28.487)"/>
        <path id="Trazado_907497" data-name="Trazado 907497" d="M101.222,33.962a.87.87,0,0,0,0-1.74A.87.87,0,0,0,101.222,33.962Z" transform="translate(-88.738 -28.487)"/>
      </g>
    </g>
  </g>
</svg>
