<svg xmlns="http://www.w3.org/2000/svg" xmlns:xlink="http://www.w3.org/1999/xlink" width="102.949" height="102.949" viewBox="0 0 102.949 102.949">
  <defs>
    <filter id="Trazado_874925" x="0" y="0" width="102.949" height="102.949" filterUnits="userSpaceOnUse">
      <feOffset dy="3" input="SourceAlpha"/>
      <feGaussianBlur stdDeviation="3" result="blur"/>
      <feFlood flood-opacity="0.161"/>
      <feComposite operator="in" in2="blur"/>
      <feComposite in="SourceGraphic"/>
    </filter>
  </defs>
  <g id="Grupo_1112444" data-name="Grupo 1112444" transform="translate(-799.5 -2511.157)">
    <g id="Grupo_1111316" data-name="Grupo 1111316" transform="translate(808.5 2517.157)">
      <g id="Grupo_1109835" data-name="Grupo 1109835" transform="translate(0 0)">
        <g id="Grupo_1107913" data-name="Grupo 1107913" transform="translate(0 0)">
          <g transform="matrix(1, 0, 0, 1, -9, -6)" filter="url(#Trazado_874925)">
            <g id="Trazado_874925-2" data-name="Trazado 874925" transform="translate(9 6)" fill="#4c6929" opacity="0.859">
              <path d="M 42.47446823120117 83.44929504394531 C 36.94229125976562 83.44929504394531 31.57638549804688 82.36614227294922 26.52582168579102 80.22994232177734 C 21.64678573608398 78.16628265380859 17.26464462280273 75.211669921875 13.50113868713379 71.44816589355469 C 9.737632751464844 67.68466949462891 6.78300952911377 63.30253982543945 4.719362258911133 58.42351913452148 C 2.583150625228882 53.37295150756836 1.499997615814209 48.00706100463867 1.499997615814209 42.47489547729492 C 1.499997615814209 36.94223403930664 2.583150625228882 31.57634162902832 4.719362258911133 26.52577781677246 C 6.78300952911377 21.64675331115723 9.737632751464844 17.26462364196777 13.50113868713379 13.50113010406494 C 17.26464462280273 9.737624168395996 21.64678573608398 6.783012390136719 26.52582168579102 4.719353199005127 C 31.57638549804688 2.583153486251831 36.94229125976562 1.500000476837158 42.47446823120117 1.500000476837158 C 48.00664520263672 1.500000476837158 53.37255096435547 2.583153486251831 58.42311477661133 4.719353199005127 C 63.30215072631836 6.783012390136719 67.68428802490234 9.737624168395996 71.44779968261719 13.50113010406494 C 75.2113037109375 17.26462364196777 78.16592407226562 21.64675331115723 80.22957611083984 26.52577781677246 C 82.36578369140625 31.57634162902832 83.44893646240234 36.94223403930664 83.44893646240234 42.47439956665039 C 83.44893646240234 48.00706100463867 82.36578369140625 53.37295150756836 80.22957611083984 58.42351913452148 C 78.16592407226562 63.30253982543945 75.2113037109375 67.68466949462891 71.44779968261719 71.44816589355469 C 67.68428802490234 75.211669921875 63.30215072631836 78.16628265380859 58.42311477661133 80.22994232177734 C 53.37255096435547 82.36614227294922 48.00664520263672 83.44929504394531 42.47446823120117 83.44929504394531 Z" stroke="none"/>
              <path d="M 42.47446823120117 2.999992370605469 C 37.14412307739258 2.999992370605469 31.97481536865234 4.04327392578125 27.11014938354492 6.100860595703125 C 22.40990829467773 8.088890075683594 18.18804168701172 10.93555450439453 14.56179809570312 14.56178283691406 C 10.93557739257812 18.18801116943359 8.088897705078125 22.40987396240234 6.100868225097656 27.11009979248047 C 4.043281555175781 31.97476577758789 3 37.14406204223633 3 42.47488784790039 C 3 47.80522155761719 4.043281555175781 52.97451400756836 6.100868225097656 57.83917999267578 C 8.088897705078125 62.53940582275391 10.93557739257812 66.76127624511719 14.56179809570312 70.38749694824219 C 18.18804168701172 74.01372528076172 22.40990829467773 76.86039733886719 27.11014938354492 78.84841918945312 C 31.97481536865234 80.906005859375 37.14412307739258 81.94928741455078 42.47446823120117 81.94928741455078 C 47.80481338500977 81.94928741455078 52.97412109375 80.906005859375 57.83879089355469 78.84841918945312 C 62.53902816772461 76.86039733886719 66.76089477539062 74.01372528076172 70.38713073730469 70.38749694824219 C 74.01335906982422 66.76127624511719 76.86003875732422 62.53940582275391 78.84806823730469 57.83917999267578 C 80.90565490722656 52.97451400756836 81.94893646240234 47.80522155761719 81.94893646240234 42.47439575195312 C 81.94893646240234 37.14406204223633 80.90565490722656 31.97476577758789 78.84806823730469 27.11009979248047 C 76.86003875732422 22.40987396240234 74.01335906982422 18.18801116943359 70.38713073730469 14.56178283691406 C 66.76089477539062 10.93555450439453 62.53902816772461 8.088890075683594 57.83879089355469 6.100860595703125 C 52.97412109375 4.04327392578125 47.80481338500977 2.999992370605469 42.47446823120117 2.999992370605469 M 42.47446823120117 -7.62939453125e-06 C 65.93246459960938 -7.62939453125e-06 84.94893646240234 19.01643371582031 84.94893646240234 42.47439575195312 L 84.94893646240234 42.47488784790039 C 84.94893646240234 65.93284606933594 65.93246459960938 84.94928741455078 42.47446823120117 84.94928741455078 C 19.01647186279297 84.94928741455078 0 65.93284606933594 0 42.47488784790039 L 0 42.47439575195312 C 0 19.01643371582031 19.01647186279297 -7.62939453125e-06 42.47446823120117 -7.62939453125e-06 Z" stroke="none" fill="#fff"/>
            </g>
          </g>
          <g id="Trazado_874923" data-name="Trazado 874923" transform="translate(0 0)" fill="none">
            <path d="M42.474,0A42.474,42.474,0,0,1,84.949,42.474h0A42.474,42.474,0,0,1,0,42.475H0A42.474,42.474,0,0,1,42.474,0Z" stroke="none"/>
            <path d="M 42.47446823120117 2.999992370605469 C 37.14412307739258 2.999992370605469 31.97481536865234 4.04327392578125 27.11014938354492 6.100860595703125 C 22.40990829467773 8.088890075683594 18.18804168701172 10.93555450439453 14.56179809570312 14.56178283691406 C 10.93557739257812 18.18801116943359 8.088897705078125 22.40987396240234 6.100868225097656 27.11009979248047 C 4.043281555175781 31.97476577758789 3 37.14406204223633 3 42.47488784790039 C 3 47.80522155761719 4.043281555175781 52.97451400756836 6.100868225097656 57.83917999267578 C 8.088897705078125 62.53940582275391 10.93557739257812 66.76127624511719 14.56179809570312 70.38749694824219 C 18.18804168701172 74.01372528076172 22.40990829467773 76.86039733886719 27.11014938354492 78.84841918945312 C 31.97481536865234 80.906005859375 37.14412307739258 81.94928741455078 42.47446823120117 81.94928741455078 C 47.80481338500977 81.94928741455078 52.97412109375 80.906005859375 57.83879089355469 78.84841918945312 C 62.53902816772461 76.86039733886719 66.76089477539062 74.01372528076172 70.38713073730469 70.38749694824219 C 74.01335906982422 66.76127624511719 76.86003875732422 62.53940582275391 78.84806823730469 57.83917999267578 C 80.90565490722656 52.97451400756836 81.94893646240234 47.80522155761719 81.94893646240234 42.47439575195312 C 81.94893646240234 37.14406204223633 80.90565490722656 31.97476577758789 78.84806823730469 27.11009979248047 C 76.86003875732422 22.40987396240234 74.01335906982422 18.18801116943359 70.38713073730469 14.56178283691406 C 66.76089477539062 10.93555450439453 62.53902816772461 8.088890075683594 57.83879089355469 6.100860595703125 C 52.97412109375 4.04327392578125 47.80481338500977 2.999992370605469 42.47446823120117 2.999992370605469 M 42.47446823120117 -7.62939453125e-06 C 65.93246459960938 -7.62939453125e-06 84.94893646240234 19.01643371582031 84.94893646240234 42.47439575195312 L 84.94893646240234 42.47488784790039 C 84.94893646240234 65.93284606933594 65.93246459960938 84.94928741455078 42.47446823120117 84.94928741455078 C 19.01647186279297 84.94928741455078 0 65.93284606933594 0 42.47488784790039 L 0 42.47439575195312 C 0 19.01643371582031 19.01647186279297 -7.62939453125e-06 42.47446823120117 -7.62939453125e-06 Z" stroke="none" fill="#fff"/>
          </g>
        </g>
      </g>
    </g>
    <g id="farmer_12088058" transform="translate(826.059 2531.084)">
      <g id="Grupo_1111610" data-name="Grupo 1111610" transform="translate(0 0)">
        <g id="Grupo_1111609" data-name="Grupo 1111609" transform="translate(0 0)">
          <path id="Trazado_900669" data-name="Trazado 900669" d="M168.769,15.752a46.83,46.83,0,0,1,11.322,1.283A11.491,11.491,0,0,0,168.769,7.5h0a11.491,11.491,0,0,0-11.322,9.534A46.83,46.83,0,0,1,168.769,15.752Z" transform="translate(-143.853 -7.5)" fill="#ffd15b"/>
          <g id="Grupo_1111596" data-name="Grupo 1111596" transform="translate(22.449)">
            <path id="Trazado_900670" data-name="Trazado 900670" d="M243.186,16.105a39.653,39.653,0,0,1,5.133.929A11.491,11.491,0,0,0,237,7.5h0a11.523,11.523,0,0,0-2.466.267A11.5,11.5,0,0,1,243.186,16.105Z" transform="translate(-234.531 -7.5)" fill="#ffc344"/>
          </g>
          <ellipse id="Elipse_11625" data-name="Elipse 11625" cx="18.84" cy="6.4" rx="18.84" ry="6.4" transform="translate(6.075 8.137)" fill="#ffe177"/>
          <g id="Grupo_1111597" data-name="Grupo 1111597" transform="translate(36.334 10.545)">
            <path id="Trazado_900671" data-name="Trazado 900671" d="M358.707,99.289a2.7,2.7,0,0,1,.669,1.695c0,1.482-1.484,2.847-3.974,3.932a3.408,3.408,0,0,1,2.18,2.795c3.246-1.15,5.24-2.71,5.24-4.429C362.822,101.771,361.281,100.384,358.707,99.289Z" transform="translate(-355.401 -99.289)" fill="#ffd15b"/>
          </g>
          <g id="Grupo_1111600" data-name="Grupo 1111600" transform="translate(5.96 31.785)">
            <g id="Grupo_1111599" data-name="Grupo 1111599">
              <g id="Grupo_1111598" data-name="Grupo 1111598">
                <path id="Trazado_900672" data-name="Trazado 900672" d="M95.116,292.6a6.671,6.671,0,0,1,6.666,6.455l0,.111h1.5l0-.111a6.67,6.67,0,0,1,13.332,0l0,.111h1.5l0-.111a6.658,6.658,0,0,1,10.782-5.022v-2.966a6.893,6.893,0,0,0-6.893-6.893H97.893A6.893,6.893,0,0,0,91,291.069v2.966A6.654,6.654,0,0,1,95.116,292.6Z" transform="translate(-91 -284.176)" fill="#e2dee2"/>
              </g>
            </g>
          </g>
          <path id="Trazado_900673" data-name="Trazado 900673" d="M371.844,293.1l.083,0a3.583,3.583,0,0,1,3.5-2.815h.391a6.9,6.9,0,0,0-5.7-5.419v8.455A6.791,6.791,0,0,1,371.844,293.1Z" transform="translate(-332.089 -253)" fill="#cbc4cc"/>
          <g id="Grupo_1111601" data-name="Grupo 1111601" transform="translate(9.416 20.217)">
            <path id="Trazado_900674" data-name="Trazado 900674" d="M128.131,186l-.023-.084h-1.747a3.3,3.3,0,0,1-3.177-2.432,4.615,4.615,0,1,0,6.692,5.823A8.706,8.706,0,0,1,128.131,186Z" transform="translate(-121.079 -183.482)" fill="#554e56"/>
            <path id="Trazado_900675" data-name="Trazado 900675" d="M321.025,183.482a3.3,3.3,0,0,1-3.177,2.432H316.1l-.023.084a8.707,8.707,0,0,1-1.746,3.306,4.615,4.615,0,1,0,6.692-5.823Z" transform="translate(-292.132 -183.482)" fill="#554e56"/>
          </g>
          <path id="Trazado_900676" data-name="Trazado 900676" d="M227.885,255.2a8.709,8.709,0,0,1-3.649-.8v3.42l3.245,3.207a.574.574,0,0,0,.807,0l3.245-3.207v-3.42A8.708,8.708,0,0,1,227.885,255.2Z" transform="translate(-202.97 -226.041)" fill="#a44f3e"/>
          <g id="Grupo_1111605" data-name="Grupo 1111605" transform="translate(3.358 37.282)">
            <g id="Grupo_1111602" data-name="Grupo 1111602">
              <path id="Trazado_900677" data-name="Trazado 900677" d="M69.99,362.334a1.484,1.484,0,0,1,1.319.8l.032.063h10.51a6.787,6.787,0,0,0-13.5-.866Z" transform="translate(-68.348 -353.706)" fill="#fe860a"/>
              <path id="Trazado_900678" data-name="Trazado 900678" d="M113.548,356.519a6.8,6.8,0,0,0-1.723.222,6.79,6.79,0,0,1,5.062,6.46h3.446A6.787,6.787,0,0,0,113.548,356.519Z" transform="translate(-106.83 -353.706)" fill="#f46700"/>
              <path id="Trazado_900679" data-name="Trazado 900679" d="M129.854,336.925h-2.684a.345.345,0,0,1-.345-.345v-.967a3.582,3.582,0,0,1,3.582-3.582h2.684a.345.345,0,0,1,.345.345v.967A3.582,3.582,0,0,1,129.854,336.925Z" transform="translate(-120.108 -332.032)" fill="#0ed290"/>
              <path id="Trazado_900680" data-name="Trazado 900680" d="M133.092,332.032h-1.1a3.582,3.582,0,0,1-3.577,3.406H126.83c0,.058,0,.117,0,.176v.967a.345.345,0,0,0,.345.345h2.684a3.582,3.582,0,0,0,3.582-3.582v-.967A.345.345,0,0,0,133.092,332.032Z" transform="translate(-120.108 -332.032)" fill="#00c285"/>
            </g>
            <g id="Grupo_1111603" data-name="Grupo 1111603" transform="translate(14.772)">
              <path id="Trazado_900681" data-name="Trazado 900681" d="M210.5,363.2a6.786,6.786,0,0,0-13.571,0Z" transform="translate(-196.933 -353.706)" fill="#fe860a"/>
              <path id="Trazado_900682" data-name="Trazado 900682" d="M242.723,356.519a6.8,6.8,0,0,0-1.723.222,6.79,6.79,0,0,1,5.062,6.46h3.446A6.787,6.787,0,0,0,242.723,356.519Z" transform="translate(-235.938 -353.706)" fill="#f46700"/>
              <path id="Trazado_900683" data-name="Trazado 900683" d="M259.028,336.925h-2.684a.345.345,0,0,1-.345-.345v-.967a3.582,3.582,0,0,1,3.582-3.582h2.684a.345.345,0,0,1,.345.345v.967A3.582,3.582,0,0,1,259.028,336.925Z" transform="translate(-249.214 -332.032)" fill="#0ed290"/>
              <path id="Trazado_900684" data-name="Trazado 900684" d="M262.266,332.032h-1.1a3.582,3.582,0,0,1-3.577,3.406H256c0,.058,0,.117,0,.176v.967a.345.345,0,0,0,.345.345h2.684a3.582,3.582,0,0,0,3.582-3.582v-.967A.345.345,0,0,0,262.266,332.032Z" transform="translate(-249.214 -332.032)" fill="#00c285"/>
            </g>
            <g id="Grupo_1111604" data-name="Grupo 1111604" transform="translate(29.611)">
              <path id="Trazado_900685" data-name="Trazado 900685" d="M336.617,363.2l.032-.063a1.485,1.485,0,0,1,1.319-.8h1.642a6.787,6.787,0,0,0-13.5.866Z" transform="translate(-326.107 -353.706)" fill="#fe860a"/>
              <path id="Trazado_900686" data-name="Trazado 900686" d="M336.617,363.2l.032-.063a1.485,1.485,0,0,1,1.319-.8h1.642a6.787,6.787,0,0,0-13.5.866Z" transform="translate(-326.107 -353.706)" fill="#fe860a"/>
              <path id="Trazado_900687" data-name="Trazado 900687" d="M376.711,362.334h1.642a6.788,6.788,0,0,0-8.475-5.584,6.79,6.79,0,0,1,5.029,6.45h.453l.032-.063A1.485,1.485,0,0,1,376.711,362.334Z" transform="translate(-364.85 -353.706)" fill="#f46700"/>
              <path id="Trazado_900688" data-name="Trazado 900688" d="M388.2,336.925H385.52a.345.345,0,0,1-.345-.345v-.967a3.582,3.582,0,0,1,3.582-3.582h2.684a.345.345,0,0,1,.345.345v.967A3.582,3.582,0,0,1,388.2,336.925Z" transform="translate(-378.389 -332.032)" fill="#0ed290"/>
              <path id="Trazado_900689" data-name="Trazado 900689" d="M391.441,332.032h-1.1a3.582,3.582,0,0,1-3.578,3.406H385.18c0,.058,0,.117,0,.176v.967a.345.345,0,0,0,.345.345H388.2a3.582,3.582,0,0,0,3.582-3.582v-.967A.345.345,0,0,0,391.441,332.032Z" transform="translate(-378.389 -332.032)" fill="#00c285"/>
            </g>
          </g>
          <g id="Grupo_1111606" data-name="Grupo 1111606" transform="translate(11.292 15.953)">
            <path id="Trazado_900690" data-name="Trazado 900690" d="M331.226,146.364h-1.538a4.326,4.326,0,0,1,.085.854v3.592a8.735,8.735,0,0,1-.327,2.365h1.78a3.406,3.406,0,0,0,3.406-3.406h0A3.406,3.406,0,0,0,331.226,146.364Z" transform="translate(-307.386 -146.364)" fill="#a44f3e"/>
            <path id="Trazado_900691" data-name="Trazado 900691" d="M142.275,150.81v-3.592a4.326,4.326,0,0,1,.085-.854h-1.538a3.406,3.406,0,0,0-3.406,3.406h0a3.406,3.406,0,0,0,3.406,3.406h1.78A8.736,8.736,0,0,1,142.275,150.81Z" transform="translate(-137.416 -146.364)" fill="#bb5d4c"/>
          </g>
          <g id="Grupo_1111607" data-name="Grupo 1111607" transform="translate(16.036 12.369)">
            <path id="Trazado_900692" data-name="Trazado 900692" d="M178.709,123.2a8.879,8.879,0,0,0,8.879,8.879h0a8.879,8.879,0,0,0,8.879-8.879v-3.592a4.438,4.438,0,0,0-4.438-4.438h-8.883a4.438,4.438,0,0,0-4.438,4.438V123.2Z" transform="translate(-178.709 -115.17)" fill="#c96e59"/>
          </g>
          <path id="Trazado_900693" data-name="Trazado 900693" d="M213.475,115.169h-.157v7.357a7.255,7.255,0,0,1-7.255,7.255h-1.624a8.933,8.933,0,0,1-1.5-.129,8.846,8.846,0,0,0,6.1,2.426h0a8.879,8.879,0,0,0,8.879-8.879v-3.592A4.438,4.438,0,0,0,213.475,115.169Z" transform="translate(-184.119 -102.8)" fill="#bb5d4c"/>
          <path id="Trazado_900694" data-name="Trazado 900694" d="M122.474,424a1.455,1.455,0,0,1-1.467-1.38,1.428,1.428,0,0,1,.783-1.31l.2-.1-.2-.1a1.419,1.419,0,0,1,0-2.537l.2-.1-.2-.1a1.419,1.419,0,0,1,0-2.537l.2-.1-.2-.1a1.427,1.427,0,0,1-.783-1.31,1.362,1.362,0,0,1,.176-.629H83.934a1.361,1.361,0,0,1,.176.629,1.427,1.427,0,0,1-.783,1.31l-.2.1.2.1a1.419,1.419,0,0,1,0,2.537l-.2.1.2.1a1.419,1.419,0,0,1,0,2.537l-.2.1.2.1a1.428,1.428,0,0,1,.783,1.31A1.455,1.455,0,0,1,82.644,424v.115h39.83Z" transform="translate(-77.644 -367.018)" fill="#ffe177"/>
          <g id="Grupo_1111608" data-name="Grupo 1111608" transform="translate(0 45.796)">
            <path id="Trazado_900695" data-name="Trazado 900695" d="M45.7,410.419a1.57,1.57,0,0,1,0-2.787,1.566,1.566,0,0,0-1.581-1.491H41.878a2.759,2.759,0,0,0-2.759,2.759v5.782a2.759,2.759,0,0,0,2.759,2.759h2.242a1.566,1.566,0,0,0,1.581-1.491,1.57,1.57,0,0,1,0-2.787,1.534,1.534,0,0,1,0-2.743Z" transform="translate(-39.119 -406.141)" fill="#c96e59"/>
            <path id="Trazado_900696" data-name="Trazado 900696" d="M415.585,410.419a1.57,1.57,0,0,0,0-2.787,1.566,1.566,0,0,1,1.581-1.491h2.242a2.759,2.759,0,0,1,2.759,2.759v5.782a2.759,2.759,0,0,1-2.759,2.759h-2.242a1.566,1.566,0,0,1-1.581-1.491,1.57,1.57,0,0,0,0-2.787,1.534,1.534,0,0,0,0-2.743Z" transform="translate(-372.337 -406.141)" fill="#c96e59"/>
          </g>
        </g>
        <path id="Trazado_900697" data-name="Trazado 900697" d="M45.7,413.161a1.534,1.534,0,0,1,0-2.743,1.57,1.57,0,0,1,0-2.787,1.566,1.566,0,0,0-1.581-1.491H42.557v6.669a1.723,1.723,0,0,1-1.723,1.723H39.119v.149a2.759,2.759,0,0,0,2.759,2.759h2.242a1.566,1.566,0,0,0,1.581-1.491,1.57,1.57,0,0,1,0-2.787Z" transform="translate(-39.119 -360.344)" fill="#bb5d4c"/>
        <path id="Trazado_900698" data-name="Trazado 900698" d="M419.869,406.481v6.63a1.723,1.723,0,0,1-1.723,1.723h-1.715a1.534,1.534,0,0,0-.846,1.416,1.566,1.566,0,0,0,1.581,1.491h2.242a2.759,2.759,0,0,0,2.759-2.759V409.2A2.759,2.759,0,0,0,419.869,406.481Z" transform="translate(-372.336 -360.646)" fill="#bb5d4c"/>
      </g>
      <g id="Grupo_1111617" data-name="Grupo 1111617" transform="translate(0 0)">
        <path id="Trazado_900699" data-name="Trazado 900699" d="M180.245,16.915a11.49,11.49,0,0,0-11.3-9.415h0a11.49,11.49,0,0,0-11.3,9.415" transform="translate(-144.031 -7.5)" fill="none" stroke="#000" stroke-linecap="round" stroke-linejoin="round" stroke-miterlimit="10" stroke-width="1"/>
        <path id="Trazado_900700" data-name="Trazado 900700" d="M251.058,89.157c3.246-1.15,5.24-2.71,5.24-4.429,0-3.535-8.435-6.4-18.84-6.4q-1.223,0-2.406.052" transform="translate(-212.543 -70.191)" fill="none" stroke="#000" stroke-linecap="round" stroke-linejoin="round" stroke-miterlimit="10" stroke-width="1"/>
        <path id="Trazado_900701" data-name="Trazado 900701" d="M104.411,81.66C97.172,82.553,92,84.91,92,87.678c0,1.719,1.995,3.279,5.24,4.429" transform="translate(-85.926 -73.141)" fill="none" stroke="#000" stroke-linecap="round" stroke-linejoin="round" stroke-miterlimit="10" stroke-width="1"/>
        <line id="Línea_577" data-name="Línea 577" x1="3.272" transform="translate(17.995 31.784)" fill="none" stroke="#000" stroke-linecap="round" stroke-linejoin="round" stroke-miterlimit="10" stroke-width="1"/>
        <path id="Trazado_900702" data-name="Trazado 900702" d="M302.929,289.673a6.9,6.9,0,0,0-6.751-5.5h-8.413" transform="translate(-259.2 -252.391)" fill="none" stroke="#000" stroke-linecap="round" stroke-linejoin="round" stroke-miterlimit="10" stroke-width="1"/>
        <path id="Trazado_900703" data-name="Trazado 900703" d="M99.014,284.175H97.893A6.893,6.893,0,0,0,91,291.068v2.81" transform="translate(-85.04 -252.391)" fill="none" stroke="#000" stroke-linecap="round" stroke-linejoin="round" stroke-miterlimit="10" stroke-width="1"/>
        <path id="Trazado_900704" data-name="Trazado 900704" d="M123.085,184.087a4.613,4.613,0,1,0,6.734,5.867" transform="translate(-111.663 -163.801)" fill="none" stroke="#000" stroke-linecap="round" stroke-linejoin="round" stroke-miterlimit="10" stroke-width="1"/>
        <path id="Trazado_900705" data-name="Trazado 900705" d="M314.839,189.953a4.613,4.613,0,1,0,6.734-5.867" transform="translate(-283.164 -163.8)" fill="none" stroke="#000" stroke-linecap="round" stroke-linejoin="round" stroke-miterlimit="10" stroke-width="1"/>
        <path id="Trazado_900706" data-name="Trazado 900706" d="M224.236,255.527v3.291l3.245,3.207a.574.574,0,0,0,.807,0l3.245-3.207v-3.291" transform="translate(-202.97 -227.034)" fill="none" stroke="#000" stroke-linecap="round" stroke-linejoin="round" stroke-miterlimit="10" stroke-width="1"/>
        <path id="Trazado_900707" data-name="Trazado 900707" d="M95.021,376.528h10.435a6.772,6.772,0,0,0-2.239-4.822" transform="translate(-88.599 -329.866)" fill="none" stroke="#000" stroke-linecap="round" stroke-linejoin="round" stroke-miterlimit="10" stroke-width="1"/>
        <path id="Trazado_900708" data-name="Trazado 900708" d="M75.3,356.521l-.083,0a6.788,6.788,0,0,0-6.7,5.7" transform="translate(-65.138 -316.424)" fill="none" stroke="#000" stroke-linecap="round" stroke-linejoin="round" stroke-miterlimit="10" stroke-width="1"/>
        <path id="Trazado_900709" data-name="Trazado 900709" d="M129.854,336.925h-2.684a.345.345,0,0,1-.345-.345v-.967a3.582,3.582,0,0,1,3.582-3.582h2.684a.345.345,0,0,1,.345.345v.967A3.582,3.582,0,0,1,129.854,336.925Z" transform="translate(-116.75 -294.75)" fill="none" stroke="#000" stroke-linecap="round" stroke-linejoin="round" stroke-miterlimit="10" stroke-width="1"/>
        <path id="Trazado_900710" data-name="Trazado 900710" d="M203.838,356.521l-.083,0a6.786,6.786,0,0,0-6.781,6.567h13.562a6.771,6.771,0,0,0-2.239-4.822" transform="translate(-178.84 -316.424)" fill="none" stroke="#000" stroke-linecap="round" stroke-linejoin="round" stroke-miterlimit="10" stroke-width="1"/>
        <path id="Trazado_900711" data-name="Trazado 900711" d="M259.028,336.925h-2.684a.345.345,0,0,1-.345-.345v-.967a3.582,3.582,0,0,1,3.582-3.582h2.684a.345.345,0,0,1,.345.345v.967A3.582,3.582,0,0,1,259.028,336.925Z" transform="translate(-231.085 -294.75)" fill="none" stroke="#000" stroke-linecap="round" stroke-linejoin="round" stroke-miterlimit="10" stroke-width="1"/>
        <path id="Trazado_900712" data-name="Trazado 900712" d="M333.012,356.521l-.083,0a6.786,6.786,0,0,0-6.781,6.567" transform="translate(-293.174 -316.424)" fill="none" stroke="#000" stroke-linecap="round" stroke-linejoin="round" stroke-miterlimit="10" stroke-width="1"/>
        <path id="Trazado_900713" data-name="Trazado 900713" d="M426.854,375.669a6.778,6.778,0,0,0-2.158-3.955" transform="translate(-380.401 -329.873)" fill="none" stroke="#000" stroke-linecap="round" stroke-linejoin="round" stroke-miterlimit="10" stroke-width="1"/>
        <path id="Trazado_900714" data-name="Trazado 900714" d="M388.2,336.925H385.52a.345.345,0,0,1-.345-.345v-.967a3.582,3.582,0,0,1,3.582-3.582h2.684a.345.345,0,0,1,.345.345v.967A3.582,3.582,0,0,1,388.2,336.925Z" transform="translate(-345.42 -294.75)" fill="none" stroke="#000" stroke-linecap="round" stroke-linejoin="round" stroke-miterlimit="10" stroke-width="1"/>
        <path id="Trazado_900715" data-name="Trazado 900715" d="M330.5,153.175h1.659a3.406,3.406,0,0,0,3.406-3.406h0a3.406,3.406,0,0,0-3.406-3.406h-1.421" transform="translate(-297.024 -130.411)" fill="none" stroke="#000" stroke-linecap="round" stroke-linejoin="round" stroke-miterlimit="10" stroke-width="1"/>
        <path id="Trazado_900716" data-name="Trazado 900716" d="M142.243,146.364h-1.421a3.406,3.406,0,0,0-3.406,3.406h0a3.406,3.406,0,0,0,3.406,3.406h1.659" transform="translate(-126.124 -130.411)" fill="none" stroke="#000" stroke-linecap="round" stroke-linejoin="round" stroke-miterlimit="10" stroke-width="1"/>
        <g id="Grupo_1111611" data-name="Grupo 1111611" transform="translate(16.036 12.369)">
          <path id="Trazado_900717" data-name="Trazado 900717" d="M178.709,123.2a8.879,8.879,0,0,0,8.879,8.879h0a8.879,8.879,0,0,0,8.879-8.879v-3.592a4.438,4.438,0,0,0-4.438-4.438h-8.883a4.438,4.438,0,0,0-4.438,4.438V123.2Z" transform="translate(-178.709 -115.17)" fill="none" stroke="#000" stroke-linecap="round" stroke-linejoin="round" stroke-miterlimit="10" stroke-width="1"/>
        </g>
        <g id="Grupo_1111613" data-name="Grupo 1111613" transform="translate(20.78 16.193)">
          <g id="Grupo_1111612" data-name="Grupo 1111612">
            <line id="Línea_578" data-name="Línea 578" y2="1.356" fill="none" stroke="#000" stroke-linecap="round" stroke-linejoin="round" stroke-miterlimit="10" stroke-width="1"/>
            <line id="Línea_579" data-name="Línea 579" y2="1.356" transform="translate(8.271)" fill="none" stroke="#000" stroke-linecap="round" stroke-linejoin="round" stroke-miterlimit="10" stroke-width="1"/>
          </g>
          <path id="Trazado_900718" data-name="Trazado 900718" d="M246.2,164.48l-.953-.817a.914.914,0,0,1-.051-1.341l.444-.444a1.914,1.914,0,0,0,.561-1.353" transform="translate(-242.06 -159.139)" fill="none" stroke="#000" stroke-linecap="round" stroke-linejoin="round" stroke-miterlimit="10" stroke-width="1"/>
          <path id="Trazado_900719" data-name="Trazado 900719" d="M232.271,216.221a3.853,3.853,0,0,0,5.452,0" transform="translate(-230.861 -208.436)" fill="none" stroke="#000" stroke-linecap="round" stroke-linejoin="round" stroke-miterlimit="10" stroke-width="1"/>
        </g>
        <line id="Línea_580" data-name="Línea 580" x2="39.83" transform="translate(5 57.095)" fill="none" stroke="#000" stroke-linecap="round" stroke-linejoin="round" stroke-miterlimit="10" stroke-width="1"/>
        <g id="Grupo_1111615" data-name="Grupo 1111615" transform="translate(10.26 50.053)">
          <line id="Línea_581" data-name="Línea 581" x2="4.203" transform="translate(0 3.651)" fill="none" stroke="#000" stroke-linecap="round" stroke-linejoin="round" stroke-miterlimit="10" stroke-width="1"/>
          <line id="Línea_582" data-name="Línea 582" x2="6.441" transform="translate(22.87 3.651)" fill="none" stroke="#000" stroke-linecap="round" stroke-linejoin="round" stroke-miterlimit="10" stroke-width="1"/>
          <g id="Grupo_1111614" data-name="Grupo 1111614" transform="translate(2.497)">
            <line id="Línea_583" data-name="Línea 583" x2="7.589" fill="none" stroke="#000" stroke-linecap="round" stroke-linejoin="round" stroke-miterlimit="10" stroke-width="1"/>
            <line id="Línea_584" data-name="Línea 584" x2="10.294" transform="translate(14.811)" fill="none" stroke="#000" stroke-linecap="round" stroke-linejoin="round" stroke-miterlimit="10" stroke-width="1"/>
          </g>
        </g>
        <g id="Grupo_1111616" data-name="Grupo 1111616" transform="translate(0 45.796)">
          <path id="Trazado_900720" data-name="Trazado 900720" d="M45.7,410.419a1.57,1.57,0,0,1,0-2.787,1.566,1.566,0,0,0-1.581-1.491H41.878a2.759,2.759,0,0,0-2.759,2.759v5.782a2.759,2.759,0,0,0,2.759,2.759h2.242a1.566,1.566,0,0,0,1.581-1.491,1.57,1.57,0,0,1,0-2.787,1.534,1.534,0,0,1,0-2.743Z" transform="translate(-39.119 -406.141)" fill="none" stroke="#000" stroke-linecap="round" stroke-linejoin="round" stroke-miterlimit="10" stroke-width="1"/>
          <path id="Trazado_900721" data-name="Trazado 900721" d="M415.585,410.419a1.57,1.57,0,0,0,0-2.787,1.566,1.566,0,0,1,1.581-1.491h2.242a2.759,2.759,0,0,1,2.759,2.759v5.782a2.759,2.759,0,0,1-2.759,2.759h-2.242a1.566,1.566,0,0,1-1.581-1.491,1.57,1.57,0,0,0,0-2.787,1.534,1.534,0,0,0,0-2.743Z" transform="translate(-372.337 -406.141)" fill="none" stroke="#000" stroke-linecap="round" stroke-linejoin="round" stroke-miterlimit="10" stroke-width="1"/>
        </g>
        <line id="Línea_585" data-name="Línea 585" x1="3.058" transform="translate(40.35 46.662)" fill="none" stroke="#000" stroke-linecap="round" stroke-linejoin="round" stroke-miterlimit="10" stroke-width="1"/>
        <line id="Línea_586" data-name="Línea 586" x1="29.908" transform="translate(6.422 46.662)" fill="none" stroke="#000" stroke-linecap="round" stroke-linejoin="round" stroke-miterlimit="10" stroke-width="1"/>
      </g>
    </g>
  </g>
</svg>
