<svg xmlns="http://www.w3.org/2000/svg" xmlns:xlink="http://www.w3.org/1999/xlink" width="102.949" height="102.949" viewBox="0 0 102.949 102.949">
  <defs>
    <filter id="Trazado_874925" x="0" y="0" width="102.949" height="102.949" filterUnits="userSpaceOnUse">
      <feOffset dy="3" input="SourceAlpha"/>
      <feGaussianBlur stdDeviation="3" result="blur"/>
      <feFlood flood-opacity="0.161"/>
      <feComposite operator="in" in2="blur"/>
      <feComposite in="SourceGraphic"/>
    </filter>
  </defs>
  <g id="Grupo_1112444" data-name="Grupo 1112444" transform="translate(-799.5 -2511.157)">
    <g id="Grupo_1111316" data-name="Grupo 1111316" transform="translate(808.5 2517.157)">
      <g id="Grupo_1109835" data-name="Grupo 1109835" transform="translate(0 0)">
        <g id="Grupo_1107913" data-name="Grupo 1107913" transform="translate(0 0)">
          <g transform="matrix(1, 0, 0, 1, -9, -6)" filter="url(#Trazado_874925)">
            <g id="Trazado_874925-2" data-name="Trazado 874925" transform="translate(9 6)" fill="#fc0" opacity="0.859">
              <path d="M 42.47446823120117 83.44929504394531 C 36.94229125976562 83.44929504394531 31.57638549804688 82.36614227294922 26.52582168579102 80.22994232177734 C 21.64678573608398 78.16628265380859 17.26464462280273 75.211669921875 13.50113868713379 71.44816589355469 C 9.737632751464844 67.68466949462891 6.78300952911377 63.30253982543945 4.719362258911133 58.42351913452148 C 2.583150625228882 53.37295150756836 1.499997615814209 48.00706100463867 1.499997615814209 42.47489547729492 C 1.499997615814209 36.94223403930664 2.583150625228882 31.57634162902832 4.719362258911133 26.52577781677246 C 6.78300952911377 21.64675331115723 9.737632751464844 17.26462364196777 13.50113868713379 13.50113010406494 C 17.26464462280273 9.737624168395996 21.64678573608398 6.783012390136719 26.52582168579102 4.719353199005127 C 31.57638549804688 2.583153486251831 36.94229125976562 1.500000476837158 42.47446823120117 1.500000476837158 C 48.00664520263672 1.500000476837158 53.37255096435547 2.583153486251831 58.42311477661133 4.719353199005127 C 63.30215072631836 6.783012390136719 67.68428802490234 9.737624168395996 71.44779968261719 13.50113010406494 C 75.2113037109375 17.26462364196777 78.16592407226562 21.64675331115723 80.22957611083984 26.52577781677246 C 82.36578369140625 31.57634162902832 83.44893646240234 36.94223403930664 83.44893646240234 42.47439956665039 C 83.44893646240234 48.00706100463867 82.36578369140625 53.37295150756836 80.22957611083984 58.42351913452148 C 78.16592407226562 63.30253982543945 75.2113037109375 67.68466949462891 71.44779968261719 71.44816589355469 C 67.68428802490234 75.211669921875 63.30215072631836 78.16628265380859 58.42311477661133 80.22994232177734 C 53.37255096435547 82.36614227294922 48.00664520263672 83.44929504394531 42.47446823120117 83.44929504394531 Z" stroke="none"/>
              <path d="M 42.47446823120117 2.999992370605469 C 37.14412307739258 2.999992370605469 31.97481536865234 4.04327392578125 27.11014938354492 6.100860595703125 C 22.40990829467773 8.088890075683594 18.18804168701172 10.93555450439453 14.56179809570312 14.56178283691406 C 10.93557739257812 18.18801116943359 8.088897705078125 22.40987396240234 6.100868225097656 27.11009979248047 C 4.043281555175781 31.97476577758789 3 37.14406204223633 3 42.47488784790039 C 3 47.80522155761719 4.043281555175781 52.97451400756836 6.100868225097656 57.83917999267578 C 8.088897705078125 62.53940582275391 10.93557739257812 66.76127624511719 14.56179809570312 70.38749694824219 C 18.18804168701172 74.01372528076172 22.40990829467773 76.86039733886719 27.11014938354492 78.84841918945312 C 31.97481536865234 80.906005859375 37.14412307739258 81.94928741455078 42.47446823120117 81.94928741455078 C 47.80481338500977 81.94928741455078 52.97412109375 80.906005859375 57.83879089355469 78.84841918945312 C 62.53902816772461 76.86039733886719 66.76089477539062 74.01372528076172 70.38713073730469 70.38749694824219 C 74.01335906982422 66.76127624511719 76.86003875732422 62.53940582275391 78.84806823730469 57.83917999267578 C 80.90565490722656 52.97451400756836 81.94893646240234 47.80522155761719 81.94893646240234 42.47439575195312 C 81.94893646240234 37.14406204223633 80.90565490722656 31.97476577758789 78.84806823730469 27.11009979248047 C 76.86003875732422 22.40987396240234 74.01335906982422 18.18801116943359 70.38713073730469 14.56178283691406 C 66.76089477539062 10.93555450439453 62.53902816772461 8.088890075683594 57.83879089355469 6.100860595703125 C 52.97412109375 4.04327392578125 47.80481338500977 2.999992370605469 42.47446823120117 2.999992370605469 M 42.47446823120117 -7.62939453125e-06 C 65.93246459960938 -7.62939453125e-06 84.94893646240234 19.01643371582031 84.94893646240234 42.47439575195312 L 84.94893646240234 42.47488784790039 C 84.94893646240234 65.93284606933594 65.93246459960938 84.94928741455078 42.47446823120117 84.94928741455078 C 19.01647186279297 84.94928741455078 0 65.93284606933594 0 42.47488784790039 L 0 42.47439575195312 C 0 19.01643371582031 19.01647186279297 -7.62939453125e-06 42.47446823120117 -7.62939453125e-06 Z" stroke="none" fill="#fff"/>
            </g>
          </g>
          <g id="Trazado_874923" data-name="Trazado 874923" transform="translate(0 0)" fill="none">
            <path d="M42.474,0A42.474,42.474,0,0,1,84.949,42.474h0A42.474,42.474,0,0,1,0,42.475H0A42.474,42.474,0,0,1,42.474,0Z" stroke="none"/>
            <path d="M 42.47446823120117 2.999992370605469 C 37.14412307739258 2.999992370605469 31.97481536865234 4.04327392578125 27.11014938354492 6.100860595703125 C 22.40990829467773 8.088890075683594 18.18804168701172 10.93555450439453 14.56179809570312 14.56178283691406 C 10.93557739257812 18.18801116943359 8.088897705078125 22.40987396240234 6.100868225097656 27.11009979248047 C 4.043281555175781 31.97476577758789 3 37.14406204223633 3 42.47488784790039 C 3 47.80522155761719 4.043281555175781 52.97451400756836 6.100868225097656 57.83917999267578 C 8.088897705078125 62.53940582275391 10.93557739257812 66.76127624511719 14.56179809570312 70.38749694824219 C 18.18804168701172 74.01372528076172 22.40990829467773 76.86039733886719 27.11014938354492 78.84841918945312 C 31.97481536865234 80.906005859375 37.14412307739258 81.94928741455078 42.47446823120117 81.94928741455078 C 47.80481338500977 81.94928741455078 52.97412109375 80.906005859375 57.83879089355469 78.84841918945312 C 62.53902816772461 76.86039733886719 66.76089477539062 74.01372528076172 70.38713073730469 70.38749694824219 C 74.01335906982422 66.76127624511719 76.86003875732422 62.53940582275391 78.84806823730469 57.83917999267578 C 80.90565490722656 52.97451400756836 81.94893646240234 47.80522155761719 81.94893646240234 42.47439575195312 C 81.94893646240234 37.14406204223633 80.90565490722656 31.97476577758789 78.84806823730469 27.11009979248047 C 76.86003875732422 22.40987396240234 74.01335906982422 18.18801116943359 70.38713073730469 14.56178283691406 C 66.76089477539062 10.93555450439453 62.53902816772461 8.088890075683594 57.83879089355469 6.100860595703125 C 52.97412109375 4.04327392578125 47.80481338500977 2.999992370605469 42.47446823120117 2.999992370605469 M 42.47446823120117 -7.62939453125e-06 C 65.93246459960938 -7.62939453125e-06 84.94893646240234 19.01643371582031 84.94893646240234 42.47439575195312 L 84.94893646240234 42.47488784790039 C 84.94893646240234 65.93284606933594 65.93246459960938 84.94928741455078 42.47446823120117 84.94928741455078 C 19.01647186279297 84.94928741455078 0 65.93284606933594 0 42.47488784790039 L 0 42.47439575195312 C 0 19.01643371582031 19.01647186279297 -7.62939453125e-06 42.47446823120117 -7.62939453125e-06 Z" stroke="none" fill="#fff"/>
          </g>
        </g>
      </g>
    </g>
    <g id="Grupo_1113792" data-name="Grupo 1113792" transform="translate(823.994 2533.982)">
      <path id="Trazado_906756" data-name="Trazado 906756" d="M85.7,275.9H96.778l10.746,4.448a3.663,3.663,0,0,1,1.972,4.812l-.037.086a3.769,3.769,0,0,1-4.829,2.063c-3.049-1.176-7.049-2.713-7.049-2.713l10.3,3.958a11.7,11.7,0,0,0,6.811.484l10.549-2.415A3.54,3.54,0,0,1,126.9,293.5l-12.587,3.2a11.7,11.7,0,0,1-7.156-.448l-16.245-6.371H85.7Zm0,0" transform="translate(-76.664 -246.821)" fill="#ffd4be"/>
      <path id="Trazado_906757" data-name="Trazado 906757" d="M85.7,275.9H96.778l10.746,4.448a3.663,3.663,0,0,1,1.972,4.812l-.037.086a3.769,3.769,0,0,1-4.829,2.063c-3.049-1.176-7.049-2.713-7.049-2.713l10.3,3.958a11.7,11.7,0,0,0,6.811.484l10.549-2.415A3.54,3.54,0,0,1,126.9,293.5l-12.587,3.2a11.7,11.7,0,0,1-7.156-.448l-16.245-6.371H85.7Zm0,0" transform="translate(-76.664 -246.821)" fill="#ffd4be"/>
      <path id="Trazado_906758" data-name="Trazado 906758" d="M10,252.316h7.978v18.526H10Zm0,0" transform="translate(-8.946 -225.724)" fill="#98a1b3"/>
      <path id="Trazado_906759" data-name="Trazado 906759" d="M137.368,166.871v12.634l-2.764-1.144h-6.627v-11.49Zm0,0" transform="translate(-114.489 -149.284)" fill="#60a4ff"/>
      <path id="Trazado_906760" data-name="Trazado 906760" d="M226.485,101.352V125.2a3.656,3.656,0,0,0-1.411-1.037l-7.98-3.3V101.32Zm0,0" transform="translate(-194.214 -90.642)" fill="#f6838d"/>
      <path id="Trazado_906761" data-name="Trazado 906761" d="M315.587,218.41v18.364l-3.636.832a11.7,11.7,0,0,1-5.756-.135V234.7a3.8,3.8,0,0,0,.524-.885l.036-.086a3.66,3.66,0,0,0-.56-3.776V218.41Zm0,0" transform="translate(-273.924 -195.391)" fill="#ffc15a"/>
      <path id="Trazado_906762" data-name="Trazado 906762" d="M416.7,111.33a1.592,1.592,0,1,1-1.592-1.592A1.592,1.592,0,0,1,416.7,111.33Zm0,0" transform="translate(-369.93 -98.173)" fill="#98a1b3"/>
      <path id="Trazado_906763" data-name="Trazado 906763" d="M361.165,38.858a1.592,1.592,0,1,1-1.592-1.592A1.592,1.592,0,0,1,361.165,38.858Zm0,0" transform="translate(-320.252 -33.338)" fill="#98a1b3"/>
      <path id="Trazado_906764" data-name="Trazado 906764" d="M53.864,124.012a4.594,4.594,0,0,0-5.523-3.543l-5.625,1.288v-2.3a22.217,22.217,0,0,0,3.138-3.718,21.8,21.8,0,0,0,3.081-7.256,22.233,22.233,0,0,0,.042-9.438,1.054,1.054,0,0,0-2.061.441,20.1,20.1,0,0,1-.038,8.536,19.7,19.7,0,0,1-2.784,6.557,18.764,18.764,0,0,1-1.378,1.818V104.715a1.054,1.054,0,0,0-1.054-1.054H33.325V92.406a1.054,1.054,0,0,0-1.05-1.054l-9.391-.032h0a1.054,1.054,0,0,0-1.054,1.054v5.855H13.488a1.054,1.054,0,0,0-1.054,1.054V109.72H10.086v-1.431a1.054,1.054,0,0,0-1.054-1.054H7.951A19.947,19.947,0,0,1,8.811,96.9c.2-.542.42-1.082.663-1.6a1.054,1.054,0,1,0-1.911-.89c-.27.579-.517,1.177-.734,1.776a22.024,22.024,0,0,0-1.018,11.055H1.054A1.054,1.054,0,0,0,0,108.289v18.525a1.054,1.054,0,0,0,1.054,1.054H9.032a1.054,1.054,0,0,0,1.054-1.054v-1H14.05l16.06,6.3a12.685,12.685,0,0,0,7.8.488L50.5,129.4A4.585,4.585,0,0,0,53.864,124.012ZM40.608,105.769v16.47l-2.818.645c-.3.069-.609.124-.917.167a10.7,10.7,0,0,1-3.534-.1l-.015,0v-1.6a4.881,4.881,0,0,0,.649-4.106,4.733,4.733,0,0,0-.5-1.1q-.072-.117-.151-.23l0,0V105.768h7.284ZM23.934,93.432l7.283.024v20.772l-4.07-1.685-3.213-1.33Zm-9.392,6.9h7.283v10l-1.307-.541a1.052,1.052,0,0,0-.4-.08H14.542ZM7.978,125.76H2.108V109.342h5.87Zm42,1.6-12.587,3.2a10.592,10.592,0,0,1-6.511-.407l-16.245-6.372a1.053,1.053,0,0,0-.385-.072H10.086V111.828H19.9l6.819,2.823,3.732,1.545a2.636,2.636,0,0,1,1.411,3.415,3.013,3.013,0,0,1-.422.741,2.717,2.717,0,0,1-2.762.953l-.025-.006c-.061-.015-.121-.033-.182-.053l-7.091-2.726-.088-.034a1.054,1.054,0,1,0-.756,1.967s4,1.537,7.047,2.713c.061.024.122.046.184.067l2.341.9a19.355,19.355,0,0,0,2.149.731,12.787,12.787,0,0,0,6,.075l3.636-.832.011,0,6.9-1.58a2.486,2.486,0,0,1,1.167,4.833Zm0,0" transform="translate(0 -81.696)"/>
      <path id="Trazado_906765" data-name="Trazado 906765" d="M118.931,7.5a1.05,1.05,0,0,0,.706-.272A19.8,19.8,0,0,1,134.27,2.15,19.768,19.768,0,0,1,140.016,3.4a1.054,1.054,0,1,0,.75-1.97A21.87,21.87,0,0,0,134.409.047,21.914,21.914,0,0,0,118.224,5.66a1.054,1.054,0,0,0,.706,1.836Zm0,0" transform="translate(-105.453)"/>
      <path id="Trazado_906766" data-name="Trazado 906766" d="M351.808,42.071a1.055,1.055,0,0,0,1.487-.1l8.671-9.981a1.054,1.054,0,0,0-1.591-1.382L351.7,40.584A1.054,1.054,0,0,0,351.808,42.071Zm0,0" transform="translate(-314.406 -27.053)"/>
      <path id="Trazado_906767" data-name="Trazado 906767" d="M406.158,99.738a2.646,2.646,0,1,0,2.646,2.646A2.649,2.649,0,0,0,406.158,99.738Zm0,3.184a.538.538,0,1,1,.538-.538A.539.539,0,0,1,406.158,102.922Zm0,0" transform="translate(-360.984 -89.227)"/>
      <path id="Trazado_906768" data-name="Trazado 906768" d="M350.626,32.558a2.646,2.646,0,1,0-2.646-2.646A2.649,2.649,0,0,0,350.626,32.558Zm0-3.184a.538.538,0,1,1-.538.538A.539.539,0,0,1,350.626,29.373Zm0,0" transform="translate(-311.306 -24.392)"/>
      <path id="Trazado_906769" data-name="Trazado 906769" d="M91.66,82.28A1.053,1.053,0,1,0,92.048,81,1.063,1.063,0,0,0,91.66,82.28Zm0,0" transform="translate(-81.929 -72.307)"/>
    </g>
  </g>
</svg>
