<svg xmlns="http://www.w3.org/2000/svg" xmlns:xlink="http://www.w3.org/1999/xlink" width="102.949" height="102.949" viewBox="0 0 102.949 102.949">
  <defs>
    <filter id="Trazado_874925" x="0" y="0" width="102.949" height="102.949" filterUnits="userSpaceOnUse">
      <feOffset dy="3" input="SourceAlpha"/>
      <feGaussianBlur stdDeviation="3" result="blur"/>
      <feFlood flood-opacity="0.161"/>
      <feComposite operator="in" in2="blur"/>
      <feComposite in="SourceGraphic"/>
    </filter>
  </defs>
  <g id="Grupo_1112487" data-name="Grupo 1112487" transform="translate(-799.5 -2511.157)">
    <g id="Grupo_1111316" data-name="Grupo 1111316" transform="translate(808.5 2517.157)">
      <g id="Grupo_1109835" data-name="Grupo 1109835" transform="translate(0 0)">
        <g id="Grupo_1107913" data-name="Grupo 1107913" transform="translate(0 0)">
          <g transform="matrix(1, 0, 0, 1, -9, -6)" filter="url(#Trazado_874925)">
            <g id="Trazado_874925-2" data-name="Trazado 874925" transform="translate(9 6)" fill="#fc0" opacity="0.859">
              <path d="M 42.47446823120117 83.44929504394531 C 36.94229125976562 83.44929504394531 31.57638549804688 82.36614227294922 26.52582168579102 80.22994232177734 C 21.64678573608398 78.16628265380859 17.26464462280273 75.211669921875 13.50113868713379 71.44816589355469 C 9.737632751464844 67.68466949462891 6.78300952911377 63.30253982543945 4.719362258911133 58.42351913452148 C 2.583150625228882 53.37295150756836 1.499997615814209 48.00706100463867 1.499997615814209 42.47489547729492 C 1.499997615814209 36.94223403930664 2.583150625228882 31.57634162902832 4.719362258911133 26.52577781677246 C 6.78300952911377 21.64675331115723 9.737632751464844 17.26462364196777 13.50113868713379 13.50113010406494 C 17.26464462280273 9.737624168395996 21.64678573608398 6.783012390136719 26.52582168579102 4.719353199005127 C 31.57638549804688 2.583153486251831 36.94229125976562 1.500000476837158 42.47446823120117 1.500000476837158 C 48.00664520263672 1.500000476837158 53.37255096435547 2.583153486251831 58.42311477661133 4.719353199005127 C 63.30215072631836 6.783012390136719 67.68428802490234 9.737624168395996 71.44779968261719 13.50113010406494 C 75.2113037109375 17.26462364196777 78.16592407226562 21.64675331115723 80.22957611083984 26.52577781677246 C 82.36578369140625 31.57634162902832 83.44893646240234 36.94223403930664 83.44893646240234 42.47439956665039 C 83.44893646240234 48.00706100463867 82.36578369140625 53.37295150756836 80.22957611083984 58.42351913452148 C 78.16592407226562 63.30253982543945 75.2113037109375 67.68466949462891 71.44779968261719 71.44816589355469 C 67.68428802490234 75.211669921875 63.30215072631836 78.16628265380859 58.42311477661133 80.22994232177734 C 53.37255096435547 82.36614227294922 48.00664520263672 83.44929504394531 42.47446823120117 83.44929504394531 Z" stroke="none"/>
              <path d="M 42.47446823120117 2.999992370605469 C 37.14412307739258 2.999992370605469 31.97481536865234 4.04327392578125 27.11014938354492 6.100860595703125 C 22.40990829467773 8.088890075683594 18.18804168701172 10.93555450439453 14.56179809570312 14.56178283691406 C 10.93557739257812 18.18801116943359 8.088897705078125 22.40987396240234 6.100868225097656 27.11009979248047 C 4.043281555175781 31.97476577758789 3 37.14406204223633 3 42.47488784790039 C 3 47.80522155761719 4.043281555175781 52.97451400756836 6.100868225097656 57.83917999267578 C 8.088897705078125 62.53940582275391 10.93557739257812 66.76127624511719 14.56179809570312 70.38749694824219 C 18.18804168701172 74.01372528076172 22.40990829467773 76.86039733886719 27.11014938354492 78.84841918945312 C 31.97481536865234 80.906005859375 37.14412307739258 81.94928741455078 42.47446823120117 81.94928741455078 C 47.80481338500977 81.94928741455078 52.97412109375 80.906005859375 57.83879089355469 78.84841918945312 C 62.53902816772461 76.86039733886719 66.76089477539062 74.01372528076172 70.38713073730469 70.38749694824219 C 74.01335906982422 66.76127624511719 76.86003875732422 62.53940582275391 78.84806823730469 57.83917999267578 C 80.90565490722656 52.97451400756836 81.94893646240234 47.80522155761719 81.94893646240234 42.47439575195312 C 81.94893646240234 37.14406204223633 80.90565490722656 31.97476577758789 78.84806823730469 27.11009979248047 C 76.86003875732422 22.40987396240234 74.01335906982422 18.18801116943359 70.38713073730469 14.56178283691406 C 66.76089477539062 10.93555450439453 62.53902816772461 8.088890075683594 57.83879089355469 6.100860595703125 C 52.97412109375 4.04327392578125 47.80481338500977 2.999992370605469 42.47446823120117 2.999992370605469 M 42.47446823120117 -7.62939453125e-06 C 65.93246459960938 -7.62939453125e-06 84.94893646240234 19.01643371582031 84.94893646240234 42.47439575195312 L 84.94893646240234 42.47488784790039 C 84.94893646240234 65.93284606933594 65.93246459960938 84.94928741455078 42.47446823120117 84.94928741455078 C 19.01647186279297 84.94928741455078 0 65.93284606933594 0 42.47488784790039 L 0 42.47439575195312 C 0 19.01643371582031 19.01647186279297 -7.62939453125e-06 42.47446823120117 -7.62939453125e-06 Z" stroke="none" fill="#fff"/>
            </g>
          </g>
          <g id="Trazado_874923" data-name="Trazado 874923" transform="translate(0 0)" fill="none">
            <path d="M42.474,0A42.474,42.474,0,0,1,84.949,42.474h0A42.474,42.474,0,0,1,0,42.475H0A42.474,42.474,0,0,1,42.474,0Z" stroke="none"/>
            <path d="M 42.47446823120117 2.999992370605469 C 37.14412307739258 2.999992370605469 31.97481536865234 4.04327392578125 27.11014938354492 6.100860595703125 C 22.40990829467773 8.088890075683594 18.18804168701172 10.93555450439453 14.56179809570312 14.56178283691406 C 10.93557739257812 18.18801116943359 8.088897705078125 22.40987396240234 6.100868225097656 27.11009979248047 C 4.043281555175781 31.97476577758789 3 37.14406204223633 3 42.47488784790039 C 3 47.80522155761719 4.043281555175781 52.97451400756836 6.100868225097656 57.83917999267578 C 8.088897705078125 62.53940582275391 10.93557739257812 66.76127624511719 14.56179809570312 70.38749694824219 C 18.18804168701172 74.01372528076172 22.40990829467773 76.86039733886719 27.11014938354492 78.84841918945312 C 31.97481536865234 80.906005859375 37.14412307739258 81.94928741455078 42.47446823120117 81.94928741455078 C 47.80481338500977 81.94928741455078 52.97412109375 80.906005859375 57.83879089355469 78.84841918945312 C 62.53902816772461 76.86039733886719 66.76089477539062 74.01372528076172 70.38713073730469 70.38749694824219 C 74.01335906982422 66.76127624511719 76.86003875732422 62.53940582275391 78.84806823730469 57.83917999267578 C 80.90565490722656 52.97451400756836 81.94893646240234 47.80522155761719 81.94893646240234 42.47439575195312 C 81.94893646240234 37.14406204223633 80.90565490722656 31.97476577758789 78.84806823730469 27.11009979248047 C 76.86003875732422 22.40987396240234 74.01335906982422 18.18801116943359 70.38713073730469 14.56178283691406 C 66.76089477539062 10.93555450439453 62.53902816772461 8.088890075683594 57.83879089355469 6.100860595703125 C 52.97412109375 4.04327392578125 47.80481338500977 2.999992370605469 42.47446823120117 2.999992370605469 M 42.47446823120117 -7.62939453125e-06 C 65.93246459960938 -7.62939453125e-06 84.94893646240234 19.01643371582031 84.94893646240234 42.47439575195312 L 84.94893646240234 42.47488784790039 C 84.94893646240234 65.93284606933594 65.93246459960938 84.94928741455078 42.47446823120117 84.94928741455078 C 19.01647186279297 84.94928741455078 0 65.93284606933594 0 42.47488784790039 L 0 42.47439575195312 C 0 19.01643371582031 19.01647186279297 -7.62939453125e-06 42.47446823120117 -7.62939453125e-06 Z" stroke="none" fill="#fff"/>
          </g>
        </g>
      </g>
    </g>
    <g id="Grupo_1114658" data-name="Grupo 1114658" transform="translate(816.652 2533.266)">
      <path id="Trazado_907308" data-name="Trazado 907308" d="M142.556,109.775h-5.723a.423.423,0,0,0-.423.423v4.486a.423.423,0,0,0,.423.423h5.723a.423.423,0,0,0,.423-.423V110.2A.423.423,0,0,0,142.556,109.775Z" transform="translate(-111.351 -98.4)" fill="#ccdfed"/>
      <path id="Trazado_907309" data-name="Trazado 907309" d="M134.817,169.849H114.523a.47.47,0,0,1-.47-.47V139.7a.47.47,0,0,1,.47-.47h20.295a.47.47,0,0,1,.47.47V169.38A.47.47,0,0,1,134.817,169.849Z" transform="translate(-91.311 -124.8)" fill="#e1effb"/>
      <path id="SVGCleanerId_0" d="M153.5,298.909h-15.09a.131.131,0,0,1-.131-.131V296.49a.131.131,0,0,1,.131-.131H153.5a.131.131,0,0,1,.131.131v2.288A.131.131,0,0,1,153.5,298.909Z" transform="translate(-113.023 -265.649)" fill="#21d8de"/>
      <path id="SVGCleanerId_1" d="M153.5,239.1h-15.09a.131.131,0,0,1-.131-.131v-2.288a.131.131,0,0,1,.131-.131H153.5a.131.131,0,0,1,.131.131v2.288A.131.131,0,0,1,153.5,239.1Z" transform="translate(-113.023 -212.033)" fill="#21d8de"/>
      <path id="SVGCleanerId_2" d="M153.5,179.281h-15.09a.131.131,0,0,1-.131-.131v-2.288a.131.131,0,0,1,.131-.131H153.5a.131.131,0,0,1,.131.131v2.288A.131.131,0,0,1,153.5,179.281Z" transform="translate(-113.023 -158.417)" fill="#21d8de"/>
      <path id="Trazado_907310" data-name="Trazado 907310" d="M142.556,109.775h-5.723a.423.423,0,0,0-.423.423v4.486a.423.423,0,0,0,.423.423h5.723a.423.423,0,0,0,.423-.423V110.2A.423.423,0,0,0,142.556,109.775Z" transform="translate(-111.351 -98.4)" fill="#ccdfed"/>
      <path id="Trazado_907311" data-name="Trazado 907311" d="M134.817,169.849H114.523a.47.47,0,0,1-.47-.47V139.7a.47.47,0,0,1,.47-.47h20.295a.47.47,0,0,1,.47.47V169.38A.47.47,0,0,1,134.817,169.849Z" transform="translate(-91.311 -124.8)" fill="#e1effb"/>
      <g id="Grupo_1114658-2" data-name="Grupo 1114658" transform="translate(25.252 30.71)">
        <path id="SVGCleanerId_0_1_" d="M153.5,298.909h-15.09a.131.131,0,0,1-.131-.131V296.49a.131.131,0,0,1,.131-.131H153.5a.131.131,0,0,1,.131.131v2.288A.131.131,0,0,1,153.5,298.909Z" transform="translate(-138.275 -296.359)" fill="#21d8de"/>
      </g>
      <g id="Grupo_1114659" data-name="Grupo 1114659" transform="translate(25.252 24.512)">
        <path id="SVGCleanerId_1_1_" d="M153.5,239.1h-15.09a.131.131,0,0,1-.131-.131v-2.288a.131.131,0,0,1,.131-.131H153.5a.131.131,0,0,1,.131.131v2.288A.131.131,0,0,1,153.5,239.1Z" transform="translate(-138.275 -236.545)" fill="#21d8de"/>
      </g>
      <g id="Grupo_1114660" data-name="Grupo 1114660" transform="translate(25.252 18.314)">
        <path id="SVGCleanerId_2_1_" d="M153.5,179.281h-15.09a.131.131,0,0,1-.131-.131v-2.288a.131.131,0,0,1,.131-.131H153.5a.131.131,0,0,1,.131.131v2.288A.131.131,0,0,1,153.5,179.281Z" transform="translate(-138.275 -176.731)" fill="#21d8de"/>
      </g>
      <path id="Trazado_907312" data-name="Trazado 907312" d="M153.5,358.723h-15.09a.131.131,0,0,1-.131-.131V356.3a.131.131,0,0,1,.131-.131H153.5a.131.131,0,0,1,.131.131v2.288A.131.131,0,0,1,153.5,358.723Z" transform="translate(-113.023 -319.265)" fill="#61aff6"/>
      <rect id="Rect치ngulo_404895" data-name="Rect치ngulo 404895" width="20.271" height="43.607" transform="translate(34.701 1.442)" fill="#ccdfed"/>
      <rect id="Rect치ngulo_404896" data-name="Rect치ngulo 404896" width="4.648" height="43.607" transform="translate(50.324 1.442)" fill="#b0c8d6"/>
      <path id="Trazado_907313" data-name="Trazado 907313" d="M238.7,7.315H216.375a.237.237,0,0,0-.237.237V9.5a.237.237,0,0,0,.237.237H238.7a.237.237,0,0,0,.237-.237V7.552A.237.237,0,0,0,238.7,7.315Z" transform="translate(-182.818 -6.557)" fill="#e1effb"/>
      <g id="Grupo_1114661" data-name="Grupo 1114661" transform="translate(37.22 6.73)">
        <path id="Trazado_907314" data-name="Trazado 907314" d="M256.95,68.927h-2.98a.2.2,0,0,1-.2-.2V65.15a.2.2,0,0,1,.2-.2h2.98a.2.2,0,0,1,.2.2v3.576A.2.2,0,0,1,256.95,68.927Z" transform="translate(-253.768 -64.948)" fill="#61aff6"/>
        <path id="Trazado_907315" data-name="Trazado 907315" d="M314.123,68.927h-2.98a.2.2,0,0,1-.2-.2V65.15a.2.2,0,0,1,.2-.2h2.98a.2.2,0,0,1,.2.2v3.576A.2.2,0,0,1,314.123,68.927Z" transform="translate(-305.016 -64.948)" fill="#61aff6"/>
        <path id="Trazado_907316" data-name="Trazado 907316" d="M371.295,68.927h-2.98a.2.2,0,0,1-.2-.2V65.15a.2.2,0,0,1,.2-.2h2.98a.2.2,0,0,1,.2.2v3.576A.2.2,0,0,1,371.295,68.927Z" transform="translate(-356.264 -64.948)" fill="#61aff6"/>
        <path id="Trazado_907317" data-name="Trazado 907317" d="M256.95,154.613h-2.98a.2.2,0,0,1-.2-.2v-3.576a.2.2,0,0,1,.2-.2h2.98a.2.2,0,0,1,.2.2v3.576A.2.2,0,0,1,256.95,154.613Z" transform="translate(-253.768 -141.755)" fill="#61aff6"/>
        <path id="Trazado_907318" data-name="Trazado 907318" d="M314.123,154.613h-2.98a.2.2,0,0,1-.2-.2v-3.576a.2.2,0,0,1,.2-.2h2.98a.2.2,0,0,1,.2.2v3.576A.2.2,0,0,1,314.123,154.613Z" transform="translate(-305.016 -141.755)" fill="#61aff6"/>
        <path id="Trazado_907319" data-name="Trazado 907319" d="M371.295,154.613h-2.98a.2.2,0,0,1-.2-.2v-3.576a.2.2,0,0,1,.2-.2h2.98a.2.2,0,0,1,.2.2v3.576A.2.2,0,0,1,371.295,154.613Z" transform="translate(-356.264 -141.755)" fill="#61aff6"/>
        <path id="Trazado_907320" data-name="Trazado 907320" d="M256.95,240.3h-2.98a.2.2,0,0,1-.2-.2v-3.576a.2.2,0,0,1,.2-.2h2.98a.2.2,0,0,1,.2.2V240.1A.2.2,0,0,1,256.95,240.3Z" transform="translate(-253.768 -218.562)" fill="#61aff6"/>
        <path id="Trazado_907321" data-name="Trazado 907321" d="M314.123,240.3h-2.98a.2.2,0,0,1-.2-.2v-3.576a.2.2,0,0,1,.2-.2h2.98a.2.2,0,0,1,.2.2V240.1A.2.2,0,0,1,314.123,240.3Z" transform="translate(-305.016 -218.562)" fill="#61aff6"/>
        <path id="Trazado_907322" data-name="Trazado 907322" d="M371.295,240.3h-2.98a.2.2,0,0,1-.2-.2v-3.576a.2.2,0,0,1,.2-.2h2.98a.2.2,0,0,1,.2.2V240.1A.2.2,0,0,1,371.295,240.3Z" transform="translate(-356.264 -218.562)" fill="#61aff6"/>
        <path id="Trazado_907323" data-name="Trazado 907323" d="M314.123,325.985h-2.98a.2.2,0,0,1-.2-.2v-3.576a.2.2,0,0,1,.2-.2h2.98a.2.2,0,0,1,.2.2v3.576A.2.2,0,0,1,314.123,325.985Z" transform="translate(-305.016 -295.369)" fill="#61aff6"/>
        <path id="Trazado_907324" data-name="Trazado 907324" d="M256.95,325.985h-2.98a.2.2,0,0,1-.2-.2v-3.576a.2.2,0,0,1,.2-.2h2.98a.2.2,0,0,1,.2.2v3.576A.2.2,0,0,1,256.95,325.985Z" transform="translate(-253.768 -295.369)" fill="#61aff6"/>
        <path id="Trazado_907325" data-name="Trazado 907325" d="M371.295,325.985h-2.98a.2.2,0,0,1-.2-.2v-3.576a.2.2,0,0,1,.2-.2h2.98a.2.2,0,0,1,.2.2v3.576A.2.2,0,0,1,371.295,325.985Z" transform="translate(-356.264 -295.369)" fill="#61aff6"/>
      </g>
      <path id="Trazado_907326" data-name="Trazado 907326" d="M84.258,321.284l-10.117,6.771-3.015-.169-.118-1.187a3.852,3.852,0,0,0-3.294-3.433l-8.079-.93a14.48,14.48,0,0,1-5.282-1.839h0a14.479,14.479,0,0,0-7.311-1.981H41.218v13.3l15.394,5.829a4.189,4.189,0,0,0,1.79.119l.011,0,15.5-2.234a6.859,6.859,0,0,0,3.253-1.458l10.017-9.009a2.392,2.392,0,0,0,.389-3.134h0A2.392,2.392,0,0,0,84.258,321.284Z" transform="translate(-26.024 -285.51)" fill="#fed9a8"/>
      <path id="Trazado_907327" data-name="Trazado 907327" d="M87.7,353.535l-9.9,8.334a8.47,8.47,0,0,1-3.689,1.458l-15.7,1.122-.011,0a4.19,4.19,0,0,1-1.79-.119L41.218,358.5v4.7l15.394,5.829a4.415,4.415,0,0,0,.889.156q.113.008.225.01a3.925,3.925,0,0,0,.675-.047l.011,0,15.5-2.234a6.864,6.864,0,0,0,1.095-.269q.107-.036.212-.075a6.857,6.857,0,0,0,1.017-.476q.1-.056.194-.115a6.864,6.864,0,0,0,.736-.523l10.017-9.009A2.391,2.391,0,0,0,87.7,353.535Z" transform="translate(-26.024 -316.9)" fill="#f4c892"/>
      <path id="Trazado_907328" data-name="Trazado 907328" d="M23.714,309.85h-2.3a1.909,1.909,0,0,1-1.909-1.909V290.887a1.909,1.909,0,0,1,1.909-1.909h2.3a1.909,1.909,0,0,1,1.909,1.909v17.054A1.909,1.909,0,0,1,23.714,309.85Z" transform="translate(-6.557 -259.033)" fill="#2d5871"/>
      <path id="Trazado_907329" data-name="Trazado 907329" d="M395.7,7.315h-4.41V9.733h4.41a.237.237,0,0,0,.237-.237V7.552A.237.237,0,0,0,395.7,7.315Z" transform="translate(-339.818 -6.557)" fill="#ccdfed"/>
      <path id="Trazado_907330" data-name="Trazado 907330" d="M50.194,288.977H49.042v20.872h1.152A1.909,1.909,0,0,0,52.1,307.94V290.886A1.909,1.909,0,0,0,50.194,288.977Z" transform="translate(-33.037 -259.032)" fill="#1d4859"/>
      <path id="Trazado_907331" data-name="Trazado 907331" d="M247.414,63.128h2.98a.961.961,0,0,0,.96-.96V58.593a.961.961,0,0,0-.96-.96h-2.98a.961.961,0,0,0-.96.96v3.576A.961.961,0,0,0,247.414,63.128Zm.556-3.979h1.868v2.463H247.97Z" transform="translate(-209.992 -51.661)"/>
      <path id="Trazado_907332" data-name="Trazado 907332" d="M304.587,63.128h2.98a.961.961,0,0,0,.96-.96V58.593a.961.961,0,0,0-.96-.96h-2.98a.961.961,0,0,0-.96.96v3.576A.961.961,0,0,0,304.587,63.128Zm.556-3.979h1.867v2.463h-1.867Z" transform="translate(-261.241 -51.661)"/>
      <path id="Trazado_907333" data-name="Trazado 907333" d="M361.759,63.128h2.98a.961.961,0,0,0,.96-.96V58.593a.961.961,0,0,0-.96-.96h-2.98a.961.961,0,0,0-.96.96v3.576A.961.961,0,0,0,361.759,63.128Zm.556-3.979h1.867v2.463h-1.867Z" transform="translate(-312.488 -51.661)"/>
      <path id="Trazado_907334" data-name="Trazado 907334" d="M247.414,148.813h2.98a.961.961,0,0,0,.96-.96v-3.576a.961.961,0,0,0-.96-.96h-2.98a.961.961,0,0,0-.96.96v3.576A.961.961,0,0,0,247.414,148.813Zm.556-3.979h1.868V147.3H247.97Z" transform="translate(-209.992 -128.467)"/>
      <path id="Trazado_907335" data-name="Trazado 907335" d="M304.587,148.813h2.98a.961.961,0,0,0,.96-.96v-3.576a.961.961,0,0,0-.96-.96h-2.98a.961.961,0,0,0-.96.96v3.576A.961.961,0,0,0,304.587,148.813Zm.556-3.979h1.867V147.3h-1.867Z" transform="translate(-261.241 -128.467)"/>
      <path id="Trazado_907336" data-name="Trazado 907336" d="M361.759,148.813h2.98a.961.961,0,0,0,.96-.96v-3.576a.961.961,0,0,0-.96-.96h-2.98a.961.961,0,0,0-.96.96v3.576A.961.961,0,0,0,361.759,148.813Zm.556-3.979h1.867V147.3h-1.867Z" transform="translate(-312.488 -128.467)"/>
      <path id="Trazado_907337" data-name="Trazado 907337" d="M247.414,234.5h2.98a.961.961,0,0,0,.96-.96v-3.576a.961.961,0,0,0-.96-.96h-2.98a.961.961,0,0,0-.96.96v3.576A.961.961,0,0,0,247.414,234.5Zm.556-3.979h1.868v2.463H247.97Z" transform="translate(-209.992 -205.274)"/>
      <path id="Trazado_907338" data-name="Trazado 907338" d="M304.587,234.5h2.98a.961.961,0,0,0,.96-.96v-3.576a.961.961,0,0,0-.96-.96h-2.98a.961.961,0,0,0-.96.96v3.576A.961.961,0,0,0,304.587,234.5Zm.556-3.979h1.867v2.463h-1.867Z" transform="translate(-261.241 -205.274)"/>
      <path id="Trazado_907339" data-name="Trazado 907339" d="M361.759,234.5h2.98a.961.961,0,0,0,.96-.96v-3.576a.961.961,0,0,0-.96-.96h-2.98a.961.961,0,0,0-.96.96v3.576A.961.961,0,0,0,361.759,234.5Zm.556-3.979h1.867v2.463h-1.867Z" transform="translate(-312.488 -205.274)"/>
      <path id="Trazado_907340" data-name="Trazado 907340" d="M361.759,320.187h2.98a.961.961,0,0,0,.96-.96v-3.576a.961.961,0,0,0-.96-.96h-2.98a.961.961,0,0,0-.96.96v3.576A.961.961,0,0,0,361.759,320.187Zm.556-3.979h1.867v2.463h-1.867Z" transform="translate(-312.488 -282.082)"/>
      <path id="Trazado_907341" data-name="Trazado 907341" d="M62.173,35.987a3.156,3.156,0,0,0-4.359-.843l-2.084,1.395V3.934h.151a1,1,0,0,0,1-1V1a1,1,0,0,0-1-1H51.04a.758.758,0,1,0,0,1.516H55.36v.9H34.078v-.9H46.294a.758.758,0,0,0,0-1.516H33.558a1,1,0,0,0-1,1V2.939a1,1,0,0,0,1,1h.385V13.67H32.386V11.8a1.183,1.183,0,0,0-1.181-1.181H25.482A1.183,1.183,0,0,0,24.3,11.8v1.871H23.212A1.229,1.229,0,0,0,21.984,14.9V32.279q-.481-.031-.965-.031H19.824v-.394a2.67,2.67,0,0,0-2.667-2.667h-2.3a2.67,2.67,0,0,0-2.667,2.667V42.678a.758.758,0,0,0,1.516,0V31.854A1.152,1.152,0,0,1,14.853,30.7h2.3a1.152,1.152,0,0,1,1.151,1.151V48.908a1.152,1.152,0,0,1-1.151,1.151h-2.3A1.152,1.152,0,0,1,13.7,48.908V47.421a.758.758,0,0,0-1.516,0v1.487a2.67,2.67,0,0,0,2.667,2.667h2.3a2.67,2.67,0,0,0,2.667-2.667v-.043l10.5,3.974q.031.012.062.021a5.06,5.06,0,0,0,1.379.2A4.75,4.75,0,0,0,32.5,53h0L48,50.764l.011,0a7.626,7.626,0,0,0,3.613-1.619l.028-.024L61.66,40.114A3.157,3.157,0,0,0,62.173,35.987ZM35.458,33.26V3.934H54.214v33.62l-6.306,4.221-2.114-.119-.054-.541a4.632,4.632,0,0,0-.261-1.141q-.066-.18-.147-.354A4.589,4.589,0,0,0,44.2,38.1h2.13a.961.961,0,0,0,.96-.96V33.57a.961.961,0,0,0-.96-.96h-2.98a.961.961,0,0,0-.96.96v3.559a4.684,4.684,0,0,0-.589-.123l-.019,0-.417-.048V33.569a.961.961,0,0,0-.96-.96h-2.98a.961.961,0,0,0-.96.96v2.821l-1-.116V33.26ZM43.9,36.589V34.126H45.77v2.463Zm-4.057-2.463v2.463H38.181l-.2-.023v-2.44ZM25.817,12.133H30.87v1.536H25.817ZM23.5,15.185H33.943v2.37h-8.56a.89.89,0,0,0-.889.889v2.289a.89.89,0,0,0,.889.889h8.56v2.132h-8.56a.89.89,0,0,0-.889.889v2.288a.89.89,0,0,0,.889.889h8.56v2.132h-8.56a.89.89,0,0,0-.889.889v1.81q-.193-.045-.388-.085l-.184-.037-.216-.04c-.069-.012-.138-.026-.207-.037V15.185h0Zm10.443,3.886v1.034H26.01V19.072Zm0,6.2V26.3H26.01V25.27ZM26.01,32.5V31.468h7.933V32.5Zm7.933,1.516V36.1l-.233-.027a13.8,13.8,0,0,1-1.447-.286,13.615,13.615,0,0,1-2.666-.98q-.17-.084-.338-.173-.275-.145-.544-.3c-.132-.077-.266-.152-.4-.225l-.087-.047-.08-.043ZM60.65,38.984l-10,9a6.108,6.108,0,0,1-2.875,1.285L32.281,51.5l-.021,0a3.4,3.4,0,0,1-1.435-.091l-11-4.166V33.764h1.194a13.692,13.692,0,0,1,1.64.1q.165.02.33.044l.048.007q.415.062.824.148c.085.018.169.036.254.055l.126.03c.11.027.22.054.329.083l.059.016a13.728,13.728,0,0,1,2.488.946l.071.036q.152.077.3.157l.092.049c.121.066.241.133.36.2l.005,0h0q.483.283.982.528a15.154,15.154,0,0,0,4.577,1.407l.019,0,1.088.125.886.1,2.044.235.507.058h0l3.542.408a3.087,3.087,0,0,1,2.637,2.756l.026.264L30.05,40.144a.758.758,0,1,0-.147,1.509l15.061,1.468a.741.741,0,0,0,.1.012l3.015.169h.042c.015,0,.03,0,.045,0l.051,0c.022,0,.043-.008.065-.012s.034-.007.05-.011.045-.016.067-.024.028-.01.042-.016a.764.764,0,0,0,.1-.057l6.854-4.587h0L58.658,36.4a1.634,1.634,0,0,1,1.992,2.58Z"/>
    </g>
  </g>
</svg>
