<svg xmlns="http://www.w3.org/2000/svg" xmlns:xlink="http://www.w3.org/1999/xlink" width="102.949" height="102.949" viewBox="0 0 102.949 102.949">
  <defs>
    <filter id="Trazado_874925" x="0" y="0" width="102.949" height="102.949" filterUnits="userSpaceOnUse">
      <feOffset dy="3" input="SourceAlpha"/>
      <feGaussianBlur stdDeviation="3" result="blur"/>
      <feFlood flood-opacity="0.161"/>
      <feComposite operator="in" in2="blur"/>
      <feComposite in="SourceGraphic"/>
    </filter>
  </defs>
  <g id="Grupo_1112536" data-name="Grupo 1112536" transform="translate(-799.5 -2511.157)">
    <g id="Grupo_1111316" data-name="Grupo 1111316" transform="translate(808.5 2517.157)">
      <g id="Grupo_1109835" data-name="Grupo 1109835" transform="translate(0 0)">
        <g id="Grupo_1107913" data-name="Grupo 1107913" transform="translate(0 0)">
          <g transform="matrix(1, 0, 0, 1, -9, -6)" filter="url(#Trazado_874925)">
            <g id="Trazado_874925-2" data-name="Trazado 874925" transform="translate(9 6)" fill="#fc0" opacity="0.859">
              <path d="M 42.47446823120117 83.44929504394531 C 36.94229125976562 83.44929504394531 31.57638549804688 82.36614227294922 26.52582168579102 80.22994232177734 C 21.64678573608398 78.16628265380859 17.26464462280273 75.211669921875 13.50113868713379 71.44816589355469 C 9.737632751464844 67.68466949462891 6.78300952911377 63.30253982543945 4.719362258911133 58.42351913452148 C 2.583150625228882 53.37295150756836 1.499997615814209 48.00706100463867 1.499997615814209 42.47489547729492 C 1.499997615814209 36.94223403930664 2.583150625228882 31.57634162902832 4.719362258911133 26.52577781677246 C 6.78300952911377 21.64675331115723 9.737632751464844 17.26462364196777 13.50113868713379 13.50113010406494 C 17.26464462280273 9.737624168395996 21.64678573608398 6.783012390136719 26.52582168579102 4.719353199005127 C 31.57638549804688 2.583153486251831 36.94229125976562 1.500000476837158 42.47446823120117 1.500000476837158 C 48.00664520263672 1.500000476837158 53.37255096435547 2.583153486251831 58.42311477661133 4.719353199005127 C 63.30215072631836 6.783012390136719 67.68428802490234 9.737624168395996 71.44779968261719 13.50113010406494 C 75.2113037109375 17.26462364196777 78.16592407226562 21.64675331115723 80.22957611083984 26.52577781677246 C 82.36578369140625 31.57634162902832 83.44893646240234 36.94223403930664 83.44893646240234 42.47439956665039 C 83.44893646240234 48.00706100463867 82.36578369140625 53.37295150756836 80.22957611083984 58.42351913452148 C 78.16592407226562 63.30253982543945 75.2113037109375 67.68466949462891 71.44779968261719 71.44816589355469 C 67.68428802490234 75.211669921875 63.30215072631836 78.16628265380859 58.42311477661133 80.22994232177734 C 53.37255096435547 82.36614227294922 48.00664520263672 83.44929504394531 42.47446823120117 83.44929504394531 Z" stroke="none"/>
              <path d="M 42.47446823120117 2.999992370605469 C 37.14412307739258 2.999992370605469 31.97481536865234 4.04327392578125 27.11014938354492 6.100860595703125 C 22.40990829467773 8.088890075683594 18.18804168701172 10.93555450439453 14.56179809570312 14.56178283691406 C 10.93557739257812 18.18801116943359 8.088897705078125 22.40987396240234 6.100868225097656 27.11009979248047 C 4.043281555175781 31.97476577758789 3 37.14406204223633 3 42.47488784790039 C 3 47.80522155761719 4.043281555175781 52.97451400756836 6.100868225097656 57.83917999267578 C 8.088897705078125 62.53940582275391 10.93557739257812 66.76127624511719 14.56179809570312 70.38749694824219 C 18.18804168701172 74.01372528076172 22.40990829467773 76.86039733886719 27.11014938354492 78.84841918945312 C 31.97481536865234 80.906005859375 37.14412307739258 81.94928741455078 42.47446823120117 81.94928741455078 C 47.80481338500977 81.94928741455078 52.97412109375 80.906005859375 57.83879089355469 78.84841918945312 C 62.53902816772461 76.86039733886719 66.76089477539062 74.01372528076172 70.38713073730469 70.38749694824219 C 74.01335906982422 66.76127624511719 76.86003875732422 62.53940582275391 78.84806823730469 57.83917999267578 C 80.90565490722656 52.97451400756836 81.94893646240234 47.80522155761719 81.94893646240234 42.47439575195312 C 81.94893646240234 37.14406204223633 80.90565490722656 31.97476577758789 78.84806823730469 27.11009979248047 C 76.86003875732422 22.40987396240234 74.01335906982422 18.18801116943359 70.38713073730469 14.56178283691406 C 66.76089477539062 10.93555450439453 62.53902816772461 8.088890075683594 57.83879089355469 6.100860595703125 C 52.97412109375 4.04327392578125 47.80481338500977 2.999992370605469 42.47446823120117 2.999992370605469 M 42.47446823120117 -7.62939453125e-06 C 65.93246459960938 -7.62939453125e-06 84.94893646240234 19.01643371582031 84.94893646240234 42.47439575195312 L 84.94893646240234 42.47488784790039 C 84.94893646240234 65.93284606933594 65.93246459960938 84.94928741455078 42.47446823120117 84.94928741455078 C 19.01647186279297 84.94928741455078 0 65.93284606933594 0 42.47488784790039 L 0 42.47439575195312 C 0 19.01643371582031 19.01647186279297 -7.62939453125e-06 42.47446823120117 -7.62939453125e-06 Z" stroke="none" fill="#fff"/>
            </g>
          </g>
          <g id="Trazado_874923" data-name="Trazado 874923" transform="translate(0 0)" fill="none">
            <path d="M42.474,0A42.474,42.474,0,0,1,84.949,42.474h0A42.474,42.474,0,0,1,0,42.475H0A42.474,42.474,0,0,1,42.474,0Z" stroke="none"/>
            <path d="M 42.47446823120117 2.999992370605469 C 37.14412307739258 2.999992370605469 31.97481536865234 4.04327392578125 27.11014938354492 6.100860595703125 C 22.40990829467773 8.088890075683594 18.18804168701172 10.93555450439453 14.56179809570312 14.56178283691406 C 10.93557739257812 18.18801116943359 8.088897705078125 22.40987396240234 6.100868225097656 27.11009979248047 C 4.043281555175781 31.97476577758789 3 37.14406204223633 3 42.47488784790039 C 3 47.80522155761719 4.043281555175781 52.97451400756836 6.100868225097656 57.83917999267578 C 8.088897705078125 62.53940582275391 10.93557739257812 66.76127624511719 14.56179809570312 70.38749694824219 C 18.18804168701172 74.01372528076172 22.40990829467773 76.86039733886719 27.11014938354492 78.84841918945312 C 31.97481536865234 80.906005859375 37.14412307739258 81.94928741455078 42.47446823120117 81.94928741455078 C 47.80481338500977 81.94928741455078 52.97412109375 80.906005859375 57.83879089355469 78.84841918945312 C 62.53902816772461 76.86039733886719 66.76089477539062 74.01372528076172 70.38713073730469 70.38749694824219 C 74.01335906982422 66.76127624511719 76.86003875732422 62.53940582275391 78.84806823730469 57.83917999267578 C 80.90565490722656 52.97451400756836 81.94893646240234 47.80522155761719 81.94893646240234 42.47439575195312 C 81.94893646240234 37.14406204223633 80.90565490722656 31.97476577758789 78.84806823730469 27.11009979248047 C 76.86003875732422 22.40987396240234 74.01335906982422 18.18801116943359 70.38713073730469 14.56178283691406 C 66.76089477539062 10.93555450439453 62.53902816772461 8.088890075683594 57.83879089355469 6.100860595703125 C 52.97412109375 4.04327392578125 47.80481338500977 2.999992370605469 42.47446823120117 2.999992370605469 M 42.47446823120117 -7.62939453125e-06 C 65.93246459960938 -7.62939453125e-06 84.94893646240234 19.01643371582031 84.94893646240234 42.47439575195312 L 84.94893646240234 42.47488784790039 C 84.94893646240234 65.93284606933594 65.93246459960938 84.94928741455078 42.47446823120117 84.94928741455078 C 19.01647186279297 84.94928741455078 0 65.93284606933594 0 42.47488784790039 L 0 42.47439575195312 C 0 19.01643371582031 19.01647186279297 -7.62939453125e-06 42.47446823120117 -7.62939453125e-06 Z" stroke="none" fill="#fff"/>
          </g>
        </g>
      </g>
    </g>
    <g id="Grupo_1115610" data-name="Grupo 1115610" transform="translate(817.846 2532.159)">
      <path id="Trazado_908298" data-name="Trazado 908298" d="M302.54,188.8l-3.857,3.857-10.637,7.686-1.88-1.88.039-.048a5.3,5.3,0,1,0-5.826-5.757l-.01.01-3.384-3.385L290,176.26Z" transform="translate(-241.444 -156.009)" fill="#03aa6f"/>
      <path id="Trazado_908299" data-name="Trazado 908299" d="M61.1,322.806,40.844,340.165H35.057l-18.323-6.75H4.2V322.806H16.735l.675-.289,4.147-1.774,1.929-.829h15.43V325.7H27.343l12.537,5.786,6.722-4.851,10.637-7.686Z" transform="translate(0 -282.304)" fill="#f5d0c7"/>
      <path id="Trazado_908300" data-name="Trazado 908300" d="M317.043,282.038a5.3,5.3,0,0,1-4.764,5.275l-.039.048-5.323-5.323-.473-.473.01-.01a5.3,5.3,0,0,1,10.589.482Z" transform="translate(-267.521 -244.911)" fill="#79dca0"/>
      <path id="Trazado_908301" data-name="Trazado 908301" d="M224.9,330.349l-6.722,4.851-12.537-5.786h11.572v-5.786l.482-.482,5.323,5.323Z" transform="translate(-178.297 -286.018)" fill="#03aa6f"/>
      <path id="Trazado_908302" data-name="Trazado 908302" d="M214.319,54.984a3.2,3.2,0,0,0,2.044-.7,2.232,2.232,0,0,0,.849-1.707,1.446,1.446,0,0,0-1.07-1.321l-1.823-.608V46.3a3.2,3.2,0,0,0-2.044.7,2.233,2.233,0,0,0-.849,1.707,1.446,1.446,0,0,0,1.07,1.321l1.823.608Zm0-13.019a8.679,8.679,0,1,1-8.679,8.679A8.679,8.679,0,0,1,214.319,41.965Z" transform="translate(-178.297 -37.144)" fill="#ffdb6f"/>
      <path id="Trazado_908303" data-name="Trazado 908303" d="M76.542,185.708l-.482.482H70.2a5.786,5.786,0,0,0-11.5.829l-4.147,1.774-8.39-8.39L58.7,167.867,72.685,181.85l3.385,3.385Z" transform="translate(-37.145 -148.58)" fill="#03aa6f"/>
      <g id="Grupo_1115610-2" data-name="Grupo 1115610" transform="translate(33.129 9.161)">
        <path id="Trazado_908304" data-name="Trazado 908304" d="M284.075,119.435a2.233,2.233,0,0,1-.849,1.707,3.2,3.2,0,0,1-2.044.7v-4.34l1.823.608A1.446,1.446,0,0,1,284.075,119.435Z" transform="translate(-278.289 -113.166)" fill="#ffdb6f"/>
        <path id="Trazado_908305" data-name="Trazado 908305" d="M258.893,79.734v4.34l-1.823-.608A1.446,1.446,0,0,1,256,82.145a2.233,2.233,0,0,1,.849-1.707A3.2,3.2,0,0,1,258.893,79.734Z" transform="translate(-256 -79.734)" fill="#ffdb6f"/>
      </g>
      <path id="Trazado_908306" data-name="Trazado 908306" d="M166.775,289.973h-9.566l-1.929.829a5.786,5.786,0,0,1,11.5-.829Z" transform="translate(-133.724 -252.364)" fill="#79dca0"/>
      <g id="Grupo_1115611" data-name="Grupo 1115611" transform="translate(22.521 0)">
        <path id="Trazado_908307" data-name="Trazado 908307" d="M231.388,3.752a11.732,11.732,0,0,0-12.458,0L217.887,2.13a13.479,13.479,0,0,1,14.544,0Z" transform="translate(-211.658 0)" fill="#ffdb6f"/>
        <path id="Trazado_908308" data-name="Trazado 908308" d="M164.712,122.7a13.476,13.476,0,0,1-1.038-5.192H165.6a11.524,11.524,0,0,0,.891,4.451Z" transform="translate(-163.674 -104.005)" fill="#ffdb6f"/>
        <path id="Trazado_908309" data-name="Trazado 908309" d="M281.181,213.291v-1.929a11.524,11.524,0,0,0,4.451-.891l.741,1.782A13.474,13.474,0,0,1,281.181,213.291Z" transform="translate(-267.68 -186.289)" fill="#ffdb6f"/>
        <path id="Trazado_908310" data-name="Trazado 908310" d="M375.929,122.7l-1.782-.741a11.527,11.527,0,0,0,.891-4.451h1.929A13.478,13.478,0,0,1,375.929,122.7Z" transform="translate(-349.965 -104.005)" fill="#ffdb6f"/>
      </g>
      <g id="Grupo_1115612" data-name="Grupo 1115612" transform="translate(26.378 3.857)">
        <path id="Trazado_908311" data-name="Trazado 908311" d="M206.891,52.86a9.644,9.644,0,1,1,9.644-9.644A9.643,9.643,0,0,1,206.891,52.86Zm0-17.358a7.715,7.715,0,1,0,7.715,7.715A7.715,7.715,0,0,0,206.891,35.5Z" transform="translate(-197.247 -33.573)" fill="#ff8030"/>
        <path id="Trazado_908312" data-name="Trazado 908312" d="M251.465,81.9a4.154,4.154,0,0,1-2.663-.928,3.2,3.2,0,0,1-1.195-2.448h1.929a1.269,1.269,0,0,0,.5.964,2.446,2.446,0,0,0,2.854,0,1.268,1.268,0,0,0,.5-.964c0-.135-.14-.317-.407-.4L249.338,76.9a2.41,2.41,0,0,1-1.73-2.235,3.2,3.2,0,0,1,1.2-2.448,4.151,4.151,0,0,1,2.662-.928,3.644,3.644,0,0,1,3.857,3.375h-1.929c0-.784-.883-1.447-1.929-1.447a2.248,2.248,0,0,0-1.426.482,1.268,1.268,0,0,0-.5.964c0,.135.14.317.407.405l3.649,1.217a2.41,2.41,0,0,1,1.73,2.235,3.2,3.2,0,0,1-1.2,2.448A4.15,4.15,0,0,1,251.465,81.9Z" transform="translate(-241.822 -66.95)" fill="#ff8030"/>
        <rect id="Rectángulo_404934" data-name="Rectángulo 404934" width="1.929" height="11.572" transform="translate(8.679 3.857)" fill="#ff8030"/>
      </g>
      <path id="Trazado_908313" data-name="Trazado 908313" d="M218.937,3.756a11.734,11.734,0,0,1,12.457,0l1.042-1.624a13.479,13.479,0,0,0-14.54,0Z" transform="translate(-189.144 -0.003)"/>
      <path id="Trazado_908314" data-name="Trazado 908314" d="M163.673,117.505a13.412,13.412,0,0,0,1.04,5.2l1.78-.745a11.5,11.5,0,0,1-.891-4.452h-1.929Z" transform="translate(-141.152 -104.005)"/>
      <path id="Trazado_908315" data-name="Trazado 908315" d="M281.18,213.3a13.378,13.378,0,0,0,5.194-1.039l-.746-1.78a11.448,11.448,0,0,1-4.448.89V213.3Z" transform="translate(-245.158 -186.297)"/>
      <path id="Trazado_908316" data-name="Trazado 908316" d="M375.936,122.7a13.4,13.4,0,0,0,1.039-5.194h-1.929a11.46,11.46,0,0,1-.89,4.45Z" transform="translate(-327.452 -104.005)"/>
      <path id="Trazado_908317" data-name="Trazado 908317" d="M216.535,43.216a9.644,9.644,0,1,0-9.644,9.644A9.643,9.643,0,0,0,216.535,43.216Zm-9.644,7.715a7.715,7.715,0,1,1,7.715-7.715A7.715,7.715,0,0,1,206.891,50.93Z" transform="translate(-170.87 -29.715)"/>
      <path id="Trazado_908318" data-name="Trazado 908318" d="M253.394,71h1.929a3.491,3.491,0,0,0-2.893-3.256v-.6H250.5v.6A3.491,3.491,0,0,0,247.608,71a2.423,2.423,0,0,0,1.736,2.236l1.157.386V76.1a1.446,1.446,0,0,1-.964-1.237h-1.929a3.491,3.491,0,0,0,2.893,3.256v.6h1.929v-.6a3.491,3.491,0,0,0,2.893-3.256,2.423,2.423,0,0,0-1.736-2.236l-1.157-.386V69.763A1.446,1.446,0,0,1,253.394,71Zm-.415,3.45c.244.082.415.25.415.408a1.447,1.447,0,0,1-.964,1.239V74.267Zm-3.028-3.042c-.244-.082-.415-.25-.415-.408a1.446,1.446,0,0,1,.964-1.239V71.6Z" transform="translate(-215.444 -59.431)"/>
      <path id="Trazado_908319" data-name="Trazado 908319" d="M49.24,160.725a.965.965,0,0,0-1.364,0L35.54,173.062l-13.3-13.3a.965.965,0,0,0-1.364,0L8.338,172.3a.965.965,0,0,0,0,1.364l7.033,7.033H4.2v1.929H16.735a.951.951,0,0,0,.38-.078l6.568-2.815H37.951v3.857H27.343a.964.964,0,0,0-.4,1.84l12.537,5.786a.963.963,0,0,0,.964-.1l16.7-12.053L59.68,181.6,40.487,198.052H35.23l-18.162-6.691a.963.963,0,0,0-.334-.06H4.2v1.929H16.562l18.162,6.691a.962.962,0,0,0,.334.06h5.786a.958.958,0,0,0,.627-.232L61.722,182.39a.965.965,0,0,0,.105-1.36c-.016-.018-.033-.037-.05-.054L58.6,177.8l3.176-3.176a.965.965,0,0,0,0-1.364Zm-27.684,1.081L37.551,177.8H33.809a6.722,6.722,0,0,0-6.466-4.822,6.793,6.793,0,0,0-6.7,5.956l-3.012,1.29-7.246-7.246ZM45.01,182.532l-5.04-5.04a4.329,4.329,0,1,1,5.04,5.04Zm2.692.964-1,.723-.124-.124a6.234,6.234,0,0,0,1.126-.6v0Zm-24.216-5.7a.951.951,0,0,0-.38.078l-.234.1a4.795,4.795,0,0,1,8.877-.175Zm16.287,11.425-8.039-3.71h7.182a.965.965,0,0,0,.964-.964v-4.423l5.236,5.236Zm16.84-12.163-8.5,6.138a6.268,6.268,0,1,0-9.709-7.272l-1.5-1.5L48.558,162.77l11.173,11.173Z" transform="translate(0 -141.155)"/>
    </g>
  </g>
</svg>
