<svg xmlns="http://www.w3.org/2000/svg" xmlns:xlink="http://www.w3.org/1999/xlink" width="102.949" height="102.949" viewBox="0 0 102.949 102.949">
  <defs>
    <filter id="Trazado_874925" x="0" y="0" width="102.949" height="102.949" filterUnits="userSpaceOnUse">
      <feOffset dy="3" input="SourceAlpha"/>
      <feGaussianBlur stdDeviation="3" result="blur"/>
      <feFlood flood-opacity="0.161"/>
      <feComposite operator="in" in2="blur"/>
      <feComposite in="SourceGraphic"/>
    </filter>
  </defs>
  <g id="Grupo_1117971" data-name="Grupo 1117971" transform="translate(-1168.014 -4381.947)">
    <g id="Grupo_1112538" data-name="Grupo 1112538" transform="translate(1177.013 4387.946)">
      <g id="Grupo_1111316" data-name="Grupo 1111316" transform="translate(0 0)">
        <g id="Grupo_1109835" data-name="Grupo 1109835" transform="translate(0 0)">
          <g id="Grupo_1107913" data-name="Grupo 1107913" transform="translate(0 0)">
            <g transform="matrix(1, 0, 0, 1, -9, -6)" filter="url(#Trazado_874925)">
              <g id="Trazado_874925-2" data-name="Trazado 874925" transform="translate(9 6)" fill="#9ad354" opacity="0.859">
                <path d="M 42.47446823120117 83.44929504394531 C 36.94229125976562 83.44929504394531 31.57638549804688 82.36614227294922 26.52582168579102 80.22994232177734 C 21.64678573608398 78.16628265380859 17.26464462280273 75.211669921875 13.50113868713379 71.44816589355469 C 9.737632751464844 67.68466949462891 6.78300952911377 63.30253982543945 4.719362258911133 58.42351913452148 C 2.583150625228882 53.37295150756836 1.499997615814209 48.00706100463867 1.499997615814209 42.47489547729492 C 1.499997615814209 36.94223403930664 2.583150625228882 31.57634162902832 4.719362258911133 26.52577781677246 C 6.78300952911377 21.64675331115723 9.737632751464844 17.26462364196777 13.50113868713379 13.50113010406494 C 17.26464462280273 9.737624168395996 21.64678573608398 6.783012390136719 26.52582168579102 4.719353199005127 C 31.57638549804688 2.583153486251831 36.94229125976562 1.500000476837158 42.47446823120117 1.500000476837158 C 48.00664520263672 1.500000476837158 53.37255096435547 2.583153486251831 58.42311477661133 4.719353199005127 C 63.30215072631836 6.783012390136719 67.68428802490234 9.737624168395996 71.44779968261719 13.50113010406494 C 75.2113037109375 17.26462364196777 78.16592407226562 21.64675331115723 80.22957611083984 26.52577781677246 C 82.36578369140625 31.57634162902832 83.44893646240234 36.94223403930664 83.44893646240234 42.47439956665039 C 83.44893646240234 48.00706100463867 82.36578369140625 53.37295150756836 80.22957611083984 58.42351913452148 C 78.16592407226562 63.30253982543945 75.2113037109375 67.68466949462891 71.44779968261719 71.44816589355469 C 67.68428802490234 75.211669921875 63.30215072631836 78.16628265380859 58.42311477661133 80.22994232177734 C 53.37255096435547 82.36614227294922 48.00664520263672 83.44929504394531 42.47446823120117 83.44929504394531 Z" stroke="none"/>
                <path d="M 42.47446823120117 2.999992370605469 C 37.14412307739258 2.999992370605469 31.97481536865234 4.04327392578125 27.11014938354492 6.100860595703125 C 22.40990829467773 8.088890075683594 18.18804168701172 10.93555450439453 14.56179809570312 14.56178283691406 C 10.93557739257812 18.18801116943359 8.088897705078125 22.40987396240234 6.100868225097656 27.11009979248047 C 4.043281555175781 31.97476577758789 3 37.14406204223633 3 42.47488784790039 C 3 47.80522155761719 4.043281555175781 52.97451400756836 6.100868225097656 57.83917999267578 C 8.088897705078125 62.53940582275391 10.93557739257812 66.76127624511719 14.56179809570312 70.38749694824219 C 18.18804168701172 74.01372528076172 22.40990829467773 76.86039733886719 27.11014938354492 78.84841918945312 C 31.97481536865234 80.906005859375 37.14412307739258 81.94928741455078 42.47446823120117 81.94928741455078 C 47.80481338500977 81.94928741455078 52.97412109375 80.906005859375 57.83879089355469 78.84841918945312 C 62.53902816772461 76.86039733886719 66.76089477539062 74.01372528076172 70.38713073730469 70.38749694824219 C 74.01335906982422 66.76127624511719 76.86003875732422 62.53940582275391 78.84806823730469 57.83917999267578 C 80.90565490722656 52.97451400756836 81.94893646240234 47.80522155761719 81.94893646240234 42.47439575195312 C 81.94893646240234 37.14406204223633 80.90565490722656 31.97476577758789 78.84806823730469 27.11009979248047 C 76.86003875732422 22.40987396240234 74.01335906982422 18.18801116943359 70.38713073730469 14.56178283691406 C 66.76089477539062 10.93555450439453 62.53902816772461 8.088890075683594 57.83879089355469 6.100860595703125 C 52.97412109375 4.04327392578125 47.80481338500977 2.999992370605469 42.47446823120117 2.999992370605469 M 42.47446823120117 -7.62939453125e-06 C 65.93246459960938 -7.62939453125e-06 84.94893646240234 19.01643371582031 84.94893646240234 42.47439575195312 L 84.94893646240234 42.47488784790039 C 84.94893646240234 65.93284606933594 65.93246459960938 84.94928741455078 42.47446823120117 84.94928741455078 C 19.01647186279297 84.94928741455078 0 65.93284606933594 0 42.47488784790039 L 0 42.47439575195312 C 0 19.01643371582031 19.01647186279297 -7.62939453125e-06 42.47446823120117 -7.62939453125e-06 Z" stroke="none" fill="#fff"/>
              </g>
            </g>
            <g id="Trazado_874923" data-name="Trazado 874923" transform="translate(0 0)" fill="none">
              <path d="M42.474,0A42.474,42.474,0,0,1,84.949,42.474h0A42.474,42.474,0,0,1,0,42.475H0A42.474,42.474,0,0,1,42.474,0Z" stroke="none"/>
              <path d="M 42.47446823120117 2.999992370605469 C 37.14412307739258 2.999992370605469 31.97481536865234 4.04327392578125 27.11014938354492 6.100860595703125 C 22.40990829467773 8.088890075683594 18.18804168701172 10.93555450439453 14.56179809570312 14.56178283691406 C 10.93557739257812 18.18801116943359 8.088897705078125 22.40987396240234 6.100868225097656 27.11009979248047 C 4.043281555175781 31.97476577758789 3 37.14406204223633 3 42.47488784790039 C 3 47.80522155761719 4.043281555175781 52.97451400756836 6.100868225097656 57.83917999267578 C 8.088897705078125 62.53940582275391 10.93557739257812 66.76127624511719 14.56179809570312 70.38749694824219 C 18.18804168701172 74.01372528076172 22.40990829467773 76.86039733886719 27.11014938354492 78.84841918945312 C 31.97481536865234 80.906005859375 37.14412307739258 81.94928741455078 42.47446823120117 81.94928741455078 C 47.80481338500977 81.94928741455078 52.97412109375 80.906005859375 57.83879089355469 78.84841918945312 C 62.53902816772461 76.86039733886719 66.76089477539062 74.01372528076172 70.38713073730469 70.38749694824219 C 74.01335906982422 66.76127624511719 76.86003875732422 62.53940582275391 78.84806823730469 57.83917999267578 C 80.90565490722656 52.97451400756836 81.94893646240234 47.80522155761719 81.94893646240234 42.47439575195312 C 81.94893646240234 37.14406204223633 80.90565490722656 31.97476577758789 78.84806823730469 27.11009979248047 C 76.86003875732422 22.40987396240234 74.01335906982422 18.18801116943359 70.38713073730469 14.56178283691406 C 66.76089477539062 10.93555450439453 62.53902816772461 8.088890075683594 57.83879089355469 6.100860595703125 C 52.97412109375 4.04327392578125 47.80481338500977 2.999992370605469 42.47446823120117 2.999992370605469 M 42.47446823120117 -7.62939453125e-06 C 65.93246459960938 -7.62939453125e-06 84.94893646240234 19.01643371582031 84.94893646240234 42.47439575195312 L 84.94893646240234 42.47488784790039 C 84.94893646240234 65.93284606933594 65.93246459960938 84.94928741455078 42.47446823120117 84.94928741455078 C 19.01647186279297 84.94928741455078 0 65.93284606933594 0 42.47488784790039 L 0 42.47439575195312 C 0 19.01643371582031 19.01647186279297 -7.62939453125e-06 42.47446823120117 -7.62939453125e-06 Z" stroke="none" fill="#fff"/>
            </g>
          </g>
        </g>
      </g>
    </g>
    <g id="Direction" transform="translate(1196.195 4406.573)">
      <path id="Trazado_909608" data-name="Trazado 909608" d="M47.7,1V11.612L45.377,9.287,9.287,45.377,11.612,47.7H1V37.09l2.325,2.325,36.09-36.09L37.09,1Z" transform="translate(-0.503 -0.503)" fill="#c3cef2"/>
      <path id="Trazado_909609" data-name="Trazado 909609" d="M47.7,37.09V47.7H37.09l2.325-2.325L3.325,9.287,1,11.612V1H11.612L9.287,3.325l36.09,36.09Z" transform="translate(-0.503 -0.503)" fill="#c3cef2"/>
      <path id="Trazado_909610" data-name="Trazado 909610" d="M40.719,34.757l7.09,7.09a14.965,14.965,0,0,1-5.962,5.962l-7.09-7.09c-7.194,7.2-7.05,7.1-7.1,7.1a14.965,14.965,0,0,1-5.962-5.962l7.1-7.1L21.68,27.642a14.965,14.965,0,0,1,5.962-5.962l7.115,7.115,7.1-7.1a14.965,14.965,0,0,1,5.962,5.962c0,.055.084-.079-7.1,7.1Z" transform="translate(-10.909 -10.909)" fill="#7d92e8"/>
      <circle id="Elipse_11794" data-name="Elipse 11794" cx="11.894" cy="11.894" r="11.894" transform="translate(11.944 11.944)" fill="#ff8d50"/>
      <path id="Trazado_909611" data-name="Trazado 909611" d="M39.25,47.86a8.625,8.625,0,1,1,8.61-8.61A8.625,8.625,0,0,1,39.25,47.86Z" transform="translate(-15.402 -15.402)" fill="#ffd850"/>
      <path id="Trazado_909612" data-name="Trazado 909612" d="M41.262,47.885a6.638,6.638,0,1,1,6.623-6.623,6.638,6.638,0,0,1-6.623,6.623Z" transform="translate(-17.414 -17.414)" fill="#ffff8c"/>
      <g id="Grupo_1117970" data-name="Grupo 1117970" transform="translate(0 0)">
        <path id="Trazado_909613" data-name="Trazado 909613" d="M47.5,27.283a.5.5,0,0,1-.5-.5V23.5a.5.5,0,0,1,.994,0v3.269a.5.5,0,0,1-.5.517Z" transform="translate(-23.649 -11.573)" fill="#302d3d"/>
        <path id="Trazado_909614" data-name="Trazado 909614" d="M47.5,68.593a.5.5,0,0,1-.5-.5V64.827a.5.5,0,0,1,.994,0V68.1A.5.5,0,0,1,47.5,68.593Z" transform="translate(-23.649 -32.369)" fill="#302d3d"/>
        <path id="Trazado_909615" data-name="Trazado 909615" d="M68.1,47.994H64.827a.5.5,0,0,1,0-.994H68.1a.5.5,0,0,1,0,.994Z" transform="translate(-32.369 -23.649)" fill="#302d3d"/>
        <path id="Trazado_909616" data-name="Trazado 909616" d="M26.786,47.994H23.5a.5.5,0,0,1,0-.994h3.269a.5.5,0,0,1,0,.994Z" transform="translate(-11.573 -23.649)" fill="#302d3d"/>
        <path id="Trazado_909617" data-name="Trazado 909617" d="M59.739,33.359a.5.5,0,0,1-.348-.85l2.315-2.315a.5.5,0,1,1,.7.706l-2.29,2.31A.5.5,0,0,1,59.739,33.359Z" transform="translate(-29.81 -15.12)" fill="#302d3d"/>
        <path id="Trazado_909618" data-name="Trazado 909618" d="M30.544,62.557a.5.5,0,0,1-.353-.85l2.315-2.31a.5.5,0,0,1,.7.725L30.9,62.437A.5.5,0,0,1,30.544,62.557Z" transform="translate(-15.117 -29.815)" fill="#302d3d"/>
        <path id="Trazado_909619" data-name="Trazado 909619" d="M62.051,62.548A.5.5,0,0,1,61.7,62.4l-2.315-2.29a.513.513,0,1,1,.725-.725L62.428,61.7a.5.5,0,0,1-.378.845Z" transform="translate(-29.806 -29.806)" fill="#302d3d"/>
        <path id="Trazado_909620" data-name="Trazado 909620" d="M32.86,33.357a.5.5,0,0,1-.353-.149L30.192,30.9a.5.5,0,0,1,.706-.706l2.31,2.315a.5.5,0,0,1-.348.85Z" transform="translate(-15.118 -15.118)" fill="#302d3d"/>
        <path id="Trazado_909621" data-name="Trazado 909621" d="M22.254,65.512a.5.5,0,0,1-.353-.85l3.06-3.06a.5.5,0,0,1,.706.706l-3.06,3.06a.5.5,0,0,1-.353.144Z" transform="translate(-10.946 -30.923)" fill="#302d3d"/>
        <path id="Trazado_909622" data-name="Trazado 909622" d="M61.954,25.834a.5.5,0,0,1-.353-.85L64.706,21.9a.5.5,0,0,1,.7.7l-3.1,3.1A.5.5,0,0,1,61.954,25.834Z" transform="translate(-30.922 -10.969)" fill="#302d3d"/>
        <path id="Trazado_909623" data-name="Trazado 909623" d="M22.375,18.47a.5.5,0,0,1-.353-.149l-1.739-1.739a.5.5,0,1,1,.706-.7l1.739,1.739a.5.5,0,0,1-.353.85Z" transform="translate(-10.133 -7.917)" fill="#302d3d"/>
        <path id="Trazado_909624" data-name="Trazado 909624" d="M31.1,27.2a.5.5,0,0,1-.353-.144l-1.774-1.774a.5.5,0,1,1,.706-.706l1.774,1.774a.5.5,0,0,1-.353.85Z" transform="translate(-14.504 -12.29)" fill="#302d3d"/>
        <path id="Trazado_909625" data-name="Trazado 909625" d="M68.392,64.479a.5.5,0,0,1-.353-.144L66.1,62.4a.5.5,0,1,1,.706-.706l1.938,1.938a.5.5,0,0,1-.353.85Z" transform="translate(-33.187 -30.968)" fill="#302d3d"/>
        <path id="Trazado_909626" data-name="Trazado 909626" d="M47.5,39.7a.5.5,0,0,1-.5-.5V37.717a.5.5,0,1,1,.994,0v1.491A.5.5,0,0,1,47.5,39.7Z" transform="translate(-23.649 -18.728)" fill="#302d3d"/>
        <path id="Trazado_909627" data-name="Trazado 909627" d="M47.5,56.234a.5.5,0,0,1-.5-.5V54.247a.5.5,0,0,1,.994,0v1.491A.5.5,0,0,1,47.5,56.234Z" transform="translate(-23.649 -27.045)" fill="#302d3d"/>
        <path id="Trazado_909628" data-name="Trazado 909628" d="M46,47.936h-.353A1.948,1.948,0,0,1,43.7,45.983a.5.5,0,0,1,.994,0,.959.959,0,0,0,.954.959H46a.959.959,0,0,0,.954-.959V44.99a.407.407,0,0,0-.407-.407H45.1a1.4,1.4,0,0,1-1.4-1.4v-.994a1.948,1.948,0,0,1,1.948-1.953H46a1.953,1.953,0,0,1,1.948,1.953.5.5,0,0,1-.994,0A.959.959,0,0,0,46,41.234h-.353a.959.959,0,0,0-.954.959v.994a.4.4,0,0,0,.4.4h1.451a1.4,1.4,0,0,1,1.4,1.4v.994A1.953,1.953,0,0,1,46,47.936Z" transform="translate(-21.988 -20.247)" fill="#302d3d"/>
        <path id="Trazado_909629" data-name="Trazado 909629" d="M10.307,47.916a.5.5,0,0,1-.457-.3,19.789,19.789,0,0,1,0-15.452.5.5,0,0,1,.914.388,18.79,18.79,0,0,0,0,14.676.5.5,0,0,1-.457.691Z" transform="translate(-4.166 -16.039)" fill="#302d3d"/>
        <path id="Trazado_909630" data-name="Trazado 909630" d="M32.145,83.566a.5.5,0,1,1,.388-.914,18.75,18.75,0,0,0,14.652,0,.5.5,0,0,1,.388.914A19.749,19.749,0,0,1,32.145,83.566Z" transform="translate(-16.013 -41.564)" fill="#302d3d"/>
        <path id="Trazado_909631" data-name="Trazado 909631" d="M47.414,10.835a20.4,20.4,0,0,0-7.532-1.53,18.562,18.562,0,0,0-7.313,1.49.5.5,0,0,1-.388-.914,19.749,19.749,0,0,1,15.427,0,.5.5,0,0,1-.194.954Z" transform="translate(-16.049 -4.183)" fill="#302d3d"/>
        <path id="Trazado_909632" data-name="Trazado 909632" d="M83.1,47.916a.5.5,0,0,1-.457-.691,18.82,18.82,0,0,0,0-14.637.5.5,0,0,1,.914-.388,19.8,19.8,0,0,1,0,15.4A.5.5,0,0,1,83.1,47.916Z" transform="translate(-41.562 -16.059)" fill="#302d3d"/>
        <path id="Trazado_909633" data-name="Trazado 909633" d="M73.749,15.458a.5.5,0,0,1-.353-.845l1.64-1.64a.5.5,0,1,1,.7.706l-1.615,1.635a.5.5,0,0,1-.373.144Z" transform="translate(-36.859 -6.455)" fill="#302d3d"/>
        <path id="Trazado_909634" data-name="Trazado 909634" d="M10.354,79a.5.5,0,0,1-.353-.85l1.491-1.491a.5.5,0,0,1,.706.7l-1.491,1.491A.5.5,0,0,1,10.354,79Z" transform="translate(-4.958 -38.499)" fill="#302d3d"/>
        <path id="Trazado_909635" data-name="Trazado 909635" d="M11.109,76.294H.5a.5.5,0,0,1-.5-.5V65.185a.5.5,0,0,1,.85-.353l1.987,1.987,9.807-9.837a.5.5,0,1,1,.706.706L3.175,67.848a.5.5,0,0,1-.691,0L.994,66.357V75.3H9.937L8.446,73.81a.5.5,0,0,1,0-.705L18.621,62.929a.5.5,0,1,1,.706.706L9.485,73.472l1.987,1.987a.5.5,0,0,1-.363.835Z" transform="translate(0 -28.598)" fill="#302d3d"/>
        <path id="Trazado_909636" data-name="Trazado 909636" d="M63.282,19.471a.5.5,0,0,1-.353-.85L73.119,8.446a.5.5,0,0,1,.691,0L75.3,9.937V.994H66.357l1.491,1.491a.5.5,0,0,1,0,.706L57.688,13.35a.5.5,0,1,1-.706-.706l9.827-9.822L64.822.835A.5.5,0,0,1,65.185,0H75.8a.5.5,0,0,1,.5.5V11.109a.5.5,0,0,1-.85.353L73.457,9.475l-9.822,9.852a.5.5,0,0,1-.353.144Z" transform="translate(-28.598 0)" fill="#302d3d"/>
        <path id="Trazado_909637" data-name="Trazado 909637" d="M12.992,19.451a.5.5,0,0,1-.353-.144L2.822,9.485.835,11.472A.5.5,0,0,1,0,11.109V.5A.5.5,0,0,1,.5,0H11.109a.5.5,0,0,1,.353.85L9.475,2.837l9.832,9.8a.5.5,0,1,1-.705.706L8.446,3.175a.5.5,0,0,1,0-.691L9.937.994H.994V9.937L2.484,8.446a.5.5,0,0,1,.706,0L13.345,18.6a.5.5,0,0,1-.353.85Z" transform="translate(0 0)" fill="#302d3d"/>
        <path id="Trazado_909638" data-name="Trazado 909638" d="M75.777,76.274H65.165a.5.5,0,0,1-.353-.85L66.8,73.437,56.942,63.61a.5.5,0,1,1,.706-.706l10.18,10.2a.5.5,0,0,1,0,.691l-1.491,1.49H75.28V66.337L73.79,67.828a.5.5,0,0,1-.705,0L62.9,57.648a.5.5,0,0,1,.706-.705l9.842,9.847L75.439,64.8a.5.5,0,0,1,.85.353V75.777a.5.5,0,0,1-.512.5Z" transform="translate(-28.578 -28.578)" fill="#302d3d"/>
        <path id="Trazado_909639" data-name="Trazado 909639" d="M35.436,47.812A12.391,12.391,0,1,1,47.812,35.436,12.391,12.391,0,0,1,35.436,47.812Zm0-23.8A11.4,11.4,0,1,0,46.818,35.436,11.4,11.4,0,0,0,35.436,24.009Z" transform="translate(-11.588 -11.588)" fill="#302d3d"/>
        <path id="Trazado_909640" data-name="Trazado 909640" d="M38.747,47.853a9.122,9.122,0,1,1,9.107-9.107A9.122,9.122,0,0,1,38.747,47.853Zm0-17.245a8.128,8.128,0,1,0,8.113,8.138,8.128,8.128,0,0,0-8.113-8.138Z" transform="translate(-14.898 -14.898)" fill="#302d3d"/>
      </g>
    </g>
  </g>
</svg>
