<svg xmlns="http://www.w3.org/2000/svg" xmlns:xlink="http://www.w3.org/1999/xlink" width="102.949" height="102.949" viewBox="0 0 102.949 102.949">
  <defs>
    <filter id="Trazado_874925" x="0" y="0" width="102.949" height="102.949" filterUnits="userSpaceOnUse">
      <feOffset dy="3" input="SourceAlpha"/>
      <feGaussianBlur stdDeviation="3" result="blur"/>
      <feFlood flood-opacity="0.161"/>
      <feComposite operator="in" in2="blur"/>
      <feComposite in="SourceGraphic"/>
    </filter>
  </defs>
  <g id="Grupo_1112537" data-name="Grupo 1112537" transform="translate(9 6)">
    <g id="Grupo_1111316" data-name="Grupo 1111316" transform="translate(0 0)">
      <g id="Grupo_1109835" data-name="Grupo 1109835" transform="translate(0 0)">
        <g id="Grupo_1107913" data-name="Grupo 1107913" transform="translate(0 0)">
          <g transform="matrix(1, 0, 0, 1, -9, -6)" filter="url(#Trazado_874925)">
            <g id="Trazado_874925-2" data-name="Trazado 874925" transform="translate(9 6)" fill="#9ad354" opacity="0.859">
              <path d="M 42.47446823120117 83.44929504394531 C 36.94229125976562 83.44929504394531 31.57638549804688 82.36614227294922 26.52582168579102 80.22994232177734 C 21.64678573608398 78.16628265380859 17.26464462280273 75.211669921875 13.50113868713379 71.44816589355469 C 9.737632751464844 67.68466949462891 6.78300952911377 63.30253982543945 4.719362258911133 58.42351913452148 C 2.583150625228882 53.37295150756836 1.499997615814209 48.00706100463867 1.499997615814209 42.47489547729492 C 1.499997615814209 36.94223403930664 2.583150625228882 31.57634162902832 4.719362258911133 26.52577781677246 C 6.78300952911377 21.64675331115723 9.737632751464844 17.26462364196777 13.50113868713379 13.50113010406494 C 17.26464462280273 9.737624168395996 21.64678573608398 6.783012390136719 26.52582168579102 4.719353199005127 C 31.57638549804688 2.583153486251831 36.94229125976562 1.500000476837158 42.47446823120117 1.500000476837158 C 48.00664520263672 1.500000476837158 53.37255096435547 2.583153486251831 58.42311477661133 4.719353199005127 C 63.30215072631836 6.783012390136719 67.68428802490234 9.737624168395996 71.44779968261719 13.50113010406494 C 75.2113037109375 17.26462364196777 78.16592407226562 21.64675331115723 80.22957611083984 26.52577781677246 C 82.36578369140625 31.57634162902832 83.44893646240234 36.94223403930664 83.44893646240234 42.47439956665039 C 83.44893646240234 48.00706100463867 82.36578369140625 53.37295150756836 80.22957611083984 58.42351913452148 C 78.16592407226562 63.30253982543945 75.2113037109375 67.68466949462891 71.44779968261719 71.44816589355469 C 67.68428802490234 75.211669921875 63.30215072631836 78.16628265380859 58.42311477661133 80.22994232177734 C 53.37255096435547 82.36614227294922 48.00664520263672 83.44929504394531 42.47446823120117 83.44929504394531 Z" stroke="none"/>
              <path d="M 42.47446823120117 2.999992370605469 C 37.14412307739258 2.999992370605469 31.97481536865234 4.04327392578125 27.11014938354492 6.100860595703125 C 22.40990829467773 8.088890075683594 18.18804168701172 10.93555450439453 14.56179809570312 14.56178283691406 C 10.93557739257812 18.18801116943359 8.088897705078125 22.40987396240234 6.100868225097656 27.11009979248047 C 4.043281555175781 31.97476577758789 3 37.14406204223633 3 42.47488784790039 C 3 47.80522155761719 4.043281555175781 52.97451400756836 6.100868225097656 57.83917999267578 C 8.088897705078125 62.53940582275391 10.93557739257812 66.76127624511719 14.56179809570312 70.38749694824219 C 18.18804168701172 74.01372528076172 22.40990829467773 76.86039733886719 27.11014938354492 78.84841918945312 C 31.97481536865234 80.906005859375 37.14412307739258 81.94928741455078 42.47446823120117 81.94928741455078 C 47.80481338500977 81.94928741455078 52.97412109375 80.906005859375 57.83879089355469 78.84841918945312 C 62.53902816772461 76.86039733886719 66.76089477539062 74.01372528076172 70.38713073730469 70.38749694824219 C 74.01335906982422 66.76127624511719 76.86003875732422 62.53940582275391 78.84806823730469 57.83917999267578 C 80.90565490722656 52.97451400756836 81.94893646240234 47.80522155761719 81.94893646240234 42.47439575195312 C 81.94893646240234 37.14406204223633 80.90565490722656 31.97476577758789 78.84806823730469 27.11009979248047 C 76.86003875732422 22.40987396240234 74.01335906982422 18.18801116943359 70.38713073730469 14.56178283691406 C 66.76089477539062 10.93555450439453 62.53902816772461 8.088890075683594 57.83879089355469 6.100860595703125 C 52.97412109375 4.04327392578125 47.80481338500977 2.999992370605469 42.47446823120117 2.999992370605469 M 42.47446823120117 -7.62939453125e-06 C 65.93246459960938 -7.62939453125e-06 84.94893646240234 19.01643371582031 84.94893646240234 42.47439575195312 L 84.94893646240234 42.47488784790039 C 84.94893646240234 65.93284606933594 65.93246459960938 84.94928741455078 42.47446823120117 84.94928741455078 C 19.01647186279297 84.94928741455078 0 65.93284606933594 0 42.47488784790039 L 0 42.47439575195312 C 0 19.01643371582031 19.01647186279297 -7.62939453125e-06 42.47446823120117 -7.62939453125e-06 Z" stroke="none" fill="#fff"/>
            </g>
          </g>
          <g id="Trazado_874923" data-name="Trazado 874923" transform="translate(0 0)" fill="none">
            <path d="M42.474,0A42.474,42.474,0,0,1,84.949,42.474h0A42.474,42.474,0,0,1,0,42.475H0A42.474,42.474,0,0,1,42.474,0Z" stroke="none"/>
            <path d="M 42.47446823120117 2.999992370605469 C 37.14412307739258 2.999992370605469 31.97481536865234 4.04327392578125 27.11014938354492 6.100860595703125 C 22.40990829467773 8.088890075683594 18.18804168701172 10.93555450439453 14.56179809570312 14.56178283691406 C 10.93557739257812 18.18801116943359 8.088897705078125 22.40987396240234 6.100868225097656 27.11009979248047 C 4.043281555175781 31.97476577758789 3 37.14406204223633 3 42.47488784790039 C 3 47.80522155761719 4.043281555175781 52.97451400756836 6.100868225097656 57.83917999267578 C 8.088897705078125 62.53940582275391 10.93557739257812 66.76127624511719 14.56179809570312 70.38749694824219 C 18.18804168701172 74.01372528076172 22.40990829467773 76.86039733886719 27.11014938354492 78.84841918945312 C 31.97481536865234 80.906005859375 37.14412307739258 81.94928741455078 42.47446823120117 81.94928741455078 C 47.80481338500977 81.94928741455078 52.97412109375 80.906005859375 57.83879089355469 78.84841918945312 C 62.53902816772461 76.86039733886719 66.76089477539062 74.01372528076172 70.38713073730469 70.38749694824219 C 74.01335906982422 66.76127624511719 76.86003875732422 62.53940582275391 78.84806823730469 57.83917999267578 C 80.90565490722656 52.97451400756836 81.94893646240234 47.80522155761719 81.94893646240234 42.47439575195312 C 81.94893646240234 37.14406204223633 80.90565490722656 31.97476577758789 78.84806823730469 27.11009979248047 C 76.86003875732422 22.40987396240234 74.01335906982422 18.18801116943359 70.38713073730469 14.56178283691406 C 66.76089477539062 10.93555450439453 62.53902816772461 8.088890075683594 57.83879089355469 6.100860595703125 C 52.97412109375 4.04327392578125 47.80481338500977 2.999992370605469 42.47446823120117 2.999992370605469 M 42.47446823120117 -7.62939453125e-06 C 65.93246459960938 -7.62939453125e-06 84.94893646240234 19.01643371582031 84.94893646240234 42.47439575195312 L 84.94893646240234 42.47488784790039 C 84.94893646240234 65.93284606933594 65.93246459960938 84.94928741455078 42.47446823120117 84.94928741455078 C 19.01647186279297 84.94928741455078 0 65.93284606933594 0 42.47488784790039 L 0 42.47439575195312 C 0 19.01643371582031 19.01647186279297 -7.62939453125e-06 42.47446823120117 -7.62939453125e-06 Z" stroke="none" fill="#fff"/>
          </g>
        </g>
      </g>
    </g>
    <g id="Financial" transform="translate(9.884 10.497)">
      <path id="Trazado_909575" data-name="Trazado 909575" d="M41.7,47.3h15.19a1.025,1.025,0,0,1,1,1v2.532a1.025,1.025,0,0,1-1,1H41.7a1.025,1.025,0,0,1-1-1V48.3A1.025,1.025,0,0,1,41.7,47.3Z" transform="translate(-12.951 -15.788)" fill="#ff9d41"/>
      <path id="Trazado_909576" data-name="Trazado 909576" d="M41.7,40.5h15.19a1.025,1.025,0,0,1,1,1v2.532a1.025,1.025,0,0,1-1,1H41.7a1.025,1.025,0,0,1-1-1V41.5A1.025,1.025,0,0,1,41.7,40.5Z" transform="translate(-12.951 -13.518)" fill="#ff9d41"/>
      <path id="Trazado_909577" data-name="Trazado 909577" d="M41.7,33.7h15.19a1.025,1.025,0,0,1,1,1v2.532a1.025,1.025,0,0,1-1,1H41.7a1.025,1.025,0,0,1-1-1V34.7A1.025,1.025,0,0,1,41.7,33.7Z" transform="translate(-12.951 -11.249)" fill="#ff9d41"/>
      <path id="Trazado_909578" data-name="Trazado 909578" d="M41.7,26.9h15.19a1.025,1.025,0,0,1,1,1v2.532a1.025,1.025,0,0,1-1,1H41.7a1.025,1.025,0,0,1-1-1V27.9a1.025,1.025,0,0,1,1-1Z" transform="translate(-12.951 -8.979)" fill="#ff9d41"/>
      <path id="Trazado_909579" data-name="Trazado 909579" d="M57.955,48.3v.533a1.025,1.025,0,0,1-1,1H41.7a1.025,1.025,0,0,1-1-1V48.3a1.025,1.025,0,0,1,1-1H56.956A1.025,1.025,0,0,1,57.955,48.3Z" transform="translate(-12.951 -15.788)" fill="#ffc541"/>
      <path id="Trazado_909580" data-name="Trazado 909580" d="M41.7,40.5h15.19a1.025,1.025,0,0,1,1,1v.533a1.025,1.025,0,0,1-1,1H41.7a1.025,1.025,0,0,1-1-1V41.5A1.025,1.025,0,0,1,41.7,40.5Z" transform="translate(-12.951 -13.518)" fill="#ffc541"/>
      <path id="Trazado_909581" data-name="Trazado 909581" d="M41.7,40.5H55.49a1.025,1.025,0,0,1,1,1v.533a1.025,1.025,0,0,1-1,1H41.7a1.025,1.025,0,0,1-1-1V41.5A1.025,1.025,0,0,1,41.7,40.5Z" transform="translate(-12.951 -13.518)" fill="#ffe391"/>
      <path id="Trazado_909582" data-name="Trazado 909582" d="M57.955,35.232a1.025,1.025,0,0,1-1,1H41.7a1.025,1.025,0,0,1-1-1V34.7a1.025,1.025,0,0,1,1-1H56.956a1.025,1.025,0,0,1,1,1Z" transform="translate(-12.951 -11.249)" fill="#ffc541"/>
      <path id="Trazado_909583" data-name="Trazado 909583" d="M41.7,26.9h15.19a1.025,1.025,0,0,1,1,1v.533a1.025,1.025,0,0,1-1,1H41.7a1.025,1.025,0,0,1-1-1V27.9A1.025,1.025,0,0,1,41.7,26.9Z" transform="translate(-12.951 -8.979)" fill="#ffc541"/>
      <path id="Trazado_909584" data-name="Trazado 909584" d="M56.489,48.3v.533a1.025,1.025,0,0,1-1,1H41.7a1.025,1.025,0,0,1-1-1V48.3a1.025,1.025,0,0,1,1-1H55.49A1.025,1.025,0,0,1,56.489,48.3Z" transform="translate(-12.951 -15.788)" fill="#ffe391"/>
      <path id="Trazado_909585" data-name="Trazado 909585" d="M56.622,45.363H41.366A1.649,1.649,0,0,1,39.7,43.7V41.166A1.649,1.649,0,0,1,41.366,39.5H56.622a1.649,1.649,0,0,1,1.666,1.666V43.7A1.692,1.692,0,0,1,56.622,45.363Zm-15.256-4.53a.315.315,0,0,0-.333.333V43.7a.315.315,0,0,0,.333.333H56.622a.315.315,0,0,0,.333-.333V41.166a.315.315,0,0,0-.333-.333Z" transform="translate(-12.617 -13.185)" fill="#302d3d"/>
      <path id="Trazado_909586" data-name="Trazado 909586" d="M56.622,52.163H41.366A1.649,1.649,0,0,1,39.7,50.5V47.966A1.649,1.649,0,0,1,41.366,46.3H56.622a1.649,1.649,0,0,1,1.666,1.666V50.5A1.692,1.692,0,0,1,56.622,52.163Zm-15.256-4.53a.315.315,0,0,0-.333.333V50.5a.315.315,0,0,0,.333.333H56.622a.315.315,0,0,0,.333-.333V47.966a.315.315,0,0,0-.333-.333Z" transform="translate(-12.617 -15.454)" fill="#302d3d"/>
      <path id="Trazado_909587" data-name="Trazado 909587" d="M56.489,35.232a1.025,1.025,0,0,1-1,1H41.7a1.025,1.025,0,0,1-1-1V34.7a1.025,1.025,0,0,1,1-1H55.49a1.025,1.025,0,0,1,1,1Z" transform="translate(-12.951 -11.249)" fill="#ffe391"/>
      <path id="Trazado_909588" data-name="Trazado 909588" d="M41.7,26.9H55.49a1.025,1.025,0,0,1,1,1v.533a1.025,1.025,0,0,1-1,1H41.7a1.025,1.025,0,0,1-1-1V27.9A1.025,1.025,0,0,1,41.7,26.9Z" transform="translate(-12.951 -8.979)" fill="#ffe391"/>
      <circle id="Elipse_11793" data-name="Elipse 11793" cx="8.594" cy="8.594" r="8.594" transform="translate(27.749 0.733)" fill="#ffc541"/>
      <path id="Trazado_909589" data-name="Trazado 909589" d="M50.3,17.258a6.629,6.629,0,1,1,6.6-6.6A6.611,6.611,0,0,1,50.3,17.258Z" transform="translate(-13.952 -1.335)" fill="#ffe391"/>
      <path id="Trazado_909590" data-name="Trazado 909590" d="M67.6,36.651,55.941,54.373a5.69,5.69,0,0,1-4.53,2.532H38.619a2.419,2.419,0,0,0-1.865.8l-6.529,6.529L17.9,51.908l8.528-8.528a4.955,4.955,0,0,1,3.464-1.466H42.883a2.676,2.676,0,0,1,2.665,2.4,2.562,2.562,0,0,1-2.532,2.665h7.2L63.736,33.52A2.5,2.5,0,0,1,67.6,36.651Z" transform="translate(-5.341 -10.936)" fill="#fbba8d"/>
      <path id="Trazado_909591" data-name="Trazado 909591" d="M64.2,33.77,50.946,47.028h-7.2a2.521,2.521,0,0,0,2.532-2.665A2.745,2.745,0,0,0,43.551,41.9H30.626A4.992,4.992,0,0,0,27.1,43.364l-7.2,7.262,6.4,6.4a4.172,4.172,0,0,0,4.663.866l7.262-3.131a6.305,6.305,0,0,1,2.465-.533H52.078a5.368,5.368,0,0,0,4.53-2.465C68.8,33.171,68.267,34.037,68.267,33.9A2.693,2.693,0,0,0,64.2,33.77Z" transform="translate(-6.008 -10.986)" fill="#fbceab"/>
      <path id="Trazado_909592" data-name="Trazado 909592" d="M34.585,54.166a1.678,1.678,0,0,0-1.6-1.666,3.125,3.125,0,0,0-2.332,1L27.39,56.764A1.634,1.634,0,0,0,28.523,59.5h.666A5.36,5.36,0,0,0,34.585,54.166Z" transform="translate(-8.368 -17.524)" fill="#fbe2c9"/>
      <path id="Trazado_909593" data-name="Trazado 909593" d="M29.425,64.315,17.1,52.057a.644.644,0,0,1,0-.933L25.627,42.6a5.591,5.591,0,0,1,4-1.666H42.616a3.237,3.237,0,0,1,2.731,5.13h4.264L62.935,32.737A3.143,3.143,0,0,1,67.8,36.667L56.207,54.455a6.154,6.154,0,0,1-5.13,2.8H38.285a1.917,1.917,0,0,0-1.4.6l-6.529,6.529a.648.648,0,0,1-.933-.067ZM18.566,51.591,29.891,62.916l6.063-6.063a3.114,3.114,0,0,1,2.4-.933H51.143a4.689,4.689,0,0,0,4-2.2L66.733,35.935a1.88,1.88,0,0,0-.466-2.532,1.824,1.824,0,0,0-2.332.266L50.411,47.194a.6.6,0,0,1-.466.2h-7.2a.666.666,0,1,1,0-1.332,1.9,1.9,0,1,0-.133-3.8H29.625a4.394,4.394,0,0,0-3.065,1.266Z" transform="translate(-5.007 -10.618)" fill="#302d3d"/>
      <path id="Trazado_909594" data-name="Trazado 909594" d="M50.56,54.432H40.966a.666.666,0,0,1,0-1.332H50.56a.666.666,0,0,1,0,1.332Z" transform="translate(-12.817 -17.724)" fill="#302d3d"/>
      <path id="Trazado_909595" data-name="Trazado 909595" d="M0,0H4.4V20.32H0Z" transform="translate(8.417 43.053) rotate(-45)" fill="#d2ddf2"/>
      <path id="Trazado_909596" data-name="Trazado 909596" d="M0,0H8.328V20.32H0Z" transform="translate(2.513 48.911) rotate(-45)" fill="#5d7db0"/>
      <path id="Trazado_909597" data-name="Trazado 909597" d="M0,0H4.4V2.865H0Z" transform="translate(20.794 55.4) rotate(-45)" fill="#87b5e3"/>
      <path id="Trazado_909598" data-name="Trazado 909598" d="M0,0H8.328V2.865H0Z" transform="translate(14.882 61.263) rotate(-45)" fill="#495f9c"/>
      <path id="Trazado_909599" data-name="Trazado 909599" d="M23.858,77.993l-2.132,2.132a1.288,1.288,0,0,1-1.865,0L11.4,71.6a1.288,1.288,0,0,1,0-1.865L13.532,67.6s10.26,10.393,10.326,10.393Z" transform="translate(-3.037 -22.564)" fill="#6c8cbf"/>
      <g id="Grupo_1117969" data-name="Grupo 1117969" transform="translate(1.9)">
        <path id="Trazado_909600" data-name="Trazado 909600" d="M56.622,38.563H41.366A1.649,1.649,0,0,1,39.7,36.9V34.366A1.649,1.649,0,0,1,41.366,32.7H56.622a1.649,1.649,0,0,1,1.666,1.666V36.9A1.692,1.692,0,0,1,56.622,38.563Zm-15.256-4.53a.315.315,0,0,0-.333.333V36.9a.315.315,0,0,0,.333.333H56.622a.315.315,0,0,0,.333-.333V34.366a.315.315,0,0,0-.333-.333Z" transform="translate(-14.517 -10.915)" fill="#302d3d"/>
        <path id="Trazado_909601" data-name="Trazado 909601" d="M56.622,31.763H41.366A1.649,1.649,0,0,1,39.7,30.1V27.566A1.649,1.649,0,0,1,41.366,25.9H56.622a1.649,1.649,0,0,1,1.666,1.666V30.1A1.692,1.692,0,0,1,56.622,31.763Zm-15.256-4.53a.315.315,0,0,0-.333.333V30.1a.315.315,0,0,0,.333.333H56.622a.315.315,0,0,0,.333-.333V27.566a.315.315,0,0,0-.333-.333Z" transform="translate(-14.517 -8.645)" fill="#302d3d"/>
        <path id="Trazado_909602" data-name="Trazado 909602" d="M48.96,18.587A9.294,9.294,0,0,1,48.96,0a9.213,9.213,0,0,1,9.26,9.327A9.241,9.241,0,0,1,48.96,18.587Zm0-17.255a7.961,7.961,0,0,0,0,15.923,7.9,7.9,0,0,0,7.928-7.928A7.919,7.919,0,0,0,48.96,1.332Z" transform="translate(-14.517)" fill="#302d3d"/>
        <path id="Trazado_909603" data-name="Trazado 909603" d="M52.465,15.828h-1.6a.666.666,0,0,1,0-1.332h1.6a.933.933,0,1,0,0-1.865,2.269,2.269,0,0,1,0-4.53h1.6a.666.666,0,1,1,0,1.332h-1.6a.956.956,0,0,0-.866,1,.991.991,0,0,0,.866.866,2.265,2.265,0,1,1,0,4.53Z" transform="translate(-18.022 -2.704)" fill="#302d3d"/>
        <path id="Trazado_909604" data-name="Trazado 909604" d="M53.266,20.565A.629.629,0,0,1,52.6,19.9V18.366a.666.666,0,0,1,1.332,0V19.9A.629.629,0,0,1,53.266,20.565Z" transform="translate(-18.823 -5.908)" fill="#302d3d"/>
        <path id="Trazado_909605" data-name="Trazado 909605" d="M53.266,8.8a.629.629,0,0,1-.666-.666V6.666a.666.666,0,1,1,1.332,0V8.132A.629.629,0,0,1,53.266,8.8Z" transform="translate(-18.823 -2.003)" fill="#302d3d"/>
        <path id="Trazado_909606" data-name="Trazado 909606" d="M10.9,63.164a.644.644,0,0,1,0-.933L14.031,59.1a.644.644,0,0,1,.933,0l14.39,14.39a.644.644,0,0,1,0,.933l-3.131,3.131a.644.644,0,0,1-.933,0c-1.466-1.4,5.263,5.263-14.39-14.39Zm1.4-.466L25.756,76.155l2.132-2.2L14.5,60.5Z" transform="translate(-4.837 -19.66)" fill="#302d3d"/>
        <path id="Trazado_909607" data-name="Trazado 909607" d="M2.1,70.6a.644.644,0,0,1,0-.933L7.963,63.8a.644.644,0,0,1,.933,0l14.39,14.39a.644.644,0,0,1,0,.933l-5.863,5.863a.644.644,0,0,1-.933,0c-1.466-1.4,5.2,5.263-14.39-14.39Zm1.4-.466L16.956,83.586l4.93-4.93L8.429,65.2Z" transform="translate(-1.9 -21.229)" fill="#302d3d"/>
      </g>
    </g>
  </g>
</svg>
