<svg xmlns="http://www.w3.org/2000/svg" xmlns:xlink="http://www.w3.org/1999/xlink" width="102.949" height="102.949" viewBox="0 0 102.949 102.949">
  <defs>
    <filter id="Trazado_874925" x="0" y="0" width="102.949" height="102.949" filterUnits="userSpaceOnUse">
      <feOffset dy="3" input="SourceAlpha"/>
      <feGaussianBlur stdDeviation="3" result="blur"/>
      <feFlood flood-opacity="0.161"/>
      <feComposite operator="in" in2="blur"/>
      <feComposite in="SourceGraphic"/>
    </filter>
  </defs>
  <g id="Grupo_1115744" data-name="Grupo 1115744" transform="translate(-906.051 -5863)">
    <g id="Grupo_1115737" data-name="Grupo 1115737" transform="translate(0.051 -0.095)">
      <g transform="matrix(1, 0, 0, 1, 906, 5863.09)" filter="url(#Trazado_874925)">
        <g id="Trazado_874925-2" data-name="Trazado 874925" transform="translate(9 6)" fill="#fc0" opacity="0.998">
          <path d="M 42.47446823120117 83.44929504394531 C 36.94229125976562 83.44929504394531 31.57638549804688 82.36614227294922 26.52582168579102 80.22994232177734 C 21.64678573608398 78.16628265380859 17.26464462280273 75.211669921875 13.50113868713379 71.44816589355469 C 9.737632751464844 67.68466949462891 6.78300952911377 63.30253982543945 4.719362258911133 58.42351913452148 C 2.583150625228882 53.37295150756836 1.499997615814209 48.00706100463867 1.499997615814209 42.47489547729492 C 1.499997615814209 36.94223403930664 2.583150625228882 31.57634162902832 4.719362258911133 26.52577781677246 C 6.78300952911377 21.64675331115723 9.737632751464844 17.26462364196777 13.50113868713379 13.50113010406494 C 17.26464462280273 9.737624168395996 21.64678573608398 6.783012390136719 26.52582168579102 4.719353199005127 C 31.57638549804688 2.583153486251831 36.94229125976562 1.500000476837158 42.47446823120117 1.500000476837158 C 48.00664520263672 1.500000476837158 53.37255096435547 2.583153486251831 58.42311477661133 4.719353199005127 C 63.30215072631836 6.783012390136719 67.68428802490234 9.737624168395996 71.44779968261719 13.50113010406494 C 75.2113037109375 17.26462364196777 78.16592407226562 21.64675331115723 80.22957611083984 26.52577781677246 C 82.36578369140625 31.57634162902832 83.44893646240234 36.94223403930664 83.44893646240234 42.47439956665039 C 83.44893646240234 48.00706100463867 82.36578369140625 53.37295150756836 80.22957611083984 58.42351913452148 C 78.16592407226562 63.30253982543945 75.2113037109375 67.68466949462891 71.44779968261719 71.44816589355469 C 67.68428802490234 75.211669921875 63.30215072631836 78.16628265380859 58.42311477661133 80.22994232177734 C 53.37255096435547 82.36614227294922 48.00664520263672 83.44929504394531 42.47446823120117 83.44929504394531 Z" stroke="none"/>
          <path d="M 42.47446823120117 2.999992370605469 C 37.14412307739258 2.999992370605469 31.97481536865234 4.04327392578125 27.11014938354492 6.100860595703125 C 22.40990829467773 8.088890075683594 18.18804168701172 10.93555450439453 14.56179809570312 14.56178283691406 C 10.93557739257812 18.18801116943359 8.088897705078125 22.40987396240234 6.100868225097656 27.11009979248047 C 4.043281555175781 31.97476577758789 3 37.14406204223633 3 42.47488784790039 C 3 47.80522155761719 4.043281555175781 52.97451400756836 6.100868225097656 57.83917999267578 C 8.088897705078125 62.53940582275391 10.93557739257812 66.76127624511719 14.56179809570312 70.38749694824219 C 18.18804168701172 74.01372528076172 22.40990829467773 76.86039733886719 27.11014938354492 78.84841918945312 C 31.97481536865234 80.906005859375 37.14412307739258 81.94928741455078 42.47446823120117 81.94928741455078 C 47.80481338500977 81.94928741455078 52.97412109375 80.906005859375 57.83879089355469 78.84841918945312 C 62.53902816772461 76.86039733886719 66.76089477539062 74.01372528076172 70.38713073730469 70.38749694824219 C 74.01335906982422 66.76127624511719 76.86003875732422 62.53940582275391 78.84806823730469 57.83917999267578 C 80.90565490722656 52.97451400756836 81.94893646240234 47.80522155761719 81.94893646240234 42.47439575195312 C 81.94893646240234 37.14406204223633 80.90565490722656 31.97476577758789 78.84806823730469 27.11009979248047 C 76.86003875732422 22.40987396240234 74.01335906982422 18.18801116943359 70.38713073730469 14.56178283691406 C 66.76089477539062 10.93555450439453 62.53902816772461 8.088890075683594 57.83879089355469 6.100860595703125 C 52.97412109375 4.04327392578125 47.80481338500977 2.999992370605469 42.47446823120117 2.999992370605469 M 42.47446823120117 -7.62939453125e-06 C 65.93246459960938 -7.62939453125e-06 84.94893646240234 19.01643371582031 84.94893646240234 42.47439575195312 L 84.94893646240234 42.47488784790039 C 84.94893646240234 65.93284606933594 65.93246459960938 84.94928741455078 42.47446823120117 84.94928741455078 C 19.01647186279297 84.94928741455078 0 65.93284606933594 0 42.47488784790039 L 0 42.47439575195312 C 0 19.01643371582031 19.01647186279297 -7.62939453125e-06 42.47446823120117 -7.62939453125e-06 Z" stroke="none" fill="#fff"/>
        </g>
      </g>
      <g id="Trazado_874923" data-name="Trazado 874923" transform="translate(915 5869.095)" fill="none" opacity="0.998">
        <path d="M42.474,0A42.474,42.474,0,0,1,84.949,42.474h0A42.474,42.474,0,0,1,0,42.475H0A42.474,42.474,0,0,1,42.474,0Z" stroke="none"/>
        <path d="M 42.47446823120117 2.999992370605469 C 37.14412307739258 2.999992370605469 31.97481536865234 4.04327392578125 27.11014938354492 6.100860595703125 C 22.40990829467773 8.088890075683594 18.18804168701172 10.93555450439453 14.56179809570312 14.56178283691406 C 10.93557739257812 18.18801116943359 8.088897705078125 22.40987396240234 6.100868225097656 27.11009979248047 C 4.043281555175781 31.97476577758789 3 37.14406204223633 3 42.47488784790039 C 3 47.80522155761719 4.043281555175781 52.97451400756836 6.100868225097656 57.83917999267578 C 8.088897705078125 62.53940582275391 10.93557739257812 66.76127624511719 14.56179809570312 70.38749694824219 C 18.18804168701172 74.01372528076172 22.40990829467773 76.86039733886719 27.11014938354492 78.84841918945312 C 31.97481536865234 80.906005859375 37.14412307739258 81.94928741455078 42.47446823120117 81.94928741455078 C 47.80481338500977 81.94928741455078 52.97412109375 80.906005859375 57.83879089355469 78.84841918945312 C 62.53902816772461 76.86039733886719 66.76089477539062 74.01372528076172 70.38713073730469 70.38749694824219 C 74.01335906982422 66.76127624511719 76.86003875732422 62.53940582275391 78.84806823730469 57.83917999267578 C 80.90565490722656 52.97451400756836 81.94893646240234 47.80522155761719 81.94893646240234 42.47439575195312 C 81.94893646240234 37.14406204223633 80.90565490722656 31.97476577758789 78.84806823730469 27.11009979248047 C 76.86003875732422 22.40987396240234 74.01335906982422 18.18801116943359 70.38713073730469 14.56178283691406 C 66.76089477539062 10.93555450439453 62.53902816772461 8.088890075683594 57.83879089355469 6.100860595703125 C 52.97412109375 4.04327392578125 47.80481338500977 2.999992370605469 42.47446823120117 2.999992370605469 M 42.47446823120117 -7.62939453125e-06 C 65.93246459960938 -7.62939453125e-06 84.94893646240234 19.01643371582031 84.94893646240234 42.47439575195312 L 84.94893646240234 42.47488784790039 C 84.94893646240234 65.93284606933594 65.93246459960938 84.94928741455078 42.47446823120117 84.94928741455078 C 19.01647186279297 84.94928741455078 0 65.93284606933594 0 42.47488784790039 L 0 42.47439575195312 C 0 19.01643371582031 19.01647186279297 -7.62939453125e-06 42.47446823120117 -7.62939453125e-06 Z" stroke="none" fill="#fff"/>
      </g>
    </g>
    <g id="Grupo_1115743" data-name="Grupo 1115743" transform="translate(909.336 5883.11)">
      <g id="Grupo_1115741" data-name="Grupo 1115741" transform="translate(26.506 0.791)">
        <path id="Trazado_908538" data-name="Trazado 908538" d="M106.8,22.5a1.582,1.582,0,0,0-1.582,1.582V26.49h19.618V24.082A1.582,1.582,0,0,0,123.25,22.5Z" transform="translate(-97.621 -20.918)" fill="#dbd9dc"/>
        <path id="Trazado_908539" data-name="Trazado 908539" d="M250.965,24.082V26.49H247.8V24.082a1.583,1.583,0,0,0-1.582-1.582h3.164A1.583,1.583,0,0,1,250.965,24.082Z" transform="translate(-223.753 -20.918)" fill="#c9c6ca"/>
        <path id="Trazado_908540" data-name="Trazado 908540" d="M68.02,97.536a2.637,2.637,0,0,1-2.637,2.637H35.852a2.637,2.637,0,0,1-2.637-2.637v-42.4A2.637,2.637,0,0,1,35.852,52.5H65.384a2.637,2.637,0,0,1,2.637,2.637Z" transform="translate(-33.215 -47.754)" fill="#d19a6e"/>
        <path id="Trazado_908541" data-name="Trazado 908541" d="M314.02,55.137v42.4a2.637,2.637,0,0,1-2.637,2.637h-3.164a2.637,2.637,0,0,0,2.637-2.637v-42.4a2.637,2.637,0,0,0-2.637-2.637h3.164A2.637,2.637,0,0,1,314.02,55.137Z" transform="translate(-279.214 -47.754)" fill="#bc845e"/>
        <path id="Trazado_908542" data-name="Trazado 908542" d="M91.692,123.317a.527.527,0,0,1-.527.527H63.742a.527.527,0,0,1-.527-.527V83.027a.527.527,0,0,1,.527-.527H91.165a.527.527,0,0,1,.527.527Z" transform="translate(-60.051 -74.59)" fill="#fff"/>
        <path id="Trazado_908543" data-name="Trazado 908543" d="M171.91,16.992H167.27a1.055,1.055,0,0,1-1.055-1.055V8.555A1.055,1.055,0,0,1,167.27,7.5h4.641a1.055,1.055,0,0,1,1.055,1.055v7.383A1.055,1.055,0,0,1,171.91,16.992Z" transform="translate(-152.187 -7.5)" fill="#f4f4f4"/>
        <path id="Trazado_908544" data-name="Trazado 908544" d="M194.438,8.555v7.383a1.055,1.055,0,0,1-1.055,1.055h-3.164a1.055,1.055,0,0,0,1.055-1.055V8.555A1.055,1.055,0,0,0,190.219,7.5h3.164A1.055,1.055,0,0,1,194.438,8.555Z" transform="translate(-173.66 -7.5)" fill="#edebed"/>
        <path id="Trazado_908545" data-name="Trazado 908545" d="M109.745,372.664a1.582,1.582,0,1,1,1.582-1.582A1.582,1.582,0,0,1,109.745,372.664Z" transform="translate(-100.258 -331.32)" fill="#ffe07d"/>
        <path id="Trazado_908546" data-name="Trazado 908546" d="M109.745,297.664a1.582,1.582,0,1,1,1.582-1.582A1.582,1.582,0,0,1,109.745,297.664Z" transform="translate(-100.258 -264.23)" fill="#ffe07d"/>
        <path id="Trazado_908547" data-name="Trazado 908547" d="M91.7,444.5v2.637a.528.528,0,0,1-.527.527H63.746a.527.527,0,0,1-.527-.527V444.5Z" transform="translate(-60.054 -398.409)" fill="#f4f4f4"/>
        <path id="Trazado_908548" data-name="Trazado 908548" d="M433.246,158.275l1.9-1.9a1.011,1.011,0,0,1,1.454.037l1.119,1.119a1.011,1.011,0,0,1,.037,1.454l-1.9,1.9-2.61.145Z" transform="translate(-391.054 -140.412)" fill="#edebed"/>
        <path id="Trazado_908549" data-name="Trazado 908549" d="M266.589,172.743a1.538,1.538,0,0,1,2.2.037l2.61,2.61a1.538,1.538,0,0,1,.037,2.2l-17.191,17.19-3.579-.893-1.268-3.954Z" transform="translate(-226.598 -154.916)" fill="#7bb1ff"/>
        <path id="Trazado_908550" data-name="Trazado 908550" d="M293.572,184.844l-17.19,17.19-2.237-2.237,17.19-17.19a1.537,1.537,0,0,0-.037-2.2l2.237,2.237A1.537,1.537,0,0,1,293.572,184.844Z" transform="translate(-248.733 -162.17)" fill="#62a5f4"/>
        <path id="Trazado_908551" data-name="Trazado 908551" d="M0,0H3.059V6.856H0Z" transform="translate(28.164 29.648) rotate(-45)" fill="#bde4ff"/>
        <path id="Trazado_908552" data-name="Trazado 908552" d="M0,0H3.164V3.059H0Z" transform="translate(32.943 30.087) rotate(45)" fill="#99dbff"/>
        <path id="Trazado_908553" data-name="Trazado 908553" d="M234.644,344.355l-4.848-4.848-2.28,6.455a.527.527,0,0,0,.673.673Z" transform="translate(-206.996 -304.49)" fill="#edebed"/>
        <path id="Trazado_908554" data-name="Trazado 908554" d="M248.334,366.492l-3.307,1.168-2.237-2.237,3.307-1.168Z" transform="translate(-220.686 -326.628)" fill="#dbd9dc"/>
        <path id="Trazado_908555" data-name="Trazado 908555" d="M231.337,373.57l-3.148,1.112a.527.527,0,0,1-.673-.673l1.112-3.148Z" transform="translate(-206.995 -332.536)" fill="#6f6571"/>
        <path id="Trazado_908556" data-name="Trazado 908556" d="M231.334,377.572l-3.148,1.112a.528.528,0,0,1-.5-.084.523.523,0,0,1-.17-.589l.855-2.418.729-.258Z" transform="translate(-206.993 -336.539)" fill="#5d5360"/>
      </g>
      <g id="Grupo_1115742" data-name="Grupo 1115742" transform="translate(25.715 0)">
        <path id="Trazado_908557" data-name="Trazado 908557" d="M93.21,123.423c-.227-.08-.459-.164-.691-.252v-3.705a2.386,2.386,0,0,1,.956.46.791.791,0,0,0,1.067-1.168,4.06,4.06,0,0,0-2.023-.9V117.1a.791.791,0,1,0-1.582,0v.815c-.115.026-.232.055-.352.091a3.205,3.205,0,0,0-2.2,2.515,2.822,2.822,0,0,0,.924,2.781,7.586,7.586,0,0,0,1.623.93v4.7a3.23,3.23,0,0,1-1.708-.643.791.791,0,0,0-.866,1.324,4.725,4.725,0,0,0,2.574.9v.845a.791.791,0,0,0,1.582,0v-.908A3.854,3.854,0,0,0,95.54,127.3,3.384,3.384,0,0,0,93.21,123.423Zm-2.92-1.365a1.261,1.261,0,0,1-.346-1.243,1.659,1.659,0,0,1,.993-1.256v2.914A4.7,4.7,0,0,1,90.29,122.058Zm3.689,4.976a2.306,2.306,0,0,1-1.46,1.779v-3.956l.163.059A1.828,1.828,0,0,1,93.98,127.033Z" transform="translate(-81.435 -104.043)"/>
        <path id="Trazado_908558" data-name="Trazado 908558" d="M177.007,236.582h3.533a.791.791,0,1,0,0-1.582h-3.533a.791.791,0,1,0,0,1.582Z" transform="translate(-160.343 -210.214)"/>
        <path id="Trazado_908559" data-name="Trazado 908559" d="M177.007,206.582h5.643a.791.791,0,0,0,0-1.582h-5.643a.791.791,0,1,0,0,1.582Z" transform="translate(-160.343 -183.379)"/>
        <path id="Trazado_908560" data-name="Trazado 908560" d="M177.007,176.582h7.752a.791.791,0,1,0,0-1.582h-7.752a.791.791,0,0,0,0,1.582Z" transform="translate(-160.343 -156.543)"/>
        <path id="Trazado_908561" data-name="Trazado 908561" d="M177.007,146.582h11.971a.791.791,0,0,0,0-1.582H177.007a.791.791,0,1,0,0,1.582Z" transform="translate(-160.343 -129.707)"/>
        <path id="Trazado_908562" data-name="Trazado 908562" d="M73.732,17.35l-1.119-1.119a1.8,1.8,0,0,0-2.573-.037L68.6,17.629a2.351,2.351,0,0,0-.988-.247,2.28,2.28,0,0,0-1.678.676h0L62.1,21.894V8.174a3.432,3.432,0,0,0-3.428-3.428H54.508V3.955a2.376,2.376,0,0,0-2.373-2.373H48.054A1.847,1.847,0,0,0,46.229,0H41.588a1.847,1.847,0,0,0-1.825,1.582H35.682a2.376,2.376,0,0,0-2.373,2.373v.791H29.143a3.432,3.432,0,0,0-3.428,3.428V43.19a.791.791,0,0,0,1.582,0V8.174a1.848,1.848,0,0,1,1.846-1.846h10.6V7.91H30.2a1.32,1.32,0,0,0-1.318,1.318v40.29A1.32,1.32,0,0,0,30.2,50.837H57.62a1.32,1.32,0,0,0,1.318-1.318V36.991l1.582-1.582V50.573a1.848,1.848,0,0,1-1.846,1.846H29.143A1.848,1.848,0,0,1,27.3,50.573V46.882a.791.791,0,1,0-1.582,0v3.691A3.432,3.432,0,0,0,29.143,54H58.675A3.432,3.432,0,0,0,62.1,50.573V33.826l9.8-9.8a2.278,2.278,0,0,0,.676-1.678,2.351,2.351,0,0,0-.247-.988l1.435-1.435A1.8,1.8,0,0,0,73.732,17.35ZM52.927,3.955V5.537a.791.791,0,0,0,.791.791h4.957A1.848,1.848,0,0,1,60.52,8.174v15.3l-1.582,1.582V9.229A1.32,1.32,0,0,0,57.62,7.91H48.075V6.328h1.951a.791.791,0,1,0,0-1.582H48.075V3.164h4.061a.792.792,0,0,1,.791.791Zm6.6,30.212L55.8,30.438l1.044-1.044,3.729,3.729Zm-5.37,5.37-3.729-3.729,4.251-4.251,3.729,3.729Zm-5.688,1.024.934.934-1.445.51Zm2.588.35-2-2,.584-1.653,3.073,3.073ZM41.325,1.846a.264.264,0,0,1,.264-.264h4.641a.264.264,0,0,1,.264.264V9.229a.264.264,0,0,1-.264.264H41.588a.264.264,0,0,1-.264-.264Zm-6.434,2.9V3.955a.792.792,0,0,1,.791-.791h4.061V4.746Zm-4.43,44.509V47.673h26.9v1.582Zm26.9-3.164h-26.9V9.492h9.3a1.847,1.847,0,0,0,1.825,1.582h4.641a1.847,1.847,0,0,0,1.825-1.582h9.3V26.579c0,.02,0,.039,0,.058l-8.612,8.612a.8.8,0,0,0-.187.3L46.281,42a1.308,1.308,0,0,0,.311,1.371,1.322,1.322,0,0,0,1.371.311l6.455-2.28a.8.8,0,0,0,.3-.186l2.642-2.642v7.518ZM70.786,22.906l-9.1,9.1-3.729-3.729,9.1-9.1a.748.748,0,0,1,1.081.037l2.61,2.61a.748.748,0,0,1,.037,1.081Zm1.865-4.1-1.342,1.342-1.492-1.492,1.342-1.342a.224.224,0,0,1,.336.037l1.119,1.119c.019.019.182.191.037.336Z" transform="translate(-25.715 0)"/>
        <path id="Trazado_908563" data-name="Trazado 908563" d="M103.037,362a2.373,2.373,0,1,0,2.373,2.373A2.376,2.376,0,0,0,103.037,362Zm0,3.164a.791.791,0,1,1,.791-.791A.792.792,0,0,1,103.037,365.164Z" transform="translate(-92.759 -323.82)"/>
        <path id="Trazado_908564" data-name="Trazado 908564" d="M164.566,392h-3.111a.791.791,0,1,0,0,1.582h3.111a.791.791,0,1,0,0-1.582Z" transform="translate(-146.431 -350.656)"/>
        <path id="Trazado_908565" data-name="Trazado 908565" d="M164.566,362h-3.111a.791.791,0,1,0,0,1.582h3.111a.791.791,0,1,0,0-1.582Z" transform="translate(-146.431 -323.82)"/>
        <path id="Trazado_908566" data-name="Trazado 908566" d="M103.037,287a2.373,2.373,0,1,0,2.373,2.373A2.376,2.376,0,0,0,103.037,287Zm0,3.164a.791.791,0,1,1,.791-.791A.792.792,0,0,1,103.037,290.164Z" transform="translate(-92.759 -256.73)"/>
        <path id="Trazado_908567" data-name="Trazado 908567" d="M164.566,317h-3.111a.791.791,0,1,0,0,1.582h3.111a.791.791,0,1,0,0-1.582Z" transform="translate(-146.431 -283.566)"/>
        <path id="Trazado_908568" data-name="Trazado 908568" d="M161.455,288.582h7.33a.791.791,0,0,0,0-1.582h-7.33a.791.791,0,0,0,0,1.582Z" transform="translate(-146.431 -256.73)"/>
      </g>
    </g>
  </g>
</svg>
