<svg xmlns="http://www.w3.org/2000/svg" xmlns:xlink="http://www.w3.org/1999/xlink" width="67.3" height="67.301" viewBox="0 0 67.3 67.301">
  <defs>
    <filter id="Trazado_874925" x="0" y="0" width="67.3" height="67.301" filterUnits="userSpaceOnUse">
      <feOffset dy="3" input="SourceAlpha"/>
      <feGaussianBlur stdDeviation="3" result="blur"/>
      <feFlood flood-opacity="0.161"/>
      <feComposite operator="in" in2="blur"/>
      <feComposite in="SourceGraphic"/>
    </filter>
  </defs>
  <g id="Grupo_1117816" data-name="Grupo 1117816" transform="translate(-624.051 -8635)">
    <g id="Grupo_1112568" data-name="Grupo 1112568" transform="translate(-436.931 -87.924)">
      <g transform="matrix(1, 0, 0, 1, 1060.98, 8722.92)" filter="url(#Trazado_874925)">
        <g id="Trazado_874925-2" data-name="Trazado 874925" transform="translate(9 6)" fill="#fc0">
          <path d="M 24.6501636505127 47.80049896240234 C 21.52425384521484 47.80049896240234 18.49263381958008 47.18861770629883 15.63953399658203 45.98186874389648 C 12.88301372528076 44.81595611572266 10.40708351135254 43.14653778076172 8.280523300170898 41.01998901367188 C 6.153973579406738 38.89343643188477 4.484553813934326 36.41751861572266 3.318643569946289 33.6609992980957 C 2.111883640289307 30.80789756774902 1.500003695487976 27.77629852294922 1.500003695487976 24.65038681030273 C 1.500003695487976 21.52419662475586 2.111883640289307 18.49259757995605 3.318643569946289 15.63949775695801 C 4.484553813934326 12.88297748565674 6.153973579406738 10.407057762146 8.280523300170898 8.280508041381836 C 10.40708351135254 6.153957366943359 12.88301372528076 4.484537601470947 15.63953399658203 3.318627595901489 C 18.49263381958008 2.111877679824829 21.52425384521484 1.499997615814209 24.6501636505127 1.499997615814209 C 27.77608299255371 1.499997615814209 30.80769348144531 2.111877679824829 33.66079330444336 3.318627595901489 C 36.41732406616211 4.484537601470947 38.89325332641602 6.153957366943359 41.01980209350586 8.280508041381836 C 43.14635467529297 10.407057762146 44.81577301025391 12.88297748565674 45.98168182373047 15.63949775695801 C 47.18844223022461 18.49259757995605 47.80032348632812 21.52419662475586 47.80032348632812 24.65010833740234 C 47.80032348632812 27.77629852294922 47.18844223022461 30.80789756774902 45.98168182373047 33.6609992980957 C 44.81577301025391 36.41751861572266 43.14635467529297 38.89343643188477 41.01980209350586 41.01998901367188 C 38.89325332641602 43.14653778076172 36.41732406616211 44.81595611572266 33.66079330444336 45.98186874389648 C 30.80769348144531 47.18861770629883 27.77608299255371 47.80049896240234 24.6501636505127 47.80049896240234 Z" stroke="none"/>
          <path d="M 24.6501636505127 2.999996185302734 C 21.72608375549316 2.999996185302734 18.89107322692871 3.572006225585938 16.2238655090332 4.700138092041016 C 13.64613342285156 5.790428161621094 11.33046340942383 7.351898193359375 9.341182708740234 9.341167449951172 C 7.351902008056641 11.33044815063477 5.790431976318359 13.6461067199707 4.700141906738281 16.22382736206055 C 3.572013854980469 18.89102745056152 3.000003814697266 21.72603797912598 3.000003814697266 24.65038681030273 C 3.000003814697266 27.57444763183594 3.572013854980469 30.40945816040039 4.700141906738281 33.07666015625 C 5.790431976318359 35.65437698364258 7.351902008056641 37.97004699707031 9.341182708740234 39.95931625366211 C 11.33046340942383 41.9485969543457 13.64613342285156 43.51006698608398 16.2238655090332 44.60035705566406 C 18.89107322692871 45.72848892211914 21.72608375549316 46.30049896240234 24.6501636505127 46.30049896240234 C 27.57424354553223 46.30049896240234 30.40926361083984 45.72848892211914 33.07647323608398 44.60035705566406 C 35.65419387817383 43.51006698608398 37.96986389160156 41.9485969543457 39.95914459228516 39.95931625366211 C 41.94842529296875 37.97004699707031 43.50989532470703 35.65438842773438 44.60018157958984 33.07666015625 C 45.72831344604492 30.40945816040039 46.30032348632812 27.5744571685791 46.30032348632812 24.65010833740234 C 46.30032348632812 21.72603797912598 45.72831344604492 18.89102745056152 44.60018157958984 16.22382736206055 C 43.50989532470703 13.6461067199707 41.94842529296875 11.33044815063477 39.95914459228516 9.341167449951172 C 37.96986389160156 7.351886749267578 35.65419387817383 5.790428161621094 33.07647323608398 4.700138092041016 C 30.40926361083984 3.572006225585938 27.57424354553223 2.999996185302734 24.6501636505127 2.999996185302734 M 24.6501636505127 -3.814697265625e-06 C 38.26408386230469 -3.814697265625e-06 49.30032348632812 11.03622817993164 49.30032348632812 24.65010833740234 L 49.30032348632812 24.65038681030273 C 49.30032348632812 38.26425933837891 38.26408386230469 49.30049896240234 24.6501636505127 49.30049896240234 C 11.0362548828125 49.30049896240234 3.814697265625e-06 38.26425933837891 3.814697265625e-06 24.65038681030273 L 3.814697265625e-06 24.65010833740234 C 3.814697265625e-06 11.03622817993164 11.0362548828125 -3.814697265625e-06 24.6501636505127 -3.814697265625e-06 Z" stroke="none" fill="#fff"/>
        </g>
      </g>
      <g id="Trazado_874923" data-name="Trazado 874923" transform="translate(1069.982 8728.924)" fill="none">
        <path d="M24.65,0A24.65,24.65,0,0,1,49.3,24.65h0a24.65,24.65,0,0,1-49.3,0H0A24.65,24.65,0,0,1,24.65,0Z" stroke="none"/>
        <path d="M 24.6501636505127 2.999996185302734 C 21.72608375549316 2.999996185302734 18.89107322692871 3.572006225585938 16.2238655090332 4.700138092041016 C 13.64613342285156 5.790428161621094 11.33046340942383 7.351898193359375 9.341182708740234 9.341167449951172 C 7.351902008056641 11.33044815063477 5.790431976318359 13.6461067199707 4.700141906738281 16.22382736206055 C 3.572013854980469 18.89102745056152 3.000003814697266 21.72603797912598 3.000003814697266 24.65038681030273 C 3.000003814697266 27.57444763183594 3.572013854980469 30.40945816040039 4.700141906738281 33.07666015625 C 5.790431976318359 35.65437698364258 7.351902008056641 37.97004699707031 9.341182708740234 39.95931625366211 C 11.33046340942383 41.9485969543457 13.64613342285156 43.51006698608398 16.2238655090332 44.60035705566406 C 18.89107322692871 45.72848892211914 21.72608375549316 46.30049896240234 24.6501636505127 46.30049896240234 C 27.57424354553223 46.30049896240234 30.40926361083984 45.72848892211914 33.07647323608398 44.60035705566406 C 35.65419387817383 43.51006698608398 37.96986389160156 41.9485969543457 39.95914459228516 39.95931625366211 C 41.94842529296875 37.97004699707031 43.50989532470703 35.65438842773438 44.60018157958984 33.07666015625 C 45.72831344604492 30.40945816040039 46.30032348632812 27.5744571685791 46.30032348632812 24.65010833740234 C 46.30032348632812 21.72603797912598 45.72831344604492 18.89102745056152 44.60018157958984 16.22382736206055 C 43.50989532470703 13.6461067199707 41.94842529296875 11.33044815063477 39.95914459228516 9.341167449951172 C 37.96986389160156 7.351886749267578 35.65419387817383 5.790428161621094 33.07647323608398 4.700138092041016 C 30.40926361083984 3.572006225585938 27.57424354553223 2.999996185302734 24.6501636505127 2.999996185302734 M 24.6501636505127 -3.814697265625e-06 C 38.26408386230469 -3.814697265625e-06 49.30032348632812 11.03622817993164 49.30032348632812 24.65010833740234 L 49.30032348632812 24.65038681030273 C 49.30032348632812 38.26425933837891 38.26408386230469 49.30049896240234 24.6501636505127 49.30049896240234 C 11.0362548828125 49.30049896240234 3.814697265625e-06 38.26425933837891 3.814697265625e-06 24.65038681030273 L 3.814697265625e-06 24.65010833740234 C 3.814697265625e-06 11.03622817993164 11.0362548828125 -3.814697265625e-06 24.6501636505127 -3.814697265625e-06 Z" stroke="none" fill="#fff"/>
      </g>
    </g>
    <g id="Grupo_1117813" data-name="Grupo 1117813" transform="translate(644.051 8652)">
      <path id="Trazado_909179" data-name="Trazado 909179" d="M13.782,0A13.782,13.782,0,1,0,27.565,13.782,13.8,13.8,0,0,0,13.782,0Zm0,25.059A11.277,11.277,0,1,1,25.059,13.782,11.289,11.289,0,0,1,13.782,25.059Z"/>
      <path id="Trazado_909180" data-name="Trazado 909180" d="M90,102.638l-7.088,7.088-3.248-3.249a1.253,1.253,0,1,0-1.772,1.772l4.134,4.135a1.253,1.253,0,0,0,.886.367h0a1.253,1.253,0,0,0,.886-.367l7.974-7.974A1.253,1.253,0,0,0,90,102.638Z" transform="translate(-71.046 -93.728)"/>
    </g>
  </g>
</svg>
