<svg xmlns="http://www.w3.org/2000/svg" xmlns:xlink="http://www.w3.org/1999/xlink" width="118" height="118" viewBox="0 0 118 118">
  <defs>
    <filter id="Trazado_874925" x="0" y="0" width="118" height="118" filterUnits="userSpaceOnUse">
      <feOffset dy="3" input="SourceAlpha"/>
      <feGaussianBlur stdDeviation="3" result="blur"/>
      <feFlood flood-opacity="0.161"/>
      <feComposite operator="in" in2="blur"/>
      <feComposite in="SourceGraphic"/>
    </filter>
  </defs>
  <g id="Grupo_1116236" data-name="Grupo 1116236" transform="translate(-4790 4379)">
    <g id="Grupo_1112561" data-name="Grupo 1112561" transform="translate(3681.866 -6312.999)">
      <g id="Grupo_1111553" data-name="Grupo 1111553" transform="translate(308.634 -577.158)">
        <g id="Grupo_1111316" data-name="Grupo 1111316" transform="translate(808.5 2517.157)">
          <g id="Grupo_1109835" data-name="Grupo 1109835" transform="translate(0 0)">
            <g id="Grupo_1107913" data-name="Grupo 1107913" transform="translate(0 0)">
              <g transform="matrix(1, 0, 0, 1, -9, -6)" filter="url(#Trazado_874925)">
                <g id="Trazado_874925-2" data-name="Trazado 874925" transform="translate(9 6)" fill="#9cc8ff" opacity="0.859">
                  <path d="M 49.99972534179688 98.4998779296875 C 43.45164108276367 98.4998779296875 37.10022354125977 97.21776580810547 31.12189674377441 94.68914794921875 C 25.34676742553711 92.24647521972656 20.15985298156738 88.74925994873047 15.70523929595947 84.29464721679688 C 11.25062561035156 79.84004974365234 7.753411293029785 74.65313720703125 5.310725212097168 68.87800598144531 C 2.782111167907715 62.89969253540039 1.499996781349182 56.54829406738281 1.499996781349182 50.00022125244141 C 1.499996781349182 43.45157623291016 2.782111167907715 37.10017776489258 5.310725212097168 31.12186431884766 C 7.753411293029785 25.34673500061035 11.25062561035156 20.15983581542969 15.70523929595947 15.70522117614746 C 20.15985298156738 11.25062084197998 25.34676742553711 7.753406524658203 31.12189674377441 5.31073522567749 C 37.10022354125977 2.782120943069458 43.45164108276367 1.500006556510925 49.99972534179688 1.500006556510925 C 56.54780960083008 1.500006556510925 62.89922714233398 2.782120943069458 68.87755584716797 5.31073522567749 C 74.65267944335938 7.753406524658203 79.839599609375 11.25062084197998 84.29421234130859 15.70522117614746 C 88.74882507324219 20.15983581542969 92.24604034423828 25.34673500061035 94.68872833251953 31.12186431884766 C 97.21733856201172 37.10017776489258 98.49945068359375 43.45157623291016 98.49945068359375 49.99964904785156 C 98.49945068359375 56.54829406738281 97.21733856201172 62.89969253540039 94.68872833251953 68.87800598144531 C 92.24604034423828 74.65313720703125 88.74882507324219 79.84004974365234 84.29421234130859 84.29464721679688 C 79.839599609375 88.74925994873047 74.65267944335938 92.24647521972656 68.87755584716797 94.68914794921875 C 62.89922714233398 97.21776580810547 56.54780960083008 98.4998779296875 49.99972534179688 98.4998779296875 Z" stroke="none"/>
                  <path d="M 49.99972534179688 3 C 43.65348052978516 3 37.49866485595703 4.242240905761719 31.70623016357422 6.692230224609375 C 26.10989379882812 9.059272766113281 21.08323669433594 12.44853210449219 16.76589202880859 16.76587677001953 C 12.44855499267578 21.08321380615234 9.059295654296875 26.10985565185547 6.692230224609375 31.70618438720703 C 4.24224853515625 37.49859619140625 3 43.65341186523438 3 50.00022888183594 C 3 56.34645843505859 4.24224853515625 62.50127410888672 6.692230224609375 68.29368591308594 C 9.059295654296875 73.8900146484375 12.44855499267578 78.91665649414062 16.76589202880859 83.23399353027344 C 21.08323669433594 87.55132293701172 26.10989379882812 90.94059753417969 31.70623016357422 93.30764007568359 C 37.49866485595703 95.75762939453125 43.65348052978516 96.99987030029297 49.99972534179688 96.99987030029297 C 56.34597015380859 96.99987030029297 62.50078582763672 95.75762939453125 68.293212890625 93.30764007568359 C 73.88955688476562 90.94059753417969 78.91621398925781 87.55132293701172 83.23355865478516 83.23399353027344 C 87.55089569091797 78.91665649414062 90.94015502929688 73.8900146484375 93.30722045898438 68.29368591308594 C 95.7572021484375 62.50127410888672 96.99945068359375 56.34645843505859 96.99945068359375 49.99964141845703 C 96.99945068359375 43.65341186523438 95.7572021484375 37.49859619140625 93.30722045898438 31.70618438720703 C 90.94015502929688 26.10985565185547 87.55089569091797 21.08321380615234 83.23355865478516 16.76587677001953 C 78.91621398925781 12.44853210449219 73.88955688476562 9.059272766113281 68.293212890625 6.692230224609375 C 62.50078582763672 4.242240905761719 56.34597015380859 3 49.99972534179688 3 M 49.99972534179688 0 C 77.61381530761719 0 99.99945068359375 22.38559722900391 99.99945068359375 49.99964141845703 L 99.99945068359375 50.00022888183594 C 99.99945068359375 77.6142578125 77.61381530761719 99.99987030029297 49.99972534179688 99.99987030029297 C 22.38563537597656 99.99987030029297 0 77.6142578125 0 50.00022888183594 L 0 49.99964141845703 C 0 22.38559722900391 22.38563537597656 0 49.99972534179688 0 Z" stroke="none" fill="#fff"/>
                </g>
              </g>
              <g id="Trazado_874923" data-name="Trazado 874923" transform="translate(0 0)" fill="none">
                <path d="M50,0a50,50,0,0,1,50,50h0A50,50,0,0,1,0,50H0A50,50,0,0,1,50,0Z" stroke="none"/>
                <path d="M 49.99972534179688 3 C 43.65348052978516 3 37.49866485595703 4.242240905761719 31.70623016357422 6.692230224609375 C 26.10989379882812 9.059272766113281 21.08323669433594 12.44853210449219 16.76589202880859 16.76587677001953 C 12.44855499267578 21.08321380615234 9.059295654296875 26.10985565185547 6.692230224609375 31.70618438720703 C 4.24224853515625 37.49859619140625 3 43.65341186523438 3 50.00022888183594 C 3 56.34645843505859 4.24224853515625 62.50127410888672 6.692230224609375 68.29368591308594 C 9.059295654296875 73.8900146484375 12.44855499267578 78.91665649414062 16.76589202880859 83.23399353027344 C 21.08323669433594 87.55132293701172 26.10989379882812 90.94059753417969 31.70623016357422 93.30764007568359 C 37.49866485595703 95.75762939453125 43.65348052978516 96.99987030029297 49.99972534179688 96.99987030029297 C 56.34597015380859 96.99987030029297 62.50078582763672 95.75762939453125 68.293212890625 93.30764007568359 C 73.88955688476562 90.94059753417969 78.91621398925781 87.55132293701172 83.23355865478516 83.23399353027344 C 87.55089569091797 78.91665649414062 90.94015502929688 73.8900146484375 93.30722045898438 68.29368591308594 C 95.7572021484375 62.50127410888672 96.99945068359375 56.34645843505859 96.99945068359375 49.99964141845703 C 96.99945068359375 43.65341186523438 95.7572021484375 37.49859619140625 93.30722045898438 31.70618438720703 C 90.94015502929688 26.10985565185547 87.55089569091797 21.08321380615234 83.23355865478516 16.76587677001953 C 78.91621398925781 12.44853210449219 73.88955688476562 9.059272766113281 68.293212890625 6.692230224609375 C 62.50078582763672 4.242240905761719 56.34597015380859 3 49.99972534179688 3 M 49.99972534179688 0 C 77.61381530761719 0 99.99945068359375 22.38559722900391 99.99945068359375 49.99964141845703 L 99.99945068359375 50.00022888183594 C 99.99945068359375 77.6142578125 77.61381530761719 99.99987030029297 49.99972534179688 99.99987030029297 C 22.38563537597656 99.99987030029297 0 77.6142578125 0 50.00022888183594 L 0 49.99964141845703 C 0 22.38559722900391 22.38563537597656 0 49.99972534179688 0 Z" stroke="none" fill="#fff"/>
              </g>
            </g>
          </g>
        </g>
      </g>
    </g>
    <g id="Grupo_1116235" data-name="Grupo 1116235" transform="translate(4819.273 -4352)">
      <g id="Grupo_1116231" data-name="Grupo 1116231" transform="translate(1.67 1.144)">
        <path id="Trazado_908904" data-name="Trazado 908904" d="M52.127,30.8a20.708,20.708,0,0,1-1.805,8.487l-5.054-.34-5.915,5.915.336,4.99A20.8,20.8,0,1,1,52.127,30.8Z" transform="translate(-10.526 -10)" fill="#ff933d"/>
      </g>
      <g id="Grupo_1116232" data-name="Grupo 1116232" transform="translate(6.852 6.326)">
        <circle id="Elipse_11761" data-name="Elipse 11761" cx="15.618" cy="15.618" r="15.618" fill="#ffbe8c"/>
      </g>
      <g id="Grupo_1116233" data-name="Grupo 1116233" transform="translate(30.498 30.092)">
        <path id="Trazado_908905" data-name="Trazado 908905" d="M268.516,263.128l-2.957,2.957-2.957,2.957.611,9.059,11.253,11.253a3.631,3.631,0,0,0,5.134,0l4.614-4.614,4.614-4.614a3.631,3.631,0,0,0,0-5.134l-11.253-11.253Z" transform="translate(-262.602 -263.128)" fill="#f9f5f3"/>
      </g>
      <g id="Grupo_1116234" data-name="Grupo 1116234" transform="translate(0.526 0)">
        <path id="Trazado_908906" data-name="Trazado 908906" d="M143.473,94.937h-1.047V93.323a1.144,1.144,0,0,0-2.287,0v1.614h-1.047a4.417,4.417,0,0,0-4.412,4.412v1.081a4.417,4.417,0,0,0,4.412,4.412h4.38a2.127,2.127,0,0,1,2.125,2.125v.848a2.127,2.127,0,0,1-2.125,2.125h-4.381a2.127,2.127,0,0,1-2.125-2.125,1.144,1.144,0,1,0-2.287,0,4.417,4.417,0,0,0,4.412,4.412h1.047v1.614a1.144,1.144,0,0,0,2.287,0v-1.614h1.047a4.417,4.417,0,0,0,4.412-4.412v-.848a4.417,4.417,0,0,0-4.412-4.412h-4.38a2.127,2.127,0,0,1-2.125-2.125V99.349a2.127,2.127,0,0,1,2.125-2.125h4.38a2.127,2.127,0,0,1,2.125,2.125v.1a1.144,1.144,0,0,0,2.287,0v-.1A4.417,4.417,0,0,0,143.473,94.937Z" transform="translate(-119.339 -81.637)"/>
        <path id="Trazado_908907" data-name="Trazado 908907" d="M62.46,41.147,51.207,29.894a1.144,1.144,0,0,0-.732-.332L48.043,29.4A21.949,21.949,0,1,0,6.127,16.533a1.144,1.144,0,0,0,2.217.562,19.661,19.661,0,1,1,37.314,12.14l-3.072-.207a16.765,16.765,0,1,0-8.228,8.162l.207,3.064A19.679,19.679,0,0,1,8.342,26.787a1.144,1.144,0,1,0-2.217.562,21.967,21.967,0,0,0,28.6,15.286l.169,2.507a1.144,1.144,0,0,0,.332.732L46.48,57.127a4.78,4.78,0,0,0,6.752,0L62.46,47.9a4.78,4.78,0,0,0,0-6.752Zm-49.536-19.2a14.475,14.475,0,1,1,25.584,9.268l-1.2-1.2a1.144,1.144,0,1,0-1.617,1.617l1.214,1.214a14.467,14.467,0,0,1-23.984-10.9ZM60.842,46.281l-9.228,9.228a2.489,2.489,0,0,1-3.517,0L37.148,44.56,36.6,36.447l1.953-1.953.781.781a1.144,1.144,0,1,0,1.617-1.617l-.781-.781,1.609-1.609,8.112.547L60.842,42.764A2.49,2.49,0,0,1,60.842,46.281Z" transform="translate(-5.454 0)"/>
        <path id="Trazado_908908" data-name="Trazado 908908" d="M314.166,313.129a4.487,4.487,0,1,0-6.345-6.345l-.611.611a4.487,4.487,0,0,0,6.345,6.345Zm-1.617-1.617-.611.611a2.2,2.2,0,0,1-3.111-3.111l.611-.611a2.2,2.2,0,0,1,3.111,3.111Z" transform="translate(-270.975 -270.551)"/>
        <path id="Trazado_908909" data-name="Trazado 908909" d="M401.056,367.365a1.143,1.143,0,1,0,.619-1.494A1.154,1.154,0,0,0,401.056,367.365Z" transform="translate(-355.176 -323.954)"/>
        <path id="Trazado_908910" data-name="Trazado 908910" d="M401.659,429.174a1.143,1.143,0,1,0-.443,1.4A1.155,1.155,0,0,0,401.659,429.174Z" transform="translate(-353.836 -379.468)"/>
        <path id="Trazado_908911" data-name="Trazado 908911" d="M376.3,396.826h-7.341a1.144,1.144,0,0,0,0,2.287H376.3a1.144,1.144,0,0,0,0-2.287Z" transform="translate(-325.816 -351.444)"/>
        <path id="Trazado_908912" data-name="Trazado 908912" d="M1.447,184.259a1.153,1.153,0,0,0,1.145-1.8,1.143,1.143,0,1,0-1.145,1.8Z" transform="translate(-0.526 -161.192)"/>
      </g>
    </g>
  </g>
</svg>
