<svg xmlns="http://www.w3.org/2000/svg" xmlns:xlink="http://www.w3.org/1999/xlink" width="102.949" height="102.949" viewBox="0 0 102.949 102.949">
  <defs>
    <filter id="Trazado_874925" x="0" y="0" width="102.949" height="102.949" filterUnits="userSpaceOnUse">
      <feOffset dy="3" input="SourceAlpha"/>
      <feGaussianBlur stdDeviation="3" result="blur"/>
      <feFlood flood-opacity="0.161"/>
      <feComposite operator="in" in2="blur"/>
      <feComposite in="SourceGraphic"/>
    </filter>
  </defs>
  <g id="Grupo_1112445" data-name="Grupo 1112445" transform="translate(-799.5 -2511.157)">
    <g id="Grupo_1111316" data-name="Grupo 1111316" transform="translate(808.5 2517.157)">
      <g id="Grupo_1109835" data-name="Grupo 1109835" transform="translate(0 0)">
        <g id="Grupo_1107913" data-name="Grupo 1107913" transform="translate(0 0)">
          <g transform="matrix(1, 0, 0, 1, -9, -6)" filter="url(#Trazado_874925)">
            <g id="Trazado_874925-2" data-name="Trazado 874925" transform="translate(9 6)" fill="#fc0" opacity="0.859">
              <path d="M 42.47446823120117 83.44929504394531 C 36.94229125976562 83.44929504394531 31.57638549804688 82.36614227294922 26.52582168579102 80.22994232177734 C 21.64678573608398 78.16628265380859 17.26464462280273 75.211669921875 13.50113868713379 71.44816589355469 C 9.737632751464844 67.68466949462891 6.78300952911377 63.30253982543945 4.719362258911133 58.42351913452148 C 2.583150625228882 53.37295150756836 1.499997615814209 48.00706100463867 1.499997615814209 42.47489547729492 C 1.499997615814209 36.94223403930664 2.583150625228882 31.57634162902832 4.719362258911133 26.52577781677246 C 6.78300952911377 21.64675331115723 9.737632751464844 17.26462364196777 13.50113868713379 13.50113010406494 C 17.26464462280273 9.737624168395996 21.64678573608398 6.783012390136719 26.52582168579102 4.719353199005127 C 31.57638549804688 2.583153486251831 36.94229125976562 1.500000476837158 42.47446823120117 1.500000476837158 C 48.00664520263672 1.500000476837158 53.37255096435547 2.583153486251831 58.42311477661133 4.719353199005127 C 63.30215072631836 6.783012390136719 67.68428802490234 9.737624168395996 71.44779968261719 13.50113010406494 C 75.2113037109375 17.26462364196777 78.16592407226562 21.64675331115723 80.22957611083984 26.52577781677246 C 82.36578369140625 31.57634162902832 83.44893646240234 36.94223403930664 83.44893646240234 42.47439956665039 C 83.44893646240234 48.00706100463867 82.36578369140625 53.37295150756836 80.22957611083984 58.42351913452148 C 78.16592407226562 63.30253982543945 75.2113037109375 67.68466949462891 71.44779968261719 71.44816589355469 C 67.68428802490234 75.211669921875 63.30215072631836 78.16628265380859 58.42311477661133 80.22994232177734 C 53.37255096435547 82.36614227294922 48.00664520263672 83.44929504394531 42.47446823120117 83.44929504394531 Z" stroke="none"/>
              <path d="M 42.47446823120117 2.999992370605469 C 37.14412307739258 2.999992370605469 31.97481536865234 4.04327392578125 27.11014938354492 6.100860595703125 C 22.40990829467773 8.088890075683594 18.18804168701172 10.93555450439453 14.56179809570312 14.56178283691406 C 10.93557739257812 18.18801116943359 8.088897705078125 22.40987396240234 6.100868225097656 27.11009979248047 C 4.043281555175781 31.97476577758789 3 37.14406204223633 3 42.47488784790039 C 3 47.80522155761719 4.043281555175781 52.97451400756836 6.100868225097656 57.83917999267578 C 8.088897705078125 62.53940582275391 10.93557739257812 66.76127624511719 14.56179809570312 70.38749694824219 C 18.18804168701172 74.01372528076172 22.40990829467773 76.86039733886719 27.11014938354492 78.84841918945312 C 31.97481536865234 80.906005859375 37.14412307739258 81.94928741455078 42.47446823120117 81.94928741455078 C 47.80481338500977 81.94928741455078 52.97412109375 80.906005859375 57.83879089355469 78.84841918945312 C 62.53902816772461 76.86039733886719 66.76089477539062 74.01372528076172 70.38713073730469 70.38749694824219 C 74.01335906982422 66.76127624511719 76.86003875732422 62.53940582275391 78.84806823730469 57.83917999267578 C 80.90565490722656 52.97451400756836 81.94893646240234 47.80522155761719 81.94893646240234 42.47439575195312 C 81.94893646240234 37.14406204223633 80.90565490722656 31.97476577758789 78.84806823730469 27.11009979248047 C 76.86003875732422 22.40987396240234 74.01335906982422 18.18801116943359 70.38713073730469 14.56178283691406 C 66.76089477539062 10.93555450439453 62.53902816772461 8.088890075683594 57.83879089355469 6.100860595703125 C 52.97412109375 4.04327392578125 47.80481338500977 2.999992370605469 42.47446823120117 2.999992370605469 M 42.47446823120117 -7.62939453125e-06 C 65.93246459960938 -7.62939453125e-06 84.94893646240234 19.01643371582031 84.94893646240234 42.47439575195312 L 84.94893646240234 42.47488784790039 C 84.94893646240234 65.93284606933594 65.93246459960938 84.94928741455078 42.47446823120117 84.94928741455078 C 19.01647186279297 84.94928741455078 0 65.93284606933594 0 42.47488784790039 L 0 42.47439575195312 C 0 19.01643371582031 19.01647186279297 -7.62939453125e-06 42.47446823120117 -7.62939453125e-06 Z" stroke="none" fill="#fff"/>
            </g>
          </g>
          <g id="Trazado_874923" data-name="Trazado 874923" transform="translate(0 0)" fill="none">
            <path d="M42.474,0A42.474,42.474,0,0,1,84.949,42.474h0A42.474,42.474,0,0,1,0,42.475H0A42.474,42.474,0,0,1,42.474,0Z" stroke="none"/>
            <path d="M 42.47446823120117 2.999992370605469 C 37.14412307739258 2.999992370605469 31.97481536865234 4.04327392578125 27.11014938354492 6.100860595703125 C 22.40990829467773 8.088890075683594 18.18804168701172 10.93555450439453 14.56179809570312 14.56178283691406 C 10.93557739257812 18.18801116943359 8.088897705078125 22.40987396240234 6.100868225097656 27.11009979248047 C 4.043281555175781 31.97476577758789 3 37.14406204223633 3 42.47488784790039 C 3 47.80522155761719 4.043281555175781 52.97451400756836 6.100868225097656 57.83917999267578 C 8.088897705078125 62.53940582275391 10.93557739257812 66.76127624511719 14.56179809570312 70.38749694824219 C 18.18804168701172 74.01372528076172 22.40990829467773 76.86039733886719 27.11014938354492 78.84841918945312 C 31.97481536865234 80.906005859375 37.14412307739258 81.94928741455078 42.47446823120117 81.94928741455078 C 47.80481338500977 81.94928741455078 52.97412109375 80.906005859375 57.83879089355469 78.84841918945312 C 62.53902816772461 76.86039733886719 66.76089477539062 74.01372528076172 70.38713073730469 70.38749694824219 C 74.01335906982422 66.76127624511719 76.86003875732422 62.53940582275391 78.84806823730469 57.83917999267578 C 80.90565490722656 52.97451400756836 81.94893646240234 47.80522155761719 81.94893646240234 42.47439575195312 C 81.94893646240234 37.14406204223633 80.90565490722656 31.97476577758789 78.84806823730469 27.11009979248047 C 76.86003875732422 22.40987396240234 74.01335906982422 18.18801116943359 70.38713073730469 14.56178283691406 C 66.76089477539062 10.93555450439453 62.53902816772461 8.088890075683594 57.83879089355469 6.100860595703125 C 52.97412109375 4.04327392578125 47.80481338500977 2.999992370605469 42.47446823120117 2.999992370605469 M 42.47446823120117 -7.62939453125e-06 C 65.93246459960938 -7.62939453125e-06 84.94893646240234 19.01643371582031 84.94893646240234 42.47439575195312 L 84.94893646240234 42.47488784790039 C 84.94893646240234 65.93284606933594 65.93246459960938 84.94928741455078 42.47446823120117 84.94928741455078 C 19.01647186279297 84.94928741455078 0 65.93284606933594 0 42.47488784790039 L 0 42.47439575195312 C 0 19.01643371582031 19.01647186279297 -7.62939453125e-06 42.47446823120117 -7.62939453125e-06 Z" stroke="none" fill="#fff"/>
          </g>
        </g>
      </g>
    </g>
    <g id="Page-1" transform="translate(824.092 2532.749)">
      <g id="_039---Money-APR" data-name="039---Money-APR" transform="translate(-0.001 0)">
        <circle id="Oval" cx="14.5" cy="14.5" r="14.5" transform="translate(1 1)" fill="#ffdc00"/>
        <path id="Shape" d="M17.844,1c-.453,0-.9.027-1.344.068a14.332,14.332,0,0,1,0,28.539c.443.041.891.068,1.344.068A14.338,14.338,0,1,0,17.844,1Z" transform="translate(-2.61 -0.104)" fill="#fec108"/>
        <path id="Shape-2" data-name="Shape" d="M48.372,28h5.334a.9.9,0,0,1,.7,1.459L33.716,55.112a1.792,1.792,0,0,1-1.394.667H26.987a.9.9,0,0,1-.7-1.459L46.978,28.667A1.792,1.792,0,0,1,48.372,28Z" transform="translate(-3.607 -2.909)" fill="#ef314c"/>
        <path id="Shape-3" data-name="Shape" d="M54.118,28H51.429a.9.9,0,0,1,.7,1.459L31.438,55.111a1.792,1.792,0,0,1-1.394.668h2.688a1.792,1.792,0,0,0,1.394-.668L54.815,29.459a.9.9,0,0,0-.7-1.459Z" transform="translate(-4.017 -2.909)" fill="#bb193b"/>
        <circle id="Oval-2" data-name="Oval" cx="5.5" cy="5.5" r="5.5" transform="translate(42 42)" fill="#ef314c"/>
        <path id="Shape-4" data-name="Shape" d="M53.844,47a5.361,5.361,0,0,0-1.344.179,5.369,5.369,0,0,1,0,10.4A5.377,5.377,0,1,0,53.844,47Z" transform="translate(-6.351 -4.883)" fill="#bb193b"/>
        <ellipse id="Oval-3" data-name="Oval" cx="5" cy="5.5" rx="5" ry="5.5" transform="translate(21 25)" fill="#ef314c"/>
        <path id="Shape-5" data-name="Shape" d="M29.844,28a5.361,5.361,0,0,0-1.344.179,5.369,5.369,0,0,1,0,10.4A5.377,5.377,0,1,0,29.844,28Z" transform="translate(-3.857 -2.909)" fill="#bb193b"/>
        <g id="Grupo_1113793" data-name="Grupo 1113793">
          <path id="Shape-6" data-name="Shape" d="M55.219,28.019A1.777,1.777,0,0,0,53.6,27H48.268a2.678,2.678,0,0,0-2.092,1L25.488,53.654a1.792,1.792,0,0,0,1.4,2.917h5.334a2.678,2.678,0,0,0,2.092-1L55,29.917a1.777,1.777,0,0,0,.221-1.9Zm-22.3,26.426a.891.891,0,0,1-.7.334H26.883L47.571,29.126a.891.891,0,0,1,.7-.334H53.6Z" transform="translate(-3.503 -2.805)"/>
          <path id="Shape-7" data-name="Shape" d="M53.273,46a6.273,6.273,0,1,0,6.273,6.273A6.273,6.273,0,0,0,53.273,46Zm0,10.753a4.48,4.48,0,1,1,4.48-4.48A4.48,4.48,0,0,1,53.273,56.753Z" transform="translate(-5.779 -4.779)"/>
          <path id="Shape-8" data-name="Shape" d="M35.545,33.273a6.273,6.273,0,1,0-6.273,6.273A6.273,6.273,0,0,0,35.545,33.273Zm-10.753,0a4.48,4.48,0,1,1,4.48,4.48A4.48,4.48,0,0,1,24.792,33.273Z" transform="translate(-3.285 -2.805)"/>
          <path id="Shape-9" data-name="Shape" d="M17.984,28.565a14.848,14.848,0,0,1-1.75.11,13.437,13.437,0,1,1,11.98-7.343.9.9,0,1,0,1.6.814,15.234,15.234,0,1,0-13.576,8.321,16.7,16.7,0,0,0,1.961-.123.9.9,0,0,0-.211-1.78Z" transform="translate(-0.999 0)"/>
          <path id="Shape-10" data-name="Shape" d="M22.545,11.121a.9.9,0,1,0,1.792,0c0-2.737-2.742-5-6.273-5.33V4.432a.9.9,0,1,0-1.792,0V5.791C12.742,6.123,10,8.384,10,11.121s2.742,5,6.273,5.33v7.159c-2.5-.294-4.48-1.792-4.48-3.528a.9.9,0,0,0-1.792,0c0,2.737,2.742,5,6.273,5.33V27.25a.9.9,0,1,0,1.792,0V25.411c3.531-.332,6.273-2.593,6.273-5.33s-2.742-5-6.273-5.33V7.593C20.574,7.887,22.545,9.38,22.545,11.121Zm-10.753,0c0-1.74,1.976-3.234,4.48-3.528v7.056C13.768,14.355,11.792,12.861,11.792,11.121Zm10.753,8.961c0,1.74-1.971,3.234-4.48,3.528V16.554C20.574,16.847,22.545,18.341,22.545,20.081Z" transform="translate(-1.935 -0.367)"/>
        </g>
      </g>
    </g>
  </g>
</svg>
