<svg xmlns="http://www.w3.org/2000/svg" xmlns:xlink="http://www.w3.org/1999/xlink" width="102.949" height="102.949" viewBox="0 0 102.949 102.949">
  <defs>
    <filter id="Trazado_874925" x="0" y="0" width="102.949" height="102.949" filterUnits="userSpaceOnUse">
      <feOffset dy="3" input="SourceAlpha"/>
      <feGaussianBlur stdDeviation="3" result="blur"/>
      <feFlood flood-opacity="0.161"/>
      <feComposite operator="in" in2="blur"/>
      <feComposite in="SourceGraphic"/>
    </filter>
  </defs>
  <g id="Grupo_1117960" data-name="Grupo 1117960" transform="translate(-276.051 -6405)">
    <g id="Grupo_1111316" data-name="Grupo 1111316" transform="translate(285.051 6411)">
      <g id="Grupo_1109835" data-name="Grupo 1109835" transform="translate(0 0)">
        <g id="Grupo_1107913" data-name="Grupo 1107913" transform="translate(0 0)">
          <g transform="matrix(1, 0, 0, 1, -9, -6)" filter="url(#Trazado_874925)">
            <g id="Trazado_874925-2" data-name="Trazado 874925" transform="translate(9 6)" fill="#9cc8ff" opacity="0.859">
              <path d="M 42.47446823120117 83.44929504394531 C 36.94229125976562 83.44929504394531 31.57638549804688 82.36614227294922 26.52582168579102 80.22994232177734 C 21.64678573608398 78.16628265380859 17.26464462280273 75.211669921875 13.50113868713379 71.44816589355469 C 9.737632751464844 67.68466949462891 6.78300952911377 63.30253982543945 4.719362258911133 58.42351913452148 C 2.583150625228882 53.37295150756836 1.499997615814209 48.00706100463867 1.499997615814209 42.47489547729492 C 1.499997615814209 36.94223403930664 2.583150625228882 31.57634162902832 4.719362258911133 26.52577781677246 C 6.78300952911377 21.64675331115723 9.737632751464844 17.26462364196777 13.50113868713379 13.50113010406494 C 17.26464462280273 9.737624168395996 21.64678573608398 6.783012390136719 26.52582168579102 4.719353199005127 C 31.57638549804688 2.583153486251831 36.94229125976562 1.500000476837158 42.47446823120117 1.500000476837158 C 48.00664520263672 1.500000476837158 53.37255096435547 2.583153486251831 58.42311477661133 4.719353199005127 C 63.30215072631836 6.783012390136719 67.68428802490234 9.737624168395996 71.44779968261719 13.50113010406494 C 75.2113037109375 17.26462364196777 78.16592407226562 21.64675331115723 80.22957611083984 26.52577781677246 C 82.36578369140625 31.57634162902832 83.44893646240234 36.94223403930664 83.44893646240234 42.47439956665039 C 83.44893646240234 48.00706100463867 82.36578369140625 53.37295150756836 80.22957611083984 58.42351913452148 C 78.16592407226562 63.30253982543945 75.2113037109375 67.68466949462891 71.44779968261719 71.44816589355469 C 67.68428802490234 75.211669921875 63.30215072631836 78.16628265380859 58.42311477661133 80.22994232177734 C 53.37255096435547 82.36614227294922 48.00664520263672 83.44929504394531 42.47446823120117 83.44929504394531 Z" stroke="none"/>
              <path d="M 42.47446823120117 2.999992370605469 C 37.14412307739258 2.999992370605469 31.97481536865234 4.04327392578125 27.11014938354492 6.100860595703125 C 22.40990829467773 8.088890075683594 18.18804168701172 10.93555450439453 14.56179809570312 14.56178283691406 C 10.93557739257812 18.18801116943359 8.088897705078125 22.40987396240234 6.100868225097656 27.11009979248047 C 4.043281555175781 31.97476577758789 3 37.14406204223633 3 42.47488784790039 C 3 47.80522155761719 4.043281555175781 52.97451400756836 6.100868225097656 57.83917999267578 C 8.088897705078125 62.53940582275391 10.93557739257812 66.76127624511719 14.56179809570312 70.38749694824219 C 18.18804168701172 74.01372528076172 22.40990829467773 76.86039733886719 27.11014938354492 78.84841918945312 C 31.97481536865234 80.906005859375 37.14412307739258 81.94928741455078 42.47446823120117 81.94928741455078 C 47.80481338500977 81.94928741455078 52.97412109375 80.906005859375 57.83879089355469 78.84841918945312 C 62.53902816772461 76.86039733886719 66.76089477539062 74.01372528076172 70.38713073730469 70.38749694824219 C 74.01335906982422 66.76127624511719 76.86003875732422 62.53940582275391 78.84806823730469 57.83917999267578 C 80.90565490722656 52.97451400756836 81.94893646240234 47.80522155761719 81.94893646240234 42.47439575195312 C 81.94893646240234 37.14406204223633 80.90565490722656 31.97476577758789 78.84806823730469 27.11009979248047 C 76.86003875732422 22.40987396240234 74.01335906982422 18.18801116943359 70.38713073730469 14.56178283691406 C 66.76089477539062 10.93555450439453 62.53902816772461 8.088890075683594 57.83879089355469 6.100860595703125 C 52.97412109375 4.04327392578125 47.80481338500977 2.999992370605469 42.47446823120117 2.999992370605469 M 42.47446823120117 -7.62939453125e-06 C 65.93246459960938 -7.62939453125e-06 84.94893646240234 19.01643371582031 84.94893646240234 42.47439575195312 L 84.94893646240234 42.47488784790039 C 84.94893646240234 65.93284606933594 65.93246459960938 84.94928741455078 42.47446823120117 84.94928741455078 C 19.01647186279297 84.94928741455078 0 65.93284606933594 0 42.47488784790039 L 0 42.47439575195312 C 0 19.01643371582031 19.01647186279297 -7.62939453125e-06 42.47446823120117 -7.62939453125e-06 Z" stroke="none" fill="#fff"/>
            </g>
          </g>
          <g id="Trazado_874923" data-name="Trazado 874923" transform="translate(0 0)" fill="none">
            <path d="M42.474,0A42.474,42.474,0,0,1,84.949,42.474h0A42.474,42.474,0,0,1,0,42.475H0A42.474,42.474,0,0,1,42.474,0Z" stroke="none"/>
            <path d="M 42.47446823120117 2.999992370605469 C 37.14412307739258 2.999992370605469 31.97481536865234 4.04327392578125 27.11014938354492 6.100860595703125 C 22.40990829467773 8.088890075683594 18.18804168701172 10.93555450439453 14.56179809570312 14.56178283691406 C 10.93557739257812 18.18801116943359 8.088897705078125 22.40987396240234 6.100868225097656 27.11009979248047 C 4.043281555175781 31.97476577758789 3 37.14406204223633 3 42.47488784790039 C 3 47.80522155761719 4.043281555175781 52.97451400756836 6.100868225097656 57.83917999267578 C 8.088897705078125 62.53940582275391 10.93557739257812 66.76127624511719 14.56179809570312 70.38749694824219 C 18.18804168701172 74.01372528076172 22.40990829467773 76.86039733886719 27.11014938354492 78.84841918945312 C 31.97481536865234 80.906005859375 37.14412307739258 81.94928741455078 42.47446823120117 81.94928741455078 C 47.80481338500977 81.94928741455078 52.97412109375 80.906005859375 57.83879089355469 78.84841918945312 C 62.53902816772461 76.86039733886719 66.76089477539062 74.01372528076172 70.38713073730469 70.38749694824219 C 74.01335906982422 66.76127624511719 76.86003875732422 62.53940582275391 78.84806823730469 57.83917999267578 C 80.90565490722656 52.97451400756836 81.94893646240234 47.80522155761719 81.94893646240234 42.47439575195312 C 81.94893646240234 37.14406204223633 80.90565490722656 31.97476577758789 78.84806823730469 27.11009979248047 C 76.86003875732422 22.40987396240234 74.01335906982422 18.18801116943359 70.38713073730469 14.56178283691406 C 66.76089477539062 10.93555450439453 62.53902816772461 8.088890075683594 57.83879089355469 6.100860595703125 C 52.97412109375 4.04327392578125 47.80481338500977 2.999992370605469 42.47446823120117 2.999992370605469 M 42.47446823120117 -7.62939453125e-06 C 65.93246459960938 -7.62939453125e-06 84.94893646240234 19.01643371582031 84.94893646240234 42.47439575195312 L 84.94893646240234 42.47488784790039 C 84.94893646240234 65.93284606933594 65.93246459960938 84.94928741455078 42.47446823120117 84.94928741455078 C 19.01647186279297 84.94928741455078 0 65.93284606933594 0 42.47488784790039 L 0 42.47439575195312 C 0 19.01643371582031 19.01647186279297 -7.62939453125e-06 42.47446823120117 -7.62939453125e-06 Z" stroke="none" fill="#fff"/>
          </g>
        </g>
      </g>
    </g>
    <g id="Grupo_1117959" data-name="Grupo 1117959" transform="translate(290.831 6426)">
      <path id="Trazado_909447" data-name="Trazado 909447" d="M329,7.5H314.865a2.712,2.712,0,0,0-2.712,2.712V24.349a2.712,2.712,0,0,0,2.712,2.712H317.4a1.337,1.337,0,0,1,1.337,1.337v2.287a.5.5,0,0,0,.9.309l2.666-3.435a1.288,1.288,0,0,1,1.018-.5H329a2.712,2.712,0,0,0,2.712-2.712V10.212A2.712,2.712,0,0,0,329,7.5Z" transform="translate(-269.504 -6.694)" fill="#f7e365"/>
      <path id="Trazado_909448" data-name="Trazado 909448" d="M444.677,7.5h-2.93a2.712,2.712,0,0,1,2.712,2.712V24.349a2.712,2.712,0,0,1-2.712,2.712h2.93a2.712,2.712,0,0,0,2.712-2.712V10.212A2.712,2.712,0,0,0,444.677,7.5Z" transform="translate(-385.179 -6.694)" fill="#f3d332"/>
      <path id="Trazado_909449" data-name="Trazado 909449" d="M68.333,314.243H39.776l.393-5.394a7.113,7.113,0,0,1,6-6.511l2.261-.355a2.36,2.36,0,0,0,2-2.332v-8.3h8.485v8.3a2.361,2.361,0,0,0,2,2.332l2.263.355a7.112,7.112,0,0,1,5.995,6.511l.3,4.176A1.135,1.135,0,0,1,68.333,314.243Z" transform="translate(-26.382 -260.058)" fill="#faa68e"/>
      <path id="Trazado_909450" data-name="Trazado 909450" d="M48.472,307.144a.857.857,0,0,1,.83-.642h3.565a3.5,3.5,0,0,0,3.5-3.5v-1.47a.623.623,0,0,1,.623-.623h2.283a2.351,2.351,0,0,1-.361-1.251v-2.47H51.413a.5.5,0,0,1-.406-.779l1.5-2.146a1.824,1.824,0,0,0-.421-2.516l-.038-.028a1.884,1.884,0,0,0-1.627-.289v8.228a2.36,2.36,0,0,1-2,2.332l-2.262.355a7.1,7.1,0,0,0-3.922,1.99l-2.423,9.322-.043.593h6.848Z" transform="translate(-26.382 -260.069)" fill="#e09380"/>
      <path id="Trazado_909451" data-name="Trazado 909451" d="M68.333,401.41H39.776l.393-5.394a7.113,7.113,0,0,1,6-6.511l2.261-.355a2.429,2.429,0,0,0,.463-.121,7.9,7.9,0,0,0,11.49-.024,2.368,2.368,0,0,0,.526.145l2.263.355a7.112,7.112,0,0,1,5.995,6.511l.3,4.176a1.136,1.136,0,0,1-1.132,1.218Z" transform="translate(-26.382 -347.224)" fill="#acd980"/>
      <path id="Trazado_909452" data-name="Trazado 909452" d="M49.3,393.86h3.565a3.5,3.5,0,0,0,3.29-2.312,8.046,8.046,0,0,1-1.534.149,7.787,7.787,0,0,1-5.733-2.465c-1.367.507-4.207.034-6.647,2.465L39.82,401.02l-.043.593h6.848l1.848-7.11a.857.857,0,0,1,.83-.642Z" transform="translate(-26.382 -347.427)" fill="#8cc951"/>
      <path id="Trazado_909453" data-name="Trazado 909453" d="M234.293,400.192l-.3-4.176a7.1,7.1,0,0,0-1.861-4.3c-2.439-2.649-5.469-2.2-6.808-2.667l-.015-.006c-.033-.012-.066-.024-.1-.037a7.493,7.493,0,0,1-.769.726l.616.1a7.112,7.112,0,0,1,5.995,6.511l.3,4.176a1.131,1.131,0,0,1-.342.9h2.151A1.135,1.135,0,0,0,234.293,400.192Z" transform="translate(-191.208 -347.224)" fill="#8cc951"/>
      <path id="Trazado_909454" data-name="Trazado 909454" d="M43.253,40.894h-3.6a11.256,11.256,0,0,0-9.786,5.687A6.142,6.142,0,0,0,25.291,52.7L25.6,63.453H57.109v-8.7A13.855,13.855,0,0,0,43.253,40.894Z" transform="translate(-13.45 -36.502)" fill="#655e67"/>
      <g id="Grupo_1117957" data-name="Grupo 1117957" transform="translate(11.026 13.115)">
        <path id="Trazado_909455" data-name="Trazado 909455" d="M25.687,221.4h-5.55a2.413,2.413,0,0,1-2.413-2.413v-.756a2.413,2.413,0,0,1,2.413-2.413h5.55Z" transform="translate(-17.725 -205.755)" fill="#faa68e"/>
        <path id="Trazado_909456" data-name="Trazado 909456" d="M258.155,221.4h5.55a2.413,2.413,0,0,0,2.413-2.413v-.756a2.413,2.413,0,0,0-2.413-2.413h-5.55Z" transform="translate(-232.332 -205.755)" fill="#faa68e"/>
        <path id="Trazado_909457" data-name="Trazado 909457" d="M85.085,134.041c0,7.953-8.023,12.518-12.711,12.518s-12.711-4.565-12.711-12.518c0-5.08,1.412-8.925,3.7-11.5a1.291,1.291,0,0,1,1.933.006,17.231,17.231,0,0,0,1.671,1.669,4.036,4.036,0,0,0,2.467,1.169,1.964,1.964,0,0,0,1.6-.821,1.016,1.016,0,0,1,1.274-.328,26.054,26.054,0,0,0,9.5,2.414,2.975,2.975,0,0,1,2.735,2.287A22.6,22.6,0,0,1,85.085,134.041Z" transform="translate(-55.16 -122.106)" fill="#faa68e"/>
      </g>
      <path id="Trazado_909458" data-name="Trazado 909458" d="M106.628,167.932a2.965,2.965,0,0,0-1.955-2.136,23.567,23.567,0,0,1,.44,4.666c0,8.121-8.193,12.782-12.979,12.782a13.83,13.83,0,0,1-7.722-2.905,14.282,14.282,0,0,0,10.052,5.218c4.687,0,12.711-4.565,12.711-12.518a22.588,22.588,0,0,0-.547-5.106Z" transform="translate(-66.223 -147.989)" fill="#e09380"/>
      <path id="Trazado_909459" data-name="Trazado 909459" d="M26.2,299.2l2.317-8.915a.864.864,0,0,1,.837-.647h3.559a3.5,3.5,0,0,0,3.5-3.5v-1.47a.623.623,0,0,1,.623-.623h3.475a1.891,1.891,0,0,0,1.908-1.844,1.86,1.86,0,0,0-1.86-1.877h-9.1a.5.5,0,0,1-.406-.779l1.5-2.146a1.824,1.824,0,0,0-.421-2.516l-.038-.028a1.879,1.879,0,0,0-2.632.415c-1.073,1.488-5.79,8.019-6.256,8.665l-3.715,14.293a.772.772,0,0,0,.748.967H26.2Z" transform="translate(-8.254 -245.016)" fill="#f9b1a0"/>
      <g id="Grupo_1117958" data-name="Grupo 1117958" transform="translate(10.22)">
        <path id="Trazado_909460" data-name="Trazado 909460" d="M372.172,36.641a3.739,3.739,0,0,0-3.735,3.735.806.806,0,0,0,1.611,0,2.124,2.124,0,1,1,2.124,2.124h-.511a.805.805,0,0,0-.806.806v2.756a.806.806,0,0,0,1.611,0V44.1a3.735,3.735,0,0,0-.294-7.459Z" transform="translate(-329.963 -32.706)"/>
        <path id="Trazado_909461" data-name="Trazado 909461" d="M391.76,143.284a.805.805,0,0,0-.806.806v.236a.806.806,0,0,0,1.611,0v-.236A.806.806,0,0,0,391.76,143.284Z" transform="translate(-350.062 -127.895)"/>
        <path id="Trazado_909462" data-name="Trazado 909462" d="M59.5,0H45.361a3.521,3.521,0,0,0-3.517,3.517V9.891A14.655,14.655,0,0,0,29.8,3.586H26.2A12.1,12.1,0,0,0,15.886,9.394a6.909,6.909,0,0,0-4.851,6.824l.2,7.029a3.21,3.21,0,0,0-1.019,2.347v.756a3.222,3.222,0,0,0,3.219,3.218H15.6a12.9,12.9,0,0,0,2.387,3.784l-3.685,5.1a.807.807,0,0,0-.126.269L10.459,53.016a1.578,1.578,0,0,0,1.527,1.975H41.952a1.942,1.942,0,0,0,1.936-2.082l-.305-4.175a7.847,7.847,0,0,0-.834-3.006.806.806,0,0,0-1.436.73,6.244,6.244,0,0,1,.663,2.393l.305,4.175a.33.33,0,0,1-.33.355H38.236V50.089a.806.806,0,1,0-1.611,0V53.38H18.987l2.055-7.907a.059.059,0,0,1,.057-.044h3.559a4.275,4.275,0,0,0,2-.5,8.858,8.858,0,0,0,1.58.142,8.643,8.643,0,0,0,5.993-2.384h0c.157.033.038.009,2.424.384A6.256,6.256,0,0,1,39.1,44a.805.805,0,1,0,.872-1.355,7.856,7.856,0,0,0-3.059-1.162,22.581,22.581,0,0,1-2.587-.443,1.544,1.544,0,0,1-.989-1.424,2.653,2.653,0,0,0,1.5-3.281,14.276,14.276,0,0,0,6.05-6.77H42.4a3.221,3.221,0,0,0,3.218-3.218v-.756a3.214,3.214,0,0,0-1.152-2.466V21.055a3.515,3.515,0,0,0,.9.117H47.9a.532.532,0,0,1,.532.532v2.288a1.293,1.293,0,0,0,.886,1.239,1.335,1.335,0,0,0,.432.073,1.291,1.291,0,0,0,1.026-.51l2.665-3.434a.481.481,0,0,1,.382-.187H59.5a3.521,3.521,0,0,0,3.517-3.517V3.517A3.522,3.522,0,0,0,59.5,0ZM11.831,26.349v-.756a1.61,1.61,0,0,1,1.608-1.608h1.307a13.222,13.222,0,0,0,.331,3.971H13.439a1.609,1.609,0,0,1-1.608-1.607ZM28.268,43.464a4.275,4.275,0,0,0,.693-2.336V39.84h2.771a3.149,3.149,0,0,0,.974,2.054A7.061,7.061,0,0,1,28.268,43.464Zm3.985-5.235H28.778a1.43,1.43,0,0,0-1.429,1.429v1.47a2.694,2.694,0,0,1-2.691,2.691H21.1a1.67,1.67,0,0,0-1.616,1.25L17.323,53.38H12.029L15.7,39.274c.284-.394,5.509-7.629,6.168-8.543a1.06,1.06,0,0,1,.7-.43,1.078,1.078,0,0,1,.809.195l.039.029a1,1,0,0,1,.416.795.99.99,0,0,1-.182.607l-1.5,2.145a1.3,1.3,0,0,0,1.065,2.047h9.1a1.054,1.054,0,0,1,1.055,1.065A1.082,1.082,0,0,1,32.253,38.229Zm11.753-11.88A1.609,1.609,0,0,1,42.4,27.956H41.4a12.108,12.108,0,0,0,.352-2.906c0-.359-.008-.715-.021-1.064H42.4a1.609,1.609,0,0,1,1.607,1.608ZM42.4,22.374H41.62a21.519,21.519,0,0,0-.431-2.613,3.8,3.8,0,0,0-3.475-2.91,25.31,25.31,0,0,1-9.206-2.34,1.832,1.832,0,0,0-2.283.609,1.15,1.15,0,0,1-.919.466,3.233,3.233,0,0,1-1.951-.975,16.561,16.561,0,0,1-1.593-1.592,2.1,2.1,0,0,0-1.573-.711h0a2.093,2.093,0,0,0-1.565.7,13.725,13.725,0,0,0-2,2.985.806.806,0,1,0,1.442.719,12.112,12.112,0,0,1,1.762-2.635.475.475,0,0,1,.359-.161.49.49,0,0,1,.369.167,18.151,18.151,0,0,0,1.75,1.746A4.843,4.843,0,0,0,25.289,17.2a2.759,2.759,0,0,0,2.274-1.177.217.217,0,0,1,.265-.049,26.939,26.939,0,0,0,9.8,2.489,2.179,2.179,0,0,1,2,1.665,20.426,20.426,0,0,1,.46,3.114c.043.581.065,1.19.065,1.81a10.4,10.4,0,0,1-.579,3.446,12.572,12.572,0,0,1-5.685,6.531,2.647,2.647,0,0,0-1.581-.519H23.8l1.159-1.657a2.63,2.63,0,0,0-.606-3.63l-.039-.029a2.685,2.685,0,0,0-3.759.6l-1.6,2.222A11.082,11.082,0,0,1,16.914,28.5a12.223,12.223,0,0,1-.513-5.257,20.336,20.336,0,0,1,.478-3.183.806.806,0,1,0-1.568-.37,21.459,21.459,0,0,0-.45,2.689H13.439a3.218,3.218,0,0,0-.612.059l-.181-6.262a5.307,5.307,0,0,1,3.975-5.313.806.806,0,0,0,.5-.38A10.484,10.484,0,0,1,26.2,5.2h3.6A13.065,13.065,0,0,1,42.854,18.248v4.159a3.235,3.235,0,0,0-.454-.033ZM61.4,17.654A1.909,1.909,0,0,1,59.5,19.56H53.821a2.082,2.082,0,0,0-1.654.81L50.04,23.11V21.7A2.145,2.145,0,0,0,47.9,19.56H45.361a1.883,1.883,0,0,1-.9-.224V18.248a14.588,14.588,0,0,0-1.011-5.35V3.517a1.909,1.909,0,0,1,1.906-1.906H59.5A1.909,1.909,0,0,1,61.4,3.517Z" transform="translate(-10.22)"/>
        <path id="Trazado_909463" data-name="Trazado 909463" d="M133.412,219.794a.806.806,0,0,0,.806-.806v-.9a.806.806,0,0,0-1.611,0v.9A.806.806,0,0,0,133.412,219.794Z" transform="translate(-119.461 -193.947)"/>
        <path id="Trazado_909464" data-name="Trazado 909464" d="M245.489,219.794a.805.805,0,0,0,.806-.806v-.9a.806.806,0,0,0-1.611,0v.9a.806.806,0,0,0,.806.806Z" transform="translate(-219.501 -193.947)"/>
        <path id="Trazado_909465" data-name="Trazado 909465" d="M173.14,260.234a2.937,2.937,0,0,1,3.219,0,.806.806,0,1,0,.812-1.392,4.576,4.576,0,0,0-4.843,0,.806.806,0,1,0,.812,1.392Z" transform="translate(-154.56 -230.423)"/>
      </g>
    </g>
  </g>
</svg>
