<svg xmlns="http://www.w3.org/2000/svg" xmlns:xlink="http://www.w3.org/1999/xlink" width="102.949" height="102.949" viewBox="0 0 102.949 102.949">
  <defs>
    <filter id="Trazado_874925" x="0" y="0" width="102.949" height="102.949" filterUnits="userSpaceOnUse">
      <feOffset dy="3" input="SourceAlpha"/>
      <feGaussianBlur stdDeviation="3" result="blur"/>
      <feFlood flood-opacity="0.161"/>
      <feComposite operator="in" in2="blur"/>
      <feComposite in="SourceGraphic"/>
    </filter>
  </defs>
  <g id="Grupo_1112535" data-name="Grupo 1112535" transform="translate(-799.5 -2511.157)">
    <g id="Grupo_1111316" data-name="Grupo 1111316" transform="translate(808.5 2517.157)">
      <g id="Grupo_1109835" data-name="Grupo 1109835" transform="translate(0 0)">
        <g id="Grupo_1107913" data-name="Grupo 1107913" transform="translate(0 0)">
          <g transform="matrix(1, 0, 0, 1, -9, -6)" filter="url(#Trazado_874925)">
            <g id="Trazado_874925-2" data-name="Trazado 874925" transform="translate(9 6)" fill="#fc0" opacity="0.859">
              <path d="M 42.47446823120117 83.44929504394531 C 36.94229125976562 83.44929504394531 31.57638549804688 82.36614227294922 26.52582168579102 80.22994232177734 C 21.64678573608398 78.16628265380859 17.26464462280273 75.211669921875 13.50113868713379 71.44816589355469 C 9.737632751464844 67.68466949462891 6.78300952911377 63.30253982543945 4.719362258911133 58.42351913452148 C 2.583150625228882 53.37295150756836 1.499997615814209 48.00706100463867 1.499997615814209 42.47489547729492 C 1.499997615814209 36.94223403930664 2.583150625228882 31.57634162902832 4.719362258911133 26.52577781677246 C 6.78300952911377 21.64675331115723 9.737632751464844 17.26462364196777 13.50113868713379 13.50113010406494 C 17.26464462280273 9.737624168395996 21.64678573608398 6.783012390136719 26.52582168579102 4.719353199005127 C 31.57638549804688 2.583153486251831 36.94229125976562 1.500000476837158 42.47446823120117 1.500000476837158 C 48.00664520263672 1.500000476837158 53.37255096435547 2.583153486251831 58.42311477661133 4.719353199005127 C 63.30215072631836 6.783012390136719 67.68428802490234 9.737624168395996 71.44779968261719 13.50113010406494 C 75.2113037109375 17.26462364196777 78.16592407226562 21.64675331115723 80.22957611083984 26.52577781677246 C 82.36578369140625 31.57634162902832 83.44893646240234 36.94223403930664 83.44893646240234 42.47439956665039 C 83.44893646240234 48.00706100463867 82.36578369140625 53.37295150756836 80.22957611083984 58.42351913452148 C 78.16592407226562 63.30253982543945 75.2113037109375 67.68466949462891 71.44779968261719 71.44816589355469 C 67.68428802490234 75.211669921875 63.30215072631836 78.16628265380859 58.42311477661133 80.22994232177734 C 53.37255096435547 82.36614227294922 48.00664520263672 83.44929504394531 42.47446823120117 83.44929504394531 Z" stroke="none"/>
              <path d="M 42.47446823120117 2.999992370605469 C 37.14412307739258 2.999992370605469 31.97481536865234 4.04327392578125 27.11014938354492 6.100860595703125 C 22.40990829467773 8.088890075683594 18.18804168701172 10.93555450439453 14.56179809570312 14.56178283691406 C 10.93557739257812 18.18801116943359 8.088897705078125 22.40987396240234 6.100868225097656 27.11009979248047 C 4.043281555175781 31.97476577758789 3 37.14406204223633 3 42.47488784790039 C 3 47.80522155761719 4.043281555175781 52.97451400756836 6.100868225097656 57.83917999267578 C 8.088897705078125 62.53940582275391 10.93557739257812 66.76127624511719 14.56179809570312 70.38749694824219 C 18.18804168701172 74.01372528076172 22.40990829467773 76.86039733886719 27.11014938354492 78.84841918945312 C 31.97481536865234 80.906005859375 37.14412307739258 81.94928741455078 42.47446823120117 81.94928741455078 C 47.80481338500977 81.94928741455078 52.97412109375 80.906005859375 57.83879089355469 78.84841918945312 C 62.53902816772461 76.86039733886719 66.76089477539062 74.01372528076172 70.38713073730469 70.38749694824219 C 74.01335906982422 66.76127624511719 76.86003875732422 62.53940582275391 78.84806823730469 57.83917999267578 C 80.90565490722656 52.97451400756836 81.94893646240234 47.80522155761719 81.94893646240234 42.47439575195312 C 81.94893646240234 37.14406204223633 80.90565490722656 31.97476577758789 78.84806823730469 27.11009979248047 C 76.86003875732422 22.40987396240234 74.01335906982422 18.18801116943359 70.38713073730469 14.56178283691406 C 66.76089477539062 10.93555450439453 62.53902816772461 8.088890075683594 57.83879089355469 6.100860595703125 C 52.97412109375 4.04327392578125 47.80481338500977 2.999992370605469 42.47446823120117 2.999992370605469 M 42.47446823120117 -7.62939453125e-06 C 65.93246459960938 -7.62939453125e-06 84.94893646240234 19.01643371582031 84.94893646240234 42.47439575195312 L 84.94893646240234 42.47488784790039 C 84.94893646240234 65.93284606933594 65.93246459960938 84.94928741455078 42.47446823120117 84.94928741455078 C 19.01647186279297 84.94928741455078 0 65.93284606933594 0 42.47488784790039 L 0 42.47439575195312 C 0 19.01643371582031 19.01647186279297 -7.62939453125e-06 42.47446823120117 -7.62939453125e-06 Z" stroke="none" fill="#fff"/>
            </g>
          </g>
          <g id="Trazado_874923" data-name="Trazado 874923" transform="translate(0 0)" fill="none">
            <path d="M42.474,0A42.474,42.474,0,0,1,84.949,42.474h0A42.474,42.474,0,0,1,0,42.475H0A42.474,42.474,0,0,1,42.474,0Z" stroke="none"/>
            <path d="M 42.47446823120117 2.999992370605469 C 37.14412307739258 2.999992370605469 31.97481536865234 4.04327392578125 27.11014938354492 6.100860595703125 C 22.40990829467773 8.088890075683594 18.18804168701172 10.93555450439453 14.56179809570312 14.56178283691406 C 10.93557739257812 18.18801116943359 8.088897705078125 22.40987396240234 6.100868225097656 27.11009979248047 C 4.043281555175781 31.97476577758789 3 37.14406204223633 3 42.47488784790039 C 3 47.80522155761719 4.043281555175781 52.97451400756836 6.100868225097656 57.83917999267578 C 8.088897705078125 62.53940582275391 10.93557739257812 66.76127624511719 14.56179809570312 70.38749694824219 C 18.18804168701172 74.01372528076172 22.40990829467773 76.86039733886719 27.11014938354492 78.84841918945312 C 31.97481536865234 80.906005859375 37.14412307739258 81.94928741455078 42.47446823120117 81.94928741455078 C 47.80481338500977 81.94928741455078 52.97412109375 80.906005859375 57.83879089355469 78.84841918945312 C 62.53902816772461 76.86039733886719 66.76089477539062 74.01372528076172 70.38713073730469 70.38749694824219 C 74.01335906982422 66.76127624511719 76.86003875732422 62.53940582275391 78.84806823730469 57.83917999267578 C 80.90565490722656 52.97451400756836 81.94893646240234 47.80522155761719 81.94893646240234 42.47439575195312 C 81.94893646240234 37.14406204223633 80.90565490722656 31.97476577758789 78.84806823730469 27.11009979248047 C 76.86003875732422 22.40987396240234 74.01335906982422 18.18801116943359 70.38713073730469 14.56178283691406 C 66.76089477539062 10.93555450439453 62.53902816772461 8.088890075683594 57.83879089355469 6.100860595703125 C 52.97412109375 4.04327392578125 47.80481338500977 2.999992370605469 42.47446823120117 2.999992370605469 M 42.47446823120117 -7.62939453125e-06 C 65.93246459960938 -7.62939453125e-06 84.94893646240234 19.01643371582031 84.94893646240234 42.47439575195312 L 84.94893646240234 42.47488784790039 C 84.94893646240234 65.93284606933594 65.93246459960938 84.94928741455078 42.47446823120117 84.94928741455078 C 19.01647186279297 84.94928741455078 0 65.93284606933594 0 42.47488784790039 L 0 42.47439575195312 C 0 19.01643371582031 19.01647186279297 -7.62939453125e-06 42.47446823120117 -7.62939453125e-06 Z" stroke="none" fill="#fff"/>
          </g>
        </g>
      </g>
    </g>
    <g id="Grupo_1115599" data-name="Grupo 1115599" transform="translate(795.042 2526.835)">
      <g id="Grupo_1115606" data-name="Grupo 1115606" transform="translate(34.898 0.879)">
        <g id="Grupo_1115605" data-name="Grupo 1115605" transform="translate(0)">
          <g id="Grupo_1115602" data-name="Grupo 1115602">
            <g id="Grupo_1115599-2" data-name="Grupo 1115599">
              <path id="Trazado_908275" data-name="Trazado 908275" d="M80.769,101.844h-37.1a2.152,2.152,0,0,1-2.152-2.152V50.543a2.152,2.152,0,0,1,2.152-2.152h37.1a2.152,2.152,0,0,1,2.152,2.152v49.15A2.151,2.151,0,0,1,80.769,101.844Z" transform="translate(-41.515 -43.599)" fill="#ffc250"/>
              <path id="Trazado_908276" data-name="Trazado 908276" d="M322.227,48.39h-7.2a2.152,2.152,0,0,1,2.152,2.152v49.15a2.152,2.152,0,0,1-2.152,2.152h7.2a2.152,2.152,0,0,0,2.152-2.152V50.542a2.152,2.152,0,0,0-2.152-2.152Z" transform="translate(-282.972 -43.598)" fill="#eab14d"/>
              <path id="Trazado_908277" data-name="Trazado 908277" d="M71.522,124.048V79.167a.769.769,0,0,1,.769-.769h32.835a.769.769,0,0,1,.769.769v44.881a.769.769,0,0,1-.769.769H72.291A.769.769,0,0,1,71.522,124.048Z" transform="translate(-68.005 -70.089)" fill="#f5f5f5"/>
              <path id="Trazado_908278" data-name="Trazado 908278" d="M304.017,78.4h-7.2a.769.769,0,0,1,.769.769v44.881a.769.769,0,0,1-.769.769h7.2a.769.769,0,0,0,.769-.769V79.167A.769.769,0,0,0,304.017,78.4Z" transform="translate(-266.897 -70.089)" fill="#eaeaea"/>
              <path id="Trazado_908279" data-name="Trazado 908279" d="M153.153,10.178V9.045A1.545,1.545,0,0,0,151.608,7.5h-6.052a1.545,1.545,0,0,0-1.545,1.545v1.133a.632.632,0,0,1-.632.632h-2.519a1.517,1.517,0,0,0-1.517,1.517v3.482h18.477V12.327A1.517,1.517,0,0,0,156.3,10.81h-2.519A.632.632,0,0,1,153.153,10.178Z" transform="translate(-127.879 -7.5)" fill="#c2d0da"/>
            </g>
            <g id="Grupo_1115601" data-name="Grupo 1115601" transform="translate(7.99 12.662)">
              <g id="Grupo_1115600" data-name="Grupo 1115600">
                <path id="Trazado_908280" data-name="Trazado 908280" d="M109.694,123.68v-6.773a1.359,1.359,0,0,1,1.359-1.359h6.773a1.359,1.359,0,0,1,1.359,1.359v6.773a1.359,1.359,0,0,1-1.359,1.359h-6.773A1.359,1.359,0,0,1,109.694,123.68Z" transform="translate(-109.694 -115.548)" fill="#66b49d"/>
                <path id="Trazado_908281" data-name="Trazado 908281" d="M109.694,244.087v-6.773a1.359,1.359,0,0,1,1.359-1.359h6.773a1.359,1.359,0,0,1,1.359,1.359v6.773a1.359,1.359,0,0,1-1.359,1.359h-6.773A1.359,1.359,0,0,1,109.694,244.087Z" transform="translate(-109.694 -221.844)" fill="#66b49d"/>
                <path id="Trazado_908282" data-name="Trazado 908282" d="M109.694,364.492v-6.773a1.359,1.359,0,0,1,1.359-1.359h6.773a1.359,1.359,0,0,1,1.359,1.359v6.773a1.359,1.359,0,0,1-1.359,1.359h-6.773A1.359,1.359,0,0,1,109.694,364.492Z" transform="translate(-109.694 -328.139)" fill="#66b49d"/>
              </g>
            </g>
          </g>
          <g id="Grupo_1115604" data-name="Grupo 1115604" transform="translate(22.676 13.656)">
            <g id="Grupo_1115603" data-name="Grupo 1115603" transform="translate(1.443)">
              <path id="Trazado_908283" data-name="Trazado 908283" d="M270.062,177.867l-.863-1.137-3.229-2.045-1.241-.2-16.534,26.128a6.808,6.808,0,0,0-.866,2.046,5.326,5.326,0,0,1,4.72,2.989,6.8,6.8,0,0,0,1.479-1.658Z" transform="translate(-247.328 -168.576)" fill="#fc8086"/>
              <path id="Trazado_908284" data-name="Trazado 908284" d="M416.858,125.273l-1.4-.884a2.331,2.331,0,0,0-3.216.723l-1.279,2.022.408.823,3.883,2.459,1.043.1,1.28-2.023A2.331,2.331,0,0,0,416.858,125.273Z" transform="translate(-391.79 -124.027)" fill="#8c9ba6"/>
            </g>
            <path id="Trazado_908285" data-name="Trazado 908285" d="M0,0H3.322V6.313H0Z" transform="matrix(0.535, -0.845, 0.845, 0.535, 18.846, 5.906)" fill="#c9e2e7"/>
            <path id="Trazado_908286" data-name="Trazado 908286" d="M241.175,417.884l-4.708,3.794a.893.893,0,0,1-1.429-.9l1.417-5.878A5.326,5.326,0,0,1,241.175,417.884Z" transform="translate(-235.011 -380.807)" fill="#7c8b96"/>
          </g>
        </g>
      </g>
      <g id="Grupo_1115609" data-name="Grupo 1115609" transform="translate(34.02 0)">
        <g id="Grupo_1115608" data-name="Grupo 1115608" transform="translate(0 0)">
          <g id="Grupo_1115607" data-name="Grupo 1115607">
            <path id="Trazado_908287" data-name="Trazado 908287" d="M131.83,135.51a.879.879,0,0,0-1.229.187l-1.74,2.364-.595-.817a.879.879,0,0,0-1.421,1.035l1.026,1.409a1.227,1.227,0,0,0,.985.5h0a1.226,1.226,0,0,0,.984-.5l2.174-2.954A.879.879,0,0,0,131.83,135.51Z" transform="translate(-115.818 -119.478)"/>
            <path id="Trazado_908288" data-name="Trazado 908288" d="M131.829,258.537a.879.879,0,0,0-1.229.187l-1.74,2.364-.595-.817a.879.879,0,1,0-1.422,1.035l1.026,1.41a1.226,1.226,0,0,0,.985.5h0a1.226,1.226,0,0,0,.984-.5l2.174-2.954A.879.879,0,0,0,131.829,258.537Z" transform="translate(-115.817 -228.087)"/>
            <path id="Trazado_908289" data-name="Trazado 908289" d="M131.829,376.321a.879.879,0,0,0-1.229.187l-1.74,2.364-.595-.817a.879.879,0,1,0-1.422,1.035l1.026,1.41a1.226,1.226,0,0,0,.985.5h0a1.226,1.226,0,0,0,.984-.5l2.174-2.954A.879.879,0,0,0,131.829,376.321Z" transform="translate(-115.817 -332.067)"/>
            <path id="Trazado_908290" data-name="Trazado 908290" d="M221.4,134.625H232.27a.879.879,0,1,0,0-1.758H221.4a.879.879,0,0,0,0,1.758Z" transform="translate(-198.668 -117.296)"/>
            <path id="Trazado_908291" data-name="Trazado 908291" d="M221.4,165.966h5.433a.879.879,0,0,0,0-1.758H221.4a.879.879,0,0,0,0,1.758Z" transform="translate(-198.668 -144.964)"/>
            <path id="Trazado_908292" data-name="Trazado 908292" d="M221.4,255.03h7.29a.879.879,0,1,0,0-1.758H221.4a.879.879,0,0,0,0,1.758Z" transform="translate(-198.668 -223.59)"/>
            <path id="Trazado_908293" data-name="Trazado 908293" d="M226.837,286.372a.879.879,0,0,0,0-1.758H221.4a.879.879,0,1,0,0,1.758Z" transform="translate(-198.668 -251.259)"/>
            <path id="Trazado_908294" data-name="Trazado 908294" d="M111.208,108.047h-6.773a2.241,2.241,0,0,0-2.238,2.238v6.773a2.241,2.241,0,0,0,2.238,2.238h6.773a2.241,2.241,0,0,0,2.238-2.238v-6.773A2.24,2.24,0,0,0,111.208,108.047Zm.48,9.011a.48.48,0,0,1-.48.48h-6.773a.48.48,0,0,1-.48-.48v-6.773a.48.48,0,0,1,.48-.48h6.773a.48.48,0,0,1,.48.48Z" transform="translate(-94.207 -95.385)"/>
            <path id="Trazado_908295" data-name="Trazado 908295" d="M111.208,228.453h-6.773a2.241,2.241,0,0,0-2.238,2.238v6.773a2.241,2.241,0,0,0,2.238,2.238h6.773a2.241,2.241,0,0,0,2.238-2.238v-6.773A2.24,2.24,0,0,0,111.208,228.453Zm.48,9.011a.48.48,0,0,1-.48.479h-6.773a.48.48,0,0,1-.48-.479v-6.773a.48.48,0,0,1,.48-.48h6.773a.48.48,0,0,1,.48.48Z" transform="translate(-94.207 -201.68)"/>
            <path id="Trazado_908296" data-name="Trazado 908296" d="M111.208,348.857h-6.773a2.241,2.241,0,0,0-2.238,2.238v6.773a2.241,2.241,0,0,0,2.238,2.238h6.773a2.241,2.241,0,0,0,2.238-2.238v-6.773A2.24,2.24,0,0,0,111.208,348.857Zm.48,9.011a.48.48,0,0,1-.48.48h-6.773a.48.48,0,0,1-.48-.48v-6.773a.48.48,0,0,1,.48-.48h6.773a.48.48,0,0,1,.48.48Z" transform="translate(-94.207 -307.973)"/>
            <path id="Trazado_908297" data-name="Trazado 908297" d="M84.557,15.038l-1.4-.884a3.21,3.21,0,0,0-4.43,1l-1.28,2.022-1.777,2.807-2.009,3.175V9.957a1.65,1.65,0,0,0-1.648-1.648h-6.3V6.55h8.434a1.274,1.274,0,0,1,1.272,1.272v7.614a.879.879,0,0,0,1.758,0V7.823a3.034,3.034,0,0,0-3.031-3.031H65.537a2.4,2.4,0,0,0-2.214-1.483H61.052V2.424A2.427,2.427,0,0,0,58.628,0H52.576a2.427,2.427,0,0,0-2.424,2.424V3.31H47.881a2.4,2.4,0,0,0-2.214,1.483H37.051A3.034,3.034,0,0,0,34.02,7.823V56.972A3.034,3.034,0,0,0,37.051,60h37.1a3.034,3.034,0,0,0,3.031-3.031V37.259a.879.879,0,0,0-1.758,0V56.972a1.274,1.274,0,0,1-1.272,1.272h-37.1a1.274,1.274,0,0,1-1.272-1.272V7.823A1.274,1.274,0,0,1,37.051,6.55h8.434V8.309h-6.3a1.65,1.65,0,0,0-1.648,1.648V54.838a1.65,1.65,0,0,0,1.648,1.648H72.019a1.65,1.65,0,0,0,1.648-1.648V38.247L82.5,24.3h0l1.776-2.806,1.28-2.023a3.214,3.214,0,0,0-1-4.428Zm-3.431.412a1.44,1.44,0,0,1,1.095.19l1.4.884a1.453,1.453,0,0,1,.45,2l-.81,1.28-3.848-2.437.81-1.279a1.441,1.441,0,0,1,.908-.64ZM64.476,49.483a5.916,5.916,0,0,1-.557.742,6.181,6.181,0,0,0-.934-1l16.382-25.87,1.173.743Zm-6,5.243a.118.118,0,0,0-.017-.006h0L59.7,49.563A4.426,4.426,0,0,1,62.6,51.4c-4.655,3.751-4.061,3.266-4.127,3.326Zm20-35.872,3.848,2.437-.836,1.321-3.848-2.437ZM47.243,5.725c0-.011,0-.022,0-.032s0-.007,0-.011a.638.638,0,0,1,.637-.614H50.4A1.513,1.513,0,0,0,51.91,3.557V2.424a.667.667,0,0,1,.666-.666h6.052a.667.667,0,0,1,.666.666V3.557A1.513,1.513,0,0,0,60.8,5.068h2.519a.638.638,0,0,1,.637.614s0,.007,0,.011,0,.021,0,.032V8.309H47.243Zm-7.948,4.342H71.909V25.932l-9.2,14.54a.879.879,0,1,0,1.486.94l12.5-19.751,1.189.753L61.5,48.285a6.174,6.174,0,0,0-1.3-.417,5.945,5.945,0,0,1,.433-.821l1.367-2.16a.879.879,0,1,0-1.486-.94l-1.367,2.159a7.67,7.67,0,0,0-.978,2.311h0l-1.417,5.877a1.825,1.825,0,0,0-.051.433h-17.4ZM71.909,54.728H61.273L64.291,52.3a7.667,7.667,0,0,0,1.67-1.873l5.948-9.4Z" transform="translate(-34.02 0)"/>
          </g>
        </g>
      </g>
    </g>
  </g>
</svg>
