<svg xmlns="http://www.w3.org/2000/svg" xmlns:xlink="http://www.w3.org/1999/xlink" width="102.949" height="102.949" viewBox="0 0 102.949 102.949">
  <defs>
    <filter id="Trazado_874925" x="0" y="0" width="102.949" height="102.949" filterUnits="userSpaceOnUse">
      <feOffset dy="3" input="SourceAlpha"/>
      <feGaussianBlur stdDeviation="3" result="blur"/>
      <feFlood flood-opacity="0.161"/>
      <feComposite operator="in" in2="blur"/>
      <feComposite in="SourceGraphic"/>
    </filter>
  </defs>
  <g id="Grupo_1113791" data-name="Grupo 1113791" transform="translate(-799.5 -2511.157)">
    <g id="Grupo_1111316" data-name="Grupo 1111316" transform="translate(808.5 2517.157)">
      <g id="Grupo_1109835" data-name="Grupo 1109835" transform="translate(0 0)">
        <g id="Grupo_1107913" data-name="Grupo 1107913" transform="translate(0 0)">
          <g transform="matrix(1, 0, 0, 1, -9, -6)" filter="url(#Trazado_874925)">
            <g id="Trazado_874925-2" data-name="Trazado 874925" transform="translate(9 6)" fill="#fc0" opacity="0.859">
              <path d="M 42.47446823120117 83.44929504394531 C 36.94229125976562 83.44929504394531 31.57638549804688 82.36614227294922 26.52582168579102 80.22994232177734 C 21.64678573608398 78.16628265380859 17.26464462280273 75.211669921875 13.50113868713379 71.44816589355469 C 9.737632751464844 67.68466949462891 6.78300952911377 63.30253982543945 4.719362258911133 58.42351913452148 C 2.583150625228882 53.37295150756836 1.499997615814209 48.00706100463867 1.499997615814209 42.47489547729492 C 1.499997615814209 36.94223403930664 2.583150625228882 31.57634162902832 4.719362258911133 26.52577781677246 C 6.78300952911377 21.64675331115723 9.737632751464844 17.26462364196777 13.50113868713379 13.50113010406494 C 17.26464462280273 9.737624168395996 21.64678573608398 6.783012390136719 26.52582168579102 4.719353199005127 C 31.57638549804688 2.583153486251831 36.94229125976562 1.500000476837158 42.47446823120117 1.500000476837158 C 48.00664520263672 1.500000476837158 53.37255096435547 2.583153486251831 58.42311477661133 4.719353199005127 C 63.30215072631836 6.783012390136719 67.68428802490234 9.737624168395996 71.44779968261719 13.50113010406494 C 75.2113037109375 17.26462364196777 78.16592407226562 21.64675331115723 80.22957611083984 26.52577781677246 C 82.36578369140625 31.57634162902832 83.44893646240234 36.94223403930664 83.44893646240234 42.47439956665039 C 83.44893646240234 48.00706100463867 82.36578369140625 53.37295150756836 80.22957611083984 58.42351913452148 C 78.16592407226562 63.30253982543945 75.2113037109375 67.68466949462891 71.44779968261719 71.44816589355469 C 67.68428802490234 75.211669921875 63.30215072631836 78.16628265380859 58.42311477661133 80.22994232177734 C 53.37255096435547 82.36614227294922 48.00664520263672 83.44929504394531 42.47446823120117 83.44929504394531 Z" stroke="none"/>
              <path d="M 42.47446823120117 2.999992370605469 C 37.14412307739258 2.999992370605469 31.97481536865234 4.04327392578125 27.11014938354492 6.100860595703125 C 22.40990829467773 8.088890075683594 18.18804168701172 10.93555450439453 14.56179809570312 14.56178283691406 C 10.93557739257812 18.18801116943359 8.088897705078125 22.40987396240234 6.100868225097656 27.11009979248047 C 4.043281555175781 31.97476577758789 3 37.14406204223633 3 42.47488784790039 C 3 47.80522155761719 4.043281555175781 52.97451400756836 6.100868225097656 57.83917999267578 C 8.088897705078125 62.53940582275391 10.93557739257812 66.76127624511719 14.56179809570312 70.38749694824219 C 18.18804168701172 74.01372528076172 22.40990829467773 76.86039733886719 27.11014938354492 78.84841918945312 C 31.97481536865234 80.906005859375 37.14412307739258 81.94928741455078 42.47446823120117 81.94928741455078 C 47.80481338500977 81.94928741455078 52.97412109375 80.906005859375 57.83879089355469 78.84841918945312 C 62.53902816772461 76.86039733886719 66.76089477539062 74.01372528076172 70.38713073730469 70.38749694824219 C 74.01335906982422 66.76127624511719 76.86003875732422 62.53940582275391 78.84806823730469 57.83917999267578 C 80.90565490722656 52.97451400756836 81.94893646240234 47.80522155761719 81.94893646240234 42.47439575195312 C 81.94893646240234 37.14406204223633 80.90565490722656 31.97476577758789 78.84806823730469 27.11009979248047 C 76.86003875732422 22.40987396240234 74.01335906982422 18.18801116943359 70.38713073730469 14.56178283691406 C 66.76089477539062 10.93555450439453 62.53902816772461 8.088890075683594 57.83879089355469 6.100860595703125 C 52.97412109375 4.04327392578125 47.80481338500977 2.999992370605469 42.47446823120117 2.999992370605469 M 42.47446823120117 -7.62939453125e-06 C 65.93246459960938 -7.62939453125e-06 84.94893646240234 19.01643371582031 84.94893646240234 42.47439575195312 L 84.94893646240234 42.47488784790039 C 84.94893646240234 65.93284606933594 65.93246459960938 84.94928741455078 42.47446823120117 84.94928741455078 C 19.01647186279297 84.94928741455078 0 65.93284606933594 0 42.47488784790039 L 0 42.47439575195312 C 0 19.01643371582031 19.01647186279297 -7.62939453125e-06 42.47446823120117 -7.62939453125e-06 Z" stroke="none" fill="#fff"/>
            </g>
          </g>
          <g id="Trazado_874923" data-name="Trazado 874923" transform="translate(0 0)" fill="none">
            <path d="M42.474,0A42.474,42.474,0,0,1,84.949,42.474h0A42.474,42.474,0,0,1,0,42.475H0A42.474,42.474,0,0,1,42.474,0Z" stroke="none"/>
            <path d="M 42.47446823120117 2.999992370605469 C 37.14412307739258 2.999992370605469 31.97481536865234 4.04327392578125 27.11014938354492 6.100860595703125 C 22.40990829467773 8.088890075683594 18.18804168701172 10.93555450439453 14.56179809570312 14.56178283691406 C 10.93557739257812 18.18801116943359 8.088897705078125 22.40987396240234 6.100868225097656 27.11009979248047 C 4.043281555175781 31.97476577758789 3 37.14406204223633 3 42.47488784790039 C 3 47.80522155761719 4.043281555175781 52.97451400756836 6.100868225097656 57.83917999267578 C 8.088897705078125 62.53940582275391 10.93557739257812 66.76127624511719 14.56179809570312 70.38749694824219 C 18.18804168701172 74.01372528076172 22.40990829467773 76.86039733886719 27.11014938354492 78.84841918945312 C 31.97481536865234 80.906005859375 37.14412307739258 81.94928741455078 42.47446823120117 81.94928741455078 C 47.80481338500977 81.94928741455078 52.97412109375 80.906005859375 57.83879089355469 78.84841918945312 C 62.53902816772461 76.86039733886719 66.76089477539062 74.01372528076172 70.38713073730469 70.38749694824219 C 74.01335906982422 66.76127624511719 76.86003875732422 62.53940582275391 78.84806823730469 57.83917999267578 C 80.90565490722656 52.97451400756836 81.94893646240234 47.80522155761719 81.94893646240234 42.47439575195312 C 81.94893646240234 37.14406204223633 80.90565490722656 31.97476577758789 78.84806823730469 27.11009979248047 C 76.86003875732422 22.40987396240234 74.01335906982422 18.18801116943359 70.38713073730469 14.56178283691406 C 66.76089477539062 10.93555450439453 62.53902816772461 8.088890075683594 57.83879089355469 6.100860595703125 C 52.97412109375 4.04327392578125 47.80481338500977 2.999992370605469 42.47446823120117 2.999992370605469 M 42.47446823120117 -7.62939453125e-06 C 65.93246459960938 -7.62939453125e-06 84.94893646240234 19.01643371582031 84.94893646240234 42.47439575195312 L 84.94893646240234 42.47488784790039 C 84.94893646240234 65.93284606933594 65.93246459960938 84.94928741455078 42.47446823120117 84.94928741455078 C 19.01647186279297 84.94928741455078 0 65.93284606933594 0 42.47488784790039 L 0 42.47439575195312 C 0 19.01643371582031 19.01647186279297 -7.62939453125e-06 42.47446823120117 -7.62939453125e-06 Z" stroke="none" fill="#fff"/>
          </g>
        </g>
      </g>
    </g>
    <g id="Grupo_1113794" data-name="Grupo 1113794" transform="translate(825.235 2533.898)">
      <g id="Grupo_1113795" data-name="Grupo 1113795" transform="translate(0.865 0.858)">
        <path id="Trazado_906770" data-name="Trazado 906770" d="M128.9,18.684V40.848l-3.431,16.435H94.589a1.721,1.721,0,0,1-1.716-1.716V9.249a1.721,1.721,0,0,1,1.716-1.716h23.159Z" transform="translate(-84.296 -7.533)" fill="#ffb301"/>
        <path id="Trazado_906771" data-name="Trazado 906771" d="M126.325,18.684V40.848l-3.431,16.435H94.589a1.721,1.721,0,0,1-1.716-1.716V9.249a1.721,1.721,0,0,1,1.716-1.716h20.586Z" transform="translate(-84.296 -7.533)" fill="#fec108"/>
        <path id="Trazado_906772" data-name="Trazado 906772" d="M9.256,152.6H23.837a1.716,1.716,0,0,1,1.716,1.716V174.9a1.716,1.716,0,0,1-1.716,1.716H9.256A1.716,1.716,0,0,1,7.54,174.9V154.316A1.716,1.716,0,0,1,9.256,152.6Z" transform="translate(-7.54 -138.018)" fill="#283593"/>
        <path id="Trazado_906773" data-name="Trazado 906773" d="M9.256,152.6H21.264a1.716,1.716,0,0,1,1.716,1.716V174.9a1.716,1.716,0,0,1-1.716,1.716H9.256A1.716,1.716,0,0,1,7.54,174.9V154.316A1.716,1.716,0,0,1,9.256,152.6Z" transform="translate(-7.54 -138.018)" fill="#3f51b5"/>
        <path id="Trazado_906774" data-name="Trazado 906774" d="M340.34,7.533v9.435a1.715,1.715,0,0,0,1.716,1.716h9.435Z" transform="translate(-306.888 -7.533)" fill="#ff9801"/>
        <g id="Grupo_1113794-2" data-name="Grupo 1113794" transform="translate(10.293 24.875)">
          <path id="Trazado_906775" data-name="Trazado 906775" d="M110.8,255h2.573a.858.858,0,0,1,.858.858v1.716a.858.858,0,0,1-.858.858H110.8a.858.858,0,0,1-.858-.858v-1.716A.858.858,0,0,1,110.8,255Z" transform="translate(-109.94 -255)" fill="#e91e63"/>
          <path id="Trazado_906776" data-name="Trazado 906776" d="M110.8,323.267h2.573a.858.858,0,0,1,.858.858v1.716a.858.858,0,0,1-.858.858H110.8a.858.858,0,0,1-.858-.858v-1.716A.858.858,0,0,1,110.8,323.267Z" transform="translate(-109.94 -316.405)" fill="#e91e63"/>
        </g>
        <path id="Trazado_906777" data-name="Trazado 906777" d="M42.532,186.733h9.435a.858.858,0,0,1,.858.858v1.716a.858.858,0,0,1-.858.858H42.532a.858.858,0,0,1-.858-.858v-1.716A.858.858,0,0,1,42.532,186.733Z" transform="translate(-38.243 -168.72)" fill="#fff"/>
        <path id="Trazado_906778" data-name="Trazado 906778" d="M348.176,343.923a8.584,8.584,0,0,1-9.109,4.923,8.733,8.733,0,0,1-2.256-.678,8.579,8.579,0,1,1,11.365-4.246Z" transform="translate(-299.199 -299.191)" fill="#2e7d32"/>
        <path id="Trazado_906779" data-name="Trazado 906779" d="M345.594,344.782a8.561,8.561,0,0,1-6.536,4.923,8.734,8.734,0,0,1-2.256-.678,7.992,7.992,0,1,1,8.792-4.246Z" transform="translate(-299.19 -300.05)" fill="#4caf50"/>
      </g>
      <g id="Grupo_1113796" data-name="Grupo 1113796" transform="translate(0.007)">
        <path id="Trazado_906780" data-name="Trazado 906780" d="M2.58,170.8H17.162a2.576,2.576,0,0,0,2.573-2.573V147.64a2.576,2.576,0,0,0-2.573-2.573H2.58A2.576,2.576,0,0,0,.007,147.64v20.586A2.576,2.576,0,0,0,2.58,170.8ZM1.722,147.64a.859.859,0,0,1,.858-.858H17.162a.859.859,0,0,1,.858.858v20.586a.859.859,0,0,1-.858.858H2.58a.859.859,0,0,1-.858-.858V147.64Z" transform="translate(-0.007 -130.485)"/>
        <path id="Trazado_906781" data-name="Trazado 906781" d="M123.07,11.955a.842.842,0,0,0-.044-.22.825.825,0,0,0-.029-.081.847.847,0,0,0-.168-.251L111.679.251a.847.847,0,0,0-.251-.168,1.072,1.072,0,0,0-.3-.073c-.018,0-.035-.011-.053-.011H87.913A2.576,2.576,0,0,0,85.34,2.573v9.435a.858.858,0,0,0,1.715,0V2.573a.859.859,0,0,1,.858-.858h22.3v8.577a2.576,2.576,0,0,0,2.573,2.573h8.577v20.1a9.425,9.425,0,0,0-7.988,16.784H87.913a.859.859,0,0,1-.858-.858v-6a.858.858,0,1,0-1.715,0v6a2.576,2.576,0,0,0,2.573,2.573h30.835l.032,0a9.428,9.428,0,0,0,4.3-17.827V12.009C123.081,11.99,123.072,11.973,123.07,11.955Zm-10.282-.8a.859.859,0,0,1-.858-.858V2.928l8.222,8.222Zm13.03,34.086A7.719,7.719,0,1,1,122,35.009,7.719,7.719,0,0,1,125.818,45.237Z" transform="translate(-76.763)"/>
        <path id="Trazado_906782" data-name="Trazado 906782" d="M106.695,247.467h-2.573a1.717,1.717,0,0,0-1.716,1.716V250.9a1.717,1.717,0,0,0,1.716,1.716h2.573a1.717,1.717,0,0,0,1.716-1.716v-1.716A1.717,1.717,0,0,0,106.695,247.467Zm0,3.431h-2.573v-1.716h2.573Z" transform="translate(-92.113 -222.592)"/>
        <path id="Trazado_906783" data-name="Trazado 906783" d="M106.695,315.733h-2.573a1.717,1.717,0,0,0-1.716,1.716v1.716a1.717,1.717,0,0,0,1.716,1.716h2.573a1.717,1.717,0,0,0,1.716-1.716v-1.716A1.717,1.717,0,0,0,106.695,315.733Zm0,3.431h-2.573v-1.716h2.574Z" transform="translate(-92.113 -283.996)"/>
        <path id="Trazado_906784" data-name="Trazado 906784" d="M35,250.9h.858v.858a.858.858,0,1,0,1.715,0V250.9h.858a.858.858,0,1,0,0-1.715h-.858v-.858a.858.858,0,1,0-1.715,0v.858H35a.858.858,0,0,0,0,1.716Z" transform="translate(-30.709 -222.592)"/>
        <path id="Trazado_906785" data-name="Trazado 906785" d="M35,334.516h3.431a.858.858,0,0,0,0-1.715H35a.858.858,0,0,0,0,1.715Z" transform="translate(-30.709 -299.349)"/>
        <path id="Trazado_906786" data-name="Trazado 906786" d="M214.2,163.849h19.728a.858.858,0,0,0,0-1.715H214.2a.858.858,0,1,0,0,1.715Z" transform="translate(-191.896 -145.837)"/>
        <path id="Trazado_906787" data-name="Trazado 906787" d="M214.2,215.049h19.728a.858.858,0,0,0,0-1.715H214.2a.858.858,0,1,0,0,1.715Z" transform="translate(-191.896 -191.89)"/>
        <path id="Trazado_906788" data-name="Trazado 906788" d="M214.2,266.249h19.728a.858.858,0,1,0,0-1.715H214.2a.858.858,0,1,0,0,1.715Z" transform="translate(-191.896 -237.944)"/>
        <path id="Trazado_906789" data-name="Trazado 906789" d="M214.2,317.449h12.009a.858.858,0,1,0,0-1.715H214.2a.858.858,0,1,0,0,1.715Z" transform="translate(-191.896 -283.997)"/>
        <path id="Trazado_906790" data-name="Trazado 906790" d="M35.856,184.346h9.435a1.717,1.717,0,0,0,1.716-1.716v-1.716a1.717,1.717,0,0,0-1.716-1.716H35.856a1.717,1.717,0,0,0-1.716,1.716v1.716A1.717,1.717,0,0,0,35.856,184.346Zm0-3.431h9.435v1.716H35.856Z" transform="translate(-30.709 -161.186)"/>
        <path id="Trazado_906791" data-name="Trazado 906791" d="M383.359,364.5l.114-.25a.858.858,0,0,0-1.561-.712l-.114.249a3.614,3.614,0,0,0-1.648,0,2.638,2.638,0,0,0-1.765,3.867,3.623,3.623,0,0,0,1.077,1.248l-.967,2.12a1.78,1.78,0,0,1-.288-.4,1.053,1.053,0,0,1-.067-.894.858.858,0,1,0-1.56-.712,2.741,2.741,0,0,0,.1,2.38,3.62,3.62,0,0,0,1.077,1.248l-.114.25a.858.858,0,1,0,1.561.712l.11-.24a3.8,3.8,0,0,0,.807.089,3.456,3.456,0,0,0,.846-.1,2.638,2.638,0,0,0,1.765-3.867,3.622,3.622,0,0,0-1.077-1.248l.968-2.12a1.776,1.776,0,0,1,.288.4,1.053,1.053,0,0,1,.067.894.858.858,0,1,0,1.56.712,2.741,2.741,0,0,0-.1-2.38A3.618,3.618,0,0,0,383.359,364.5Zm-3.442,2.385a.931.931,0,0,1,.652-1.43,1.763,1.763,0,0,1,.488-.042l-.852,1.868a1.786,1.786,0,0,1-.288-.4Zm1.279,3.382a.931.931,0,0,1-.653,1.43,1.774,1.774,0,0,1-.488.042l.852-1.868a1.784,1.784,0,0,1,.288.4Z" transform="translate(-338.525 -326.549)"/>
      </g>
    </g>
  </g>
</svg>
