<svg xmlns="http://www.w3.org/2000/svg" xmlns:xlink="http://www.w3.org/1999/xlink" width="102.949" height="102.949" viewBox="0 0 102.949 102.949">
  <defs>
    <filter id="Trazado_874925" x="0" y="0" width="102.949" height="102.949" filterUnits="userSpaceOnUse">
      <feOffset dy="3" input="SourceAlpha"/>
      <feGaussianBlur stdDeviation="3" result="blur"/>
      <feFlood flood-opacity="0.161"/>
      <feComposite operator="in" in2="blur"/>
      <feComposite in="SourceGraphic"/>
    </filter>
  </defs>
  <g id="Grupo_1117968" data-name="Grupo 1117968" transform="translate(-906 -6405.095)">
    <g id="Grupo_1111316" data-name="Grupo 1111316" transform="translate(915 6411.095)">
      <g id="Grupo_1109835" data-name="Grupo 1109835" transform="translate(0 0)">
        <g id="Grupo_1107913" data-name="Grupo 1107913" transform="translate(0 0)">
          <g transform="matrix(1, 0, 0, 1, -9, -6)" filter="url(#Trazado_874925)">
            <g id="Trazado_874925-2" data-name="Trazado 874925" transform="translate(9 6)" fill="#9cc8ff" opacity="0.859">
              <path d="M 42.47446823120117 83.44929504394531 C 36.94229125976562 83.44929504394531 31.57638549804688 82.36614227294922 26.52582168579102 80.22994232177734 C 21.64678573608398 78.16628265380859 17.26464462280273 75.211669921875 13.50113868713379 71.44816589355469 C 9.737632751464844 67.68466949462891 6.78300952911377 63.30253982543945 4.719362258911133 58.42351913452148 C 2.583150625228882 53.37295150756836 1.499997615814209 48.00706100463867 1.499997615814209 42.47489547729492 C 1.499997615814209 36.94223403930664 2.583150625228882 31.57634162902832 4.719362258911133 26.52577781677246 C 6.78300952911377 21.64675331115723 9.737632751464844 17.26462364196777 13.50113868713379 13.50113010406494 C 17.26464462280273 9.737624168395996 21.64678573608398 6.783012390136719 26.52582168579102 4.719353199005127 C 31.57638549804688 2.583153486251831 36.94229125976562 1.500000476837158 42.47446823120117 1.500000476837158 C 48.00664520263672 1.500000476837158 53.37255096435547 2.583153486251831 58.42311477661133 4.719353199005127 C 63.30215072631836 6.783012390136719 67.68428802490234 9.737624168395996 71.44779968261719 13.50113010406494 C 75.2113037109375 17.26462364196777 78.16592407226562 21.64675331115723 80.22957611083984 26.52577781677246 C 82.36578369140625 31.57634162902832 83.44893646240234 36.94223403930664 83.44893646240234 42.47439956665039 C 83.44893646240234 48.00706100463867 82.36578369140625 53.37295150756836 80.22957611083984 58.42351913452148 C 78.16592407226562 63.30253982543945 75.2113037109375 67.68466949462891 71.44779968261719 71.44816589355469 C 67.68428802490234 75.211669921875 63.30215072631836 78.16628265380859 58.42311477661133 80.22994232177734 C 53.37255096435547 82.36614227294922 48.00664520263672 83.44929504394531 42.47446823120117 83.44929504394531 Z" stroke="none"/>
              <path d="M 42.47446823120117 2.999992370605469 C 37.14412307739258 2.999992370605469 31.97481536865234 4.04327392578125 27.11014938354492 6.100860595703125 C 22.40990829467773 8.088890075683594 18.18804168701172 10.93555450439453 14.56179809570312 14.56178283691406 C 10.93557739257812 18.18801116943359 8.088897705078125 22.40987396240234 6.100868225097656 27.11009979248047 C 4.043281555175781 31.97476577758789 3 37.14406204223633 3 42.47488784790039 C 3 47.80522155761719 4.043281555175781 52.97451400756836 6.100868225097656 57.83917999267578 C 8.088897705078125 62.53940582275391 10.93557739257812 66.76127624511719 14.56179809570312 70.38749694824219 C 18.18804168701172 74.01372528076172 22.40990829467773 76.86039733886719 27.11014938354492 78.84841918945312 C 31.97481536865234 80.906005859375 37.14412307739258 81.94928741455078 42.47446823120117 81.94928741455078 C 47.80481338500977 81.94928741455078 52.97412109375 80.906005859375 57.83879089355469 78.84841918945312 C 62.53902816772461 76.86039733886719 66.76089477539062 74.01372528076172 70.38713073730469 70.38749694824219 C 74.01335906982422 66.76127624511719 76.86003875732422 62.53940582275391 78.84806823730469 57.83917999267578 C 80.90565490722656 52.97451400756836 81.94893646240234 47.80522155761719 81.94893646240234 42.47439575195312 C 81.94893646240234 37.14406204223633 80.90565490722656 31.97476577758789 78.84806823730469 27.11009979248047 C 76.86003875732422 22.40987396240234 74.01335906982422 18.18801116943359 70.38713073730469 14.56178283691406 C 66.76089477539062 10.93555450439453 62.53902816772461 8.088890075683594 57.83879089355469 6.100860595703125 C 52.97412109375 4.04327392578125 47.80481338500977 2.999992370605469 42.47446823120117 2.999992370605469 M 42.47446823120117 -7.62939453125e-06 C 65.93246459960938 -7.62939453125e-06 84.94893646240234 19.01643371582031 84.94893646240234 42.47439575195312 L 84.94893646240234 42.47488784790039 C 84.94893646240234 65.93284606933594 65.93246459960938 84.94928741455078 42.47446823120117 84.94928741455078 C 19.01647186279297 84.94928741455078 0 65.93284606933594 0 42.47488784790039 L 0 42.47439575195312 C 0 19.01643371582031 19.01647186279297 -7.62939453125e-06 42.47446823120117 -7.62939453125e-06 Z" stroke="none" fill="#fff"/>
            </g>
          </g>
          <g id="Trazado_874923" data-name="Trazado 874923" transform="translate(0 0)" fill="none">
            <path d="M42.474,0A42.474,42.474,0,0,1,84.949,42.474h0A42.474,42.474,0,0,1,0,42.475H0A42.474,42.474,0,0,1,42.474,0Z" stroke="none"/>
            <path d="M 42.47446823120117 2.999992370605469 C 37.14412307739258 2.999992370605469 31.97481536865234 4.04327392578125 27.11014938354492 6.100860595703125 C 22.40990829467773 8.088890075683594 18.18804168701172 10.93555450439453 14.56179809570312 14.56178283691406 C 10.93557739257812 18.18801116943359 8.088897705078125 22.40987396240234 6.100868225097656 27.11009979248047 C 4.043281555175781 31.97476577758789 3 37.14406204223633 3 42.47488784790039 C 3 47.80522155761719 4.043281555175781 52.97451400756836 6.100868225097656 57.83917999267578 C 8.088897705078125 62.53940582275391 10.93557739257812 66.76127624511719 14.56179809570312 70.38749694824219 C 18.18804168701172 74.01372528076172 22.40990829467773 76.86039733886719 27.11014938354492 78.84841918945312 C 31.97481536865234 80.906005859375 37.14412307739258 81.94928741455078 42.47446823120117 81.94928741455078 C 47.80481338500977 81.94928741455078 52.97412109375 80.906005859375 57.83879089355469 78.84841918945312 C 62.53902816772461 76.86039733886719 66.76089477539062 74.01372528076172 70.38713073730469 70.38749694824219 C 74.01335906982422 66.76127624511719 76.86003875732422 62.53940582275391 78.84806823730469 57.83917999267578 C 80.90565490722656 52.97451400756836 81.94893646240234 47.80522155761719 81.94893646240234 42.47439575195312 C 81.94893646240234 37.14406204223633 80.90565490722656 31.97476577758789 78.84806823730469 27.11009979248047 C 76.86003875732422 22.40987396240234 74.01335906982422 18.18801116943359 70.38713073730469 14.56178283691406 C 66.76089477539062 10.93555450439453 62.53902816772461 8.088890075683594 57.83879089355469 6.100860595703125 C 52.97412109375 4.04327392578125 47.80481338500977 2.999992370605469 42.47446823120117 2.999992370605469 M 42.47446823120117 -7.62939453125e-06 C 65.93246459960938 -7.62939453125e-06 84.94893646240234 19.01643371582031 84.94893646240234 42.47439575195312 L 84.94893646240234 42.47488784790039 C 84.94893646240234 65.93284606933594 65.93246459960938 84.94928741455078 42.47446823120117 84.94928741455078 C 19.01647186279297 84.94928741455078 0 65.93284606933594 0 42.47488784790039 L 0 42.47439575195312 C 0 19.01643371582031 19.01647186279297 -7.62939453125e-06 42.47446823120117 -7.62939453125e-06 Z" stroke="none" fill="#fff"/>
          </g>
        </g>
      </g>
    </g>
    <g id="_16._Financial" data-name="16. Financial" transform="translate(925.076 6430.353)">
      <rect id="Rectángulo_405046" data-name="Rectángulo 405046" width="33" height="42" rx="16.5" transform="translate(8.424 1.212)" fill="#eaf2ff"/>
      <path id="Trazado_909534" data-name="Trazado 909534" d="M45.939,387.151H19.151A3.151,3.151,0,0,1,16,384v2.364a3.151,3.151,0,0,0,3.151,3.151H45.939a3.151,3.151,0,0,0,3.151-3.151V384A3.151,3.151,0,0,1,45.939,387.151Z" transform="translate(-7.212 -346.182)" fill="#dcdcdc"/>
      <path id="Trazado_909535" data-name="Trazado 909535" d="M30.06,44.12H11.939A3.939,3.939,0,0,1,8,40.181V3.939A3.939,3.939,0,0,1,11.939,0H38.727a3.939,3.939,0,0,1,3.939,3.939V22.848a.788.788,0,1,1-1.576,0V3.939a2.364,2.364,0,0,0-2.364-2.364H11.939A2.364,2.364,0,0,0,9.576,3.939V40.181a2.364,2.364,0,0,0,2.364,2.364H30.06a.788.788,0,0,1,0,1.576Z"/>
      <path id="Trazado_909536" data-name="Trazado 909536" d="M269.515,289.333h-4.727a.788.788,0,0,1,0-1.576h4.727a2.364,2.364,0,0,0,2.364-2.364V272.788a.788.788,0,1,1,1.576,0v12.606A3.939,3.939,0,0,1,269.515,289.333Z" transform="translate(-230.788 -245.213)"/>
      <path id="Trazado_909537" data-name="Trazado 909537" d="M56,48H81.212V59.03H56Z" transform="translate(-43.273 -43.273)" fill="#a8edfd"/>
      <path id="Trazado_909538" data-name="Trazado 909538" d="M56,48H81.212v2.364H56Z" transform="translate(-43.273 -43.273)" fill="#8bd4de"/>
      <path id="Trazado_909539" data-name="Trazado 909539" d="M74,52.606H48.788A.788.788,0,0,1,48,51.818V40.788A.788.788,0,0,1,48.788,40H74a.788.788,0,0,1,.788.788v11.03A.788.788,0,0,1,74,52.606ZM49.576,51.03H73.212V41.576H49.576Z" transform="translate(-36.061 -36.061)"/>
      <path id="Trazado_909540" data-name="Trazado 909540" d="M56,192h6.3v4.727H56Z" transform="translate(-43.273 -173.091)" fill="#5f79a5"/>
      <path id="Trazado_909541" data-name="Trazado 909541" d="M56,216h6.3v2.364H56Z" transform="translate(-43.273 -194.728)" fill="#586f99"/>
      <path id="Trazado_909542" data-name="Trazado 909542" d="M55.091,190.3h-6.3a.788.788,0,0,1-.788-.788v-4.727a.788.788,0,0,1,.788-.788h6.3a.788.788,0,0,1,.788.788v4.727A.788.788,0,0,1,55.091,190.3Zm-5.515-1.576H54.3v-3.151H49.576Z" transform="translate(-36.061 -165.879)"/>
      <path id="Trazado_909543" data-name="Trazado 909543" d="M152,192h6.3v4.727H152Z" transform="translate(-129.818 -173.091)" fill="#5f79a5"/>
      <path id="Trazado_909544" data-name="Trazado 909544" d="M152,216h6.3v2.364H152Z" transform="translate(-129.818 -194.728)" fill="#586f99"/>
      <path id="Trazado_909545" data-name="Trazado 909545" d="M151.091,190.3h-6.3a.788.788,0,0,1-.788-.788v-4.727a.788.788,0,0,1,.788-.788h6.3a.788.788,0,0,1,.788.788v4.727A.788.788,0,0,1,151.091,190.3Zm-5.515-1.576H150.3v-3.151h-4.727Z" transform="translate(-122.606 -165.879)"/>
      <path id="Trazado_909546" data-name="Trazado 909546" d="M248,192h6.3v4.727H248Z" transform="translate(-216.364 -173.091)" fill="#5f79a5"/>
      <path id="Trazado_909547" data-name="Trazado 909547" d="M248,216h6.3v2.364H248Z" transform="translate(-216.364 -194.728)" fill="#586f99"/>
      <path id="Trazado_909548" data-name="Trazado 909548" d="M247.091,190.3h-6.3a.788.788,0,0,1-.788-.788v-4.727a.788.788,0,0,1,.788-.788h6.3a.788.788,0,0,1,.788.788v4.727A.788.788,0,0,1,247.091,190.3Zm-5.515-1.576H246.3v-3.151h-4.727Z" transform="translate(-209.152 -165.879)"/>
      <path id="Trazado_909549" data-name="Trazado 909549" d="M56,272h6.3v4.727H56Z" transform="translate(-43.273 -245.213)" fill="#5f79a5"/>
      <path id="Trazado_909550" data-name="Trazado 909550" d="M56,296h6.3v2.364H56Z" transform="translate(-43.273 -266.849)" fill="#586f99"/>
      <path id="Trazado_909551" data-name="Trazado 909551" d="M55.091,270.3h-6.3a.788.788,0,0,1-.788-.788v-4.727a.788.788,0,0,1,.788-.788h6.3a.788.788,0,0,1,.788.788v4.727A.788.788,0,0,1,55.091,270.3Zm-5.515-1.576H54.3v-3.151H49.576Z" transform="translate(-36.061 -238)"/>
      <path id="Trazado_909552" data-name="Trazado 909552" d="M152,272h6.3v4.727H152Z" transform="translate(-129.818 -245.213)" fill="#5f79a5"/>
      <path id="Trazado_909553" data-name="Trazado 909553" d="M152,296h6.3v2.364H152Z" transform="translate(-129.818 -266.849)" fill="#586f99"/>
      <path id="Trazado_909554" data-name="Trazado 909554" d="M151.091,270.3h-6.3a.788.788,0,0,1-.788-.788v-4.727a.788.788,0,0,1,.788-.788h6.3a.788.788,0,0,1,.788.788v4.727A.788.788,0,0,1,151.091,270.3Zm-5.515-1.576H150.3v-3.151h-4.727Z" transform="translate(-122.606 -238)"/>
      <path id="Trazado_909555" data-name="Trazado 909555" d="M248,272h6.3v4.727H248Z" transform="translate(-216.364 -245.213)" fill="#5f79a5"/>
      <path id="Trazado_909556" data-name="Trazado 909556" d="M248,296h6.3v2.364H248Z" transform="translate(-216.364 -266.849)" fill="#586f99"/>
      <path id="Trazado_909557" data-name="Trazado 909557" d="M247.091,270.3h-6.3a.788.788,0,0,1-.788-.788v-4.727a.788.788,0,0,1,.788-.788h6.3a.788.788,0,0,1,.788.788v4.727A.788.788,0,0,1,247.091,270.3Zm-5.515-1.576H246.3v-3.151h-4.727Z" transform="translate(-209.152 -238)"/>
      <path id="Trazado_909558" data-name="Trazado 909558" d="M56,352h6.3v4.727H56Z" transform="translate(-43.273 -317.334)" fill="#5f79a5"/>
      <path id="Trazado_909559" data-name="Trazado 909559" d="M56,376h6.3v2.364H56Z" transform="translate(-43.273 -338.97)" fill="#586f99"/>
      <path id="Trazado_909560" data-name="Trazado 909560" d="M55.091,350.3h-6.3a.788.788,0,0,1-.788-.788v-4.727a.788.788,0,0,1,.788-.788h6.3a.788.788,0,0,1,.788.788v4.727A.788.788,0,0,1,55.091,350.3Zm-5.515-1.576H54.3v-3.151H49.576Z" transform="translate(-36.061 -310.122)"/>
      <path id="Trazado_909561" data-name="Trazado 909561" d="M152,352h6.3v4.727H152Z" transform="translate(-129.818 -317.334)" fill="#5f79a5"/>
      <path id="Trazado_909562" data-name="Trazado 909562" d="M152,376h6.3v2.364H152Z" transform="translate(-129.818 -338.97)" fill="#586f99"/>
      <path id="Trazado_909563" data-name="Trazado 909563" d="M151.091,350.3h-6.3a.788.788,0,0,1-.788-.788v-4.727a.788.788,0,0,1,.788-.788h6.3a.788.788,0,0,1,.788.788v4.727A.788.788,0,0,1,151.091,350.3Zm-5.515-1.576H150.3v-3.151h-4.727Z" transform="translate(-122.606 -310.122)"/>
      <path id="Trazado_909564" data-name="Trazado 909564" d="M90.364,121.576H88.788a.788.788,0,0,1,0-1.576h1.576a.788.788,0,0,1,0,1.576Z" transform="translate(-72.121 -108.182)"/>
      <path id="Trazado_909565" data-name="Trazado 909565" d="M138.364,121.576h-1.576a.788.788,0,0,1,0-1.576h1.576a.788.788,0,1,1,0,1.576Z" transform="translate(-115.394 -108.182)"/>
      <path id="Trazado_909566" data-name="Trazado 909566" d="M186.364,121.576h-1.576a.788.788,0,0,1,0-1.576h1.576a.788.788,0,1,1,0,1.576Z" transform="translate(-158.667 -108.182)"/>
      <path id="Trazado_909567" data-name="Trazado 909567" d="M234.364,121.576h-1.576a.788.788,0,0,1,0-1.576h1.576a.788.788,0,1,1,0,1.576Z" transform="translate(-201.94 -108.182)"/>
      <ellipse id="Elipse_11791" data-name="Elipse 11791" cx="12" cy="11.5" rx="12" ry="11.5" transform="translate(32.424 26.212)" fill="#e9a648"/>
      <path id="Trazado_909568" data-name="Trazado 909568" d="M267.816,382.635A11.818,11.818,0,0,1,256.057,372a11.818,11.818,0,1,0,23.518,0A11.818,11.818,0,0,1,267.816,382.635Z" transform="translate(-223.574 -335.363)" fill="#d08840"/>
      <path id="Trazado_909569" data-name="Trazado 909569" d="M260.606,281.212a12.606,12.606,0,1,1,12.606-12.606A12.606,12.606,0,0,1,260.606,281.212Zm0-23.636a11.03,11.03,0,1,0,11.03,11.03A11.03,11.03,0,0,0,260.606,257.576Z" transform="translate(-216.364 -230.788)"/>
      <circle id="Elipse_11792" data-name="Elipse 11792" cx="8.5" cy="8.5" r="8.5" transform="translate(35.424 29.212)" fill="#ead590"/>
      <path id="Trazado_909570" data-name="Trazado 909570" d="M296.664,379.483A8.667,8.667,0,0,1,288.078,372a8.667,8.667,0,1,0,17.172,0,8.667,8.667,0,0,1-8.586,7.485Z" transform="translate(-252.422 -335.362)" fill="#f1cb66"/>
      <path id="Trazado_909571" data-name="Trazado 909571" d="M289.454,306.909a9.454,9.454,0,1,1,9.454-9.454A9.454,9.454,0,0,1,289.454,306.909Zm0-17.333a7.879,7.879,0,1,0,7.879,7.879A7.879,7.879,0,0,0,289.454,289.576Z" transform="translate(-245.213 -259.637)"/>
      <path id="Trazado_909572" data-name="Trazado 909572" d="M354.364,351.879h-1.576a.788.788,0,0,1,0-1.576h1.576a.788.788,0,1,0,0-1.576,2.364,2.364,0,0,1,0-4.727h1.576a.788.788,0,0,1,0,1.576h-1.576a.788.788,0,0,0,0,1.576,2.364,2.364,0,1,1,0,4.727Z" transform="translate(-310.122 -310.122)"/>
      <path id="Trazado_909573" data-name="Trazado 909573" d="M368.788,331.151a.788.788,0,0,1-.788-.788v-1.576a.788.788,0,0,1,1.576,0v1.576A.788.788,0,0,1,368.788,331.151Z" transform="translate(-324.546 -295.698)"/>
      <path id="Trazado_909574" data-name="Trazado 909574" d="M368.788,411.151a.788.788,0,0,1-.788-.788v-1.576a.788.788,0,1,1,1.576,0v1.576A.788.788,0,0,1,368.788,411.151Z" transform="translate(-324.546 -367.819)"/>
    </g>
  </g>
</svg>
