<svg xmlns="http://www.w3.org/2000/svg" xmlns:xlink="http://www.w3.org/1999/xlink" width="117.999" height="118" viewBox="0 0 117.999 118">
  <defs>
    <filter id="Trazado_874925" x="0" y="0" width="117.999" height="118" filterUnits="userSpaceOnUse">
      <feOffset dy="3" input="SourceAlpha"/>
      <feGaussianBlur stdDeviation="3" result="blur"/>
      <feFlood flood-opacity="0.161"/>
      <feComposite operator="in" in2="blur"/>
      <feComposite in="SourceGraphic"/>
    </filter>
  </defs>
  <g id="Grupo_1112508" data-name="Grupo 1112508" transform="translate(-793.782 -1933.999)">
    <g id="Grupo_1111552" data-name="Grupo 1111552" transform="translate(-5.719 -577.158)">
      <g id="Grupo_1111316" data-name="Grupo 1111316" transform="translate(808.5 2517.157)">
        <g id="Grupo_1109835" data-name="Grupo 1109835" transform="translate(0 0)">
          <g id="Grupo_1107913" data-name="Grupo 1107913" transform="translate(0 0)">
            <g transform="matrix(1, 0, 0, 1, -9, -6)" filter="url(#Trazado_874925)">
              <g id="Trazado_874925-2" data-name="Trazado 874925" transform="translate(9 6)" fill="#9cc8ff" opacity="0.859">
                <path d="M 49.99972534179688 98.4998779296875 C 43.45164108276367 98.4998779296875 37.10022354125977 97.21776580810547 31.12189674377441 94.68914794921875 C 25.34676742553711 92.24647521972656 20.15985298156738 88.74925994873047 15.70523929595947 84.29464721679688 C 11.25062561035156 79.84004974365234 7.753411293029785 74.65313720703125 5.310725212097168 68.87800598144531 C 2.782111167907715 62.89969253540039 1.499996781349182 56.54829406738281 1.499996781349182 50.00022125244141 C 1.499996781349182 43.45157623291016 2.782111167907715 37.10017776489258 5.310725212097168 31.12186431884766 C 7.753411293029785 25.34673500061035 11.25062561035156 20.15983581542969 15.70523929595947 15.70522117614746 C 20.15985298156738 11.25062084197998 25.34676742553711 7.753406524658203 31.12189674377441 5.31073522567749 C 37.10022354125977 2.782120943069458 43.45164108276367 1.500006556510925 49.99972534179688 1.500006556510925 C 56.54780960083008 1.500006556510925 62.89922714233398 2.782120943069458 68.87755584716797 5.31073522567749 C 74.65267944335938 7.753406524658203 79.839599609375 11.25062084197998 84.29421234130859 15.70522117614746 C 88.74882507324219 20.15983581542969 92.24604034423828 25.34673500061035 94.68872833251953 31.12186431884766 C 97.21733856201172 37.10017776489258 98.49945068359375 43.45157623291016 98.49945068359375 49.99964904785156 C 98.49945068359375 56.54829406738281 97.21733856201172 62.89969253540039 94.68872833251953 68.87800598144531 C 92.24604034423828 74.65313720703125 88.74882507324219 79.84004974365234 84.29421234130859 84.29464721679688 C 79.839599609375 88.74925994873047 74.65267944335938 92.24647521972656 68.87755584716797 94.68914794921875 C 62.89922714233398 97.21776580810547 56.54780960083008 98.4998779296875 49.99972534179688 98.4998779296875 Z" stroke="none"/>
                <path d="M 49.99972534179688 3 C 43.65348052978516 3 37.49866485595703 4.242240905761719 31.70623016357422 6.692230224609375 C 26.10989379882812 9.059272766113281 21.08323669433594 12.44853210449219 16.76589202880859 16.76587677001953 C 12.44855499267578 21.08321380615234 9.059295654296875 26.10985565185547 6.692230224609375 31.70618438720703 C 4.24224853515625 37.49859619140625 3 43.65341186523438 3 50.00022888183594 C 3 56.34645843505859 4.24224853515625 62.50127410888672 6.692230224609375 68.29368591308594 C 9.059295654296875 73.8900146484375 12.44855499267578 78.91665649414062 16.76589202880859 83.23399353027344 C 21.08323669433594 87.55132293701172 26.10989379882812 90.94059753417969 31.70623016357422 93.30764007568359 C 37.49866485595703 95.75762939453125 43.65348052978516 96.99987030029297 49.99972534179688 96.99987030029297 C 56.34597015380859 96.99987030029297 62.50078582763672 95.75762939453125 68.293212890625 93.30764007568359 C 73.88955688476562 90.94059753417969 78.91621398925781 87.55132293701172 83.23355865478516 83.23399353027344 C 87.55089569091797 78.91665649414062 90.94015502929688 73.8900146484375 93.30722045898438 68.29368591308594 C 95.7572021484375 62.50127410888672 96.99945068359375 56.34645843505859 96.99945068359375 49.99964141845703 C 96.99945068359375 43.65341186523438 95.7572021484375 37.49859619140625 93.30722045898438 31.70618438720703 C 90.94015502929688 26.10985565185547 87.55089569091797 21.08321380615234 83.23355865478516 16.76587677001953 C 78.91621398925781 12.44853210449219 73.88955688476562 9.059272766113281 68.293212890625 6.692230224609375 C 62.50078582763672 4.242240905761719 56.34597015380859 3 49.99972534179688 3 M 49.99972534179688 0 C 77.61381530761719 0 99.99945068359375 22.38559722900391 99.99945068359375 49.99964141845703 L 99.99945068359375 50.00022888183594 C 99.99945068359375 77.6142578125 77.61381530761719 99.99987030029297 49.99972534179688 99.99987030029297 C 22.38563537597656 99.99987030029297 0 77.6142578125 0 50.00022888183594 L 0 49.99964141845703 C 0 22.38559722900391 22.38563537597656 0 49.99972534179688 0 Z" stroke="none" fill="#fff"/>
              </g>
            </g>
            <g id="Trazado_874923" data-name="Trazado 874923" transform="translate(0 0)" fill="none">
              <path d="M50,0a50,50,0,0,1,50,50h0A50,50,0,0,1,0,50H0A50,50,0,0,1,50,0Z" stroke="none"/>
              <path d="M 49.99972534179688 3 C 43.65348052978516 3 37.49866485595703 4.242240905761719 31.70623016357422 6.692230224609375 C 26.10989379882812 9.059272766113281 21.08323669433594 12.44853210449219 16.76589202880859 16.76587677001953 C 12.44855499267578 21.08321380615234 9.059295654296875 26.10985565185547 6.692230224609375 31.70618438720703 C 4.24224853515625 37.49859619140625 3 43.65341186523438 3 50.00022888183594 C 3 56.34645843505859 4.24224853515625 62.50127410888672 6.692230224609375 68.29368591308594 C 9.059295654296875 73.8900146484375 12.44855499267578 78.91665649414062 16.76589202880859 83.23399353027344 C 21.08323669433594 87.55132293701172 26.10989379882812 90.94059753417969 31.70623016357422 93.30764007568359 C 37.49866485595703 95.75762939453125 43.65348052978516 96.99987030029297 49.99972534179688 96.99987030029297 C 56.34597015380859 96.99987030029297 62.50078582763672 95.75762939453125 68.293212890625 93.30764007568359 C 73.88955688476562 90.94059753417969 78.91621398925781 87.55132293701172 83.23355865478516 83.23399353027344 C 87.55089569091797 78.91665649414062 90.94015502929688 73.8900146484375 93.30722045898438 68.29368591308594 C 95.7572021484375 62.50127410888672 96.99945068359375 56.34645843505859 96.99945068359375 49.99964141845703 C 96.99945068359375 43.65341186523438 95.7572021484375 37.49859619140625 93.30722045898438 31.70618438720703 C 90.94015502929688 26.10985565185547 87.55089569091797 21.08321380615234 83.23355865478516 16.76587677001953 C 78.91621398925781 12.44853210449219 73.88955688476562 9.059272766113281 68.293212890625 6.692230224609375 C 62.50078582763672 4.242240905761719 56.34597015380859 3 49.99972534179688 3 M 49.99972534179688 0 C 77.61381530761719 0 99.99945068359375 22.38559722900391 99.99945068359375 49.99964141845703 L 99.99945068359375 50.00022888183594 C 99.99945068359375 77.6142578125 77.61381530761719 99.99987030029297 49.99972534179688 99.99987030029297 C 22.38563537597656 99.99987030029297 0 77.6142578125 0 50.00022888183594 L 0 49.99964141845703 C 0 22.38559722900391 22.38563537597656 0 49.99972534179688 0 Z" stroke="none" fill="#fff"/>
            </g>
          </g>
        </g>
      </g>
    </g>
    <g id="Grupo_1114791" data-name="Grupo 1114791" transform="translate(826.832 1963.111)">
      <g id="Grupo_1114807" data-name="Grupo 1114807" transform="translate(0.864 0.864)">
        <g id="Grupo_1114791-2" data-name="Grupo 1114791">
          <circle id="Elipse_11667" data-name="Elipse 11667" cx="12" cy="12" r="12" transform="translate(0.136 0.136)" fill="#ffc729"/>
        </g>
        <g id="Grupo_1114792" data-name="Grupo 1114792" transform="translate(3.456 3.456)">
          <circle id="Elipse_11668" data-name="Elipse 11668" cx="9" cy="9" r="9" transform="translate(-0.32 -0.32)" fill="#fcd770"/>
        </g>
        <g id="Grupo_1114793" data-name="Grupo 1114793" transform="translate(37.151 15.552)">
          <path id="Trazado_907498" data-name="Trazado 907498" d="M44,19h5.184V31.1H44Z" transform="translate(-44 -19)" fill="#e6e9ed"/>
        </g>
        <g id="Grupo_1114794" data-name="Grupo 1114794" transform="translate(28.511 15.552)">
          <path id="Trazado_907499" data-name="Trazado 907499" d="M34,19h5.184V31.1H34Z" transform="translate(-34 -19)" fill="#e6e9ed"/>
        </g>
        <g id="Grupo_1114795" data-name="Grupo 1114795" transform="translate(42.335 15.552)">
          <path id="Trazado_907500" data-name="Trazado 907500" d="M53.456,19.855V31.1H50V19h2.315Z" transform="translate(-50 -19)" fill="#ccd1d9"/>
        </g>
        <g id="Grupo_1114796" data-name="Grupo 1114796" transform="translate(33.695 15.552)">
          <path id="Trazado_907501" data-name="Trazado 907501" d="M40,19h3.456V31.1H40Z" transform="translate(-40 -19)" fill="#ccd1d9"/>
        </g>
        <g id="Grupo_1114797" data-name="Grupo 1114797" transform="translate(25.055 15.552)">
          <path id="Trazado_907502" data-name="Trazado 907502" d="M31.14,19h2.315V31.1H30V19.855Z" transform="translate(-30 -19)" fill="#ccd1d9"/>
        </g>
        <g id="Grupo_1114798" data-name="Grupo 1114798" transform="translate(23.327 27.647)">
          <path id="Trazado_907503" data-name="Trazado 907503" d="M52.191,34.728v1.728H28V34.728A1.733,1.733,0,0,1,29.728,33H50.463A1.727,1.727,0,0,1,52.191,34.728Z" transform="translate(-28 -33)" fill="#aab2bd"/>
        </g>
        <g id="Grupo_1114799" data-name="Grupo 1114799" transform="translate(21.6 5.184)">
          <path id="Trazado_907504" data-name="Trazado 907504" d="M27.434,19.07a1.712,1.712,0,0,1-1.175-.786,1.744,1.744,0,0,1,.553-2.385l1.771-1.3,9.651-7.128a2.942,2.942,0,0,1,3.179,0L52.835,15.9a1.737,1.737,0,0,1,.553,2.385,1.717,1.717,0,0,1-1.469.812A1.787,1.787,0,0,1,51,18.836l-.812-.6v-.009l-1.14-.855h-.009l-9.219-6.912-9.219,6.912H30.6l-1.14.855v.009l-.812.6a1.787,1.787,0,0,1-.916.259A1.616,1.616,0,0,1,27.434,19.07Z" transform="translate(-26.001 -7)" fill="#ef7385"/>
        </g>
        <g id="Grupo_1114800" data-name="Grupo 1114800" transform="translate(26.204 8.64)">
          <path id="Trazado_907505" data-name="Trazado 907505" d="M31.33,17.912,40.549,11l9.219,6.912H31.33Z" transform="translate(-31.33 -11)" fill="#ed5565"/>
        </g>
        <g id="Grupo_1114801" data-name="Grupo 1114801" transform="translate(19.007 31.103)">
          <path id="Trazado_907506" data-name="Trazado 907506" d="M23,56.007V38.728A1.733,1.733,0,0,1,24.728,37H54.1a1.733,1.733,0,0,1,1.728,1.728V56.007A1.733,1.733,0,0,1,54.1,57.735H24.728A1.733,1.733,0,0,1,23,56.007Z" transform="translate(-23 -37)" fill="#d3a06c"/>
        </g>
        <g id="Grupo_1114802" data-name="Grupo 1114802" transform="translate(43.199 34.559)">
          <path id="Trazado_907507" data-name="Trazado 907507" d="M51,41h5.184v3.456H51Z" transform="translate(-51 -41)" fill="#e6e9ed"/>
        </g>
        <g id="Grupo_1114803" data-name="Grupo 1114803" transform="translate(34.559 34.559)">
          <path id="Trazado_907508" data-name="Trazado 907508" d="M41,41h5.184v3.456H41Z" transform="translate(-41 -41)" fill="#e6e9ed"/>
        </g>
        <g id="Grupo_1114804" data-name="Grupo 1114804" transform="translate(38.015 43.199)">
          <path id="Trazado_907509" data-name="Trazado 907509" d="M45,51H55.368v5.184H45Z" transform="translate(-45 -51)" fill="#ef7385"/>
        </g>
        <g id="Grupo_1114805" data-name="Grupo 1114805" transform="translate(22.463 34.559)">
          <path id="Trazado_907510" data-name="Trazado 907510" d="M27,41v3.456h5.184v3.456H35.64V41Z" transform="translate(-27 -41)" fill="#fcd770"/>
        </g>
        <g id="Grupo_1114806" data-name="Grupo 1114806" transform="translate(22.463 38.015)">
          <path id="Trazado_907511" data-name="Trazado 907511" d="M27,45h5.184v3.456H27Z" transform="translate(-27 -45)" fill="#ffc729"/>
        </g>
      </g>
      <g id="Grupo_1114808" data-name="Grupo 1114808" transform="translate(0 0)">
        <path id="Trazado_907512" data-name="Trazado 907512" d="M50.974,31.1H49.247v-.864a2.588,2.588,0,0,0-1.728-2.433V18.852a2.587,2.587,0,0,0,2.293-4.6L38.346,5.787a3.819,3.819,0,0,0-4.162.033l-8.315,6.144a12.949,12.949,0,1,0-1.445,7.028,2.477,2.477,0,0,0,.632-.143v8.959a2.588,2.588,0,0,0-1.728,2.433V31.1H21.6a2.6,2.6,0,0,0-2.592,2.592V50.974A2.6,2.6,0,0,0,21.6,53.566H50.974a2.6,2.6,0,0,0,2.592-2.592V33.695A2.6,2.6,0,0,0,50.974,31.1ZM27.352,17.279h1.16V27.647H26.784V17.7Zm2.306-1.728,6.63-4.969,6.634,4.969Zm.582,1.728H33.7V27.647H30.24Zm5.184,0h1.728V27.647H35.424Zm3.456,0h3.456V27.647H38.88Zm5.184,0H45.23l.562.421v9.947H44.064Zm-8.9-10.039a2.1,2.1,0,0,1,2.2-.032L48.84,15.681a.866.866,0,0,1,.274,1.192.856.856,0,0,1-.732.406.889.889,0,0,1-.4-.09l-11.7-8.766L24.652,17.147a.867.867,0,1,1-.864-1.5ZM24.184,13.207l-1.369,1.011a2.555,2.555,0,0,0-.1,4.305,11.172,11.172,0,0,1-1.232,1.738L19.07,17.847l-.611.611a7.776,7.776,0,1,1,2.236-6.294l1.719-.175a9.453,9.453,0,0,0-2.15-5.113l1.215-1.215a11.169,11.169,0,0,1,2.712,7.3c0,.083-.005.165-.007.247ZM19.043,5.655A9.463,9.463,0,0,0,13.824,3.5V1.772A11.168,11.168,0,0,1,20.258,4.44ZM12.1,3.5A9.464,9.464,0,0,0,6.882,5.661L5.662,4.44A11.168,11.168,0,0,1,12.1,1.772ZM5.661,6.882A9.457,9.457,0,0,0,3.5,12.1H1.772A11.168,11.168,0,0,1,4.44,5.662ZM3.5,13.824a9.464,9.464,0,0,0,2.161,5.213L4.439,20.258a11.172,11.172,0,0,1-2.667-6.435Zm3.382,6.435A9.455,9.455,0,0,0,12.1,22.419v1.728a11.168,11.168,0,0,1-6.434-2.668Zm6.941,2.165a9.415,9.415,0,0,0,5.218-2.16l1.22,1.22a11.285,11.285,0,0,1-6.438,2.672Zm11.233,7.816a.864.864,0,0,1,.864-.864H46.655a.864.864,0,0,1,.864.864V31.1H25.056ZM51.838,50.974a.864.864,0,0,1-.864.864H21.6a.864.864,0,0,1-.864-.864V33.695a.864.864,0,0,1,.864-.864H50.974a.864.864,0,0,1,.864.864Z" transform="translate(0 0)"/>
        <path id="Trazado_907513" data-name="Trazado 907513" d="M44,56.912H56.1V50H44Zm5.184-1.728V51.728h1.728v3.456Zm5.184,0H52.64V51.728h1.728Zm-8.64-3.456h1.728v3.456H45.728Z" transform="translate(-5.985 -6.801)"/>
        <path id="Trazado_907514" data-name="Trazado 907514" d="M26,56h6.912v1.728H26Z" transform="translate(-3.537 -7.617)"/>
        <path id="Trazado_907515" data-name="Trazado 907515" d="M26,52h6.912v1.728H26Z" transform="translate(-3.537 -7.073)"/>
        <path id="Trazado_907516" data-name="Trazado 907516" d="M26,48.64H36.368V40H26Zm1.728-3.456h3.456v1.728H27.728Zm5.184,1.728V44.678L34.64,42.95v3.962Zm.506-5.184L31.69,43.456H27.728V41.728Z" transform="translate(-3.537 -5.441)"/>
        <path id="Trazado_907517" data-name="Trazado 907517" d="M46.912,40H40v5.184h6.912Zm-1.728,3.456H41.728V41.728h3.456Z" transform="translate(-5.441 -5.441)"/>
        <path id="Trazado_907518" data-name="Trazado 907518" d="M50,45.184h6.912V40H50Zm1.728-3.456h3.456v1.728H51.728Z" transform="translate(-6.801 -5.441)"/>
        <path id="Trazado_907519" data-name="Trazado 907519" d="M13.592,11.456H15.32a.865.865,0,0,1,.864.864h1.728A2.6,2.6,0,0,0,15.32,9.728V8H13.592V9.728a2.592,2.592,0,1,0,0,5.184H15.32a.864.864,0,1,1,0,1.728H13.592a.865.865,0,0,1-.864-.864H11a2.6,2.6,0,0,0,2.592,2.592V20.1H15.32V18.368a2.592,2.592,0,1,0,0-5.184H13.592a.864.864,0,1,1,0-1.728Z" transform="translate(-1.496 -1.088)"/>
        <path id="Trazado_907520" data-name="Trazado 907520" d="M8.456,32H6.728v1.728H5v1.728H6.728v1.728H8.456V35.456h1.728V33.728H8.456Z" transform="translate(-0.68 -4.353)"/>
        <path id="Trazado_907521" data-name="Trazado 907521" d="M8.456,42H6.728v1.728H5v1.728H6.728v1.728H8.456V45.456h1.728V43.728H8.456Z" transform="translate(-0.68 -5.713)"/>
        <path id="Trazado_907522" data-name="Trazado 907522" d="M8.456,52H6.728v1.728H5v1.728H6.728v1.728H8.456V55.456h1.728V53.728H8.456Z" transform="translate(-0.68 -7.073)"/>
      </g>
    </g>
  </g>
</svg>
