<svg xmlns="http://www.w3.org/2000/svg" xmlns:xlink="http://www.w3.org/1999/xlink" width="102.949" height="102.949" viewBox="0 0 102.949 102.949">
  <defs>
    <filter id="Trazado_874925" x="0" y="0" width="102.949" height="102.949" filterUnits="userSpaceOnUse">
      <feOffset dy="3" input="SourceAlpha"/>
      <feGaussianBlur stdDeviation="3" result="blur"/>
      <feFlood flood-opacity="0.161"/>
      <feComposite operator="in" in2="blur"/>
      <feComposite in="SourceGraphic"/>
    </filter>
  </defs>
  <g id="Grupo_1117967" data-name="Grupo 1117967" transform="translate(-1221 -6405.095)">
    <g id="Grupo_1111316" data-name="Grupo 1111316" transform="translate(1230 6411.095)">
      <g id="Grupo_1109835" data-name="Grupo 1109835" transform="translate(0 0)">
        <g id="Grupo_1107913" data-name="Grupo 1107913" transform="translate(0 0)">
          <g transform="matrix(1, 0, 0, 1, -9, -6)" filter="url(#Trazado_874925)">
            <g id="Trazado_874925-2" data-name="Trazado 874925" transform="translate(9 6)" fill="#9cc8ff" opacity="0.859">
              <path d="M 42.47446823120117 83.44929504394531 C 36.94229125976562 83.44929504394531 31.57638549804688 82.36614227294922 26.52582168579102 80.22994232177734 C 21.64678573608398 78.16628265380859 17.26464462280273 75.211669921875 13.50113868713379 71.44816589355469 C 9.737632751464844 67.68466949462891 6.78300952911377 63.30253982543945 4.719362258911133 58.42351913452148 C 2.583150625228882 53.37295150756836 1.499997615814209 48.00706100463867 1.499997615814209 42.47489547729492 C 1.499997615814209 36.94223403930664 2.583150625228882 31.57634162902832 4.719362258911133 26.52577781677246 C 6.78300952911377 21.64675331115723 9.737632751464844 17.26462364196777 13.50113868713379 13.50113010406494 C 17.26464462280273 9.737624168395996 21.64678573608398 6.783012390136719 26.52582168579102 4.719353199005127 C 31.57638549804688 2.583153486251831 36.94229125976562 1.500000476837158 42.47446823120117 1.500000476837158 C 48.00664520263672 1.500000476837158 53.37255096435547 2.583153486251831 58.42311477661133 4.719353199005127 C 63.30215072631836 6.783012390136719 67.68428802490234 9.737624168395996 71.44779968261719 13.50113010406494 C 75.2113037109375 17.26462364196777 78.16592407226562 21.64675331115723 80.22957611083984 26.52577781677246 C 82.36578369140625 31.57634162902832 83.44893646240234 36.94223403930664 83.44893646240234 42.47439956665039 C 83.44893646240234 48.00706100463867 82.36578369140625 53.37295150756836 80.22957611083984 58.42351913452148 C 78.16592407226562 63.30253982543945 75.2113037109375 67.68466949462891 71.44779968261719 71.44816589355469 C 67.68428802490234 75.211669921875 63.30215072631836 78.16628265380859 58.42311477661133 80.22994232177734 C 53.37255096435547 82.36614227294922 48.00664520263672 83.44929504394531 42.47446823120117 83.44929504394531 Z" stroke="none"/>
              <path d="M 42.47446823120117 2.999992370605469 C 37.14412307739258 2.999992370605469 31.97481536865234 4.04327392578125 27.11014938354492 6.100860595703125 C 22.40990829467773 8.088890075683594 18.18804168701172 10.93555450439453 14.56179809570312 14.56178283691406 C 10.93557739257812 18.18801116943359 8.088897705078125 22.40987396240234 6.100868225097656 27.11009979248047 C 4.043281555175781 31.97476577758789 3 37.14406204223633 3 42.47488784790039 C 3 47.80522155761719 4.043281555175781 52.97451400756836 6.100868225097656 57.83917999267578 C 8.088897705078125 62.53940582275391 10.93557739257812 66.76127624511719 14.56179809570312 70.38749694824219 C 18.18804168701172 74.01372528076172 22.40990829467773 76.86039733886719 27.11014938354492 78.84841918945312 C 31.97481536865234 80.906005859375 37.14412307739258 81.94928741455078 42.47446823120117 81.94928741455078 C 47.80481338500977 81.94928741455078 52.97412109375 80.906005859375 57.83879089355469 78.84841918945312 C 62.53902816772461 76.86039733886719 66.76089477539062 74.01372528076172 70.38713073730469 70.38749694824219 C 74.01335906982422 66.76127624511719 76.86003875732422 62.53940582275391 78.84806823730469 57.83917999267578 C 80.90565490722656 52.97451400756836 81.94893646240234 47.80522155761719 81.94893646240234 42.47439575195312 C 81.94893646240234 37.14406204223633 80.90565490722656 31.97476577758789 78.84806823730469 27.11009979248047 C 76.86003875732422 22.40987396240234 74.01335906982422 18.18801116943359 70.38713073730469 14.56178283691406 C 66.76089477539062 10.93555450439453 62.53902816772461 8.088890075683594 57.83879089355469 6.100860595703125 C 52.97412109375 4.04327392578125 47.80481338500977 2.999992370605469 42.47446823120117 2.999992370605469 M 42.47446823120117 -7.62939453125e-06 C 65.93246459960938 -7.62939453125e-06 84.94893646240234 19.01643371582031 84.94893646240234 42.47439575195312 L 84.94893646240234 42.47488784790039 C 84.94893646240234 65.93284606933594 65.93246459960938 84.94928741455078 42.47446823120117 84.94928741455078 C 19.01647186279297 84.94928741455078 0 65.93284606933594 0 42.47488784790039 L 0 42.47439575195312 C 0 19.01643371582031 19.01647186279297 -7.62939453125e-06 42.47446823120117 -7.62939453125e-06 Z" stroke="none" fill="#fff"/>
            </g>
          </g>
          <g id="Trazado_874923" data-name="Trazado 874923" transform="translate(0 0)" fill="none">
            <path d="M42.474,0A42.474,42.474,0,0,1,84.949,42.474h0A42.474,42.474,0,0,1,0,42.475H0A42.474,42.474,0,0,1,42.474,0Z" stroke="none"/>
            <path d="M 42.47446823120117 2.999992370605469 C 37.14412307739258 2.999992370605469 31.97481536865234 4.04327392578125 27.11014938354492 6.100860595703125 C 22.40990829467773 8.088890075683594 18.18804168701172 10.93555450439453 14.56179809570312 14.56178283691406 C 10.93557739257812 18.18801116943359 8.088897705078125 22.40987396240234 6.100868225097656 27.11009979248047 C 4.043281555175781 31.97476577758789 3 37.14406204223633 3 42.47488784790039 C 3 47.80522155761719 4.043281555175781 52.97451400756836 6.100868225097656 57.83917999267578 C 8.088897705078125 62.53940582275391 10.93557739257812 66.76127624511719 14.56179809570312 70.38749694824219 C 18.18804168701172 74.01372528076172 22.40990829467773 76.86039733886719 27.11014938354492 78.84841918945312 C 31.97481536865234 80.906005859375 37.14412307739258 81.94928741455078 42.47446823120117 81.94928741455078 C 47.80481338500977 81.94928741455078 52.97412109375 80.906005859375 57.83879089355469 78.84841918945312 C 62.53902816772461 76.86039733886719 66.76089477539062 74.01372528076172 70.38713073730469 70.38749694824219 C 74.01335906982422 66.76127624511719 76.86003875732422 62.53940582275391 78.84806823730469 57.83917999267578 C 80.90565490722656 52.97451400756836 81.94893646240234 47.80522155761719 81.94893646240234 42.47439575195312 C 81.94893646240234 37.14406204223633 80.90565490722656 31.97476577758789 78.84806823730469 27.11009979248047 C 76.86003875732422 22.40987396240234 74.01335906982422 18.18801116943359 70.38713073730469 14.56178283691406 C 66.76089477539062 10.93555450439453 62.53902816772461 8.088890075683594 57.83879089355469 6.100860595703125 C 52.97412109375 4.04327392578125 47.80481338500977 2.999992370605469 42.47446823120117 2.999992370605469 M 42.47446823120117 -7.62939453125e-06 C 65.93246459960938 -7.62939453125e-06 84.94893646240234 19.01643371582031 84.94893646240234 42.47439575195312 L 84.94893646240234 42.47488784790039 C 84.94893646240234 65.93284606933594 65.93246459960938 84.94928741455078 42.47446823120117 84.94928741455078 C 19.01647186279297 84.94928741455078 0 65.93284606933594 0 42.47488784790039 L 0 42.47439575195312 C 0 19.01643371582031 19.01647186279297 -7.62939453125e-06 42.47446823120117 -7.62939453125e-06 Z" stroke="none" fill="#fff"/>
          </g>
        </g>
      </g>
    </g>
    <g id="Fill_out_line" data-name="Fill out line" transform="translate(1230.724 6411.705)">
      <g id="Grupo_1117966" data-name="Grupo 1117966" transform="translate(16.858 16.858)">
        <path id="Trazado_909519" data-name="Trazado 909519" d="M423.862,334a24.793,24.793,0,0,1-1.646,3.063.861.861,0,0,1-1.263.219l-2.034-1.61a.862.862,0,0,1-.2-1.129,20.6,20.6,0,0,0,1.127-2.1.862.862,0,0,1,1.063-.458l2.447.846a.861.861,0,0,1,.5,1.17Z" transform="translate(-376.223 -298.867)" fill="#537ec2"/>
        <path id="Trazado_909520" data-name="Trazado 909520" d="M447.339,275.538a24.689,24.689,0,0,1-.545,2.968.86.86,0,0,1-1.116.607l-2.448-.846a.862.862,0,0,1-.554-1.017,20.429,20.429,0,0,0,.369-2.009.862.862,0,0,1,.88-.753l2.587.085a.861.861,0,0,1,.825.965Z" transform="translate(-397.699 -247.591)" fill="#537ec2"/>
        <path id="Trazado_909521" data-name="Trazado 909521" d="M451.059,236.451l-2.767-.091a.66.66,0,0,1-.637-.622v-.012a.66.66,0,0,1,.573-.692l2.745-.362a.86.86,0,0,1,.971.8l0,.069a.86.86,0,0,1-.886.908Z" transform="translate(-402.161 -212.044)" fill="#537ec2"/>
        <path id="Trazado_909522" data-name="Trazado 909522" d="M63.428,63.549A20.615,20.615,0,1,1,60.7,31.992l-.109.094a1.289,1.289,0,0,0,.613,2.245l4.49.806a1.289,1.289,0,0,0,1.516-1.3l-.13-4.56a1.289,1.289,0,0,0-2.129-.94l-.91.783a24.912,24.912,0,1,0,2.636,37.263.861.861,0,0,0-.077-1.279L64.56,63.49A.856.856,0,0,0,63.428,63.549Z" transform="translate(-23.999 -23.998)" fill="#537ec2"/>
      </g>
      <rect id="Rect치ngulo_405044" data-name="Rect치ngulo 405044" width="2.43" height="21.867" rx="1.215" transform="translate(43.484 24.592) rotate(-45)" fill="#f57a08"/>
      <rect id="Rect치ngulo_405045" data-name="Rect치ngulo 405045" width="2.43" height="21.867" rx="1.215" transform="translate(22.867 45.205) rotate(-45)" fill="#f57a08"/>
      <path id="Trazado_909523" data-name="Trazado 909523" d="M136.643,117.744l-3.47,3.47a4.291,4.291,0,0,1-4,1.148l-4.83-1.115a2.578,2.578,0,0,0-3.091,3.091l1.115,4.83a4.291,4.291,0,0,1-1.148,4l-3.47,3.47L104,122.9l3.47-3.47a4.291,4.291,0,0,1,4-1.148l4.83,1.115a2.578,2.578,0,0,0,3.091-3.091l-1.115-4.83a4.291,4.291,0,0,1,1.148-4L122.9,104l9.145,9.145.608.608Z" transform="translate(-78.551 -78.552)" fill="#e7f2da"/>
      <path id="Trazado_909524" data-name="Trazado 909524" d="M247.875,163.233l.378,1.639a4.268,4.268,0,0,1-.82,3.636,2.924,2.924,0,0,0-.7,3.345,4.289,4.289,0,0,1,5.177-3.324l4.83,1.115a2.576,2.576,0,0,0,2.4-.689l3.471-3.471-6.516-6.516C252.2,158.458,246.916,159.451,247.875,163.233Z" transform="translate(-205.736 -127.507)" fill="#f3b73f"/>
      <path id="Trazado_909525" data-name="Trazado 909525" d="M152,328l7.375,7.375,3.471-3.471a2.561,2.561,0,0,0,.729-2.187c-.694,1-2.9.984-2.466-1.718C159.391,329.718,156.3,332.3,152,328Z" transform="translate(-121.397 -278.499)" fill="#f3b73f"/>
      <circle id="Elipse_11790" data-name="Elipse 11790" cx="1" cy="1" r="1" transform="translate(38.928 45.765)" fill="#f3b73f"/>
      <path id="Trazado_909526" data-name="Trazado 909526" d="M229.289,292a1.289,1.289,0,1,0,1.289,1.289A1.289,1.289,0,0,0,229.289,292Zm0,1.718a.43.43,0,1,1,.43-.43A.429.429,0,0,1,229.289,293.718Z" transform="translate(-189.236 -246.365)"/>
      <path id="Trazado_909527" data-name="Trazado 909527" d="M416.507,324.863l-2.447-.846a1.717,1.717,0,0,0-2.123.908,19.793,19.793,0,0,1-1.08,2.014,1.723,1.723,0,0,0,.394,2.252l2.034,1.61a1.72,1.72,0,0,0,2.522-.434,25.755,25.755,0,0,0,1.7-3.169,1.721,1.721,0,0,0-1-2.335Zm-.172,1.806a24.453,24.453,0,0,1-1.617,3.01.438.438,0,0,1-.3.2.43.43,0,0,1-.338-.086l-2.034-1.61a.434.434,0,0,1-.1-.568,21.09,21.09,0,0,0,1.151-2.146.436.436,0,0,1,.394-.256.423.423,0,0,1,.139.023l2.447.846a.429.429,0,0,1,.253.235A.439.439,0,0,1,416.335,326.669Z" transform="translate(-352.229 -274.86)"/>
      <path id="Trazado_909528" data-name="Trazado 909528" d="M439.394,266.571l-2.587-.085a1.714,1.714,0,0,0-1.76,1.5c-.085.645-.2,1.293-.354,1.925a1.718,1.718,0,0,0,1.109,2.026l2.448.846a1.719,1.719,0,0,0,2.23-1.213,25.648,25.648,0,0,0,.564-3.071,1.72,1.72,0,0,0-1.65-1.927Zm.371,1.772a24.378,24.378,0,0,1-.535,2.916.431.431,0,0,1-.559.3l-2.447-.846a.433.433,0,0,1-.276-.512c.159-.674.286-1.364.377-2.052a.427.427,0,0,1,.426-.381h.015l2.587.085a.43.43,0,0,1,.312.15A.436.436,0,0,1,439.765,268.343Z" transform="translate(-373.693 -223.59)"/>
      <path id="Trazado_909529" data-name="Trazado 909529" d="M439.658,228.648a1.512,1.512,0,0,0,1.467,1.431l2.765.09h.058a1.719,1.719,0,0,0,1.716-1.818l0-.069a1.719,1.719,0,0,0-1.94-1.6l-2.745.362a1.522,1.522,0,0,0-1.318,1.585Zm1.486-.328,2.746-.362a.412.412,0,0,1,.055,0,.431.431,0,0,1,.429.405l0,.067a.431.431,0,0,1-.43.456l-2.781-.091a.225.225,0,0,1-.222-.21v-.021A.234.234,0,0,1,441.144,228.32Z" transform="translate(-378.164 -188.046)"/>
      <path id="Trazado_909530" data-name="Trazado 909530" d="M59.987,57.286l-2.034-1.61a1.715,1.715,0,0,0-2.271.122,19.631,19.631,0,0,1-13.909,5.729l-.323,0A19.758,19.758,0,1,1,52.316,25.059a2.153,2.153,0,0,0,1.59,2.977l4.49.806a2.148,2.148,0,0,0,2.526-2.175l-.13-4.56a2.148,2.148,0,0,0-3.548-1.566l-.388.334A25.537,25.537,0,0,0,41.761,16h-.195A25.771,25.771,0,1,0,60.143,59.841a1.72,1.72,0,0,0-.157-2.555Zm-.762,1.651A24.494,24.494,0,1,1,41.576,17.288h.185A24.271,24.271,0,0,1,56.5,22.214a.644.644,0,0,0,.808-.026l.778-.67a.859.859,0,0,1,1.419.627l.13,4.56a.859.859,0,0,1-1.01.87l-4.49-.806a.859.859,0,0,1-.465-1.443.644.644,0,0,0-.1-.984,21.047,21.047,0,1,0,3.02,32.372.425.425,0,0,1,.563-.026l2.034,1.61a.43.43,0,0,1,.162.31.435.435,0,0,1-.124.331Z" transform="translate(0 0)"/>
      <path id="Trazado_909531" data-name="Trazado 909531" d="M99.77,97.721l4.83,1.115a5.125,5.125,0,0,0,4.8-1.378l2.994-2.994a2.075,2.075,0,0,0,2.195-3.409L100.848,77.31A2.075,2.075,0,0,0,97.439,79.5L94.445,82.5a5.125,5.125,0,0,0-1.378,4.8l1.115,4.83a1.718,1.718,0,0,1-2.06,2.06l-4.83-1.115a5.127,5.127,0,0,0-4.8,1.378L79.493,97.45a2.075,2.075,0,0,0-2.195,3.409L91.043,114.6a2.075,2.075,0,0,0,3.409-2.195l2.994-2.994a5.125,5.125,0,0,0,1.378-4.8l-1.115-4.83a1.718,1.718,0,0,1,2.06-2.06Zm-3.316,2.35,1.115,4.83a3.844,3.844,0,0,1-1.033,3.6l-3.167,3.167-.607-.607,3.167-3.167a2.977,2.977,0,0,0,.851-2.552.43.43,0,0,0-.778-.183,1.045,1.045,0,0,1-1.17.365c-.478-.192-.667-.838-.519-1.771a.429.429,0,0,0-.728-.371c-2.1,2.1-4.756,3.746-8.5,0l-4.85-4.851L83.4,95.367A3.844,3.844,0,0,1,87,94.334l4.83,1.115a3.007,3.007,0,0,0,3.606-3.606l-1.115-4.83a3.844,3.844,0,0,1,1.033-3.6l3.167-3.167,4.872,4.872c-2.616-.135-5.5.375-6.848,1.9a3.159,3.159,0,0,0-.651,3l.378,1.639a3.84,3.84,0,0,1-.723,3.253,3.33,3.33,0,0,0-.776,3.793.429.429,0,0,0,.4.268l.04,0a.43.43,0,0,0,.381-.342,3.877,3.877,0,0,1,3.779-3.092,3.917,3.917,0,0,1,.88.1l4.83,1.115a3.006,3.006,0,0,0,2.8-.8l3.167-3.167.607.607-3.167,3.167a3.843,3.843,0,0,1-3.6,1.033l-4.83-1.115a3.007,3.007,0,0,0-3.606,3.606Zm-3.389,13.622a.786.786,0,0,1-1.111,0L78.21,99.948a.785.785,0,0,1,1.111-1.111l13.744,13.744A.786.786,0,0,1,93.065,113.693Zm-5.118-7.444a4.882,4.882,0,0,0,2.442.114,6.886,6.886,0,0,0,3.034-1.649,1.814,1.814,0,0,0,1.088,1.61,1.853,1.853,0,0,0,1.377-.028,2.14,2.14,0,0,1-.567.993l-3.167,3.167Zm25.735-13.173a.786.786,0,0,1-1.111,0L98.827,79.332a.785.785,0,1,1,1.111-1.111l13.744,13.744a.786.786,0,0,1,0,1.111Zm-16.571-1.62-.38-1.648a2.284,2.284,0,0,1,.459-2.226c.932-1.049,3.559-1.963,7.148-1.525l3.023,3.023c-3.928,3.7-6.983,2.17-8.645,1.339a.43.43,0,1,0-.384.768,8.666,8.666,0,0,0,3.958,1.124,8.212,8.212,0,0,0,5.679-2.624l2.478,2.478-3.167,3.167a2.147,2.147,0,0,1-2,.574l-4.83-1.115a4.711,4.711,0,0,0-5.05,2.068,2.635,2.635,0,0,1,.778-1.365.434.434,0,0,0,.034-.038A4.7,4.7,0,0,0,97.111,91.456Z" transform="translate(-54.176 -54.187)"/>
      <path id="Trazado_909532" data-name="Trazado 909532" d="M185,253.606a4.779,4.779,0,0,1-1.073-.123l-3.294-.76a.43.43,0,0,1,.193-.837l3.295.76a3.917,3.917,0,0,0,.88.1.43.43,0,1,1,0,.859Z" transform="translate(-146.661 -210.548)"/>
      <path id="Trazado_909533" data-name="Trazado 909533" d="M144.066,249.573a.43.43,0,0,1-.3-.733,3.006,3.006,0,0,1,2.8-.8.43.43,0,0,1-.193.837,2.147,2.147,0,0,0-2,.574A.429.429,0,0,1,144.066,249.573Z" transform="translate(-113.932 -207.053)"/>
    </g>
  </g>
</svg>
