<svg xmlns="http://www.w3.org/2000/svg" xmlns:xlink="http://www.w3.org/1999/xlink" width="117.999" height="118" viewBox="0 0 117.999 118">
  <defs>
    <filter id="Trazado_874925" x="0" y="0" width="117.999" height="118" filterUnits="userSpaceOnUse">
      <feOffset dy="3" input="SourceAlpha"/>
      <feGaussianBlur stdDeviation="3" result="blur"/>
      <feFlood flood-opacity="0.161"/>
      <feComposite operator="in" in2="blur"/>
      <feComposite in="SourceGraphic"/>
    </filter>
  </defs>
  <g id="Grupo_1112509" data-name="Grupo 1112509" transform="translate(-1108.134 -1933.999)">
    <g id="Grupo_1111553" data-name="Grupo 1111553" transform="translate(308.634 -577.158)">
      <g id="Grupo_1111316" data-name="Grupo 1111316" transform="translate(808.5 2517.157)">
        <g id="Grupo_1109835" data-name="Grupo 1109835" transform="translate(0 0)">
          <g id="Grupo_1107913" data-name="Grupo 1107913" transform="translate(0 0)">
            <g transform="matrix(1, 0, 0, 1, -9, -6)" filter="url(#Trazado_874925)">
              <g id="Trazado_874925-2" data-name="Trazado 874925" transform="translate(9 6)" fill="#9cc8ff" opacity="0.859">
                <path d="M 49.99972534179688 98.4998779296875 C 43.45164108276367 98.4998779296875 37.10022354125977 97.21776580810547 31.12189674377441 94.68914794921875 C 25.34676742553711 92.24647521972656 20.15985298156738 88.74925994873047 15.70523929595947 84.29464721679688 C 11.25062561035156 79.84004974365234 7.753411293029785 74.65313720703125 5.310725212097168 68.87800598144531 C 2.782111167907715 62.89969253540039 1.499996781349182 56.54829406738281 1.499996781349182 50.00022125244141 C 1.499996781349182 43.45157623291016 2.782111167907715 37.10017776489258 5.310725212097168 31.12186431884766 C 7.753411293029785 25.34673500061035 11.25062561035156 20.15983581542969 15.70523929595947 15.70522117614746 C 20.15985298156738 11.25062084197998 25.34676742553711 7.753406524658203 31.12189674377441 5.31073522567749 C 37.10022354125977 2.782120943069458 43.45164108276367 1.500006556510925 49.99972534179688 1.500006556510925 C 56.54780960083008 1.500006556510925 62.89922714233398 2.782120943069458 68.87755584716797 5.31073522567749 C 74.65267944335938 7.753406524658203 79.839599609375 11.25062084197998 84.29421234130859 15.70522117614746 C 88.74882507324219 20.15983581542969 92.24604034423828 25.34673500061035 94.68872833251953 31.12186431884766 C 97.21733856201172 37.10017776489258 98.49945068359375 43.45157623291016 98.49945068359375 49.99964904785156 C 98.49945068359375 56.54829406738281 97.21733856201172 62.89969253540039 94.68872833251953 68.87800598144531 C 92.24604034423828 74.65313720703125 88.74882507324219 79.84004974365234 84.29421234130859 84.29464721679688 C 79.839599609375 88.74925994873047 74.65267944335938 92.24647521972656 68.87755584716797 94.68914794921875 C 62.89922714233398 97.21776580810547 56.54780960083008 98.4998779296875 49.99972534179688 98.4998779296875 Z" stroke="none"/>
                <path d="M 49.99972534179688 3 C 43.65348052978516 3 37.49866485595703 4.242240905761719 31.70623016357422 6.692230224609375 C 26.10989379882812 9.059272766113281 21.08323669433594 12.44853210449219 16.76589202880859 16.76587677001953 C 12.44855499267578 21.08321380615234 9.059295654296875 26.10985565185547 6.692230224609375 31.70618438720703 C 4.24224853515625 37.49859619140625 3 43.65341186523438 3 50.00022888183594 C 3 56.34645843505859 4.24224853515625 62.50127410888672 6.692230224609375 68.29368591308594 C 9.059295654296875 73.8900146484375 12.44855499267578 78.91665649414062 16.76589202880859 83.23399353027344 C 21.08323669433594 87.55132293701172 26.10989379882812 90.94059753417969 31.70623016357422 93.30764007568359 C 37.49866485595703 95.75762939453125 43.65348052978516 96.99987030029297 49.99972534179688 96.99987030029297 C 56.34597015380859 96.99987030029297 62.50078582763672 95.75762939453125 68.293212890625 93.30764007568359 C 73.88955688476562 90.94059753417969 78.91621398925781 87.55132293701172 83.23355865478516 83.23399353027344 C 87.55089569091797 78.91665649414062 90.94015502929688 73.8900146484375 93.30722045898438 68.29368591308594 C 95.7572021484375 62.50127410888672 96.99945068359375 56.34645843505859 96.99945068359375 49.99964141845703 C 96.99945068359375 43.65341186523438 95.7572021484375 37.49859619140625 93.30722045898438 31.70618438720703 C 90.94015502929688 26.10985565185547 87.55089569091797 21.08321380615234 83.23355865478516 16.76587677001953 C 78.91621398925781 12.44853210449219 73.88955688476562 9.059272766113281 68.293212890625 6.692230224609375 C 62.50078582763672 4.242240905761719 56.34597015380859 3 49.99972534179688 3 M 49.99972534179688 0 C 77.61381530761719 0 99.99945068359375 22.38559722900391 99.99945068359375 49.99964141845703 L 99.99945068359375 50.00022888183594 C 99.99945068359375 77.6142578125 77.61381530761719 99.99987030029297 49.99972534179688 99.99987030029297 C 22.38563537597656 99.99987030029297 0 77.6142578125 0 50.00022888183594 L 0 49.99964141845703 C 0 22.38559722900391 22.38563537597656 0 49.99972534179688 0 Z" stroke="none" fill="#fff"/>
              </g>
            </g>
            <g id="Trazado_874923" data-name="Trazado 874923" transform="translate(0 0)" fill="none">
              <path d="M50,0a50,50,0,0,1,50,50h0A50,50,0,0,1,0,50H0A50,50,0,0,1,50,0Z" stroke="none"/>
              <path d="M 49.99972534179688 3 C 43.65348052978516 3 37.49866485595703 4.242240905761719 31.70623016357422 6.692230224609375 C 26.10989379882812 9.059272766113281 21.08323669433594 12.44853210449219 16.76589202880859 16.76587677001953 C 12.44855499267578 21.08321380615234 9.059295654296875 26.10985565185547 6.692230224609375 31.70618438720703 C 4.24224853515625 37.49859619140625 3 43.65341186523438 3 50.00022888183594 C 3 56.34645843505859 4.24224853515625 62.50127410888672 6.692230224609375 68.29368591308594 C 9.059295654296875 73.8900146484375 12.44855499267578 78.91665649414062 16.76589202880859 83.23399353027344 C 21.08323669433594 87.55132293701172 26.10989379882812 90.94059753417969 31.70623016357422 93.30764007568359 C 37.49866485595703 95.75762939453125 43.65348052978516 96.99987030029297 49.99972534179688 96.99987030029297 C 56.34597015380859 96.99987030029297 62.50078582763672 95.75762939453125 68.293212890625 93.30764007568359 C 73.88955688476562 90.94059753417969 78.91621398925781 87.55132293701172 83.23355865478516 83.23399353027344 C 87.55089569091797 78.91665649414062 90.94015502929688 73.8900146484375 93.30722045898438 68.29368591308594 C 95.7572021484375 62.50127410888672 96.99945068359375 56.34645843505859 96.99945068359375 49.99964141845703 C 96.99945068359375 43.65341186523438 95.7572021484375 37.49859619140625 93.30722045898438 31.70618438720703 C 90.94015502929688 26.10985565185547 87.55089569091797 21.08321380615234 83.23355865478516 16.76587677001953 C 78.91621398925781 12.44853210449219 73.88955688476562 9.059272766113281 68.293212890625 6.692230224609375 C 62.50078582763672 4.242240905761719 56.34597015380859 3 49.99972534179688 3 M 49.99972534179688 0 C 77.61381530761719 0 99.99945068359375 22.38559722900391 99.99945068359375 49.99964141845703 L 99.99945068359375 50.00022888183594 C 99.99945068359375 77.6142578125 77.61381530761719 99.99987030029297 49.99972534179688 99.99987030029297 C 22.38563537597656 99.99987030029297 0 77.6142578125 0 50.00022888183594 L 0 49.99964141845703 C 0 22.38559722900391 22.38563537597656 0 49.99972534179688 0 Z" stroke="none" fill="#fff"/>
            </g>
          </g>
        </g>
      </g>
    </g>
    <g id="Grupo_1114809" data-name="Grupo 1114809" transform="translate(1136.244 1958.859)">
      <g id="Grupo_1114822" data-name="Grupo 1114822" transform="translate(1.005 1.005)">
        <g id="Grupo_1114809-2" data-name="Grupo 1114809" transform="translate(36.162 44.199)">
          <path id="Trazado_907523" data-name="Trazado 907523" d="M320.108,360v6.027c0,2.219-5.4,4.018-12.054,4.018S296,368.246,296,366.027V360c0,2.219,5.4,4.018,12.054,4.018S320.108,362.219,320.108,360Z" transform="translate(-296 -360)" fill="#ffc729"/>
        </g>
        <g id="Grupo_1114810" data-name="Grupo 1114810" transform="translate(36.162 50.226)">
          <path id="Trazado_907524" data-name="Trazado 907524" d="M320.108,408v6.027c0,2.219-5.4,4.018-12.054,4.018S296,416.246,296,414.027V408c0,2.219,5.4,4.018,12.054,4.018S320.108,410.219,320.108,408Z" transform="translate(-296 -408)" fill="#fcd770"/>
        </g>
        <g id="Grupo_1114811" data-name="Grupo 1114811" transform="translate(36.162 40.718)">
          <path id="Trazado_907525" data-name="Trazado 907525" d="M314.081,332.28c3.6.694,6.027,1.994,6.027,3.481,0,2.219-5.4,4.018-12.054,4.018S296,337.979,296,335.761h16.072a2.008,2.008,0,0,0,2.009-2.009Z" transform="translate(-296 -332.28)" fill="#fcd770"/>
        </g>
        <g id="Grupo_1114812" data-name="Grupo 1114812" transform="translate(6.027 12.054)">
          <path id="Trazado_907526" data-name="Trazado 907526" d="M104.217,132.664v1.472a2.008,2.008,0,0,1-2.009,2.009h-44.2A2.008,2.008,0,0,1,56,134.135V114.442h0a11.9,11.9,0,0,0,4.018,1.445h0v4.185H72.072v-9.407A11.993,11.993,0,0,0,74.081,104h28.126a2.008,2.008,0,0,1,2.009,2.009Z" transform="translate(-56 -104)" fill="#969faa"/>
        </g>
        <g id="Grupo_1114813" data-name="Grupo 1114813" transform="translate(26.117 34.153)">
          <path id="Trazado_907527" data-name="Trazado 907527" d="M216,280h12.054v4.018H216Z" transform="translate(-216 -280)" fill="#e6e9ed"/>
        </g>
        <g id="Grupo_1114814" data-name="Grupo 1114814" transform="translate(18.081 34.153)">
          <path id="Trazado_907528" data-name="Trazado 907528" d="M152,280h4.018v4.018H152Z" transform="translate(-152 -280)" fill="#e6e9ed"/>
        </g>
        <g id="Grupo_1114815" data-name="Grupo 1114815" transform="translate(10.045 34.153)">
          <path id="Trazado_907529" data-name="Trazado 907529" d="M88,280h4.018v4.018H88Z" transform="translate(-88 -280)" fill="#e6e9ed"/>
        </g>
        <g id="Grupo_1114816" data-name="Grupo 1114816" transform="translate(40.181 18.081)">
          <path id="Trazado_907530" data-name="Trazado 907530" d="M328,152h10.045v4.018H328Z" transform="translate(-328 -152)" fill="#b4dd7f"/>
        </g>
        <g id="Grupo_1114817" data-name="Grupo 1114817" transform="translate(26.117 18.081)">
          <path id="Trazado_907531" data-name="Trazado 907531" d="M216,152h10.045v4.018H216Z" transform="translate(-216 -152)" fill="#b4dd7f"/>
        </g>
        <g id="Grupo_1114818" data-name="Grupo 1114818" transform="translate(10.045 18.719)">
          <path id="Trazado_907532" data-name="Trazado 907532" d="M100.054,157.08v9.407H88V162.3h0a11.908,11.908,0,0,0,2.009.168A12.043,12.043,0,0,0,100.054,157.08Z" transform="translate(-88 -157.08)" fill="#fcd770"/>
        </g>
        <g id="Grupo_1114819" data-name="Grupo 1114819">
          <path id="Trazado_907533" data-name="Trazado 907533" d="M32.108,20.054A12.054,12.054,0,1,1,20.054,8,11.993,11.993,0,0,1,32.108,20.054Z" transform="translate(-8 -8)" fill="#fc6e51"/>
        </g>
        <g id="Grupo_1114820" data-name="Grupo 1114820" transform="translate(3.895 4.116)">
          <circle id="Elipse_11669" data-name="Elipse 11669" cx="8.166" cy="8.166" r="8.166" transform="translate(0 0)" fill="#ff826e"/>
        </g>
        <g id="Grupo_1114821" data-name="Grupo 1114821" transform="translate(42.273 31.879)">
          <circle id="Elipse_11670" data-name="Elipse 11670" cx="4.083" cy="4.083" r="4.083" transform="translate(0 0)" fill="#ff826e"/>
        </g>
      </g>
      <g id="Grupo_1114823" data-name="Grupo 1114823" transform="translate(0)">
        <path id="Trazado_907534" data-name="Trazado 907534" d="M69.062,78.655l-1.3-1.3-1.421,1.421L69.062,81.5,74.8,75.764l-1.421-1.421Z" transform="translate(-58.013 -65.008)"/>
        <path id="Trazado_907535" data-name="Trazado 907535" d="M56.253,40.907V15.068a3.017,3.017,0,0,0-3.014-3.014H26.079a13.059,13.059,0,1,0-20.052,12V43.194a3.017,3.017,0,0,0,3.014,3.014H36.162v11.05c0,3.3,6.569,5.023,13.059,5.023S62.28,60.555,62.28,57.257V45.2C62.28,43.3,60.148,41.79,56.253,40.907Zm4.018,4.3c0,1.023-3.9,3.014-11.05,3.014-5.179,0-8.651-1.044-10.173-2.009H53.239a3.017,3.017,0,0,0,3.014-3.014v-.22C59.013,43.675,60.271,44.658,60.271,45.2ZM14.063,22.042A9,9,0,0,0,18.7,20.118l1.428,1.428a11,11,0,0,1-6.062,2.516Zm-1-1.952a7.032,7.032,0,1,1,7.032-7.032A7.039,7.039,0,0,1,13.059,20.09ZM18.7,6a9,9,0,0,0-4.634-1.924V2.055a11,11,0,0,1,6.062,2.516ZM12.054,4.075A9,9,0,0,0,7.42,6L5.992,4.571a11,11,0,0,1,6.062-2.516ZM6,7.42a9,9,0,0,0-1.924,4.634H2.055A11,11,0,0,1,4.571,5.992ZM4.075,14.063A9,9,0,0,0,6,18.7L4.571,20.126a11,11,0,0,1-2.516-6.062ZM7.42,20.118a9,9,0,0,0,4.634,1.924v2.02a11,11,0,0,1-6.062-2.516Zm4.634,5.961q.5.038,1,.038A13.014,13.014,0,0,0,22.1,22.473v5.654H12.054Zm9.492-5.953L20.118,18.7a9,9,0,0,0,1.924-4.634h2.02A11,11,0,0,1,21.546,20.126Zm.5-8.071A9,9,0,0,0,20.118,7.42l1.428-1.428a11,11,0,0,1,2.516,6.062ZM8.036,43.194V25.112a12.942,12.942,0,0,0,2.009.653v4.37H24.108V20.01a12.971,12.971,0,0,0,1.971-5.947h27.16a1.006,1.006,0,0,1,1,1V43.194a1.006,1.006,0,0,1-1,1H9.041a1.006,1.006,0,0,1-1-1ZM49.221,60.271c-7.149,0-11.05-1.991-11.05-3.014v-3.22c2.439,1.462,6.762,2.216,11.05,2.216s8.61-.754,11.05-2.216v3.22C60.271,58.28,56.371,60.271,49.221,60.271Zm0-6.027c-7.149,0-11.05-1.991-11.05-3.014V48.01c2.439,1.462,6.762,2.216,11.05,2.216s8.61-.754,11.05-2.216v3.22C60.271,52.253,56.371,54.244,49.221,54.244Z" transform="translate(0)"/>
        <path id="Trazado_907536" data-name="Trazado 907536" d="M341.023,256a5.023,5.023,0,1,0,5.023,5.023A5.028,5.028,0,0,0,341.023,256Zm0,8.036a3.014,3.014,0,1,1,3.014-3.014A3.017,3.017,0,0,1,341.023,264.036Z" transform="translate(-293.81 -223.856)"/>
        <path id="Trazado_907537" data-name="Trazado 907537" d="M80,278.027h6.027V272H80Zm2.009-4.018h2.009v2.009H82.009Z" transform="translate(-69.955 -237.847)"/>
        <path id="Trazado_907538" data-name="Trazado 907538" d="M144,278.027h6.027V272H144Zm2.009-4.018h2.009v2.009h-2.009Z" transform="translate(-125.919 -237.847)"/>
        <path id="Trazado_907539" data-name="Trazado 907539" d="M208,278.027h14.063V272H208Zm2.009-4.018h10.045v2.009H210.009Z" transform="translate(-181.883 -237.847)"/>
        <ellipse id="Elipse_11671" data-name="Elipse 11671" cx="0.817" cy="1.225" rx="0.817" ry="1.225" transform="translate(26.13 27.984)"/>
        <ellipse id="Elipse_11672" data-name="Elipse 11672" cx="0.817" cy="1.225" rx="0.817" ry="1.225" transform="translate(30.213 27.984)"/>
        <ellipse id="Elipse_11673" data-name="Elipse 11673" cx="0.817" cy="1.225" rx="0.817" ry="1.225" transform="translate(34.296 27.984)"/>
        <ellipse id="Elipse_11674" data-name="Elipse 11674" cx="0.817" cy="1.225" rx="0.817" ry="1.225" transform="translate(38.379 27.984)"/>
        <ellipse id="Elipse_11675" data-name="Elipse 11675" cx="0.817" cy="1.225" rx="0.817" ry="1.225" transform="translate(42.461 27.984)"/>
        <ellipse id="Elipse_11676" data-name="Elipse 11676" cx="0.817" cy="1.225" rx="0.817" ry="1.225" transform="translate(46.544 27.984)"/>
        <ellipse id="Elipse_11677" data-name="Elipse 11677" cx="0.817" cy="1.225" rx="0.817" ry="1.225" transform="translate(50.627 27.984)"/>
        <path id="Trazado_907540" data-name="Trazado 907540" d="M220.054,144H208v6.027h12.054Zm-2.009,4.018h-8.036v-2.009h8.036Z" transform="translate(-181.883 -125.919)"/>
        <path id="Trazado_907541" data-name="Trazado 907541" d="M320,150.027h12.054V144H320Zm2.009-4.018h8.036v2.009h-8.036Z" transform="translate(-279.819 -125.919)"/>
      </g>
    </g>
  </g>
</svg>
