<svg xmlns="http://www.w3.org/2000/svg" xmlns:xlink="http://www.w3.org/1999/xlink" width="117.999" height="118" viewBox="0 0 117.999 118">
  <defs>
    <filter id="Trazado_874925" x="0" y="0" width="117.999" height="118" filterUnits="userSpaceOnUse">
      <feOffset dy="3" input="SourceAlpha"/>
      <feGaussianBlur stdDeviation="3" result="blur"/>
      <feFlood flood-opacity="0.161"/>
      <feComposite operator="in" in2="blur"/>
      <feComposite in="SourceGraphic"/>
    </filter>
  </defs>
  <g id="Grupo_1117974" data-name="Grupo 1117974" transform="translate(-794 -6844)">
    <g id="Grupo_1111552" data-name="Grupo 1111552" transform="translate(-5.5 4332.843)">
      <g id="Grupo_1111316" data-name="Grupo 1111316" transform="translate(808.5 2517.157)">
        <g id="Grupo_1109835" data-name="Grupo 1109835" transform="translate(0 0)">
          <g id="Grupo_1107913" data-name="Grupo 1107913" transform="translate(0 0)">
            <g transform="matrix(1, 0, 0, 1, -9, -6)" filter="url(#Trazado_874925)">
              <g id="Trazado_874925-2" data-name="Trazado 874925" transform="translate(9 6)" fill="#9cc8ff" opacity="0.859">
                <path d="M 49.99972534179688 98.4998779296875 C 43.45164108276367 98.4998779296875 37.10022354125977 97.21776580810547 31.12189674377441 94.68914794921875 C 25.34676742553711 92.24647521972656 20.15985298156738 88.74925994873047 15.70523929595947 84.29464721679688 C 11.25062561035156 79.84004974365234 7.753411293029785 74.65313720703125 5.310725212097168 68.87800598144531 C 2.782111167907715 62.89969253540039 1.499996781349182 56.54829406738281 1.499996781349182 50.00022125244141 C 1.499996781349182 43.45157623291016 2.782111167907715 37.10017776489258 5.310725212097168 31.12186431884766 C 7.753411293029785 25.34673500061035 11.25062561035156 20.15983581542969 15.70523929595947 15.70522117614746 C 20.15985298156738 11.25062084197998 25.34676742553711 7.753406524658203 31.12189674377441 5.31073522567749 C 37.10022354125977 2.782120943069458 43.45164108276367 1.500006556510925 49.99972534179688 1.500006556510925 C 56.54780960083008 1.500006556510925 62.89922714233398 2.782120943069458 68.87755584716797 5.31073522567749 C 74.65267944335938 7.753406524658203 79.839599609375 11.25062084197998 84.29421234130859 15.70522117614746 C 88.74882507324219 20.15983581542969 92.24604034423828 25.34673500061035 94.68872833251953 31.12186431884766 C 97.21733856201172 37.10017776489258 98.49945068359375 43.45157623291016 98.49945068359375 49.99964904785156 C 98.49945068359375 56.54829406738281 97.21733856201172 62.89969253540039 94.68872833251953 68.87800598144531 C 92.24604034423828 74.65313720703125 88.74882507324219 79.84004974365234 84.29421234130859 84.29464721679688 C 79.839599609375 88.74925994873047 74.65267944335938 92.24647521972656 68.87755584716797 94.68914794921875 C 62.89922714233398 97.21776580810547 56.54780960083008 98.4998779296875 49.99972534179688 98.4998779296875 Z" stroke="none"/>
                <path d="M 49.99972534179688 3 C 43.65348052978516 3 37.49866485595703 4.242240905761719 31.70623016357422 6.692230224609375 C 26.10989379882812 9.059272766113281 21.08323669433594 12.44853210449219 16.76589202880859 16.76587677001953 C 12.44855499267578 21.08321380615234 9.059295654296875 26.10985565185547 6.692230224609375 31.70618438720703 C 4.24224853515625 37.49859619140625 3 43.65341186523438 3 50.00022888183594 C 3 56.34645843505859 4.24224853515625 62.50127410888672 6.692230224609375 68.29368591308594 C 9.059295654296875 73.8900146484375 12.44855499267578 78.91665649414062 16.76589202880859 83.23399353027344 C 21.08323669433594 87.55132293701172 26.10989379882812 90.94059753417969 31.70623016357422 93.30764007568359 C 37.49866485595703 95.75762939453125 43.65348052978516 96.99987030029297 49.99972534179688 96.99987030029297 C 56.34597015380859 96.99987030029297 62.50078582763672 95.75762939453125 68.293212890625 93.30764007568359 C 73.88955688476562 90.94059753417969 78.91621398925781 87.55132293701172 83.23355865478516 83.23399353027344 C 87.55089569091797 78.91665649414062 90.94015502929688 73.8900146484375 93.30722045898438 68.29368591308594 C 95.7572021484375 62.50127410888672 96.99945068359375 56.34645843505859 96.99945068359375 49.99964141845703 C 96.99945068359375 43.65341186523438 95.7572021484375 37.49859619140625 93.30722045898438 31.70618438720703 C 90.94015502929688 26.10985565185547 87.55089569091797 21.08321380615234 83.23355865478516 16.76587677001953 C 78.91621398925781 12.44853210449219 73.88955688476562 9.059272766113281 68.293212890625 6.692230224609375 C 62.50078582763672 4.242240905761719 56.34597015380859 3 49.99972534179688 3 M 49.99972534179688 0 C 77.61381530761719 0 99.99945068359375 22.38559722900391 99.99945068359375 49.99964141845703 L 99.99945068359375 50.00022888183594 C 99.99945068359375 77.6142578125 77.61381530761719 99.99987030029297 49.99972534179688 99.99987030029297 C 22.38563537597656 99.99987030029297 0 77.6142578125 0 50.00022888183594 L 0 49.99964141845703 C 0 22.38559722900391 22.38563537597656 0 49.99972534179688 0 Z" stroke="none" fill="#fff"/>
              </g>
            </g>
            <g id="Trazado_874923" data-name="Trazado 874923" transform="translate(0 0)" fill="none">
              <path d="M50,0a50,50,0,0,1,50,50h0A50,50,0,0,1,0,50H0A50,50,0,0,1,50,0Z" stroke="none"/>
              <path d="M 49.99972534179688 3 C 43.65348052978516 3 37.49866485595703 4.242240905761719 31.70623016357422 6.692230224609375 C 26.10989379882812 9.059272766113281 21.08323669433594 12.44853210449219 16.76589202880859 16.76587677001953 C 12.44855499267578 21.08321380615234 9.059295654296875 26.10985565185547 6.692230224609375 31.70618438720703 C 4.24224853515625 37.49859619140625 3 43.65341186523438 3 50.00022888183594 C 3 56.34645843505859 4.24224853515625 62.50127410888672 6.692230224609375 68.29368591308594 C 9.059295654296875 73.8900146484375 12.44855499267578 78.91665649414062 16.76589202880859 83.23399353027344 C 21.08323669433594 87.55132293701172 26.10989379882812 90.94059753417969 31.70623016357422 93.30764007568359 C 37.49866485595703 95.75762939453125 43.65348052978516 96.99987030029297 49.99972534179688 96.99987030029297 C 56.34597015380859 96.99987030029297 62.50078582763672 95.75762939453125 68.293212890625 93.30764007568359 C 73.88955688476562 90.94059753417969 78.91621398925781 87.55132293701172 83.23355865478516 83.23399353027344 C 87.55089569091797 78.91665649414062 90.94015502929688 73.8900146484375 93.30722045898438 68.29368591308594 C 95.7572021484375 62.50127410888672 96.99945068359375 56.34645843505859 96.99945068359375 49.99964141845703 C 96.99945068359375 43.65341186523438 95.7572021484375 37.49859619140625 93.30722045898438 31.70618438720703 C 90.94015502929688 26.10985565185547 87.55089569091797 21.08321380615234 83.23355865478516 16.76587677001953 C 78.91621398925781 12.44853210449219 73.88955688476562 9.059272766113281 68.293212890625 6.692230224609375 C 62.50078582763672 4.242240905761719 56.34597015380859 3 49.99972534179688 3 M 49.99972534179688 0 C 77.61381530761719 0 99.99945068359375 22.38559722900391 99.99945068359375 49.99964141845703 L 99.99945068359375 50.00022888183594 C 99.99945068359375 77.6142578125 77.61381530761719 99.99987030029297 49.99972534179688 99.99987030029297 C 22.38563537597656 99.99987030029297 0 77.6142578125 0 50.00022888183594 L 0 49.99964141845703 C 0 22.38559722900391 22.38563537597656 0 49.99972534179688 0 Z" stroke="none" fill="#fff"/>
            </g>
          </g>
        </g>
      </g>
    </g>
    <g id="Money_Insurance" data-name="Money Insurance" transform="translate(816.384 6866.83)">
      <path id="Trazado_909643" data-name="Trazado 909643" d="M39.919,13c-4.668,12.942-3.786,10.518-4.085,11.331H22.2C21.919,23.57,23.295,27.37,18.119,13A1.987,1.987,0,0,1,20,10.35H38.064A1.987,1.987,0,0,1,39.919,13Z" transform="translate(-5.423 -3.108)" fill="#e08341"/>
      <path id="Trazado_909644" data-name="Trazado 909644" d="M46.369,13C41.7,25.946,42.583,23.522,42.284,24.334H39.13c.278-.757-.472,1.3,4.085-11.331a1.987,1.987,0,0,0-1.883-2.654h3.154A1.987,1.987,0,0,1,46.369,13Z" transform="translate(-11.873 -3.108)" fill="#bd6041"/>
      <path id="Trazado_909645" data-name="Trazado 909645" d="M1.19,56.5c0,12.5,10.164,16.4,22.7,16.4s22.689-3.87,22.689-16.4S36.419,27.52,23.886,27.52,1.19,43.971,1.19,56.5Z" transform="translate(-0.29 -8.35)" fill="#bd6041"/>
      <path id="Trazado_909646" data-name="Trazado 909646" d="M6.19,52.071c0,10.608,8.024,13.894,17.916,13.894s17.916-3.279,17.916-13.894S34.006,27.52,24.12,27.52,6.19,41.456,6.19,52.071Z" transform="translate(-1.817 -8.35)" fill="#e08341"/>
      <path id="Trazado_909647" data-name="Trazado 909647" d="M23.541,57.615c-9.351,0-9.351-3.432-9.351-5.273,0-5.509,5.064-12.032,9.351-12.032s9.344,6.523,9.344,12.032c0,1.841,0,5.273-9.344,5.273Z" transform="translate(-4.259 -12.255)" fill="#f9a15f"/>
      <path id="Trazado_909648" data-name="Trazado 909648" d="M21.423,28.66H37.207a2.084,2.084,0,1,0,0-4.113H21.423a2.084,2.084,0,0,0,0,4.113Z" transform="translate(-5.934 -7.434)" fill="#b35137"/>
      <rect id="Rectángulo_405047" data-name="Rectángulo 405047" width="9.663" height="4.113" rx="2.056" transform="translate(28.216 21.227) rotate(180)" fill="#c76537"/>
      <path id="Trazado_909649" data-name="Trazado 909649" d="M54.165,88.191v2.952a1.32,1.32,0,0,1-1.313,1.32H38.9A1.306,1.306,0,0,1,37.6,91.324a30.771,30.771,0,0,1,0-3.1,1.313,1.313,0,0,1,1.16-1.306H52.872a1.32,1.32,0,0,1,1.292,1.271Z" transform="translate(-11.395 -26.484)" fill="#f9b028"/>
      <path id="Trazado_909650" data-name="Trazado 909650" d="M56.31,87.664l-4.793,4.793H45L50.558,86.9h4.585A1.306,1.306,0,0,1,56.31,87.664Z" transform="translate(-13.665 -26.478)" fill="#f9ce46"/>
      <path id="Trazado_909651" data-name="Trazado 909651" d="M85.345,88.185v2.952a1.32,1.32,0,0,1-1.313,1.32H70.076a1.32,1.32,0,0,1-1.313-1.32,30.772,30.772,0,0,1,0-3.1A1.306,1.306,0,0,1,70.055,86.9H84.032A1.32,1.32,0,0,1,85.345,88.185Z" transform="translate(-20.908 -26.478)" fill="#f9c428"/>
      <path id="Trazado_909652" data-name="Trazado 909652" d="M89.54,88.038l-4.37,4.37H82.51l5.558-5.558h.174a1.306,1.306,0,0,1,1.3,1.188Z" transform="translate(-25.117 -26.463)" fill="#f9e241"/>
      <path id="Trazado_909653" data-name="Trazado 909653" d="M81.664,86.85l-5.551,5.558H71.32l5.558-5.558Z" transform="translate(-21.7 -26.463)" fill="#f9e241"/>
      <path id="Trazado_909654" data-name="Trazado 909654" d="M57.343,80.185v2.952a1.32,1.32,0,0,1-1.32,1.32H42.073a1.32,1.32,0,0,1-1.313-1.32V80.22a1.313,1.313,0,0,1,1.313-1.32h13.95a1.32,1.32,0,0,1,1.32,1.285Z" transform="translate(-12.371 -24.036)" fill="#f9c428"/>
      <path id="Trazado_909655" data-name="Trazado 909655" d="M42.073,78.85H46.3l-5.162,5.162a1.327,1.327,0,0,1-.375-.889V80.2a1.313,1.313,0,0,1,1.313-1.355Z" transform="translate(-12.37 -24.021)" fill="#f9e241"/>
      <path id="Trazado_909656" data-name="Trazado 909656" d="M51.937,78.85l-5.558,5.558H44.33l5.558-5.558Z" transform="translate(-13.46 -24.021)" fill="#f9e241"/>
      <path id="Trazado_909657" data-name="Trazado 909657" d="M83.113,80.185v2.952a1.32,1.32,0,0,1-1.32,1.32H67.843a1.313,1.313,0,0,1-1.313-1.223V80.22a1.32,1.32,0,0,1,1.32-1.32H81.793a1.278,1.278,0,0,1,.924.389,1.3,1.3,0,0,1,.4.9Z" transform="translate(-20.238 -24.036)" fill="#f98828"/>
      <path id="Trazado_909658" data-name="Trazado 909658" d="M85.452,79.239l-5.169,5.169H75.49l5.558-5.558h3.474A1.278,1.278,0,0,1,85.452,79.239Z" transform="translate(-22.973 -24.021)" fill="#f99c3c"/>
      <path id="Trazado_909659" data-name="Trazado 909659" d="M81.213,72.185v2.953a1.313,1.313,0,0,1-1.313,1.32H65.95a1.32,1.32,0,0,1-1.32-1.32V72.22a1.32,1.32,0,0,1,1.32-1.32H79.9A1.32,1.32,0,0,1,81.213,72.185Z" transform="translate(-19.658 -21.593)" fill="#f9c428"/>
      <path id="Trazado_909660" data-name="Trazado 909660" d="M84.388,71.288l-5.12,5.12h-3.1l5.558-5.558h1.7A1.257,1.257,0,0,1,84.388,71.288Z" transform="translate(-23.181 -21.578)" fill="#f9e241"/>
      <path id="Trazado_909661" data-name="Trazado 909661" d="M76.043,70.85l-5.558,5.558H67.88l5.558-5.558Z" transform="translate(-20.65 -21.578)" fill="#f9e241"/>
      <path id="Trazado_909662" data-name="Trazado 909662" d="M78.048,64.185v2.952a1.32,1.32,0,0,1-1.32,1.32H62.778a1.3,1.3,0,0,1-1.25-.917c-.1-.243-.069-.125-.069-3.321a1.32,1.32,0,0,1,1.32-1.32h13.95a1.327,1.327,0,0,1,1.32,1.285Z" transform="translate(-18.689 -19.151)" fill="#f98828"/>
      <path id="Trazado_909663" data-name="Trazado 909663" d="M76.545,62.85l-5.558,5.558H64.45l5.558-5.558Z" transform="translate(-19.603 -19.136)" fill="#f99c3c"/>
      <path id="Trazado_909664" data-name="Trazado 909664" d="M62.423,72.185v2.953a1.32,1.32,0,0,1-1.313,1.32H47.035a1.306,1.306,0,0,1-1.195-1.32V72.22a1.32,1.32,0,0,1,1.313-1.32H61.11A1.32,1.32,0,0,1,62.423,72.185Z" transform="translate(-13.921 -21.593)" fill="#f98828"/>
      <path id="Trazado_909665" data-name="Trazado 909665" d="M65.662,72.17v1.563l-2.675,2.675H56.45l5.558-5.558h2.341a1.32,1.32,0,0,1,1.313,1.32Z" transform="translate(-17.161 -21.578)" fill="#f99c3c"/>
      <path id="Trazado_909666" data-name="Trazado 909666" d="M56.384,70.85l-5.558,5.558h-3.14c-.195,0-.695.549,5.426-5.558Z" transform="translate(-14.455 -21.578)" fill="#f99c3c"/>
      <rect id="Rectángulo_405048" data-name="Rectángulo 405048" width="16.59" height="5.558" rx="1.9" transform="translate(35.079 43.714)" fill="#f9b028"/>
      <path id="Trazado_909667" data-name="Trazado 909667" d="M72.422,56.185v2.952a1.32,1.32,0,0,1-1.313,1.32H56.917a1.306,1.306,0,0,1-1.077-1.32V56.22a1.32,1.32,0,0,1,1.313-1.32H71.109a1.32,1.32,0,0,1,1.313,1.285Z" transform="translate(-16.974 -16.709)" fill="#f9c428"/>
      <path id="Trazado_909668" data-name="Trazado 909668" d="M68.047,54.85l-5.558,5.558h-5.1l5.558-5.558Z" transform="translate(-17.448 -16.694)" fill="#f9e241"/>
      <path id="Trazado_909669" data-name="Trazado 909669" d="M75.672,55.1l-5.308,5.308H68.28l5.558-5.558C75.033,54.848,75.262,54.793,75.672,55.1Z" transform="translate(-20.772 -16.692)" fill="#f9e241"/>
      <path id="Trazado_909670" data-name="Trazado 909670" d="M72.423,80.185v2.952a1.32,1.32,0,0,1-1.313,1.32H57.153a1.32,1.32,0,0,1-1.313-1.32V80.22a1.32,1.32,0,0,1,1.313-1.32c15.158,0,14.068,0,14.332.063A1.3,1.3,0,0,1,72.423,80.185Z" transform="translate(-16.974 -24.036)" fill="#f9b028"/>
      <path id="Trazado_909671" data-name="Trazado 909671" d="M70.333,88.185v2.952a1.32,1.32,0,0,1-1.32,1.32c-15.193,0-14.165.069-14.589-.16a1.3,1.3,0,0,1-.695-1.16V88.22a1.313,1.313,0,0,1,1.313-1.32H69.013a1.32,1.32,0,0,1,1.32,1.285Z" transform="translate(-16.33 -26.478)" fill="#f98828"/>
      <path id="Trazado_909672" data-name="Trazado 909672" d="M74.534,88.162v1.987L72.283,92.4H67.49c6.183-6.183,5.481-5.558,5.724-5.558A1.32,1.32,0,0,1,74.534,88.162Z" transform="translate(-20.531 -26.455)" fill="#f99c3c"/>
      <path id="Trazado_909673" data-name="Trazado 909673" d="M60.171,86.85h1.556l-5.558,5.558a2.688,2.688,0,0,1-1.389-.16Z" transform="translate(-16.651 -26.463)" fill="#f99c3c"/>
      <path id="Trazado_909674" data-name="Trazado 909674" d="M55.073,86.85h1.535L53.76,89.733V88.2a1.313,1.313,0,0,1,1.313-1.355Z" transform="translate(-16.339 -26.463)" fill="#f99c3c"/>
      <g id="Grupo_1117973" data-name="Grupo 1117973" transform="translate(26.222 43.714)">
        <path id="Trazado_909675" data-name="Trazado 909675" d="M74.587,78.912l-5.5,5.5H66l5.558-5.558C74.468,78.849,74.336,78.828,74.587,78.912Z" transform="translate(-46.298 -67.734)" fill="#f9ce46"/>
        <path id="Trazado_909676" data-name="Trazado 909676" d="M65.941,78.85l-5.558,5.558h-3.23a1.32,1.32,0,0,1-1.313-1.285v-.695l3.585-3.578Z" transform="translate(-43.196 -67.735)" fill="#f9ce46"/>
        <path id="Trazado_909677" data-name="Trazado 909677" d="M72.661,65.55v2.4a1.32,1.32,0,0,1-1.32,1.32H69Z" transform="translate(-47.214 -63.674)" fill="#f9ce46"/>
        <path id="Trazado_909678" data-name="Trazado 909678" d="M38.918,86.849h3.14L37.64,91.267V88.009C38.884,86.738,38.717,86.849,38.918,86.849Z" transform="translate(-37.64 -70.176)" fill="#f9ce46"/>
        <path id="Trazado_909679" data-name="Trazado 909679" d="M64.11,62.85l-5.558,5.558H55.28l5.558-5.558Z" transform="translate(-43.025 -62.85)" fill="#f9ce46"/>
      </g>
      <path id="Trazado_909680" data-name="Trazado 909680" d="M70.857,78.85c-4.793,4.793-4.342,4.384-4.342,4.238V81.643l2.779-2.779Z" transform="translate(-20.23 -24.021)" fill="#f9b028"/>
      <path id="Trazado_909681" data-name="Trazado 909681" d="M83.264,65.633l-3.175,3.175H78.54l4.648-4.648C83.292,64.389,83.264,64.528,83.264,65.633Z" transform="translate(-23.905 -19.536)" fill="#f99c3c"/>
      <path id="Trazado_909682" data-name="Trazado 909682" d="M83.42,4.9V17.4c0,10.8-8.392,14.651-12.289,16.722l-.528.285c-3.133-1.765-6.885-3.425-9.643-7.058a15.422,15.422,0,0,1-3.126-8.5c-.083-1.049-.056-.868-.056-13.964,1.917-.563,12.3-3.543,12.824-3.7.076.049,8.517,2.452,12.817,3.71Z" transform="translate(-17.565 -0.311)" fill="#7498f0"/>
      <path id="Trazado_909683" data-name="Trazado 909683" d="M82.248,17.135a.9.9,0,0,1-.9-.9V9.1a2.147,2.147,0,0,0-.806-1.667c-.479-.389-.09-.2-9.3-2.855a2.084,2.084,0,0,0-1.195,0c-9.441,2.709-8.878,2.48-9.33,2.855A2.14,2.14,0,0,0,59.906,9.1v7.128a.9.9,0,0,1-.9.9H57.78a18.656,18.656,0,0,0,1.2,7.808c2.5,6.079,7.982,8.455,11.622,10.469l.528-.285c3.9-2.084,12.289-5.926,12.289-16.722V17.135Z" transform="translate(-17.567 -1.32)" fill="#515cd2"/>
      <path id="Trazado_909684" data-name="Trazado 909684" d="M80.86,8.525a1.084,1.084,0,0,1,.792,1.049c0,10.032.083,10.421-.257,12.171-1.1,5.794-5.467,8.462-8.871,10.289a1.209,1.209,0,0,1-1.278-.146A25.183,25.183,0,0,1,67.14,29.22a12.574,12.574,0,0,1-4.793-10.33V9.567a1.084,1.084,0,0,1,.792-1.042L71.69,6.059c.431-.125-.1-.2,8.774,2.355Z" transform="translate(-18.958 -1.783)" fill="#ffbd38"/>
      <path id="Trazado_909685" data-name="Trazado 909685" d="M81.646,9.574v1.778a1.1,1.1,0,0,0-.785-1.049c-.882-.243-4.62-1.327-8.566-2.459-.417-.125.181-.229-9.163,2.459a1.1,1.1,0,0,0-.792,1.049V9.574a1.091,1.091,0,0,1,.792-1.042l8.559-2.466c.59-.16,1.084.2,9.17,2.466a1.084,1.084,0,0,1,.785,1.042Z" transform="translate(-18.959 -1.79)" fill="#ff9f38"/>
      <path id="Trazado_909686" data-name="Trazado 909686" d="M85.044,16.77c0,5.641.076,6.53-.257,8.26-1.1,5.752-5.44,8.455-8.864,10.275a1.112,1.112,0,0,1-1.063,0c-.479-.264-.98-.542-1.389-.778,7.315-4.071,11.574-9.219,11.574-17.757Z" transform="translate(-22.357 -5.068)" fill="#ff9f38"/>
      <path id="Trazado_909687" data-name="Trazado 909687" d="M80.066,12.253A25.767,25.767,0,0,1,68.548,29.169a2.154,2.154,0,0,1-2.689-.327,12.609,12.609,0,0,1-3.522-9.17v-7.44a1.257,1.257,0,0,1,.91-1.209l8.26-2.383a1.778,1.778,0,0,1,.973,0L79,10.523a1.508,1.508,0,0,1,1.07,1.73Z" transform="translate(-18.956 -2.565)" fill="#ffdb56"/>
      <path id="Trazado_909688" data-name="Trazado 909688" d="M72.241,10.97,65.7,12.86a1.48,1.48,0,0,0-1.077,1.424V15.41A1.487,1.487,0,0,0,66.107,16.9h4.335a1.487,1.487,0,0,0,1.188-.6l2.251-3.008a1.494,1.494,0,0,0-1.64-2.32Z" transform="translate(-19.655 -3.277)" fill="#ffff79"/>
      <path id="Trazado_909689" data-name="Trazado 909689" d="M70.907,27.837l-3.89-3.029a1.322,1.322,0,1,1,1.626-2.084l2.9,2.258L77.7,17.8a1.322,1.322,0,1,1,2,1.73l-6.947,8.1a1.313,1.313,0,0,1-1.848.208Z" transform="translate(-20.231 -5.242)" fill="#ffbd38"/>
      <path id="Trazado_909690" data-name="Trazado 909690" d="M70.907,25l-3.89-3.029a1.322,1.322,0,1,1,1.626-2.084l2.9,2.258L77.7,14.988a1.32,1.32,0,0,1,2,1.723l-6.947,8.107A1.32,1.32,0,0,1,70.907,25Z" transform="translate(-20.231 -4.384)" fill="#12c58b"/>
      <rect id="Rectángulo_405049" data-name="Rectángulo 405049" width="2.543" height="1.619" rx="0.6" transform="translate(46.632 10.896)" fill="#ffdb56"/>
      <path id="Trazado_909691" data-name="Trazado 909691" d="M63.493,62.518c.153-.4.111-.4.111-3.571a2.008,2.008,0,0,0-1.452-1.9c.181-.479.132-.452.132-3.626a2.015,2.015,0,0,0-2.008-2.015h-.285c.132-.4.1-.368.1-3.543a2.015,2.015,0,0,0-2.015-2.015H56.08c.132-.4.1-.368.1-3.543a2.015,2.015,0,0,0-2.008-2.015H44.979c-2.411-6.544-6.773-12.6-12.088-16.041a2.779,2.779,0,0,0-.125-4.585l2.418-6.7A2.682,2.682,0,0,0,32.648,9.38H14.586a2.682,2.682,0,0,0-2.536,3.585L14.4,19.481a2.779,2.779,0,0,0-.264,4.912C6.069,29.721.24,41.135.24,50.951c0,13.79,11.643,17.5,25.378,17.062A2,2,0,0,0,27.535,69.4H63.159a2.015,2.015,0,0,0,2.008-2.015V64.47a2.015,2.015,0,0,0-1.674-1.952Zm-1.278-.653a.625.625,0,0,1-.625.625H56.08c.132-.4.1-.368.1-3.543a2.084,2.084,0,0,0-.1-.625h5.509a.625.625,0,0,1,.625.625Zm-22,.625a.618.618,0,0,1-.618-.625V58.947a.618.618,0,0,1,.618-.625H54.17a.618.618,0,0,1,.618.625v2.918a.618.618,0,0,1-.618.625ZM29.1,61.865V58.947a.618.618,0,0,1,.618-.625h8.566c-.125.4-.1.361-.1,3.543a2.084,2.084,0,0,0,.1.625H29.737a.618.618,0,0,1-.618-.625Zm3.529-5.558V53.39a.618.618,0,0,1,.618-.625H47.223a.618.618,0,0,1,.618.625v2.918a.618.618,0,0,1-.618.625H33.266a.618.618,0,0,1-.618-.625Zm3.161-5.558V47.832a.625.625,0,0,1,.625-.625H50.384a.625.625,0,0,1,.625.625V50.75a.625.625,0,0,1-.625.625H36.434a.625.625,0,0,1-.625-.625Zm24.468,2.015a.618.618,0,0,1,.618.625v2.918a.618.618,0,0,1-.618.625H49.14a2.084,2.084,0,0,0,.1-.625c0-3.071,0-3.14-.1-3.543Zm-2.2-5.558a.625.625,0,0,1,.625.625V50.75a.625.625,0,0,1-.625.625H52.3c.132-.4.1-.368.1-3.543a2.084,2.084,0,0,0-.1-.625Zm-3.9-5.558a.618.618,0,0,1,.618.625v2.918a.618.618,0,0,1-.618.625H40.213a.618.618,0,0,1-.618-.625V42.274a.618.618,0,0,1,.618-.625ZM13.363,12.471a1.285,1.285,0,0,1,1.23-1.723h3.091l.6,3.925a.7.7,0,0,0,1.389-.208l-.556-3.738H22.95v3.348a.695.695,0,1,0,1.389,0V10.735h3.835l-.507,3.244a.7.7,0,0,0,1.389.208l.528-3.474h3.078a1.292,1.292,0,0,1,1.23,1.723L31.446,19.2H15.836Zm1.514,8.336c.417-.215-.924-.153,16.409-.153a1.391,1.391,0,0,1,.1,2.779H15.524a1.389,1.389,0,0,1-.625-2.675ZM1.629,50.951c0-9.934,6.183-21.591,14.533-26.232,13.456,0,11.977-.056,12.157.111,2.32,2.167,4.5,5.9,6.148,10.518a.693.693,0,0,0,1.306-.465,30.486,30.486,0,0,0-5.62-10.164h.938c5.426,3.008,9.969,8.989,12.435,15.541H40.213a2.015,2.015,0,0,0-2.008,2.015c0,3.064,0,3.133.1,3.543H36.434a2.015,2.015,0,0,0-2.015,2.015c0,3.064,0,3.133.1,3.543h-1.25a2.015,2.015,0,0,0-2.008,2.015c0,3.161,0,3.1.111,3.543H29.737a2.015,2.015,0,0,0-2.008,2.015c0,3.064,0,3.133.1,3.543h-.292A2.015,2.015,0,0,0,25.527,64.5v2.084h-1.9c-14.6.069-22-5.217-22-15.638Zm25.906,17.1a.618.618,0,0,1-.618-.625V64.5a.618.618,0,0,1,.618-.625h9.358a2.084,2.084,0,0,0-.1.625c0,3.112,0,3.133.1,3.543Zm11.233,0a.618.618,0,0,1-.618-.625V64.5a.618.618,0,0,1,.618-.625h13.95a.625.625,0,0,1,.625.625v2.918a.625.625,0,0,1-.625.625Zm25.009-.625a.618.618,0,0,1-.618.625H54.635c.132-.4.1-.368.1-3.543a2.084,2.084,0,0,0-.1-.625h8.524a.618.618,0,0,1,.618.625Z" transform="translate(0 -2.812)" fill="#302d3d"/>
      <path id="Trazado_909692" data-name="Trazado 909692" d="M83.863,4.449a.7.7,0,0,0-.313-.472C83.4,3.88,70.532.17,70.365.17s-13.033,3.7-13.2,3.807a.639.639,0,0,0-.306.472V17.086c0,10.608,7.545,14.589,12.053,17.006,1.737.924,1.195.924,2.9,0C76.034,31.883,83.9,27.771,83.9,17.058,83.877,8.34,83.891,4.623,83.863,4.449ZM79.778,6.256,71.053,3.741V1.789l10.6,3.05ZM70.372,29.612c-3.661-1.959-8.878-4.96-8.878-12.5V7.541l8.864-2.557,8.864,2.557v9.545C79.223,24.714,73.832,27.785,70.372,29.612ZM60.938,6.256,59.062,4.866l10.6-3.078V3.741Zm-2.709,10.83V5.971L60.1,7.36v9.726c0,8.336,5.815,11.72,9.559,13.72v2.126l-.118-.063C65.294,30.619,58.229,26.861,58.229,17.086Zm12.922,15.8-.1.049V30.82c3.536-1.869,9.559-5.308,9.559-13.734V7.36l1.876-1.389V17.086C82.488,26.958,75.11,30.813,71.15,32.891Z" transform="translate(-17.286)" fill="#302d3d"/>
      <path id="Trazado_909693" data-name="Trazado 909693" d="M79.728,13.986a2.022,2.022,0,0,0-2.848.215l-5.731,6.655L68.773,19a2.015,2.015,0,1,0-2.466,3.182l3.89,3.029a2.015,2.015,0,0,0,2.779-.271l6.975-8.114a2.022,2.022,0,0,0-.222-2.841Zm-.834,1.945-6.989,8.1a.618.618,0,0,1-.472.215c-.3,0-.049.132-4.272-3.161a.625.625,0,0,1,.382-1.118c.292,0,.063-.125,3.286,2.39a.7.7,0,0,0,.952-.1L77.95,15.1a.625.625,0,0,1,.882-.063.618.618,0,0,1,.063.889Z" transform="translate(-19.91 -4.069)" fill="#302d3d"/>
    </g>
  </g>
</svg>
