<svg xmlns="http://www.w3.org/2000/svg" xmlns:xlink="http://www.w3.org/1999/xlink" width="117.999" height="118" viewBox="0 0 117.999 118">
  <defs>
    <filter id="Trazado_874925" x="0" y="0" width="117.999" height="118" filterUnits="userSpaceOnUse">
      <feOffset dy="3" input="SourceAlpha"/>
      <feGaussianBlur stdDeviation="3" result="blur"/>
      <feFlood flood-opacity="0.161"/>
      <feComposite operator="in" in2="blur"/>
      <feComposite in="SourceGraphic"/>
    </filter>
  </defs>
  <g id="Grupo_1112512" data-name="Grupo 1112512" transform="translate(-793.782 -1933.999)">
    <g id="Grupo_1111552" data-name="Grupo 1111552" transform="translate(-5.719 -577.158)">
      <g id="Grupo_1111316" data-name="Grupo 1111316" transform="translate(808.5 2517.157)">
        <g id="Grupo_1109835" data-name="Grupo 1109835" transform="translate(0 0)">
          <g id="Grupo_1107913" data-name="Grupo 1107913" transform="translate(0 0)">
            <g transform="matrix(1, 0, 0, 1, -9, -6)" filter="url(#Trazado_874925)">
              <g id="Trazado_874925-2" data-name="Trazado 874925" transform="translate(9 6)" fill="#9cc8ff" opacity="0.859">
                <path d="M 49.99972534179688 98.4998779296875 C 43.45164108276367 98.4998779296875 37.10022354125977 97.21776580810547 31.12189674377441 94.68914794921875 C 25.34676742553711 92.24647521972656 20.15985298156738 88.74925994873047 15.70523929595947 84.29464721679688 C 11.25062561035156 79.84004974365234 7.753411293029785 74.65313720703125 5.310725212097168 68.87800598144531 C 2.782111167907715 62.89969253540039 1.499996781349182 56.54829406738281 1.499996781349182 50.00022125244141 C 1.499996781349182 43.45157623291016 2.782111167907715 37.10017776489258 5.310725212097168 31.12186431884766 C 7.753411293029785 25.34673500061035 11.25062561035156 20.15983581542969 15.70523929595947 15.70522117614746 C 20.15985298156738 11.25062084197998 25.34676742553711 7.753406524658203 31.12189674377441 5.31073522567749 C 37.10022354125977 2.782120943069458 43.45164108276367 1.500006556510925 49.99972534179688 1.500006556510925 C 56.54780960083008 1.500006556510925 62.89922714233398 2.782120943069458 68.87755584716797 5.31073522567749 C 74.65267944335938 7.753406524658203 79.839599609375 11.25062084197998 84.29421234130859 15.70522117614746 C 88.74882507324219 20.15983581542969 92.24604034423828 25.34673500061035 94.68872833251953 31.12186431884766 C 97.21733856201172 37.10017776489258 98.49945068359375 43.45157623291016 98.49945068359375 49.99964904785156 C 98.49945068359375 56.54829406738281 97.21733856201172 62.89969253540039 94.68872833251953 68.87800598144531 C 92.24604034423828 74.65313720703125 88.74882507324219 79.84004974365234 84.29421234130859 84.29464721679688 C 79.839599609375 88.74925994873047 74.65267944335938 92.24647521972656 68.87755584716797 94.68914794921875 C 62.89922714233398 97.21776580810547 56.54780960083008 98.4998779296875 49.99972534179688 98.4998779296875 Z" stroke="none"/>
                <path d="M 49.99972534179688 3 C 43.65348052978516 3 37.49866485595703 4.242240905761719 31.70623016357422 6.692230224609375 C 26.10989379882812 9.059272766113281 21.08323669433594 12.44853210449219 16.76589202880859 16.76587677001953 C 12.44855499267578 21.08321380615234 9.059295654296875 26.10985565185547 6.692230224609375 31.70618438720703 C 4.24224853515625 37.49859619140625 3 43.65341186523438 3 50.00022888183594 C 3 56.34645843505859 4.24224853515625 62.50127410888672 6.692230224609375 68.29368591308594 C 9.059295654296875 73.8900146484375 12.44855499267578 78.91665649414062 16.76589202880859 83.23399353027344 C 21.08323669433594 87.55132293701172 26.10989379882812 90.94059753417969 31.70623016357422 93.30764007568359 C 37.49866485595703 95.75762939453125 43.65348052978516 96.99987030029297 49.99972534179688 96.99987030029297 C 56.34597015380859 96.99987030029297 62.50078582763672 95.75762939453125 68.293212890625 93.30764007568359 C 73.88955688476562 90.94059753417969 78.91621398925781 87.55132293701172 83.23355865478516 83.23399353027344 C 87.55089569091797 78.91665649414062 90.94015502929688 73.8900146484375 93.30722045898438 68.29368591308594 C 95.7572021484375 62.50127410888672 96.99945068359375 56.34645843505859 96.99945068359375 49.99964141845703 C 96.99945068359375 43.65341186523438 95.7572021484375 37.49859619140625 93.30722045898438 31.70618438720703 C 90.94015502929688 26.10985565185547 87.55089569091797 21.08321380615234 83.23355865478516 16.76587677001953 C 78.91621398925781 12.44853210449219 73.88955688476562 9.059272766113281 68.293212890625 6.692230224609375 C 62.50078582763672 4.242240905761719 56.34597015380859 3 49.99972534179688 3 M 49.99972534179688 0 C 77.61381530761719 0 99.99945068359375 22.38559722900391 99.99945068359375 49.99964141845703 L 99.99945068359375 50.00022888183594 C 99.99945068359375 77.6142578125 77.61381530761719 99.99987030029297 49.99972534179688 99.99987030029297 C 22.38563537597656 99.99987030029297 0 77.6142578125 0 50.00022888183594 L 0 49.99964141845703 C 0 22.38559722900391 22.38563537597656 0 49.99972534179688 0 Z" stroke="none" fill="#fff"/>
              </g>
            </g>
            <g id="Trazado_874923" data-name="Trazado 874923" transform="translate(0 0)" fill="none">
              <path d="M50,0a50,50,0,0,1,50,50h0A50,50,0,0,1,0,50H0A50,50,0,0,1,50,0Z" stroke="none"/>
              <path d="M 49.99972534179688 3 C 43.65348052978516 3 37.49866485595703 4.242240905761719 31.70623016357422 6.692230224609375 C 26.10989379882812 9.059272766113281 21.08323669433594 12.44853210449219 16.76589202880859 16.76587677001953 C 12.44855499267578 21.08321380615234 9.059295654296875 26.10985565185547 6.692230224609375 31.70618438720703 C 4.24224853515625 37.49859619140625 3 43.65341186523438 3 50.00022888183594 C 3 56.34645843505859 4.24224853515625 62.50127410888672 6.692230224609375 68.29368591308594 C 9.059295654296875 73.8900146484375 12.44855499267578 78.91665649414062 16.76589202880859 83.23399353027344 C 21.08323669433594 87.55132293701172 26.10989379882812 90.94059753417969 31.70623016357422 93.30764007568359 C 37.49866485595703 95.75762939453125 43.65348052978516 96.99987030029297 49.99972534179688 96.99987030029297 C 56.34597015380859 96.99987030029297 62.50078582763672 95.75762939453125 68.293212890625 93.30764007568359 C 73.88955688476562 90.94059753417969 78.91621398925781 87.55132293701172 83.23355865478516 83.23399353027344 C 87.55089569091797 78.91665649414062 90.94015502929688 73.8900146484375 93.30722045898438 68.29368591308594 C 95.7572021484375 62.50127410888672 96.99945068359375 56.34645843505859 96.99945068359375 49.99964141845703 C 96.99945068359375 43.65341186523438 95.7572021484375 37.49859619140625 93.30722045898438 31.70618438720703 C 90.94015502929688 26.10985565185547 87.55089569091797 21.08321380615234 83.23355865478516 16.76587677001953 C 78.91621398925781 12.44853210449219 73.88955688476562 9.059272766113281 68.293212890625 6.692230224609375 C 62.50078582763672 4.242240905761719 56.34597015380859 3 49.99972534179688 3 M 49.99972534179688 0 C 77.61381530761719 0 99.99945068359375 22.38559722900391 99.99945068359375 49.99964141845703 L 99.99945068359375 50.00022888183594 C 99.99945068359375 77.6142578125 77.61381530761719 99.99987030029297 49.99972534179688 99.99987030029297 C 22.38563537597656 99.99987030029297 0 77.6142578125 0 50.00022888183594 L 0 49.99964141845703 C 0 22.38559722900391 22.38563537597656 0 49.99972534179688 0 Z" stroke="none" fill="#fff"/>
            </g>
          </g>
        </g>
      </g>
    </g>
    <g id="Grupo_1114824" data-name="Grupo 1114824" transform="translate(821.036 1939.415)">
      <g id="Grupo_1114835" data-name="Grupo 1114835" transform="translate(0.931 27.324)">
        <g id="Grupo_1114824-2" data-name="Grupo 1114824" transform="translate(10.014)">
          <path id="Trazado_907542" data-name="Trazado 907542" d="M151.292,68.43a21.27,21.27,0,0,0-15.33,6.5l2.257,3.91a17.04,17.04,0,0,1,28.4,18.383,11.532,11.532,0,0,1,4.827-.432,21.346,21.346,0,0,0-20.149-28.36Z" transform="translate(-130.048 -68.43)" fill="#fe646f"/>
          <path id="Trazado_907543" data-name="Trazado 907543" d="M117.214,269.446A17.044,17.044,0,0,1,92.587,256.2H88.268a21.349,21.349,0,0,0,28.59,18.085,11.512,11.512,0,0,1,.356-4.835Z" transform="translate(-88.268 -232.911)" fill="#fe646f"/>
        </g>
        <g id="Grupo_1114827" data-name="Grupo 1114827" transform="translate(38.37 28.149)">
          <g id="Grupo_1114825" data-name="Grupo 1114825" transform="translate(0)">
            <path id="Trazado_907544" data-name="Trazado 907544" d="M328.56,295.426a11.621,11.621,0,0,0-3.513.541,17.026,17.026,0,0,1-7.63,7.752,11.631,11.631,0,1,0,11.143-8.293Z" transform="translate(-316.93 -295.426)" fill="#05e39c"/>
          </g>
          <g id="Grupo_1114826" data-name="Grupo 1114826" transform="translate(9.03)">
            <path id="Trazado_907545" data-name="Trazado 907545" d="M392.35,295.426a11.657,11.657,0,0,0-2.6.292,11.633,11.633,0,0,1,0,22.676,11.631,11.631,0,1,0,2.6-22.968Z" transform="translate(-389.75 -295.426)" fill="#0ed290"/>
          </g>
        </g>
        <g id="Grupo_1114830" data-name="Grupo 1114830" transform="translate(14.333 4.297)">
          <g id="Grupo_1114828" data-name="Grupo 1114828">
            <path id="Trazado_907546" data-name="Trazado 907546" d="M140.019,103.077a17,17,0,0,0-13.073,6.112l5.219,9.039a2.558,2.558,0,0,1-2.215,3.837h-6.857a17.038,17.038,0,1,0,16.926-18.988Z" transform="translate(-123.093 -103.077)" fill="#fff"/>
          </g>
          <g id="Grupo_1114829" data-name="Grupo 1114829" transform="translate(14.323 0)">
            <path id="Trazado_907547" data-name="Trazado 907547" d="M241.2,103.077a17.168,17.168,0,0,0-2.6.2,17.04,17.04,0,0,1,0,33.68,17.039,17.039,0,1,0,2.6-33.878Z" transform="translate(-238.596 -103.077)" fill="#f3f0f3"/>
          </g>
        </g>
        <g id="Grupo_1114831" data-name="Grupo 1114831" transform="translate(29.185 19.26)">
          <circle id="Elipse_11678" data-name="Elipse 11678" cx="2.074" cy="2.074" r="2.074" transform="translate(0)" fill="#fe646f"/>
        </g>
        <g id="Grupo_1114834" data-name="Grupo 1114834" transform="translate(0 2.019)">
          <g id="Grupo_1114832" data-name="Grupo 1114832" transform="translate(0 0)">
            <path id="Trazado_907548" data-name="Trazado 907548" d="M17.13,86.05,7.878,102.076A2.682,2.682,0,0,0,10.2,106.1H28.705a2.682,2.682,0,0,0,2.323-4.023L21.775,86.05A2.682,2.682,0,0,0,17.13,86.05Z" transform="translate(-7.514 -84.709)" fill="#ffd15b"/>
          </g>
          <g id="Grupo_1114833" data-name="Grupo 1114833" transform="translate(9.365)">
            <path id="Trazado_907549" data-name="Trazado 907549" d="M97.184,102.076,87.932,86.05a2.682,2.682,0,0,0-4.645,0l-.251.434,9,15.592a2.682,2.682,0,0,1-2.323,4.023h5.146A2.682,2.682,0,0,0,97.184,102.076Z" transform="translate(-83.036 -84.709)" fill="#ffc344"/>
          </g>
        </g>
      </g>
      <g id="Grupo_1114836" data-name="Grupo 1114836" transform="translate(-0.001 21.505)">
        <path id="Trazado_907550" data-name="Trazado 907550" d="M345.531,44.728c.428.209.854.434,1.269.667a.93.93,0,1,0,.912-1.621c-.445-.25-.9-.491-1.362-.716a.93.93,0,1,0-.819,1.67Z" transform="translate(-302.226 -40.302)"/>
        <path id="Trazado_907551" data-name="Trazado 907551" d="M380.993,66.715c.378.29.753.595,1.114.9a.93.93,0,1,0,1.213-1.41c-.387-.333-.789-.66-1.195-.971a.93.93,0,1,0-1.132,1.476Z" transform="translate(-333.427 -59.648)"/>
        <path id="Trazado_907552" data-name="Trazado 907552" d="M306.425,30.2c.46.12.923.256,1.377.4a.93.93,0,0,0,.573-1.77c-.487-.158-.984-.3-1.479-.432a.93.93,0,0,0-.47,1.8Z" transform="translate(-267.817 -27.515)"/>
        <path id="Trazado_907553" data-name="Trazado 907553" d="M436.4,130.486a.93.93,0,0,0,1.663-.833c-.229-.458-.475-.915-.729-1.358a.93.93,0,0,0-1.613.926c.237.413.466.839.679,1.265Z" transform="translate(-381.58 -114.643)"/>
        <path id="Trazado_907554" data-name="Trazado 907554" d="M462.872,248.929a.929.929,0,0,0-1,.858c-.036.475-.085.956-.147,1.427a.93.93,0,1,0,1.844.243c.067-.506.12-1.022.158-1.532A.93.93,0,0,0,462.872,248.929Z" transform="translate(-404.463 -220.724)"/>
        <path id="Trazado_907555" data-name="Trazado 907555" d="M412.367,96.358a.93.93,0,0,0,1.466-1.145c-.315-.4-.645-.8-.982-1.187a.93.93,0,0,0-1.4,1.225c.314.358.622.731.915,1.106Z" transform="translate(-360.227 -84.755)"/>
        <path id="Trazado_907556" data-name="Trazado 907556" d="M462.787,207.021a.93.93,0,0,0-.81,1.036c.058.472.1.953.134,1.429a.93.93,0,0,0,.927.869l.062,0a.93.93,0,0,0,.867-.989c-.033-.511-.082-1.027-.144-1.533a.93.93,0,0,0-1.036-.81Z" transform="translate(-404.682 -184.009)"/>
        <path id="Trazado_907557" data-name="Trazado 907557" d="M452.8,167.323c.151.452.29.915.415,1.375a.93.93,0,1,0,1.8-.486c-.134-.494-.284-.991-.445-1.477a.93.93,0,1,0-1.765.588Z" transform="translate(-396.61 -148.168)"/>
        <path id="Trazado_907558" data-name="Trazado 907558" d="M58.1,56.8q.123-.393.235-.786a.93.93,0,1,0-1.791-.5c-.03.105-.062.211-.094.316a12.464,12.464,0,0,0-2.863-1,22.294,22.294,0,0,0-3.85-19.873A.93.93,0,0,0,48.271,36.1a20.435,20.435,0,0,1,3.452,18.47c-.262-.016-.526-.026-.792-.026a12.549,12.549,0,0,0-1.811.132A17.966,17.966,0,0,0,19.374,36.068l-1.258-2.18A20.4,20.4,0,0,1,45.394,33.1a.93.93,0,1,0,1.2-1.417,22.259,22.259,0,0,0-29.438.547L16,30.219a3.687,3.687,0,0,0-.443-.612A25.174,25.174,0,0,1,32.19,23.365a.93.93,0,0,0,0-1.86,27.03,27.03,0,0,0-18.266,7.063,3.656,3.656,0,0,0-1.054-.155,3.575,3.575,0,0,0-3.128,1.806L6.216,36.325a.93.93,0,1,0,1.611.93l3.525-6.106a1.752,1.752,0,0,1,3.034,0l9.253,16.026A1.752,1.752,0,0,1,22.122,49.8H3.617A1.752,1.752,0,0,1,2.1,47.175l3.557-6.161a.93.93,0,0,0-1.611-.93L.489,46.245a3.612,3.612,0,0,0,3.128,5.418H5.2A27.154,27.154,0,0,0,32.19,75.811a.93.93,0,1,0,0-1.86A25.294,25.294,0,0,1,7.075,51.662h3.054A22.277,22.277,0,0,0,38.7,69.954a12.48,12.48,0,0,0,1.911,4.3A.93.93,0,1,0,42.136,73.2a10.635,10.635,0,0,1-1.9-6.094,10.746,10.746,0,0,1,.3-2.537,18.091,18.091,0,0,0,7.7-7.819A10.7,10.7,0,1,1,44.983,76a.93.93,0,1,0-1.035,1.545A12.558,12.558,0,0,0,58.1,56.8Zm-19.69,11.3a20.411,20.411,0,0,1-26.4-16.432h2.466a17.969,17.969,0,0,0,24,13.828,12.669,12.669,0,0,0-.1,1.613q0,.5.039.991Zm-6.22-3.329a16.114,16.114,0,0,1-15.827-13.1h5.759a3.612,3.612,0,0,0,3.128-5.418l-4.906-8.5A16.107,16.107,0,1,1,32.19,64.766Z" transform="translate(0.001 -21.505)"/>
        <path id="Trazado_907559" data-name="Trazado 907559" d="M364.929,358.751h.015a.93.93,0,0,0,.688-.322l6.81-7.881a.93.93,0,0,0-1.408-1.216l-6.129,7.093-3.885-4.208a.93.93,0,1,0-1.367,1.262l4.591,4.973A.93.93,0,0,0,364.929,358.751Z" transform="translate(-314.838 -308.397)"/>
        <path id="Trazado_907560" data-name="Trazado 907560" d="M253.014,125.059a.93.93,0,0,0,.93-.93v-.741a.93.93,0,0,0-1.86,0v.741A.93.93,0,0,0,253.014,125.059Z" transform="translate(-220.823 -109.939)"/>
        <path id="Trazado_907561" data-name="Trazado 907561" d="M253.014,337.506a.93.93,0,0,0-.93.93v.741a.93.93,0,0,0,1.86,0v-.741A.93.93,0,0,0,253.014,337.506Z" transform="translate(-220.823 -298.319)"/>
        <path id="Trazado_907562" data-name="Trazado 907562" d="M356.622,233.9a.93.93,0,0,0,.93.93h.741a.93.93,0,1,0,0-1.86h-.741A.93.93,0,0,0,356.622,233.9Z" transform="translate(-312.398 -206.746)"/>
        <path id="Trazado_907563" data-name="Trazado 907563" d="M198.564,137.728a.93.93,0,1,0-1.611.93l.37.641a.93.93,0,1,0,1.611-.93Z" transform="translate(-172.42 -122.908)"/>
        <path id="Trazado_907564" data-name="Trazado 907564" d="M306.088,323.965a.93.93,0,1,0-1.611.93l.37.641a.93.93,0,1,0,1.611-.93Z" transform="translate(-266.61 -286.05)"/>
        <path id="Trazado_907565" data-name="Trazado 907565" d="M157.485,285.361l-.642.37a.93.93,0,1,0,.93,1.611l.642-.37a.93.93,0,1,0-.93-1.611Z" transform="translate(-136.986 -252.531)"/>
        <path id="Trazado_907566" data-name="Trazado 907566" d="M342.74,179.478a.93.93,0,0,0,1.271.34l.641-.37a.93.93,0,1,0-.93-1.611l-.642.37A.93.93,0,0,0,342.74,179.478Z" transform="translate(-300.128 -158.341)"/>
        <path id="Trazado_907567" data-name="Trazado 907567" d="M344.652,285.731l-.641-.37a.93.93,0,0,0-.93,1.611l.642.37a.93.93,0,1,0,.93-1.611Z" transform="translate(-300.128 -252.531)"/>
        <path id="Trazado_907568" data-name="Trazado 907568" d="M198.593,323.624a.93.93,0,0,0-1.271.34l-.37.642a.93.93,0,1,0,1.611.93l.37-.642A.93.93,0,0,0,198.593,323.624Z" transform="translate(-172.419 -286.05)"/>
        <path id="Trazado_907569" data-name="Trazado 907569" d="M304.817,139.64a.93.93,0,0,0,1.27-.341l.37-.642a.93.93,0,1,0-1.611-.93l-.37.641A.93.93,0,0,0,304.817,139.64Z" transform="translate(-266.61 -122.908)"/>
        <path id="Trazado_907570" data-name="Trazado 907570" d="M97.215,130.266a.93.93,0,0,0,.93-.93V122.31a.93.93,0,1,0-1.86,0v7.025A.93.93,0,0,0,97.215,130.266Z" transform="translate(-84.345 -108.995)"/>
        <path id="Trazado_907571" data-name="Trazado 907571" d="M96.285,209.4a.93.93,0,1,0,1.86,0v-.856a.93.93,0,0,0-1.86,0Z" transform="translate(-84.345 -184.538)"/>
        <path id="Trazado_907572" data-name="Trazado 907572" d="M246.214,163.9h-5a3.017,3.017,0,0,0-1.926-1.926v-6.922a.93.93,0,0,0-1.86,0v6.922a3,3,0,1,0,3.786,3.786h5a.93.93,0,0,0,0-1.86Zm-7.852,2.074a1.144,1.144,0,1,1,1.144-1.144A1.145,1.145,0,0,1,238.362,165.97Z" transform="translate(-206.172 -137.673)"/>
      </g>
    </g>
  </g>
</svg>
