<svg xmlns="http://www.w3.org/2000/svg" xmlns:xlink="http://www.w3.org/1999/xlink" width="102.949" height="102.949" viewBox="0 0 102.949 102.949">
  <defs>
    <filter id="Trazado_874925" x="0" y="0" width="102.949" height="102.949" filterUnits="userSpaceOnUse">
      <feOffset dy="3" input="SourceAlpha"/>
      <feGaussianBlur stdDeviation="3" result="blur"/>
      <feFlood flood-opacity="0.161"/>
      <feComposite operator="in" in2="blur"/>
      <feComposite in="SourceGraphic"/>
    </filter>
  </defs>
  <g id="Grupo_1115765" data-name="Grupo 1115765" transform="translate(-1221.051 -5863)">
    <g id="Grupo_1115736" data-name="Grupo 1115736" transform="translate(0.051 -0.095)">
      <g transform="matrix(1, 0, 0, 1, 1221, 5863.09)" filter="url(#Trazado_874925)">
        <g id="Trazado_874925-2" data-name="Trazado 874925" transform="translate(9 6)" fill="#fc0" opacity="0.998">
          <path d="M 42.47446823120117 83.44929504394531 C 36.94229125976562 83.44929504394531 31.57638549804688 82.36614227294922 26.52582168579102 80.22994232177734 C 21.64678573608398 78.16628265380859 17.26464462280273 75.211669921875 13.50113868713379 71.44816589355469 C 9.737632751464844 67.68466949462891 6.78300952911377 63.30253982543945 4.719362258911133 58.42351913452148 C 2.583150625228882 53.37295150756836 1.499997615814209 48.00706100463867 1.499997615814209 42.47489547729492 C 1.499997615814209 36.94223403930664 2.583150625228882 31.57634162902832 4.719362258911133 26.52577781677246 C 6.78300952911377 21.64675331115723 9.737632751464844 17.26462364196777 13.50113868713379 13.50113010406494 C 17.26464462280273 9.737624168395996 21.64678573608398 6.783012390136719 26.52582168579102 4.719353199005127 C 31.57638549804688 2.583153486251831 36.94229125976562 1.500000476837158 42.47446823120117 1.500000476837158 C 48.00664520263672 1.500000476837158 53.37255096435547 2.583153486251831 58.42311477661133 4.719353199005127 C 63.30215072631836 6.783012390136719 67.68428802490234 9.737624168395996 71.44779968261719 13.50113010406494 C 75.2113037109375 17.26462364196777 78.16592407226562 21.64675331115723 80.22957611083984 26.52577781677246 C 82.36578369140625 31.57634162902832 83.44893646240234 36.94223403930664 83.44893646240234 42.47439956665039 C 83.44893646240234 48.00706100463867 82.36578369140625 53.37295150756836 80.22957611083984 58.42351913452148 C 78.16592407226562 63.30253982543945 75.2113037109375 67.68466949462891 71.44779968261719 71.44816589355469 C 67.68428802490234 75.211669921875 63.30215072631836 78.16628265380859 58.42311477661133 80.22994232177734 C 53.37255096435547 82.36614227294922 48.00664520263672 83.44929504394531 42.47446823120117 83.44929504394531 Z" stroke="none"/>
          <path d="M 42.47446823120117 2.999992370605469 C 37.14412307739258 2.999992370605469 31.97481536865234 4.04327392578125 27.11014938354492 6.100860595703125 C 22.40990829467773 8.088890075683594 18.18804168701172 10.93555450439453 14.56179809570312 14.56178283691406 C 10.93557739257812 18.18801116943359 8.088897705078125 22.40987396240234 6.100868225097656 27.11009979248047 C 4.043281555175781 31.97476577758789 3 37.14406204223633 3 42.47488784790039 C 3 47.80522155761719 4.043281555175781 52.97451400756836 6.100868225097656 57.83917999267578 C 8.088897705078125 62.53940582275391 10.93557739257812 66.76127624511719 14.56179809570312 70.38749694824219 C 18.18804168701172 74.01372528076172 22.40990829467773 76.86039733886719 27.11014938354492 78.84841918945312 C 31.97481536865234 80.906005859375 37.14412307739258 81.94928741455078 42.47446823120117 81.94928741455078 C 47.80481338500977 81.94928741455078 52.97412109375 80.906005859375 57.83879089355469 78.84841918945312 C 62.53902816772461 76.86039733886719 66.76089477539062 74.01372528076172 70.38713073730469 70.38749694824219 C 74.01335906982422 66.76127624511719 76.86003875732422 62.53940582275391 78.84806823730469 57.83917999267578 C 80.90565490722656 52.97451400756836 81.94893646240234 47.80522155761719 81.94893646240234 42.47439575195312 C 81.94893646240234 37.14406204223633 80.90565490722656 31.97476577758789 78.84806823730469 27.11009979248047 C 76.86003875732422 22.40987396240234 74.01335906982422 18.18801116943359 70.38713073730469 14.56178283691406 C 66.76089477539062 10.93555450439453 62.53902816772461 8.088890075683594 57.83879089355469 6.100860595703125 C 52.97412109375 4.04327392578125 47.80481338500977 2.999992370605469 42.47446823120117 2.999992370605469 M 42.47446823120117 -7.62939453125e-06 C 65.93246459960938 -7.62939453125e-06 84.94893646240234 19.01643371582031 84.94893646240234 42.47439575195312 L 84.94893646240234 42.47488784790039 C 84.94893646240234 65.93284606933594 65.93246459960938 84.94928741455078 42.47446823120117 84.94928741455078 C 19.01647186279297 84.94928741455078 0 65.93284606933594 0 42.47488784790039 L 0 42.47439575195312 C 0 19.01643371582031 19.01647186279297 -7.62939453125e-06 42.47446823120117 -7.62939453125e-06 Z" stroke="none" fill="#fff"/>
        </g>
      </g>
      <g id="Trazado_874923" data-name="Trazado 874923" transform="translate(1230 5869.095)" fill="none" opacity="0.998">
        <path d="M42.474,0A42.474,42.474,0,0,1,84.949,42.474h0A42.474,42.474,0,0,1,0,42.475H0A42.474,42.474,0,0,1,42.474,0Z" stroke="none"/>
        <path d="M 42.47446823120117 2.999992370605469 C 37.14412307739258 2.999992370605469 31.97481536865234 4.04327392578125 27.11014938354492 6.100860595703125 C 22.40990829467773 8.088890075683594 18.18804168701172 10.93555450439453 14.56179809570312 14.56178283691406 C 10.93557739257812 18.18801116943359 8.088897705078125 22.40987396240234 6.100868225097656 27.11009979248047 C 4.043281555175781 31.97476577758789 3 37.14406204223633 3 42.47488784790039 C 3 47.80522155761719 4.043281555175781 52.97451400756836 6.100868225097656 57.83917999267578 C 8.088897705078125 62.53940582275391 10.93557739257812 66.76127624511719 14.56179809570312 70.38749694824219 C 18.18804168701172 74.01372528076172 22.40990829467773 76.86039733886719 27.11014938354492 78.84841918945312 C 31.97481536865234 80.906005859375 37.14412307739258 81.94928741455078 42.47446823120117 81.94928741455078 C 47.80481338500977 81.94928741455078 52.97412109375 80.906005859375 57.83879089355469 78.84841918945312 C 62.53902816772461 76.86039733886719 66.76089477539062 74.01372528076172 70.38713073730469 70.38749694824219 C 74.01335906982422 66.76127624511719 76.86003875732422 62.53940582275391 78.84806823730469 57.83917999267578 C 80.90565490722656 52.97451400756836 81.94893646240234 47.80522155761719 81.94893646240234 42.47439575195312 C 81.94893646240234 37.14406204223633 80.90565490722656 31.97476577758789 78.84806823730469 27.11009979248047 C 76.86003875732422 22.40987396240234 74.01335906982422 18.18801116943359 70.38713073730469 14.56178283691406 C 66.76089477539062 10.93555450439453 62.53902816772461 8.088890075683594 57.83879089355469 6.100860595703125 C 52.97412109375 4.04327392578125 47.80481338500977 2.999992370605469 42.47446823120117 2.999992370605469 M 42.47446823120117 -7.62939453125e-06 C 65.93246459960938 -7.62939453125e-06 84.94893646240234 19.01643371582031 84.94893646240234 42.47439575195312 L 84.94893646240234 42.47488784790039 C 84.94893646240234 65.93284606933594 65.93246459960938 84.94928741455078 42.47446823120117 84.94928741455078 C 19.01647186279297 84.94928741455078 0 65.93284606933594 0 42.47488784790039 L 0 42.47439575195312 C 0 19.01643371582031 19.01647186279297 -7.62939453125e-06 42.47446823120117 -7.62939453125e-06 Z" stroke="none" fill="#fff"/>
      </g>
    </g>
    <g id="Grupo_1115764" data-name="Grupo 1115764" transform="translate(1247.021 5881.851)">
      <g id="Grupo_1115762" data-name="Grupo 1115762" transform="translate(0.776 7.602)">
        <g id="Grupo_1115761" data-name="Grupo 1115761">
          <g id="Grupo_1115745" data-name="Grupo 1115745" transform="translate(27.483 24.533)">
            <path id="Trazado_908569" data-name="Trazado 908569" d="M285.116,251.278v3.167a9.615,9.615,0,0,0-8.376,15.706h-3.8a12.773,12.773,0,1,0,12.173-18.873Z" transform="translate(-272.943 -251.278)" fill="#feb237"/>
          </g>
          <g id="Grupo_1115746" data-name="Grupo 1115746" transform="translate(12.04 4.454)">
            <path id="Trazado_908570" data-name="Trazado 908570" d="M140.915,90.16A9.515,9.515,0,0,1,151.507,80.7V58.379a1.035,1.035,0,0,0-1.035-1.035H129.821V73.62a1.456,1.456,0,0,1-1.454,1.454h-4.578V95.364a1.035,1.035,0,0,0,1.035,1.035h18.429A9.476,9.476,0,0,1,140.915,90.16Z" transform="translate(-123.788 -57.344)" fill="#d8ecfe"/>
          </g>
          <g id="Grupo_1115749" data-name="Grupo 1115749" transform="translate(12.04 4.454)">
            <g id="Grupo_1115747" data-name="Grupo 1115747" transform="translate(23.835)">
              <path id="Trazado_908571" data-name="Trazado 908571" d="M356.808,80.644a9.572,9.572,0,0,1,1.076.061V58.379a1.035,1.035,0,0,0-1.035-1.035H354V81.067A9.485,9.485,0,0,1,356.808,80.644Z" transform="translate(-354 -57.344)" fill="#c4e2ff"/>
            </g>
            <g id="Grupo_1115748" data-name="Grupo 1115748" transform="translate(0 35.189)">
              <path id="Trazado_908572" data-name="Trazado 908572" d="M141.215,397.219H123.788v2.831a1.035,1.035,0,0,0,1.035,1.035h18.429A9.5,9.5,0,0,1,141.215,397.219Z" transform="translate(-123.788 -397.219)" fill="#c4e2ff"/>
            </g>
          </g>
          <g id="Grupo_1115753" data-name="Grupo 1115753" transform="translate(18.015 10.103)">
            <g id="Grupo_1115750" data-name="Grupo 1115750">
              <path id="Trazado_908573" data-name="Trazado 908573" d="M184.44,120.109H181.5v-8.2h2.426a.518.518,0,0,1,.518.518Z" transform="translate(-181.496 -111.909)" fill="#ffe177"/>
            </g>
            <g id="Grupo_1115751" data-name="Grupo 1115751" transform="translate(6.413 3.049)">
              <path id="Trazado_908574" data-name="Trazado 908574" d="M246.381,146.508h-2.944v-4.634a.518.518,0,0,1,.518-.518h1.908a.518.518,0,0,1,.518.518Z" transform="translate(-243.437 -141.356)" fill="#fe646f"/>
            </g>
            <g id="Grupo_1115752" data-name="Grupo 1115752" transform="translate(12.826 1.577)">
              <path id="Trazado_908575" data-name="Trazado 908575" d="M308.323,133.763h-2.944v-6.106a.518.518,0,0,1,.518-.518h1.908a.518.518,0,0,1,.518.518Z" transform="translate(-305.379 -127.14)" fill="#05e39c"/>
            </g>
          </g>
          <g id="Grupo_1115754" data-name="Grupo 1115754" transform="translate(29.063 27.65)">
            <circle id="Elipse_11737" data-name="Elipse 11737" cx="9.62" cy="9.62" r="9.62" fill="#ffe177"/>
          </g>
          <g id="Grupo_1115755" data-name="Grupo 1115755" transform="translate(31.959 28.092)">
            <path id="Trazado_908576" data-name="Trazado 908576" d="M325.79,285.655a9.622,9.622,0,0,1-9.614,16.056,9.62,9.62,0,1,0,9.614-16.056Z" transform="translate(-316.176 -285.655)" fill="#ffd15b"/>
          </g>
          <g id="Grupo_1115760" data-name="Grupo 1115760">
            <g id="Grupo_1115756" data-name="Grupo 1115756" transform="translate(0)">
              <path id="Trazado_908577" data-name="Trazado 908577" d="M24.118,36.613H9.058A1.558,1.558,0,0,1,7.5,35.055V15.883a1.558,1.558,0,0,1,1.558-1.558h15.06a1.558,1.558,0,0,1,1.558,1.558V35.055A1.558,1.558,0,0,1,24.118,36.613Z" transform="translate(-7.5 -14.325)" fill="#26a6fe"/>
            </g>
            <g id="Grupo_1115757" data-name="Grupo 1115757" transform="translate(0 0)">
              <path id="Trazado_908578" data-name="Trazado 908578" d="M24.118,14.326H21.794V31.267a1.558,1.558,0,0,1-1.558,1.558H7.5v2.231a1.558,1.558,0,0,0,1.558,1.558h15.06a1.558,1.558,0,0,0,1.558-1.558V15.884A1.558,1.558,0,0,0,24.118,14.326Z" transform="translate(-7.5 -14.326)" fill="#0593fc"/>
            </g>
            <g id="Grupo_1115758" data-name="Grupo 1115758" transform="translate(2.99 3.154)">
              <path id="Trazado_908579" data-name="Trazado 908579" d="M36.383,49.418V45.1a.312.312,0,0,1,.312-.312H48.267a.312.312,0,0,1,.312.312v4.318a.312.312,0,0,1-.312.312H36.695a.312.312,0,0,1-.312-.312Z" transform="translate(-36.383 -44.788)" fill="#fff"/>
            </g>
            <g id="Grupo_1115759" data-name="Grupo 1115759" transform="translate(2.99 3.154)">
              <path id="Trazado_908580" data-name="Trazado 908580" d="M48.267,44.789H45.558v1.575A1.035,1.035,0,0,1,44.523,47.4h-8.14v2.019a.312.312,0,0,0,.312.312H48.267a.312.312,0,0,0,.312-.312V45.1A.312.312,0,0,0,48.267,44.789Z" transform="translate(-36.383 -44.789)" fill="#f3f0f3"/>
            </g>
          </g>
        </g>
      </g>
      <g id="Grupo_1115763" data-name="Grupo 1115763" transform="translate(0 6.826)">
        <path id="Trazado_908581" data-name="Trazado 908581" d="M49.408,35.681a13.516,13.516,0,0,0-8.1-4.231V13.092A1.814,1.814,0,0,0,39.5,11.28H34.374a.777.777,0,1,0,0,1.553H39.5a.259.259,0,0,1,.259.259V34.481c-.1,0-.2,0-.3,0a10.391,10.391,0,0,0-8.841,15.859H13.852a.259.259,0,0,1-.259-.259V30.667H36.237a.777.777,0,0,0,0-1.553H19.594a2.324,2.324,0,0,0,.135-.781v-1.65H36.237a.777.777,0,0,0,0-1.553h-.9V19.8a1.3,1.3,0,0,0-1.294-1.294H32.135A1.3,1.3,0,0,0,30.841,19.8V25.13H28.924V21.272a1.3,1.3,0,0,0-1.294-1.294H25.722a1.3,1.3,0,0,0-1.294,1.294V25.13H22.511V18.223a1.3,1.3,0,0,0-1.294-1.294H19.729v-4.1H30.75a.777.777,0,1,0,0-1.553H19.729V9.16a2.337,2.337,0,0,0-2.335-2.334H2.334A2.337,2.337,0,0,0,0,9.16V28.333a2.337,2.337,0,0,0,2.335,2.335H5.073a.777.777,0,0,0,0-1.553H2.334a.782.782,0,0,1-.781-.781V9.16a.782.782,0,0,1,.781-.781h15.06a.782.782,0,0,1,.781.781V28.333a.782.782,0,0,1-.781.781H8.7a.777.777,0,0,0,0,1.553H12.04V50.076a1.814,1.814,0,0,0,1.812,1.812h14.02a13.536,13.536,0,0,0,19.4,4.047.776.776,0,1,0-.9-1.267,11.977,11.977,0,0,1-16.642-2.78h2.059a10.394,10.394,0,1,0,9.518-17.247V33.019a11.989,11.989,0,0,1,7.54,19.308.777.777,0,1,0,1.215.967,13.525,13.525,0,0,0-.66-17.612ZM32.394,20.059h1.391v5.07H32.394Zm-6.413,1.472h1.391v3.6H25.981Zm-6.251-3.049h1.229V25.13H19.729ZM48.3,44.872a8.843,8.843,0,1,1-8.843-8.843A8.853,8.853,0,0,1,48.3,44.872Z" transform="translate(0 -6.826)"/>
        <path id="Trazado_908582" data-name="Trazado 908582" d="M179.156,260.584h-13.18a.777.777,0,1,0,0,1.553h13.18a.777.777,0,1,0,0-1.553Z" transform="translate(-148.095 -234.311)"/>
        <path id="Trazado_908583" data-name="Trazado 908583" d="M176.93,299.848a.777.777,0,0,0-.777-.776H165.976a.777.777,0,0,0,0,1.553h10.178A.777.777,0,0,0,176.93,299.848Z" transform="translate(-148.095 -268.813)"/>
        <path id="Trazado_908584" data-name="Trazado 908584" d="M173.94,337.557h-7.965a.777.777,0,1,0,0,1.553h7.965a.777.777,0,0,0,0-1.553Z" transform="translate(-148.095 -303.315)"/>
        <path id="Trazado_908585" data-name="Trazado 908585" d="M173.94,376.042h-7.965a.777.777,0,1,0,0,1.553h7.965a.777.777,0,0,0,0-1.553Z" transform="translate(-148.095 -337.815)"/>
        <path id="Trazado_908586" data-name="Trazado 908586" d="M351.164,311.319v1.149c-.08.018-.16.039-.242.063a2.59,2.59,0,0,0-1.881,2.088,2.319,2.319,0,0,0,1.034,2.3.783.783,0,0,0,.108.059c.046.02,1.14.507,2.372.962.851.314,1.285.8,1.189,1.335a1.57,1.57,0,0,1-1.614,1.091,3.007,3.007,0,0,1-2.209-.929.776.776,0,1,0-1.151,1.043,4.483,4.483,0,0,0,2.393,1.338v1.155a.777.777,0,1,0,1.553,0v-1.1a3.032,3.032,0,0,0,2.557-2.322c.183-1.025-.294-2.369-2.181-3.065-1.017-.375-1.962-.785-2.212-.895a.771.771,0,0,1-.3-.744,1.044,1.044,0,0,1,.791-.821,2.888,2.888,0,0,1,2.4.549.776.776,0,0,0,1-1.191,4.814,4.814,0,0,0-2.053-.937v-1.119a.777.777,0,0,0-1.553,0Z" transform="translate(-312.48 -279.098)"/>
        <path id="Trazado_908587" data-name="Trazado 908587" d="M42.632,42.694V38.376a1.089,1.089,0,0,0-1.088-1.088H29.971a1.089,1.089,0,0,0-1.088,1.088v4.318a1.089,1.089,0,0,0,1.088,1.088H41.543A1.089,1.089,0,0,0,42.632,42.694Zm-1.553-.465H30.436V38.841H41.078Z" transform="translate(-25.893 -34.134)"/>
        <path id="Trazado_908588" data-name="Trazado 908588" d="M34.331,116.255a.777.777,0,0,0-1.553,0v.526a.777.777,0,1,0,1.553,0Z" transform="translate(-29.384 -104.229)"/>
        <path id="Trazado_908589" data-name="Trazado 908589" d="M34.331,149.764a.777.777,0,1,0-1.553,0v.526a.777.777,0,1,0,1.553,0Z" transform="translate(-29.384 -134.268)"/>
        <path id="Trazado_908590" data-name="Trazado 908590" d="M33.555,182.5a.777.777,0,0,0-.777.777v.526a.777.777,0,0,0,1.553,0v-.526A.776.776,0,0,0,33.555,182.5Z" transform="translate(-29.384 -164.309)"/>
        <path id="Trazado_908591" data-name="Trazado 908591" d="M71,116.255a.777.777,0,0,0-1.553,0v.526a.777.777,0,1,0,1.553,0Z" transform="translate(-62.255 -104.229)"/>
        <path id="Trazado_908592" data-name="Trazado 908592" d="M70.222,148.987a.777.777,0,0,0-.777.777v.526a.777.777,0,1,0,1.553,0v-.526A.777.777,0,0,0,70.222,148.987Z" transform="translate(-62.255 -134.268)"/>
        <path id="Trazado_908593" data-name="Trazado 908593" d="M71,183.8v-.526a.777.777,0,1,0-1.553,0v.526a.777.777,0,0,0,1.553,0Z" transform="translate(-62.255 -164.309)"/>
        <path id="Trazado_908594" data-name="Trazado 908594" d="M107.664,116.255a.777.777,0,0,0-1.553,0v.526a.777.777,0,1,0,1.553,0Z" transform="translate(-95.125 -104.229)"/>
        <path id="Trazado_908595" data-name="Trazado 908595" d="M107.664,149.764a.777.777,0,1,0-1.553,0v.526a.777.777,0,1,0,1.553,0Z" transform="translate(-95.125 -134.268)"/>
        <path id="Trazado_908596" data-name="Trazado 908596" d="M106.887,182.5a.777.777,0,0,0-.777.777v.526a.777.777,0,0,0,1.553,0v-.526A.776.776,0,0,0,106.887,182.5Z" transform="translate(-95.125 -164.309)"/>
        <path id="Trazado_908597" data-name="Trazado 908597" d="M144.331,116.255a.777.777,0,1,0-1.553,0v.526a.777.777,0,1,0,1.553,0Z" transform="translate(-127.996 -104.229)"/>
        <path id="Trazado_908598" data-name="Trazado 908598" d="M143.555,148.987a.777.777,0,0,0-.776.777v4a.777.777,0,0,0,1.553,0v-4A.777.777,0,0,0,143.555,148.987Z" transform="translate(-127.996 -134.268)"/>
      </g>
    </g>
  </g>
</svg>
