<svg xmlns="http://www.w3.org/2000/svg" xmlns:xlink="http://www.w3.org/1999/xlink" width="102.949" height="102.949" viewBox="0 0 102.949 102.949">
  <defs>
    <filter id="Trazado_874925" x="0" y="0" width="102.949" height="102.949" filterUnits="userSpaceOnUse">
      <feOffset dy="3" input="SourceAlpha"/>
      <feGaussianBlur stdDeviation="3" result="blur"/>
      <feFlood flood-opacity="0.161"/>
      <feComposite operator="in" in2="blur"/>
      <feComposite in="SourceGraphic"/>
    </filter>
  </defs>
  <g id="Grupo_1115740" data-name="Grupo 1115740" transform="translate(-591 -5863.095)">
    <g id="Grupo_1115738" data-name="Grupo 1115738">
      <g transform="matrix(1, 0, 0, 1, 591, 5863.09)" filter="url(#Trazado_874925)">
        <g id="Trazado_874925-2" data-name="Trazado 874925" transform="translate(9 6)" fill="#fc0" opacity="0.998">
          <path d="M 42.47446823120117 83.44929504394531 C 36.94229125976562 83.44929504394531 31.57638549804688 82.36614227294922 26.52582168579102 80.22994232177734 C 21.64678573608398 78.16628265380859 17.26464462280273 75.211669921875 13.50113868713379 71.44816589355469 C 9.737632751464844 67.68466949462891 6.78300952911377 63.30253982543945 4.719362258911133 58.42351913452148 C 2.583150625228882 53.37295150756836 1.499997615814209 48.00706100463867 1.499997615814209 42.47489547729492 C 1.499997615814209 36.94223403930664 2.583150625228882 31.57634162902832 4.719362258911133 26.52577781677246 C 6.78300952911377 21.64675331115723 9.737632751464844 17.26462364196777 13.50113868713379 13.50113010406494 C 17.26464462280273 9.737624168395996 21.64678573608398 6.783012390136719 26.52582168579102 4.719353199005127 C 31.57638549804688 2.583153486251831 36.94229125976562 1.500000476837158 42.47446823120117 1.500000476837158 C 48.00664520263672 1.500000476837158 53.37255096435547 2.583153486251831 58.42311477661133 4.719353199005127 C 63.30215072631836 6.783012390136719 67.68428802490234 9.737624168395996 71.44779968261719 13.50113010406494 C 75.2113037109375 17.26462364196777 78.16592407226562 21.64675331115723 80.22957611083984 26.52577781677246 C 82.36578369140625 31.57634162902832 83.44893646240234 36.94223403930664 83.44893646240234 42.47439956665039 C 83.44893646240234 48.00706100463867 82.36578369140625 53.37295150756836 80.22957611083984 58.42351913452148 C 78.16592407226562 63.30253982543945 75.2113037109375 67.68466949462891 71.44779968261719 71.44816589355469 C 67.68428802490234 75.211669921875 63.30215072631836 78.16628265380859 58.42311477661133 80.22994232177734 C 53.37255096435547 82.36614227294922 48.00664520263672 83.44929504394531 42.47446823120117 83.44929504394531 Z" stroke="none"/>
          <path d="M 42.47446823120117 2.999992370605469 C 37.14412307739258 2.999992370605469 31.97481536865234 4.04327392578125 27.11014938354492 6.100860595703125 C 22.40990829467773 8.088890075683594 18.18804168701172 10.93555450439453 14.56179809570312 14.56178283691406 C 10.93557739257812 18.18801116943359 8.088897705078125 22.40987396240234 6.100868225097656 27.11009979248047 C 4.043281555175781 31.97476577758789 3 37.14406204223633 3 42.47488784790039 C 3 47.80522155761719 4.043281555175781 52.97451400756836 6.100868225097656 57.83917999267578 C 8.088897705078125 62.53940582275391 10.93557739257812 66.76127624511719 14.56179809570312 70.38749694824219 C 18.18804168701172 74.01372528076172 22.40990829467773 76.86039733886719 27.11014938354492 78.84841918945312 C 31.97481536865234 80.906005859375 37.14412307739258 81.94928741455078 42.47446823120117 81.94928741455078 C 47.80481338500977 81.94928741455078 52.97412109375 80.906005859375 57.83879089355469 78.84841918945312 C 62.53902816772461 76.86039733886719 66.76089477539062 74.01372528076172 70.38713073730469 70.38749694824219 C 74.01335906982422 66.76127624511719 76.86003875732422 62.53940582275391 78.84806823730469 57.83917999267578 C 80.90565490722656 52.97451400756836 81.94893646240234 47.80522155761719 81.94893646240234 42.47439575195312 C 81.94893646240234 37.14406204223633 80.90565490722656 31.97476577758789 78.84806823730469 27.11009979248047 C 76.86003875732422 22.40987396240234 74.01335906982422 18.18801116943359 70.38713073730469 14.56178283691406 C 66.76089477539062 10.93555450439453 62.53902816772461 8.088890075683594 57.83879089355469 6.100860595703125 C 52.97412109375 4.04327392578125 47.80481338500977 2.999992370605469 42.47446823120117 2.999992370605469 M 42.47446823120117 -7.62939453125e-06 C 65.93246459960938 -7.62939453125e-06 84.94893646240234 19.01643371582031 84.94893646240234 42.47439575195312 L 84.94893646240234 42.47488784790039 C 84.94893646240234 65.93284606933594 65.93246459960938 84.94928741455078 42.47446823120117 84.94928741455078 C 19.01647186279297 84.94928741455078 0 65.93284606933594 0 42.47488784790039 L 0 42.47439575195312 C 0 19.01643371582031 19.01647186279297 -7.62939453125e-06 42.47446823120117 -7.62939453125e-06 Z" stroke="none" fill="#fff"/>
        </g>
      </g>
      <g id="Trazado_874923" data-name="Trazado 874923" transform="translate(600 5869.095)" fill="none" opacity="0.998">
        <path d="M42.474,0A42.474,42.474,0,0,1,84.949,42.474h0A42.474,42.474,0,0,1,0,42.475H0A42.474,42.474,0,0,1,42.474,0Z" stroke="none"/>
        <path d="M 42.47446823120117 2.999992370605469 C 37.14412307739258 2.999992370605469 31.97481536865234 4.04327392578125 27.11014938354492 6.100860595703125 C 22.40990829467773 8.088890075683594 18.18804168701172 10.93555450439453 14.56179809570312 14.56178283691406 C 10.93557739257812 18.18801116943359 8.088897705078125 22.40987396240234 6.100868225097656 27.11009979248047 C 4.043281555175781 31.97476577758789 3 37.14406204223633 3 42.47488784790039 C 3 47.80522155761719 4.043281555175781 52.97451400756836 6.100868225097656 57.83917999267578 C 8.088897705078125 62.53940582275391 10.93557739257812 66.76127624511719 14.56179809570312 70.38749694824219 C 18.18804168701172 74.01372528076172 22.40990829467773 76.86039733886719 27.11014938354492 78.84841918945312 C 31.97481536865234 80.906005859375 37.14412307739258 81.94928741455078 42.47446823120117 81.94928741455078 C 47.80481338500977 81.94928741455078 52.97412109375 80.906005859375 57.83879089355469 78.84841918945312 C 62.53902816772461 76.86039733886719 66.76089477539062 74.01372528076172 70.38713073730469 70.38749694824219 C 74.01335906982422 66.76127624511719 76.86003875732422 62.53940582275391 78.84806823730469 57.83917999267578 C 80.90565490722656 52.97451400756836 81.94893646240234 47.80522155761719 81.94893646240234 42.47439575195312 C 81.94893646240234 37.14406204223633 80.90565490722656 31.97476577758789 78.84806823730469 27.11009979248047 C 76.86003875732422 22.40987396240234 74.01335906982422 18.18801116943359 70.38713073730469 14.56178283691406 C 66.76089477539062 10.93555450439453 62.53902816772461 8.088890075683594 57.83879089355469 6.100860595703125 C 52.97412109375 4.04327392578125 47.80481338500977 2.999992370605469 42.47446823120117 2.999992370605469 M 42.47446823120117 -7.62939453125e-06 C 65.93246459960938 -7.62939453125e-06 84.94893646240234 19.01643371582031 84.94893646240234 42.47439575195312 L 84.94893646240234 42.47488784790039 C 84.94893646240234 65.93284606933594 65.93246459960938 84.94928741455078 42.47446823120117 84.94928741455078 C 19.01647186279297 84.94928741455078 0 65.93284606933594 0 42.47488784790039 L 0 42.47439575195312 C 0 19.01643371582031 19.01647186279297 -7.62939453125e-06 42.47446823120117 -7.62939453125e-06 Z" stroke="none" fill="#fff"/>
      </g>
    </g>
    <g id="_20-Currency_Exchange" data-name="20-Currency Exchange" transform="translate(614.275 5883.224)">
      <path id="Trazado_908499" data-name="Trazado 908499" d="M22.742,5a6.686,6.686,0,0,1,5.276,2.554A10.949,10.949,0,0,0,17.88,16.411,6.742,6.742,0,0,1,22.742,5Z" transform="translate(-2.516 -0.786)" fill="#ffac5a"/>
      <path id="Trazado_908500" data-name="Trazado 908500" d="M29.663,4.4a10.128,10.128,0,0,1,1.9,3.093,10.994,10.994,0,0,0-3.548-.59c-.211,0-.413.008-.624.025a6.742,6.742,0,1,0-10.139,8.858A11.079,11.079,0,0,0,17.266,20a10.113,10.113,0,1,1,12.4-15.6Z" transform="translate(-1.885 -0.158)" fill="#ff873c"/>
      <path id="Trazado_908501" data-name="Trazado 908501" d="M44.59,11.371l-3.051,2.292A10.943,10.943,0,0,0,37.03,9.247L39.533,8Z" transform="translate(-5.822 -1.258)" fill="#ffbeaa"/>
      <ellipse id="Elipse_11734" data-name="Elipse 11734" cx="10.5" cy="11" rx="10.5" ry="11" transform="translate(15.776 6.776)" fill="#ffac5a"/>
      <path id="Trazado_908502" data-name="Trazado 908502" d="M62.01,7V20.484H56.953V7Z" transform="translate(-8.955 -1.101)" fill="#64e1dc"/>
      <path id="Trazado_908503" data-name="Trazado 908503" d="M62.481,7V20.484H59.953V7Z" transform="translate(-9.426 -1.101)" fill="#00c8c8"/>
      <path id="Trazado_908504" data-name="Trazado 908504" d="M37.067,18.742a6.962,6.962,0,0,1,.051.843,7.6,7.6,0,1,1-1.938-5.057h-2.7a2.107,2.107,0,0,0,0,4.214Z" transform="translate(-3.447 -1.887)" fill="#ffdfb0"/>
      <path id="Trazado_908505" data-name="Trazado 908505" d="M28.478,12.843a7.534,7.534,0,0,1,4.747,1.686H35.81a7.576,7.576,0,0,0-9.879-1.238,7.568,7.568,0,0,1,2.547-.448Z" transform="translate(-4.077 -1.887)" fill="#ffcf94"/>
      <path id="Trazado_908506" data-name="Trazado 908506" d="M38.33,19.371H33.745A2.1,2.1,0,0,1,32.067,16H32.06a2.107,2.107,0,0,0,0,4.214h4.585a6.963,6.963,0,0,1,.051.843,7.579,7.579,0,0,1-3.353,6.295,7.585,7.585,0,0,0,5.038-7.137,6.962,6.962,0,0,0-.051-.843Z" transform="translate(-4.71 -2.516)" fill="#ffcf94"/>
      <path id="Trazado_908507" data-name="Trazado 908507" d="M35.184,12.528A7.527,7.527,0,0,0,22.01,18.375a7.577,7.577,0,0,1,13.174-4.162h3.624l.32-.236a10.945,10.945,0,0,0-.974-1.45Z" transform="translate(-3.452 -1.572)" fill="#fc9942"/>
      <path id="Trazado_908508" data-name="Trazado 908508" d="M39.894,21.686h1.735a10.007,10.007,0,0,0,1.552.787,11.056,11.056,0,0,0,.133-1.63A10.046,10.046,0,0,1,41.629,20H39.893a6.963,6.963,0,0,1,.051.843A7.531,7.531,0,0,1,39.894,21.686Z" transform="translate(-6.272 -3.145)" fill="#fc9942"/>
      <path id="Trazado_908509" data-name="Trazado 908509" d="M31.167,19.214H29.481a.843.843,0,1,1,0-1.686h1.686a.843.843,0,0,1,.843.843H33.7a2.528,2.528,0,0,0-2.528-2.528V15H29.481v.843a2.528,2.528,0,1,0,0,5.057h1.686a.843.843,0,1,1,0,1.686H29.481a.843.843,0,0,1-.843-.843H26.953a2.528,2.528,0,0,0,2.528,2.528v.843h1.686V24.27a2.528,2.528,0,1,0,0-5.057Z" transform="translate(-4.238 -2.358)" fill="#ff873c"/>
      <path id="Trazado_908510" data-name="Trazado 908510" d="M53.069,7.742V17.855a31.89,31.89,0,0,1-6.742.843,11.462,11.462,0,0,1-4.214-.843,10.046,10.046,0,0,1-1.686-.843H34.107a2.107,2.107,0,1,1,0-4.214h6.321l.32-.236L43.8,10.27,38.742,6.9l-2.5,1.247a10.77,10.77,0,0,0-1.534-.657,10.128,10.128,0,0,0-1.9-3.093l.034-.025L37.9,1Z" transform="translate(-5.031 -0.157)" fill="#ffcdbe"/>
      <path id="Trazado_908511" data-name="Trazado 908511" d="M38.05,1,32.994,4.371,32.96,4.4a9.944,9.944,0,0,1,.853,1.114L38.05,2.686,53.22,9.428V7.742Z" transform="translate(-5.182 -0.157)" fill="#ffd8cf"/>
      <path id="Trazado_908512" data-name="Trazado 908512" d="M42.066,18.607a10.046,10.046,0,0,1-1.686-.843H34.06A2.107,2.107,0,0,1,32.13,16.5a2.107,2.107,0,0,0,1.93,2.95h6.321a10.046,10.046,0,0,0,1.686.843,11.462,11.462,0,0,0,4.214.843,31.89,31.89,0,0,0,6.742-.843V18.607a31.889,31.889,0,0,1-6.742.843A11.462,11.462,0,0,1,42.066,18.607Z" transform="translate(-5.024 -2.594)" fill="#ffbeaa"/>
      <path id="Trazado_908513" data-name="Trazado 908513" d="M26.487,6.255a12.642,12.642,0,0,0-9.743,8.507A6.779,6.779,0,0,0,18,16.608,10.949,10.949,0,0,1,28.135,7.751,6.639,6.639,0,0,0,26.487,6.255Z" transform="translate(-2.633 -0.983)" fill="#fc9942"/>
      <path id="Trazado_908514" data-name="Trazado 908514" d="M28.305,6.215a6.639,6.639,0,0,1,1.648,1.5c.211-.017.413-.025.624-.025a10.994,10.994,0,0,1,3.548.59,10.216,10.216,0,0,0-1.078-2.03,12.342,12.342,0,0,0-4.741-.03Z" transform="translate(-4.45 -0.943)" fill="#fa732d"/>
      <path id="Trazado_908515" data-name="Trazado 908515" d="M17.686,20.269a11.226,11.226,0,0,1,.194-2.073,6.779,6.779,0,0,1-1.252-1.847A12.614,12.614,0,0,0,16,20.269c0,.281.024.555.042.831a10.074,10.074,0,0,0,1.854,1.31,11.174,11.174,0,0,1-.211-2.141Z" transform="translate(-2.516 -2.571)" fill="#fa732d"/>
      <path id="Trazado_908516" data-name="Trazado 908516" d="M46.485,28.81l1.932-1.932v9.764H50.1V26.877l1.932,1.932,1.192-1.192-3.371-3.371-.006.006a.83.83,0,0,0-1.187-.005l-3.371,3.371Z" transform="translate(-7.121 -3.774)" fill="#19cffc"/>
      <ellipse id="Elipse_11735" data-name="Elipse 11735" cx="6.5" cy="6" rx="6.5" ry="6" transform="translate(29.776 37.776)" fill="#ffc170"/>
      <circle id="Elipse_11736" data-name="Elipse 11736" cx="3.5" cy="3.5" r="3.5" transform="translate(32.776 40.776)" fill="#ffcf94"/>
      <path id="Trazado_908517" data-name="Trazado 908517" d="M34.04,37.961,50.44,34l1.686,5.9H26Z" transform="translate(-4.088 -5.346)" fill="#1cadb5"/>
      <path id="Trazado_908518" data-name="Trazado 908518" d="M56.711,41V59.541H23V52.8h3.371v1.686a1.691,1.691,0,0,1,1.686,1.686h23.6a1.691,1.691,0,0,1,1.686-1.686V46.057a1.691,1.691,0,0,1-1.686-1.686h-23.6a1.691,1.691,0,0,1-1.686,1.686v2.528H23V41Z" transform="translate(-3.616 -6.446)" fill="#64e1dc"/>
      <g id="Grupo_1115739" data-name="Grupo 1115739" transform="translate(0.843 34.554)">
        <path id="Trazado_908519" data-name="Trazado 908519" d="M26.371,56.686V55H23v6.742h1.686V58.371A1.686,1.686,0,0,1,26.371,56.686Z" transform="translate(-4.459 -43.201)" fill="#00c8c8"/>
        <path id="Trazado_908520" data-name="Trazado 908520" d="M24.686,45.214a2.528,2.528,0,0,1,2.528-2.528h29.5V41H23v7.585h1.686Z" transform="translate(-4.459 -41)" fill="#00c8c8"/>
        <path id="Trazado_908521" data-name="Trazado 908521" d="M6.057,53.8v1.686H1V42H6.057V53.8Z" transform="translate(-1 -41.157)" fill="#00c8c8"/>
      </g>
      <path id="Trazado_908522" data-name="Trazado 908522" d="M6.528,53.8v1.686H4V42H6.528V53.8Z" transform="translate(-0.629 -6.604)" fill="#64e1dc"/>
      <path id="Trazado_908523" data-name="Trazado 908523" d="M20.484,47.8h5.478a2.107,2.107,0,0,1,0,4.214H19.642a11.659,11.659,0,0,1-5.9,1.686A31.89,31.89,0,0,1,7,52.855V42.742L22.17,36l6.742.843,2.141,1.433-8.04,1.938H20.484Z" transform="translate(-1.101 -5.66)" fill="#ffcdbe"/>
      <path id="Trazado_908524" data-name="Trazado 908524" d="M25.528,38.722h-.843A1.686,1.686,0,0,0,23,40.407h2.528l8.04-1.938L31.714,37.23Z" transform="translate(-3.616 -5.854)" fill="#ffbeaa"/>
      <path id="Trazado_908525" data-name="Trazado 908525" d="M27.454,52.149a2.107,2.107,0,0,1-1.492.615H19.642a11.659,11.659,0,0,1-5.9,1.686A31.889,31.889,0,0,1,7,53.607v1.686a31.889,31.889,0,0,0,6.742.843,11.659,11.659,0,0,0,5.9-1.686h6.321a2.1,2.1,0,0,0,1.929-2.95,2.088,2.088,0,0,1-.437.649Z" transform="translate(-1.101 -8.097)" fill="#ffbeaa"/>
      <path id="Trazado_908526" data-name="Trazado 908526" d="M27,53.428h2.107a2.107,2.107,0,0,0,0-4.214H27V46.686A1.691,1.691,0,0,0,28.686,45h11.8a5.9,5.9,0,0,0,0,11.8h-11.8A1.691,1.691,0,0,0,27,55.113Z" transform="translate(-4.245 -7.075)" fill="#f0f0f0"/>
      <path id="Trazado_908527" data-name="Trazado 908527" d="M56.484,46.686v8.428A1.691,1.691,0,0,0,54.8,56.8H43A5.9,5.9,0,0,0,43,45H54.8A1.691,1.691,0,0,0,56.484,46.686Z" transform="translate(-6.761 -7.075)" fill="#f0f0f0"/>
      <path id="Trazado_908528" data-name="Trazado 908528" d="M22.214,41v7.585h-.843L18,46.057a7,7,0,0,1,.986-3.228A3.159,3.159,0,0,1,21.371,41Z" transform="translate(-2.83 -6.446)" fill="#faa68e"/>
      <path id="Trazado_908529" data-name="Trazado 908529" d="M9.035,28.832,7.1,30.764V21H5.417v9.764L3.485,28.832,2.293,30.024l3.371,3.371.006-.006a.83.83,0,0,0,1.187.005l3.371-3.371Z" transform="translate(-0.361 -3.302)" fill="#19cffc"/>
      <path id="Trazado_908530" data-name="Trazado 908530" d="M6,17H7.686v1.686H6Z" transform="translate(-0.943 -2.673)" fill="#19cffc"/>
      <path id="Trazado_908531" data-name="Trazado 908531" d="M43.26,49.766l2.281-2.281L44.35,46.293l-1.932,1.932-1.932-1.932-1.192,1.192,2.281,2.281v.494H39.889v1.686h1.686v.843H39.889v1.686h1.686v.843H43.26v-.843h1.686V52.788H43.26v-.843h1.686V50.26H43.26Z" transform="translate(-6.178 -7.279)" fill="#ff873c"/>
      <path id="Trazado_908532" data-name="Trazado 908532" d="M54.823,5.057H49.767a.843.843,0,0,0-.843.843v.389L34.939.072a.843.843,0,0,0-.81.069L29.619,3.149A10.948,10.948,0,1,0,16.376,20.384a11.791,11.791,0,0,0,23.218-1.526,11.887,11.887,0,0,0,3.43.526,31.419,31.419,0,0,0,5.9-.639v.639a.843.843,0,0,0,.843.843h5.057a.843.843,0,0,0,.843-.843V5.9a.843.843,0,0,0-.843-.843Zm-42.138,5.9A9.27,9.27,0,0,1,29.829,6.072,11.8,11.8,0,0,0,27.855,5.9c-.084,0-.169.011-.253.013a7.482,7.482,0,0,0-5.647-2.541,7.574,7.574,0,0,0-5.746,12.521,11.715,11.715,0,0,0-.153,1.806c0,.137.016.271.02.407a9.258,9.258,0,0,1-3.391-7.149Zm12.7-4.793a11.831,11.831,0,0,0-8.632,7.574,5.893,5.893,0,0,1,8.632-7.574Zm2.468,21.648a10.113,10.113,0,1,1,8.2-16.013h-2.2a8.412,8.412,0,1,0,2.431,5.9h.6a11.656,11.656,0,0,0,1.054.541,10.113,10.113,0,0,1-10.085,9.572ZM27.9,15.17a2.937,2.937,0,0,0,.855,1.691c-.019,0-.036-.006-.056-.006H27.012a.843.843,0,0,1,0-1.686Zm.8-2.479v-.049H27.012v.843a2.528,2.528,0,0,0,0,5.057H28.7a.843.843,0,1,1,0,1.686H27.012a.843.843,0,0,1-.843-.843H24.484a2.528,2.528,0,0,0,2.528,2.528v.843H28.7v-.843a2.519,2.519,0,0,0,1.849-4.24c.084.008.169.026.258.026H34.6A6.764,6.764,0,1,1,31.1,11.8h-.3a2.937,2.937,0,0,0-2.107.892ZM43.025,17.7a10.92,10.92,0,0,1-5.432-1.544.848.848,0,0,0-.468-.142H30.8a1.264,1.264,0,0,1,0-2.528h6.321a.843.843,0,0,0,.506-.169L41,10.787,39.991,9.439l-2.313,1.734a11.784,11.784,0,0,0-5.642-4.5,10.837,10.837,0,0,0-1.3-2.244L34.681,1.8,48.924,8.133v8.891A30.464,30.464,0,0,1,43.025,17.7Zm10.956.843H50.61V6.742h3.371Z" transform="translate(-1.729 0)"/>
      <path id="Trazado_908533" data-name="Trazado 908533" d="M59,19h1.686v1.686H59Z" transform="translate(-9.277 -2.987)"/>
      <path id="Trazado_908534" data-name="Trazado 908534" d="M3,54H4.686v1.686H3Z" transform="translate(-0.472 -8.49)"/>
      <path id="Trazado_908535" data-name="Trazado 908535" d="M53.094,37.484H48.673L47.162,32.2a.837.837,0,0,0-1.011-.59l-3.17.768v-5.5l1.932,1.932,1.192-1.192-3.371-3.371-.006.006a.821.821,0,0,0-1.187-.005l-3.371,3.371,1.192,1.192L41.3,26.877v5.9l-11.179,2.7-1.837-1.225a.843.843,0,0,0-.363-.135l-6.742-.843a.854.854,0,0,0-.447.066L6.742,39.558v-.389a.843.843,0,0,0-.843-.843H.843A.843.843,0,0,0,0,39.169V52.654a.843.843,0,0,0,.843.843H5.9a.843.843,0,0,0,.843-.843v-.639a31.419,31.419,0,0,0,5.9.639,12.521,12.521,0,0,0,5.9-1.551v5.765a.843.843,0,0,0,.843.843H53.094a.843.843,0,0,0,.843-.843V38.326a.843.843,0,0,0-.843-.843Zm-7.332-4.045,1.158,4.045H28.991l.8-.193.078.051.056-.084,13.036-3.145h.02v-.005ZM5.057,51.811H1.686v-11.8H5.057Zm7.585-.843a30.521,30.521,0,0,1-5.9-.674V41.4L21.2,34.977l6.312.79.376.253-6.073,1.464H19.384a.843.843,0,0,0-.843.843v6.531l-2.865-2.149-1.011,1.348,3.371,2.528a.843.843,0,0,0,.506.169h6.321a1.264,1.264,0,0,1,0,2.528H18.541a.85.85,0,0,0-.466.141,10.924,10.924,0,0,1-5.433,1.545ZM31.182,47.6a5.057,5.057,0,0,1,2.865-4.551l-.931.931L35.4,46.26v.494H33.711V48.44H35.4v.843H33.711v1.686H35.4v.843h1.686v-.843h1.686V49.282H37.082V48.44h1.686V46.754H37.082V46.26l2.281-2.281-.933-.933A5.057,5.057,0,1,1,31.182,47.6Zm11.8,0a6.722,6.722,0,0,0-2.3-5.057h6.658a2.542,2.542,0,0,0,1.539,1.541v7.03a2.542,2.542,0,0,0-1.541,1.541H40.681a6.722,6.722,0,0,0,2.3-5.057ZM38.07,42.888,36.239,44.72l-1.831-1.831a4.992,4.992,0,0,1,3.663,0ZM29.5,47.6a6.722,6.722,0,0,0,2.3,5.057H25.136A2.542,2.542,0,0,0,23.6,51.112v-.144h1.264a2.95,2.95,0,1,0,0-5.9H23.6v-.987a2.542,2.542,0,0,0,1.541-1.541H31.8A6.722,6.722,0,0,0,29.5,47.6Zm22.755,8.428H20.226V50.968h1.686v.843a.843.843,0,0,0,.843.843.843.843,0,0,1,.843.843.843.843,0,0,0,.843.843h23.6a.843.843,0,0,0,.843-.843.843.843,0,0,1,.843-.843.843.843,0,0,0,.843-.843V43.383a.843.843,0,0,0-.843-.843.843.843,0,0,1-.843-.843.843.843,0,0,0-.843-.843H24.44a.843.843,0,0,0-.843.843.843.843,0,0,1-.843.843.843.843,0,0,0-.843.843v1.686H20.226v-5.9H52.252Z" transform="translate(0 -3.773)"/>
      <path id="Trazado_908536" data-name="Trazado 908536" d="M5.67,33.389a.83.83,0,0,0,1.187.005l3.371-3.371L9.036,28.831,7.1,30.764V21H5.417v9.764L3.485,28.832,2.293,30.024l3.371,3.371Z" transform="translate(-0.361 -3.302)"/>
      <path id="Trazado_908537" data-name="Trazado 908537" d="M6,17H7.686v1.686H6Z" transform="translate(-0.943 -2.673)"/>
    </g>
  </g>
</svg>
