<svg xmlns="http://www.w3.org/2000/svg" xmlns:xlink="http://www.w3.org/1999/xlink" width="117.999" height="118" viewBox="0 0 117.999 118">
  <defs>
    <filter id="Trazado_874925" x="0" y="0" width="117.999" height="118" filterUnits="userSpaceOnUse">
      <feOffset dy="3" input="SourceAlpha"/>
      <feGaussianBlur stdDeviation="3" result="blur"/>
      <feFlood flood-opacity="0.161"/>
      <feComposite operator="in" in2="blur"/>
      <feComposite in="SourceGraphic"/>
    </filter>
  </defs>
  <g id="Grupo_1117996" data-name="Grupo 1117996" transform="translate(-8692.001 4764)">
    <g id="Grupo_1111553" data-name="Grupo 1111553" transform="translate(7892.5 -7275.157)">
      <g id="Grupo_1111316" data-name="Grupo 1111316" transform="translate(808.5 2517.157)">
        <g id="Grupo_1109835" data-name="Grupo 1109835" transform="translate(0 0)">
          <g id="Grupo_1107913" data-name="Grupo 1107913" transform="translate(0 0)">
            <g transform="matrix(1, 0, 0, 1, -9, -6)" filter="url(#Trazado_874925)">
              <g id="Trazado_874925-2" data-name="Trazado 874925" transform="translate(9 6)" fill="#9cc8ff" opacity="0.859">
                <path d="M 49.99972534179688 98.4998779296875 C 43.45164108276367 98.4998779296875 37.10022354125977 97.21776580810547 31.12189674377441 94.68914794921875 C 25.34676742553711 92.24647521972656 20.15985298156738 88.74925994873047 15.70523929595947 84.29464721679688 C 11.25062561035156 79.84004974365234 7.753411293029785 74.65313720703125 5.310725212097168 68.87800598144531 C 2.782111167907715 62.89969253540039 1.499996781349182 56.54829406738281 1.499996781349182 50.00022125244141 C 1.499996781349182 43.45157623291016 2.782111167907715 37.10017776489258 5.310725212097168 31.12186431884766 C 7.753411293029785 25.34673500061035 11.25062561035156 20.15983581542969 15.70523929595947 15.70522117614746 C 20.15985298156738 11.25062084197998 25.34676742553711 7.753406524658203 31.12189674377441 5.31073522567749 C 37.10022354125977 2.782120943069458 43.45164108276367 1.500006556510925 49.99972534179688 1.500006556510925 C 56.54780960083008 1.500006556510925 62.89922714233398 2.782120943069458 68.87755584716797 5.31073522567749 C 74.65267944335938 7.753406524658203 79.839599609375 11.25062084197998 84.29421234130859 15.70522117614746 C 88.74882507324219 20.15983581542969 92.24604034423828 25.34673500061035 94.68872833251953 31.12186431884766 C 97.21733856201172 37.10017776489258 98.49945068359375 43.45157623291016 98.49945068359375 49.99964904785156 C 98.49945068359375 56.54829406738281 97.21733856201172 62.89969253540039 94.68872833251953 68.87800598144531 C 92.24604034423828 74.65313720703125 88.74882507324219 79.84004974365234 84.29421234130859 84.29464721679688 C 79.839599609375 88.74925994873047 74.65267944335938 92.24647521972656 68.87755584716797 94.68914794921875 C 62.89922714233398 97.21776580810547 56.54780960083008 98.4998779296875 49.99972534179688 98.4998779296875 Z" stroke="none"/>
                <path d="M 49.99972534179688 3 C 43.65348052978516 3 37.49866485595703 4.242240905761719 31.70623016357422 6.692230224609375 C 26.10989379882812 9.059272766113281 21.08323669433594 12.44853210449219 16.76589202880859 16.76587677001953 C 12.44855499267578 21.08321380615234 9.059295654296875 26.10985565185547 6.692230224609375 31.70618438720703 C 4.24224853515625 37.49859619140625 3 43.65341186523438 3 50.00022888183594 C 3 56.34645843505859 4.24224853515625 62.50127410888672 6.692230224609375 68.29368591308594 C 9.059295654296875 73.8900146484375 12.44855499267578 78.91665649414062 16.76589202880859 83.23399353027344 C 21.08323669433594 87.55132293701172 26.10989379882812 90.94059753417969 31.70623016357422 93.30764007568359 C 37.49866485595703 95.75762939453125 43.65348052978516 96.99987030029297 49.99972534179688 96.99987030029297 C 56.34597015380859 96.99987030029297 62.50078582763672 95.75762939453125 68.293212890625 93.30764007568359 C 73.88955688476562 90.94059753417969 78.91621398925781 87.55132293701172 83.23355865478516 83.23399353027344 C 87.55089569091797 78.91665649414062 90.94015502929688 73.8900146484375 93.30722045898438 68.29368591308594 C 95.7572021484375 62.50127410888672 96.99945068359375 56.34645843505859 96.99945068359375 49.99964141845703 C 96.99945068359375 43.65341186523438 95.7572021484375 37.49859619140625 93.30722045898438 31.70618438720703 C 90.94015502929688 26.10985565185547 87.55089569091797 21.08321380615234 83.23355865478516 16.76587677001953 C 78.91621398925781 12.44853210449219 73.88955688476562 9.059272766113281 68.293212890625 6.692230224609375 C 62.50078582763672 4.242240905761719 56.34597015380859 3 49.99972534179688 3 M 49.99972534179688 0 C 77.61381530761719 0 99.99945068359375 22.38559722900391 99.99945068359375 49.99964141845703 L 99.99945068359375 50.00022888183594 C 99.99945068359375 77.6142578125 77.61381530761719 99.99987030029297 49.99972534179688 99.99987030029297 C 22.38563537597656 99.99987030029297 0 77.6142578125 0 50.00022888183594 L 0 49.99964141845703 C 0 22.38559722900391 22.38563537597656 0 49.99972534179688 0 Z" stroke="none" fill="#fff"/>
              </g>
            </g>
            <g id="Trazado_874923" data-name="Trazado 874923" transform="translate(0 0)" fill="none">
              <path d="M50,0a50,50,0,0,1,50,50h0A50,50,0,0,1,0,50H0A50,50,0,0,1,50,0Z" stroke="none"/>
              <path d="M 49.99972534179688 3 C 43.65348052978516 3 37.49866485595703 4.242240905761719 31.70623016357422 6.692230224609375 C 26.10989379882812 9.059272766113281 21.08323669433594 12.44853210449219 16.76589202880859 16.76587677001953 C 12.44855499267578 21.08321380615234 9.059295654296875 26.10985565185547 6.692230224609375 31.70618438720703 C 4.24224853515625 37.49859619140625 3 43.65341186523438 3 50.00022888183594 C 3 56.34645843505859 4.24224853515625 62.50127410888672 6.692230224609375 68.29368591308594 C 9.059295654296875 73.8900146484375 12.44855499267578 78.91665649414062 16.76589202880859 83.23399353027344 C 21.08323669433594 87.55132293701172 26.10989379882812 90.94059753417969 31.70623016357422 93.30764007568359 C 37.49866485595703 95.75762939453125 43.65348052978516 96.99987030029297 49.99972534179688 96.99987030029297 C 56.34597015380859 96.99987030029297 62.50078582763672 95.75762939453125 68.293212890625 93.30764007568359 C 73.88955688476562 90.94059753417969 78.91621398925781 87.55132293701172 83.23355865478516 83.23399353027344 C 87.55089569091797 78.91665649414062 90.94015502929688 73.8900146484375 93.30722045898438 68.29368591308594 C 95.7572021484375 62.50127410888672 96.99945068359375 56.34645843505859 96.99945068359375 49.99964141845703 C 96.99945068359375 43.65341186523438 95.7572021484375 37.49859619140625 93.30722045898438 31.70618438720703 C 90.94015502929688 26.10985565185547 87.55089569091797 21.08321380615234 83.23355865478516 16.76587677001953 C 78.91621398925781 12.44853210449219 73.88955688476562 9.059272766113281 68.293212890625 6.692230224609375 C 62.50078582763672 4.242240905761719 56.34597015380859 3 49.99972534179688 3 M 49.99972534179688 0 C 77.61381530761719 0 99.99945068359375 22.38559722900391 99.99945068359375 49.99964141845703 L 99.99945068359375 50.00022888183594 C 99.99945068359375 77.6142578125 77.61381530761719 99.99987030029297 49.99972534179688 99.99987030029297 C 22.38563537597656 99.99987030029297 0 77.6142578125 0 50.00022888183594 L 0 49.99964141845703 C 0 22.38559722900391 22.38563537597656 0 49.99972534179688 0 Z" stroke="none" fill="#fff"/>
            </g>
          </g>
        </g>
      </g>
    </g>
    <g id="Grupo_1117995" data-name="Grupo 1117995" transform="translate(8704.276 -4749)">
      <g id="Grupo_1117994" data-name="Grupo 1117994" transform="translate(14.839 8.115)">
        <g id="Grupo_1117991" data-name="Grupo 1117991" transform="translate(0 21.309)">
          <g id="Grupo_1117990" data-name="Grupo 1117990">
            <path id="Trazado_909742" data-name="Trazado 909742" d="M44.528,167.848a22.8,22.8,0,1,1-22.8,22.8A22.815,22.815,0,0,1,44.528,167.848Zm0,6.682a16.122,16.122,0,1,0,16.122,16.122A16.13,16.13,0,0,0,44.528,174.53Z" transform="translate(-21.724 -167.848)" fill="#8ac9fe" fill-rule="evenodd"/>
            <path id="Trazado_909743" data-name="Trazado 909743" d="M44.528,354.228a22.815,22.815,0,0,1-22.8-22.8h6.682a16.13,16.13,0,0,0,16.122,16.122Z" transform="translate(-21.724 -308.62)" fill="#fe646f" fill-rule="evenodd"/>
            <path id="Trazado_909744" data-name="Trazado 909744" d="M208.1,331.424a22.815,22.815,0,0,1-22.8,22.8v-6.682a16.13,16.13,0,0,0,16.122-16.122Z" transform="translate(-162.495 -308.62)" fill="#6cf5c2" fill-rule="evenodd"/>
            <path id="Trazado_909745" data-name="Trazado 909745" d="M185.3,167.848a22.815,22.815,0,0,1,22.8,22.8h-6.682A16.13,16.13,0,0,0,185.3,174.53Z" transform="translate(-162.495 -167.848)" fill="#ffe177" fill-rule="evenodd"/>
          </g>
          <path id="Trazado_909746" data-name="Trazado 909746" d="M225.843,263.328a.7.7,0,0,0-.7-.7h-2.755a.7.7,0,0,0-.7.7v15.1a.7.7,0,0,0,.7.7h2.755a.7.7,0,0,0,.7-.7Z" transform="translate(-193.816 -249.417)" fill="#8ac9fe" fill-rule="evenodd"/>
          <path id="Trazado_909747" data-name="Trazado 909747" d="M236.457,279.126a.7.7,0,0,0,.7-.7v-15.1a.7.7,0,0,0-.7-.7h1.394a.7.7,0,0,1,.7.7v15.1a.7.7,0,0,1-.7.7Z" transform="translate(-206.521 -249.417)" fill="#60b7ff" fill-rule="evenodd"/>
          <path id="Trazado_909748" data-name="Trazado 909748" d="M170.562,294.6a.7.7,0,0,0-.7-.7H167.11a.7.7,0,0,0-.7.7v10.742a.7.7,0,0,0,.7.7h2.755a.7.7,0,0,0,.7-.7Z" transform="translate(-146.242 -276.327)" fill="#6cf5c2" fill-rule="evenodd"/>
          <path id="Trazado_909749" data-name="Trazado 909749" d="M181.177,306.036a.7.7,0,0,0,.7-.7V294.6a.7.7,0,0,0-.7-.7h1.394a.7.7,0,0,1,.7.7v10.742a.7.7,0,0,1-.7.7Z" transform="translate(-158.947 -276.327)" fill="#00e499" fill-rule="evenodd"/>
          <path id="Trazado_909750" data-name="Trazado 909750" d="M111.094,324.515a.7.7,0,0,1,.7-.7h2.761a.7.7,0,0,1,.7.7v6.571a.7.7,0,0,1-.7.7h-2.761a.7.7,0,0,1-.7-.7v-6.571Z" transform="translate(-98.635 -302.074)" fill="#ffe177" fill-rule="evenodd"/>
          <path id="Trazado_909751" data-name="Trazado 909751" d="M125.9,323.818h1.394a.7.7,0,0,1,.7.7v6.571a.7.7,0,0,1-.7.7H125.9a.7.7,0,0,0,.7-.7v-6.571A.7.7,0,0,0,125.9,323.818Z" transform="translate(-111.373 -302.074)" fill="#ffd064" fill-rule="evenodd"/>
        </g>
        <g id="Grupo_1117992" data-name="Grupo 1117992" transform="translate(36.197 0)">
          <path id="Trazado_909752" data-name="Trazado 909752" d="M295.784,15a14.423,14.423,0,1,1-4.6,28.1l-7.774,2.081a.7.7,0,0,1-.854-.854l1.678-6.266A14.423,14.423,0,0,1,295.784,15Z" transform="translate(-281.361 -15)" fill="#6cf5c2" fill-rule="evenodd"/>
          <path id="Trazado_909753" data-name="Trazado 909753" d="M303.5,15.017q.346-.017.7-.017a14.423,14.423,0,0,1,0,28.846q-.35,0-.7-.017a14.424,14.424,0,0,0,0-28.813ZM299.6,43.1l-7.774,2.081A.7.7,0,0,1,291.15,45l-.01-.01,7.808-2.09Q299.27,43,299.6,43.1Z" transform="translate(-289.777 -15)" fill="#00e499" fill-rule="evenodd"/>
        </g>
        <g id="Grupo_1117993" data-name="Grupo 1117993" transform="translate(41.049 4.501)">
          <path id="Trazado_909754" data-name="Trazado 909754" d="M325.74,47.283a9.571,9.571,0,1,1-9.57,9.571A9.571,9.571,0,0,1,325.74,47.283Z" transform="translate(-316.169 -47.283)" fill="#ffc338" fill-rule="evenodd"/>
          <path id="Trazado_909755" data-name="Trazado 909755" d="M379.759,47.283a9.571,9.571,0,1,1,0,19.141c-.276,0-.549-.012-.819-.035a9.57,9.57,0,0,0,0-19.071C379.21,47.3,379.483,47.283,379.759,47.283Z" transform="translate(-370.189 -47.283)" fill="#f5b829" fill-rule="evenodd"/>
        </g>
      </g>
      <path id="Trazado_909756" data-name="Trazado 909756" d="M37.644,76.148A23.92,23.92,0,1,1,52.2,33.249l.5-1.852a15.539,15.539,0,1,1,12.767,6.68,15.622,15.622,0,0,1-4.632-.7l-3.695.989A23.917,23.917,0,0,1,37.644,76.148ZM36.528,30.568A21.7,21.7,0,0,0,15.983,51.113h4.459A17.25,17.25,0,0,1,36.528,35.027ZM15.983,53.344A21.7,21.7,0,0,0,36.528,73.89V69.43A17.25,17.25,0,0,1,20.442,53.344ZM51.566,35.6a21.592,21.592,0,0,0-12.807-5.035v4.459A17.25,17.25,0,0,1,54.846,51.113H59.3a21.581,21.581,0,0,0-4.489-12.129l-2.611.7a1.115,1.115,0,0,1-1.366-1.366l.727-2.714ZM38.759,73.89A21.7,21.7,0,0,0,59.3,53.344H54.846A17.25,17.25,0,0,1,38.759,69.43Zm-1.15-36.668a15.007,15.007,0,0,0-.033,30.013l.068,0,.068,0a15.007,15.007,0,0,0-.033-30.013h-.07Zm10.373,5.416v16.5a1.115,1.115,0,0,1-1.115,1.115H42.718A1.115,1.115,0,0,1,41.6,59.133v-16.5a1.115,1.115,0,0,1,1.115-1.115h4.149A1.115,1.115,0,0,1,47.982,42.638Zm-2.231,1.115H43.833V58.018h1.919ZM40.275,47V59.133a1.115,1.115,0,0,1-1.115,1.115H35.011A1.115,1.115,0,0,1,33.9,59.133V47a1.115,1.115,0,0,1,1.115-1.115H39.16A1.115,1.115,0,0,1,40.275,47Zm-2.231,1.115H36.126v9.905h1.919ZM27.3,50.053h4.155a1.115,1.115,0,0,1,1.115,1.115v7.965a1.115,1.115,0,0,1-1.115,1.115H27.3a1.115,1.115,0,0,1-1.115-1.115V51.168A1.115,1.115,0,0,1,27.3,50.053Zm1.115,2.231v5.734h1.924V52.284ZM65.459,9.231A13.308,13.308,0,0,0,54.8,30.505a1.116,1.116,0,0,1,.185.957l-1.491,5.567,7.074-1.894a1.114,1.114,0,0,1,.641.019A13.31,13.31,0,1,0,65.459,9.231Zm0,23.643A10.687,10.687,0,1,1,76.146,22.187,10.708,10.708,0,0,1,65.459,32.874Zm0-2.231A8.456,8.456,0,1,0,57,22.187,8.473,8.473,0,0,0,65.459,30.643ZM64.344,16.516v-.384a1.115,1.115,0,0,1,2.231,0V16.5a3.939,3.939,0,0,1,2.733,2.345,1.115,1.115,0,1,1-2.057.863,1.96,1.96,0,0,0-2.576-.963,1.175,1.175,0,0,0-.851,1.131v0a.967.967,0,0,0,.641.827,4.311,4.311,0,0,0,1.183.341h0c1.781.293,3.715,1.126,3.97,3.243.246,2.031-1.333,3.241-3.045,3.6v.352a1.115,1.115,0,0,1-2.231,0v-.368a3.91,3.91,0,0,1-3.036-2.844,1.115,1.115,0,1,1,2.165-.539,1.935,1.935,0,0,0,2.084,1.28h0a3.03,3.03,0,0,0,1.236-.281.906.906,0,0,0,.61-.932h0a1.2,1.2,0,0,0-.81-.951,5.256,5.256,0,0,0-1.305-.358c-1.75-.285-3.6-1.188-3.694-3.263a3.335,3.335,0,0,1,2.262-3.315A4.279,4.279,0,0,1,64.344,16.516Z" fill-rule="evenodd"/>
    </g>
  </g>
</svg>
