<svg xmlns="http://www.w3.org/2000/svg" xmlns:xlink="http://www.w3.org/1999/xlink" width="117.999" height="118" viewBox="0 0 117.999 118">
  <defs>
    <filter id="Trazado_874925" x="-0.001" y="0" width="117.999" height="118" filterUnits="userSpaceOnUse">
      <feOffset dy="3" input="SourceAlpha"/>
      <feGaussianBlur stdDeviation="3" result="blur"/>
      <feFlood flood-opacity="0.161"/>
      <feComposite operator="in" in2="blur"/>
      <feComposite in="SourceGraphic"/>
    </filter>
  </defs>
  <g id="Grupo_1117989" data-name="Grupo 1117989" transform="translate(-8378.95 4763.925)">
    <g id="Grupo_1111552" data-name="Grupo 1111552" transform="translate(7579.449 -7275.082)">
      <g id="Grupo_1111316" data-name="Grupo 1111316" transform="translate(808.5 2517.157)">
        <g id="Grupo_1109835" data-name="Grupo 1109835" transform="translate(0 0)">
          <g id="Grupo_1107913" data-name="Grupo 1107913" transform="translate(0 0)">
            <g transform="matrix(1, 0, 0, 1, -9, -6)" filter="url(#Trazado_874925)">
              <g id="Trazado_874925-2" data-name="Trazado 874925" transform="translate(9 6)" fill="#9cc8ff" opacity="0.859">
                <path d="M 49.99972534179688 98.4998779296875 C 43.45164108276367 98.4998779296875 37.10022354125977 97.21776580810547 31.12189674377441 94.68914794921875 C 25.34676742553711 92.24647521972656 20.15985298156738 88.74925994873047 15.70523929595947 84.29464721679688 C 11.25062561035156 79.84004974365234 7.753411293029785 74.65313720703125 5.310725212097168 68.87800598144531 C 2.782111167907715 62.89969253540039 1.499996781349182 56.54829406738281 1.499996781349182 50.00022125244141 C 1.499996781349182 43.45157623291016 2.782111167907715 37.10017776489258 5.310725212097168 31.12186431884766 C 7.753411293029785 25.34673500061035 11.25062561035156 20.15983581542969 15.70523929595947 15.70522117614746 C 20.15985298156738 11.25062084197998 25.34676742553711 7.753406524658203 31.12189674377441 5.31073522567749 C 37.10022354125977 2.782120943069458 43.45164108276367 1.500006556510925 49.99972534179688 1.500006556510925 C 56.54780960083008 1.500006556510925 62.89922714233398 2.782120943069458 68.87755584716797 5.31073522567749 C 74.65267944335938 7.753406524658203 79.839599609375 11.25062084197998 84.29421234130859 15.70522117614746 C 88.74882507324219 20.15983581542969 92.24604034423828 25.34673500061035 94.68872833251953 31.12186431884766 C 97.21733856201172 37.10017776489258 98.49945068359375 43.45157623291016 98.49945068359375 49.99964904785156 C 98.49945068359375 56.54829406738281 97.21733856201172 62.89969253540039 94.68872833251953 68.87800598144531 C 92.24604034423828 74.65313720703125 88.74882507324219 79.84004974365234 84.29421234130859 84.29464721679688 C 79.839599609375 88.74925994873047 74.65267944335938 92.24647521972656 68.87755584716797 94.68914794921875 C 62.89922714233398 97.21776580810547 56.54780960083008 98.4998779296875 49.99972534179688 98.4998779296875 Z" stroke="none"/>
                <path d="M 49.99972534179688 3 C 43.65348052978516 3 37.49866485595703 4.242240905761719 31.70623016357422 6.692230224609375 C 26.10989379882812 9.059272766113281 21.08323669433594 12.44853210449219 16.76589202880859 16.76587677001953 C 12.44855499267578 21.08321380615234 9.059295654296875 26.10985565185547 6.692230224609375 31.70618438720703 C 4.24224853515625 37.49859619140625 3 43.65341186523438 3 50.00022888183594 C 3 56.34645843505859 4.24224853515625 62.50127410888672 6.692230224609375 68.29368591308594 C 9.059295654296875 73.8900146484375 12.44855499267578 78.91665649414062 16.76589202880859 83.23399353027344 C 21.08323669433594 87.55132293701172 26.10989379882812 90.94059753417969 31.70623016357422 93.30764007568359 C 37.49866485595703 95.75762939453125 43.65348052978516 96.99987030029297 49.99972534179688 96.99987030029297 C 56.34597015380859 96.99987030029297 62.50078582763672 95.75762939453125 68.293212890625 93.30764007568359 C 73.88955688476562 90.94059753417969 78.91621398925781 87.55132293701172 83.23355865478516 83.23399353027344 C 87.55089569091797 78.91665649414062 90.94015502929688 73.8900146484375 93.30722045898438 68.29368591308594 C 95.7572021484375 62.50127410888672 96.99945068359375 56.34645843505859 96.99945068359375 49.99964141845703 C 96.99945068359375 43.65341186523438 95.7572021484375 37.49859619140625 93.30722045898438 31.70618438720703 C 90.94015502929688 26.10985565185547 87.55089569091797 21.08321380615234 83.23355865478516 16.76587677001953 C 78.91621398925781 12.44853210449219 73.88955688476562 9.059272766113281 68.293212890625 6.692230224609375 C 62.50078582763672 4.242240905761719 56.34597015380859 3 49.99972534179688 3 M 49.99972534179688 0 C 77.61381530761719 0 99.99945068359375 22.38559722900391 99.99945068359375 49.99964141845703 L 99.99945068359375 50.00022888183594 C 99.99945068359375 77.6142578125 77.61381530761719 99.99987030029297 49.99972534179688 99.99987030029297 C 22.38563537597656 99.99987030029297 0 77.6142578125 0 50.00022888183594 L 0 49.99964141845703 C 0 22.38559722900391 22.38563537597656 0 49.99972534179688 0 Z" stroke="none" fill="#fff"/>
              </g>
            </g>
            <g id="Trazado_874923" data-name="Trazado 874923" transform="translate(0 0)" fill="none">
              <path d="M50,0a50,50,0,0,1,50,50h0A50,50,0,0,1,0,50H0A50,50,0,0,1,50,0Z" stroke="none"/>
              <path d="M 49.99972534179688 3 C 43.65348052978516 3 37.49866485595703 4.242240905761719 31.70623016357422 6.692230224609375 C 26.10989379882812 9.059272766113281 21.08323669433594 12.44853210449219 16.76589202880859 16.76587677001953 C 12.44855499267578 21.08321380615234 9.059295654296875 26.10985565185547 6.692230224609375 31.70618438720703 C 4.24224853515625 37.49859619140625 3 43.65341186523438 3 50.00022888183594 C 3 56.34645843505859 4.24224853515625 62.50127410888672 6.692230224609375 68.29368591308594 C 9.059295654296875 73.8900146484375 12.44855499267578 78.91665649414062 16.76589202880859 83.23399353027344 C 21.08323669433594 87.55132293701172 26.10989379882812 90.94059753417969 31.70623016357422 93.30764007568359 C 37.49866485595703 95.75762939453125 43.65348052978516 96.99987030029297 49.99972534179688 96.99987030029297 C 56.34597015380859 96.99987030029297 62.50078582763672 95.75762939453125 68.293212890625 93.30764007568359 C 73.88955688476562 90.94059753417969 78.91621398925781 87.55132293701172 83.23355865478516 83.23399353027344 C 87.55089569091797 78.91665649414062 90.94015502929688 73.8900146484375 93.30722045898438 68.29368591308594 C 95.7572021484375 62.50127410888672 96.99945068359375 56.34645843505859 96.99945068359375 49.99964141845703 C 96.99945068359375 43.65341186523438 95.7572021484375 37.49859619140625 93.30722045898438 31.70618438720703 C 90.94015502929688 26.10985565185547 87.55089569091797 21.08321380615234 83.23355865478516 16.76587677001953 C 78.91621398925781 12.44853210449219 73.88955688476562 9.059272766113281 68.293212890625 6.692230224609375 C 62.50078582763672 4.242240905761719 56.34597015380859 3 49.99972534179688 3 M 49.99972534179688 0 C 77.61381530761719 0 99.99945068359375 22.38559722900391 99.99945068359375 49.99964141845703 L 99.99945068359375 50.00022888183594 C 99.99945068359375 77.6142578125 77.61381530761719 99.99987030029297 49.99972534179688 99.99987030029297 C 22.38563537597656 99.99987030029297 0 77.6142578125 0 50.00022888183594 L 0 49.99964141845703 C 0 22.38559722900391 22.38563537597656 0 49.99972534179688 0 Z" stroke="none" fill="#fff"/>
            </g>
          </g>
        </g>
      </g>
    </g>
    <g id="Grupo_1117988" data-name="Grupo 1117988" transform="translate(8384.482 -4747.558)">
      <g id="Grupo_1117987" data-name="Grupo 1117987" transform="translate(23.955 8.053)">
        <g id="Grupo_1117980" data-name="Grupo 1117980" transform="translate(0 0)">
          <g id="Grupo_1117977" data-name="Grupo 1117977" transform="translate(0 18.54)">
            <path id="Trazado_909725" data-name="Trazado 909725" d="M33.582,155.9l22.993,11.439H82.248A25.673,25.673,0,1,1,33.582,155.9Z" transform="translate(-30.902 -155.896)" fill="#8ac9fe" fill-rule="evenodd"/>
            <path id="Trazado_909726" data-name="Trazado 909726" d="M47.483,156.957q.237-.537.5-1.061l22.993,11.44H68.342Zm46.532,10.378h2.632a25.676,25.676,0,0,1-25.673,25.673q-.662,0-1.316-.033A25.677,25.677,0,0,0,94.015,167.336Z" transform="translate(-45.301 -155.896)" fill="#60b7ff" fill-rule="evenodd"/>
          </g>
          <g id="Grupo_1117978" data-name="Grupo 1117978" transform="translate(1.61 0)">
            <path id="Trazado_909727" data-name="Trazado 909727" d="M66.127,40.7V15A25.674,25.674,0,0,0,43.134,29.259Z" transform="translate(-43.134 -15)" fill="#ffe177" fill-rule="evenodd"/>
            <path id="Trazado_909728" data-name="Trazado 909728" d="M202.875,39.716V15.076q.98-.075,1.974-.076V40.7Z" transform="translate(-181.856 -15)" fill="#ffd064" fill-rule="evenodd"/>
          </g>
          <g id="Grupo_1117979" data-name="Grupo 1117979" transform="translate(28.348)">
            <path id="Trazado_909729" data-name="Trazado 909729" d="M246.342,40.7V15a25.7,25.7,0,0,1,25.7,25.7Z" transform="translate(-246.342 -15)" fill="#fe646f" fill-rule="evenodd"/>
            <path id="Trazado_909730" data-name="Trazado 909730" d="M246.342,17.048V15a25.7,25.7,0,0,1,25.7,25.7h-2.049A25.7,25.7,0,0,0,246.342,17.048Z" transform="translate(-246.342 -15)" fill="#fd4755" fill-rule="evenodd"/>
          </g>
        </g>
        <g id="Grupo_1117981" data-name="Grupo 1117981" transform="translate(32.171 8.374)">
          <path id="Trazado_909731" data-name="Trazado 909731" d="M277.624,78.641a2.233,2.233,0,1,0,1.58.654A2.235,2.235,0,0,0,277.624,78.641Z" transform="translate(-275.39 -78.641)" fill="#eceff1" fill-rule="evenodd"/>
          <path id="Trazado_909732" data-name="Trazado 909732" d="M335.33,147.755a2.233,2.233,0,1,0,1.58.654A2.235,2.235,0,0,0,335.33,147.755Z" transform="translate(-325.503 -138.661)" fill="#eceff1" fill-rule="evenodd"/>
        </g>
        <g id="Grupo_1117986" data-name="Grupo 1117986" transform="translate(24.331 33.02)">
          <g id="Grupo_1117982" data-name="Grupo 1117982" transform="translate(4.527)">
            <path id="Trazado_909733" data-name="Trazado 909733" d="M258.834,266.137a1.481,1.481,0,0,1,.54,2.017l-6.409,11.1a1.478,1.478,0,1,1-2.56-1.48l6.409-11.1A1.482,1.482,0,0,1,258.834,266.137Z" transform="translate(-250.209 -265.94)" fill="#d1d1d6" fill-rule="evenodd"/>
            <path id="Trazado_909734" data-name="Trazado 909734" d="M262.825,266.094a1.476,1.476,0,0,1,1.936,2.06l-6.409,11.1a1.485,1.485,0,0,1-1.94.583,1.468,1.468,0,0,0,.624-.583l6.409-11.1a1.481,1.481,0,0,0-.54-2.017Z" transform="translate(-255.596 -265.94)" fill="#b1b1b5" fill-rule="evenodd"/>
          </g>
          <g id="Grupo_1117983" data-name="Grupo 1117983" transform="translate(21.449)">
            <path id="Trazado_909735" data-name="Trazado 909735" d="M379.549,266.137a1.48,1.48,0,0,0-.54,2.017l6.409,11.1a1.478,1.478,0,1,0,2.559-1.479l-6.409-11.1A1.482,1.482,0,0,0,379.549,266.137Z" transform="translate(-378.812 -265.94)" fill="#d1d1d6" fill-rule="evenodd"/>
            <path id="Trazado_909736" data-name="Trazado 909736" d="M391.429,279.839c.027-.013.053-.028.08-.043a1.481,1.481,0,0,0,.54-2.019l-6.409-11.1a1.472,1.472,0,0,0-.624-.583,1.483,1.483,0,0,1,1.939.583l6.409,11.1a1.476,1.476,0,0,1-1.935,2.062Z" transform="translate(-384.201 -265.94)" fill="#b1b1b5" fill-rule="evenodd"/>
          </g>
          <g id="Grupo_1117984" data-name="Grupo 1117984" transform="translate(2.384 13.37)">
            <path id="Trazado_909737" data-name="Trazado 909737" d="M233.921,367.549h30.011l-2.788,13.932a3.5,3.5,0,0,1-3.461,2.839H240.17a3.5,3.5,0,0,1-3.461-2.839Z" transform="translate(-233.921 -367.549)" fill="#ecba78" fill-rule="evenodd"/>
            <path id="Trazado_909738" data-name="Trazado 909738" d="M405.753,367.549h1.974l-2.788,13.932a3.5,3.5,0,0,1-3.461,2.839H399.5a3.5,3.5,0,0,0,3.461-2.839Z" transform="translate(-377.716 -367.549)" fill="#e3a76f" fill-rule="evenodd"/>
          </g>
          <g id="Grupo_1117985" data-name="Grupo 1117985" transform="translate(0 11.516)">
            <path id="Trazado_909739" data-name="Trazado 909739" d="M216.868,353.458h32.525a1.061,1.061,0,0,1,1.059,1.059v1.809a1.064,1.064,0,0,1-1.059,1.061H216.868a1.066,1.066,0,0,1-1.061-1.061v-1.809A1.064,1.064,0,0,1,216.868,353.458Z" transform="translate(-215.807 -353.458)" fill="#837683" fill-rule="evenodd"/>
            <path id="Trazado_909740" data-name="Trazado 909740" d="M249.136,353.458h.257a1.061,1.061,0,0,1,1.059,1.059v1.809a1.064,1.064,0,0,1-1.059,1.061H216.868a1.066,1.066,0,0,1-1.061-1.061v-.254h32.27a1.064,1.064,0,0,0,1.059-1.062Z" transform="translate(-215.807 -353.458)" fill="#685e68" fill-rule="evenodd"/>
          </g>
        </g>
      </g>
      <path id="Trazado_909741" data-name="Trazado 909741" d="M51.644,64.682q-1,.075-2.017.075A26.741,26.741,0,0,1,25.693,26.123,1.053,1.053,0,0,1,27.1,25.65L49.875,36.979H75.3a1.053,1.053,0,0,1,1.053,1.053,26.755,26.755,0,0,1-.883,6.835l3.85,6.669h2.551a2.117,2.117,0,0,1,2.111,2.111v1.809a2.12,2.12,0,0,1-2.111,2.114h-.744l-2.2,11.01a4.545,4.545,0,0,1-4.493,3.685H56.918a4.545,4.545,0,0,1-4.493-3.685ZM73.9,42.154a24.717,24.717,0,0,0,.322-3.07h-24.6a1.052,1.052,0,0,1-.469-.11L27.128,28.014a24.638,24.638,0,0,0,22.5,34.638q.806,0,1.6-.051L50.221,57.57h-.875a2.123,2.123,0,0,1-2.114-2.114V53.647a2.12,2.12,0,0,1,2.114-2.111h3.24l5.919-10.252v0a2.53,2.53,0,0,1,4.383,2.53h0l-4.458,7.723H73.477l-4.458-7.723h0A2.53,2.53,0,0,1,73.4,41.282h0Zm2.986,9.382-5.311-9.2A.426.426,0,0,0,71,42.181l0,0a.425.425,0,0,0-.153.579l5.065,8.774Zm2.09,6.035H74V60.2h4.456Zm-7.088,0H69.15V60.2h2.742Zm-4.847,0H64.3V60.2h2.742Zm-4.847,0H59.456V60.2H62.2Zm-4.847,0H52.368l.526,2.631h4.456Zm-2.333-6.035H56l5.065-8.774a.425.425,0,0,0-.153-.579l0,0a.427.427,0,0,0-.581.157Zm-1.7,10.771.475,2.376h3.559V62.306Zm.9,4.481.276,1.38h0a2.456,2.456,0,0,0,2.429,1.992h.433V66.787Zm5.243,3.373H62.2V66.787H59.456Zm4.847,0h2.742V66.787H64.3Zm4.847,0h2.742V66.787H69.15Zm4.847,0h.433a2.456,2.456,0,0,0,2.429-1.992h0l.276-1.38H74Zm3.559-5.478.475-2.376H74v2.376Zm-5.665-2.376H69.15v2.376h2.742Zm-4.847,0H64.3v2.376h2.742Zm-4.847,0H59.456v2.376H62.2ZM49.347,53.641s-.009,0-.009.006v1.809a.009.009,0,0,0,.009.009H81.871s.006,0,.006-.009V53.647a.006.006,0,0,0-.006-.006ZM48.088,34.693,25.1,23.254a1.053,1.053,0,0,1-.474-1.41A26.727,26.727,0,0,1,48.557,7,1.053,1.053,0,0,1,49.61,8.053v25.7a1.053,1.053,0,0,1-1.522.942ZM47.5,32.051V9.128a24.623,24.623,0,0,0-20.51,12.719ZM39.349,13.659v-.468a1.053,1.053,0,0,1,2.105,0v.457a3.972,3.972,0,0,1,2.824,2.371,1.053,1.053,0,1,1-1.94.818A2.124,2.124,0,0,0,39.555,15.8a1.3,1.3,0,0,0-.939,1.255,1.09,1.09,0,0,0,.717.933,4.584,4.584,0,0,0,1.248.36c1.8.293,3.757,1.121,4.018,3.248h0c.25,2.061-1.392,3.272-3.144,3.612v.439a1.053,1.053,0,1,1-2.105,0v-.454a3.948,3.948,0,0,1-3.136-2.871,1.053,1.053,0,0,1,2.043-.51,2.1,2.1,0,0,0,2.25,1.39,2.97,2.97,0,0,0,1.567-.443.921.921,0,0,0,.436-.908,1.333,1.333,0,0,0-.894-1.051,5.534,5.534,0,0,0-1.373-.374h0c-1.76-.289-3.626-1.183-3.729-3.268h0a3.341,3.341,0,0,1,2.274-3.318,4.352,4.352,0,0,1,.563-.177Zm11.9,20.092V8.053A1.053,1.053,0,0,1,52.3,7,26.747,26.747,0,0,1,79.054,33.751,1.053,1.053,0,0,1,78,34.8H52.3A1.053,1.053,0,0,1,51.25,33.751ZM53.356,32.7H76.927A24.643,24.643,0,0,0,53.356,9.127ZM66.024,16.076a1.053,1.053,0,0,1,1.71,1.228L58.372,30.336a1.053,1.053,0,0,1-1.71-1.228Zm-7.664-.7a3.287,3.287,0,1,1-3.287,3.287A3.267,3.267,0,0,1,58.359,15.374Zm0,2.105a1.18,1.18,0,1,0,.836.346,1.182,1.182,0,0,0-.836-.346Zm7.593,6.989a3.287,3.287,0,1,1-3.287,3.287A3.268,3.268,0,0,1,65.953,24.468Zm0,2.105a1.18,1.18,0,1,0,.836.346A1.182,1.182,0,0,0,65.953,26.574Z" fill-rule="evenodd"/>
    </g>
  </g>
</svg>
