<svg xmlns="http://www.w3.org/2000/svg" xmlns:xlink="http://www.w3.org/1999/xlink" width="82.949" height="82.95" viewBox="0 0 82.949 82.95">
  <defs>
    <filter id="Trazado_874925" x="0" y="0" width="82.949" height="82.95" filterUnits="userSpaceOnUse">
      <feOffset dy="3" input="SourceAlpha"/>
      <feGaussianBlur stdDeviation="3" result="blur"/>
      <feFlood flood-opacity="0.161"/>
      <feComposite operator="in" in2="blur"/>
      <feComposite in="SourceGraphic"/>
    </filter>
  </defs>
  <g id="Grupo_1112446" data-name="Grupo 1112446" transform="translate(-799.5 -2511.157)">
    <g id="Grupo_1111316" data-name="Grupo 1111316" transform="translate(808.5 2517.157)">
      <g id="Grupo_1109835" data-name="Grupo 1109835" transform="translate(0 0)">
        <g id="Grupo_1107913" data-name="Grupo 1107913" transform="translate(0 0)">
          <g transform="matrix(1, 0, 0, 1, -9, -6)" filter="url(#Trazado_874925)">
            <g id="Trazado_874925-2" data-name="Trazado 874925" transform="translate(9 6)" fill="#9cc8ff" opacity="0.859">
              <path d="M 32.4747428894043 63.44976043701172 C 28.29251289367676 63.44976043701172 24.23619270324707 62.63100051879883 20.41843223571777 61.01623153686523 C 16.73016357421875 59.45621871948242 13.41744327545166 57.22262954711914 10.57229328155518 54.37747955322266 C 7.727142810821533 51.53232955932617 5.493542671203613 48.21961975097656 3.933532953262329 44.53134918212891 C 2.31876277923584 40.7136116027832 1.500002861022949 36.65729141235352 1.500002861022949 32.47507095336914 C 1.500002861022949 28.29247093200684 2.31876277923584 24.23615074157715 3.933532953262329 20.41839981079102 C 5.493542671203613 16.73014068603516 7.727142810821533 13.41742038726807 10.57229328155518 10.57227993011475 C 13.41744327545166 7.72713041305542 16.73016357421875 5.4935302734375 20.41843223571777 3.933530330657959 C 24.23619270324707 2.31876015663147 28.29251289367676 1.500000238418579 32.4747428894043 1.500000238418579 C 36.65697479248047 1.500000238418579 40.71329116821289 2.31876015663147 44.53105163574219 3.933530330657959 C 48.21932220458984 5.4935302734375 51.53204345703125 7.72713041305542 54.37719345092773 10.57227993011475 C 57.22234344482422 13.41742038726807 59.4559440612793 16.73014068603516 61.01595306396484 20.41839981079102 C 62.63072204589844 24.23615074157715 63.44948196411133 28.29247093200684 63.44948196411133 32.47468948364258 C 63.44948196411133 36.65729141235352 62.63072204589844 40.7136116027832 61.01595306396484 44.53134918212891 C 59.4559440612793 48.21961975097656 57.22234344482422 51.53232955932617 54.37719345092773 54.37747955322266 C 51.53204345703125 57.22262954711914 48.21932220458984 59.45621871948242 44.53105163574219 61.01623153686523 C 40.71329116821289 62.63100051879883 36.65697479248047 63.44976043701172 32.4747428894043 63.44976043701172 Z" stroke="none"/>
              <path d="M 32.4747428894043 3.000003814697266 C 28.49435424804688 3.000003814697266 24.63462066650391 3.778892517089844 21.00275421142578 5.315036773681641 C 17.4932861328125 6.799411773681641 14.3408203125 8.925067901611328 11.63294219970703 11.6329345703125 C 8.925075531005859 14.34081268310547 6.799419403076172 17.49327087402344 5.315032958984375 21.00273513793945 C 3.778888702392578 24.63459014892578 3 28.49431228637695 3 32.47507095336914 C 3 36.4554443359375 3.778888702392578 40.31517028808594 5.315032958984375 43.94702529907227 C 6.799419403076172 47.45648956298828 8.925075531005859 50.60894775390625 11.63294219970703 53.31682586669922 C 14.3408203125 56.02469253540039 17.4932861328125 58.15034484863281 21.00275421142578 59.63472366333008 C 24.63462066650391 61.17086791992188 28.49435424804688 61.94975662231445 32.4747428894043 61.94975662231445 C 36.45513153076172 61.94975662231445 40.31486511230469 61.17086791992188 43.94673156738281 59.63472366333008 C 47.45619964599609 58.15034484863281 50.60866546630859 56.02469253540039 53.31654357910156 53.31682586669922 C 56.02441024780273 50.60894775390625 58.15006637573242 47.45648956298828 59.63445281982422 43.94702529907227 C 61.17059707641602 40.31517028808594 61.94948577880859 36.4554443359375 61.94948577880859 32.47468948364258 C 61.94948577880859 28.49431228637695 61.17059707641602 24.63459014892578 59.63445281982422 21.00273513793945 C 58.15006637573242 17.49327087402344 56.02441024780273 14.34081268310547 53.31654357910156 11.6329345703125 C 50.60866546630859 8.925067901611328 47.45619964599609 6.799411773681641 43.94673156738281 5.315036773681641 C 40.31486511230469 3.778892517089844 36.45513153076172 3.000003814697266 32.4747428894043 3.000003814697266 M 32.4747428894043 0 C 50.41005325317383 0 64.94948577880859 14.53941345214844 64.94948577880859 32.47468948364258 L 64.94948577880859 32.47507095336914 C 64.94948577880859 50.41034698486328 50.41005325317383 64.94976043701172 32.4747428894043 64.94976043701172 C 14.53943252563477 64.94976043701172 0 50.41034698486328 0 32.47507095336914 L 0 32.47468948364258 C 0 14.53941345214844 14.53943252563477 0 32.4747428894043 0 Z" stroke="none" fill="#fff"/>
            </g>
          </g>
          <g id="Trazado_874923" data-name="Trazado 874923" transform="translate(0 0)" fill="none">
            <path d="M32.475,0A32.475,32.475,0,0,1,64.949,32.475h0A32.475,32.475,0,0,1,0,32.475H0A32.475,32.475,0,0,1,32.475,0Z" stroke="none"/>
            <path d="M 32.4747428894043 3.000003814697266 C 28.49435424804688 3.000003814697266 24.63462066650391 3.778892517089844 21.00275421142578 5.315036773681641 C 17.4932861328125 6.799411773681641 14.3408203125 8.925067901611328 11.63294219970703 11.6329345703125 C 8.925075531005859 14.34081268310547 6.799419403076172 17.49327087402344 5.315032958984375 21.00273513793945 C 3.778888702392578 24.63459014892578 3 28.49431228637695 3 32.47507095336914 C 3 36.4554443359375 3.778888702392578 40.31517028808594 5.315032958984375 43.94702529907227 C 6.799419403076172 47.45648956298828 8.925075531005859 50.60894775390625 11.63294219970703 53.31682586669922 C 14.3408203125 56.02469253540039 17.4932861328125 58.15034484863281 21.00275421142578 59.63472366333008 C 24.63462066650391 61.17086791992188 28.49435424804688 61.94975662231445 32.4747428894043 61.94975662231445 C 36.45513153076172 61.94975662231445 40.31486511230469 61.17086791992188 43.94673156738281 59.63472366333008 C 47.45619964599609 58.15034484863281 50.60866546630859 56.02469253540039 53.31654357910156 53.31682586669922 C 56.02441024780273 50.60894775390625 58.15006637573242 47.45648956298828 59.63445281982422 43.94702529907227 C 61.17059707641602 40.31517028808594 61.94948577880859 36.4554443359375 61.94948577880859 32.47468948364258 C 61.94948577880859 28.49431228637695 61.17059707641602 24.63459014892578 59.63445281982422 21.00273513793945 C 58.15006637573242 17.49327087402344 56.02441024780273 14.34081268310547 53.31654357910156 11.6329345703125 C 50.60866546630859 8.925067901611328 47.45619964599609 6.799411773681641 43.94673156738281 5.315036773681641 C 40.31486511230469 3.778892517089844 36.45513153076172 3.000003814697266 32.4747428894043 3.000003814697266 M 32.4747428894043 0 C 50.41005325317383 0 64.94948577880859 14.53941345214844 64.94948577880859 32.47468948364258 L 64.94948577880859 32.47507095336914 C 64.94948577880859 50.41034698486328 50.41005325317383 64.94976043701172 32.4747428894043 64.94976043701172 C 14.53943252563477 64.94976043701172 0 50.41034698486328 0 32.47507095336914 L 0 32.47468948364258 C 0 14.53941345214844 14.53943252563477 0 32.4747428894043 0 Z" stroke="none" fill="#fff"/>
          </g>
        </g>
      </g>
    </g>
    <g id="Grupo_1114065" data-name="Grupo 1114065" transform="translate(823.5 2529.215)">
      <g id="Icons" transform="translate(0.695 0.695)">
        <path id="Trazado_906959" data-name="Trazado 906959" d="M51.083,42.041A9.041,9.041,0,1,1,42.041,33,9.041,9.041,0,0,1,51.083,42.041Z" transform="translate(-10.744 -10.744)" fill="#a4c400"/>
        <path id="Trazado_906960" data-name="Trazado 906960" d="M45.545,33a8.991,8.991,0,0,0-1.039.065,9.036,9.036,0,0,1,.008,17.951A9.038,9.038,0,1,0,45.545,33Z" transform="translate(-14.248 -10.744)" fill="#90ac00"/>
        <path id="Trazado_906961" data-name="Trazado 906961" d="M42.478,49.041a1.391,1.391,0,0,1-.983-.407l-2.087-2.087a1.391,1.391,0,1,1,1.967-1.967l.953.952,3.906-4.976a1.391,1.391,0,1,1,2.226,1.669L43.59,48.485a1.391,1.391,0,0,1-1.014.556h-.1Z" transform="translate(-12.571 -12.875)" fill="#f5f5f5"/>
        <path id="Trazado_906962" data-name="Trazado 906962" d="M28.82,1.7V23.951a9.037,9.037,0,0,0-4.138,13.214H1.7a.7.7,0,0,1-.7-.7V6.564L6.564,1h21.56A.7.7,0,0,1,28.82,1.7Z" transform="translate(-1 -1)" fill="#ffdf00"/>
        <path id="Trazado_906963" data-name="Trazado 906963" d="M36.955,1H34.869a.7.7,0,0,1,.7.7V23.951a9.037,9.037,0,0,0-4.138,13.214h2.086a9.037,9.037,0,0,1,4.138-13.214V1.7A.7.7,0,0,0,36.955,1Z" transform="translate(-9.831 -1)" fill="#fec108"/>
        <path id="Trazado_906964" data-name="Trazado 906964" d="M6.564,1V5.868a.7.7,0,0,1-.7.7H1Z" transform="translate(-1 -1)" fill="#ff9801"/>
        <path id="Trazado_906965" data-name="Trazado 906965" d="M26.474,15.7v3.477H7V15.7a.7.7,0,0,1,.7-.7H25.778A.7.7,0,0,1,26.474,15.7Z" transform="translate(-2.827 -5.263)" fill="#f5f5f5"/>
        <g id="Grupo_1114065-2" data-name="Grupo 1114065" transform="translate(4.173 9.737)">
          <path id="Trazado_906966" data-name="Trazado 906966" d="M33.086,15H31a.7.7,0,0,1,.7.7v3.477h2.086V15.7A.7.7,0,0,0,33.086,15Z" transform="translate(-14.308 -15)" fill="#cfd8dc"/>
          <path id="Trazado_906967" data-name="Trazado 906967" d="M11.173,21v6.955H7.7a.7.7,0,0,1-.7-.7V21Z" transform="translate(-7 -16.827)" fill="#cfd8dc"/>
          <path id="Trazado_906968" data-name="Trazado 906968" d="M13,26h7.65v3.477H13Z" transform="translate(-8.827 -18.35)" fill="#cfd8dc"/>
          <path id="Trazado_906969" data-name="Trazado 906969" d="M24,21h7.65v3.477H24Z" transform="translate(-12.177 -16.827)" fill="#cfd8dc"/>
        </g>
        <path id="Trazado_906970" data-name="Trazado 906970" d="M31.65,26v2.782a.7.7,0,0,1-.7.7H24V26Z" transform="translate(-8.004 -8.613)" fill="#9e9e9e"/>
        <path id="Trazado_906971" data-name="Trazado 906971" d="M13,21h7.65v3.477H13Z" transform="translate(-4.654 -7.09)" fill="#9e9e9e"/>
      </g>
      <g id="Icons_copy" data-name="Icons copy" transform="translate(0 0)">
        <path id="Trazado_906972" data-name="Trazado 906972" d="M48.293,39.417a2.086,2.086,0,0,0-2.913.4L41.959,44.18l-.4-.4a2.137,2.137,0,0,0-2.951,0,2.086,2.086,0,0,0,0,2.95L40.7,48.819a2.073,2.073,0,0,0,1.476.613,1.37,1.37,0,0,0,.147-.006,2.081,2.081,0,0,0,1.515-.819l4.875-6.269a2.086,2.086,0,0,0-.417-2.921ZM47.6,41.492l-4.875,6.271a.69.69,0,0,1-.5.278h-.056a.691.691,0,0,1-.492-.2l-2.086-2.086a.7.7,0,1,1,.984-.984l.953.952a.709.709,0,0,0,.533.2.689.689,0,0,0,.5-.265l3.916-4.988a.7.7,0,0,1,1.246.318.686.686,0,0,1-.125.507Z" transform="translate(-11.571 -11.875)"/>
        <path id="Trazado_906973" data-name="Trazado 906973" d="M7.391,26.519H25.474a1.391,1.391,0,0,0,1.391-1.391V15.391A1.391,1.391,0,0,0,25.474,14H7.391A1.391,1.391,0,0,0,6,15.391v9.737a1.391,1.391,0,0,0,1.391,1.391Zm0-6.955h2.782v5.564H7.391Zm18.083,0V21.65H19.214V19.564Zm-7.65,2.086H11.564V19.564h6.259Zm-6.259,1.391h6.259v2.086H11.564Zm7.65,2.086V23.041h6.259v2.086Zm6.259-9.737v2.782H7.391V15.391Z" transform="translate(-1.827 -4.263)"/>
        <path id="Trazado_906974" data-name="Trazado 906974" d="M8.087,39.477a.7.7,0,1,1,.6-1.043.7.7,0,0,0,1.2-.7,2.087,2.087,0,0,0-1.111-.9V36.7a.7.7,0,1,0-1.391,0v.128a2.082,2.082,0,0,0,.7,4.045.7.7,0,1,1-.6,1.043.7.7,0,0,0-1.2.7,2.086,2.086,0,0,0,1.113.9v.139a.7.7,0,0,0,1.391,0v-.128a2.082,2.082,0,0,0-.7-4.045Z" transform="translate(-1.827 -10.962)"/>
        <path id="Trazado_906975" data-name="Trazado 906975" d="M26.519,36H14.7a.7.7,0,1,0,0,1.391H26.519a.7.7,0,1,0,0-1.391Z" transform="translate(-4.263 -10.962)"/>
        <path id="Trazado_906976" data-name="Trazado 906976" d="M12.7,11.391H29.387a.7.7,0,0,0,0-1.391H12.7a.7.7,0,1,0,0,1.391Z" transform="translate(-3.654 -3.045)"/>
        <path id="Trazado_906977" data-name="Trazado 906977" d="M12.7,6.391H29.387a.7.7,0,0,0,0-1.391H12.7a.7.7,0,0,0,0,1.391Z" transform="translate(-3.654 -1.523)"/>
        <path id="Trazado_906978" data-name="Trazado 906978" d="M25.128,41H14.7a.7.7,0,1,0,0,1.391H25.128a.7.7,0,0,0,0-1.391Z" transform="translate(-4.263 -12.485)"/>
        <path id="Trazado_906979" data-name="Trazado 906979" d="M24.432,46H14.7a.7.7,0,0,0,0,1.391h9.737a.7.7,0,0,0,0-1.391Z" transform="translate(-4.263 -14.007)"/>
        <path id="Trazado_906980" data-name="Trazado 906980" d="M31.993,22.256a9.679,9.679,0,0,0-2.782.41V1.391A1.391,1.391,0,0,0,27.82,0H6.259a.7.7,0,0,0-.492.2L.2,5.768a.7.7,0,0,0-.2.492V36.166a1.391,1.391,0,0,0,1.391,1.391H24.014a9.733,9.733,0,1,0,7.979-15.3ZM5.564,2.374v3.19H2.374ZM1.391,36.166V6.955H5.564A1.391,1.391,0,0,0,6.955,5.564V1.391H27.82V23.209a9.689,9.689,0,0,0-4.611,12.957Zm30.6,4.173a8.346,8.346,0,1,1,8.346-8.346A8.346,8.346,0,0,1,31.993,40.339Z" transform="translate(0 0)"/>
      </g>
    </g>
  </g>
</svg>
