<svg xmlns="http://www.w3.org/2000/svg" xmlns:xlink="http://www.w3.org/1999/xlink" width="103" height="103" viewBox="0 0 103 103">
  <defs>
    <filter id="Trazado_874925" x="0" y="0" width="103" height="103" filterUnits="userSpaceOnUse">
      <feOffset dy="3" input="SourceAlpha"/>
      <feGaussianBlur stdDeviation="3" result="blur"/>
      <feFlood flood-opacity="0.161"/>
      <feComposite operator="in" in2="blur"/>
      <feComposite in="SourceGraphic"/>
    </filter>
  </defs>
  <g id="Grupo_1112519" data-name="Grupo 1112519" transform="translate(9 6)">
    <g id="Grupo_1111552" data-name="Grupo 1111552" transform="translate(0 0.001)">
      <g id="Grupo_1111316" data-name="Grupo 1111316" transform="translate(0 0)">
        <g id="Grupo_1109835" data-name="Grupo 1109835" transform="translate(0 0)">
          <g id="Grupo_1107913" data-name="Grupo 1107913" transform="translate(0 0)">
            <g transform="matrix(1, 0, 0, 1, -9, -6)" filter="url(#Trazado_874925)">
              <g id="Trazado_874925-2" data-name="Trazado 874925" transform="translate(9 6)" fill="#997b00" opacity="0.859">
                <path d="M 42.49977493286133 83.49990844726562 C 36.96417617797852 83.49990844726562 31.59496307373047 82.41609191894531 26.54126930236816 80.278564453125 C 21.65922164916992 78.21363830566406 17.27438735961914 75.2572021484375 13.50855159759521 71.49136352539062 C 9.742728233337402 67.72554016113281 6.786280632019043 63.34071731567383 4.721351623535156 58.45867156982422 C 2.583822011947632 53.40499114990234 1.499998450279236 48.03578948974609 1.499998450279236 42.50020217895508 C 1.499998450279236 36.96411895751953 2.583822011947632 31.59491920471191 4.721351623535156 26.54123687744141 C 6.786280632019043 21.65918922424316 9.742728233337402 17.27436637878418 13.50855159759521 13.50854206085205 C 17.27438735961914 9.742707252502441 21.65922164916992 6.786272048950195 26.54126930236816 4.72134256362915 C 31.59496307373047 2.583812952041626 36.96417617797852 1.500001311302185 42.49977493286133 1.500001311302185 C 48.03537368774414 1.500001311302185 53.40458679199219 2.583812952041626 58.45828247070312 4.72134256362915 C 63.34032821655273 6.786272048950195 67.72516632080078 9.742707252502441 71.49099731445312 13.50854206085205 C 75.25682067871094 17.27436637878418 78.21327209472656 21.65918922424316 80.2781982421875 26.54123687744141 C 82.41572570800781 31.59491920471191 83.49954986572266 36.96411895751953 83.49954986572266 42.49970626831055 C 83.49954986572266 48.03578948974609 82.41572570800781 53.40499114990234 80.2781982421875 58.45867156982422 C 78.21327209472656 63.34071731567383 75.25682067871094 67.72554016113281 71.49099731445312 71.49136352539062 C 67.72516632080078 75.2572021484375 63.34032821655273 78.21363830566406 58.45828247070312 80.278564453125 C 53.40458679199219 82.41609191894531 48.03537368774414 83.49990844726562 42.49977493286133 83.49990844726562 Z" stroke="none"/>
                <path d="M 42.49977493286133 2.999992370605469 C 37.166015625 2.999992370605469 31.99338912963867 4.043937683105469 27.12560272216797 6.10284423828125 C 22.42234802246094 8.092155456542969 18.19777679443359 10.94065093994141 14.5692138671875 14.56919097900391 C 10.94065856933594 18.19775390625 8.0921630859375 22.42232894897461 6.102851867675781 27.12556838989258 C 4.0439453125 31.99335479736328 3 37.16596603393555 3 42.50020599365234 C 3 47.83395385742188 4.0439453125 53.00656890869141 6.102851867675781 57.87435150146484 C 8.0921630859375 62.57758331298828 10.94065856933594 66.80215454101562 14.5692138671875 70.43070220947266 C 18.19777679443359 74.05926513671875 22.42234802246094 76.90775299072266 27.12560272216797 78.89704895019531 C 31.99338912963867 80.95595550537109 37.166015625 81.99990081787109 42.49977493286133 81.99990081787109 C 47.83353424072266 81.99990081787109 53.00616073608398 80.95595550537109 57.87394714355469 78.89704895019531 C 62.57720184326172 76.90775299072266 66.80177307128906 74.05926513671875 70.43033599853516 70.43070220947266 C 74.05889892578125 66.80215454101562 76.90738677978516 62.57758331298828 78.89669799804688 57.87435150146484 C 80.95560455322266 53.00656890869141 81.99954986572266 47.83395385742188 81.99954986572266 42.49971389770508 C 81.99954986572266 37.16596603393555 80.95560455322266 31.99335479736328 78.89669799804688 27.12556838989258 C 76.90738677978516 22.42232894897461 74.05889892578125 18.19775390625 70.43033599853516 14.56919097900391 C 66.80177307128906 10.94065093994141 62.57720184326172 8.092155456542969 57.87394714355469 6.10284423828125 C 53.00616073608398 4.043937683105469 47.83353424072266 2.999992370605469 42.49977493286133 2.999992370605469 M 42.49977493286133 -7.62939453125e-06 C 65.97176361083984 -7.62939453125e-06 84.99954986572266 19.02777099609375 84.99954986572266 42.49971389770508 L 84.99954986572266 42.50020599365234 C 84.99954986572266 65.97213745117188 65.97176361083984 84.99990081787109 42.49977493286133 84.99990081787109 C 19.02778625488281 84.99990081787109 0 65.97213745117188 0 42.50020599365234 L 0 42.49971389770508 C 0 19.02777099609375 19.02778625488281 -7.62939453125e-06 42.49977493286133 -7.62939453125e-06 Z" stroke="none" fill="#fff"/>
              </g>
            </g>
            <g id="Trazado_874923" data-name="Trazado 874923" fill="none">
              <path d="M42.5,0A42.5,42.5,0,0,1,85,42.5h0a42.5,42.5,0,0,1-85,0H0A42.5,42.5,0,0,1,42.5,0Z" stroke="none"/>
              <path d="M 42.49977493286133 2.999992370605469 C 37.166015625 2.999992370605469 31.99338912963867 4.043937683105469 27.12560272216797 6.10284423828125 C 22.42234802246094 8.092155456542969 18.19777679443359 10.94065093994141 14.5692138671875 14.56919097900391 C 10.94065856933594 18.19775390625 8.0921630859375 22.42232894897461 6.102851867675781 27.12556838989258 C 4.0439453125 31.99335479736328 3 37.16596603393555 3 42.50020599365234 C 3 47.83395385742188 4.0439453125 53.00656890869141 6.102851867675781 57.87435150146484 C 8.0921630859375 62.57758331298828 10.94065856933594 66.80215454101562 14.5692138671875 70.43070220947266 C 18.19777679443359 74.05926513671875 22.42234802246094 76.90775299072266 27.12560272216797 78.89704895019531 C 31.99338912963867 80.95595550537109 37.166015625 81.99990081787109 42.49977493286133 81.99990081787109 C 47.83353424072266 81.99990081787109 53.00616073608398 80.95595550537109 57.87394714355469 78.89704895019531 C 62.57720184326172 76.90775299072266 66.80177307128906 74.05926513671875 70.43033599853516 70.43070220947266 C 74.05889892578125 66.80215454101562 76.90738677978516 62.57758331298828 78.89669799804688 57.87435150146484 C 80.95560455322266 53.00656890869141 81.99954986572266 47.83395385742188 81.99954986572266 42.49971389770508 C 81.99954986572266 37.16596603393555 80.95560455322266 31.99335479736328 78.89669799804688 27.12556838989258 C 76.90738677978516 22.42232894897461 74.05889892578125 18.19775390625 70.43033599853516 14.56919097900391 C 66.80177307128906 10.94065093994141 62.57720184326172 8.092155456542969 57.87394714355469 6.10284423828125 C 53.00616073608398 4.043937683105469 47.83353424072266 2.999992370605469 42.49977493286133 2.999992370605469 M 42.49977493286133 -7.62939453125e-06 C 65.97176361083984 -7.62939453125e-06 84.99954986572266 19.02777099609375 84.99954986572266 42.49971389770508 L 84.99954986572266 42.50020599365234 C 84.99954986572266 65.97213745117188 65.97176361083984 84.99990081787109 42.49977493286133 84.99990081787109 C 19.02778625488281 84.99990081787109 0 65.97213745117188 0 42.50020599365234 L 0 42.49971389770508 C 0 19.02777099609375 19.02778625488281 -7.62939453125e-06 42.49977493286133 -7.62939453125e-06 Z" stroke="none" fill="#fff"/>
            </g>
          </g>
        </g>
      </g>
    </g>
    <g id="Grupo_1115151" data-name="Grupo 1115151" transform="translate(16.897 16.893)">
      <path id="Trazado_907787" data-name="Trazado 907787" d="M135.682,16.546V46.177c0,.059,0,.118,0,.178A3.826,3.826,0,0,1,131.856,50H110.349a3.825,3.825,0,0,1-3.826-3.825V11.87a3.82,3.82,0,0,1,3.826-3.826h17.084a3.813,3.813,0,0,1,1.662.381c1.034.5,1.325,1.126,3.182,3.025,2.137,2.32,2.647,2.558,3.082,3.563A3.784,3.784,0,0,1,135.682,16.546Z" transform="translate(-95.58 -7.255)" fill="#ffc477"/>
      <path id="Trazado_907788" data-name="Trazado 907788" d="M162.886,16.545V46.176c0,.059,0,.118,0,.178a3.838,3.838,0,0,1-.864.1H140.511a3.825,3.825,0,0,1-3.826-3.825V8.319c0-.06,0-.119,0-.178a3.843,3.843,0,0,1,.864-.1h17.084a3.832,3.832,0,0,1,2.8,1.215l2.048,2.191,2.345,2.453a3.85,3.85,0,0,1,1.061,2.642Z" transform="translate(-122.784 -7.254)" fill="#ffdaaa"/>
      <path id="Trazado_907789" data-name="Trazado 907789" d="M275.276,180.3v21.51a5.407,5.407,0,0,1-5.406,5.406H255.82a5.407,5.407,0,0,1-5.406-5.406V180.3a5.4,5.4,0,0,1,5.406-5.406H269.87A5.406,5.406,0,0,1,275.276,180.3Z" transform="translate(-225.359 -157.743)" fill="#4cba68"/>
      <path id="Trazado_907790" data-name="Trazado 907790" d="M295.833,180.3v21.51a2.775,2.775,0,0,1-3.171,3.632H278.612a5.407,5.407,0,0,1-5.406-5.406v-21.51a2.775,2.775,0,0,1,3.171-3.632h14.049A5.406,5.406,0,0,1,295.833,180.3Z" transform="translate(-245.916 -157.743)" fill="#7ccc92"/>
      <path id="Trazado_907791" data-name="Trazado 907791" d="M360.182,366.778V369.3a.808.808,0,0,1-.808.809h-2.527a.808.808,0,0,1-.809-.809v-2.526a.808.808,0,0,1,.809-.809h2.527A.808.808,0,0,1,360.182,366.778Z" transform="translate(-320.625 -330.076)" fill="#2c733f"/>
      <path id="Trazado_907792" data-name="Trazado 907792" d="M305.728,208.821v2.707a1.743,1.743,0,0,1-1.743,1.743H290.04a1.744,1.744,0,0,1-1.743-1.743v-2.707a1.744,1.744,0,0,1,1.743-1.743h13.945A1.743,1.743,0,0,1,305.728,208.821Z" transform="translate(-259.527 -186.769)" fill="#1e81ce"/>
      <path id="Trazado_907793" data-name="Trazado 907793" d="M332.931,208.821v2.707a1.743,1.743,0,0,1-1.743,1.743H320.2a1.744,1.744,0,0,1-1.743-1.743v-2.707a1.744,1.744,0,0,1,1.743-1.743h10.986A1.743,1.743,0,0,1,332.931,208.821Z" transform="translate(-286.73 -186.769)" fill="#3d9ae2"/>
      <g id="Grupo_1115151-2" data-name="Grupo 1115151" transform="translate(28.77 29.286)">
        <path id="Trazado_907794" data-name="Trazado 907794" d="M292.441,366.778V369.3a.808.808,0,0,1-.809.809h-2.527a.809.809,0,0,1-.809-.809v-2.526a.809.809,0,0,1,.809-.809h2.527A.808.808,0,0,1,292.441,366.778Z" transform="translate(-288.297 -359.362)" fill="#2c733f"/>
        <path id="Trazado_907795" data-name="Trazado 907795" d="M360.182,299.417v2.526a.808.808,0,0,1-.808.809h-2.527a.808.808,0,0,1-.809-.809v-2.526a.808.808,0,0,1,.809-.809h2.527A.808.808,0,0,1,360.182,299.417Z" transform="translate(-349.395 -298.608)" fill="#2c733f"/>
      </g>
      <path id="Trazado_907796" data-name="Trazado 907796" d="M428.739,299.417v2.526a.808.808,0,0,1-.809.809H425.4a.808.808,0,0,1-.809-.809v-2.526a.808.808,0,0,1,.809-.809h2.526A.808.808,0,0,1,428.739,299.417Z" transform="translate(-382.458 -269.322)" fill="#ee8700"/>
      <g id="Grupo_1115152" data-name="Grupo 1115152" transform="translate(28.77 29.286)">
        <path id="Trazado_907797" data-name="Trazado 907797" d="M292.441,299.417v2.526a.808.808,0,0,1-.809.809h-2.527a.809.809,0,0,1-.809-.809v-2.526a.809.809,0,0,1,.809-.809h2.527A.808.808,0,0,1,292.441,299.417Z" transform="translate(-288.297 -298.608)" fill="#2c733f"/>
        <path id="Trazado_907798" data-name="Trazado 907798" d="M360.182,430.839v2.527a.808.808,0,0,1-.808.809h-2.527a.808.808,0,0,1-.809-.809v-2.527a.808.808,0,0,1,.809-.808h2.527A.808.808,0,0,1,360.182,430.839Z" transform="translate(-349.395 -417.142)" fill="#2c733f"/>
        <path id="Trazado_907799" data-name="Trazado 907799" d="M292.441,430.839v2.527a.808.808,0,0,1-.809.809h-2.527a.809.809,0,0,1-.809-.809v-2.527a.809.809,0,0,1,.809-.808h2.527A.808.808,0,0,1,292.441,430.839Z" transform="translate(-288.297 -417.142)" fill="#2c733f"/>
      </g>
      <path id="Trazado_907800" data-name="Trazado 907800" d="M428.739,367.169v7.846a1.379,1.379,0,0,1-1.378,1.379h-1.386a1.379,1.379,0,0,1-1.378-1.379v-7.846a1.2,1.2,0,0,1,1.2-1.2h1.741A1.2,1.2,0,0,1,428.739,367.169Z" transform="translate(-382.458 -330.075)" fill="#ee8700"/>
      <g id="Grupo_1115153" data-name="Grupo 1115153" transform="translate(28.77 29.286)">
        <path id="Trazado_907801" data-name="Trazado 907801" d="M360.182,366.778v.751a.808.808,0,0,1-.808.809h-2.527a.808.808,0,0,1-.809-.809v-.751a.808.808,0,0,1,.809-.809h2.527A.808.808,0,0,1,360.182,366.778Z" transform="translate(-349.395 -359.362)" fill="#317f46"/>
        <path id="Trazado_907802" data-name="Trazado 907802" d="M292.441,366.778v.751a.808.808,0,0,1-.809.809h-2.527a.809.809,0,0,1-.809-.809v-.751a.809.809,0,0,1,.809-.809h2.527A.808.808,0,0,1,292.441,366.778Z" transform="translate(-288.297 -359.362)" fill="#317f46"/>
        <path id="Trazado_907803" data-name="Trazado 907803" d="M360.182,299.417v.751a.808.808,0,0,1-.808.809h-2.527a.808.808,0,0,1-.809-.809v-.751a.808.808,0,0,1,.809-.809h2.527A.808.808,0,0,1,360.182,299.417Z" transform="translate(-349.395 -298.608)" fill="#317f46"/>
      </g>
      <path id="Trazado_907804" data-name="Trazado 907804" d="M428.739,299.417v.751a.808.808,0,0,1-.809.809H425.4a.808.808,0,0,1-.809-.809v-.751a.808.808,0,0,1,.809-.809h2.526A.808.808,0,0,1,428.739,299.417Z" transform="translate(-382.458 -269.322)" fill="#ff9811"/>
      <g id="Grupo_1115154" data-name="Grupo 1115154" transform="translate(28.77 29.286)">
        <path id="Trazado_907805" data-name="Trazado 907805" d="M292.441,299.417v.751a.808.808,0,0,1-.809.809h-2.527a.809.809,0,0,1-.809-.809v-.751a.809.809,0,0,1,.809-.809h2.527A.808.808,0,0,1,292.441,299.417Z" transform="translate(-288.297 -298.608)" fill="#317f46"/>
        <path id="Trazado_907806" data-name="Trazado 907806" d="M360.182,430.839v.752a.808.808,0,0,1-.808.809h-2.527a.808.808,0,0,1-.809-.809v-.752a.808.808,0,0,1,.809-.808h2.527A.808.808,0,0,1,360.182,430.839Z" transform="translate(-349.395 -417.142)" fill="#317f46"/>
        <path id="Trazado_907807" data-name="Trazado 907807" d="M292.441,430.839v.752a.808.808,0,0,1-.809.809h-2.527a.809.809,0,0,1-.809-.809v-.752a.809.809,0,0,1,.809-.808h2.527A.808.808,0,0,1,292.441,430.839Z" transform="translate(-288.297 -417.142)" fill="#317f46"/>
      </g>
      <path id="Trazado_907808" data-name="Trazado 907808" d="M428.739,367.169v6.071a1.379,1.379,0,0,1-1.378,1.379h-1.386a1.379,1.379,0,0,1-1.378-1.379v-6.071a1.2,1.2,0,0,1,1.2-1.2h1.741A1.2,1.2,0,0,1,428.739,367.169Z" transform="translate(-382.458 -330.075)" fill="#ff9811"/>
      <path id="Trazado_907809" data-name="Trazado 907809" d="M342.926,18.512h-4.794a1.471,1.471,0,0,1-1.471-1.471V11.924a3.821,3.821,0,0,1,1.134.834l2.049,2.191,2.345,2.454A3.788,3.788,0,0,1,342.926,18.512Z" transform="translate(-303.147 -10.755)" fill="#ffb655"/>
      <path id="Trazado_907810" data-name="Trazado 907810" d="M84.68,463.524a1.879,1.879,0,0,1-1.873,1.873H71.329a1.873,1.873,0,0,1,0-3.747H82.807A1.879,1.879,0,0,1,84.68,463.524Z" transform="translate(-62.149 -416.374)" fill="#aa6100"/>
      <path id="Trazado_907811" data-name="Trazado 907811" d="M84.68,425.319a1.879,1.879,0,0,1-1.873,1.873H71.329a1.873,1.873,0,0,1,0-3.747H82.807A1.879,1.879,0,0,1,84.68,425.319Z" transform="translate(-62.149 -381.916)" fill="#cc7400"/>
      <path id="Trazado_907812" data-name="Trazado 907812" d="M84.68,387.115a1.879,1.879,0,0,1-1.873,1.873H71.329a1.873,1.873,0,0,1,0-3.747H82.807A1.879,1.879,0,0,1,84.68,387.115Z" transform="translate(-62.149 -347.459)" fill="#ee8700"/>
      <path id="Trazado_907813" data-name="Trazado 907813" d="M84.68,348.91a1.879,1.879,0,0,1-1.873,1.873H71.329a1.879,1.879,0,0,1-1.873-1.873,1.879,1.879,0,0,1,1.873-1.874H82.807A1.879,1.879,0,0,1,84.68,348.91Z" transform="translate(-62.149 -313)" fill="#ff9811"/>
      <path id="Trazado_907814" data-name="Trazado 907814" d="M82.807,312.581H71.329a1.879,1.879,0,0,1-1.873-1.873h0a1.879,1.879,0,0,1,1.873-1.873H82.807a1.879,1.879,0,0,1,1.873,1.873h0A1.879,1.879,0,0,1,82.807,312.581Z" transform="translate(-62.149 -278.545)" fill="#ffa733"/>
      <path id="Trazado_907815" data-name="Trazado 907815" d="M23.222,383.462a6.1,6.1,0,0,0-6.353-5.837H14.481a6.1,6.1,0,0,0,.522,12.2h1.866v0c.17.007.342.009.515,0a6.2,6.2,0,0,0,1.134-.155,6.1,6.1,0,0,0,4.7-5.722v-.007C23.229,383.779,23.229,383.621,23.222,383.462Z" transform="translate(-7.282 -340.583)" fill="#cc7400"/>
      <path id="Trazado_907816" data-name="Trazado 907816" d="M70.969,385.412v.007a6.1,6.1,0,0,1-4.7,5.722,6.107,6.107,0,0,1-4.7-5.682c0-.014,0-.027,0-.04v-.007a6.106,6.106,0,0,1,4.7-6.157,6.105,6.105,0,0,1,4.7,5.683C70.975,385.1,70.975,385.255,70.969,385.412Z" transform="translate(-55.027 -342.059)" fill="#ee8700"/>
      <path id="Trazado_907817" data-name="Trazado 907817" d="M44.51,16.414h-3.62V9.29A4.626,4.626,0,0,0,39.612,6.1L37.273,3.655c-1.985-2.045-2.235-2.623-3.418-3.2a4.625,4.625,0,0,0-2-.459H14.769a4.62,4.62,0,0,0-4.615,4.615V29.5H9.181a2.661,2.661,0,0,0-1.889,4.536,2.653,2.653,0,0,0-.773,1.873,2.731,2.731,0,0,0,.052.527A6.711,6.711,0,0,0,7.53,49.818l13.128,0a2.661,2.661,0,0,0,1.889-4.536,2.648,2.648,0,0,0,.769-1.741h1v.533a6.153,6.153,0,0,0,6.146,6.146H44.51a6.153,6.153,0,0,0,6.146-6.146V22.56A6.153,6.153,0,0,0,44.51,16.414ZM34.3,2.789,38.23,6.942l0,0h0l0,0h0l.006.006,0,0,0,0,0,0,0,0H34.3V2.789ZM9.181,31.078H20.658a1.085,1.085,0,1,1,0,2.169H9.181a1.085,1.085,0,1,1,0-2.169Zm0,3.747H20.658a1.085,1.085,0,1,1,0,2.169H12.73a6.424,6.424,0,0,0-1-.361,6.65,6.65,0,0,0-1.578-.232c-.155,0-.31,0-.464,0H8.217a1.066,1.066,0,0,1-.121-.5A1.087,1.087,0,0,1,9.181,34.825Zm12.562,4.832a1.086,1.086,0,0,1-1.085,1.085H16.244A6.636,6.636,0,0,0,14.9,38.572h5.754A1.087,1.087,0,0,1,21.743,39.657Zm-16.4-1.416A6.807,6.807,0,0,0,4.1,39.834H3.182A5.21,5.21,0,0,1,5.343,38.241Zm-3,3.072H3.491A6.81,6.81,0,0,0,3.276,42.5H2.062A5.183,5.183,0,0,1,2.342,41.313Zm.127,3.91A5.175,5.175,0,0,1,2.1,43.974H3.3a5.953,5.953,0,0,0,.282,1.248ZM3.454,46.7c.484,0,.765,0,.831,0a6.661,6.661,0,0,0,1.061,1.284A5.211,5.211,0,0,1,3.454,46.7Zm6.731,1.638A5.233,5.233,0,1,1,13.5,39.257,5.228,5.228,0,0,1,10.184,48.34Zm10.474-.1H14.291a6.758,6.758,0,0,0,1.695-2.169h4.672a1.085,1.085,0,1,1,0,2.169Zm1.076-4.7a1.085,1.085,0,0,1-1.076.953H16.531a6.777,6.777,0,0,0,.1-2.169h4.032A1.086,1.086,0,0,1,21.734,43.536Zm2.581-1.578H22.891a2.617,2.617,0,0,0-.344-.428,2.656,2.656,0,0,0,0-3.747,2.657,2.657,0,0,0,0-3.747A2.664,2.664,0,0,0,20.658,29.5H11.731V4.615a3.041,3.041,0,0,1,3.037-3.037H32.725V7.757a.789.789,0,0,0,.789.789h5.705c.165.639.063.428.094,7.868H30.461a6.153,6.153,0,0,0-6.146,6.146v19.4Zm24.862,2.111a4.672,4.672,0,0,1-4.667,4.667H30.461a4.673,4.673,0,0,1-4.667-4.667V22.56a4.673,4.673,0,0,1,4.667-4.667H44.511a4.672,4.672,0,0,1,4.667,4.667v21.51Z"/>
      <path id="Trazado_907818" data-name="Trazado 907818" d="M285.923,205.731H283.24a1.007,1.007,0,0,1-1-1v-2.707a1.007,1.007,0,0,1,1-1h13.945a1,1,0,0,1,1,1v2.707a1,1,0,0,1-1,1h-8.073a.739.739,0,1,0,0,1.479h8.073a2.486,2.486,0,0,0,2.483-2.483v-2.707a2.486,2.486,0,0,0-2.483-2.483H283.24a2.483,2.483,0,0,0-2.483,2.483v2.707a2.483,2.483,0,0,0,2.483,2.483h2.683a.739.739,0,1,0,0-1.479Z" transform="translate(-252.726 -179.968)"/>
      <path id="Trazado_907819" data-name="Trazado 907819" d="M282.305,364.051h2.527a1.549,1.549,0,0,0,1.548-1.548v-2.526a1.549,1.549,0,0,0-1.548-1.548h-2.527a1.55,1.55,0,0,0-1.548,1.548V362.5A1.55,1.55,0,0,0,282.305,364.051Zm-.069-4.074a.069.069,0,0,1,.069-.069h2.527a.069.069,0,0,1,.069.069V362.5a.069.069,0,0,1-.069.069h-2.527a.069.069,0,0,1-.069-.069Z" transform="translate(-252.726 -323.276)"/>
      <path id="Trazado_907820" data-name="Trazado 907820" d="M421.13,291.068H418.6a1.549,1.549,0,0,0-1.548,1.548v2.526a1.549,1.549,0,0,0,1.548,1.548h2.526a1.549,1.549,0,0,0,1.548-1.548v-2.526A1.549,1.549,0,0,0,421.13,291.068Zm.069,4.074a.069.069,0,0,1-.069.069H418.6a.069.069,0,0,1-.069-.069c.031-2.5-.064-2.6.069-2.6h2.526a.069.069,0,0,1,.069.069Z" transform="translate(-375.657 -262.521)"/>
      <path id="Trazado_907821" data-name="Trazado 907821" d="M282.305,296.69h2.527a1.549,1.549,0,0,0,1.548-1.548v-2.526a1.549,1.549,0,0,0-1.548-1.548h-2.527a1.55,1.55,0,0,0-1.548,1.548v2.526A1.55,1.55,0,0,0,282.305,296.69Zm-.069-4.074a.069.069,0,0,1,.069-.069h2.527a.069.069,0,0,1,.069.069v2.526a.069.069,0,0,1-.069.069h-2.527a.069.069,0,0,1-.069-.069Z" transform="translate(-252.726 -262.521)"/>
      <path id="Trazado_907822" data-name="Trazado 907822" d="M285.967,423.013a1.547,1.547,0,0,0-1.159-.522h-2.527a1.543,1.543,0,0,0-1.158.522,2.115,2.115,0,0,0-.39,1.578v1.975a1.55,1.55,0,0,0,1.548,1.548h2.527a1.549,1.549,0,0,0,1.548-1.548V424.59A2.133,2.133,0,0,0,285.967,423.013Zm-1.159,3.622c-2.5-.031-2.6.064-2.6-.069,0-2.675-.03-2.6.069-2.6h2.527c.121,0,.046.169.069.62A10.515,10.515,0,0,1,284.808,426.634Z" transform="translate(-252.702 -381.055)"/>
      <path id="Trazado_907823" data-name="Trazado 907823" d="M420.737,358.428H419a1.943,1.943,0,0,0-1.941,1.941v7.846a2.121,2.121,0,0,0,2.118,2.119h1.386a2.121,2.121,0,0,0,2.118-2.119v-7.846A1.942,1.942,0,0,0,420.737,358.428Zm.462,9.786a.64.64,0,0,1-.639.64h-1.386a.64.64,0,0,1-.639-.64v-7.846a.462.462,0,0,1,.461-.461h1.741a.462.462,0,0,1,.461.461v7.846Z" transform="translate(-375.657 -323.275)"/>
      <path id="Trazado_907824" data-name="Trazado 907824" d="M165.84,172.362h0c-.9-.331-1.553-.571-1.553-1.406,0-.761.506-1.147,1.5-1.147,1.059,0,1.344.466,1.716.466a.71.71,0,0,0,.63-.729c0-.616-1-.922-1.9-1v-.556a.7.7,0,0,0-1.4,0v.644a2.292,2.292,0,0,0-1.9,2.4c0,1.721,1.267,2.2,2.286,2.58,1,.375,1.785.671,1.785,1.809,0,.94-.522,1.417-1.552,1.417-1.507,0-1.521-1.018-2.1-1.018a.739.739,0,0,0-.643.729c0,.583.868,1.349,2.124,1.548v.537a.7.7,0,0,0,1.4,0v-.551a2.532,2.532,0,0,0,2.124-2.735C168.357,173.287,166.961,172.775,165.84,172.362Z" transform="translate(-146.254 -150.881)"/>
      <path id="Trazado_907825" data-name="Trazado 907825" d="M352.552,422.491h-2.527a1.547,1.547,0,0,0-1.159.522,2.123,2.123,0,0,0-.389,1.578v1.975a1.549,1.549,0,0,0,1.548,1.548h2.527a1.549,1.549,0,0,0,1.547-1.548v-2.527a1.55,1.55,0,0,0-1.547-1.547Zm0,4.143c-2.5-.031-2.6.064-2.6-.069v-2.527a.069.069,0,0,1,.069-.068h2.527a.068.068,0,0,1,.068.068C352.59,426.541,352.683,426.634,352.552,426.634Z" transform="translate(-313.802 -381.055)"/>
      <path id="Trazado_907826" data-name="Trazado 907826" d="M352.574,291.068h-2.527a1.549,1.549,0,0,0-1.548,1.548v2.526a1.549,1.549,0,0,0,1.548,1.548h2.527a1.525,1.525,0,0,0,.563-.107,1.55,1.55,0,0,0,.984-1.442v-2.526A1.55,1.55,0,0,0,352.574,291.068Zm.068,4.074a.068.068,0,0,1-.068.069h-2.527a.069.069,0,0,1-.069-.069v-2.526c0-.133.092-.039,2.6-.069a.068.068,0,0,1,.068.069v2.526Z" transform="translate(-313.824 -262.521)"/>
      <path id="Trazado_907827" data-name="Trazado 907827" d="M353.137,358.535a1.524,1.524,0,0,0-.563-.107h-2.527a1.549,1.549,0,0,0-1.548,1.548V362.5a1.549,1.549,0,0,0,1.548,1.548h2.527a1.549,1.549,0,0,0,1.547-1.548v-2.526A1.55,1.55,0,0,0,353.137,358.535Zm-.495,3.968a.068.068,0,0,1-.068.069h-2.527a.069.069,0,0,1-.069-.069v-2.526a.069.069,0,0,1,.069-.069h2.527a.068.068,0,0,1,.068.069Z" transform="translate(-313.824 -323.275)"/>
      <path id="Trazado_907828" data-name="Trazado 907828" d="M320.786,104.521h1.858a.74.74,0,0,0,0-1.479h-1.858a.74.74,0,0,0,0,1.479Z" transform="translate(-288.163 -92.936)"/>
      <path id="Trazado_907829" data-name="Trazado 907829" d="M156.91,104.521h13.114a.74.74,0,0,0,0-1.479H156.91a.74.74,0,1,0,0,1.479Z" transform="translate(-140.358 -92.936)"/>
      <path id="Trazado_907830" data-name="Trazado 907830" d="M159.26,141.951a.739.739,0,1,0,0-1.479H156.91a.739.739,0,1,0,0,1.479Z" transform="translate(-140.358 -126.695)"/>
      <path id="Trazado_907831" data-name="Trazado 907831" d="M224.4,141.211a.74.74,0,0,0-.739-.739H211.039a.739.739,0,1,0,0,1.479H223.66A.74.74,0,0,0,224.4,141.211Z" transform="translate(-189.178 -126.695)"/>
      <path id="Trazado_907832" data-name="Trazado 907832" d="M78.975,400.874c0-.186.068-.239.133-.275a1.271,1.271,0,0,1,1.072.073.846.846,0,0,0,.4.122c.729,0,1.306-1.355-.436-1.655v-.047a.749.749,0,0,0-1.5,0v.142a1.682,1.682,0,0,0-1.143,1.684c0,1.261.916,1.606,1.586,1.857.638.24.859.345.859.779,0,.271-.073.523-.6.523-.773,0-.68-.611-1.259-.611a.773.773,0,0,0-.715.766c0,.512.533,1,1.276,1.2v.056a.749.749,0,0,0,1.5,0v-.076a1.853,1.853,0,0,0,1.276-1.9C81.419,401.262,78.975,401.6,78.975,400.874Z" transform="translate(-69.286 -359.274)"/>
    </g>
  </g>
</svg>
