<svg xmlns="http://www.w3.org/2000/svg" xmlns:xlink="http://www.w3.org/1999/xlink" width="97.028" height="97.028" viewBox="0 0 97.028 97.028">
  <defs>
    <filter id="Trazado_874925" x="0" y="0" width="97.028" height="97.028" filterUnits="userSpaceOnUse">
      <feOffset dy="3" input="SourceAlpha"/>
      <feGaussianBlur stdDeviation="3" result="blur"/>
      <feFlood flood-opacity="0.161"/>
      <feComposite operator="in" in2="blur"/>
      <feComposite in="SourceGraphic"/>
    </filter>
  </defs>
  <g id="Grupo_1115786" data-name="Grupo 1115786" transform="translate(-184.051 -6439)">
    <g id="Grupo_1112546" data-name="Grupo 1112546" transform="translate(-615.449 3927.843)">
      <g id="Grupo_1111316" data-name="Grupo 1111316" transform="translate(808.5 2517.157)">
        <g id="Grupo_1109835" data-name="Grupo 1109835" transform="translate(0 0)">
          <g id="Grupo_1107913" data-name="Grupo 1107913" transform="translate(0 0)">
            <g transform="matrix(1, 0, 0, 1, -9, -6)" filter="url(#Trazado_874925)">
              <g id="Trazado_874925-2" data-name="Trazado 874925" transform="translate(9 6)" fill="#fc0" opacity="0.859">
                <path d="M 39.51377868652344 77.52789306640625 C 34.38129043579102 77.52789306640625 29.40312385559082 76.52302551269531 24.71755599975586 74.54119873046875 C 20.19108963012695 72.62667083740234 16.12557792663574 69.88552093505859 12.63397884368896 66.39393615722656 C 9.142378807067871 62.90233612060547 6.401234149932861 58.83683395385742 4.486701011657715 54.31036758422852 C 2.504867553710938 49.62481307983398 1.500000953674316 44.64665603637695 1.500000953674316 39.51417922973633 C 1.500000953674316 34.3812370300293 2.504867553710938 29.40307998657227 4.486701011657715 24.7175235748291 C 6.401234149932861 20.1910572052002 9.142378807067871 16.12555694580078 12.63397884368896 12.633957862854 C 16.12557792663574 9.142368316650391 20.19108963012695 6.401224136352539 24.71755599975586 4.486690998077393 C 29.40312385559082 2.504868745803833 34.38129043579102 1.500002145767212 39.51377868652344 1.500002145767212 C 44.64626693725586 1.500002145767212 49.62443542480469 2.504868745803833 54.31000137329102 4.486690998077393 C 58.83647918701172 6.401224136352539 62.9019775390625 9.14235782623291 66.39357757568359 12.633957862854 C 69.88519287109375 16.12555694580078 72.62631988525391 20.1910572052002 74.54087066650391 24.7175235748291 C 76.52268981933594 29.40307998657227 77.52755737304688 34.3812370300293 77.52755737304688 39.51371383666992 C 77.52755737304688 44.64665603637695 76.52268981933594 49.62481307983398 74.54087066650391 54.31036758422852 C 72.62631988525391 58.83683395385742 69.88519287109375 62.90233612060547 66.39357757568359 66.39393615722656 C 62.9019775390625 69.88553619384766 58.83647918701172 72.62667083740234 54.31000137329102 74.54119873046875 C 49.62443542480469 76.52302551269531 44.64626693725586 77.52789306640625 39.51377868652344 77.52789306640625 Z" stroke="none"/>
                <path d="M 39.51377868652344 3 C 34.5831298828125 3 29.80155181884766 3.964996337890625 25.3018913269043 5.868194580078125 C 20.95420455932617 7.707107543945312 17.04896545410156 10.34029388427734 13.69464111328125 13.69461822509766 C 10.34030151367188 17.04894638061523 7.707115173339844 20.95418548583984 5.868202209472656 25.30186080932617 C 3.965003967285156 29.80152130126953 3 34.58308410644531 3 39.5141716003418 C 3 44.44480895996094 3.965003967285156 49.22637176513672 5.868202209472656 53.72603607177734 C 7.707115173339844 58.07370758056641 10.34030151367188 61.97894668579102 13.69464111328125 65.33327484130859 C 17.04896545410156 68.68759918212891 20.95420455932617 71.32078552246094 25.3018913269043 73.15969848632812 C 29.80155181884766 75.06289672851562 34.5831298828125 76.02789306640625 39.51377868652344 76.02789306640625 C 44.44442749023438 76.02789306640625 49.22600555419922 75.06289672851562 53.72566604614258 73.15969848632812 C 58.0733528137207 71.32078552246094 61.97859191894531 68.68759918212891 65.33291625976562 65.33327484130859 C 68.687255859375 61.97894668579102 71.32044219970703 58.07370758056641 73.15935516357422 53.72603607177734 C 75.06255340576172 49.22637176513672 76.02755737304688 44.44480895996094 76.02755737304688 39.51372146606445 C 76.02755737304688 34.58308410644531 75.06255340576172 29.80152130126953 73.15935516357422 25.30186080932617 C 71.32044219970703 20.95418548583984 68.687255859375 17.04894638061523 65.33291625976562 13.69461822509766 C 61.97859191894531 10.34029388427734 58.0733528137207 7.707107543945312 53.72566604614258 5.868194580078125 C 49.22600555419922 3.964996337890625 44.44442749023438 3 39.51377868652344 3 M 39.51377868652344 0 C 61.33663940429688 0 79.02755737304688 17.69089508056641 79.02755737304688 39.51372146606445 L 79.02755737304688 39.5141716003418 C 79.02755737304688 61.33699798583984 61.33663940429688 79.02789306640625 39.51377868652344 79.02789306640625 C 17.69091796875 79.02789306640625 0 61.33699798583984 0 39.5141716003418 L 0 39.51372146606445 C 0 17.69089508056641 17.69091796875 0 39.51377868652344 0 Z" stroke="none" fill="#fff"/>
              </g>
            </g>
            <g id="Trazado_874923" data-name="Trazado 874923" transform="translate(0 0)" fill="none">
              <path d="M39.514,0A39.514,39.514,0,0,1,79.028,39.514h0A39.514,39.514,0,0,1,0,39.514H0A39.514,39.514,0,0,1,39.514,0Z" stroke="none"/>
              <path d="M 39.51377868652344 3 C 34.5831298828125 3 29.80155181884766 3.964996337890625 25.3018913269043 5.868194580078125 C 20.95420455932617 7.707107543945312 17.04896545410156 10.34029388427734 13.69464111328125 13.69461822509766 C 10.34030151367188 17.04894638061523 7.707115173339844 20.95418548583984 5.868202209472656 25.30186080932617 C 3.965003967285156 29.80152130126953 3 34.58308410644531 3 39.5141716003418 C 3 44.44480895996094 3.965003967285156 49.22637176513672 5.868202209472656 53.72603607177734 C 7.707115173339844 58.07370758056641 10.34030151367188 61.97894668579102 13.69464111328125 65.33327484130859 C 17.04896545410156 68.68759918212891 20.95420455932617 71.32078552246094 25.3018913269043 73.15969848632812 C 29.80155181884766 75.06289672851562 34.5831298828125 76.02789306640625 39.51377868652344 76.02789306640625 C 44.44442749023438 76.02789306640625 49.22600555419922 75.06289672851562 53.72566604614258 73.15969848632812 C 58.0733528137207 71.32078552246094 61.97859191894531 68.68759918212891 65.33291625976562 65.33327484130859 C 68.687255859375 61.97894668579102 71.32044219970703 58.07370758056641 73.15935516357422 53.72603607177734 C 75.06255340576172 49.22637176513672 76.02755737304688 44.44480895996094 76.02755737304688 39.51372146606445 C 76.02755737304688 34.58308410644531 75.06255340576172 29.80152130126953 73.15935516357422 25.30186080932617 C 71.32044219970703 20.95418548583984 68.687255859375 17.04894638061523 65.33291625976562 13.69461822509766 C 61.97859191894531 10.34029388427734 58.0733528137207 7.707107543945312 53.72566604614258 5.868194580078125 C 49.22600555419922 3.964996337890625 44.44442749023438 3 39.51377868652344 3 M 39.51377868652344 0 C 61.33663940429688 0 79.02755737304688 17.69089508056641 79.02755737304688 39.51372146606445 L 79.02755737304688 39.5141716003418 C 79.02755737304688 61.33699798583984 61.33663940429688 79.02789306640625 39.51377868652344 79.02789306640625 C 17.69091796875 79.02789306640625 0 61.33699798583984 0 39.5141716003418 L 0 39.51372146606445 C 0 17.69089508056641 17.69091796875 0 39.51377868652344 0 Z" stroke="none" fill="#fff"/>
            </g>
          </g>
        </g>
      </g>
    </g>
    <g id="Grupo_1115785" data-name="Grupo 1115785" transform="translate(206.051 6452.174)">
      <g id="Grupo_1115783" data-name="Grupo 1115783" transform="translate(0.765 7.59)">
        <g id="Grupo_1115782" data-name="Grupo 1115782" transform="translate(0 0)">
          <g id="Grupo_1115766" data-name="Grupo 1115766" transform="translate(27.059 24.155)">
            <path id="Trazado_908599" data-name="Trazado 908599" d="M284.928,251.278V254.4a9.467,9.467,0,0,0-8.247,15.464h-3.739a12.576,12.576,0,1,0,11.985-18.582Z" transform="translate(-272.943 -251.278)" fill="#feb237"/>
          </g>
          <g id="Grupo_1115767" data-name="Grupo 1115767" transform="translate(11.854 4.385)">
            <path id="Trazado_908600" data-name="Trazado 908600" d="M140.651,89.654a9.368,9.368,0,0,1,10.429-9.309V58.363a1.019,1.019,0,0,0-1.019-1.019H129.728V73.369A1.434,1.434,0,0,1,128.3,74.8h-4.508V94.778a1.019,1.019,0,0,0,1.019,1.019h18.144A9.33,9.33,0,0,1,140.651,89.654Z" transform="translate(-123.788 -57.344)" fill="#d8ecfe"/>
          </g>
          <g id="Grupo_1115770" data-name="Grupo 1115770" transform="translate(11.854 4.385)">
            <g id="Grupo_1115768" data-name="Grupo 1115768" transform="translate(23.468)">
              <path id="Trazado_908601" data-name="Trazado 908601" d="M356.765,80.285a9.42,9.42,0,0,1,1.06.06V58.363a1.019,1.019,0,0,0-1.019-1.019H354V80.7A9.339,9.339,0,0,1,356.765,80.285Z" transform="translate(-354 -57.344)" fill="#c4e2ff"/>
            </g>
            <g id="Grupo_1115769" data-name="Grupo 1115769" transform="translate(0 34.646)">
              <path id="Trazado_908602" data-name="Trazado 908602" d="M140.946,397.219H123.788v2.787a1.019,1.019,0,0,0,1.019,1.019h18.145A9.356,9.356,0,0,1,140.946,397.219Z" transform="translate(-123.788 -397.219)" fill="#c4e2ff"/>
            </g>
          </g>
          <g id="Grupo_1115774" data-name="Grupo 1115774" transform="translate(17.737 9.948)">
            <g id="Grupo_1115771" data-name="Grupo 1115771">
              <path id="Trazado_908603" data-name="Trazado 908603" d="M184.394,119.983h-2.9v-8.074h2.389a.51.51,0,0,1,.51.51Z" transform="translate(-181.496 -111.909)" fill="#ffe177"/>
            </g>
            <g id="Grupo_1115772" data-name="Grupo 1115772" transform="translate(6.314 3.002)">
              <path id="Trazado_908604" data-name="Trazado 908604" d="M246.335,146.428h-2.9v-4.562a.51.51,0,0,1,.51-.51h1.879a.51.51,0,0,1,.51.51Z" transform="translate(-243.437 -141.356)" fill="#fe646f"/>
            </g>
            <g id="Grupo_1115773" data-name="Grupo 1115773" transform="translate(12.628 1.553)">
              <path id="Trazado_908605" data-name="Trazado 908605" d="M308.277,133.661h-2.9V127.65a.51.51,0,0,1,.51-.51h1.879a.51.51,0,0,1,.51.51Z" transform="translate(-305.379 -127.14)" fill="#05e39c"/>
            </g>
          </g>
          <g id="Grupo_1115775" data-name="Grupo 1115775" transform="translate(28.615 27.224)">
            <circle id="Elipse_11738" data-name="Elipse 11738" cx="9.471" cy="9.471" r="9.471" fill="#ffe177"/>
          </g>
          <g id="Grupo_1115776" data-name="Grupo 1115776" transform="translate(31.466 27.659)">
            <path id="Trazado_908606" data-name="Trazado 908606" d="M325.642,285.655a9.474,9.474,0,0,1-9.466,15.808,9.472,9.472,0,1,0,9.466-15.808Z" transform="translate(-316.176 -285.655)" fill="#ffd15b"/>
          </g>
          <g id="Grupo_1115781" data-name="Grupo 1115781">
            <g id="Grupo_1115777" data-name="Grupo 1115777" transform="translate(0)">
              <path id="Trazado_908607" data-name="Trazado 908607" d="M23.862,36.27H9.034A1.534,1.534,0,0,1,7.5,34.736V15.859a1.534,1.534,0,0,1,1.534-1.534H23.862A1.534,1.534,0,0,1,25.4,15.859V34.736A1.534,1.534,0,0,1,23.862,36.27Z" transform="translate(-7.5 -14.325)" fill="#26a6fe"/>
            </g>
            <g id="Grupo_1115778" data-name="Grupo 1115778" transform="translate(0 0)">
              <path id="Trazado_908608" data-name="Trazado 908608" d="M23.862,14.326H21.573v16.68a1.534,1.534,0,0,1-1.534,1.534H7.5v2.2a1.534,1.534,0,0,0,1.534,1.534H23.862A1.534,1.534,0,0,0,25.4,34.737V15.86A1.534,1.534,0,0,0,23.862,14.326Z" transform="translate(-7.5 -14.326)" fill="#0593fc"/>
            </g>
            <g id="Grupo_1115779" data-name="Grupo 1115779" transform="translate(2.944 3.105)">
              <path id="Trazado_908609" data-name="Trazado 908609" d="M36.383,49.346V45.095a.307.307,0,0,1,.307-.307H48.084a.307.307,0,0,1,.307.307v4.252a.307.307,0,0,1-.307.307H36.69A.307.307,0,0,1,36.383,49.346Z" transform="translate(-36.383 -44.788)" fill="#fff"/>
            </g>
            <g id="Grupo_1115780" data-name="Grupo 1115780" transform="translate(2.944 3.105)">
              <path id="Trazado_908610" data-name="Trazado 908610" d="M48.084,44.789H45.417V46.34A1.019,1.019,0,0,1,44.4,47.359H36.383v1.988a.307.307,0,0,0,.307.307H48.084a.307.307,0,0,0,.307-.307V45.1a.307.307,0,0,0-.307-.307Z" transform="translate(-36.383 -44.789)" fill="#f3f0f3"/>
            </g>
          </g>
        </g>
      </g>
      <g id="Grupo_1115784" data-name="Grupo 1115784" transform="translate(0 6.826)">
        <path id="Trazado_908611" data-name="Trazado 908611" d="M48.646,35.237a13.308,13.308,0,0,0-7.971-4.166V13a1.786,1.786,0,0,0-1.784-1.784H33.844a.765.765,0,1,0,0,1.529h5.048a.255.255,0,0,1,.255.255V34.054c-.1,0-.2,0-.3,0a10.231,10.231,0,0,0-8.705,15.615H13.638a.255.255,0,0,1-.255-.255V30.3h22.3a.765.765,0,0,0,0-1.529H19.292A2.289,2.289,0,0,0,19.425,28V26.377H35.679a.765.765,0,0,0,0-1.529h-.886V19.6a1.276,1.276,0,0,0-1.274-1.274H31.64A1.276,1.276,0,0,0,30.365,19.6v5.247H28.479v-3.8A1.276,1.276,0,0,0,27.2,19.775H25.325a1.276,1.276,0,0,0-1.274,1.274v3.8H22.164v-6.8a1.276,1.276,0,0,0-1.274-1.274H19.425V12.74H30.276a.765.765,0,1,0,0-1.529H19.425V9.124a2.3,2.3,0,0,0-2.3-2.3H2.3A2.3,2.3,0,0,0,0,9.124V28a2.3,2.3,0,0,0,2.3,2.3h2.7a.765.765,0,1,0,0-1.529H2.3A.77.77,0,0,1,1.529,28V9.124A.77.77,0,0,1,2.3,8.355H17.127a.77.77,0,0,1,.769.769V28a.77.77,0,0,1-.769.769H8.563a.765.765,0,1,0,0,1.529h3.291V49.41a1.786,1.786,0,0,0,1.784,1.784h13.8a13.327,13.327,0,0,0,19.1,3.985.765.765,0,0,0-.884-1.248,11.793,11.793,0,0,1-16.385-2.737H31.3a10.234,10.234,0,1,0,9.371-16.981v-1.6A11.8,11.8,0,0,1,48.1,51.625a.765.765,0,1,0,1.2.952,13.317,13.317,0,0,0-.65-17.341ZM31.894,19.855h1.369v4.992H31.894ZM25.58,21.3h1.369v3.543H25.58Zm-6.155-3h1.21v6.545h-1.21ZM47.558,44.286a8.707,8.707,0,1,1-8.707-8.707A8.717,8.717,0,0,1,47.558,44.286Z" transform="translate(0 -6.826)"/>
        <path id="Trazado_908612" data-name="Trazado 908612" d="M178.94,260.584H165.964a.765.765,0,0,0,0,1.529H178.94a.765.765,0,0,0,0-1.529Z" transform="translate(-148.359 -234.716)"/>
        <path id="Trazado_908613" data-name="Trazado 908613" d="M176.749,299.836a.765.765,0,0,0-.765-.765H165.964a.765.765,0,0,0,0,1.529h10.021A.765.765,0,0,0,176.749,299.836Z" transform="translate(-148.359 -269.28)"/>
        <path id="Trazado_908614" data-name="Trazado 908614" d="M173.805,337.557h-7.842a.765.765,0,0,0,0,1.529h7.842a.765.765,0,1,0,0-1.529Z" transform="translate(-148.359 -303.843)"/>
        <path id="Trazado_908615" data-name="Trazado 908615" d="M173.805,376.042h-7.842a.765.765,0,1,0,0,1.529h7.842a.765.765,0,1,0,0-1.529Z" transform="translate(-148.359 -338.405)"/>
        <path id="Trazado_908616" data-name="Trazado 908616" d="M351.124,311.307v1.131c-.079.018-.158.038-.238.062a2.551,2.551,0,0,0-1.852,2.056,2.284,2.284,0,0,0,1.018,2.261.769.769,0,0,0,.106.058c.045.02,1.122.5,2.335.947.838.309,1.265.788,1.171,1.315a1.546,1.546,0,0,1-1.589,1.075,2.96,2.96,0,0,1-2.175-.915.765.765,0,0,0-1.133,1.027,4.414,4.414,0,0,0,2.356,1.317v1.137a.765.765,0,1,0,1.529,0v-1.086a2.985,2.985,0,0,0,2.517-2.286c.18-1.01-.289-2.333-2.147-3.018-1-.37-1.932-.773-2.178-.881a.759.759,0,0,1-.3-.733,1.028,1.028,0,0,1,.779-.809,2.844,2.844,0,0,1,2.367.541.764.764,0,0,0,.981-1.173,4.74,4.74,0,0,0-2.022-.923v-1.1a.765.765,0,0,0-1.529,0Z" transform="translate(-313.037 -279.582)"/>
        <path id="Trazado_908617" data-name="Trazado 908617" d="M42.42,42.611V38.359a1.073,1.073,0,0,0-1.071-1.071H29.954a1.073,1.073,0,0,0-1.071,1.071v4.252a1.072,1.072,0,0,0,1.071,1.071H41.348A1.073,1.073,0,0,0,42.42,42.611Zm-1.529-.458H30.412V38.817H40.89Z" transform="translate(-25.939 -34.183)"/>
        <path id="Trazado_908618" data-name="Trazado 908618" d="M34.307,116.243a.765.765,0,1,0-1.529,0v.518a.765.765,0,1,0,1.529,0Z" transform="translate(-29.437 -104.402)"/>
        <path id="Trazado_908619" data-name="Trazado 908619" d="M34.307,149.752a.765.765,0,1,0-1.529,0v.518a.765.765,0,0,0,1.529,0Z" transform="translate(-29.437 -134.495)"/>
        <path id="Trazado_908620" data-name="Trazado 908620" d="M33.543,182.5a.765.765,0,0,0-.765.765v.518a.765.765,0,0,0,1.529,0v-.518A.765.765,0,0,0,33.543,182.5Z" transform="translate(-29.437 -164.589)"/>
        <path id="Trazado_908621" data-name="Trazado 908621" d="M70.974,116.243a.765.765,0,1,0-1.529,0v.518a.765.765,0,1,0,1.529,0Z" transform="translate(-62.366 -104.402)"/>
        <path id="Trazado_908622" data-name="Trazado 908622" d="M70.21,148.987a.765.765,0,0,0-.765.765v.518a.765.765,0,0,0,1.529,0v-.518A.765.765,0,0,0,70.21,148.987Z" transform="translate(-62.366 -134.495)"/>
        <path id="Trazado_908623" data-name="Trazado 908623" d="M70.974,183.779v-.518a.765.765,0,0,0-1.529,0v.518a.765.765,0,0,0,1.529,0Z" transform="translate(-62.366 -164.589)"/>
        <path id="Trazado_908624" data-name="Trazado 908624" d="M107.64,116.243a.765.765,0,0,0-1.529,0v.518a.765.765,0,1,0,1.529,0Z" transform="translate(-95.294 -104.402)"/>
        <path id="Trazado_908625" data-name="Trazado 908625" d="M107.64,149.752a.765.765,0,1,0-1.529,0v.518a.765.765,0,0,0,1.529,0Z" transform="translate(-95.294 -134.495)"/>
        <path id="Trazado_908626" data-name="Trazado 908626" d="M106.876,182.5a.765.765,0,0,0-.765.765v.518a.765.765,0,0,0,1.529,0v-.518A.765.765,0,0,0,106.876,182.5Z" transform="translate(-95.294 -164.589)"/>
        <path id="Trazado_908627" data-name="Trazado 908627" d="M144.307,116.243a.765.765,0,1,0-1.529,0v.518a.765.765,0,1,0,1.529,0Z" transform="translate(-128.223 -104.402)"/>
        <path id="Trazado_908628" data-name="Trazado 908628" d="M143.543,148.987a.765.765,0,0,0-.765.765v3.934a.765.765,0,1,0,1.529,0v-3.934A.765.765,0,0,0,143.543,148.987Z" transform="translate(-128.223 -134.495)"/>
      </g>
    </g>
  </g>
</svg>
