<svg xmlns="http://www.w3.org/2000/svg" xmlns:xlink="http://www.w3.org/1999/xlink" width="102.949" height="102.949" viewBox="0 0 102.949 102.949">
  <defs>
    <filter id="Trazado_874925" x="0" y="0" width="102.949" height="102.949" filterUnits="userSpaceOnUse">
      <feOffset dy="3" input="SourceAlpha"/>
      <feGaussianBlur stdDeviation="3" result="blur"/>
      <feFlood flood-opacity="0.161"/>
      <feComposite operator="in" in2="blur"/>
      <feComposite in="SourceGraphic"/>
    </filter>
  </defs>
  <g id="Grupo_1115734" data-name="Grupo 1115734" transform="translate(-276.051 -5863)">
    <g transform="matrix(1, 0, 0, 1, 276.05, 5863)" filter="url(#Trazado_874925)">
      <g id="Trazado_874925-2" data-name="Trazado 874925" transform="translate(9 6)" fill="#fc0">
        <path d="M 42.47446823120117 83.44929504394531 C 36.94229125976562 83.44929504394531 31.57638549804688 82.36614227294922 26.52582168579102 80.22994232177734 C 21.64678573608398 78.16628265380859 17.26464462280273 75.211669921875 13.50113868713379 71.44816589355469 C 9.737632751464844 67.68466949462891 6.78300952911377 63.30253982543945 4.719362258911133 58.42351913452148 C 2.583150625228882 53.37295150756836 1.499997615814209 48.00706100463867 1.499997615814209 42.47489547729492 C 1.499997615814209 36.94223403930664 2.583150625228882 31.57634162902832 4.719362258911133 26.52577781677246 C 6.78300952911377 21.64675331115723 9.737632751464844 17.26462364196777 13.50113868713379 13.50113010406494 C 17.26464462280273 9.737624168395996 21.64678573608398 6.783012390136719 26.52582168579102 4.719353199005127 C 31.57638549804688 2.583153486251831 36.94229125976562 1.500000476837158 42.47446823120117 1.500000476837158 C 48.00664520263672 1.500000476837158 53.37255096435547 2.583153486251831 58.42311477661133 4.719353199005127 C 63.30215072631836 6.783012390136719 67.68428802490234 9.737624168395996 71.44779968261719 13.50113010406494 C 75.2113037109375 17.26462364196777 78.16592407226562 21.64675331115723 80.22957611083984 26.52577781677246 C 82.36578369140625 31.57634162902832 83.44893646240234 36.94223403930664 83.44893646240234 42.47439956665039 C 83.44893646240234 48.00706100463867 82.36578369140625 53.37295150756836 80.22957611083984 58.42351913452148 C 78.16592407226562 63.30253982543945 75.2113037109375 67.68466949462891 71.44779968261719 71.44816589355469 C 67.68428802490234 75.211669921875 63.30215072631836 78.16628265380859 58.42311477661133 80.22994232177734 C 53.37255096435547 82.36614227294922 48.00664520263672 83.44929504394531 42.47446823120117 83.44929504394531 Z" stroke="none"/>
        <path d="M 42.47446823120117 2.999992370605469 C 37.14412307739258 2.999992370605469 31.97481536865234 4.04327392578125 27.11014938354492 6.100860595703125 C 22.40990829467773 8.088890075683594 18.18804168701172 10.93555450439453 14.56179809570312 14.56178283691406 C 10.93557739257812 18.18801116943359 8.088897705078125 22.40987396240234 6.100868225097656 27.11009979248047 C 4.043281555175781 31.97476577758789 3 37.14406204223633 3 42.47488784790039 C 3 47.80522155761719 4.043281555175781 52.97451400756836 6.100868225097656 57.83917999267578 C 8.088897705078125 62.53940582275391 10.93557739257812 66.76127624511719 14.56179809570312 70.38749694824219 C 18.18804168701172 74.01372528076172 22.40990829467773 76.86039733886719 27.11014938354492 78.84841918945312 C 31.97481536865234 80.906005859375 37.14412307739258 81.94928741455078 42.47446823120117 81.94928741455078 C 47.80481338500977 81.94928741455078 52.97412109375 80.906005859375 57.83879089355469 78.84841918945312 C 62.53902816772461 76.86039733886719 66.76089477539062 74.01372528076172 70.38713073730469 70.38749694824219 C 74.01335906982422 66.76127624511719 76.86003875732422 62.53940582275391 78.84806823730469 57.83917999267578 C 80.90565490722656 52.97451400756836 81.94893646240234 47.80522155761719 81.94893646240234 42.47439575195312 C 81.94893646240234 37.14406204223633 80.90565490722656 31.97476577758789 78.84806823730469 27.11009979248047 C 76.86003875732422 22.40987396240234 74.01335906982422 18.18801116943359 70.38713073730469 14.56178283691406 C 66.76089477539062 10.93555450439453 62.53902816772461 8.088890075683594 57.83879089355469 6.100860595703125 C 52.97412109375 4.04327392578125 47.80481338500977 2.999992370605469 42.47446823120117 2.999992370605469 M 42.47446823120117 -7.62939453125e-06 C 65.93246459960938 -7.62939453125e-06 84.94893646240234 19.01643371582031 84.94893646240234 42.47439575195312 L 84.94893646240234 42.47488784790039 C 84.94893646240234 65.93284606933594 65.93246459960938 84.94928741455078 42.47446823120117 84.94928741455078 C 19.01647186279297 84.94928741455078 0 65.93284606933594 0 42.47488784790039 L 0 42.47439575195312 C 0 19.01643371582031 19.01647186279297 -7.62939453125e-06 42.47446823120117 -7.62939453125e-06 Z" stroke="none" fill="#fff"/>
      </g>
    </g>
    <g id="Trazado_874923" data-name="Trazado 874923" transform="translate(285.051 5869)" fill="none">
      <path d="M42.474,0A42.474,42.474,0,0,1,84.949,42.474h0A42.474,42.474,0,0,1,0,42.475H0A42.474,42.474,0,0,1,42.474,0Z" stroke="none"/>
      <path d="M 42.47446823120117 2.999992370605469 C 37.14412307739258 2.999992370605469 31.97481536865234 4.04327392578125 27.11014938354492 6.100860595703125 C 22.40990829467773 8.088890075683594 18.18804168701172 10.93555450439453 14.56179809570312 14.56178283691406 C 10.93557739257812 18.18801116943359 8.088897705078125 22.40987396240234 6.100868225097656 27.11009979248047 C 4.043281555175781 31.97476577758789 3 37.14406204223633 3 42.47488784790039 C 3 47.80522155761719 4.043281555175781 52.97451400756836 6.100868225097656 57.83917999267578 C 8.088897705078125 62.53940582275391 10.93557739257812 66.76127624511719 14.56179809570312 70.38749694824219 C 18.18804168701172 74.01372528076172 22.40990829467773 76.86039733886719 27.11014938354492 78.84841918945312 C 31.97481536865234 80.906005859375 37.14412307739258 81.94928741455078 42.47446823120117 81.94928741455078 C 47.80481338500977 81.94928741455078 52.97412109375 80.906005859375 57.83879089355469 78.84841918945312 C 62.53902816772461 76.86039733886719 66.76089477539062 74.01372528076172 70.38713073730469 70.38749694824219 C 74.01335906982422 66.76127624511719 76.86003875732422 62.53940582275391 78.84806823730469 57.83917999267578 C 80.90565490722656 52.97451400756836 81.94893646240234 47.80522155761719 81.94893646240234 42.47439575195312 C 81.94893646240234 37.14406204223633 80.90565490722656 31.97476577758789 78.84806823730469 27.11009979248047 C 76.86003875732422 22.40987396240234 74.01335906982422 18.18801116943359 70.38713073730469 14.56178283691406 C 66.76089477539062 10.93555450439453 62.53902816772461 8.088890075683594 57.83879089355469 6.100860595703125 C 52.97412109375 4.04327392578125 47.80481338500977 2.999992370605469 42.47446823120117 2.999992370605469 M 42.47446823120117 -7.62939453125e-06 C 65.93246459960938 -7.62939453125e-06 84.94893646240234 19.01643371582031 84.94893646240234 42.47439575195312 L 84.94893646240234 42.47488784790039 C 84.94893646240234 65.93284606933594 65.93246459960938 84.94928741455078 42.47446823120117 84.94928741455078 C 19.01647186279297 84.94928741455078 0 65.93284606933594 0 42.47488784790039 L 0 42.47439575195312 C 0 19.01643371582031 19.01647186279297 -7.62939453125e-06 42.47446823120117 -7.62939453125e-06 Z" stroke="none" fill="#fff"/>
    </g>
    <g id="Grupo_1115735" data-name="Grupo 1115735" transform="translate(291.461 5885)">
      <g id="Grupo_1115597" data-name="Grupo 1115597" transform="translate(11.38 1.504)">
        <g id="Grupo_1115588" data-name="Grupo 1115588" transform="translate(0 4.384)">
          <g id="Grupo_1115587" data-name="Grupo 1115587">
            <path id="Trazado_908254" data-name="Trazado 908254" d="M63.463,94.1a2.586,2.586,0,0,1-2.578,2.578H20.667A2.586,2.586,0,0,1,18.089,94.1V58.423a2.586,2.586,0,0,1,2.578-2.578H60.885a2.586,2.586,0,0,1,2.578,2.578Z" transform="translate(-18.089 -55.845)" fill="#f0eef0"/>
          </g>
        </g>
        <path id="Trazado_908255" data-name="Trazado 908255" d="M388.178,55.845H383.96a2.586,2.586,0,0,1,2.578,2.578V94.1a2.586,2.586,0,0,1-2.578,2.578h4.218a2.586,2.586,0,0,0,2.578-2.578V58.423A2.586,2.586,0,0,0,388.178,55.845Z" transform="translate(-345.381 -51.461)" fill="#dfdde0"/>
        <g id="Grupo_1115590" data-name="Grupo 1115590" transform="translate(0 4.384)">
          <g id="Grupo_1115589" data-name="Grupo 1115589">
            <path id="Trazado_908256" data-name="Trazado 908256" d="M63.463,58.423a2.586,2.586,0,0,0-2.578-2.578H20.667a2.586,2.586,0,0,0-2.578,2.578v6.891H63.463Z" transform="translate(-18.089 -55.845)" fill="#ff8086"/>
          </g>
        </g>
        <path id="Trazado_908257" data-name="Trazado 908257" d="M388.178,55.845H383.96a2.586,2.586,0,0,1,2.578,2.578v6.891h4.218V58.423A2.586,2.586,0,0,0,388.178,55.845Z" transform="translate(-345.381 -51.461)" fill="#e5646e"/>
        <g id="Grupo_1115591" data-name="Grupo 1115591" transform="translate(8.905)">
          <path id="Trazado_908258" data-name="Trazado 908258" d="M103.309,14.264a.766.766,0,0,0-.765.765v6.858a.765.765,0,0,0,1.53,0V15.029A.766.766,0,0,0,103.309,14.264Z" transform="translate(-102.544 -14.264)" fill="#5d5360"/>
          <path id="Trazado_908259" data-name="Trazado 908259" d="M226.738,14.264a.766.766,0,0,0-.765.765v6.858a.765.765,0,0,0,1.53,0V15.029A.766.766,0,0,0,226.738,14.264Z" transform="translate(-212.958 -14.264)" fill="#5d5360"/>
          <path id="Trazado_908260" data-name="Trazado 908260" d="M350.168,14.264a.766.766,0,0,0-.765.765v6.858a.765.765,0,0,0,1.53,0V15.029A.766.766,0,0,0,350.168,14.264Z" transform="translate(-323.373 -14.264)" fill="#5d5360"/>
          <path id="Trazado_908261" data-name="Trazado 908261" d="M104.074,21.888a.765.765,0,0,1-1.53,0V15.03a.765.765,0,0,1,1.53,0Z" transform="translate(-102.544 -14.265)" fill="#5d5360"/>
        </g>
        <circle id="Elipse_11724" data-name="Elipse 11724" cx="2.475" cy="2.475" r="2.475" transform="translate(24.853 27.001)" fill="#9b959d"/>
        <g id="Grupo_1115596" data-name="Grupo 1115596" transform="translate(24.389 25.962)">
          <g id="Grupo_1115592" data-name="Grupo 1115592" transform="translate(0 0)">
            <ellipse id="Elipse_11725" data-name="Elipse 11725" cx="12.797" cy="12.795" rx="12.797" ry="12.795" transform="translate(0 0.087) rotate(-0.195)" fill="#ffe07d"/>
          </g>
          <path id="Trazado_908262" data-name="Trazado 908262" d="M353.212,260.914a12.881,12.881,0,0,0-2.066.174,12.8,12.8,0,0,1,0,25.242,12.8,12.8,0,1,0,2.066-25.415Z" transform="translate(-340.417 -260.869)" fill="#ffd064"/>
          <g id="Grupo_1115595" data-name="Grupo 1115595" transform="translate(11.072 2.99)">
            <g id="Grupo_1115593" data-name="Grupo 1115593" transform="translate(0.034 16.247)">
              <ellipse id="Elipse_11726" data-name="Elipse 11726" cx="1.725" cy="1.725" rx="1.725" ry="1.725" transform="translate(0 0.011) rotate(-0.189)" fill="#ff8086"/>
            </g>
            <g id="Grupo_1115594" data-name="Grupo 1115594">
              <path id="Trazado_908263" data-name="Trazado 908263" d="M357.927,301.16a1.767,1.767,0,0,1-1.766,1.767h0a1.767,1.767,0,0,1-1.767-1.767V290.606a1.767,1.767,0,0,1,1.767-1.767h0a1.767,1.767,0,0,1,1.766,1.767Z" transform="translate(-354.394 -288.839)" fill="#ff8086"/>
            </g>
          </g>
        </g>
        <circle id="Elipse_11727" data-name="Elipse 11727" cx="2.475" cy="2.475" r="2.475" transform="translate(5.053 17.823)" fill="#9b959d"/>
        <circle id="Elipse_11728" data-name="Elipse 11728" cx="2.475" cy="2.475" r="2.475" transform="translate(14.953 17.823)" fill="#9b959d"/>
        <circle id="Elipse_11729" data-name="Elipse 11729" cx="2.475" cy="2.475" r="2.475" transform="translate(24.853 17.823)" fill="#9b959d"/>
        <circle id="Elipse_11730" data-name="Elipse 11730" cx="2.475" cy="2.475" r="2.475" transform="translate(34.753 17.823)" fill="#9b959d"/>
        <circle id="Elipse_11731" data-name="Elipse 11731" cx="2.475" cy="2.475" r="2.475" transform="translate(5.053 27.001)" fill="#9b959d"/>
        <circle id="Elipse_11732" data-name="Elipse 11732" cx="2.475" cy="2.475" r="2.475" transform="translate(14.953 27.001)" fill="#9b959d"/>
        <circle id="Elipse_11733" data-name="Elipse 11733" cx="2.475" cy="2.475" r="2.475" transform="translate(5.053 36.179)" fill="#9b959d"/>
      </g>
      <g id="Grupo_1115598" data-name="Grupo 1115598" transform="translate(10.589 0)">
        <path id="Trazado_908264" data-name="Trazado 908264" d="M61.777,182.326a3.266,3.266,0,1,0-3.266-3.266A3.27,3.27,0,0,0,61.777,182.326Zm0-4.95a1.684,1.684,0,1,1-1.684,1.684A1.686,1.686,0,0,1,61.777,177.376Z" transform="translate(-53.458 -157.258)"/>
        <path id="Trazado_908265" data-name="Trazado 908265" d="M155.666,182.326a3.266,3.266,0,1,0-3.266-3.266A3.269,3.269,0,0,0,155.666,182.326Zm0-4.95a1.684,1.684,0,1,1-1.684,1.684A1.686,1.686,0,0,1,155.666,177.376Z" transform="translate(-137.447 -157.258)"/>
        <path id="Trazado_908266" data-name="Trazado 908266" d="M249.554,182.326a3.266,3.266,0,1,0-3.266-3.266A3.269,3.269,0,0,0,249.554,182.326Zm0-4.95a1.684,1.684,0,1,1-1.684,1.684A1.686,1.686,0,0,1,249.554,177.376Z" transform="translate(-221.435 -157.258)"/>
        <path id="Trazado_908267" data-name="Trazado 908267" d="M346.709,179.06a3.266,3.266,0,1,0-3.266,3.266A3.269,3.269,0,0,0,346.709,179.06Zm-4.95,0a1.684,1.684,0,1,1,1.684,1.684A1.686,1.686,0,0,1,341.759,179.06Z" transform="translate(-305.424 -157.258)"/>
        <path id="Trazado_908268" data-name="Trazado 908268" d="M61.777,269.369a3.266,3.266,0,1,0-3.266-3.266A3.27,3.27,0,0,0,61.777,269.369Zm0-4.95a1.684,1.684,0,1,1-1.684,1.684A1.686,1.686,0,0,1,61.777,264.419Z" transform="translate(-53.458 -235.123)"/>
        <path id="Trazado_908269" data-name="Trazado 908269" d="M155.666,269.369A3.266,3.266,0,1,0,152.4,266.1,3.27,3.27,0,0,0,155.666,269.369Zm0-4.95a1.684,1.684,0,1,1-1.684,1.684A1.686,1.686,0,0,1,155.666,264.419Z" transform="translate(-137.447 -235.123)"/>
        <path id="Trazado_908270" data-name="Trazado 908270" d="M61.777,356.411a3.266,3.266,0,1,0-3.266-3.266A3.27,3.27,0,0,0,61.777,356.411Zm0-4.95a1.684,1.684,0,1,1-1.684,1.684A1.686,1.686,0,0,1,61.777,351.461Z" transform="translate(-53.458 -312.987)"/>
        <path id="Trazado_908271" data-name="Trazado 908271" d="M150.66,354.621a.8.8,0,0,0,1.118,0L153.9,352.5l2.122,2.122a.791.791,0,0,0,1.118-1.118l-2.122-2.122,2.122-2.122a.791.791,0,0,0-1.118-1.118l-2.122,2.122-2.122-2.122a.791.791,0,0,0-1.118,1.118l2.122,2.122L150.66,353.5A.791.791,0,0,0,150.66,354.621Z" transform="translate(-135.682 -311.223)"/>
        <path id="Trazado_908272" data-name="Trazado 908272" d="M61.386,35.626a.791.791,0,0,0-1.487.539,11.969,11.969,0,0,1,.714,4.049A12.146,12.146,0,0,1,48.607,52.258,12,12,0,1,1,58.1,32.9a.791.791,0,0,0,1.25-.97,13.8,13.8,0,0,0-1.8-1.915V8.414a3.373,3.373,0,0,0-3.369-3.369h-4.75V2.269c0-3.021-4.694-3.03-4.694,0V5.045H36.412V2.269c0-3.021-4.694-3.03-4.694,0V5.045H23.4V2.269c0-3.021-4.694-3.03-4.694,0V5.045H13.958a3.373,3.373,0,0,0-3.369,3.369v28.22a.791.791,0,0,0,1.582,0V16.1H55.964V28.822a13.714,13.714,0,0,0-11.7-1.448,13.462,13.462,0,0,0-3.071,1.49,3.266,3.266,0,0,0-5.753,2.116A3.281,3.281,0,0,0,36.756,33.6a13.678,13.678,0,0,0-.515,12.286H13.958A1.789,1.789,0,0,1,12.171,44.1v-3.56a.791.791,0,0,0-1.582,0V44.1a3.373,3.373,0,0,0,3.369,3.369H37.1a13.588,13.588,0,0,0,24.29-11.838ZM46.315,2.269a.766.766,0,0,1,1.53,0V9.127a.766.766,0,0,1-1.53,0Zm-13.015,0a.766.766,0,0,1,1.53,0V9.127a.766.766,0,0,1-1.53,0Zm-13.015,0a.766.766,0,0,1,1.53,0V9.127a.766.766,0,0,1-1.53,0ZM12.171,14.515v-6.1a1.789,1.789,0,0,1,1.787-1.787H18.7v2.5c0,3.021,4.694,3.03,4.694,0v-2.5h8.321v2.5c0,3.026,4.694,3.026,4.694,0v-2.5h8.321v2.5c0,3.021,4.694,3.03,4.694,0v-2.5h4.75a1.789,1.789,0,0,1,1.787,1.787v6.1H12.171ZM37.023,30.98a1.684,1.684,0,0,1,2.895-1.171,13.816,13.816,0,0,0-2.3,2.453A1.692,1.692,0,0,1,37.023,30.98Z" transform="translate(-10.589 0)"/>
        <path id="Trazado_908273" data-name="Trazado 908273" d="M349.795,434.965A2.516,2.516,0,0,0,349.8,440h.009a2.516,2.516,0,1,0-.017-5.031Zm.943,2.512a.934.934,0,0,1-.931.937h0a.934.934,0,0,1,0-1.868h0a.934.934,0,0,1,.934.931Z" transform="translate(-311.784 -389.101)"/>
        <path id="Trazado_908274" data-name="Trazado 908274" d="M352.009,283.4a2.557,2.557,0,1,0-5.115,0v10.555a2.557,2.557,0,1,0,5.115,0Zm-1.582,10.555a.976.976,0,1,1-1.951,0V283.4a.976.976,0,1,1,1.951,0Z" transform="translate(-311.433 -251.229)"/>
      </g>
    </g>
  </g>
</svg>
