<svg xmlns="http://www.w3.org/2000/svg" xmlns:xlink="http://www.w3.org/1999/xlink" width="102.949" height="102.949" viewBox="0 0 102.949 102.949">
  <defs>
    <filter id="Trazado_874925" x="0" y="0" width="102.949" height="102.949" filterUnits="userSpaceOnUse">
      <feOffset dy="3" input="SourceAlpha"/>
      <feGaussianBlur stdDeviation="3" result="blur"/>
      <feFlood flood-opacity="0.161"/>
      <feComposite operator="in" in2="blur"/>
      <feComposite in="SourceGraphic"/>
    </filter>
  </defs>
  <g id="Grupo_1112486" data-name="Grupo 1112486" transform="translate(-799.5 -2511.157)">
    <g id="Grupo_1111316" data-name="Grupo 1111316" transform="translate(808.5 2517.157)">
      <g id="Grupo_1109835" data-name="Grupo 1109835" transform="translate(0 0)">
        <g id="Grupo_1107913" data-name="Grupo 1107913" transform="translate(0 0)">
          <g transform="matrix(1, 0, 0, 1, -9, -6)" filter="url(#Trazado_874925)">
            <g id="Trazado_874925-2" data-name="Trazado 874925" transform="translate(9 6)" fill="#fc0" opacity="0.859">
              <path d="M 42.47446823120117 83.44929504394531 C 36.94229125976562 83.44929504394531 31.57638549804688 82.36614227294922 26.52582168579102 80.22994232177734 C 21.64678573608398 78.16628265380859 17.26464462280273 75.211669921875 13.50113868713379 71.44816589355469 C 9.737632751464844 67.68466949462891 6.78300952911377 63.30253982543945 4.719362258911133 58.42351913452148 C 2.583150625228882 53.37295150756836 1.499997615814209 48.00706100463867 1.499997615814209 42.47489547729492 C 1.499997615814209 36.94223403930664 2.583150625228882 31.57634162902832 4.719362258911133 26.52577781677246 C 6.78300952911377 21.64675331115723 9.737632751464844 17.26462364196777 13.50113868713379 13.50113010406494 C 17.26464462280273 9.737624168395996 21.64678573608398 6.783012390136719 26.52582168579102 4.719353199005127 C 31.57638549804688 2.583153486251831 36.94229125976562 1.500000476837158 42.47446823120117 1.500000476837158 C 48.00664520263672 1.500000476837158 53.37255096435547 2.583153486251831 58.42311477661133 4.719353199005127 C 63.30215072631836 6.783012390136719 67.68428802490234 9.737624168395996 71.44779968261719 13.50113010406494 C 75.2113037109375 17.26462364196777 78.16592407226562 21.64675331115723 80.22957611083984 26.52577781677246 C 82.36578369140625 31.57634162902832 83.44893646240234 36.94223403930664 83.44893646240234 42.47439956665039 C 83.44893646240234 48.00706100463867 82.36578369140625 53.37295150756836 80.22957611083984 58.42351913452148 C 78.16592407226562 63.30253982543945 75.2113037109375 67.68466949462891 71.44779968261719 71.44816589355469 C 67.68428802490234 75.211669921875 63.30215072631836 78.16628265380859 58.42311477661133 80.22994232177734 C 53.37255096435547 82.36614227294922 48.00664520263672 83.44929504394531 42.47446823120117 83.44929504394531 Z" stroke="none"/>
              <path d="M 42.47446823120117 2.999992370605469 C 37.14412307739258 2.999992370605469 31.97481536865234 4.04327392578125 27.11014938354492 6.100860595703125 C 22.40990829467773 8.088890075683594 18.18804168701172 10.93555450439453 14.56179809570312 14.56178283691406 C 10.93557739257812 18.18801116943359 8.088897705078125 22.40987396240234 6.100868225097656 27.11009979248047 C 4.043281555175781 31.97476577758789 3 37.14406204223633 3 42.47488784790039 C 3 47.80522155761719 4.043281555175781 52.97451400756836 6.100868225097656 57.83917999267578 C 8.088897705078125 62.53940582275391 10.93557739257812 66.76127624511719 14.56179809570312 70.38749694824219 C 18.18804168701172 74.01372528076172 22.40990829467773 76.86039733886719 27.11014938354492 78.84841918945312 C 31.97481536865234 80.906005859375 37.14412307739258 81.94928741455078 42.47446823120117 81.94928741455078 C 47.80481338500977 81.94928741455078 52.97412109375 80.906005859375 57.83879089355469 78.84841918945312 C 62.53902816772461 76.86039733886719 66.76089477539062 74.01372528076172 70.38713073730469 70.38749694824219 C 74.01335906982422 66.76127624511719 76.86003875732422 62.53940582275391 78.84806823730469 57.83917999267578 C 80.90565490722656 52.97451400756836 81.94893646240234 47.80522155761719 81.94893646240234 42.47439575195312 C 81.94893646240234 37.14406204223633 80.90565490722656 31.97476577758789 78.84806823730469 27.11009979248047 C 76.86003875732422 22.40987396240234 74.01335906982422 18.18801116943359 70.38713073730469 14.56178283691406 C 66.76089477539062 10.93555450439453 62.53902816772461 8.088890075683594 57.83879089355469 6.100860595703125 C 52.97412109375 4.04327392578125 47.80481338500977 2.999992370605469 42.47446823120117 2.999992370605469 M 42.47446823120117 -7.62939453125e-06 C 65.93246459960938 -7.62939453125e-06 84.94893646240234 19.01643371582031 84.94893646240234 42.47439575195312 L 84.94893646240234 42.47488784790039 C 84.94893646240234 65.93284606933594 65.93246459960938 84.94928741455078 42.47446823120117 84.94928741455078 C 19.01647186279297 84.94928741455078 0 65.93284606933594 0 42.47488784790039 L 0 42.47439575195312 C 0 19.01643371582031 19.01647186279297 -7.62939453125e-06 42.47446823120117 -7.62939453125e-06 Z" stroke="none" fill="#fff"/>
            </g>
          </g>
          <g id="Trazado_874923" data-name="Trazado 874923" transform="translate(0 0)" fill="none">
            <path d="M42.474,0A42.474,42.474,0,0,1,84.949,42.474h0A42.474,42.474,0,0,1,0,42.475H0A42.474,42.474,0,0,1,42.474,0Z" stroke="none"/>
            <path d="M 42.47446823120117 2.999992370605469 C 37.14412307739258 2.999992370605469 31.97481536865234 4.04327392578125 27.11014938354492 6.100860595703125 C 22.40990829467773 8.088890075683594 18.18804168701172 10.93555450439453 14.56179809570312 14.56178283691406 C 10.93557739257812 18.18801116943359 8.088897705078125 22.40987396240234 6.100868225097656 27.11009979248047 C 4.043281555175781 31.97476577758789 3 37.14406204223633 3 42.47488784790039 C 3 47.80522155761719 4.043281555175781 52.97451400756836 6.100868225097656 57.83917999267578 C 8.088897705078125 62.53940582275391 10.93557739257812 66.76127624511719 14.56179809570312 70.38749694824219 C 18.18804168701172 74.01372528076172 22.40990829467773 76.86039733886719 27.11014938354492 78.84841918945312 C 31.97481536865234 80.906005859375 37.14412307739258 81.94928741455078 42.47446823120117 81.94928741455078 C 47.80481338500977 81.94928741455078 52.97412109375 80.906005859375 57.83879089355469 78.84841918945312 C 62.53902816772461 76.86039733886719 66.76089477539062 74.01372528076172 70.38713073730469 70.38749694824219 C 74.01335906982422 66.76127624511719 76.86003875732422 62.53940582275391 78.84806823730469 57.83917999267578 C 80.90565490722656 52.97451400756836 81.94893646240234 47.80522155761719 81.94893646240234 42.47439575195312 C 81.94893646240234 37.14406204223633 80.90565490722656 31.97476577758789 78.84806823730469 27.11009979248047 C 76.86003875732422 22.40987396240234 74.01335906982422 18.18801116943359 70.38713073730469 14.56178283691406 C 66.76089477539062 10.93555450439453 62.53902816772461 8.088890075683594 57.83879089355469 6.100860595703125 C 52.97412109375 4.04327392578125 47.80481338500977 2.999992370605469 42.47446823120117 2.999992370605469 M 42.47446823120117 -7.62939453125e-06 C 65.93246459960938 -7.62939453125e-06 84.94893646240234 19.01643371582031 84.94893646240234 42.47439575195312 L 84.94893646240234 42.47488784790039 C 84.94893646240234 65.93284606933594 65.93246459960938 84.94928741455078 42.47446823120117 84.94928741455078 C 19.01647186279297 84.94928741455078 0 65.93284606933594 0 42.47488784790039 L 0 42.47439575195312 C 0 19.01643371582031 19.01647186279297 -7.62939453125e-06 42.47446823120117 -7.62939453125e-06 Z" stroke="none" fill="#fff"/>
          </g>
        </g>
      </g>
    </g>
    <g id="Grupo_1114172" data-name="Grupo 1114172" transform="translate(826.615 2528.303)">
      <g id="Grupo_1114179" data-name="Grupo 1114179" transform="translate(0 8.39)">
        <path id="Trazado_907035" data-name="Trazado 907035" d="M160.758,241.291a30.311,30.311,0,0,0-7.944,1.058v23.986l32.815-.008v-4.238C185.629,250.6,174.493,241.291,160.758,241.291Z" transform="translate(-138.253 -219.745)" fill="#80d261"/>
        <g id="Grupo_1114172-2" data-name="Grupo 1114172" transform="translate(20.86 18.948)">
          <path id="Trazado_907036" data-name="Trazado 907036" d="M235.071,217.67v7.374a.126.126,0,0,1-.126.126h-15.9a.126.126,0,0,1-.126-.126V214.155a.126.126,0,0,1,.151-.124l15.629,3.185A.463.463,0,0,1,235.071,217.67Z" transform="translate(-218.921 -214.029)" fill="#e9b665"/>
        </g>
        <g id="XMLID_1272_" transform="translate(20.86 18.92)">
          <g id="Grupo_1114173" data-name="Grupo 1114173">
            <path id="Trazado_907037" data-name="Trazado 907037" d="M345.907,217.376V224.9H341.43v-7.878l1.972-2.9.266-.39,2.041,3A1.143,1.143,0,0,1,345.907,217.376Z" transform="translate(-329.756 -213.733)" fill="#c86d36"/>
            <path id="Trazado_907038" data-name="Trazado 907038" d="M232.833,213.733l-.266.39-1.972,2.9H218.921v-3.291h13.912Z" transform="translate(-218.921 -213.733)" fill="#ac5e2e"/>
          </g>
        </g>
        <path id="Trazado_907039" data-name="Trazado 907039" d="M149.141,159.007a.375.375,0,0,0-.065-.21l-2.627-3.864-13.739,3.959V171.2h16.431V159.007Z" transform="translate(-120.064 -141.616)" fill="#fccd7f"/>
        <path id="Trazado_907040" data-name="Trazado 907040" d="M135.706,198.938V187.421l-3,.863v12.308h16.431v-1.655Z" transform="translate(-120.064 -171.008)" fill="#fbc56d"/>
        <g id="Grupo_1114178" data-name="Grupo 1114178" transform="translate(0 13.317)">
          <g id="Grupo_1114177" data-name="Grupo 1114177" transform="translate(0 0)">
            <g id="XMLID_1268_" transform="translate(12.646)">
              <g id="Grupo_1114174" data-name="Grupo 1114174">
                <path id="Trazado_907041" data-name="Trazado 907041" d="M146.45,154.933l2.295,3.375a.374.374,0,0,1-.309.584H132.711l2.549-3.75a.479.479,0,0,1,.4-.209H146.45Z" transform="translate(-132.711 -154.933)" fill="#d77f4a"/>
              </g>
            </g>
            <g id="Grupo_1114176" data-name="Grupo 1114176" transform="translate(23.693)">
              <g id="XMLID_1270_">
                <g id="Grupo_1114175" data-name="Grupo 1114175">
                  <path id="Trazado_907042" data-name="Trazado 907042" d="M254.034,159.007v7.917h-5.383v-8.032l2.373-3.49.318-.469,2.627,3.864A.374.374,0,0,1,254.034,159.007Z" transform="translate(-248.651 -154.933)" fill="#c86d36"/>
                </g>
              </g>
            </g>
            <path id="Trazado_907043" data-name="Trazado 907043" d="M43.668,282.1c0-11.486-11.135-20.8-24.871-20.8A28.068,28.068,0,0,0,.43,267.82L0,268.109v16.334H2.424l.03-.724H43.668Z" transform="translate(-0.001 -251.167)" fill="#97da7b"/>
            <path id="Trazado_907044" data-name="Trazado 907044" d="M127.929,269.745c-4.725-2.764-3.477-6.8-2.843-8.219l.087-.144c-.714-.052-1.436-.079-2.166-.079a6.16,6.16,0,0,0,0,9.108c2.506,2.669-.354,6.366-3.487,9.187l-4.333,4.121h9.044c2.559-3.2,8.323-11.27,3.7-13.974Z" transform="translate(-104.211 -251.167)" fill="#fece85"/>
            <path id="Trazado_907045" data-name="Trazado 907045" d="M125.091,270.411c-4.268-4.545-.639-8.475-.072-9.038-.663-.045-1.334-.07-2.011-.07a6.16,6.16,0,0,0,0,9.108c2.506,2.669-.354,6.366-3.487,9.187l-4.333,4.121h2.083L121.6,279.6C124.737,276.777,127.6,273.08,125.091,270.411Z" transform="translate(-104.212 -251.167)" fill="#fbc56d"/>
          </g>
          <path id="Trazado_907046" data-name="Trazado 907046" d="M28.888,352.911A2.191,2.191,0,0,0,26.7,355l-.388,8.057a.331.331,0,0,0,.331.347h4.534a.291.291,0,0,0,.291-.305l-.391-8.1a2.191,2.191,0,0,0-2.188-2.085Z" transform="translate(-23.804 -334.046)" fill="#57be92"/>
          <path id="Trazado_907047" data-name="Trazado 907047" d="M28.612,363.053,29,355a2.188,2.188,0,0,1,1.037-1.757A2.189,2.189,0,0,0,26.7,355l-.388,8.057a.331.331,0,0,0,.331.347h2.3a.331.331,0,0,1-.331-.347Z" transform="translate(-23.803 -334.045)" fill="#22b27f"/>
          <path id="Trazado_907048" data-name="Trazado 907048" d="M300.45,353.911A2.191,2.191,0,0,0,298.261,356l-.387,8.015a.372.372,0,0,0,.372.39h4.441a.339.339,0,0,0,.339-.355L302.638,356A2.191,2.191,0,0,0,300.45,353.911Z" transform="translate(-269.491 -334.951)" fill="#57be92"/>
          <path id="Trazado_907049" data-name="Trazado 907049" d="M300.1,364.012l.386-8.015a2.188,2.188,0,0,1,1.075-1.779,2.188,2.188,0,0,0-3.3,1.779l-.386,8.015a.372.372,0,0,0,.372.39h2.227A.372.372,0,0,1,300.1,364.012Z" transform="translate(-269.492 -334.952)" fill="#22b27f"/>
          <path id="Trazado_907050" data-name="Trazado 907050" d="M82.973,367.272a1.9,1.9,0,0,0-1.891,1.813l-.333,6.96a.332.332,0,0,0,.332.348h3.776a.341.341,0,0,0,.34-.357l-.333-6.951A1.9,1.9,0,0,0,82.973,367.272Z" transform="translate(-73.055 -347.039)" fill="#57be92"/>
          <path id="Trazado_907051" data-name="Trazado 907051" d="M83.05,376.045l.333-6.96a1.9,1.9,0,0,1,.74-1.419,1.877,1.877,0,0,0-1.151-.394,1.9,1.9,0,0,0-1.891,1.813l-.333,6.96a.332.332,0,0,0,.332.348h2.3A.332.332,0,0,1,83.05,376.045Z" transform="translate(-73.054 -347.039)" fill="#22b27f"/>
          <path id="Trazado_907052" data-name="Trazado 907052" d="M354.176,379.836a1.814,1.814,0,0,0-1.812,1.727l-.318,5.967a.309.309,0,0,0,.309.326h3.605a.345.345,0,0,0,.344-.363l-.316-5.93A1.814,1.814,0,0,0,354.176,379.836Z" transform="translate(-318.5 -358.405)" fill="#57be92"/>
          <path id="Trazado_907053" data-name="Trazado 907053" d="M354.272,387.529l.318-5.967a1.811,1.811,0,0,1,.7-1.345,1.813,1.813,0,0,0-2.925,1.344l-.318,5.967a.309.309,0,0,0,.309.326h2.227A.309.309,0,0,1,354.272,387.529Z" transform="translate(-318.5 -358.405)" fill="#22b27f"/>
        </g>
        <path id="Trazado_907054" data-name="Trazado 907054" d="M85.825,18.772h6.029a1.8,1.8,0,1,0,0-3.6H85.825a1.8,1.8,0,1,0,0,3.6Z" transform="translate(-76.019 -15.174)" fill="#dff6fd"/>
        <path id="Trazado_907055" data-name="Trazado 907055" d="M260.789,42.341H269.5a1.8,1.8,0,0,1,1.311,3.029.134.134,0,0,0,.1.225h3.061a1.827,1.827,0,0,1,1.841,1.733,1.8,1.8,0,0,1-1.8,1.865h-8.66a1.838,1.838,0,0,1-1.846-1.833,1.788,1.788,0,0,1,.487-1.195.134.134,0,0,0-.1-.225h-3.1a1.8,1.8,0,1,1,0-3.6Z" transform="translate(-234.311 -39.752)" fill="#dff6fd"/>
        <path id="Trazado_907056" data-name="Trazado 907056" d="M269.011,47.44a1.837,1.837,0,0,1-1.846-1.833,1.788,1.788,0,0,1,.487-1.195.134.134,0,0,0-.1-.225h-3.1a1.8,1.8,0,0,1-1.8-1.8c0-.016,0-.031,0-.047h-1.861a1.8,1.8,0,1,0,0,3.6h3.1a.134.134,0,0,1,.1.225,1.789,1.789,0,0,0-.487,1.195,1.838,1.838,0,0,0,1.846,1.833h8.66a1.8,1.8,0,0,0,1.8-1.752Z" transform="translate(-234.313 -39.751)" fill="#c8effe"/>
      </g>
      <g id="Grupo_1114180" data-name="Grupo 1114180" transform="translate(0 7.675)">
        <path id="Trazado_907057" data-name="Trazado 907057" d="M48.091,179.983V177.04A18.875,18.875,0,0,0,45.2,167.1a23.225,23.225,0,0,0-7.48-7.356v-2.706a.715.715,0,0,0-.124-.4l-2.238-3.292a.715.715,0,0,0-.591-.313H29.791V152.1a.714.714,0,0,0-.124-.4l-2.692-3.959a.715.715,0,0,0-.591-.313H15.337a.715.715,0,0,0-.591.313L12.054,151.7a.714.714,0,0,0-.124.4v6.245a28.805,28.805,0,0,0-3.393,1.015,25.979,25.979,0,0,0-8.3,4.9.715.715,0,0,0,.947,1.07,24.56,24.56,0,0,1,7.843-4.628,27.409,27.409,0,0,1,3.754-1.083l.009,0a28.5,28.5,0,0,1,4.457-.583,7,7,0,0,0-1.216,3.567,7.231,7.231,0,0,0,2.239,5.273,2.59,2.59,0,0,1,.761,1.96c-.069,1.648-1.523,3.794-4.2,6.207a.715.715,0,0,0,.956,1.062c3.016-2.714,4.589-5.14,4.676-7.209a4.005,4.005,0,0,0-1.147-3,5.873,5.873,0,0,1-1.853-4.224A6.053,6.053,0,0,1,19.092,159q.413,0,.823.019c-.613,1.9-1.079,5.676,3.443,8.321a2.6,2.6,0,0,1,1.327,1.853c.253,1.365-.3,3.348-1.6,5.735a37.658,37.658,0,0,1-3.406,5.055H10.633v-1.767H12.16a.715.715,0,0,0,.714-.749l-.146-3.038a.715.715,0,1,0-1.428.068l.11,2.289h-.777v-1.973a.715.715,0,1,0-1.429,0v1.973H8.428l.314-6.559a1.178,1.178,0,0,1,2.354,0l.059,1.225a.715.715,0,0,0,1.428-.068l-.059-1.225a2.605,2.605,0,0,0-4.6-1.564,2.905,2.905,0,0,0-5.743.467l-.405,8.4a.715.715,0,0,0,.714.749H4.37v1.767H.715a.715.715,0,0,0,0,1.429h47.34a.714.714,0,0,0,.035-1.427Zm-4.1-12.128a17.21,17.21,0,0,1,2.671,9.186v2.941h-2.28v-.9A19.6,19.6,0,0,0,37.725,164.6V161.45a21.559,21.559,0,0,1,6.265,6.4Zm-7.694-10.6v6.124a25.5,25.5,0,0,0-3.047-2.063v-4.061l1.523-2.241Zm-6.5.495H31.82v2.8q-.991-.494-2.029-.909Zm3.631-3.292-1.266,1.862H29.791v-1.862Zm-5.061-2.139v6.791a28.934,28.934,0,0,0-3.954-1.032v-5.759l1.977-2.908Zm-15,.495h2.751a.715.715,0,0,0,0-1.429H14l1.72-2.53h9.319l-1.72,2.53H19.157a.715.715,0,1,0,0,1.429h3.822v5.034a30.726,30.726,0,0,0-4.183-.286,30.37,30.37,0,0,0-5.435.486Zm12.73,16.113a4.006,4.006,0,0,0-2.01-2.826A5.626,5.626,0,0,1,21,162.015a6.041,6.041,0,0,1,.4-2.9c12.1,1.082,21.556,9.624,21.556,19.967v.9H36.391V178.31h1.433a.715.715,0,0,0,.714-.753l-.335-6.289a2.529,2.529,0,0,0-4.319-1.662l-.022-.45a2.906,2.906,0,0,0-5.8,0l-.405,8.4a.715.715,0,0,0,.714.749h1.879v1.672H21.479c2.314-3.078,5.225-7.739,4.611-11.05Zm4.869,4.906a.715.715,0,0,0-.715.715v2.329H29.115l.369-7.655a1.476,1.476,0,0,1,2.949,0l.369,7.655H31.674v-2.329A.715.715,0,0,0,30.959,173.837Zm2.57,4.473h1.433v1.672H31.674V178.31Zm2.148-3.95a.715.715,0,0,0-.715.715v1.806h-.679l.3-5.544a1.1,1.1,0,0,1,2.2,0l.3,5.54h-.679v-1.806A.715.715,0,0,0,35.676,174.36ZM3.241,176.785l.369-7.655a1.476,1.476,0,0,1,2.949,0l.369,7.655H5.8v-2.329a.715.715,0,1,0-1.429,0v2.329ZM5.8,178.214H9.2v1.767H5.8Z" transform="translate(0 -134.113)"/>
        <path id="Trazado_907058" data-name="Trazado 907058" d="M79.041,12.7H85.07a2.514,2.514,0,1,0,0-5.027H79.041a2.514,2.514,0,0,0,0,5.027Zm0-3.6H85.07a1.084,1.084,0,1,1,0,2.169H79.041a1.084,1.084,0,0,1,0-2.169Z" transform="translate(-69.235 -7.675)"/>
        <path id="Trazado_907059" data-name="Trazado 907059" d="M254,39.869h2.113a2.51,2.51,0,0,0,2.4,3.253h2.255a.715.715,0,1,0,0-1.429h-2.255a1.086,1.086,0,0,1-1.084-1.084,1.074,1.074,0,0,1,.449-.876.715.715,0,0,0-.42-1.293H254a1.084,1.084,0,1,1,0-2.169h8.708a1.086,1.086,0,0,1,1.084,1.084,1.074,1.074,0,0,1-.449.876.715.715,0,0,0,.42,1.293h3.458a1.084,1.084,0,1,1,0,2.169h-3.407a.715.715,0,1,0,0,1.429h3.407a2.514,2.514,0,1,0,0-5.027h-2.113a2.51,2.51,0,0,0-2.4-3.253H254a2.514,2.514,0,1,0,0,5.027Z" transform="translate(-227.527 -32.253)"/>
      </g>
    </g>
  </g>
</svg>
