<svg xmlns="http://www.w3.org/2000/svg" xmlns:xlink="http://www.w3.org/1999/xlink" width="118" height="118" viewBox="0 0 118 118">
  <defs>
    <filter id="Trazado_874925" x="0" y="0" width="118" height="118" filterUnits="userSpaceOnUse">
      <feOffset dy="3" input="SourceAlpha"/>
      <feGaussianBlur stdDeviation="3" result="blur"/>
      <feFlood flood-opacity="0.161"/>
      <feComposite operator="in" in2="blur"/>
      <feComposite in="SourceGraphic"/>
    </filter>
  </defs>
  <g id="Grupo_1116217" data-name="Grupo 1116217" transform="translate(-3850 4378.834)">
    <g id="Grupo_1112558" data-name="Grupo 1112558" transform="translate(3056.219 -6312.833)">
      <g id="Grupo_1111552" data-name="Grupo 1111552" transform="translate(-5.719 -577.158)">
        <g id="Grupo_1111316" data-name="Grupo 1111316" transform="translate(808.5 2517.157)">
          <g id="Grupo_1109835" data-name="Grupo 1109835" transform="translate(0 0)">
            <g id="Grupo_1107913" data-name="Grupo 1107913" transform="translate(0 0)">
              <g transform="matrix(1, 0, 0, 1, -9, -6)" filter="url(#Trazado_874925)">
                <g id="Trazado_874925-2" data-name="Trazado 874925" transform="translate(9 6)" fill="#9cc8ff" opacity="0.859">
                  <path d="M 49.99972534179688 98.4998779296875 C 43.45164108276367 98.4998779296875 37.10022354125977 97.21776580810547 31.12189674377441 94.68914794921875 C 25.34676742553711 92.24647521972656 20.15985298156738 88.74925994873047 15.70523929595947 84.29464721679688 C 11.25062561035156 79.84004974365234 7.753411293029785 74.65313720703125 5.310725212097168 68.87800598144531 C 2.782111167907715 62.89969253540039 1.499996781349182 56.54829406738281 1.499996781349182 50.00022125244141 C 1.499996781349182 43.45157623291016 2.782111167907715 37.10017776489258 5.310725212097168 31.12186431884766 C 7.753411293029785 25.34673500061035 11.25062561035156 20.15983581542969 15.70523929595947 15.70522117614746 C 20.15985298156738 11.25062084197998 25.34676742553711 7.753406524658203 31.12189674377441 5.31073522567749 C 37.10022354125977 2.782120943069458 43.45164108276367 1.500006556510925 49.99972534179688 1.500006556510925 C 56.54780960083008 1.500006556510925 62.89922714233398 2.782120943069458 68.87755584716797 5.31073522567749 C 74.65267944335938 7.753406524658203 79.839599609375 11.25062084197998 84.29421234130859 15.70522117614746 C 88.74882507324219 20.15983581542969 92.24604034423828 25.34673500061035 94.68872833251953 31.12186431884766 C 97.21733856201172 37.10017776489258 98.49945068359375 43.45157623291016 98.49945068359375 49.99964904785156 C 98.49945068359375 56.54829406738281 97.21733856201172 62.89969253540039 94.68872833251953 68.87800598144531 C 92.24604034423828 74.65313720703125 88.74882507324219 79.84004974365234 84.29421234130859 84.29464721679688 C 79.839599609375 88.74925994873047 74.65267944335938 92.24647521972656 68.87755584716797 94.68914794921875 C 62.89922714233398 97.21776580810547 56.54780960083008 98.4998779296875 49.99972534179688 98.4998779296875 Z" stroke="none"/>
                  <path d="M 49.99972534179688 3 C 43.65348052978516 3 37.49866485595703 4.242240905761719 31.70623016357422 6.692230224609375 C 26.10989379882812 9.059272766113281 21.08323669433594 12.44853210449219 16.76589202880859 16.76587677001953 C 12.44855499267578 21.08321380615234 9.059295654296875 26.10985565185547 6.692230224609375 31.70618438720703 C 4.24224853515625 37.49859619140625 3 43.65341186523438 3 50.00022888183594 C 3 56.34645843505859 4.24224853515625 62.50127410888672 6.692230224609375 68.29368591308594 C 9.059295654296875 73.8900146484375 12.44855499267578 78.91665649414062 16.76589202880859 83.23399353027344 C 21.08323669433594 87.55132293701172 26.10989379882812 90.94059753417969 31.70623016357422 93.30764007568359 C 37.49866485595703 95.75762939453125 43.65348052978516 96.99987030029297 49.99972534179688 96.99987030029297 C 56.34597015380859 96.99987030029297 62.50078582763672 95.75762939453125 68.293212890625 93.30764007568359 C 73.88955688476562 90.94059753417969 78.91621398925781 87.55132293701172 83.23355865478516 83.23399353027344 C 87.55089569091797 78.91665649414062 90.94015502929688 73.8900146484375 93.30722045898438 68.29368591308594 C 95.7572021484375 62.50127410888672 96.99945068359375 56.34645843505859 96.99945068359375 49.99964141845703 C 96.99945068359375 43.65341186523438 95.7572021484375 37.49859619140625 93.30722045898438 31.70618438720703 C 90.94015502929688 26.10985565185547 87.55089569091797 21.08321380615234 83.23355865478516 16.76587677001953 C 78.91621398925781 12.44853210449219 73.88955688476562 9.059272766113281 68.293212890625 6.692230224609375 C 62.50078582763672 4.242240905761719 56.34597015380859 3 49.99972534179688 3 M 49.99972534179688 0 C 77.61381530761719 0 99.99945068359375 22.38559722900391 99.99945068359375 49.99964141845703 L 99.99945068359375 50.00022888183594 C 99.99945068359375 77.6142578125 77.61381530761719 99.99987030029297 49.99972534179688 99.99987030029297 C 22.38563537597656 99.99987030029297 0 77.6142578125 0 50.00022888183594 L 0 49.99964141845703 C 0 22.38559722900391 22.38563537597656 0 49.99972534179688 0 Z" stroke="none" fill="#fff"/>
                </g>
              </g>
              <g id="Trazado_874923" data-name="Trazado 874923" transform="translate(0 0)" fill="none">
                <path d="M50,0a50,50,0,0,1,50,50h0A50,50,0,0,1,0,50H0A50,50,0,0,1,50,0Z" stroke="none"/>
                <path d="M 49.99972534179688 3 C 43.65348052978516 3 37.49866485595703 4.242240905761719 31.70623016357422 6.692230224609375 C 26.10989379882812 9.059272766113281 21.08323669433594 12.44853210449219 16.76589202880859 16.76587677001953 C 12.44855499267578 21.08321380615234 9.059295654296875 26.10985565185547 6.692230224609375 31.70618438720703 C 4.24224853515625 37.49859619140625 3 43.65341186523438 3 50.00022888183594 C 3 56.34645843505859 4.24224853515625 62.50127410888672 6.692230224609375 68.29368591308594 C 9.059295654296875 73.8900146484375 12.44855499267578 78.91665649414062 16.76589202880859 83.23399353027344 C 21.08323669433594 87.55132293701172 26.10989379882812 90.94059753417969 31.70623016357422 93.30764007568359 C 37.49866485595703 95.75762939453125 43.65348052978516 96.99987030029297 49.99972534179688 96.99987030029297 C 56.34597015380859 96.99987030029297 62.50078582763672 95.75762939453125 68.293212890625 93.30764007568359 C 73.88955688476562 90.94059753417969 78.91621398925781 87.55132293701172 83.23355865478516 83.23399353027344 C 87.55089569091797 78.91665649414062 90.94015502929688 73.8900146484375 93.30722045898438 68.29368591308594 C 95.7572021484375 62.50127410888672 96.99945068359375 56.34645843505859 96.99945068359375 49.99964141845703 C 96.99945068359375 43.65341186523438 95.7572021484375 37.49859619140625 93.30722045898438 31.70618438720703 C 90.94015502929688 26.10985565185547 87.55089569091797 21.08321380615234 83.23355865478516 16.76587677001953 C 78.91621398925781 12.44853210449219 73.88955688476562 9.059272766113281 68.293212890625 6.692230224609375 C 62.50078582763672 4.242240905761719 56.34597015380859 3 49.99972534179688 3 M 49.99972534179688 0 C 77.61381530761719 0 99.99945068359375 22.38559722900391 99.99945068359375 49.99964141845703 L 99.99945068359375 50.00022888183594 C 99.99945068359375 77.6142578125 77.61381530761719 99.99987030029297 49.99972534179688 99.99987030029297 C 22.38563537597656 99.99987030029297 0 77.6142578125 0 50.00022888183594 L 0 49.99964141845703 C 0 22.38559722900391 22.38563537597656 0 49.99972534179688 0 Z" stroke="none" fill="#fff"/>
              </g>
            </g>
          </g>
        </g>
      </g>
    </g>
    <g id="Grupo_1116216" data-name="Grupo 1116216" transform="translate(3876 -4355)">
      <g id="Grupo_1116214" data-name="Grupo 1116214">
        <g id="Grupo_1116200" data-name="Grupo 1116200">
          <path id="Trazado_908847" data-name="Trazado 908847" d="M56,4V19l-.04.04L49,26H44a5.01,5.01,0,0,0-4,2H26V52H48v4H22V26A10,10,0,0,0,12,16V12.83a1.968,1.968,0,0,1,.18-.83H20a2.006,2.006,0,0,0,2-2V2.18A1.968,1.968,0,0,1,22.83,2H54a2.006,2.006,0,0,1,2,2Z" fill="#e6e9ed"/>
        </g>
        <g id="Grupo_1116201" data-name="Grupo 1116201">
          <path id="Trazado_908848" data-name="Trazado 908848" d="M45.25,44.8a5.45,5.45,0,0,1-1.21-1.33,5.636,5.636,0,0,1-.8-1.7h-.01L39,46l-1,.4-3.7,1.48A1.682,1.682,0,0,1,32.03,46a1.71,1.71,0,0,1,.09-.3L34,41l1-1,6-6a2.006,2.006,0,0,1-2-2V31a4.941,4.941,0,0,1,1-3H26V52H48V47Z" fill="#ffeaa7"/>
        </g>
        <g id="Grupo_1116202" data-name="Grupo 1116202">
          <path id="Trazado_908849" data-name="Trazado 908849" d="M26,6H52v4H26Z" fill="#ff826e"/>
        </g>
        <g id="Grupo_1116203" data-name="Grupo 1116203">
          <path id="Trazado_908850" data-name="Trazado 908850" d="M22,2.18V10a2.006,2.006,0,0,1-2,2H12.18a2.017,2.017,0,0,1,.41-.59l8.82-8.82A2.017,2.017,0,0,1,22,2.18Z" fill="#b4dd7f"/>
        </g>
        <g id="Grupo_1116204" data-name="Grupo 1116204">
          <path id="Trazado_908851" data-name="Trazado 908851" d="M43,32v8.12a5.678,5.678,0,0,0,.24,1.65h-.01L39,46l-5-5,1-1,6-6a2.015,2.015,0,0,0,2-2Z" fill="#ff826e"/>
        </g>
        <g id="Grupo_1116205" data-name="Grupo 1116205">
          <path id="Trazado_908852" data-name="Trazado 908852" d="M56,19a3.536,3.536,0,0,1,4.96,5.04l-5.84,5.84L47,38V33a2.993,2.993,0,0,0-.88-2.12,3.058,3.058,0,0,0-1.25-.75L49,26l6.96-6.96Z" fill="#ff826e"/>
        </g>
        <g id="Grupo_1116206" data-name="Grupo 1116206">
          <path id="Trazado_908853" data-name="Trazado 908853" d="M39,46l-1,.4-3.7,1.48A1.682,1.682,0,0,1,32.03,46a1.71,1.71,0,0,1,.09-.3L34,41Z" fill="#aab2bd"/>
        </g>
        <g id="Grupo_1116207" data-name="Grupo 1116207">
          <path id="Trazado_908854" data-name="Trazado 908854" d="M59,44l2,12H48V47Z" fill="#b4dd7f"/>
        </g>
        <g id="Grupo_1116208" data-name="Grupo 1116208">
          <path id="Trazado_908855" data-name="Trazado 908855" d="M42.41,33.41A1.955,1.955,0,0,1,41,34a2.006,2.006,0,0,1-2-2V31a4.941,4.941,0,0,1,1-3,5.01,5.01,0,0,1,4-2h5l-4.13,4.13A3.1,3.1,0,0,0,44,30a1,1,0,0,0-1,1v1A1.955,1.955,0,0,1,42.41,33.41Z" fill="#f0d0b4"/>
        </g>
        <g id="Grupo_1116209" data-name="Grupo 1116209">
          <path id="Trazado_908856" data-name="Trazado 908856" d="M55.65,30.85A27.493,27.493,0,0,1,59,44L48,47l-2.75-2.2a5.45,5.45,0,0,1-1.21-1.33A6.024,6.024,0,0,1,43,40.12V31a1,1,0,0,1,1-1,3.1,3.1,0,0,1,.87.13,3.058,3.058,0,0,1,1.25.75A2.993,2.993,0,0,1,47,33v5l8.12-8.12Z" fill="#f0d0b4"/>
        </g>
        <g id="Grupo_1116210" data-name="Grupo 1116210">
          <path id="Trazado_908857" data-name="Trazado 908857" d="M22,26V58a4,4,0,0,1-4,4H6a4,4,0,0,1-4-4V26a9.991,9.991,0,0,0,4,8v7a1,1,0,0,0,1,1H17a1,1,0,0,0,1-1V34A9.991,9.991,0,0,0,22,26Z" fill="#969faa"/>
        </g>
        <g id="Grupo_1116211" data-name="Grupo 1116211">
          <path id="Trazado_908858" data-name="Trazado 908858" d="M17.078,57.966H7.025a1,1,0,0,1-1-1v-9.96a1,1,0,0,1,1-1H17.077a1,1,0,0,1,1,1v9.96A1,1,0,0,1,17.078,57.966Z" fill="#ff826e"/>
        </g>
        <g id="Grupo_1116212" data-name="Grupo 1116212">
          <path id="Trazado_908859" data-name="Trazado 908859" d="M18,34v7a1,1,0,0,1-1,1H7a1,1,0,0,1-1-1V34a10,10,0,0,0,12,0Z" fill="#69d6f4"/>
        </g>
        <g id="Grupo_1116213" data-name="Grupo 1116213">
          <path id="Trazado_908860" data-name="Trazado 908860" d="M22,26A10,10,0,1,1,12,16,9.991,9.991,0,0,1,22,26Z" fill="#fcd770"/>
        </g>
      </g>
      <g id="Grupo_1116215" data-name="Grupo 1116215">
        <path id="Trazado_908861" data-name="Trazado 908861" d="M56.526,30.376l-.172-.316,5.318-5.318A4.516,4.516,0,0,0,57,17.26V4a3,3,0,0,0-3-3H22.829a2.982,2.982,0,0,0-2.122.879l-8.828,8.828A2.978,2.978,0,0,0,11,12.829v2.222A11.01,11.01,0,0,0,1,26V58a5.006,5.006,0,0,0,5,5H18a5.006,5.006,0,0,0,5-5V57H62.181L60,43.9A28.54,28.54,0,0,0,56.526,30.376Zm1.45,12.867L48.227,45.9l-2.351-1.881A4.98,4.98,0,0,1,44,40.116V31a2,2,0,0,1,2,2v7h2V38.414l6.874-6.874A26.514,26.514,0,0,1,57.976,43.243ZM44,29a2,2,0,0,0-2,2v1a1,1,0,0,1-2,0V31a4,4,0,0,1,4-4h2.586l-2.054,2.054A3.9,3.9,0,0,0,44,29ZM33.049,46.072l1.316-3.292,2.855,2.855-3.293,1.317A.693.693,0,0,1,33,46.323.653.653,0,0,1,33.049,46.072ZM39,44.586,35.414,41l6.047-6.047A2.918,2.918,0,0,0,42,34.815v5.3a7.034,7.034,0,0,0,.136,1.334ZM38.184,33H27V29H38.35A5.976,5.976,0,0,0,38,31v1A2.966,2.966,0,0,0,38.184,33ZM27,35H38.586l-4,4H27Zm0,6h5.923l-1.6,4H27Zm0,6h4.1a2.668,2.668,0,0,0,3.574,1.809L37,47.877V51H27Zm12,.077.562-.225,3.33-3.33c.036.065.069.131.108.195V51H39Zm6-1.2,2,1.6V51H45ZM61,21.536a2.52,2.52,0,0,1-.743,1.793L48,35.586V33a3.976,3.976,0,0,0-1.494-3.092L56.671,19.743A2.536,2.536,0,0,1,61,21.536ZM21,4.414V10a1,1,0,0,1-1,1H14.414ZM12,17a9,9,0,1,1-9,9,9.011,9.011,0,0,1,9-9ZM7,35.786a10.9,10.9,0,0,0,10,0V41H7ZM18,61H6a3,3,0,0,1-3-3V32.305a11.1,11.1,0,0,0,2,2.174V41a2,2,0,0,0,2,2H17a2,2,0,0,0,2-2V34.479a11.1,11.1,0,0,0,2-2.174V58A3,3,0,0,1,18,61Zm5-6V26A11.01,11.01,0,0,0,13,15.051V13h7a3,3,0,0,0,3-3V3H54a1,1,0,0,1,1,1V18.586L48.586,25H44a5.983,5.983,0,0,0-4.46,2H25V53H47v2Zm26,0V47.764l9.195-2.508L59.819,55Z"/>
        <path id="Trazado_908862" data-name="Trazado 908862" d="M11,30.855V33h2V30.855a2.844,2.844,0,0,0,.422-5.262l-1.95-.974A.855.855,0,0,1,11.854,23h.292a.855.855,0,0,1,.854.854V25h2V23.854a2.849,2.849,0,0,0-2-2.709V19H11v2.145a2.844,2.844,0,0,0-.422,5.262l1.95.974A.855.855,0,0,1,12.146,29h-.292A.855.855,0,0,1,11,28.146V27H9v1.146A2.849,2.849,0,0,0,11,30.855Z"/>
        <path id="Trazado_908863" data-name="Trazado 908863" d="M17,45H7a2,2,0,0,0-2,2V57a2,2,0,0,0,2,2H17a2,2,0,0,0,2-2V47A2,2,0,0,0,17,45Zm0,4H15V47h2Zm-4,8H11V55h2Zm0-4H11V51h2ZM9,53H7V51H9Zm2-4V47h2v2ZM9,47v2H7V47ZM7,55H9v2H7Zm8,2V51h2v6Z"/>
        <path id="Trazado_908864" data-name="Trazado 908864" d="M53,5H25v6H53ZM51,9H27V7H51Z"/>
        <path id="Trazado_908865" data-name="Trazado 908865" d="M25,13H53v2H25Z"/>
        <path id="Trazado_908866" data-name="Trazado 908866" d="M25,17H53v2H25Z"/>
        <path id="Trazado_908867" data-name="Trazado 908867" d="M25,21H41v2H25Z"/>
      </g>
    </g>
  </g>
</svg>
