<svg xmlns="http://www.w3.org/2000/svg" xmlns:xlink="http://www.w3.org/1999/xlink" width="90" height="90" viewBox="0 0 90 90">
  <defs>
    <filter id="Trazado_824488" x="0" y="0" width="90" height="90" filterUnits="userSpaceOnUse">
      <feOffset input="SourceAlpha"/>
      <feGaussianBlur stdDeviation="3" result="blur"/>
      <feFlood flood-opacity="0.231"/>
      <feComposite operator="in" in2="blur"/>
      <feComposite in="SourceGraphic"/>
    </filter>
  </defs>
  <g id="Grupo_1112442" data-name="Grupo 1112442" transform="translate(-191.051 -2054)">
    <g transform="matrix(1, 0, 0, 1, 191.05, 2054)" filter="url(#Trazado_824488)">
      <path id="Trazado_824488-2" data-name="Trazado 824488" d="M36,0A36,36,0,1,1,0,36,36,36,0,0,1,36,0Z" transform="translate(9 9)" fill="#d7e9ff"/>
    </g>
    <g id="Grupo_1112441" data-name="Grupo 1112441" transform="translate(210.051 2070)">
      <g id="Grupo_1112440" data-name="Grupo 1112440" transform="translate(0.753 0.753)">
        <g id="Grupo_1112429" data-name="Grupo 1112429" transform="translate(0 16.514)">
          <path id="Trazado_901676" data-name="Trazado 901676" d="M69.36,202.425H22.5V175.09a3.01,3.01,0,0,1,3.01-3.01H66.349a3.01,3.01,0,0,1,3.01,3.01Z" transform="translate(-20.995 -172.08)" fill="#3d6d93"/>
          <path id="Trazado_901677" data-name="Trazado 901677" d="M432.51,172.08H429.5a3.01,3.01,0,0,1,3.01,3.01v25.83h3.01V175.09A3.01,3.01,0,0,0,432.51,172.08Z" transform="translate(-387.156 -172.08)" fill="#335e80"/>
          <path id="Trazado_901678" data-name="Trazado 901678" d="M52.5,229.416V202.783a.7.7,0,0,1,.7-.7H92.637a.7.7,0,0,1,.7.7v26.633Z" transform="translate(-47.985 -199.071)" fill="#e9f5ff"/>
          <path id="Trazado_901679" data-name="Trazado 901679" d="M56.668,459.5H8.2a.7.7,0,0,0-.7.7,3.813,3.813,0,0,0,3.813,3.813H53.557A3.813,3.813,0,0,0,57.37,460.2.7.7,0,0,0,56.668,459.5Z" transform="translate(-7.5 -430.66)" fill="#335e80"/>
          <path id="Trazado_901680" data-name="Trazado 901680" d="M442.621,459.5h-3.01a.7.7,0,0,1,.7.7,3.813,3.813,0,0,1-3.813,3.813h3.01a3.813,3.813,0,0,0,3.813-3.813A.7.7,0,0,0,442.621,459.5Z" transform="translate(-393.453 -430.66)" fill="#2e5973"/>
        </g>
        <path id="Trazado_901681" data-name="Trazado 901681" d="M97.579,225.664V211.817a4.716,4.716,0,0,1,3.052-4.413l7.627-2.875a2.005,2.005,0,0,0,.843-.6c.289-.351,1.961-.8,1.961-1.274v-3.068h4.826v3.068c0,.418,1.634.813,1.862,1.142a2,2,0,0,0,.943.736l7.626,2.875a4.716,4.716,0,0,1,3.053,4.413v13.846Z" transform="translate(-88.54 -180.309)" fill="#aee69c"/>
        <g id="Grupo_1112430" data-name="Grupo 1112430" transform="translate(25.843 19.274)">
          <path id="Trazado_901682" data-name="Trazado 901682" d="M276.984,207.4l-7.627-2.875a2,2,0,0,1-.843-.6c-.289-.351-1.961-.8-1.961-1.274v-3.068h-1.505v4.574a2.007,2.007,0,0,0,1.3,1.878l7.627,2.875a4.716,4.716,0,0,1,3.052,4.413v12.341h3.01V211.817A4.716,4.716,0,0,0,276.984,207.4Z" transform="translate(-265.048 -199.583)" fill="#89daa4"/>
        </g>
        <path id="Trazado_901683" data-name="Trazado 901683" d="M216.774,206.484a5.018,5.018,0,0,0,4.375-2.559,2.005,2.005,0,0,1-.457-1.274v-3.068h-7.836v3.068a2,2,0,0,1-.457,1.274A5.018,5.018,0,0,0,216.774,206.484Z" transform="translate(-191.839 -180.309)" fill="#ffcebf"/>
        <path id="Trazado_901684" data-name="Trazado 901684" d="M266.279,206.007a5.044,5.044,0,0,0,2.236-2.081,2.022,2.022,0,0,1-.457-1.274v-3.068h-3.01v4.574A2.006,2.006,0,0,0,266.279,206.007Z" transform="translate(-239.205 -180.31)" fill="#ffb09e"/>
        <g id="Grupo_1112434" data-name="Grupo 1112434" transform="translate(14.769)">
          <g id="Grupo_1112431" data-name="Grupo 1112431" transform="translate(0 9.532)">
            <path id="Trazado_901685" data-name="Trazado 901685" d="M156.618,106.35h2.508V102.5h-2.508a1.927,1.927,0,1,0,0,3.854Z" transform="translate(-154.691 -102.496)" fill="#ffb09e"/>
            <path id="Trazado_901686" data-name="Trazado 901686" d="M315.62,106.35h-2.508V102.5h2.508a1.927,1.927,0,1,1,0,3.854Z" transform="translate(-297.216 -102.496)" fill="#ffcebf"/>
          </g>
          <g id="Grupo_1112433" data-name="Grupo 1112433" transform="translate(2.93)">
            <path id="Trazado_901687" data-name="Trazado 901687" d="M198.36,17.094H183.888V10.737A3.237,3.237,0,0,1,187.125,7.5h8a3.237,3.237,0,0,1,3.237,3.237v6.357Z" transform="translate(-183.888 -7.5)" fill="#e19974"/>
            <path id="Trazado_901688" data-name="Trazado 901688" d="M268.86,7.5h-3.01a3.237,3.237,0,0,1,3.237,3.237v6.357h3.01V10.737A3.237,3.237,0,0,0,268.86,7.5Z" transform="translate(-257.626 -7.5)" fill="#dc8758"/>
            <path id="Trazado_901689" data-name="Trazado 901689" d="M198.361,78.674a3.737,3.737,0,0,0-2.075-1.954c-1.25-.372-1.9.484-3.6.478-1.931-.007-2.388-1.117-3.946-1.24-1.12-.088-2.737.341-4.847,2.715v5.1a6.539,6.539,0,0,0,7.32,6.88s2.707-.066,3.837-.8a7.233,7.233,0,0,0,3.314-6.084v-5.1Z" transform="translate(-183.89 -69.081)" fill="#ffcebf"/>
            <g id="Grupo_1112432" data-name="Grupo 1112432" transform="translate(3.318 7.546)">
              <path id="Trazado_901690" data-name="Trazado 901690" d="M226.03,82.8a3.9,3.9,0,0,0-2.335.313,4.35,4.35,0,0,1,1.4,1.641v5.1a6.037,6.037,0,0,1-8.144,6.086,7.585,7.585,0,0,0,3.485,1.139q.221.014.433.013a7.237,7.237,0,0,0,7.236-7.238v-5.1A3.736,3.736,0,0,0,226.03,82.8Z" transform="translate(-216.951 -82.706)" fill="#ffb09e"/>
            </g>
          </g>
        </g>
        <g id="Grupo_1112439" data-name="Grupo 1112439" transform="translate(7.756 29.185)">
          <g id="Grupo_1112435" data-name="Grupo 1112435" transform="translate(4.234)">
            <path id="Trazado_901691" data-name="Trazado 901691" d="M149.876,316.032H130.008a3.01,3.01,0,0,1-3.01-3.01V301.367a3.01,3.01,0,0,1,3.01-3.01h19.868a3.01,3.01,0,0,1,3.01,3.01v11.654A3.01,3.01,0,0,1,149.876,316.032Z" transform="translate(-126.998 -298.357)" fill="#f58a97"/>
            <path id="Trazado_901692" data-name="Trazado 901692" d="M328.012,298.357H325a3.01,3.01,0,0,1,3.01,3.01v11.654a3.01,3.01,0,0,1-3.01,3.01h3.01a3.01,3.01,0,0,0,3.01-3.01V301.367A3.01,3.01,0,0,0,328.012,298.357Z" transform="translate(-305.134 -298.357)" fill="#f07281"/>
            <path id="Trazado_901693" data-name="Trazado 901693" d="M229.8,349.585l-5.287,3.553a.612.612,0,0,1-.953-.508v-7.107a.612.612,0,0,1,.953-.508l5.287,3.553A.612.612,0,0,1,229.8,349.585Z" transform="translate(-213.871 -340.24)" fill="#fff"/>
          </g>
          <g id="Grupo_1112438" data-name="Grupo 1112438" transform="translate(0 6.211)">
            <g id="Grupo_1112436" data-name="Grupo 1112436">
              <path id="Trazado_901694" data-name="Trazado 901694" d="M89.006,367.01H86.833a2.034,2.034,0,0,1-2.034-2.034v-2.69a2.034,2.034,0,0,1,2.034-2.034h2.173a.978.978,0,0,1,.978.978v4.8A.978.978,0,0,1,89.006,367.01Z" transform="translate(-84.799 -360.252)" fill="#ffcebf"/>
            </g>
            <path id="Trazado_901695" data-name="Trazado 901695" d="M107.11,360.252h-2.188a.978.978,0,0,1,.963.978v4.8a.978.978,0,0,1-.963.978h2.188a.978.978,0,0,0,.978-.978v-4.8A.978.978,0,0,0,107.11,360.252Z" transform="translate(-102.903 -360.252)" fill="#ffb09e"/>
            <g id="Grupo_1112437" data-name="Grupo 1112437" transform="translate(29.172)">
              <path id="Trazado_901696" data-name="Trazado 901696" d="M376.5,367.01h2.173a2.034,2.034,0,0,0,2.034-2.034v-2.69a2.034,2.034,0,0,0-2.034-2.034H376.5a.978.978,0,0,0-.978.978v4.8A.978.978,0,0,0,376.5,367.01Z" transform="translate(-375.522 -360.252)" fill="#ffcebf"/>
            </g>
            <path id="Trazado_901697" data-name="Trazado 901697" d="M386.487,360.252h-2.173a1,1,0,0,0-.107.006,2.032,2.032,0,0,1,1.913,2.028v2.69A2.032,2.032,0,0,1,384.207,367a1,1,0,0,0,.107.006h2.173a2.034,2.034,0,0,0,2.034-2.034v-2.69A2.034,2.034,0,0,0,386.487,360.252Z" transform="translate(-354.164 -360.252)" fill="#ffb09e"/>
          </g>
        </g>
      </g>
      <path id="Trazado_901698" data-name="Trazado 901698" d="M22.2,15.087a.753.753,0,0,0,.753-.753v-1.4a.753.753,0,1,0-1.505,0v1.4A.753.753,0,0,0,22.2,15.087Zm6.9,22.556-5.287-3.553a1.373,1.373,0,0,0-2.125,1.132v7.107a1.377,1.377,0,0,0,2.125,1.132l5.287-3.553A1.38,1.38,0,0,0,29.092,37.643Zm-5.907,4.421V35.486l4.893,3.289ZM49.92,45.355h-.05V20.277a3.767,3.767,0,0,0-3.763-3.763H33.6a8.015,8.015,0,0,0,.073-1.066v-.558h.25a2.68,2.68,0,0,0,0-5.359h-.25V3.99A3.994,3.994,0,0,0,29.686,0h-8A3.994,3.994,0,0,0,17.7,3.99V9.532h-.25a2.68,2.68,0,1,0,0,5.359h.25v.557a8.016,8.016,0,0,0,.073,1.066H5.268a3.767,3.767,0,0,0-3.763,3.763V45.355h-.05A1.457,1.457,0,0,0,0,46.81a4.566,4.566,0,0,0,4.566,4.566H46.81a4.571,4.571,0,0,0,4.566-4.566,1.467,1.467,0,0,0-1.455-1.455ZM33.676,11.037h.25a1.174,1.174,0,1,1,0,2.349h-.25ZM17.7,13.386h-.25a1.174,1.174,0,0,1,0-2.349h.25Zm15.55,4.634H46.107a2.26,2.26,0,0,1,2.258,2.258V45.355H46.86V20.979A1.457,1.457,0,0,0,45.4,19.525H32.555a7.962,7.962,0,0,0,.694-1.505Zm12.105,3.01V45.355H42.336V43.216a2.786,2.786,0,0,0,1.282-2.344v-2.69a2.786,2.786,0,0,0-1.282-2.344V32.261a5.5,5.5,0,0,0-3.54-5.117L31.17,24.269a1.261,1.261,0,0,1-.812-1.174v-1.17a8.044,8.044,0,0,0,1.039-.9ZM38.661,42.154h0a.226.226,0,0,1-.224-.226v-4.8a.226.226,0,0,1,.226-.226h2.173a1.283,1.283,0,0,1,1.282,1.281v2.69a1.283,1.283,0,0,1-1.282,1.282Zm2.17,1.505v1.7H39.309a3.766,3.766,0,0,0,.076-.753v-.943Zm-28.765,1.7H10.544v-1.7h1.447V44.6A3.765,3.765,0,0,0,12.067,45.355Zm-1.524-3.2a1.283,1.283,0,0,1-1.282-1.282v-2.69A1.283,1.283,0,0,1,10.543,36.9h2.173a.226.226,0,0,1,.226.226v4.8a.226.226,0,0,1-.224.226H10.543Zm1.448-9.206V35.4H10.544V32.261a3.983,3.983,0,0,1,2.565-3.709l7.627-2.875a2.722,2.722,0,0,0,.417-.2,5.768,5.768,0,0,0,9.069,0,2.717,2.717,0,0,0,.417.2l7.627,2.875a3.983,3.983,0,0,1,2.565,3.709V35.4H39.384V32.948a3.767,3.767,0,0,0-3.763-3.763H15.754A3.767,3.767,0,0,0,11.991,32.948Zm17.179-8.58a4.26,4.26,0,0,1-6.965,0,2.747,2.747,0,0,0,.316-1.274v-.311a7.969,7.969,0,0,0,6.332,0v.311a2.746,2.746,0,0,0,.316,1.274ZM19.2,3.99a2.487,2.487,0,0,1,2.485-2.485h8A2.487,2.487,0,0,1,32.171,3.99V8.24a3.246,3.246,0,0,0-3.322-.419,4.862,4.862,0,0,1-1.587.3h-.014a3.578,3.578,0,0,1-1.908-.566,4.677,4.677,0,0,0-1.982-.671A5.767,5.767,0,0,0,19.2,8.545V3.99Zm0,6.647c1.468-1.591,2.825-2.35,4.036-2.255a3.248,3.248,0,0,1,1.384.494,5.062,5.062,0,0,0,2.618.747h.019A6.283,6.283,0,0,0,29.3,9.255a2.025,2.025,0,0,1,1.329-.142,2.813,2.813,0,0,1,1.537,1.426v4.909a6.483,6.483,0,1,1-12.966,0ZM3.01,20.277a2.26,2.26,0,0,1,2.258-2.258H18.126a7.956,7.956,0,0,0,.694,1.505H5.97a1.457,1.457,0,0,0-1.455,1.455V24.8a.753.753,0,0,0,1.505,0V21.03H19.978a8.06,8.06,0,0,0,1.039.9v1.17a1.261,1.261,0,0,1-.811,1.174l-7.627,2.875a5.5,5.5,0,0,0-3.539,5.117v3.578a2.786,2.786,0,0,0-1.282,2.344v2.69a2.786,2.786,0,0,0,1.282,2.344v2.138H6.021V28.307a.753.753,0,0,0-1.505,0V45.355H3.01ZM46.81,49.87H4.566a3.06,3.06,0,0,1-3.06-3.01h11.24a3.759,3.759,0,0,0,3.008,1.505h13.6a.753.753,0,1,0,0-1.505h-13.6A2.26,2.26,0,0,1,13.5,44.6V43.471a1.731,1.731,0,0,0,.951-1.543v-4.8a1.731,1.731,0,0,0-.951-1.543V32.948a2.26,2.26,0,0,1,2.258-2.258H35.621a2.26,2.26,0,0,1,2.258,2.258v2.635a1.731,1.731,0,0,0-.951,1.543v4.8a1.731,1.731,0,0,0,.951,1.543V44.6a2.26,2.26,0,0,1-2.258,2.258H32.865a.753.753,0,1,0,0,1.505h2.757A3.759,3.759,0,0,0,38.63,46.86H49.87A3.064,3.064,0,0,1,46.81,49.87ZM29.179,15.087a.753.753,0,0,0,.753-.753v-1.4a.753.753,0,1,0-1.505,0v1.4A.753.753,0,0,0,29.179,15.087Zm-5.249,4a3.669,3.669,0,0,0,1.72.451,3.771,3.771,0,0,0,1.8-.451.753.753,0,0,0-.724-1.32,2.147,2.147,0,0,1-2.069,0,.753.753,0,0,0-.724,1.32Z" transform="translate(0 0)"/>
    </g>
  </g>
</svg>
