<svg xmlns="http://www.w3.org/2000/svg" xmlns:xlink="http://www.w3.org/1999/xlink" width="117.999" height="118" viewBox="0 0 117.999 118">
  <defs>
    <filter id="Trazado_874925" x="0" y="0" width="117.999" height="118" filterUnits="userSpaceOnUse">
      <feOffset dy="3" input="SourceAlpha"/>
      <feGaussianBlur stdDeviation="3" result="blur"/>
      <feFlood flood-opacity="0.161"/>
      <feComposite operator="in" in2="blur"/>
      <feComposite in="SourceGraphic"/>
    </filter>
  </defs>
  <g id="Grupo_1116195" data-name="Grupo 1116195" transform="translate(-370.051 -7229)">
    <g id="Grupo_1112555" data-name="Grupo 1112555" transform="translate(379.051 7235)">
      <g id="Grupo_1111552" data-name="Grupo 1111552" transform="translate(0)">
        <g id="Grupo_1111316" data-name="Grupo 1111316" transform="translate(0 0)">
          <g id="Grupo_1109835" data-name="Grupo 1109835" transform="translate(0)">
            <g id="Grupo_1107913" data-name="Grupo 1107913">
              <g transform="matrix(1, 0, 0, 1, -9, -6)" filter="url(#Trazado_874925)">
                <g id="Trazado_874925-2" data-name="Trazado 874925" transform="translate(9 6)" fill="#9cc8ff" opacity="0.859">
                  <path d="M 49.99972534179688 98.4998779296875 C 43.45164108276367 98.4998779296875 37.10022354125977 97.21776580810547 31.12189674377441 94.68914794921875 C 25.34676742553711 92.24647521972656 20.15985298156738 88.74925994873047 15.70523929595947 84.29464721679688 C 11.25062561035156 79.84004974365234 7.753411293029785 74.65313720703125 5.310725212097168 68.87800598144531 C 2.782111167907715 62.89969253540039 1.499996781349182 56.54829406738281 1.499996781349182 50.00022125244141 C 1.499996781349182 43.45157623291016 2.782111167907715 37.10017776489258 5.310725212097168 31.12186431884766 C 7.753411293029785 25.34673500061035 11.25062561035156 20.15983581542969 15.70523929595947 15.70522117614746 C 20.15985298156738 11.25062084197998 25.34676742553711 7.753406524658203 31.12189674377441 5.31073522567749 C 37.10022354125977 2.782120943069458 43.45164108276367 1.500006556510925 49.99972534179688 1.500006556510925 C 56.54780960083008 1.500006556510925 62.89922714233398 2.782120943069458 68.87755584716797 5.31073522567749 C 74.65267944335938 7.753406524658203 79.839599609375 11.25062084197998 84.29421234130859 15.70522117614746 C 88.74882507324219 20.15983581542969 92.24604034423828 25.34673500061035 94.68872833251953 31.12186431884766 C 97.21733856201172 37.10017776489258 98.49945068359375 43.45157623291016 98.49945068359375 49.99964904785156 C 98.49945068359375 56.54829406738281 97.21733856201172 62.89969253540039 94.68872833251953 68.87800598144531 C 92.24604034423828 74.65313720703125 88.74882507324219 79.84004974365234 84.29421234130859 84.29464721679688 C 79.839599609375 88.74925994873047 74.65267944335938 92.24647521972656 68.87755584716797 94.68914794921875 C 62.89922714233398 97.21776580810547 56.54780960083008 98.4998779296875 49.99972534179688 98.4998779296875 Z" stroke="none"/>
                  <path d="M 49.99972534179688 3 C 43.65348052978516 3 37.49866485595703 4.242240905761719 31.70623016357422 6.692230224609375 C 26.10989379882812 9.059272766113281 21.08323669433594 12.44853210449219 16.76589202880859 16.76587677001953 C 12.44855499267578 21.08321380615234 9.059295654296875 26.10985565185547 6.692230224609375 31.70618438720703 C 4.24224853515625 37.49859619140625 3 43.65341186523438 3 50.00022888183594 C 3 56.34645843505859 4.24224853515625 62.50127410888672 6.692230224609375 68.29368591308594 C 9.059295654296875 73.8900146484375 12.44855499267578 78.91665649414062 16.76589202880859 83.23399353027344 C 21.08323669433594 87.55132293701172 26.10989379882812 90.94059753417969 31.70623016357422 93.30764007568359 C 37.49866485595703 95.75762939453125 43.65348052978516 96.99987030029297 49.99972534179688 96.99987030029297 C 56.34597015380859 96.99987030029297 62.50078582763672 95.75762939453125 68.293212890625 93.30764007568359 C 73.88955688476562 90.94059753417969 78.91621398925781 87.55132293701172 83.23355865478516 83.23399353027344 C 87.55089569091797 78.91665649414062 90.94015502929688 73.8900146484375 93.30722045898438 68.29368591308594 C 95.7572021484375 62.50127410888672 96.99945068359375 56.34645843505859 96.99945068359375 49.99964141845703 C 96.99945068359375 43.65341186523438 95.7572021484375 37.49859619140625 93.30722045898438 31.70618438720703 C 90.94015502929688 26.10985565185547 87.55089569091797 21.08321380615234 83.23355865478516 16.76587677001953 C 78.91621398925781 12.44853210449219 73.88955688476562 9.059272766113281 68.293212890625 6.692230224609375 C 62.50078582763672 4.242240905761719 56.34597015380859 3 49.99972534179688 3 M 49.99972534179688 0 C 77.61381530761719 0 99.99945068359375 22.38559722900391 99.99945068359375 49.99964141845703 L 99.99945068359375 50.00022888183594 C 99.99945068359375 77.6142578125 77.61381530761719 99.99987030029297 49.99972534179688 99.99987030029297 C 22.38563537597656 99.99987030029297 0 77.6142578125 0 50.00022888183594 L 0 49.99964141845703 C 0 22.38559722900391 22.38563537597656 0 49.99972534179688 0 Z" stroke="none" fill="#fff"/>
                </g>
              </g>
              <g id="Trazado_874923" data-name="Trazado 874923" transform="translate(0)" fill="none">
                <path d="M50,0a50,50,0,0,1,50,50h0A50,50,0,0,1,0,50H0A50,50,0,0,1,50,0Z" stroke="none"/>
                <path d="M 49.99972534179688 3 C 43.65348052978516 3 37.49866485595703 4.242240905761719 31.70623016357422 6.692230224609375 C 26.10989379882812 9.059272766113281 21.08323669433594 12.44853210449219 16.76589202880859 16.76587677001953 C 12.44855499267578 21.08321380615234 9.059295654296875 26.10985565185547 6.692230224609375 31.70618438720703 C 4.24224853515625 37.49859619140625 3 43.65341186523438 3 50.00022888183594 C 3 56.34645843505859 4.24224853515625 62.50127410888672 6.692230224609375 68.29368591308594 C 9.059295654296875 73.8900146484375 12.44855499267578 78.91665649414062 16.76589202880859 83.23399353027344 C 21.08323669433594 87.55132293701172 26.10989379882812 90.94059753417969 31.70623016357422 93.30764007568359 C 37.49866485595703 95.75762939453125 43.65348052978516 96.99987030029297 49.99972534179688 96.99987030029297 C 56.34597015380859 96.99987030029297 62.50078582763672 95.75762939453125 68.293212890625 93.30764007568359 C 73.88955688476562 90.94059753417969 78.91621398925781 87.55132293701172 83.23355865478516 83.23399353027344 C 87.55089569091797 78.91665649414062 90.94015502929688 73.8900146484375 93.30722045898438 68.29368591308594 C 95.7572021484375 62.50127410888672 96.99945068359375 56.34645843505859 96.99945068359375 49.99964141845703 C 96.99945068359375 43.65341186523438 95.7572021484375 37.49859619140625 93.30722045898438 31.70618438720703 C 90.94015502929688 26.10985565185547 87.55089569091797 21.08321380615234 83.23355865478516 16.76587677001953 C 78.91621398925781 12.44853210449219 73.88955688476562 9.059272766113281 68.293212890625 6.692230224609375 C 62.50078582763672 4.242240905761719 56.34597015380859 3 49.99972534179688 3 M 49.99972534179688 0 C 77.61381530761719 0 99.99945068359375 22.38559722900391 99.99945068359375 49.99964141845703 L 99.99945068359375 50.00022888183594 C 99.99945068359375 77.6142578125 77.61381530761719 99.99987030029297 49.99972534179688 99.99987030029297 C 22.38563537597656 99.99987030029297 0 77.6142578125 0 50.00022888183594 L 0 49.99964141845703 C 0 22.38559722900391 22.38563537597656 0 49.99972534179688 0 Z" stroke="none" fill="#fff"/>
              </g>
            </g>
          </g>
        </g>
      </g>
    </g>
    <g id="Grupo_1116194" data-name="Grupo 1116194" transform="translate(397.052 7253)">
      <path id="Trazado_908808" data-name="Trazado 908808" d="M12,58l1.106,2.211a3.235,3.235,0,0,0,5.788,0L20,58" fill="#747574"/>
      <path id="Trazado_908809" data-name="Trazado 908809" d="M57,38.37V62H29V38.37L43,31Z" fill="#bcbdbc"/>
      <path id="Trazado_908810" data-name="Trazado 908810" d="M31.024,37.305A23.626,23.626,0,0,0,54.63,60H57V38.37L43,31Z" fill="#dfe0df"/>
      <path id="Trazado_908811" data-name="Trazado 908811" d="M38,62V47H48V62" fill="#ec6236"/>
      <path id="Trazado_908812" data-name="Trazado 908812" d="M38,53.146a23.6,23.6,0,0,0,10,5.906V47H38Z" fill="#ef784f"/>
      <path id="Trazado_908813" data-name="Trazado 908813" d="M24,36,43,26,62,36v5L43,31,24,41Z" fill="#ec6236"/>
      <path id="Trazado_908814" data-name="Trazado 908814" d="M43,26v5L62,41V36Z" fill="#ef784f"/>
      <path id="Trazado_908815" data-name="Trazado 908815" d="M38,40H48v3H38Z" fill="#684d42"/>
      <path id="Trazado_908816" data-name="Trazado 908816" d="M20,49v-.135a9.046,9.046,0,0,1,4-7.383,14,14,0,1,0-15.953.035A9.1,9.1,0,0,1,12,49" fill="#f3c350"/>
      <path id="Trazado_908817" data-name="Trazado 908817" d="M24,34A14,14,0,0,0,8.386,20.09a13.626,13.626,0,0,0-2.871.654A13.96,13.96,0,0,0,8.049,41.517,9.1,9.1,0,0,1,12,49h2.94A9.508,9.508,0,0,1,18,45.482,13.971,13.971,0,0,0,24,34Z" fill="#fce95f"/>
      <path id="Trazado_908818" data-name="Trazado 908818" d="M17,49H15V40.829a5.789,5.789,0,0,0-1.707-4.122l-3-3,1.414-1.414,3,3A7.774,7.774,0,0,1,17,40.829Z" fill="#684d42"/>
      <path id="Trazado_908819" data-name="Trazado 908819" d="M13.414,35.293l-2.353-2.354-.768.768,3,3A5.789,5.789,0,0,1,15,40.829V49h.707V40.829A7.774,7.774,0,0,0,13.414,35.293Z" fill="#886f65"/>
      <path id="Trazado_908820" data-name="Trazado 908820" d="M22,32v3a6,6,0,0,1-6,6V38a6,6,0,0,1,6-6Z" transform="translate(38 73) rotate(180)" fill="#66ab5d"/>
      <path id="Trazado_908821" data-name="Trazado 908821" d="M8,25a6,6,0,0,1,6,6v5a6,6,0,0,1-6-6Z" fill="#66ab5d"/>
      <path id="Trazado_908822" data-name="Trazado 908822" d="M43,2,37,12l6,3v7l6-10L43,9Z" fill="#fce95f"/>
      <path id="Trazado_908823" data-name="Trazado 908823" d="M46,13l-3,9,6-10L43,9V2l-2,9Z" fill="#f3c350"/>
      <path id="Trazado_908824" data-name="Trazado 908824" d="M44,52h2v4H44Z" fill="#f2ad95"/>
      <path id="Trazado_908825" data-name="Trazado 908825" d="M9,25.09V28a6,6,0,0,0,5,5.91V31A6,6,0,0,0,9,25.09Z" fill="#7bb873"/>
      <path id="Trazado_908826" data-name="Trazado 908826" d="M18,37v3a6,6,0,0,0,1.629-.23A5.985,5.985,0,0,0,22,35V32a6,6,0,0,0-1.629.23A5.982,5.982,0,0,0,18,37Z" fill="#7bb873"/>
      <path id="Trazado_908827" data-name="Trazado 908827" d="M11,49H21v9H11Z" fill="#bcbdbc"/>
      <path id="Trazado_908828" data-name="Trazado 908828" d="M21,55.941V49H13.231A9,9,0,0,0,21,55.941Z" fill="#dfe0df"/>
      <g id="Grupo_1116193" data-name="Grupo 1116193">
        <path id="Trazado_908829" data-name="Trazado 908829" d="M9,51H23v2H9Z" fill="#9d9e9d"/>
        <path id="Trazado_908830" data-name="Trazado 908830" d="M9,54H23v2H9Z" fill="#9d9e9d"/>
        <path id="Trazado_908831" data-name="Trazado 908831" d="M13.5,58l.606,1.211A3.23,3.23,0,0,0,18.723,60.5a2.982,2.982,0,0,0,.171-.29L20,58Z" fill="#9d9e9d"/>
      </g>
      <path id="Trazado_908832" data-name="Trazado 908832" d="M62.466,35.115l-19-10a1,1,0,0,0-.932,0l-11.609,6.11c.034-.407.075-.813.075-1.225A15,15,0,1,0,7.481,42.34a8.123,8.123,0,0,1,3.457,5.672A1,1,0,0,0,10,49v2H9v2h1v1H9v2h1v2a1,1,0,0,0,1,1h.382l.829,1.659a4.236,4.236,0,0,0,7.578,0L20.618,59H21a1,1,0,0,0,1-1V56h1V54H22V53h1V51H22V49a1,1,0,0,0-.945-.989A8.193,8.193,0,0,1,24.573,42.3,14.964,14.964,0,0,0,26.2,40.97l1.8-.948V62a1,1,0,0,0,1,1H57a1,1,0,0,0,1-1V40.024l3.534,1.86A1,1,0,0,0,63,41V36a1,1,0,0,0-.534-.885ZM18,59.764a2.236,2.236,0,0,1-4,0L13.618,59h4.764ZM20,57H12V56h8Zm0-3H12V53h8Zm-8-3V50h8v1ZM23.429,40.662A10.159,10.159,0,0,0,19.055,48H17V41.92A7,7,0,0,0,23,35V32a1,1,0,0,0-1-1,7.01,7.01,0,0,0-6.7,4.968c-.1-.121-.2-.236-.3-.352V31a7.008,7.008,0,0,0-7-7,1,1,0,0,0-1,1v5a7,7,0,0,0,6.537,6.977A5.782,5.782,0,0,1,15,40.829V48H12.938a10.108,10.108,0,0,0-4.32-7.3,13,13,0,1,1,14.811-.033ZM17,39.9V38a5.008,5.008,0,0,1,4-4.9V35a5.008,5.008,0,0,1-4,4.9ZM13,31v3.9A5.008,5.008,0,0,1,9,30V26.1A5.008,5.008,0,0,1,13,31ZM47,61H39V48h8Zm9,0H49V47a1,1,0,0,0-1-1H38a1,1,0,0,0-1,1V61H30V38.972l13-6.843,13,6.843Zm5-21.657L43.466,30.115a1,1,0,0,0-.932,0L29.167,37.15a15.02,15.02,0,0,0,1.364-3.458L43,27.129,61,36.6Z"/>
      <path id="Trazado_908833" data-name="Trazado 908833" d="M37,40v3a1,1,0,0,0,1,1H48a1,1,0,0,0,1-1V40a1,1,0,0,0-1-1H38A1,1,0,0,0,37,40Zm2,1h8v1H39Z"/>
      <path id="Trazado_908834" data-name="Trazado 908834" d="M44,52h2v4H44Z"/>
      <path id="Trazado_908835" data-name="Trazado 908835" d="M36.553,12.9,42,15.618V22a1,1,0,0,0,.733.964A1.022,1.022,0,0,0,43,23a1,1,0,0,0,.857-.485l6-10a1,1,0,0,0-.41-1.41L44,8.382V2a1,1,0,0,0-1.857-.515l-6,10a1,1,0,0,0,.41,1.41ZM42,5.61V9a1,1,0,0,0,.553.9l5.034,2.517L44,18.39V15a1,1,0,0,0-.553-.895l-5.034-2.517Z"/>
    </g>
  </g>
</svg>
