<svg xmlns="http://www.w3.org/2000/svg" xmlns:xlink="http://www.w3.org/1999/xlink" width="117.999" height="118" viewBox="0 0 117.999 118">
  <defs>
    <filter id="Trazado_874925" x="0" y="0" width="117.999" height="118" filterUnits="userSpaceOnUse">
      <feOffset dy="3" input="SourceAlpha"/>
      <feGaussianBlur stdDeviation="3" result="blur"/>
      <feFlood flood-opacity="0.161"/>
      <feComposite operator="in" in2="blur"/>
      <feComposite in="SourceGraphic"/>
    </filter>
  </defs>
  <g id="Grupo_1116199" data-name="Grupo 1116199" transform="translate(-683.051 -7229)">
    <g id="Grupo_1112556" data-name="Grupo 1112556" transform="translate(692.051 7235)">
      <g id="Grupo_1111553" data-name="Grupo 1111553">
        <g id="Grupo_1111316" data-name="Grupo 1111316" transform="translate(0 0)">
          <g id="Grupo_1109835" data-name="Grupo 1109835" transform="translate(0)">
            <g id="Grupo_1107913" data-name="Grupo 1107913">
              <g transform="matrix(1, 0, 0, 1, -9, -6)" filter="url(#Trazado_874925)">
                <g id="Trazado_874925-2" data-name="Trazado 874925" transform="translate(9 6)" fill="#9cc8ff" opacity="0.859">
                  <path d="M 49.99972534179688 98.4998779296875 C 43.45164108276367 98.4998779296875 37.10022354125977 97.21776580810547 31.12189674377441 94.68914794921875 C 25.34676742553711 92.24647521972656 20.15985298156738 88.74925994873047 15.70523929595947 84.29464721679688 C 11.25062561035156 79.84004974365234 7.753411293029785 74.65313720703125 5.310725212097168 68.87800598144531 C 2.782111167907715 62.89969253540039 1.499996781349182 56.54829406738281 1.499996781349182 50.00022125244141 C 1.499996781349182 43.45157623291016 2.782111167907715 37.10017776489258 5.310725212097168 31.12186431884766 C 7.753411293029785 25.34673500061035 11.25062561035156 20.15983581542969 15.70523929595947 15.70522117614746 C 20.15985298156738 11.25062084197998 25.34676742553711 7.753406524658203 31.12189674377441 5.31073522567749 C 37.10022354125977 2.782120943069458 43.45164108276367 1.500006556510925 49.99972534179688 1.500006556510925 C 56.54780960083008 1.500006556510925 62.89922714233398 2.782120943069458 68.87755584716797 5.31073522567749 C 74.65267944335938 7.753406524658203 79.839599609375 11.25062084197998 84.29421234130859 15.70522117614746 C 88.74882507324219 20.15983581542969 92.24604034423828 25.34673500061035 94.68872833251953 31.12186431884766 C 97.21733856201172 37.10017776489258 98.49945068359375 43.45157623291016 98.49945068359375 49.99964904785156 C 98.49945068359375 56.54829406738281 97.21733856201172 62.89969253540039 94.68872833251953 68.87800598144531 C 92.24604034423828 74.65313720703125 88.74882507324219 79.84004974365234 84.29421234130859 84.29464721679688 C 79.839599609375 88.74925994873047 74.65267944335938 92.24647521972656 68.87755584716797 94.68914794921875 C 62.89922714233398 97.21776580810547 56.54780960083008 98.4998779296875 49.99972534179688 98.4998779296875 Z" stroke="none"/>
                  <path d="M 49.99972534179688 3 C 43.65348052978516 3 37.49866485595703 4.242240905761719 31.70623016357422 6.692230224609375 C 26.10989379882812 9.059272766113281 21.08323669433594 12.44853210449219 16.76589202880859 16.76587677001953 C 12.44855499267578 21.08321380615234 9.059295654296875 26.10985565185547 6.692230224609375 31.70618438720703 C 4.24224853515625 37.49859619140625 3 43.65341186523438 3 50.00022888183594 C 3 56.34645843505859 4.24224853515625 62.50127410888672 6.692230224609375 68.29368591308594 C 9.059295654296875 73.8900146484375 12.44855499267578 78.91665649414062 16.76589202880859 83.23399353027344 C 21.08323669433594 87.55132293701172 26.10989379882812 90.94059753417969 31.70623016357422 93.30764007568359 C 37.49866485595703 95.75762939453125 43.65348052978516 96.99987030029297 49.99972534179688 96.99987030029297 C 56.34597015380859 96.99987030029297 62.50078582763672 95.75762939453125 68.293212890625 93.30764007568359 C 73.88955688476562 90.94059753417969 78.91621398925781 87.55132293701172 83.23355865478516 83.23399353027344 C 87.55089569091797 78.91665649414062 90.94015502929688 73.8900146484375 93.30722045898438 68.29368591308594 C 95.7572021484375 62.50127410888672 96.99945068359375 56.34645843505859 96.99945068359375 49.99964141845703 C 96.99945068359375 43.65341186523438 95.7572021484375 37.49859619140625 93.30722045898438 31.70618438720703 C 90.94015502929688 26.10985565185547 87.55089569091797 21.08321380615234 83.23355865478516 16.76587677001953 C 78.91621398925781 12.44853210449219 73.88955688476562 9.059272766113281 68.293212890625 6.692230224609375 C 62.50078582763672 4.242240905761719 56.34597015380859 3 49.99972534179688 3 M 49.99972534179688 0 C 77.61381530761719 0 99.99945068359375 22.38559722900391 99.99945068359375 49.99964141845703 L 99.99945068359375 50.00022888183594 C 99.99945068359375 77.6142578125 77.61381530761719 99.99987030029297 49.99972534179688 99.99987030029297 C 22.38563537597656 99.99987030029297 0 77.6142578125 0 50.00022888183594 L 0 49.99964141845703 C 0 22.38559722900391 22.38563537597656 0 49.99972534179688 0 Z" stroke="none" fill="#fff"/>
                </g>
              </g>
              <g id="Trazado_874923" data-name="Trazado 874923" transform="translate(0)" fill="none">
                <path d="M50,0a50,50,0,0,1,50,50h0A50,50,0,0,1,0,50H0A50,50,0,0,1,50,0Z" stroke="none"/>
                <path d="M 49.99972534179688 3 C 43.65348052978516 3 37.49866485595703 4.242240905761719 31.70623016357422 6.692230224609375 C 26.10989379882812 9.059272766113281 21.08323669433594 12.44853210449219 16.76589202880859 16.76587677001953 C 12.44855499267578 21.08321380615234 9.059295654296875 26.10985565185547 6.692230224609375 31.70618438720703 C 4.24224853515625 37.49859619140625 3 43.65341186523438 3 50.00022888183594 C 3 56.34645843505859 4.24224853515625 62.50127410888672 6.692230224609375 68.29368591308594 C 9.059295654296875 73.8900146484375 12.44855499267578 78.91665649414062 16.76589202880859 83.23399353027344 C 21.08323669433594 87.55132293701172 26.10989379882812 90.94059753417969 31.70623016357422 93.30764007568359 C 37.49866485595703 95.75762939453125 43.65348052978516 96.99987030029297 49.99972534179688 96.99987030029297 C 56.34597015380859 96.99987030029297 62.50078582763672 95.75762939453125 68.293212890625 93.30764007568359 C 73.88955688476562 90.94059753417969 78.91621398925781 87.55132293701172 83.23355865478516 83.23399353027344 C 87.55089569091797 78.91665649414062 90.94015502929688 73.8900146484375 93.30722045898438 68.29368591308594 C 95.7572021484375 62.50127410888672 96.99945068359375 56.34645843505859 96.99945068359375 49.99964141845703 C 96.99945068359375 43.65341186523438 95.7572021484375 37.49859619140625 93.30722045898438 31.70618438720703 C 90.94015502929688 26.10985565185547 87.55089569091797 21.08321380615234 83.23355865478516 16.76587677001953 C 78.91621398925781 12.44853210449219 73.88955688476562 9.059272766113281 68.293212890625 6.692230224609375 C 62.50078582763672 4.242240905761719 56.34597015380859 3 49.99972534179688 3 M 49.99972534179688 0 C 77.61381530761719 0 99.99945068359375 22.38559722900391 99.99945068359375 49.99964141845703 L 99.99945068359375 50.00022888183594 C 99.99945068359375 77.6142578125 77.61381530761719 99.99987030029297 49.99972534179688 99.99987030029297 C 22.38563537597656 99.99987030029297 0 77.6142578125 0 50.00022888183594 L 0 49.99964141845703 C 0 22.38559722900391 22.38563537597656 0 49.99972534179688 0 Z" stroke="none" fill="#fff"/>
              </g>
            </g>
          </g>
        </g>
      </g>
    </g>
    <g id="Grupo_1116198" data-name="Grupo 1116198" transform="translate(710.051 7253)">
      <g id="Grupo_1116196" data-name="Grupo 1116196" transform="translate(1.269 13.31)">
        <path id="Trazado_908836" data-name="Trazado 908836" d="M106.72,441.753h0a3.552,3.552,0,0,1-3.552-3.552V433h7.1v5.2A3.552,3.552,0,0,1,106.72,441.753Z" transform="translate(-91.349 -391.382)" fill="#898998"/>
        <path id="Trazado_908837" data-name="Trazado 908837" d="M356.638,441.753h0a3.552,3.552,0,0,1-3.552-3.552V433h7.1v5.2A3.552,3.552,0,0,1,356.638,441.753Z" transform="translate(-309.564 -391.382)" fill="#898998"/>
        <path id="Trazado_908838" data-name="Trazado 908838" d="M464.537,114.737h0A2.537,2.537,0,0,1,462,112.2v-4.74a2.537,2.537,0,0,1,2.537-2.537h0a2.537,2.537,0,0,1,2.537,2.537v4.74A2.537,2.537,0,0,1,464.537,114.737Z" transform="translate(-404.662 -104.922)" fill="#898998"/>
        <path id="Trazado_908839" data-name="Trazado 908839" d="M12.537,114.737h0a2.537,2.537,0,0,0,2.537-2.537v-4.74a2.537,2.537,0,0,0-2.537-2.537h0A2.537,2.537,0,0,0,10,107.459v4.74A2.537,2.537,0,0,0,12.537,114.737Z" transform="translate(-10 -104.922)" fill="#898998"/>
      </g>
      <path id="Trazado_908840" data-name="Trazado 908840" d="M115.21,10H79.205a5.074,5.074,0,0,0-5.074,5.074V58.585a5.074,5.074,0,0,0,5.074,5.074H115.21a5.074,5.074,0,0,0,5.074-5.074V15.074A5.074,5.074,0,0,0,115.21,10Z" transform="translate(-64.727 -8.731)" fill="#ff5d5d"/>
      <path id="Trazado_908841" data-name="Trazado 908841" d="M120.175,112.115l-5.382,5.382H79.382L74,112.115V90h46.17Z" transform="translate(-64.613 -78.583)" fill="#c9f3ff"/>
      <g id="Grupo_1116197" data-name="Grupo 1116197" transform="translate(15.228 44.384)">
        <circle id="Elipse_11758" data-name="Elipse 11758" cx="2.537" cy="2.537" r="2.537" fill="#fff"/>
        <circle id="Elipse_11759" data-name="Elipse 11759" cx="2.537" cy="2.537" r="2.537" transform="translate(29.42)" fill="#fff"/>
      </g>
      <rect id="Rect치ngulo_404954" data-name="Rect치ngulo 404954" width="13.193" height="5.074" transform="translate(25.889 44.384)" fill="#ffc66c"/>
      <rect id="Rect치ngulo_404955" data-name="Rect치ngulo 404955" width="16.68" height="5.004" transform="translate(24.186 6.571)" fill="#fff"/>
      <path id="Trazado_908842" data-name="Trazado 908842" d="M248.849,2.537a1.269,1.269,0,0,0,1.269-1.269,1.269,1.269,0,1,0-2.165.9A1.278,1.278,0,0,0,248.849,2.537Z" transform="translate(-216.173)"/>
      <path id="Trazado_908843" data-name="Trazado 908843" d="M62.413,12.26V8.689a3.493,3.493,0,0,0-3.49-3.49h-2.2A6.352,6.352,0,0,0,50.483,0H38.1a1.269,1.269,0,0,0,0,2.537H50.483a3.81,3.81,0,0,1,3.806,3.806v3.806H42.116V6.343a1.269,1.269,0,0,0-1.269-1.269H24.1a1.269,1.269,0,0,0-1.269,1.269v3.806H10.672V6.343a3.81,3.81,0,0,1,3.806-3.806H27.21A1.269,1.269,0,1,0,27.21,0H14.478A6.352,6.352,0,0,0,8.241,5.2H6.027a3.493,3.493,0,0,0-3.49,3.49V12.26A3.812,3.812,0,0,0,0,15.847v4.74a3.806,3.806,0,0,0,7.611,0v-4.74A3.812,3.812,0,0,0,5.074,12.26V8.689a.953.953,0,0,1,.952-.952H8.135V49.854a6.35,6.35,0,0,0,3.683,5.756v4.519a4.82,4.82,0,0,0,9.641,0V56.2H43.522v3.933a4.82,4.82,0,0,0,9.641,0V55.6a6.35,6.35,0,0,0,3.663-5.747V7.736h2.1a.953.953,0,0,1,.952.952V12.26a3.812,3.812,0,0,0-2.537,3.587v4.74a3.806,3.806,0,1,0,7.611,0v-4.74A3.812,3.812,0,0,0,62.413,12.26ZM5.074,20.587a1.269,1.269,0,0,1-2.537,0v-4.74a1.269,1.269,0,0,1,2.537,0ZM25.787,29.76a1.269,1.269,0,0,0-1.794,0l-7.885,7.885H15.3l-3.923-3.923L31.207,13.887V37.645H19.7l6.091-6.091A1.268,1.268,0,0,0,25.787,29.76ZM41.436,12.685l-3.952,3.952a1.269,1.269,0,1,0,1.794,1.794l5.746-5.746h7.464L33.744,31.43V12.685ZM33.744,35.018,54.289,14.473V33.011l-4.634,4.634H33.744ZM25.371,7.611H39.579v2.537H25.371Zm3.449,5.074L10.672,30.833V12.685Zm-9.9,47.444a2.283,2.283,0,0,1-4.567,0V56.2h4.567Zm31.7-3.933v3.933a2.283,2.283,0,0,1-4.567,0V56.2h4.567Zm-.143-2.537H14.478a3.81,3.81,0,0,1-3.806-3.806V36.611l3.2,3.2a1.269,1.269,0,0,0,.9.372H50.18a1.269,1.269,0,0,0,.9-.372L54.289,36.6V49.854A3.81,3.81,0,0,1,50.483,53.66ZM62.413,20.587a1.269,1.269,0,1,1-2.537,0v-4.74a1.269,1.269,0,1,1,2.537,0Z"/>
      <path id="Trazado_908844" data-name="Trazado 908844" d="M113.85,339.88a3.806,3.806,0,1,0,3.806,3.806A3.81,3.81,0,0,0,113.85,339.88Zm0,5.074a1.269,1.269,0,1,1,1.269-1.269A1.27,1.27,0,0,1,113.85,344.954Z" transform="translate(-96.084 -296.765)"/>
      <path id="Trazado_908845" data-name="Trazado 908845" d="M345.762,339.88a3.806,3.806,0,1,0,3.806,3.806A3.81,3.81,0,0,0,345.762,339.88Zm0,5.074a1.269,1.269,0,1,1,1.269-1.269A1.27,1.27,0,0,1,345.762,344.954Z" transform="translate(-298.577 -296.765)"/>
      <path id="Trazado_908846" data-name="Trazado 908846" d="M208.544,339.88H195.352a1.269,1.269,0,0,0-1.269,1.269v5.074a1.269,1.269,0,0,0,1.269,1.269h13.193a1.269,1.269,0,0,0,1.269-1.269v-5.074A1.269,1.269,0,0,0,208.544,339.88Zm-1.269,5.074H196.62v-2.537h10.656Z" transform="translate(-169.463 -296.765)"/>
    </g>
  </g>
</svg>
