<svg xmlns="http://www.w3.org/2000/svg" xmlns:xlink="http://www.w3.org/1999/xlink" width="118" height="118" viewBox="0 0 118 118">
  <defs>
    <filter id="Trazado_874925" x="0" y="0" width="118" height="118" filterUnits="userSpaceOnUse">
      <feOffset dy="3" input="SourceAlpha"/>
      <feGaussianBlur stdDeviation="3" result="blur"/>
      <feFlood flood-opacity="0.161"/>
      <feComposite operator="in" in2="blur"/>
      <feComposite in="SourceGraphic"/>
    </filter>
  </defs>
  <g id="Grupo_1116230" data-name="Grupo 1116230" transform="translate(-4477 4378.834)">
    <g id="Grupo_1112560" data-name="Grupo 1112560" transform="translate(3683.219 -6312.833)">
      <g id="Grupo_1111552" data-name="Grupo 1111552" transform="translate(-5.719 -577.158)">
        <g id="Grupo_1111316" data-name="Grupo 1111316" transform="translate(808.5 2517.157)">
          <g id="Grupo_1109835" data-name="Grupo 1109835" transform="translate(0 0)">
            <g id="Grupo_1107913" data-name="Grupo 1107913" transform="translate(0 0)">
              <g transform="matrix(1, 0, 0, 1, -9, -6)" filter="url(#Trazado_874925)">
                <g id="Trazado_874925-2" data-name="Trazado 874925" transform="translate(9 6)" fill="#9cc8ff" opacity="0.859">
                  <path d="M 49.99972534179688 98.4998779296875 C 43.45164108276367 98.4998779296875 37.10022354125977 97.21776580810547 31.12189674377441 94.68914794921875 C 25.34676742553711 92.24647521972656 20.15985298156738 88.74925994873047 15.70523929595947 84.29464721679688 C 11.25062561035156 79.84004974365234 7.753411293029785 74.65313720703125 5.310725212097168 68.87800598144531 C 2.782111167907715 62.89969253540039 1.499996781349182 56.54829406738281 1.499996781349182 50.00022125244141 C 1.499996781349182 43.45157623291016 2.782111167907715 37.10017776489258 5.310725212097168 31.12186431884766 C 7.753411293029785 25.34673500061035 11.25062561035156 20.15983581542969 15.70523929595947 15.70522117614746 C 20.15985298156738 11.25062084197998 25.34676742553711 7.753406524658203 31.12189674377441 5.31073522567749 C 37.10022354125977 2.782120943069458 43.45164108276367 1.500006556510925 49.99972534179688 1.500006556510925 C 56.54780960083008 1.500006556510925 62.89922714233398 2.782120943069458 68.87755584716797 5.31073522567749 C 74.65267944335938 7.753406524658203 79.839599609375 11.25062084197998 84.29421234130859 15.70522117614746 C 88.74882507324219 20.15983581542969 92.24604034423828 25.34673500061035 94.68872833251953 31.12186431884766 C 97.21733856201172 37.10017776489258 98.49945068359375 43.45157623291016 98.49945068359375 49.99964904785156 C 98.49945068359375 56.54829406738281 97.21733856201172 62.89969253540039 94.68872833251953 68.87800598144531 C 92.24604034423828 74.65313720703125 88.74882507324219 79.84004974365234 84.29421234130859 84.29464721679688 C 79.839599609375 88.74925994873047 74.65267944335938 92.24647521972656 68.87755584716797 94.68914794921875 C 62.89922714233398 97.21776580810547 56.54780960083008 98.4998779296875 49.99972534179688 98.4998779296875 Z" stroke="none"/>
                  <path d="M 49.99972534179688 3 C 43.65348052978516 3 37.49866485595703 4.242240905761719 31.70623016357422 6.692230224609375 C 26.10989379882812 9.059272766113281 21.08323669433594 12.44853210449219 16.76589202880859 16.76587677001953 C 12.44855499267578 21.08321380615234 9.059295654296875 26.10985565185547 6.692230224609375 31.70618438720703 C 4.24224853515625 37.49859619140625 3 43.65341186523438 3 50.00022888183594 C 3 56.34645843505859 4.24224853515625 62.50127410888672 6.692230224609375 68.29368591308594 C 9.059295654296875 73.8900146484375 12.44855499267578 78.91665649414062 16.76589202880859 83.23399353027344 C 21.08323669433594 87.55132293701172 26.10989379882812 90.94059753417969 31.70623016357422 93.30764007568359 C 37.49866485595703 95.75762939453125 43.65348052978516 96.99987030029297 49.99972534179688 96.99987030029297 C 56.34597015380859 96.99987030029297 62.50078582763672 95.75762939453125 68.293212890625 93.30764007568359 C 73.88955688476562 90.94059753417969 78.91621398925781 87.55132293701172 83.23355865478516 83.23399353027344 C 87.55089569091797 78.91665649414062 90.94015502929688 73.8900146484375 93.30722045898438 68.29368591308594 C 95.7572021484375 62.50127410888672 96.99945068359375 56.34645843505859 96.99945068359375 49.99964141845703 C 96.99945068359375 43.65341186523438 95.7572021484375 37.49859619140625 93.30722045898438 31.70618438720703 C 90.94015502929688 26.10985565185547 87.55089569091797 21.08321380615234 83.23355865478516 16.76587677001953 C 78.91621398925781 12.44853210449219 73.88955688476562 9.059272766113281 68.293212890625 6.692230224609375 C 62.50078582763672 4.242240905761719 56.34597015380859 3 49.99972534179688 3 M 49.99972534179688 0 C 77.61381530761719 0 99.99945068359375 22.38559722900391 99.99945068359375 49.99964141845703 L 99.99945068359375 50.00022888183594 C 99.99945068359375 77.6142578125 77.61381530761719 99.99987030029297 49.99972534179688 99.99987030029297 C 22.38563537597656 99.99987030029297 0 77.6142578125 0 50.00022888183594 L 0 49.99964141845703 C 0 22.38559722900391 22.38563537597656 0 49.99972534179688 0 Z" stroke="none" fill="#fff"/>
                </g>
              </g>
              <g id="Trazado_874923" data-name="Trazado 874923" transform="translate(0 0)" fill="none">
                <path d="M50,0a50,50,0,0,1,50,50h0A50,50,0,0,1,0,50H0A50,50,0,0,1,50,0Z" stroke="none"/>
                <path d="M 49.99972534179688 3 C 43.65348052978516 3 37.49866485595703 4.242240905761719 31.70623016357422 6.692230224609375 C 26.10989379882812 9.059272766113281 21.08323669433594 12.44853210449219 16.76589202880859 16.76587677001953 C 12.44855499267578 21.08321380615234 9.059295654296875 26.10985565185547 6.692230224609375 31.70618438720703 C 4.24224853515625 37.49859619140625 3 43.65341186523438 3 50.00022888183594 C 3 56.34645843505859 4.24224853515625 62.50127410888672 6.692230224609375 68.29368591308594 C 9.059295654296875 73.8900146484375 12.44855499267578 78.91665649414062 16.76589202880859 83.23399353027344 C 21.08323669433594 87.55132293701172 26.10989379882812 90.94059753417969 31.70623016357422 93.30764007568359 C 37.49866485595703 95.75762939453125 43.65348052978516 96.99987030029297 49.99972534179688 96.99987030029297 C 56.34597015380859 96.99987030029297 62.50078582763672 95.75762939453125 68.293212890625 93.30764007568359 C 73.88955688476562 90.94059753417969 78.91621398925781 87.55132293701172 83.23355865478516 83.23399353027344 C 87.55089569091797 78.91665649414062 90.94015502929688 73.8900146484375 93.30722045898438 68.29368591308594 C 95.7572021484375 62.50127410888672 96.99945068359375 56.34645843505859 96.99945068359375 49.99964141845703 C 96.99945068359375 43.65341186523438 95.7572021484375 37.49859619140625 93.30722045898438 31.70618438720703 C 90.94015502929688 26.10985565185547 87.55089569091797 21.08321380615234 83.23355865478516 16.76587677001953 C 78.91621398925781 12.44853210449219 73.88955688476562 9.059272766113281 68.293212890625 6.692230224609375 C 62.50078582763672 4.242240905761719 56.34597015380859 3 49.99972534179688 3 M 49.99972534179688 0 C 77.61381530761719 0 99.99945068359375 22.38559722900391 99.99945068359375 49.99964141845703 L 99.99945068359375 50.00022888183594 C 99.99945068359375 77.6142578125 77.61381530761719 99.99987030029297 49.99972534179688 99.99987030029297 C 22.38563537597656 99.99987030029297 0 77.6142578125 0 50.00022888183594 L 0 49.99964141845703 C 0 22.38559722900391 22.38563537597656 0 49.99972534179688 0 Z" stroke="none" fill="#fff"/>
              </g>
            </g>
          </g>
        </g>
      </g>
    </g>
    <g id="Grupo_1116229" data-name="Grupo 1116229" transform="translate(4507.983 -4377.28)">
      <rect id="Rectángulo_404956" data-name="Rectángulo 404956" width="6.094" height="3.721" transform="translate(8.065 33.129)" fill="#48c1e1"/>
      <path id="Trazado_908874" data-name="Trazado 908874" d="M64.761,39.113a.608.608,0,0,1-.606.606H56.76a.608.608,0,0,1-.606-.606V34.743a.608.608,0,0,1,.606-.606h7.395a.608.608,0,0,1,.606.606v4.369Z" transform="translate(-49.346 -6.591)" fill="#046699"/>
      <g id="Grupo_1116224" data-name="Grupo 1116224" transform="translate(6.808 27.546)" opacity="0.1">
        <path id="Trazado_908875" data-name="Trazado 908875" d="M58.682,39.113V34.743a.608.608,0,0,1,.606-.606H56.76a.608.608,0,0,0-.606.606v4.369a.608.608,0,0,0,.606.606h2.528A.608.608,0,0,1,58.682,39.113Z" transform="translate(-56.154 -34.137)"/>
      </g>
      <path id="Trazado_908876" data-name="Trazado 908876" d="M34.073,139.84a.646.646,0,0,1-.091-.318c0-.807,1.657-1.461,3.7-1.461a8.269,8.269,0,0,1,1.971.225,21.963,21.963,0,0,1-.654-5.35.609.609,0,0,1,.609-.61h1.06a3.966,3.966,0,0,1-.023-.423,3.9,3.9,0,0,1,2.719-3.717,3.676,3.676,0,0,1,1.779-4.927,3.635,3.635,0,0,1-.16-.607,3.677,3.677,0,0,1,1.329-3.5v-4.9a3.389,3.389,0,0,0-3.375-3.383H35.172a3.389,3.389,0,0,0-3.375,3.383V141.2A8.955,8.955,0,0,1,34.073,139.84Z" transform="translate(-27.942 -74.02)" fill="#a2dff9"/>
      <path id="Trazado_908877" data-name="Trazado 908877" d="M43.363,172.844a3.676,3.676,0,0,1,1.779-4.927,3.634,3.634,0,0,1-.16-.607,3.677,3.677,0,0,1,1.329-3.5v-2.121H31.8V174.21h9.635A3.893,3.893,0,0,1,43.363,172.844Z" transform="translate(-27.942 -118.677)" fill="#046699"/>
      <path id="Trazado_908878" data-name="Trazado 908878" d="M34.073,139.84a.646.646,0,0,1-.091-.318c0-.5.633-.938,1.6-1.2V114.252a3.389,3.389,0,0,1,3.375-3.383H35.172a3.389,3.389,0,0,0-3.375,3.383V141.2A8.956,8.956,0,0,1,34.073,139.84Z" transform="translate(-27.942 -74.02)" opacity="0.1"/>
      <path id="Trazado_908879" data-name="Trazado 908879" d="M239.512,141.137a3.687,3.687,0,0,1,.054.625,3.675,3.675,0,0,1,3.238,2.759,3.867,3.867,0,0,1,2.278-1.026,6.6,6.6,0,0,1,1.924-4.449c.044-.044.089-.087.134-.129a8.105,8.105,0,0,0-2.252-4.344.634.634,0,0,0-.9,0l-5.083,5.094A3.657,3.657,0,0,1,239.512,141.137Z" transform="translate(-209.943 -94.685)" fill="#ef5050"/>
      <path id="Trazado_908880" data-name="Trazado 908880" d="M290.2,163.245a3.89,3.89,0,0,1,3.736,2.818,3.342,3.342,0,0,1,.358.232,3.326,3.326,0,0,1,2.947-1.487c.087-.078.172-.158.256-.241l.07-.073a3.9,3.9,0,0,1,1.168-1.652,6.606,6.606,0,0,0,.223-5.376.209.209,0,0,0-.117-.118,6.584,6.584,0,0,0-9.009,5.914C289.958,163.251,290.08,163.245,290.2,163.245Z" transform="translate(-254.696 -114.453)" fill="#89c947"/>
      <g id="Grupo_1116225" data-name="Grupo 1116225" transform="translate(12.702 47.493)">
        <path id="Trazado_908881" data-name="Trazado 908881" d="M357.376,204.989a6.032,6.032,0,0,1,2.947-1.626,3.887,3.887,0,0,0-7.555-1.824,3.314,3.314,0,0,1,2.928,3.292,3.3,3.3,0,0,1,1.4.456C357.189,205.185,357.28,205.085,357.376,204.989Z" transform="translate(-322.701 -198.658)" fill="#ffc502"/>
        <path id="Trazado_908882" data-name="Trazado 908882" d="M107.488,253.7a3.9,3.9,0,0,0-2.719,3.717,3.962,3.962,0,0,0,.023.423h5.536a6.066,6.066,0,0,1-.723-2.254A3.681,3.681,0,0,1,107.488,253.7Z" transform="translate(-104.769 -247.028)" fill="#ffc502"/>
      </g>
      <path id="Trazado_908883" data-name="Trazado 908883" d="M395.388,236.771a.191.191,0,0,0-.043-.065.2.2,0,0,0-.065-.043,6.03,6.03,0,0,0-6.507,1.346c-.1.1-.188.2-.276.3a3.31,3.31,0,0,1,1.343,4.184h4.877A6.065,6.065,0,0,0,395.388,236.771Z" transform="translate(-341.395 -184.185)" fill="#89c947"/>
      <path id="Trazado_908884" data-name="Trazado 908884" d="M107.488,253.7a3.9,3.9,0,0,0-2.719,3.717,3.962,3.962,0,0,0,.023.423h5.536a6.066,6.066,0,0,1-.723-2.254A3.681,3.681,0,0,1,107.488,253.7Z" transform="translate(-92.067 -199.535)" fill="#ffc502"/>
      <g id="Grupo_1116226" data-name="Grupo 1116226" transform="translate(15.06 43.406)">
        <path id="Trazado_908885" data-name="Trazado 908885" d="M127.081,174.662a.189.189,0,0,1,.043-.065.193.193,0,0,1,.065-.043,6.039,6.039,0,0,1,7.073,2,8.154,8.154,0,0,1-.151-1.56.635.635,0,0,1,.635-.636h6.034c0-.043,0-.086,0-.13a3.889,3.889,0,0,1,1.24-2.852,3.675,3.675,0,0,0-3.238-2.759,3.68,3.68,0,0,0-6.749-2.019,3.683,3.683,0,0,0-5.834,3.575,3.632,3.632,0,0,0,.16.607,3.674,3.674,0,0,0,.339,6.813A6.061,6.061,0,0,1,127.081,174.662Z" transform="translate(-124.215 -164.946)" fill="#368c0e"/>
        <path id="Trazado_908886" data-name="Trazado 908886" d="M333.121,228.28a3.319,3.319,0,0,0-2.978-2.738,3.323,3.323,0,0,0-6.1-1.824,3.338,3.338,0,0,0-.358-.232,3.911,3.911,0,0,1,.152,1.078c0,.044,0,.087,0,.13h1.182a.636.636,0,0,1,.635.636,8.115,8.115,0,0,1-1.6,4.852h8.837A3.3,3.3,0,0,0,333.121,228.28Z" transform="translate(-299.505 -215.282)" fill="#368c0e"/>
      </g>
      <path id="Trazado_908887" data-name="Trazado 908887" d="M268.585,213.4c0-.043,0-.086,0-.13a3.887,3.887,0,1,0-7.775,0c0,.044,0,.087,0,.13Z" transform="translate(-229.192 -160.58)" fill="#f7931e"/>
      <path id="Trazado_908888" data-name="Trazado 908888" d="M151.927,243.077a6.039,6.039,0,0,0-7.073-2,.193.193,0,0,0-.108.108,6.067,6.067,0,0,0,.336,5.185h8.04c-.008-.145-.023-.289-.041-.433A8.108,8.108,0,0,1,151.927,243.077Z" transform="translate(-126.82 -188.062)" fill="#89c947"/>
      <path id="Trazado_908889" data-name="Trazado 908889" d="M220.485,248.068a8.115,8.115,0,0,0,1.6-4.852.636.636,0,0,0-.635-.636H206.469a.635.635,0,0,0-.635.636,8.115,8.115,0,0,0,1.6,4.852Z" transform="translate(-180.879 -189.762)" fill="#ef5050"/>
      <path id="Trazado_908890" data-name="Trazado 908890" d="M92.9,294.2a6.56,6.56,0,0,1,3.027-.621c2.043,0,3.7.654,3.7,1.461a.645.645,0,0,1-.091.318,8.233,8.233,0,0,1,5.146,6.352l18.578-7.058a3.266,3.266,0,0,1,4.373,2.447l.162.874,6.354-3.751a21.911,21.911,0,0,0,.762-5.769.609.609,0,0,0-.609-.61H91.8a.609.609,0,0,0-.609.61,21.963,21.963,0,0,0,.654,5.35A4.327,4.327,0,0,1,92.9,294.2Z" transform="translate(-80.139 -229.542)" fill="#fff"/>
      <g id="Grupo_1116227" data-name="Grupo 1116227" transform="translate(11.056 58.306)" opacity="0.1">
        <path id="Trazado_908891" data-name="Trazado 908891" d="M92.9,294.2a6.224,6.224,0,0,1,2.671-.614,21.988,21.988,0,0,1-.6-5.132.609.609,0,0,1,.609-.61H91.8a.609.609,0,0,0-.609.61,21.963,21.963,0,0,0,.654,5.35A4.327,4.327,0,0,1,92.9,294.2Z" transform="translate(-91.195 -287.848)"/>
      </g>
      <path id="Trazado_908892" data-name="Trazado 908892" d="M21.977,362.688l-.031-.169a3.249,3.249,0,0,1,2.047-3.627l7.148-2.715a8.233,8.233,0,0,0-5.146-6.352,3.545,3.545,0,0,1-2.555,1.082c.936.749,1.365,1.536.983,1.966-.505.57-2.239.3-3.873-.6a7.4,7.4,0,0,1-1.19-.81,7.377,7.377,0,0,1-1.19.81c-1.633.9-3.368,1.175-3.873.6-.381-.431.047-1.217.983-1.966a3.546,3.546,0,0,1-2.555-1.082A8.118,8.118,0,0,0,7.5,357.233c0,4.482,3.952,8.116,8.827,8.116h6.06a9.628,9.628,0,0,0,1.779-.165A3.253,3.253,0,0,1,21.977,362.688Z" transform="translate(-6.592 -284.005)" fill="#ef5050"/>
      <path id="Trazado_908893" data-name="Trazado 908893" d="M126.273,356.021a3.26,3.26,0,0,0,3.211,2.661l27.535-.011a3.255,3.255,0,0,0,3.209-3.84l-1.839-9.931a3.266,3.266,0,0,0-4.373-2.447l-25.726,9.773a3.249,3.249,0,0,0-2.047,3.627Z" transform="translate(-110.888 -277.338)" fill="#f7931e"/>
      <path id="Trazado_908894" data-name="Trazado 908894" d="M11.319,357.233a7.89,7.89,0,0,1,3.414-6.409,3,3,0,0,1-2.011-1A8.118,8.118,0,0,0,7.5,357.233c0,4.482,3.952,8.116,8.827,8.116h3.819C15.271,365.349,11.319,361.715,11.319,357.233Z" transform="translate(-6.591 -284.005)" opacity="0.1"/>
      <path id="Trazado_908895" data-name="Trazado 908895" d="M63.271,336.612c0-.807-1.656-1.461-3.7-1.461a6.561,6.561,0,0,0-3.027.621,6.558,6.558,0,0,0-3.027-.621c-2.043,0-3.7.654-3.7,1.461,0,.662,1.116,1.221,2.646,1.4-.936.749-1.364,1.536-.983,1.966.505.57,2.24.3,3.873-.6a7.37,7.37,0,0,0,1.19-.81,7.4,7.4,0,0,0,1.19.81c1.634.9,3.368,1.175,3.873.6.381-.431-.047-1.217-.983-1.966C62.155,337.833,63.271,337.274,63.271,336.612Z" transform="translate(-43.778 -271.11)" fill="#368c0e"/>
      <path id="Trazado_908896" data-name="Trazado 908896" d="M406.609,340.929l-.237-1.279a.816.816,0,0,0-.95-.652l-9.148,1.68,5.841-3.9a.809.809,0,0,0,.256-1.073l-.661-1.171a.818.818,0,0,0-1.127-.3l-7.464,4.406,1.457,7.867,8.561,1.538a.815.815,0,0,0,.952-.68l.2-1.322a.81.81,0,0,0-.624-.911l-6.855-1.572,9.148-1.681A.813.813,0,0,0,406.609,340.929Z" transform="translate(-345.457 -270.2)" fill="#89c947"/>
      <g id="Grupo_1116228" data-name="Grupo 1116228" transform="translate(15.299 76.602)" opacity="0.1">
        <path id="Trazado_908897" data-name="Trazado 908897" d="M160.066,438.754a3.259,3.259,0,0,1-3.044,2.08l-27.535.011a3.263,3.263,0,0,1-3.031-2.047,3.228,3.228,0,0,0-.211,1.868l.031.169a3.26,3.26,0,0,0,3.211,2.661l27.535-.011a3.255,3.255,0,0,0,3.209-3.84Z" transform="translate(-126.191 -438.754)"/>
      </g>
      <path id="Trazado_908898" data-name="Trazado 908898" d="M158.3,194.986h.016a.909.909,0,0,0,.909-.894,1.01,1.01,0,0,1,1.028-.993,1,1,0,0,1,.728.328.909.909,0,1,0,1.343-1.227,2.83,2.83,0,0,0-4.918,1.861A.909.909,0,0,0,158.3,194.986Z" transform="translate(-138.318 -144.682)"/>
      <path id="Trazado_908899" data-name="Trazado 908899" d="M198.187,213.146a.908.908,0,0,0,1.169-.536.782.782,0,0,1,1-.46.768.768,0,0,1,.445.424.909.909,0,0,0,1.674-.712,2.6,2.6,0,0,0-4.826.115A.909.909,0,0,0,198.187,213.146Z" transform="translate(-173.637 -161.38)"/>
      <path id="Trazado_908900" data-name="Trazado 908900" d="M267.248,157.371a.907.907,0,0,0,.644-.267l.857-.859a.909.909,0,0,0-1.287-1.285l-.857.859a.909.909,0,0,0,.644,1.552Z" transform="translate(-234.048 -112.531)"/>
      <path id="Trazado_908901" data-name="Trazado 908901" d="M224.17,253.709h-1.212a.909.909,0,0,0,0,1.819h1.212a.909.909,0,0,0,0-1.819Z" transform="translate(-195.128 -199.542)"/>
      <path id="Trazado_908902" data-name="Trazado 908902" d="M299.6,255.528h1.212a.909.909,0,0,0,0-1.819H299.6a.909.909,0,0,0,0,1.819Z" transform="translate(-262.479 -199.542)"/>
      <path id="Trazado_908903" data-name="Trazado 908903" d="M62.046,70.563l-.237-1.278A1.725,1.725,0,0,0,59.8,67.9l-4.821.886,2.183-1.459a1.718,1.718,0,0,0,.543-2.276l-.661-1.17a1.72,1.72,0,0,0-1.727-.861,23,23,0,0,0,.368-4.107,1.52,1.52,0,0,0-.9-1.388,6.973,6.973,0,0,0,.055-5.276,1.1,1.1,0,0,0-.617-.619,6.918,6.918,0,0,0-2.57-.494q-.169,0-.337.008a4.794,4.794,0,0,0-5.776-4.461,7.492,7.492,0,0,0-.424-4,1.118,1.118,0,0,0-.629-.634,7.474,7.474,0,0,0-6.755.62,8.993,8.993,0,0,0-2.141-3.426,1.544,1.544,0,0,0-2.185,0L29,43.658A4.57,4.57,0,0,0,25.951,42.5a4.6,4.6,0,0,0-3.283,1.378,4.57,4.57,0,0,0-3.391-.242v-3.4a4.293,4.293,0,0,0-4.21-4.29V34.014a1.517,1.517,0,0,0,1.257-1.492V28.153a1.517,1.517,0,0,0-1.516-1.516H7.414A1.517,1.517,0,0,0,5.9,28.153v4.369a1.517,1.517,0,0,0,1.257,1.492v1.928a4.293,4.293,0,0,0-4.21,4.29V66.771A8.686,8.686,0,0,0,0,73.228c0,4.976,4.368,9.025,9.736,9.025l36.395-.011A4.162,4.162,0,0,0,50.25,77.43l7.269,1.306a1.738,1.738,0,0,0,.306.027A1.724,1.724,0,0,0,59.531,77.3l.2-1.321a1.719,1.719,0,0,0-1.32-1.932l-2.562-.588,4.816-.885a1.722,1.722,0,0,0,1.384-2.007Zm-10.4-17.6a5.1,5.1,0,0,1,1.6.258,5.15,5.15,0,0,1-.435,4.181H50.37l.782-.783a.909.909,0,0,0-1.287-1.285l-.414.415a4.217,4.217,0,0,0-.977-1.679A5.084,5.084,0,0,1,51.651,52.958ZM46.523,48.4A2.986,2.986,0,0,1,49.5,51.389c0,.031,0,.061,0,.091a6.909,6.909,0,0,0-2.6,1.54c-.12-.045-.242-.088-.366-.122a4.218,4.218,0,0,0-2.514-3.127A2.973,2.973,0,0,1,46.523,48.4Zm-4.807-5.065a5.633,5.633,0,0,1,1.809.3,5.7,5.7,0,0,1-.225,4.2,4.829,4.829,0,0,0-1.165,1.615,4.291,4.291,0,0,0-.485.055,4.246,4.246,0,0,0-1.933.882,4.812,4.812,0,0,0-.688-.955l2.085-2.09a.909.909,0,0,0-1.288-1.284l-2.279,2.284a4.753,4.753,0,0,0-1.395-.414,5.675,5.675,0,0,1,5.563-4.59ZM34.749,57.4H33.96a.908.908,0,0,0-1.692,0h-.927a.909.909,0,0,0-1.418-1.117l-.857.859a.9.9,0,0,0-.18.258H27.036a7.192,7.192,0,0,1-1.166-3.67H40.3a7.192,7.192,0,0,1-1.166,3.67H37.2a.906.906,0,0,0-.18-.258l-.857-.859A.909.909,0,0,0,34.749,57.4Zm-2.115-5.488a2.975,2.975,0,0,1,5.749,0Zm1.859-11.181a7.191,7.191,0,0,1,1.717,3.211,7.489,7.489,0,0,0-1.154,1.655.9.9,0,0,0-.474-.134H33.371a.909.909,0,0,0,0,1.819h1.063a7.53,7.53,0,0,0-.14.761,4.756,4.756,0,0,0-1.029.4,4.59,4.59,0,0,0-2.8-2.138V46.3a4.6,4.6,0,0,0-.365-1.165Zm-14.3,4.547a2.805,2.805,0,0,1,.48-.042,2.748,2.748,0,0,1,1.655.552.909.909,0,0,0,1.3-.226,2.753,2.753,0,0,1,1.839-1.2,2.805,2.805,0,0,1,.481-.042,2.758,2.758,0,0,1,2.722,2.292,2.787,2.787,0,0,1,.04.471.909.909,0,0,0,.83.9,2.767,2.767,0,0,1,2.283,1.63,4.794,4.794,0,0,0-1.051,2.3H25.59a1.546,1.546,0,0,0-1.429.961,6.939,6.939,0,0,0-6.465-.7,1.1,1.1,0,0,0-.616.618,6.967,6.967,0,0,0-.424,1.616,2.767,2.767,0,0,1,.925-4.337.909.909,0,0,0,.475-1.132,2.745,2.745,0,0,1-.12-.456A2.775,2.775,0,0,1,20.194,45.275Zm.572,11.873.248.249H18.831a5.152,5.152,0,0,1-.167-3.647,5.116,5.116,0,0,1,5.594,1.655,8.983,8.983,0,0,0,.7,1.991h-1.37l-1.53-1.533a.909.909,0,0,0-1.287,1.285Zm-5.7-1.826A4.572,4.572,0,0,0,16.721,56.7a7.033,7.033,0,0,0,.173.7H13.652A2.991,2.991,0,0,1,15.062,55.323ZM7.717,28.456h6.788v3.763H7.717Zm5.532,5.582v1.9H8.974v-1.9ZM4.764,43.92h5.9a.909.909,0,0,0,0-1.819h-5.9V40.232A2.473,2.473,0,0,1,7.23,37.759h7.763a2.473,2.473,0,0,1,2.466,2.474V42.1h-1.7a.909.909,0,1,0,0,1.819h1.7v.807a4.583,4.583,0,0,0-1.316,4.06l0,.009a4.6,4.6,0,0,0-1.927,4.566c.018.1.041.207.065.308a4.822,4.822,0,0,0-1.212.952H4.764Zm0,12.522h7.252a4.77,4.77,0,0,0-.2.955h-.153a1.52,1.52,0,0,0-1.518,1.519,23.01,23.01,0,0,0,.394,4.248c-.261-.021-.529-.032-.8-.032a8.286,8.286,0,0,0-2.95.491c-1.228.485-1.567,1.173-1.641,1.649-.13.065-.258.133-.384.2V56.442Zm11.514,11.17a3.442,3.442,0,0,1,.644.645h-.034a5.65,5.65,0,0,1-2.491-.79,6.553,6.553,0,0,1-1.043-.708.909.909,0,0,0-1.176,0,6.515,6.515,0,0,1-1.043.708,5.65,5.65,0,0,1-2.491.79H8.611a3.438,3.438,0,0,1,.644-.646A.909.909,0,0,0,8.792,66a4.344,4.344,0,0,1-1.711-.494A5.179,5.179,0,0,1,9.74,64.95a5.668,5.668,0,0,1,2.582.5.91.91,0,0,0,.89,0,5.67,5.67,0,0,1,2.582-.5,5.179,5.179,0,0,1,2.659.555A4.341,4.341,0,0,1,16.741,66a.909.909,0,0,0-.463,1.613ZM1.819,73.228a7.143,7.143,0,0,1,4.1-6.312,3.907,3.907,0,0,0,1.046.536,2.154,2.154,0,0,0-.306.9,1.481,1.481,0,0,0,.362,1.121,2.064,2.064,0,0,0,1.622.605,7.51,7.51,0,0,0,3.372-1.017q.4-.22.75-.463.352.242.75.463a7.513,7.513,0,0,0,3.372,1.017h0a2.064,2.064,0,0,0,1.622-.6,1.48,1.48,0,0,0,.362-1.121,2.154,2.154,0,0,0-.306-.9,3.915,3.915,0,0,0,1.046-.536,7.357,7.357,0,0,1,3.9,4.678l-6.431,2.443A4.158,4.158,0,0,0,14.46,78.68l.031.169a4.141,4.141,0,0,0,.655,1.586H9.736C5.371,80.435,1.819,77.2,1.819,73.228Zm46.122,6.351a2.353,2.353,0,0,1-1.81.845h-.954l-.6-3.22a.909.909,0,0,0-1.788.331l.535,2.889H40.2l-.4-2.177a.909.909,0,0,0-1.788.331l.342,1.847-7.277,0-.548-2.957a.909.909,0,0,0-1.788.331l.487,2.626-10.626,0h0a2.351,2.351,0,0,1-2.316-1.918l-.031-.169a2.34,2.34,0,0,1,1.475-2.611L21.3,74.38l.266,1.437a.91.91,0,0,0,.893.744.921.921,0,0,0,.167-.015.909.909,0,0,0,.728-1.06l-.326-1.762,5.3-2.015a.909.909,0,0,0-.646-1.7l-2.469.938a9.215,9.215,0,0,0-4.831-5.673c-.074-.476-.413-1.165-1.641-1.649a8.286,8.286,0,0,0-2.95-.491,9.225,9.225,0,0,0-2.117.236v-.549A.908.908,0,0,0,12.2,62.1a21.242,21.242,0,0,1-.237-2.889H41.585a.909.909,0,1,0,0-1.819h-.372a9,9,0,0,0,.906-3.943,1.547,1.547,0,0,0-1.4-1.538,2.4,2.4,0,0,1,1.239-.62,2.453,2.453,0,0,1,.419-.036,2.4,2.4,0,0,1,2.372,2,2.432,2.432,0,0,1,.035.411.909.909,0,0,0,.83.9,2.41,2.41,0,0,1,2.162,1.987,2.377,2.377,0,0,1-.006.838H46.8a.909.909,0,1,0,0,1.819h7.067a20.96,20.96,0,0,1-.638,4.878L48.3,67a4.174,4.174,0,0,0-5.5-2.739L32.654,68.119a.909.909,0,0,0,.646,1.7l1.337-.508.415,2.241a.91.91,0,0,0,.893.744.921.921,0,0,0,.167-.015.909.909,0,0,0,.729-1.06l-.475-2.567,7.084-2.691a2.36,2.36,0,0,1,2,.147,2.336,2.336,0,0,1,1.161,1.616l1.84,9.931A2.326,2.326,0,0,1,47.941,79.579Zm3.244-7.118a.909.909,0,0,0-.039,1.781l6.77,1.553-.169,1.135L49.9,75.519,48.672,68.9l6.836-4.035.569,1.008-5.766,3.854a.909.909,0,0,0,.67,1.65l9.057-1.664.2,1.089Z"/>
    </g>
  </g>
</svg>
