<svg xmlns="http://www.w3.org/2000/svg" xmlns:xlink="http://www.w3.org/1999/xlink" width="120.425" height="120.425" viewBox="0 0 120.425 120.425">
  <defs>
    <filter id="Trazado_874925" x="0" y="0" width="120.425" height="120.425" filterUnits="userSpaceOnUse">
      <feOffset dy="3" input="SourceAlpha"/>
      <feGaussianBlur stdDeviation="3" result="blur"/>
      <feFlood flood-opacity="0.161"/>
      <feComposite operator="in" in2="blur"/>
      <feComposite in="SourceGraphic"/>
    </filter>
  </defs>
  <g id="Grupo_1116191" data-name="Grupo 1116191" transform="translate(-739.313 -6733.262)">
    <g id="Grupo_1109835" data-name="Grupo 1109835" transform="translate(748.313 6739.262)">
      <g id="Grupo_1107913" data-name="Grupo 1107913" transform="translate(0 0)">
        <g transform="matrix(1, 0, 0, 1, -9, -6)" filter="url(#Trazado_874925)">
          <g id="Trazado_874925-2" data-name="Trazado 874925" transform="translate(9 6)" fill="#9ad354" opacity="0.859">
            <path d="M 51.21249771118164 100.9252548217773 C 44.50069808959961 100.9252548217773 37.99044036865234 99.611083984375 31.86261177062988 97.01922607421875 C 25.94305419921875 94.51546478271484 20.62644004821777 90.93082427978516 16.06045532226562 86.36483764648438 C 11.4944543838501 81.79886627197266 7.909797668457031 76.48226928710938 5.406040668487549 70.56273651123047 C 2.814183473587036 64.43492126464844 1.499997735023499 57.9246940612793 1.499997735023499 51.21292495727539 C 1.499997735023499 44.50053787231445 2.814183473587036 37.99032211303711 5.406040668487549 31.86250877380371 C 7.909797668457031 25.94297981262207 11.4944543838501 20.62638092041016 16.06045532226562 16.06039428710938 C 20.62644004821777 11.49442386627197 25.94305419921875 7.909766674041748 31.86261177062988 5.406023502349854 C 37.99044036865234 2.81416654586792 44.50068283081055 1.499994993209839 51.21249771118164 1.499994993209839 C 57.92431259155273 1.499994993209839 64.43455505371094 2.81416654586792 70.56238555908203 5.406023502349854 C 76.48194122314453 7.909766674041748 81.79855346679688 11.49442386627197 86.36454010009766 16.06039428710938 C 90.9305419921875 20.62638092041016 94.51519775390625 25.94297981262207 97.01895141601562 31.86250877380371 C 99.61080932617188 37.99032211303711 100.9249954223633 44.50053787231445 100.9249954223633 51.21232223510742 C 100.9249954223633 57.9246940612793 99.61080932617188 64.43492126464844 97.01895141601562 70.56273651123047 C 94.51519775390625 76.48226928710938 90.9305419921875 81.79886627197266 86.36454010009766 86.36483764648438 C 81.79855346679688 90.93082427978516 76.48194122314453 94.51546478271484 70.56238555908203 97.01922607421875 C 64.43455505371094 99.611083984375 57.92429733276367 100.9252548217773 51.21249771118164 100.9252548217773 Z" stroke="none"/>
            <path d="M 51.21249771118164 2.999992370605469 C 44.70252990722656 2.999992370605469 38.38888549804688 4.274299621582031 32.44692993164062 6.787528991699219 C 26.7061767578125 9.215652465820312 21.54981994628906 12.69234466552734 17.12111663818359 17.12105560302734 C 12.69239044189453 21.54975891113281 9.215682983398438 26.70610046386719 6.787544250488281 32.44682312011719 C 4.274314880371094 38.38874816894531 3.000007629394531 44.70237731933594 3.000007629394531 51.21291732788086 C 3.000007629394531 57.72285461425781 4.274314880371094 64.03648376464844 6.787544250488281 69.97840881347656 C 9.215682983398438 75.71913146972656 12.69239044189453 80.87547302246094 17.12111663818359 85.30417633056641 C 21.54981994628906 89.73288726806641 26.7061767578125 93.20957946777344 32.44692993164062 95.63770294189453 C 38.38888549804688 98.15093231201172 44.70252990722656 99.42523956298828 51.21249771118164 99.42523956298828 C 57.72246551513672 99.42523956298828 64.03611755371094 98.15093231201172 69.97805023193359 95.63770294189453 C 75.71880340576172 93.20957946777344 80.87516021728516 89.73288726806641 85.30387878417969 85.30417633056641 C 89.73260498046875 80.87547302246094 93.20931243896484 75.71913146972656 95.637451171875 69.97840881347656 C 98.15068054199219 64.03648376464844 99.42498779296875 57.72285461425781 99.42498779296875 51.21231460571289 C 99.42498779296875 44.70237731933594 98.15068054199219 38.38874816894531 95.637451171875 32.44682312011719 C 93.20931243896484 26.70610046386719 89.73260498046875 21.54975891113281 85.30387878417969 17.12105560302734 C 80.87516021728516 12.69234466552734 75.71880340576172 9.215652465820312 69.97805023193359 6.787528991699219 C 64.03611755371094 4.274299621582031 57.72246551513672 2.999992370605469 51.21249771118164 2.999992370605469 M 51.21249771118164 -7.62939453125e-06 C 79.49637603759766 -7.62939453125e-06 102.4249877929688 22.92852783203125 102.4249877929688 51.21231460571289 L 102.4249877929688 51.21291732788086 C 102.4249877929688 79.4967041015625 79.49637603759766 102.4252395629883 51.21249771118164 102.4252395629883 C 22.92860412597656 102.4252395629883 7.62939453125e-06 79.4967041015625 7.62939453125e-06 51.21291732788086 L 7.62939453125e-06 51.21231460571289 C 7.62939453125e-06 22.92852783203125 22.92860412597656 -7.62939453125e-06 51.21249771118164 -7.62939453125e-06 Z" stroke="none" fill="#fff"/>
          </g>
        </g>
        <g id="Trazado_874923" data-name="Trazado 874923" fill="none">
          <path d="M51.212,0a51.212,51.212,0,0,1,51.212,51.212h0A51.212,51.212,0,0,1,0,51.213H0A51.212,51.212,0,0,1,51.212,0Z" stroke="none"/>
          <path d="M 51.21249771118164 2.999992370605469 C 44.70252990722656 2.999992370605469 38.38888549804688 4.274299621582031 32.44692993164062 6.787528991699219 C 26.7061767578125 9.215652465820312 21.54981994628906 12.69234466552734 17.12111663818359 17.12105560302734 C 12.69239044189453 21.54975891113281 9.215682983398438 26.70610046386719 6.787544250488281 32.44682312011719 C 4.274314880371094 38.38874816894531 3.000007629394531 44.70237731933594 3.000007629394531 51.21291732788086 C 3.000007629394531 57.72285461425781 4.274314880371094 64.03648376464844 6.787544250488281 69.97840881347656 C 9.215682983398438 75.71913146972656 12.69239044189453 80.87547302246094 17.12111663818359 85.30417633056641 C 21.54981994628906 89.73288726806641 26.7061767578125 93.20957946777344 32.44692993164062 95.63770294189453 C 38.38888549804688 98.15093231201172 44.70252990722656 99.42523956298828 51.21249771118164 99.42523956298828 C 57.72246551513672 99.42523956298828 64.03611755371094 98.15093231201172 69.97805023193359 95.63770294189453 C 75.71880340576172 93.20957946777344 80.87516021728516 89.73288726806641 85.30387878417969 85.30417633056641 C 89.73260498046875 80.87547302246094 93.20931243896484 75.71913146972656 95.637451171875 69.97840881347656 C 98.15068054199219 64.03648376464844 99.42498779296875 57.72285461425781 99.42498779296875 51.21231460571289 C 99.42498779296875 44.70237731933594 98.15068054199219 38.38874816894531 95.637451171875 32.44682312011719 C 93.20931243896484 26.70610046386719 89.73260498046875 21.54975891113281 85.30387878417969 17.12105560302734 C 80.87516021728516 12.69234466552734 75.71880340576172 9.215652465820312 69.97805023193359 6.787528991699219 C 64.03611755371094 4.274299621582031 57.72246551513672 2.999992370605469 51.21249771118164 2.999992370605469 M 51.21249771118164 -7.62939453125e-06 C 79.49637603759766 -7.62939453125e-06 102.4249877929688 22.92852783203125 102.4249877929688 51.21231460571289 L 102.4249877929688 51.21291732788086 C 102.4249877929688 79.4967041015625 79.49637603759766 102.4252395629883 51.21249771118164 102.4252395629883 C 22.92860412597656 102.4252395629883 7.62939453125e-06 79.4967041015625 7.62939453125e-06 51.21291732788086 L 7.62939453125e-06 51.21231460571289 C 7.62939453125e-06 22.92852783203125 22.92860412597656 -7.62939453125e-06 51.21249771118164 -7.62939453125e-06 Z" stroke="none" fill="#fff"/>
        </g>
      </g>
    </g>
    <g id="Grupo_1116192" data-name="Grupo 1116192" transform="translate(767.81 6758.475)">
      <path id="Trazado_908794" data-name="Trazado 908794" d="M43,23.33l-6,4.33,2.87,2.08a16,16,0,1,1,0-21.48L37,10.33l6,4.33-6,4.33Z" fill="#ffe66d"/>
      <path id="Trazado_908795" data-name="Trazado 908795" d="M11,47.984h7.1a9.906,9.906,0,0,0,5.274-1.521l3.9-2.454A9.91,9.91,0,0,1,30.82,42.64l10.714-1.9a2,2,0,0,1,2.05,3,5.665,5.665,0,0,1-1.97,1.982L33.89,48.986l2.057,2.07a1.982,1.982,0,0,0,2.147.443l7.124-2.867a9.935,9.935,0,0,0,2.907-1.8l9.33-8.323a1.982,1.982,0,0,1,2.635,0l.234.208a2.01,2.01,0,0,1,.235,2.76L52.29,51.783a9.953,9.953,0,0,1-3.63,2.831L38.837,59.1a9.9,9.9,0,0,1-4.116.9H29.312a9.926,9.926,0,0,1-2.734-.385l-3.8-1.091a9.883,9.883,0,0,0-3.724-.336L11,59Z" fill="#ffcf94"/>
      <path id="Trazado_908796" data-name="Trazado 908796" d="M3,46h8V61H3Z" fill="#65788f"/>
      <path id="Trazado_908797" data-name="Trazado 908797" d="M3,62h8a1,1,0,0,0,1-1V59.9l7.158-.72a8.861,8.861,0,0,1,3.348.3l3.8,1.092a10.915,10.915,0,0,0,3.01.424h5.409a10.829,10.829,0,0,0,4.532-.987l9.822-4.49a11,11,0,0,0,4-3.114l8.269-10.316a3.008,3.008,0,0,0-.352-4.136l-.234-.207a2.984,2.984,0,0,0-3.964.008l-9.331,8.323A8.907,8.907,0,0,1,44.849,47.7l-7.124,2.866a.982.982,0,0,1-1.065-.22l-1.013-1.02L42,46.643a1.179,1.179,0,0,0,.123-.062,6.651,6.651,0,0,0,2.316-2.33,2.974,2.974,0,0,0-.1-3.251,2.944,2.944,0,0,0-2.977-1.246l-10.714,1.9a10.871,10.871,0,0,0-3.9,1.508l-3.9,2.453A8.9,8.9,0,0,1,18.1,46.984H12V46a1,1,0,0,0-1-1H3a1,1,0,0,0-1,1V61a1,1,0,0,0,1,1ZM18.1,48.984a10.9,10.9,0,0,0,5.808-1.676l3.9-2.452A8.881,8.881,0,0,1,31,43.624l10.714-1.9a.974.974,0,0,1,.981.412,1,1,0,0,1,.032,1.1,4.645,4.645,0,0,1-1.564,1.6L33.5,48.065a1,1,0,0,0-.319,1.626l2.057,2.069a2.975,2.975,0,0,0,3.23.667l7.124-2.867a10.912,10.912,0,0,0,3.2-1.987l9.33-8.323a.987.987,0,0,1,1.308,0l.233.206a1.009,1.009,0,0,1,.118,1.387L51.51,51.158A9.005,9.005,0,0,1,48.244,53.7l-9.822,4.49a8.845,8.845,0,0,1-3.7.806h-5.41a8.924,8.924,0,0,1-2.457-.346l-3.8-1.092a10.9,10.9,0,0,0-4.1-.369l-6.958.7v-8.9ZM4,47h6V60H4Z"/>
      <path id="Trazado_908798" data-name="Trazado 908798" d="M6,56H8v2H6Z"/>
      <path id="Trazado_908799" data-name="Trazado 908799" d="M27,14h2a2,2,0,0,1,2,2h2a4,4,0,0,0-4-4V10H27v2a4,4,0,0,0,0,8h2a2,2,0,0,1,0,4H27a2,2,0,0,1-2-2H23a4,4,0,0,0,4,4v2h2V26a4,4,0,0,0,0-8H27a2,2,0,0,1,0-4Z"/>
      <path id="Trazado_908800" data-name="Trazado 908800" d="M46,11h2v2H46Z"/>
      <path id="Trazado_908801" data-name="Trazado 908801" d="M50,15h2v2H50Z"/>
      <path id="Trazado_908802" data-name="Trazado 908802" d="M43,7h2V9H43Z"/>
      <path id="Trazado_908803" data-name="Trazado 908803" d="M45,18h2v2H45Z"/>
      <path id="Trazado_908804" data-name="Trazado 908804" d="M51,20h2v2H51Z"/>
      <path id="Trazado_908805" data-name="Trazado 908805" d="M47,24h2v2H47Z"/>
      <path id="Trazado_908806" data-name="Trazado 908806" d="M44,28h2v2H44Z"/>
      <path id="Trazado_908807" data-name="Trazado 908807" d="M44,23.331a1,1,0,0,0-.414-.811l-4.878-3.529,4.877-3.52a1,1,0,0,0,0-1.622L38.709,10.33l1.746-1.259a1,1,0,0,0,.156-1.483,17,17,0,1,0,0,22.824,1,1,0,0,0-.154-1.481l-1.75-1.269,4.878-3.521a1,1,0,0,0,.415-.81Zm-7.585,3.518a1,1,0,0,0,0,1.621l1.932,1.4a15,15,0,1,1,0-21.742L36.415,9.519a1,1,0,0,0,0,1.622l4.876,3.519-4.876,3.519a1,1,0,0,0,0,1.621l4.878,3.529Z"/>
    </g>
  </g>
</svg>
