<svg xmlns="http://www.w3.org/2000/svg" xmlns:xlink="http://www.w3.org/1999/xlink" width="118" height="118" viewBox="0 0 118 118">
  <defs>
    <filter id="Trazado_874925" x="0" y="0" width="118" height="118" filterUnits="userSpaceOnUse">
      <feOffset dy="3" input="SourceAlpha"/>
      <feGaussianBlur stdDeviation="3" result="blur"/>
      <feFlood flood-opacity="0.161"/>
      <feComposite operator="in" in2="blur"/>
      <feComposite in="SourceGraphic"/>
    </filter>
  </defs>
  <g id="Grupo_1116223" data-name="Grupo 1116223" transform="translate(-4163 4378.834)">
    <g id="Grupo_1112559" data-name="Grupo 1112559" transform="translate(3054.866 -6312.833)">
      <g id="Grupo_1111553" data-name="Grupo 1111553" transform="translate(308.634 -577.158)">
        <g id="Grupo_1111316" data-name="Grupo 1111316" transform="translate(808.5 2517.157)">
          <g id="Grupo_1109835" data-name="Grupo 1109835" transform="translate(0 0)">
            <g id="Grupo_1107913" data-name="Grupo 1107913" transform="translate(0 0)">
              <g transform="matrix(1, 0, 0, 1, -9, -6)" filter="url(#Trazado_874925)">
                <g id="Trazado_874925-2" data-name="Trazado 874925" transform="translate(9 6)" fill="#9cc8ff" opacity="0.859">
                  <path d="M 49.99972534179688 98.4998779296875 C 43.45164108276367 98.4998779296875 37.10022354125977 97.21776580810547 31.12189674377441 94.68914794921875 C 25.34676742553711 92.24647521972656 20.15985298156738 88.74925994873047 15.70523929595947 84.29464721679688 C 11.25062561035156 79.84004974365234 7.753411293029785 74.65313720703125 5.310725212097168 68.87800598144531 C 2.782111167907715 62.89969253540039 1.499996781349182 56.54829406738281 1.499996781349182 50.00022125244141 C 1.499996781349182 43.45157623291016 2.782111167907715 37.10017776489258 5.310725212097168 31.12186431884766 C 7.753411293029785 25.34673500061035 11.25062561035156 20.15983581542969 15.70523929595947 15.70522117614746 C 20.15985298156738 11.25062084197998 25.34676742553711 7.753406524658203 31.12189674377441 5.31073522567749 C 37.10022354125977 2.782120943069458 43.45164108276367 1.500006556510925 49.99972534179688 1.500006556510925 C 56.54780960083008 1.500006556510925 62.89922714233398 2.782120943069458 68.87755584716797 5.31073522567749 C 74.65267944335938 7.753406524658203 79.839599609375 11.25062084197998 84.29421234130859 15.70522117614746 C 88.74882507324219 20.15983581542969 92.24604034423828 25.34673500061035 94.68872833251953 31.12186431884766 C 97.21733856201172 37.10017776489258 98.49945068359375 43.45157623291016 98.49945068359375 49.99964904785156 C 98.49945068359375 56.54829406738281 97.21733856201172 62.89969253540039 94.68872833251953 68.87800598144531 C 92.24604034423828 74.65313720703125 88.74882507324219 79.84004974365234 84.29421234130859 84.29464721679688 C 79.839599609375 88.74925994873047 74.65267944335938 92.24647521972656 68.87755584716797 94.68914794921875 C 62.89922714233398 97.21776580810547 56.54780960083008 98.4998779296875 49.99972534179688 98.4998779296875 Z" stroke="none"/>
                  <path d="M 49.99972534179688 3 C 43.65348052978516 3 37.49866485595703 4.242240905761719 31.70623016357422 6.692230224609375 C 26.10989379882812 9.059272766113281 21.08323669433594 12.44853210449219 16.76589202880859 16.76587677001953 C 12.44855499267578 21.08321380615234 9.059295654296875 26.10985565185547 6.692230224609375 31.70618438720703 C 4.24224853515625 37.49859619140625 3 43.65341186523438 3 50.00022888183594 C 3 56.34645843505859 4.24224853515625 62.50127410888672 6.692230224609375 68.29368591308594 C 9.059295654296875 73.8900146484375 12.44855499267578 78.91665649414062 16.76589202880859 83.23399353027344 C 21.08323669433594 87.55132293701172 26.10989379882812 90.94059753417969 31.70623016357422 93.30764007568359 C 37.49866485595703 95.75762939453125 43.65348052978516 96.99987030029297 49.99972534179688 96.99987030029297 C 56.34597015380859 96.99987030029297 62.50078582763672 95.75762939453125 68.293212890625 93.30764007568359 C 73.88955688476562 90.94059753417969 78.91621398925781 87.55132293701172 83.23355865478516 83.23399353027344 C 87.55089569091797 78.91665649414062 90.94015502929688 73.8900146484375 93.30722045898438 68.29368591308594 C 95.7572021484375 62.50127410888672 96.99945068359375 56.34645843505859 96.99945068359375 49.99964141845703 C 96.99945068359375 43.65341186523438 95.7572021484375 37.49859619140625 93.30722045898438 31.70618438720703 C 90.94015502929688 26.10985565185547 87.55089569091797 21.08321380615234 83.23355865478516 16.76587677001953 C 78.91621398925781 12.44853210449219 73.88955688476562 9.059272766113281 68.293212890625 6.692230224609375 C 62.50078582763672 4.242240905761719 56.34597015380859 3 49.99972534179688 3 M 49.99972534179688 0 C 77.61381530761719 0 99.99945068359375 22.38559722900391 99.99945068359375 49.99964141845703 L 99.99945068359375 50.00022888183594 C 99.99945068359375 77.6142578125 77.61381530761719 99.99987030029297 49.99972534179688 99.99987030029297 C 22.38563537597656 99.99987030029297 0 77.6142578125 0 50.00022888183594 L 0 49.99964141845703 C 0 22.38559722900391 22.38563537597656 0 49.99972534179688 0 Z" stroke="none" fill="#fff"/>
                </g>
              </g>
              <g id="Trazado_874923" data-name="Trazado 874923" transform="translate(0 0)" fill="none">
                <path d="M50,0a50,50,0,0,1,50,50h0A50,50,0,0,1,0,50H0A50,50,0,0,1,50,0Z" stroke="none"/>
                <path d="M 49.99972534179688 3 C 43.65348052978516 3 37.49866485595703 4.242240905761719 31.70623016357422 6.692230224609375 C 26.10989379882812 9.059272766113281 21.08323669433594 12.44853210449219 16.76589202880859 16.76587677001953 C 12.44855499267578 21.08321380615234 9.059295654296875 26.10985565185547 6.692230224609375 31.70618438720703 C 4.24224853515625 37.49859619140625 3 43.65341186523438 3 50.00022888183594 C 3 56.34645843505859 4.24224853515625 62.50127410888672 6.692230224609375 68.29368591308594 C 9.059295654296875 73.8900146484375 12.44855499267578 78.91665649414062 16.76589202880859 83.23399353027344 C 21.08323669433594 87.55132293701172 26.10989379882812 90.94059753417969 31.70623016357422 93.30764007568359 C 37.49866485595703 95.75762939453125 43.65348052978516 96.99987030029297 49.99972534179688 96.99987030029297 C 56.34597015380859 96.99987030029297 62.50078582763672 95.75762939453125 68.293212890625 93.30764007568359 C 73.88955688476562 90.94059753417969 78.91621398925781 87.55132293701172 83.23355865478516 83.23399353027344 C 87.55089569091797 78.91665649414062 90.94015502929688 73.8900146484375 93.30722045898438 68.29368591308594 C 95.7572021484375 62.50127410888672 96.99945068359375 56.34645843505859 96.99945068359375 49.99964141845703 C 96.99945068359375 43.65341186523438 95.7572021484375 37.49859619140625 93.30722045898438 31.70618438720703 C 90.94015502929688 26.10985565185547 87.55089569091797 21.08321380615234 83.23355865478516 16.76587677001953 C 78.91621398925781 12.44853210449219 73.88955688476562 9.059272766113281 68.293212890625 6.692230224609375 C 62.50078582763672 4.242240905761719 56.34597015380859 3 49.99972534179688 3 M 49.99972534179688 0 C 77.61381530761719 0 99.99945068359375 22.38559722900391 99.99945068359375 49.99964141845703 L 99.99945068359375 50.00022888183594 C 99.99945068359375 77.6142578125 77.61381530761719 99.99987030029297 49.99972534179688 99.99987030029297 C 22.38563537597656 99.99987030029297 0 77.6142578125 0 50.00022888183594 L 0 49.99964141845703 C 0 22.38559722900391 22.38563537597656 0 49.99972534179688 0 Z" stroke="none" fill="#fff"/>
              </g>
            </g>
          </g>
        </g>
      </g>
    </g>
    <g id="Grupo_1116222" data-name="Grupo 1116222" transform="translate(4187.386 -4341.834)">
      <g id="Grupo_1116218" data-name="Grupo 1116218" transform="translate(1.297 -5.014)">
        <path id="Trazado_908868" data-name="Trazado 908868" d="M72.733,86.2,65.724,74.059a9.331,9.331,0,0,1-1.4.1,9.614,9.614,0,0,1-8.87-13.316,5.744,5.744,0,0,0-.72-.045H28.747a5.776,5.776,0,0,0-5,2.886L10.753,86.2a5.773,5.773,0,0,0,0,5.772l12.994,22.509a5.773,5.773,0,0,0,5,2.886h25.99a5.775,5.775,0,0,0,5-2.886l13-22.509A5.773,5.773,0,0,0,72.733,86.2Zm-31,20.452a17.7,17.7,0,1,1,17.7-17.7A17.7,17.7,0,0,1,41.736,106.648Z" transform="translate(-9.98 -60.801)" fill="#bdd3dd"/>
      </g>
      <g id="Grupo_1116219" data-name="Grupo 1116219" transform="translate(22.475 13.491)">
        <path id="Trazado_908869" data-name="Trazado 908869" d="M194.06,212.575a10.579,10.579,0,0,1-5.156,9.086v7.986a17.712,17.712,0,0,1-5.428.85h-.007a17.677,17.677,0,0,1-5.423-.847V221.66a10.584,10.584,0,0,1,.6-18.506v7.771l4.826,2.716,4.828-2.716v-7.771A10.581,10.581,0,0,1,194.06,212.575Z" transform="translate(-172.89 -203.154)" fill="#eaf0f0"/>
      </g>
      <g id="Grupo_1116220" data-name="Grupo 1116220" transform="translate(42.049 -14.848)">
        <circle id="Elipse_11760" data-name="Elipse 11760" cx="9.611" cy="9.611" r="9.611" transform="translate(0 13.589) rotate(-45)" fill="#00d5f5"/>
      </g>
      <g id="Grupo_1116221" data-name="Grupo 1116221" transform="translate(0 -12.128)">
        <path id="Trazado_908870" data-name="Trazado 908870" d="M126.263,169.149a19,19,0,1,0,1.481-37.937c-21.664.435-26.139,30.07-5.916,37.05A15.192,15.192,0,0,0,126.263,169.149Zm-.141-2.623a16.266,16.266,0,0,1-2.5-.445v-7.011a1.3,1.3,0,0,0-.632-1.115A9.327,9.327,0,0,1,121.623,143v5.331a1.3,1.3,0,0,0,.662,1.133l4.826,2.716a1.3,1.3,0,0,0,1.275,0l4.828-2.716a1.3,1.3,0,0,0,.663-1.133V143a9.327,9.327,0,0,1-1.366,14.951,1.3,1.3,0,0,0-.632,1.115v7.007a16.294,16.294,0,0,1-2.828.475v-7.482a1.3,1.3,0,0,0-2.6,0v7.483q-.165-.012-.329-.028Zm-14.775-16.317a16.416,16.416,0,0,1,16.4-16.4c17.728.269,22.6,24,6.735,31.347v-5.38c7.35-4.943,6.661-16.424-1.309-20.372a1.3,1.3,0,0,0-1.893,1.157v7.011l-3.527,1.985-3.526-1.985v-7.011a1.3,1.3,0,0,0-1.893-1.157c-7.971,3.949-8.656,15.431-1.309,20.372v5.385A16.42,16.42,0,0,1,111.347,150.209Z" transform="translate(-94.69 -114.945)"/>
        <path id="Trazado_908871" data-name="Trazado 908871" d="M59.04,27.308a10.928,10.928,0,0,0,7.516-10.367c-.1-11.421-15.329-15.01-20.577-5.05H20.065a7.1,7.1,0,0,0-6.126,3.536L.945,37.935a7.09,7.09,0,0,0,0,7.073L13.939,67.516a7.093,7.093,0,0,0,6.126,3.536h6.984a1.3,1.3,0,1,0,0-2.6H20.065a4.486,4.486,0,0,1-3.875-2.236L3.2,43.707a4.484,4.484,0,0,1,0-4.472L16.191,16.727a4.488,4.488,0,0,1,3.875-2.237H45.01A10.963,10.963,0,0,0,56.339,27.83l6.585,11.405a4.484,4.484,0,0,1,0,4.473l-13,22.508a4.485,4.485,0,0,1-3.873,2.236H38.565a1.3,1.3,0,1,0,0,2.6h7.491a7.092,7.092,0,0,0,6.125-3.536l13-22.508a7.091,7.091,0,0,0,0-7.073ZM55.645,8.63a8.32,8.32,0,0,1,8.311,8.311c-.5,10.982-16.167,11.033-16.621,0a8.32,8.32,0,0,1,8.311-8.31Z" transform="translate(0 -6.076)"/>
        <path id="Trazado_908872" data-name="Trazado 908872" d="M389.843,67.775a1.3,1.3,0,0,0,1.838,0l5.291-5.29a1.3,1.3,0,0,0-1.838-1.839l-4.371,4.371-1.641-1.641a1.3,1.3,0,0,0-1.839,1.839Z" transform="translate(-336.6 -53.215)"/>
        <path id="Trazado_908873" data-name="Trazado 908873" d="M244.857,486.827a1.3,1.3,0,1,0-.561,1.628A1.31,1.31,0,0,0,244.857,486.827Z" transform="translate(-210.851 -423.65)"/>
      </g>
    </g>
  </g>
</svg>
