<svg xmlns="http://www.w3.org/2000/svg" xmlns:xlink="http://www.w3.org/1999/xlink" width="102.949" height="102.949" viewBox="0 0 102.949 102.949">
  <defs>
    <filter id="Trazado_874925" x="0" y="0" width="102.949" height="102.949" filterUnits="userSpaceOnUse">
      <feOffset dy="3" input="SourceAlpha"/>
      <feGaussianBlur stdDeviation="3" result="blur"/>
      <feFlood flood-opacity="0.161"/>
      <feComposite operator="in" in2="blur"/>
      <feComposite in="SourceGraphic"/>
    </filter>
  </defs>
  <g id="Grupo_1118048" data-name="Grupo 1118048" transform="translate(-906 -6405.095)">
    <g id="Grupo_1111316" data-name="Grupo 1111316" transform="translate(915 6411.095)">
      <g id="Grupo_1109835" data-name="Grupo 1109835" transform="translate(0 0)">
        <g id="Grupo_1107913" data-name="Grupo 1107913" transform="translate(0 0)">
          <g transform="matrix(1, 0, 0, 1, -9, -6)" filter="url(#Trazado_874925)">
            <g id="Trazado_874925-2" data-name="Trazado 874925" transform="translate(9 6)" fill="#fc0" opacity="0.859">
              <path d="M 42.47446823120117 83.44929504394531 C 36.94229125976562 83.44929504394531 31.57638549804688 82.36614227294922 26.52582168579102 80.22994232177734 C 21.64678573608398 78.16628265380859 17.26464462280273 75.211669921875 13.50113868713379 71.44816589355469 C 9.737632751464844 67.68466949462891 6.78300952911377 63.30253982543945 4.719362258911133 58.42351913452148 C 2.583150625228882 53.37295150756836 1.499997615814209 48.00706100463867 1.499997615814209 42.47489547729492 C 1.499997615814209 36.94223403930664 2.583150625228882 31.57634162902832 4.719362258911133 26.52577781677246 C 6.78300952911377 21.64675331115723 9.737632751464844 17.26462364196777 13.50113868713379 13.50113010406494 C 17.26464462280273 9.737624168395996 21.64678573608398 6.783012390136719 26.52582168579102 4.719353199005127 C 31.57638549804688 2.583153486251831 36.94229125976562 1.500000476837158 42.47446823120117 1.500000476837158 C 48.00664520263672 1.500000476837158 53.37255096435547 2.583153486251831 58.42311477661133 4.719353199005127 C 63.30215072631836 6.783012390136719 67.68428802490234 9.737624168395996 71.44779968261719 13.50113010406494 C 75.2113037109375 17.26462364196777 78.16592407226562 21.64675331115723 80.22957611083984 26.52577781677246 C 82.36578369140625 31.57634162902832 83.44893646240234 36.94223403930664 83.44893646240234 42.47439956665039 C 83.44893646240234 48.00706100463867 82.36578369140625 53.37295150756836 80.22957611083984 58.42351913452148 C 78.16592407226562 63.30253982543945 75.2113037109375 67.68466949462891 71.44779968261719 71.44816589355469 C 67.68428802490234 75.211669921875 63.30215072631836 78.16628265380859 58.42311477661133 80.22994232177734 C 53.37255096435547 82.36614227294922 48.00664520263672 83.44929504394531 42.47446823120117 83.44929504394531 Z" stroke="none"/>
              <path d="M 42.47446823120117 2.999992370605469 C 37.14412307739258 2.999992370605469 31.97481536865234 4.04327392578125 27.11014938354492 6.100860595703125 C 22.40990829467773 8.088890075683594 18.18804168701172 10.93555450439453 14.56179809570312 14.56178283691406 C 10.93557739257812 18.18801116943359 8.088897705078125 22.40987396240234 6.100868225097656 27.11009979248047 C 4.043281555175781 31.97476577758789 3 37.14406204223633 3 42.47488784790039 C 3 47.80522155761719 4.043281555175781 52.97451400756836 6.100868225097656 57.83917999267578 C 8.088897705078125 62.53940582275391 10.93557739257812 66.76127624511719 14.56179809570312 70.38749694824219 C 18.18804168701172 74.01372528076172 22.40990829467773 76.86039733886719 27.11014938354492 78.84841918945312 C 31.97481536865234 80.906005859375 37.14412307739258 81.94928741455078 42.47446823120117 81.94928741455078 C 47.80481338500977 81.94928741455078 52.97412109375 80.906005859375 57.83879089355469 78.84841918945312 C 62.53902816772461 76.86039733886719 66.76089477539062 74.01372528076172 70.38713073730469 70.38749694824219 C 74.01335906982422 66.76127624511719 76.86003875732422 62.53940582275391 78.84806823730469 57.83917999267578 C 80.90565490722656 52.97451400756836 81.94893646240234 47.80522155761719 81.94893646240234 42.47439575195312 C 81.94893646240234 37.14406204223633 80.90565490722656 31.97476577758789 78.84806823730469 27.11009979248047 C 76.86003875732422 22.40987396240234 74.01335906982422 18.18801116943359 70.38713073730469 14.56178283691406 C 66.76089477539062 10.93555450439453 62.53902816772461 8.088890075683594 57.83879089355469 6.100860595703125 C 52.97412109375 4.04327392578125 47.80481338500977 2.999992370605469 42.47446823120117 2.999992370605469 M 42.47446823120117 -7.62939453125e-06 C 65.93246459960938 -7.62939453125e-06 84.94893646240234 19.01643371582031 84.94893646240234 42.47439575195312 L 84.94893646240234 42.47488784790039 C 84.94893646240234 65.93284606933594 65.93246459960938 84.94928741455078 42.47446823120117 84.94928741455078 C 19.01647186279297 84.94928741455078 0 65.93284606933594 0 42.47488784790039 L 0 42.47439575195312 C 0 19.01643371582031 19.01647186279297 -7.62939453125e-06 42.47446823120117 -7.62939453125e-06 Z" stroke="none" fill="#fff"/>
            </g>
          </g>
          <g id="Trazado_874923" data-name="Trazado 874923" transform="translate(0 0)" fill="none">
            <path d="M42.474,0A42.474,42.474,0,0,1,84.949,42.474h0A42.474,42.474,0,0,1,0,42.475H0A42.474,42.474,0,0,1,42.474,0Z" stroke="none"/>
            <path d="M 42.47446823120117 2.999992370605469 C 37.14412307739258 2.999992370605469 31.97481536865234 4.04327392578125 27.11014938354492 6.100860595703125 C 22.40990829467773 8.088890075683594 18.18804168701172 10.93555450439453 14.56179809570312 14.56178283691406 C 10.93557739257812 18.18801116943359 8.088897705078125 22.40987396240234 6.100868225097656 27.11009979248047 C 4.043281555175781 31.97476577758789 3 37.14406204223633 3 42.47488784790039 C 3 47.80522155761719 4.043281555175781 52.97451400756836 6.100868225097656 57.83917999267578 C 8.088897705078125 62.53940582275391 10.93557739257812 66.76127624511719 14.56179809570312 70.38749694824219 C 18.18804168701172 74.01372528076172 22.40990829467773 76.86039733886719 27.11014938354492 78.84841918945312 C 31.97481536865234 80.906005859375 37.14412307739258 81.94928741455078 42.47446823120117 81.94928741455078 C 47.80481338500977 81.94928741455078 52.97412109375 80.906005859375 57.83879089355469 78.84841918945312 C 62.53902816772461 76.86039733886719 66.76089477539062 74.01372528076172 70.38713073730469 70.38749694824219 C 74.01335906982422 66.76127624511719 76.86003875732422 62.53940582275391 78.84806823730469 57.83917999267578 C 80.90565490722656 52.97451400756836 81.94893646240234 47.80522155761719 81.94893646240234 42.47439575195312 C 81.94893646240234 37.14406204223633 80.90565490722656 31.97476577758789 78.84806823730469 27.11009979248047 C 76.86003875732422 22.40987396240234 74.01335906982422 18.18801116943359 70.38713073730469 14.56178283691406 C 66.76089477539062 10.93555450439453 62.53902816772461 8.088890075683594 57.83879089355469 6.100860595703125 C 52.97412109375 4.04327392578125 47.80481338500977 2.999992370605469 42.47446823120117 2.999992370605469 M 42.47446823120117 -7.62939453125e-06 C 65.93246459960938 -7.62939453125e-06 84.94893646240234 19.01643371582031 84.94893646240234 42.47439575195312 L 84.94893646240234 42.47488784790039 C 84.94893646240234 65.93284606933594 65.93246459960938 84.94928741455078 42.47446823120117 84.94928741455078 C 19.01647186279297 84.94928741455078 0 65.93284606933594 0 42.47488784790039 L 0 42.47439575195312 C 0 19.01643371582031 19.01647186279297 -7.62939453125e-06 42.47446823120117 -7.62939453125e-06 Z" stroke="none" fill="#fff"/>
          </g>
        </g>
      </g>
    </g>
    <g id="Grupo_1118066" data-name="Grupo 1118066" transform="translate(933.431 6428.21)">
      <g id="Grupo_1118066-2" data-name="Grupo 1118066" transform="translate(3.021 0.878)">
        <path id="Trazado_909849" data-name="Trazado 909849" d="M226.4,203.6a3.371,3.371,0,1,0-6.742,0v1.686a3.371,3.371,0,0,0,6.742,0V203.6Z" transform="translate(-201.484 -183.572)" fill="#bb6b57" fill-rule="evenodd"/>
        <path id="Trazado_909850" data-name="Trazado 909850" d="M199.2,283.625a3.359,3.359,0,0,1-5.013,0,5.918,5.918,0,0,0-3.393,5.337v10.467h11.8V288.962A5.918,5.918,0,0,0,199.2,283.625Z" transform="translate(-175.148 -259.659)" fill="#ff5a58" fill-rule="evenodd"/>
        <path id="Trazado_909851" data-name="Trazado 909851" d="M107.3,203.6a3.371,3.371,0,1,0-6.742,0v1.686a3.371,3.371,0,0,0,6.742,0V203.6Z" transform="translate(-92.814 -183.572)" fill="#cc9081" fill-rule="evenodd"/>
        <path id="Trazado_909852" data-name="Trazado 909852" d="M80.1,283.625a3.359,3.359,0,0,1-5.013,0,5.918,5.918,0,0,0-3.393,5.337v10.467h11.8V288.962A5.918,5.918,0,0,0,80.1,283.625Z" transform="translate(-66.479 -259.659)" fill="#66e0f7" fill-rule="evenodd"/>
        <path id="Trazado_909853" data-name="Trazado 909853" d="M345.5,203.6a3.371,3.371,0,1,0-6.742,0v1.686a3.371,3.371,0,0,0,6.742,0V203.6Z" transform="translate(-310.153 -183.572)" fill="#cc9081" fill-rule="evenodd"/>
        <path id="Trazado_909854" data-name="Trazado 909854" d="M318.3,283.625a3.359,3.359,0,0,1-5.013,0,5.918,5.918,0,0,0-3.393,5.337v10.467h11.8V288.962A5.918,5.918,0,0,0,318.3,283.625Z" transform="translate(-283.816 -259.659)" fill="#ff9346" fill-rule="evenodd"/>
        <path id="Trazado_909855" data-name="Trazado 909855" d="M176.652,11.164a3.933,3.933,0,0,0-5.533,0c-4.134,4.121,3.824,11.322,6.558,12.052,2.733-.73,10.691-7.932,6.558-12.052a3.933,3.933,0,0,0-5.533,0A1.43,1.43,0,0,1,176.652,11.164Z" transform="translate(-156.128 -10.027)" fill="#ff5a58" fill-rule="evenodd"/>
        <path id="Trazado_909856" data-name="Trazado 909856" d="M47.751,341.137a3.371,3.371,0,1,0-6.742,0v1.685a3.371,3.371,0,0,0,6.742,0v-1.685Z" transform="translate(-38.481 -309.058)" fill="#bb6b57" fill-rule="evenodd"/>
        <path id="Trazado_909857" data-name="Trazado 909857" d="M20.55,421.158a3.359,3.359,0,0,1-5.013,0,5.918,5.918,0,0,0-3.393,5.337v2.121h11.8v-2.121a5.918,5.918,0,0,0-3.393-5.336Z" transform="translate(-12.144 -385.145)" fill="#ffc144" fill-rule="evenodd"/>
        <path id="Trazado_909858" data-name="Trazado 909858" d="M166.852,341.137a3.371,3.371,0,1,0-6.742,0v1.685a3.371,3.371,0,0,0,6.742,0Z" transform="translate(-147.149 -309.058)" fill="#e5ae8c" fill-rule="evenodd"/>
        <path id="Trazado_909859" data-name="Trazado 909859" d="M139.653,421.158a3.359,3.359,0,0,1-5.013,0,5.918,5.918,0,0,0-3.393,5.337v2.121h11.8v-2.121A5.918,5.918,0,0,0,139.653,421.158Z" transform="translate(-120.814 -385.145)" fill="#8481e2" fill-rule="evenodd"/>
        <path id="Trazado_909860" data-name="Trazado 909860" d="M285.954,341.137a3.371,3.371,0,1,0-6.742,0v1.685a3.371,3.371,0,0,0,6.742,0v-1.685Z" transform="translate(-255.818 -309.058)" fill="#cc9081" fill-rule="evenodd"/>
        <path id="Trazado_909861" data-name="Trazado 909861" d="M258.754,421.158a3.359,3.359,0,0,1-5.013,0,5.918,5.918,0,0,0-3.393,5.337v2.121h11.8v-2.121A5.918,5.918,0,0,0,258.754,421.158Z" transform="translate(-229.483 -385.145)" fill="#fff" fill-rule="evenodd"/>
        <path id="Trazado_909862" data-name="Trazado 909862" d="M405.056,341.137a3.371,3.371,0,1,0-6.742,0v1.685a3.371,3.371,0,0,0,6.742,0Z" transform="translate(-364.487 -309.058)" fill="#e5ae8c" fill-rule="evenodd"/>
        <path id="Trazado_909863" data-name="Trazado 909863" d="M377.856,421.158a3.359,3.359,0,0,1-5.013,0,5.918,5.918,0,0,0-3.393,5.337v2.121h11.8v-2.121A5.918,5.918,0,0,0,377.856,421.158Z" transform="translate(-338.152 -385.145)" fill="#cbe558" fill-rule="evenodd"/>
      </g>
      <g id="Grupo_1118067" data-name="Grupo 1118067" transform="translate(2.145 -0.001)">
        <path id="Trazado_909864" data-name="Trazado 909864" d="M43.985,210.173a4.219,4.219,0,0,0,.481-1.959v-1.686a4.254,4.254,0,0,0-2.8-3.992,6.743,6.743,0,0,0-2.9-4.411,4.22,4.22,0,0,0,.48-1.958v-1.686a4.247,4.247,0,0,0-8.494,0v1.686a4.22,4.22,0,0,0,.48,1.959,6.8,6.8,0,0,0-1.453,1.309,6.783,6.783,0,0,0-1.448-1.308,4.22,4.22,0,0,0,.481-1.96v-1.686a4.247,4.247,0,0,0-8.494,0v1.686a4.219,4.219,0,0,0,.481,1.96,6.782,6.782,0,0,0-1.455,1.317,6.851,6.851,0,0,0-1.447-1.316,4.22,4.22,0,0,0,.482-1.961v-1.686a4.247,4.247,0,0,0-8.494,0v1.686a4.22,4.22,0,0,0,.48,1.959,6.747,6.747,0,0,0-2.9,4.411,4.254,4.254,0,0,0-2.8,3.992v1.686a4.22,4.22,0,0,0,.481,1.959A6.737,6.737,0,0,0,2.145,215.8v2.12a.876.876,0,0,0,.876.876h43.1a.876.876,0,0,0,.876-.876V215.8a6.737,6.737,0,0,0-3.009-5.626Zm-1.271-3.645v1.686a2.5,2.5,0,0,1-4.99,0v-1.686a2.5,2.5,0,1,1,4.99,0ZM39.808,202.3a4.253,4.253,0,0,0-3.837,4.227v1.686a4.219,4.219,0,0,0,.481,1.96,6.8,6.8,0,0,0-1.446,1.307,6.8,6.8,0,0,0-1.455-1.308,4.22,4.22,0,0,0,.481-1.959v-1.686A4.253,4.253,0,0,0,30.2,202.3a5.114,5.114,0,0,1,2.162-2.815,4.234,4.234,0,0,0,5.287,0A5.112,5.112,0,0,1,39.808,202.3Zm-12.518,5.912v-1.686a2.5,2.5,0,1,1,4.99,0v1.686a2.5,2.5,0,0,1-4.99,0Zm5.216-13.733a2.5,2.5,0,1,1,4.99,0v1.686a2.5,2.5,0,1,1-4.99,0Zm-10.433,0a2.5,2.5,0,1,1,4.99,0v1.686a2.5,2.5,0,0,1-4.99,0v-1.686Zm-.148,5.006a4.234,4.234,0,0,0,5.287,0,5.051,5.051,0,0,1,1.579,1.555,6.754,6.754,0,0,0-.455,1.494,4.254,4.254,0,0,0-2.8,3.992v1.686a4.219,4.219,0,0,0,.481,1.959,6.8,6.8,0,0,0-1.454,1.307,6.782,6.782,0,0,0-1.446-1.306,4.219,4.219,0,0,0,.481-1.96v-1.685a4.254,4.254,0,0,0-2.8-3.993,6.706,6.706,0,0,0-.459-1.485,5.05,5.05,0,0,1,1.584-1.563Zm-5.068,8.727v-1.686a2.5,2.5,0,0,1,4.99,0v1.686a2.5,2.5,0,0,1-4.99,0Zm-5.216-13.733a2.5,2.5,0,0,1,4.99,0v1.686a2.5,2.5,0,0,1-4.99,0Zm-.149,5.006a4.234,4.234,0,0,0,5.287,0,5.11,5.11,0,0,1,2.163,2.815,4.253,4.253,0,0,0-3.837,4.227v1.686a4.22,4.22,0,0,0,.481,1.959,6.805,6.805,0,0,0-1.454,1.306,6.776,6.776,0,0,0-1.447-1.305,4.22,4.22,0,0,0,.481-1.96v-1.686A4.253,4.253,0,0,0,9.33,202.3,5.115,5.115,0,0,1,11.493,199.487Zm-5.068,7.041a2.5,2.5,0,0,1,4.99,0v1.686a2.5,2.5,0,0,1-4.99,0ZM3.9,215.8a5,5,0,0,1,2.379-4.265,4.234,4.234,0,0,0,5.288,0,5.045,5.045,0,0,1,1.578,1.553,6.765,6.765,0,0,0-.564,2.712v1.245H3.9Zm10.433,0a5,5,0,0,1,2.379-4.265,4.234,4.234,0,0,0,5.288,0,5.049,5.049,0,0,1,1.578,1.553,6.765,6.765,0,0,0-.564,2.712v1.245H14.329V215.8Zm10.433,0a5,5,0,0,1,2.379-4.265,4.234,4.234,0,0,0,5.288,0,5,5,0,0,1,2.379,4.265v1.245H24.762Zm20.48,1.244H36.561V215.8A6.764,6.764,0,0,0,36,213.087a5.058,5.058,0,0,1,1.578-1.553,4.234,4.234,0,0,0,5.288,0,5,5,0,0,1,2.379,4.265v1.245Z" transform="translate(-2.145 -173.57)"/>
        <path id="Trazado_909865" data-name="Trazado 909865" d="M161.472,7.446A.876.876,0,0,0,162,6.324a3.23,3.23,0,0,1,.608-3.689,3.048,3.048,0,0,1,4.3,0,2.3,2.3,0,0,0,3.286,0,3.048,3.048,0,0,1,4.3,0,3.082,3.082,0,0,1,.757,3.22c-.878,3.281-4.949,6.631-6.7,7.292a8.8,8.8,0,0,1-1.925-1.154.876.876,0,1,0-1.053,1.4,8.948,8.948,0,0,0,2.751,1.521.875.875,0,0,0,.452,0,12.522,12.522,0,0,0,4.522-3.04,13.442,13.442,0,0,0,3.641-5.566,4.827,4.827,0,0,0-7.983-4.913.558.558,0,0,1-.813,0,4.8,4.8,0,0,0-6.77,0,4.95,4.95,0,0,0-1.019,5.525.876.876,0,0,0,1.121.526Z" transform="translate(-146.121 0.001)"/>
        <path id="Trazado_909866" data-name="Trazado 909866" d="M188.339,104a.876.876,0,1,0,.877.876.876.876,0,0,0-.877-.876Z" transform="translate(-171.23 -94.895)"/>
      </g>
    </g>
  </g>
</svg>
