<svg xmlns="http://www.w3.org/2000/svg" xmlns:xlink="http://www.w3.org/1999/xlink" width="120.425" height="120.425" viewBox="0 0 120.425 120.425">
  <defs>
    <filter id="Trazado_874925" x="0" y="0" width="120.425" height="120.425" filterUnits="userSpaceOnUse">
      <feOffset dy="3" input="SourceAlpha"/>
      <feGaussianBlur stdDeviation="3" result="blur"/>
      <feFlood flood-opacity="0.161"/>
      <feComposite operator="in" in2="blur"/>
      <feComposite in="SourceGraphic"/>
    </filter>
  </defs>
  <g id="Grupo_1116190" data-name="Grupo 1116190" transform="translate(-739.313 -6733.262)">
    <g id="Grupo_1109835" data-name="Grupo 1109835" transform="translate(748.313 6739.262)">
      <g id="Grupo_1107913" data-name="Grupo 1107913" transform="translate(0 0)">
        <g transform="matrix(1, 0, 0, 1, -9, -6)" filter="url(#Trazado_874925)">
          <g id="Trazado_874925-2" data-name="Trazado 874925" transform="translate(9 6)" fill="#9ad354" opacity="0.859">
            <path d="M 51.21249771118164 100.9252548217773 C 44.50069808959961 100.9252548217773 37.99044036865234 99.611083984375 31.86261177062988 97.01922607421875 C 25.94305419921875 94.51546478271484 20.62644004821777 90.93082427978516 16.06045532226562 86.36483764648438 C 11.4944543838501 81.79886627197266 7.909797668457031 76.48226928710938 5.406040668487549 70.56273651123047 C 2.814183473587036 64.43492126464844 1.499997735023499 57.9246940612793 1.499997735023499 51.21292495727539 C 1.499997735023499 44.50053787231445 2.814183473587036 37.99032211303711 5.406040668487549 31.86250877380371 C 7.909797668457031 25.94297981262207 11.4944543838501 20.62638092041016 16.06045532226562 16.06039428710938 C 20.62644004821777 11.49442386627197 25.94305419921875 7.909766674041748 31.86261177062988 5.406023502349854 C 37.99044036865234 2.81416654586792 44.50068283081055 1.499994993209839 51.21249771118164 1.499994993209839 C 57.92431259155273 1.499994993209839 64.43455505371094 2.81416654586792 70.56238555908203 5.406023502349854 C 76.48194122314453 7.909766674041748 81.79855346679688 11.49442386627197 86.36454010009766 16.06039428710938 C 90.9305419921875 20.62638092041016 94.51519775390625 25.94297981262207 97.01895141601562 31.86250877380371 C 99.61080932617188 37.99032211303711 100.9249954223633 44.50053787231445 100.9249954223633 51.21232223510742 C 100.9249954223633 57.9246940612793 99.61080932617188 64.43492126464844 97.01895141601562 70.56273651123047 C 94.51519775390625 76.48226928710938 90.9305419921875 81.79886627197266 86.36454010009766 86.36483764648438 C 81.79855346679688 90.93082427978516 76.48194122314453 94.51546478271484 70.56238555908203 97.01922607421875 C 64.43455505371094 99.611083984375 57.92429733276367 100.9252548217773 51.21249771118164 100.9252548217773 Z" stroke="none"/>
            <path d="M 51.21249771118164 2.999992370605469 C 44.70252990722656 2.999992370605469 38.38888549804688 4.274299621582031 32.44692993164062 6.787528991699219 C 26.7061767578125 9.215652465820312 21.54981994628906 12.69234466552734 17.12111663818359 17.12105560302734 C 12.69239044189453 21.54975891113281 9.215682983398438 26.70610046386719 6.787544250488281 32.44682312011719 C 4.274314880371094 38.38874816894531 3.000007629394531 44.70237731933594 3.000007629394531 51.21291732788086 C 3.000007629394531 57.72285461425781 4.274314880371094 64.03648376464844 6.787544250488281 69.97840881347656 C 9.215682983398438 75.71913146972656 12.69239044189453 80.87547302246094 17.12111663818359 85.30417633056641 C 21.54981994628906 89.73288726806641 26.7061767578125 93.20957946777344 32.44692993164062 95.63770294189453 C 38.38888549804688 98.15093231201172 44.70252990722656 99.42523956298828 51.21249771118164 99.42523956298828 C 57.72246551513672 99.42523956298828 64.03611755371094 98.15093231201172 69.97805023193359 95.63770294189453 C 75.71880340576172 93.20957946777344 80.87516021728516 89.73288726806641 85.30387878417969 85.30417633056641 C 89.73260498046875 80.87547302246094 93.20931243896484 75.71913146972656 95.637451171875 69.97840881347656 C 98.15068054199219 64.03648376464844 99.42498779296875 57.72285461425781 99.42498779296875 51.21231460571289 C 99.42498779296875 44.70237731933594 98.15068054199219 38.38874816894531 95.637451171875 32.44682312011719 C 93.20931243896484 26.70610046386719 89.73260498046875 21.54975891113281 85.30387878417969 17.12105560302734 C 80.87516021728516 12.69234466552734 75.71880340576172 9.215652465820312 69.97805023193359 6.787528991699219 C 64.03611755371094 4.274299621582031 57.72246551513672 2.999992370605469 51.21249771118164 2.999992370605469 M 51.21249771118164 -7.62939453125e-06 C 79.49637603759766 -7.62939453125e-06 102.4249877929688 22.92852783203125 102.4249877929688 51.21231460571289 L 102.4249877929688 51.21291732788086 C 102.4249877929688 79.4967041015625 79.49637603759766 102.4252395629883 51.21249771118164 102.4252395629883 C 22.92860412597656 102.4252395629883 7.62939453125e-06 79.4967041015625 7.62939453125e-06 51.21291732788086 L 7.62939453125e-06 51.21231460571289 C 7.62939453125e-06 22.92852783203125 22.92860412597656 -7.62939453125e-06 51.21249771118164 -7.62939453125e-06 Z" stroke="none" fill="#fff"/>
          </g>
        </g>
        <g id="Trazado_874923" data-name="Trazado 874923" fill="none">
          <path d="M51.212,0a51.212,51.212,0,0,1,51.212,51.212h0A51.212,51.212,0,0,1,0,51.213H0A51.212,51.212,0,0,1,51.212,0Z" stroke="none"/>
          <path d="M 51.21249771118164 2.999992370605469 C 44.70252990722656 2.999992370605469 38.38888549804688 4.274299621582031 32.44692993164062 6.787528991699219 C 26.7061767578125 9.215652465820312 21.54981994628906 12.69234466552734 17.12111663818359 17.12105560302734 C 12.69239044189453 21.54975891113281 9.215682983398438 26.70610046386719 6.787544250488281 32.44682312011719 C 4.274314880371094 38.38874816894531 3.000007629394531 44.70237731933594 3.000007629394531 51.21291732788086 C 3.000007629394531 57.72285461425781 4.274314880371094 64.03648376464844 6.787544250488281 69.97840881347656 C 9.215682983398438 75.71913146972656 12.69239044189453 80.87547302246094 17.12111663818359 85.30417633056641 C 21.54981994628906 89.73288726806641 26.7061767578125 93.20957946777344 32.44692993164062 95.63770294189453 C 38.38888549804688 98.15093231201172 44.70252990722656 99.42523956298828 51.21249771118164 99.42523956298828 C 57.72246551513672 99.42523956298828 64.03611755371094 98.15093231201172 69.97805023193359 95.63770294189453 C 75.71880340576172 93.20957946777344 80.87516021728516 89.73288726806641 85.30387878417969 85.30417633056641 C 89.73260498046875 80.87547302246094 93.20931243896484 75.71913146972656 95.637451171875 69.97840881347656 C 98.15068054199219 64.03648376464844 99.42498779296875 57.72285461425781 99.42498779296875 51.21231460571289 C 99.42498779296875 44.70237731933594 98.15068054199219 38.38874816894531 95.637451171875 32.44682312011719 C 93.20931243896484 26.70610046386719 89.73260498046875 21.54975891113281 85.30387878417969 17.12105560302734 C 80.87516021728516 12.69234466552734 75.71880340576172 9.215652465820312 69.97805023193359 6.787528991699219 C 64.03611755371094 4.274299621582031 57.72246551513672 2.999992370605469 51.21249771118164 2.999992370605469 M 51.21249771118164 -7.62939453125e-06 C 79.49637603759766 -7.62939453125e-06 102.4249877929688 22.92852783203125 102.4249877929688 51.21231460571289 L 102.4249877929688 51.21291732788086 C 102.4249877929688 79.4967041015625 79.49637603759766 102.4252395629883 51.21249771118164 102.4252395629883 C 22.92860412597656 102.4252395629883 7.62939453125e-06 79.4967041015625 7.62939453125e-06 51.21291732788086 L 7.62939453125e-06 51.21231460571289 C 7.62939453125e-06 22.92852783203125 22.92860412597656 -7.62939453125e-06 51.21249771118164 -7.62939453125e-06 Z" stroke="none" fill="#fff"/>
        </g>
      </g>
    </g>
    <g id="Grupo_1116189" data-name="Grupo 1116189" transform="translate(768.81 6759.759)">
      <g id="Grupo_1116187" data-name="Grupo 1116187" transform="translate(1.571 0.971)">
        <g id="Grupo_1116172" data-name="Grupo 1116172" transform="translate(0 22.33)">
          <path id="Trazado_908777" data-name="Trazado 908777" d="M58.312,25H3.942A1.947,1.947,0,0,0,2,26.942V46.36A1.947,1.947,0,0,0,3.942,48.3h54.37a1.947,1.947,0,0,0,1.942-1.942V26.942A1.947,1.947,0,0,0,58.312,25Z" transform="translate(-2 -25)" fill="#dfb28b"/>
        </g>
        <g id="Grupo_1116173" data-name="Grupo 1116173" transform="translate(33.01 26.214)">
          <path id="Trazado_908778" data-name="Trazado 908778" d="M36,29H57.36v3.884H36Z" transform="translate(-36 -29)" fill="#aab2bd"/>
        </g>
        <g id="Grupo_1116174" data-name="Grupo 1116174" transform="translate(33.01 33.981)">
          <path id="Trazado_908779" data-name="Trazado 908779" d="M36,37H57.36v3.884H36Z" transform="translate(-36 -37)" fill="#aab2bd"/>
        </g>
        <g id="Grupo_1116175" data-name="Grupo 1116175" transform="translate(3.884 26.214)">
          <path id="Trazado_908780" data-name="Trazado 908780" d="M28.33,29V44.534H24.447V42.592a3.878,3.878,0,0,0-3.884-3.884,1.947,1.947,0,0,0-1.942,1.942v3.884H6V29Z" transform="translate(-6 -29)" fill="#69d6f4"/>
        </g>
        <g id="Grupo_1116176" data-name="Grupo 1116176" transform="translate(43.117 17.991)">
          <path id="Trazado_908781" data-name="Trazado 908781" d="M58.391,24.87H46.925a8.021,8.021,0,0,0,.058-.971,7.736,7.736,0,0,0-.573-2.932c.214.019.437.019.66.019A15.493,15.493,0,0,0,50.8,20.53Z" transform="translate(-46.41 -20.53)" fill="#b4dd7f"/>
        </g>
        <g id="Grupo_1116177" data-name="Grupo 1116177" transform="translate(13.534 4.835)">
          <path id="Trazado_908782" data-name="Trazado 908782" d="M30.746,9.184l6.408,3.66c-.126-.01-.262-.019-.388-.019a3.294,3.294,0,0,0-3.291,3.291v.592l.66.262A7.744,7.744,0,0,0,30.562,23.5a8.022,8.022,0,0,0,.058.971H21.581L18.144,22.5a5.818,5.818,0,0,0-2.2-7.961l3.029-5.379a5.791,5.791,0,0,0,2.854.748A5.851,5.851,0,0,0,26.882,6.98Z" transform="translate(-15.94 -6.98)" fill="#b4dd7f"/>
        </g>
        <g id="Grupo_1116178" data-name="Grupo 1116178" transform="translate(16.563 1.942)">
          <path id="Trazado_908783" data-name="Trazado 908783" d="M26.973,6.884v.01a5.851,5.851,0,0,1-5.058,2.932,5.791,5.791,0,0,1-2.854-.748L21.914,4Z" transform="translate(-19.06 -4)" fill="#a0d468"/>
        </g>
        <g id="Grupo_1116179" data-name="Grupo 1116179" transform="translate(10.68 12.398)">
          <path id="Trazado_908784" data-name="Trazado 908784" d="M18.825,19.848a5.786,5.786,0,0,1-.767,2.884L13,19.848l2.854-5.078a5.822,5.822,0,0,1,2.971,5.078Z" transform="translate(-13 -14.77)" fill="#a0d468"/>
        </g>
        <g id="Grupo_1116180" data-name="Grupo 1116180" transform="translate(28.156 14.826)">
          <path id="Trazado_908785" data-name="Trazado 908785" d="M31.971,24.775h-.913A8.022,8.022,0,0,1,31,23.8a7.744,7.744,0,0,1,3.573-6.534l6.262,2.5a15.533,15.533,0,0,0,5.126,1.1,7.736,7.736,0,0,1,.573,2.932,8.021,8.021,0,0,1-.058.971Z" transform="translate(-31 -17.27)" fill="#fcd770"/>
        </g>
        <g id="Grupo_1116181" data-name="Grupo 1116181" transform="translate(47.574 41.748)">
          <path id="Trazado_908786" data-name="Trazado 908786" d="M58.767,48.884l1.942,3.884H57.8v8.738H53.913V52.767H51l1.942-3.884,1.5-3.019a1.579,1.579,0,0,1,2.816,0Z" transform="translate(-51 -45)" fill="#ffeaa7"/>
        </g>
        <g id="Grupo_1116182" data-name="Grupo 1116182">
          <path id="Trazado_908787" data-name="Trazado 908787" d="M9.767,5.884l1.942,3.884H8.8V21.418H4.913V9.767H2L3.942,5.884l1.5-3.019a1.579,1.579,0,0,1,2.816,0Z" transform="translate(-2 -2)" fill="#ffeaa7"/>
        </g>
        <g id="Grupo_1116183" data-name="Grupo 1116183" transform="translate(54.37 5.825)">
          <path id="Trazado_908788" data-name="Trazado 908788" d="M61.884,8V19.651H58V8Z" transform="translate(-58 -8)" fill="#ff826e"/>
        </g>
        <g id="Grupo_1116184" data-name="Grupo 1116184" transform="translate(18.447 54.37)">
          <path id="Trazado_908789" data-name="Trazado 908789" d="M38.476,59.942v1.942H21V59.942A1.947,1.947,0,0,1,22.942,58H36.534A1.947,1.947,0,0,1,38.476,59.942Z" transform="translate(-21 -58)" fill="#ff826e"/>
        </g>
        <g id="Grupo_1116185" data-name="Grupo 1116185" transform="translate(28.34 4.854)">
          <path id="Trazado_908790" data-name="Trazado 908790" d="M45.967,20.573a15.533,15.533,0,0,1-5.126-1.1l-6.262-2.5-.66-.262v-.592a3.294,3.294,0,0,1,3.291-3.291c.126,0,.262.01.388.019L31.19,9.185l.068-.058A9.7,9.7,0,0,1,37.326,7H49.142a11.627,11.627,0,0,1,5.99,1.66L57.22,9.913V17.68L52.093,19.6a15,15,0,0,1-1.738.534,15.494,15.494,0,0,1-3.728.456c-.223,0-.447,0-.66-.019Z" transform="translate(-31.19 -7)" fill="#f0d0b4"/>
        </g>
        <g id="Grupo_1116186" data-name="Grupo 1116186" transform="translate(16.505 35.923)">
          <path id="Trazado_908791" data-name="Trazado 908791" d="M26.651,48.709H40.36v1.845a5.8,5.8,0,0,1-1.272,3.631l-2.612,3.262H22.884l-2.612-3.262A5.8,5.8,0,0,1,19,50.554V40.942A1.947,1.947,0,0,1,20.942,39a3.878,3.878,0,0,1,3.884,3.884v3.884l1.2,1.2A5.56,5.56,0,0,1,26.651,48.709Z" transform="translate(-19 -39)" fill="#f0d0b4"/>
        </g>
      </g>
      <g id="Grupo_1116188" data-name="Grupo 1116188" transform="translate(0 0)">
        <path id="Trazado_908792" data-name="Trazado 908792" d="M3.895,21.389H5.836V8.767H3.524L6.27,3.275a.622.622,0,0,1,1.074,0l2.747,5.493H7.778V21.389H9.72V10.709h3.513L9.081,2.4a2.543,2.543,0,0,0-4.548,0l-4.152,8.3H3.895Z" transform="translate(-0.382 -1)"/>
        <path id="Trazado_908793" data-name="Trazado 908793" d="M61.2,20.465V6.873H55.37v1.2l-.617-.37a12.623,12.623,0,0,0-6.494-1.8H36.445a10.744,10.744,0,0,0-6.2,2l-9.222-5.27L11.332,19.859l6.158,3.519H3.913A2.916,2.916,0,0,0,1,26.291V45.708a2.916,2.916,0,0,0,2.913,2.913H17.505v.87a6.827,6.827,0,0,0,1.488,4.246l1.742,2.177a2.912,2.912,0,0,0-1.288,2.417V59.3H1v1.942H61.2V59.3H57.312V52.5h3.513l-1.971-3.942A2.915,2.915,0,0,0,61.2,45.708V26.291a2.916,2.916,0,0,0-2.913-2.913h-.956l-5.45-3.114,3.493-1.311v1.512ZM57.312,8.815h1.942v9.709H57.312ZM21.756,5.288l3.267,1.867a4.762,4.762,0,0,1-5.114,1.417Zm-5.934,10.55a4.764,4.764,0,0,1,1.43,5.167L13.97,19.13Zm3.144,6.147a6.751,6.751,0,0,0-2.174-7.871l2.151-3.822a6.744,6.744,0,0,0,7.8-2.155l7.388,4.221a4.245,4.245,0,0,0-2.059,3.628v.9a8.694,8.694,0,0,0-2.913,6.5H21.4Zm25.425-.613a6.787,6.787,0,0,1,.3,2.006H31.1a6.765,6.765,0,0,1,2.734-5.434l5.77,2.309a16.455,16.455,0,0,0,4.788,1.119Zm10.98,9.773H35.952V29.2H55.37Zm3.884,1.942v5.825H57.312V35.029H34.01v3.884H32.069V33.087ZM55.37,38.912H35.952V36.97H55.37ZM3.913,46.679a.971.971,0,0,1-.971-.971V26.291a.971.971,0,0,1,.971-.971H30.127v21.36H26.6c-.13-.155-.265-.307-.41-.451l-.921-.921v-.569h3.884V27.262H4.884V44.738H17.505v1.942Zm13.592-6.8V42.8H6.825V29.2H27.214V42.8H25.272v-.971a4.86,4.86,0,0,0-4.854-4.854A2.916,2.916,0,0,0,17.505,39.883Zm1.942,9.608V39.883a.971.971,0,0,1,.971-.971,2.916,2.916,0,0,1,2.913,2.913V46.11l1.49,1.49a4.824,4.824,0,0,1,1.422,3.433v.5h1.942v-.5a6.776,6.776,0,0,0-.447-2.413H38.865v.87A4.868,4.868,0,0,1,37.8,52.523l-2.316,2.894H22.827l-2.316-2.894A4.87,4.87,0,0,1,19.447,49.491ZM51.486,59.3H38.865V58.33a2.912,2.912,0,0,0-1.288-2.417l1.742-2.177a6.829,6.829,0,0,0,1.488-4.246v-.87h9.109L47.974,52.5h3.513Zm-30.1-.971a.971.971,0,0,1,.971-.971H35.952a.971.971,0,0,1,.971.971V59.3H21.389ZM55.37,50.563V59.3H53.428V50.563H51.115l2.747-5.492a.621.621,0,0,1,1.073,0l2.748,5.493Zm2.913-3.884h-.37l-1.24-2.48a2.543,2.543,0,0,0-4.548,0l-1.239,2.479H32.069V40.854H59.253v4.854A.971.971,0,0,1,58.283,46.679Zm.971-20.389v4.854H57.312V27.262H34.01v3.884H32.069V25.32H58.283A.971.971,0,0,1,59.253,26.291ZM46.632,23.378a8.726,8.726,0,0,0-.232-1.971,16.528,16.528,0,0,0,2.91-.374l4.1,2.345Zm4.246-4.814a14.668,14.668,0,0,1-10.555-.115l-6.312-2.525a2.316,2.316,0,0,1,3.129-2.108l7.531,2.823,3.239-1.08L47.3,13.72l-2.586.862L37.822,12a4.215,4.215,0,0,0-.77-.206L32.137,8.985a8.77,8.77,0,0,1,4.308-1.141H48.259a10.686,10.686,0,0,1,5.5,1.521l1.616.97V16.88Z" transform="translate(-0.4 -1.048)"/>
      </g>
    </g>
  </g>
</svg>
