<svg xmlns="http://www.w3.org/2000/svg" xmlns:xlink="http://www.w3.org/1999/xlink" width="117.999" height="118" viewBox="0 0 117.999 118">
  <defs>
    <filter id="Trazado_874925" x="0" y="0" width="117.999" height="118" filterUnits="userSpaceOnUse">
      <feOffset dy="3" input="SourceAlpha"/>
      <feGaussianBlur stdDeviation="3" result="blur"/>
      <feFlood flood-opacity="0.161"/>
      <feComposite operator="in" in2="blur"/>
      <feComposite in="SourceGraphic"/>
    </filter>
  </defs>
  <g id="Grupo_1112524" data-name="Grupo 1112524" transform="translate(-793.782 -1933.999)">
    <g id="Grupo_1111552" data-name="Grupo 1111552" transform="translate(-5.719 -577.158)">
      <g id="Grupo_1111316" data-name="Grupo 1111316" transform="translate(808.5 2517.157)">
        <g id="Grupo_1109835" data-name="Grupo 1109835" transform="translate(0 0)">
          <g id="Grupo_1107913" data-name="Grupo 1107913" transform="translate(0 0)">
            <g transform="matrix(1, 0, 0, 1, -9, -6)" filter="url(#Trazado_874925)">
              <g id="Trazado_874925-2" data-name="Trazado 874925" transform="translate(9 6)" fill="#9cc8ff" opacity="0.859">
                <path d="M 49.99972534179688 98.4998779296875 C 43.45164108276367 98.4998779296875 37.10022354125977 97.21776580810547 31.12189674377441 94.68914794921875 C 25.34676742553711 92.24647521972656 20.15985298156738 88.74925994873047 15.70523929595947 84.29464721679688 C 11.25062561035156 79.84004974365234 7.753411293029785 74.65313720703125 5.310725212097168 68.87800598144531 C 2.782111167907715 62.89969253540039 1.499996781349182 56.54829406738281 1.499996781349182 50.00022125244141 C 1.499996781349182 43.45157623291016 2.782111167907715 37.10017776489258 5.310725212097168 31.12186431884766 C 7.753411293029785 25.34673500061035 11.25062561035156 20.15983581542969 15.70523929595947 15.70522117614746 C 20.15985298156738 11.25062084197998 25.34676742553711 7.753406524658203 31.12189674377441 5.31073522567749 C 37.10022354125977 2.782120943069458 43.45164108276367 1.500006556510925 49.99972534179688 1.500006556510925 C 56.54780960083008 1.500006556510925 62.89922714233398 2.782120943069458 68.87755584716797 5.31073522567749 C 74.65267944335938 7.753406524658203 79.839599609375 11.25062084197998 84.29421234130859 15.70522117614746 C 88.74882507324219 20.15983581542969 92.24604034423828 25.34673500061035 94.68872833251953 31.12186431884766 C 97.21733856201172 37.10017776489258 98.49945068359375 43.45157623291016 98.49945068359375 49.99964904785156 C 98.49945068359375 56.54829406738281 97.21733856201172 62.89969253540039 94.68872833251953 68.87800598144531 C 92.24604034423828 74.65313720703125 88.74882507324219 79.84004974365234 84.29421234130859 84.29464721679688 C 79.839599609375 88.74925994873047 74.65267944335938 92.24647521972656 68.87755584716797 94.68914794921875 C 62.89922714233398 97.21776580810547 56.54780960083008 98.4998779296875 49.99972534179688 98.4998779296875 Z" stroke="none"/>
                <path d="M 49.99972534179688 3 C 43.65348052978516 3 37.49866485595703 4.242240905761719 31.70623016357422 6.692230224609375 C 26.10989379882812 9.059272766113281 21.08323669433594 12.44853210449219 16.76589202880859 16.76587677001953 C 12.44855499267578 21.08321380615234 9.059295654296875 26.10985565185547 6.692230224609375 31.70618438720703 C 4.24224853515625 37.49859619140625 3 43.65341186523438 3 50.00022888183594 C 3 56.34645843505859 4.24224853515625 62.50127410888672 6.692230224609375 68.29368591308594 C 9.059295654296875 73.8900146484375 12.44855499267578 78.91665649414062 16.76589202880859 83.23399353027344 C 21.08323669433594 87.55132293701172 26.10989379882812 90.94059753417969 31.70623016357422 93.30764007568359 C 37.49866485595703 95.75762939453125 43.65348052978516 96.99987030029297 49.99972534179688 96.99987030029297 C 56.34597015380859 96.99987030029297 62.50078582763672 95.75762939453125 68.293212890625 93.30764007568359 C 73.88955688476562 90.94059753417969 78.91621398925781 87.55132293701172 83.23355865478516 83.23399353027344 C 87.55089569091797 78.91665649414062 90.94015502929688 73.8900146484375 93.30722045898438 68.29368591308594 C 95.7572021484375 62.50127410888672 96.99945068359375 56.34645843505859 96.99945068359375 49.99964141845703 C 96.99945068359375 43.65341186523438 95.7572021484375 37.49859619140625 93.30722045898438 31.70618438720703 C 90.94015502929688 26.10985565185547 87.55089569091797 21.08321380615234 83.23355865478516 16.76587677001953 C 78.91621398925781 12.44853210449219 73.88955688476562 9.059272766113281 68.293212890625 6.692230224609375 C 62.50078582763672 4.242240905761719 56.34597015380859 3 49.99972534179688 3 M 49.99972534179688 0 C 77.61381530761719 0 99.99945068359375 22.38559722900391 99.99945068359375 49.99964141845703 L 99.99945068359375 50.00022888183594 C 99.99945068359375 77.6142578125 77.61381530761719 99.99987030029297 49.99972534179688 99.99987030029297 C 22.38563537597656 99.99987030029297 0 77.6142578125 0 50.00022888183594 L 0 49.99964141845703 C 0 22.38559722900391 22.38563537597656 0 49.99972534179688 0 Z" stroke="none" fill="#fff"/>
              </g>
            </g>
            <g id="Trazado_874923" data-name="Trazado 874923" transform="translate(0 0)" fill="none">
              <path d="M50,0a50,50,0,0,1,50,50h0A50,50,0,0,1,0,50H0A50,50,0,0,1,50,0Z" stroke="none"/>
              <path d="M 49.99972534179688 3 C 43.65348052978516 3 37.49866485595703 4.242240905761719 31.70623016357422 6.692230224609375 C 26.10989379882812 9.059272766113281 21.08323669433594 12.44853210449219 16.76589202880859 16.76587677001953 C 12.44855499267578 21.08321380615234 9.059295654296875 26.10985565185547 6.692230224609375 31.70618438720703 C 4.24224853515625 37.49859619140625 3 43.65341186523438 3 50.00022888183594 C 3 56.34645843505859 4.24224853515625 62.50127410888672 6.692230224609375 68.29368591308594 C 9.059295654296875 73.8900146484375 12.44855499267578 78.91665649414062 16.76589202880859 83.23399353027344 C 21.08323669433594 87.55132293701172 26.10989379882812 90.94059753417969 31.70623016357422 93.30764007568359 C 37.49866485595703 95.75762939453125 43.65348052978516 96.99987030029297 49.99972534179688 96.99987030029297 C 56.34597015380859 96.99987030029297 62.50078582763672 95.75762939453125 68.293212890625 93.30764007568359 C 73.88955688476562 90.94059753417969 78.91621398925781 87.55132293701172 83.23355865478516 83.23399353027344 C 87.55089569091797 78.91665649414062 90.94015502929688 73.8900146484375 93.30722045898438 68.29368591308594 C 95.7572021484375 62.50127410888672 96.99945068359375 56.34645843505859 96.99945068359375 49.99964141845703 C 96.99945068359375 43.65341186523438 95.7572021484375 37.49859619140625 93.30722045898438 31.70618438720703 C 90.94015502929688 26.10985565185547 87.55089569091797 21.08321380615234 83.23355865478516 16.76587677001953 C 78.91621398925781 12.44853210449219 73.88955688476562 9.059272766113281 68.293212890625 6.692230224609375 C 62.50078582763672 4.242240905761719 56.34597015380859 3 49.99972534179688 3 M 49.99972534179688 0 C 77.61381530761719 0 99.99945068359375 22.38559722900391 99.99945068359375 49.99964141845703 L 99.99945068359375 50.00022888183594 C 99.99945068359375 77.6142578125 77.61381530761719 99.99987030029297 49.99972534179688 99.99987030029297 C 22.38563537597656 99.99987030029297 0 77.6142578125 0 50.00022888183594 L 0 49.99964141845703 C 0 22.38559722900391 22.38563537597656 0 49.99972534179688 0 Z" stroke="none" fill="#fff"/>
            </g>
          </g>
        </g>
      </g>
    </g>
    <g id="Grupo_1115326" data-name="Grupo 1115326" transform="translate(816.274 1914.977)">
      <g id="Grupo_1115326-2" data-name="Grupo 1115326" transform="translate(10.967 48.797)">
        <path id="Trazado_908006" data-name="Trazado 908006" d="M121.178,126.948c-34.771-6.629-35.271-23.014-34.521-26.266.625-2.5-.75-6.379-.75-6.379-.875-2.5.5-6,1.5-7.63,0,0-4.378,3.252-4.253,7.5,0,0,.125,4-1.251,6.254-1.626,2.752-5.879,17.386,21.138,33.4A41.824,41.824,0,0,0,121.3,131.7a1.766,1.766,0,0,0,1.251-1.751v-1.126a1.609,1.609,0,0,0-1.376-1.876" transform="translate(-80.644 -82.105)" fill="#ffdd09"/>
        <path id="Trazado_908007" data-name="Trazado 908007" d="M160.079,93.717l-.25-1.126a1.886,1.886,0,0,0-1.876-1.5c-35.4.875-39.274-15.134-39.274-18.511,0-2.627-2-5.879-2-5.879-2.251-3.627,2-10.381,2-10.381-2-1.876-5.753,0-7.254.5h0l.375.5a5.681,5.681,0,0,1,1.876,2.752c-.875,1.5-2,4.253-1.751,6.379a4.439,4.439,0,0,0,.25,1.251s1.251,3.752.75,6.379c-.75,3.252-.25,19.637,34.521,26.266.125,0,.25.125.375.125a44.227,44.227,0,0,0,11.507-4.878,1.783,1.783,0,0,0,.75-1.876" transform="translate(-106.913 -55.503)" fill="#ffdd09"/>
      </g>
      <path id="Trazado_908008" data-name="Trazado 908008" d="M145.438,61.074s-4.253,6.754-2,10.381c0,0,2,3.252,2,5.879,0,3.377,3.877,19.387,39.4,18.511h.125a42.374,42.374,0,0,0,10.006-7.129,1.729,1.729,0,0,0,.375-2l-.5-1a1.856,1.856,0,0,0-2.126-1c-34.4,8.255-41.65-6.629-42.276-9.881-.5-2.627-3.252-5.378-3.252-5.378-3-3.127-1.751-8.38-1.751-8.38" transform="translate(-122.705 -11.46)" fill="#fd9808"/>
      <g id="Grupo_1115327" data-name="Grupo 1115327" transform="translate(47.748 73.177)">
        <path id="Trazado_908009" data-name="Trazado 908009" d="M460.88,228.414a37.368,37.368,0,0,0,2.877-2.5,1.729,1.729,0,0,0,.375-2l-.5-1a1.726,1.726,0,0,0-2.126-1c-1.251.25-2.5.625-3.627.875Z" transform="translate(-439.367 -221.834)" fill="#1cd759"/>
        <path id="Trazado_908010" data-name="Trazado 908010" d="M398.666,305.18a37.706,37.706,0,0,0,4.628-2.376,1.86,1.86,0,0,0,.875-1.876l-.25-1.126a1.886,1.886,0,0,0-1.876-1.5H397.29Z" transform="translate(-387.659 -287.093)" fill="#1cd759"/>
        <path id="Trazado_908011" data-name="Trazado 908011" d="M335.336,357.077l-3.752-.75v6.629c1.751-.375,3-.875,4-1.126a1.766,1.766,0,0,0,1.251-1.751v-1.126a1.792,1.792,0,0,0-1.5-1.876" transform="translate(-331.584 -336.614)" fill="#1cd759"/>
      </g>
      <path id="SVGCleanerId_0" d="M223.367,410.506c-1.376-.75-2.5-1.376-3.752-2.126l-2.376,6.254a47.442,47.442,0,0,0,4.878.375,1.881,1.881,0,0,0,1.751-1.251l.375-1.126a1.788,1.788,0,0,0-.876-2.126" transform="translate(-186.25 -307.86)" fill="#1cd759"/>
      <path id="Trazado_908012" data-name="Trazado 908012" d="M44.7,116.215l-.375,1.126a1.766,1.766,0,0,1-1.751,1.251c-7.129-.125-43.652-3.877-34.146-42.526.625-2.5,2-4.878,4.378-5.879a6.807,6.807,0,0,1,3.627-.375s2.251-2.877,2.5-8.755c0,0,4.253-.25,5.5,3.752,0,0-4.378,3.252-4.253,7.5,0,0,.125,4-1.251,6.254-1.751,2.877-6.254,18.636,24.89,35.522a1.788,1.788,0,0,1,.875,2.126" transform="translate(-6.706 -11.442)" fill="#fff"/>
      <path id="Trazado_908013" data-name="Trazado 908013" d="M58.212,116.215l-.25,1.126a1.585,1.585,0,0,1-1.5,1.251c-6.254-.125-39.149-3.877-31.019-42.526.5-2.5,1.751-4.878,3.752-5.879a5.194,5.194,0,0,1,3.127-.375s2-2.877,2.126-8.755A4.762,4.762,0,0,1,39.2,64.808s-3.752,3.252-3.752,7.5c0,0,.125,4-1.126,6.254-1.251,2.752-3.877,18.636,23.139,35.522a1.732,1.732,0,0,1,.75,2.126" transform="translate(-21.47 -11.442)" fill="#ffdd09"/>
      <g id="Grupo_1115328" data-name="Grupo 1115328" transform="translate(30.988 100.52)">
        <path id="SVGCleanerId_0_1_" d="M223.367,410.506c-1.376-.75-2.5-1.376-3.752-2.126l-2.376,6.254a47.442,47.442,0,0,0,4.878.375,1.881,1.881,0,0,0,1.751-1.251l.375-1.126a1.788,1.788,0,0,0-.876-2.126" transform="translate(-217.238 -408.38)" fill="#1cd759"/>
      </g>
      <path id="Trazado_908014" data-name="Trazado 908014" d="M35.991,112.348h0A50.481,50.481,0,0,1,22.107,110.1c-7.5-2.376-13.383-6.129-17.261-11.132-5.879-7.63-7.38-17.886-4.253-30.519a9.6,9.6,0,0,1,5-6.754,5.959,5.959,0,0,1,3.5-.75,15.5,15.5,0,0,0,1.876-7.5A1.121,1.121,0,0,1,12.1,52.311a6.507,6.507,0,0,1,6.879,4.628,1.188,1.188,0,0,1-.5,1.376s-3.877,2.877-3.752,6.379c0,.125.125,4.378-1.376,6.879-.125.125-2.126,3.627-.5,9.381,1.626,5.879,7.254,14.884,24.89,24.39a3.113,3.113,0,0,1,1.5,3.627l-.375,1.126A3.16,3.16,0,0,1,35.991,112.348ZM8.724,63.443a4.419,4.419,0,0,0-2.126.5c-2.376,1-3.252,3.627-3.627,5C.094,80.829,1.345,90.334,6.723,97.339c9.506,12.132,28.392,12.508,29.143,12.508a.67.67,0,0,0,.5-.375l.375-1.126h0c.125-.25,0-.5-.25-.75C18.1,97.589,12.1,87.958,10.35,81.579c-1.876-6.754.5-10.882.75-11.382,1-1.626,1.126-4.628,1.126-5.628-.125-3.5,2.627-6.379,4-7.63a4.481,4.481,0,0,0-2.877-2.126c-.5,5.378-2.627,8.13-2.627,8.13a1.024,1.024,0,0,1-1.251.5Z" transform="translate(0 -3.948)"/>
      <path id="Trazado_908015" data-name="Trazado 908015" d="M174.358,89.971c-18.886,0-28.142-5.128-32.52-9.506-5-4.878-5.128-9.756-5.128-10.256a11.275,11.275,0,0,0-1.876-5.253c-2.5-4.128,1.5-10.882,2-11.632a1.248,1.248,0,0,1,1.5-.5,1.194,1.194,0,0,1,.75,1.376h0s-1,4.753,1.376,7.254c.125.125,3,3.127,3.627,6,0,.125.875,4.128,6,7.38s15.384,6.129,34.771,1.376a2.914,2.914,0,0,1,3.5,1.751l.5,1a3.055,3.055,0,0,1-.75,3.5,48.992,48.992,0,0,1-10.381,7.38,1.355,1.355,0,0,1-.75.125ZM136.835,59.7c-.375,1.5-.5,3,.125,4a13.873,13.873,0,0,1,2.251,6.5c0,1.376.875,5,4.378,8.505,4.378,4.253,13.633,9.256,33.52,8.755a46.171,46.171,0,0,0,9.506-6.754,1.587,1.587,0,0,0,.125-.75l-.5-1a.688.688,0,0,0-.625-.375c-20.262,5-31.144,1.876-36.647-1.751-5.879-3.752-7-8.38-7.129-9.005-.375-1.751-2.251-4-3-4.753A6.293,6.293,0,0,1,136.835,59.7Zm1.126-5.753Z" transform="translate(-115.227 -4.335)"/>
      <path id="Trazado_908016" data-name="Trazado 908016" d="M454.508,221.536h-.25a2.242,2.242,0,0,1-.875-.625l-2.877-5.879a1.736,1.736,0,0,1,0-1.126.94.94,0,0,1,.875-.625c1.126-.25,2.376-.5,3.627-.875a2.914,2.914,0,0,1,3.5,1.751l.5,1a3.055,3.055,0,0,1-.75,3.5,30.211,30.211,0,0,1-3,2.5A.756.756,0,0,1,454.508,221.536Zm-1.126-6.254,1.5,3c.75-.625,1.251-1.126,1.626-1.5.25-.125.25-.375.25-.625l-.5-1a.688.688,0,0,0-.625-.375A14.553,14.553,0,0,1,453.382,215.282Z" transform="translate(-385.246 -140.528)"/>
      <path id="Trazado_908017" data-name="Trazado 908017" d="M391.1,299.149a1.128,1.128,0,0,1-.625-.125.94.94,0,0,1-.625-.875l-1.376-6.879a.973.973,0,0,1,.25-1,1.544,1.544,0,0,1,1-.5h4.753a3.2,3.2,0,0,1,3.127,2.5l.25,1.126a3.034,3.034,0,0,1-1.376,3.252,48.72,48.72,0,0,1-4.753,2.5Zm.125-6.879.75,3.877c1.251-.625,2.376-1.251,3-1.626.25-.125.25-.375.25-.625l-.125-1.251a.572.572,0,0,0-.625-.5A28.281,28.281,0,0,1,391.223,292.269Z" transform="translate(-332.343 -206.634)"/>
      <path id="Trazado_908018" data-name="Trazado 908018" d="M324.3,356.637a1.777,1.777,0,0,1-.75-.25,1.544,1.544,0,0,1-.5-1v-6.629a1.138,1.138,0,0,1,.5-1,.973.973,0,0,1,1-.25c1.126.25,2.376.5,3.627.75h0a3.1,3.1,0,0,1,2.5,3.127v1.126a3.081,3.081,0,0,1-2.126,2.877,41.476,41.476,0,0,1-4.128,1.126C324.552,356.637,324.427,356.637,324.3,356.637Zm1.251-6.379v3.377a11.627,11.627,0,0,0,2.251-.75c.25-.125.375-.25.375-.5v-1.126a.831.831,0,0,0-.5-.625h0A15.311,15.311,0,0,1,325.553,350.258Z" transform="translate(-276.554 -255.867)"/>
      <path id="Trazado_908019" data-name="Trazado 908019" d="M215.208,408.5h0a34.339,34.339,0,0,1-5.128-.375.94.94,0,0,1-.875-.625,1.215,1.215,0,0,1-.125-1.126l2.376-6.254a1.127,1.127,0,0,1,.75-.75.945.945,0,0,1,1,.125c1.376.75,2.5,1.5,3.752,2.126a3.113,3.113,0,0,1,1.5,3.627l-.375,1.126A3.208,3.208,0,0,1,215.208,408.5Zm-3.252-2.752c1.626.125,2.752.25,3.127.25a.67.67,0,0,0,.5-.375l.375-1.126c.125-.25,0-.5-.25-.75h0c-.75-.5-1.626-.875-2.5-1.376Z" transform="translate(-179.217 -300.099)"/>
      <path id="Trazado_908020" data-name="Trazado 908020" d="M52.486,292.725a1.251,1.251,0,1,1-1.251-1.251,1.182,1.182,0,0,1,1.251,1.251" transform="translate(-43.512 -208.09)"/>
      <path id="Trazado_908021" data-name="Trazado 908021" d="M52.486,147.658a1.251,1.251,0,1,1-1.251-1.251,1.182,1.182,0,0,1,1.251,1.251" transform="translate(-43.512 -84.286)"/>
      <path id="Trazado_908022" data-name="Trazado 908022" d="M35.419,190.325a1.251,1.251,0,1,1-1.251-1.251,1.182,1.182,0,0,1,1.251,1.251" transform="translate(-28.947 -120.699)"/>
      <path id="Trazado_908023" data-name="Trazado 908023" d="M43.953,224.458a1.251,1.251,0,1,1-1.251-1.251,1.182,1.182,0,0,1,1.251,1.251" transform="translate(-36.23 -149.829)"/>
      <path id="Trazado_908024" data-name="Trazado 908024" d="M61.019,326.858a1.251,1.251,0,1,1-1.251-1.251,1.182,1.182,0,0,1,1.251,1.251" transform="translate(-50.794 -237.22)"/>
      <path id="Trazado_908025" data-name="Trazado 908025" d="M95.153,335.392a1.251,1.251,0,1,1-1.251-1.251,1.182,1.182,0,0,1,1.251,1.251" transform="translate(-79.925 -244.503)"/>
      <path id="Trazado_908026" data-name="Trazado 908026" d="M95.153,369.525a1.251,1.251,0,1,1-1.251-1.251,1.182,1.182,0,0,1,1.251,1.251" transform="translate(-79.925 -273.633)"/>
      <path id="Trazado_908027" data-name="Trazado 908027" d="M140.789,95.016a.752.752,0,0,1-.5-.125l-.125-.125c-20.513-3.877-29.143-11.257-32.77-16.76C103.641,72.128,104.517,67.5,104.642,67c.375-1.751-.375-4.628-.625-5.628-.125-.375-.25-1.251-.375-1.5-.25-2.376.875-5.128,1.626-6.629a4.064,4.064,0,0,0-1.251-1.626c-.125-.125-.25-.125-.25-.25l-.375-.5a1.215,1.215,0,0,1-.125-1.126,1.127,1.127,0,0,1,.75-.75l.5-.125c1.876-.75,5.753-2.251,8-.125a1.329,1.329,0,0,1,.25,1.626c-1,1.751-3.5,6.629-2,9.005,0,.125,2.126,3.5,2.126,6.5,0,1.376.875,5,4.378,8.505,4.378,4.253,13.758,9.256,33.771,8.755h.125a2.971,2.971,0,0,1,3,2.5l.25,1.126a3.034,3.034,0,0,1-1.376,3.252,45.719,45.719,0,0,1-11.757,5Zm-34.271-44.4a7.172,7.172,0,0,1,1.251,2.376,1.371,1.371,0,0,1,0,1,11.847,11.847,0,0,0-1.626,5.628,3.864,3.864,0,0,0,.25,1c0,.125,1.376,4.128.75,7,0,.125-.875,4,2.376,9.131C112.9,81.883,120.9,88.763,140.664,92.39h.25a44,44,0,0,0,10.757-4.628c.25-.125.25-.375.25-.625l-.25-1.126a.572.572,0,0,0-.625-.5c-20.888.5-30.894-4.878-35.522-9.506-5-4.878-5.128-9.756-5.128-10.256a11.275,11.275,0,0,0-1.876-5.253c-2-3.252.125-8.255,1.376-10.506A8.446,8.446,0,0,0,106.518,50.614Z" transform="translate(-88.913 0)"/>
      <path id="Trazado_908028" data-name="Trazado 908028" d="M100.3,127.945c-1.376,0-2.877-.125-4.378-.25-.125,0-.375-.125-.5-.125C79.534,118.064,74.531,109.058,73.03,103.3c-1.626-6.5.625-10.506.875-10.882,1-1.626,1.126-4.628,1.126-5.628-.125-4.753,4.5-8.38,4.753-8.505a1.178,1.178,0,0,1,1.626.125,1.3,1.3,0,0,1,.25,1.626c-1.251,1.751-2.251,4.628-1.626,6.5,0,.125,1.376,4.128.75,7,0,.125-.875,4,2.376,9.131,3.377,5.128,11.382,12.007,31.144,15.635h0a3.1,3.1,0,0,1,2.5,3.127v1.126a3.081,3.081,0,0,1-2.126,2.877A46.588,46.588,0,0,1,100.3,127.945Zm-3.752-2.752a42.961,42.961,0,0,0,17.511-2.126c.25-.125.375-.25.375-.5v-1.126a.831.831,0,0,0-.5-.625h0c-20.638-3.877-29.143-11.257-32.77-16.76-3.752-5.879-2.877-10.506-2.752-11.007.375-1.751-.375-4.628-.625-5.628a3.654,3.654,0,0,1-.25-1.126v.5c0,.125.125,4.378-1.376,6.879-.125.125-2,3.377-.625,9.005C76.783,108.058,81.535,116.313,96.545,125.193Z" transform="translate(-62.68 -25.924)"/>
    </g>
  </g>
</svg>
