<svg xmlns="http://www.w3.org/2000/svg" xmlns:xlink="http://www.w3.org/1999/xlink" width="130.342" height="130.343" viewBox="0 0 130.342 130.343">
  <defs>
    <filter id="Trazado_874925" x="0" y="0" width="130.342" height="130.343" filterUnits="userSpaceOnUse">
      <feOffset dy="3" input="SourceAlpha"/>
      <feGaussianBlur stdDeviation="3" result="blur"/>
      <feFlood flood-opacity="0.161"/>
      <feComposite operator="in" in2="blur"/>
      <feComposite in="SourceGraphic"/>
    </filter>
  </defs>
  <g id="Grupo_1117818" data-name="Grupo 1117818" transform="translate(-616.051 -8868)">
    <g id="Grupo_1112566" data-name="Grupo 1112566" transform="translate(625.051 8874)">
      <g id="Grupo_1111316" data-name="Grupo 1111316" transform="translate(0 0)">
        <g id="Grupo_1109835" data-name="Grupo 1109835" transform="translate(0 0)">
          <g id="Grupo_1107913" data-name="Grupo 1107913">
            <g transform="matrix(1, 0, 0, 1, -9, -6)" filter="url(#Trazado_874925)">
              <g id="Trazado_874925-2" data-name="Trazado 874925" transform="translate(9 6)" fill="#fc0" opacity="0.859">
                <path d="M 56.17097854614258 110.8423385620117 C 48.78977966308594 110.8423385620117 41.63018035888672 109.3970642089844 34.89102554321289 106.5466537475586 C 31.65187072753906 105.1766052246094 28.5275936126709 103.4807891845703 25.6049633026123 101.5063095092773 C 22.709716796875 99.55032348632812 19.98711776733398 97.303955078125 17.51276397705078 94.82962036132812 C 15.03842449188232 92.35527801513672 12.79205513000488 89.63266754150391 10.83605575561523 86.73743438720703 C 8.861578941345215 83.8148193359375 7.165763378143311 80.69054412841797 5.795701503753662 77.45138549804688 C 2.945286273956299 70.71226501464844 1.500009298324585 63.55266571044922 1.500009298324585 56.1714973449707 C 1.500009298324585 48.78966522216797 2.945286273956299 41.63008117675781 5.795701503753662 34.89094161987305 C 7.165763378143311 31.65180397033691 8.861578941345215 28.52752685546875 10.83605575561523 25.60491180419922 C 12.79205513000488 22.70966529846191 15.03842449188232 19.9870662689209 17.51276397705078 17.51272773742676 C 19.98711776733398 15.0383882522583 22.709716796875 12.79201889038086 25.6049633026123 10.83603477478027 C 28.5275936126709 8.861557960510254 31.65187072753906 7.16574239730835 34.89102554321289 5.795696258544922 C 41.63018035888672 2.945280790328979 48.78977966308594 1.500003814697266 56.17097854614258 1.500003814697266 C 63.55217742919922 1.500003814697266 70.7117919921875 2.945280790328979 77.45093536376953 5.795696258544922 C 80.69010162353516 7.16574239730835 83.81437683105469 8.861557960510254 86.73700714111328 10.83603477478027 C 89.63225555419922 12.79201889038086 92.3548583984375 15.0383882522583 94.82920837402344 17.51272773742676 C 97.30355072021484 19.9870662689209 99.54991912841797 22.70966529846191 101.5059051513672 25.60491180419922 C 103.4803924560547 28.52752685546875 105.1762084960938 31.65180397033691 106.546272277832 34.89094161987305 C 109.3966827392578 41.63008117675781 110.8419647216797 48.78966522216797 110.8419647216797 56.17084884643555 C 110.8419647216797 63.55266571044922 109.3966827392578 70.71226501464844 106.546272277832 77.45138549804688 C 105.1762084960938 80.69054412841797 103.4803924560547 83.8148193359375 101.5059051513672 86.73743438720703 C 99.54991912841797 89.63266754150391 97.30355072021484 92.35527801513672 94.82920837402344 94.82962036132812 C 92.3548583984375 97.303955078125 89.63225555419922 99.55032348632812 86.73700714111328 101.5063095092773 C 83.81437683105469 103.4807891845703 80.69010162353516 105.1766052246094 77.45093536376953 106.5466537475586 C 70.7117919921875 109.3970642089844 63.55217742919922 110.8423385620117 56.17097854614258 110.8423385620117 Z" stroke="none"/>
                <path d="M 56.17097854614258 2.999992370605469 C 48.99162673950195 2.999992370605469 42.02861022949219 4.405403137207031 35.47536468505859 7.177192687988281 C 29.14414215087891 9.855056762695312 23.45751190185547 13.68929290771484 18.57341003417969 18.57337188720703 C 13.68930816650391 23.45745849609375 9.855079650878906 29.14408874511719 7.177192687988281 35.47527313232422 C 4.405410766601562 42.02850341796875 2.999992370605469 48.99150466918945 2.999992370605469 56.17148971557617 C 2.999992370605469 63.35082244873047 4.405410766601562 70.31382751464844 7.177192687988281 76.86705780029297 C 9.855079650878906 83.1982421875 13.68930816650391 88.88487243652344 18.57341003417969 93.76895904541016 C 23.45751190185547 98.65303802490234 29.14414215087891 102.4872741699219 35.47536468505859 105.1651382446289 C 42.02861022949219 107.9369201660156 48.99162673950195 109.3423385620117 56.17097854614258 109.3423385620117 C 63.35034561157227 109.3423385620117 70.31336212158203 107.9369201660156 76.86660766601562 105.1651382446289 C 83.19781494140625 102.4872741699219 88.88444519042969 98.65303802490234 93.76854705810547 93.76895904541016 C 98.65264892578125 88.88487243652344 102.4868774414062 83.19825744628906 105.1647644042969 76.86705780029297 C 107.9365463256836 70.31382751464844 109.3419647216797 63.35082244873047 109.3419647216797 56.17084121704102 C 109.3419647216797 48.99150466918945 107.9365463256836 42.02850341796875 105.1647644042969 35.47527313232422 C 102.4868774414062 29.14407348632812 98.65264892578125 23.45745849609375 93.76854705810547 18.57337188720703 C 88.88444519042969 13.68929290771484 83.19781494140625 9.855056762695312 76.86660766601562 7.177192687988281 C 70.31336212158203 4.405403137207031 63.35034561157227 2.999992370605469 56.17097854614258 2.999992370605469 M 56.17097854614258 -7.62939453125e-06 C 87.193359375 -7.62939453125e-06 112.3419647216797 25.14853668212891 112.3419647216797 56.17084121704102 L 112.3419647216797 56.17148971557617 C 112.3419647216797 87.19378662109375 87.193359375 112.3423385620117 56.17097854614258 112.3423385620117 C 25.14861297607422 112.3423385620117 -7.62939453125e-06 87.19378662109375 -7.62939453125e-06 56.17148971557617 L -7.62939453125e-06 56.17084121704102 C -7.62939453125e-06 25.14853668212891 25.14861297607422 -7.62939453125e-06 56.17097854614258 -7.62939453125e-06 Z" stroke="none" fill="#fff"/>
              </g>
            </g>
            <g id="Trazado_874923" data-name="Trazado 874923" fill="none">
              <path d="M56.171,0a56.171,56.171,0,0,1,56.171,56.171h0A56.171,56.171,0,0,1,0,56.171H0A56.171,56.171,0,0,1,56.171,0Z" stroke="none"/>
              <path d="M 56.17097854614258 2.999992370605469 C 48.99162673950195 2.999992370605469 42.02861022949219 4.405403137207031 35.47536468505859 7.177192687988281 C 29.14414215087891 9.855056762695312 23.45751190185547 13.68929290771484 18.57341003417969 18.57337188720703 C 13.68930816650391 23.45745849609375 9.855079650878906 29.14408874511719 7.177192687988281 35.47527313232422 C 4.405410766601562 42.02850341796875 2.999992370605469 48.99150466918945 2.999992370605469 56.17148971557617 C 2.999992370605469 63.35082244873047 4.405410766601562 70.31382751464844 7.177192687988281 76.86705780029297 C 9.855079650878906 83.1982421875 13.68930816650391 88.88487243652344 18.57341003417969 93.76895904541016 C 23.45751190185547 98.65303802490234 29.14414215087891 102.4872741699219 35.47536468505859 105.1651382446289 C 42.02861022949219 107.9369201660156 48.99162673950195 109.3423385620117 56.17097854614258 109.3423385620117 C 63.35034561157227 109.3423385620117 70.31336212158203 107.9369201660156 76.86660766601562 105.1651382446289 C 83.19781494140625 102.4872741699219 88.88444519042969 98.65303802490234 93.76854705810547 93.76895904541016 C 98.65264892578125 88.88487243652344 102.4868774414062 83.19825744628906 105.1647644042969 76.86705780029297 C 107.9365463256836 70.31382751464844 109.3419647216797 63.35082244873047 109.3419647216797 56.17084121704102 C 109.3419647216797 48.99150466918945 107.9365463256836 42.02850341796875 105.1647644042969 35.47527313232422 C 102.4868774414062 29.14407348632812 98.65264892578125 23.45745849609375 93.76854705810547 18.57337188720703 C 88.88444519042969 13.68929290771484 83.19781494140625 9.855056762695312 76.86660766601562 7.177192687988281 C 70.31336212158203 4.405403137207031 63.35034561157227 2.999992370605469 56.17097854614258 2.999992370605469 M 56.17097854614258 -7.62939453125e-06 C 87.193359375 -7.62939453125e-06 112.3419647216797 25.14853668212891 112.3419647216797 56.17084121704102 L 112.3419647216797 56.17148971557617 C 112.3419647216797 87.19378662109375 87.193359375 112.3423385620117 56.17097854614258 112.3423385620117 C 25.14861297607422 112.3423385620117 -7.62939453125e-06 87.19378662109375 -7.62939453125e-06 56.17148971557617 L -7.62939453125e-06 56.17084121704102 C -7.62939453125e-06 25.14853668212891 25.14861297607422 -7.62939453125e-06 56.17097854614258 -7.62939453125e-06 Z" stroke="none" fill="#fff"/>
            </g>
          </g>
        </g>
      </g>
    </g>
    <g id="Page-1" transform="translate(649.051 8893.017)">
      <g id="_061---tip-alert" data-name="061---tip-alert" transform="translate(0 -0.017)">
        <g id="color" transform="translate(1.233 1.223)">
          <path id="Shape" d="M61.655,16.932V50.226a4.932,4.932,0,0,1-4.932,4.932H44.392a2.466,2.466,0,0,0-1.973.986L32.726,69.068a2.466,2.466,0,0,1-3.8,0L19.236,56.145a2.466,2.466,0,0,0-1.973-.986H4.932A4.932,4.932,0,0,1,0,50.226V16.932A4.932,4.932,0,0,1,4.932,12h9.026a17.337,17.337,0,0,0,5.006,16.215,14.871,14.871,0,0,1,4.464,10.839v7.473a3.7,3.7,0,0,0,3.7,3.7h7.4a3.7,3.7,0,0,0,3.7-3.7V38.845a14.366,14.366,0,0,1,4.39-10.555A17.177,17.177,0,0,0,48.091,15.7,17.436,17.436,0,0,0,47.7,12h9.026a4.932,4.932,0,0,1,4.932,4.932Z" transform="translate(0 1.595)" fill="#e91e63"/>
          <g id="Grupo_1117817" data-name="Grupo 1117817" transform="translate(9.871 13.595)">
            <path id="Shape-2" data-name="Shape" d="M13.4,28.215a14.871,14.871,0,0,1,4.464,10.839v7.473a3.7,3.7,0,0,0,3.7,3.7h3.7a3.7,3.7,0,0,1-3.7-3.7V39.054A14.871,14.871,0,0,0,17.1,28.215,17.337,17.337,0,0,1,12.093,12h-3.7A17.337,17.337,0,0,0,13.4,28.215Z" transform="translate(-8.005 -12)" fill="#ad1457"/>
            <path id="Shape-3" data-name="Shape" d="M46.7,12H43a4.932,4.932,0,0,1,4.932,4.932V50.226A4.932,4.932,0,0,1,43,55.158h3.7a4.932,4.932,0,0,0,4.932-4.932V16.932A4.932,4.932,0,0,0,46.7,12Z" transform="translate(0.152 -12)" fill="#ad1457"/>
            <path id="Shape-4" data-name="Shape" d="M33.232,47.986,23.54,60.909a2.466,2.466,0,0,0,3.7,0l9.692-12.923A2.466,2.466,0,0,1,38.9,47h-3.7a2.466,2.466,0,0,0-1.973.986Z" transform="translate(-4.384 -3.842)" fill="#ad1457"/>
          </g>
          <path id="Shape-5" data-name="Shape" d="M45.526,18.269a17.177,17.177,0,0,1-5.475,12.59,14.366,14.366,0,0,0-4.39,10.555v2.75h-14.8v-2.54A14.871,14.871,0,0,0,16.4,30.785,17.264,17.264,0,1,1,45.526,18.269Z" transform="translate(2.565 -0.975)" fill="#ffeb3a"/>
          <path id="Shape-6" data-name="Shape" d="M42.223,14.568A17.263,17.263,0,0,0,24.516,1a4.2,4.2,0,0,0-1.036.086,17.263,17.263,0,0,1,9.963,29.742,14.366,14.366,0,0,0-4.39,10.58v2.75h3.7v-2.75a14.366,14.366,0,0,1,4.39-10.555,17.177,17.177,0,0,0,5.475-12.59,17.436,17.436,0,0,0-.395-3.7Z" transform="translate(5.473 -0.973)" fill="#fdd834"/>
          <path id="Shape-7" data-name="Shape" d="M33.8,36v4.932a3.7,3.7,0,0,1-3.7,3.7H22.7a3.7,3.7,0,0,1-3.7-3.7V36Z" transform="translate(4.429 7.189)" fill="#f5f5f5"/>
          <path id="Shape-8" data-name="Shape" d="M28.7,36v4.932a3.7,3.7,0,0,1-3.7,3.7h3.7a3.7,3.7,0,0,0,3.7-3.7V36Z" transform="translate(5.827 7.189)" fill="#cfd8dc"/>
          <path id="Shape-9" data-name="Shape" d="M16.238,14.873H16a1.233,1.233,0,0,1-1-1.467,12.06,12.06,0,0,1,6.905-8.3,1.233,1.233,0,1,1,.937,2.269s-4.513,1.961-5.376,6.5a1.233,1.233,0,0,1-1.233,1Z" transform="translate(3.492 -0.046)" fill="#f5f5f5"/>
        </g>
        <g id="Icons">
          <path id="Shape-10" data-name="Shape" d="M0,20.734V54.027a6.165,6.165,0,0,0,6.165,6.165H18.5a1.233,1.233,0,0,1,.986.493l9.729,12.972a3.7,3.7,0,0,0,5.734,0l9.692-12.972a1.233,1.233,0,0,1,.986-.493H57.956a6.165,6.165,0,0,0,6.165-6.165V20.734a6.165,6.165,0,0,0-6.165-6.165H49.879a18.486,18.486,0,0,0-35.649,0H6.165A6.165,6.165,0,0,0,0,20.734ZM31.284,3.47A16.03,16.03,0,0,1,43.01,31.178a15.623,15.623,0,0,0-4.784,11.468v1.517H25.9V42.855a16.117,16.117,0,0,0-4.858-11.739A16.03,16.03,0,0,1,31.284,3.47ZM35.76,52.794h-7.4A2.466,2.466,0,0,1,25.9,50.328v-3.7H38.226v3.7A2.466,2.466,0,0,1,35.76,52.794ZM2.466,20.734a3.7,3.7,0,0,1,3.7-3.7h7.584c0,.259-.086.518-.111.777a18.5,18.5,0,0,0,5.709,15.105,13.663,13.663,0,0,1,4.082,9.939v7.473a4.932,4.932,0,0,0,3.7,4.76v1.406a1.233,1.233,0,1,0,2.466,0V55.26h4.932v1.233a1.233,1.233,0,1,0,2.466,0V55.088a4.932,4.932,0,0,0,3.7-4.76V42.646A13.157,13.157,0,0,1,44.7,32.99a18.176,18.176,0,0,0,5.672-15.956h7.584a3.7,3.7,0,0,1,3.7,3.7V54.027a3.7,3.7,0,0,1-3.7,3.7H45.625a3.7,3.7,0,0,0-2.959,1.48L33.01,72.08a1.307,1.307,0,0,1-1.862,0L21.456,59.206a3.7,3.7,0,0,0-2.959-1.48H6.165a3.7,3.7,0,0,1-3.7-3.7Z" transform="translate(0 -0.983)"/>
          <path id="Shape-11" data-name="Shape" d="M24.233,29A1.233,1.233,0,0,0,23,30.233v3.7a1.233,1.233,0,1,0,2.466,0v-3.7A1.233,1.233,0,0,0,24.233,29Z" transform="translate(5.361 5.548)"/>
          <path id="Shape-12" data-name="Shape" d="M23,25.466a1.233,1.233,0,1,0,2.466,0V24.233a1.233,1.233,0,0,0-2.466,0Z" transform="translate(5.361 4.149)"/>
          <path id="Shape-13" data-name="Shape" d="M28.233,35.165a1.233,1.233,0,0,0,1.233-1.233v-3.7a1.233,1.233,0,0,0-2.466,0v3.7A1.233,1.233,0,0,0,28.233,35.165Z" transform="translate(6.294 5.548)"/>
          <path id="Shape-14" data-name="Shape" d="M28.233,26.7a1.233,1.233,0,0,0,1.233-1.233V24.233a1.233,1.233,0,0,0-2.466,0v1.233A1.233,1.233,0,0,0,28.233,26.7Z" transform="translate(6.294 4.149)"/>
          <path id="Shape-15" data-name="Shape" d="M11.4,9.4A1.23,1.23,0,0,0,12.162,7.2L6,2.27A1.229,1.229,0,0,0,4.467,4.194l6.165,4.932A1.233,1.233,0,0,0,11.4,9.4Z" transform="translate(0.934 -0.745)"/>
          <path id="Shape-16" data-name="Shape" d="M43,9.126l6.165-4.932A1.229,1.229,0,1,0,47.634,2.27L41.469,7.2A1.229,1.229,0,1,0,43,9.126Z" transform="translate(9.557 -0.745)"/>
          <path id="Shape-17" data-name="Shape" d="M4.271,37.955A1.23,1.23,0,0,0,6,38.14l6.165-4.932a1.233,1.233,0,1,0-1.529-1.924L4.469,36.216a1.233,1.233,0,0,0-.2,1.739Z" transform="translate(0.932 6.001)"/>
          <path id="Shape-18" data-name="Shape" d="M47.619,38.115a1.229,1.229,0,1,0,1.529-1.924l-6.165-4.932a1.233,1.233,0,0,0-1.529,1.924Z" transform="translate(9.572 6.026)"/>
          <path id="Shape-19" data-name="Shape" d="M5.233,19.466h3.7a1.233,1.233,0,0,0,0-2.466h-3.7a1.233,1.233,0,0,0,0,2.466Z" transform="translate(0.932 2.75)"/>
          <path id="Shape-20" data-name="Shape" d="M44.233,19.466h3.7a1.233,1.233,0,1,0,0-2.466h-3.7a1.233,1.233,0,1,0,0,2.466Z" transform="translate(10.023 2.75)"/>
        </g>
      </g>
    </g>
  </g>
</svg>
