<svg xmlns="http://www.w3.org/2000/svg" xmlns:xlink="http://www.w3.org/1999/xlink" width="118" height="118" viewBox="0 0 118 118">
  <defs>
    <filter id="Trazado_874925" x="0" y="0" width="117.999" height="118" filterUnits="userSpaceOnUse">
      <feOffset dy="3" input="SourceAlpha"/>
      <feGaussianBlur stdDeviation="3" result="blur"/>
      <feFlood flood-opacity="0.161"/>
      <feComposite operator="in" in2="blur"/>
      <feComposite in="SourceGraphic"/>
    </filter>
  </defs>
  <g id="Grupo_1112525" data-name="Grupo 1112525" transform="translate(-1108.134 -1933.999)">
    <g id="Grupo_1111553" data-name="Grupo 1111553" transform="translate(308.634 -577.158)">
      <g id="Grupo_1111316" data-name="Grupo 1111316" transform="translate(808.5 2517.157)">
        <g id="Grupo_1109835" data-name="Grupo 1109835" transform="translate(0 0)">
          <g id="Grupo_1107913" data-name="Grupo 1107913" transform="translate(0 0)">
            <g transform="matrix(1, 0, 0, 1, -9, -6)" filter="url(#Trazado_874925)">
              <g id="Trazado_874925-2" data-name="Trazado 874925" transform="translate(9 6)" fill="#9cc8ff" opacity="0.859">
                <path d="M 49.99972534179688 98.4998779296875 C 43.45164108276367 98.4998779296875 37.10022354125977 97.21776580810547 31.12189674377441 94.68914794921875 C 25.34676742553711 92.24647521972656 20.15985298156738 88.74925994873047 15.70523929595947 84.29464721679688 C 11.25062561035156 79.84004974365234 7.753411293029785 74.65313720703125 5.310725212097168 68.87800598144531 C 2.782111167907715 62.89969253540039 1.499996781349182 56.54829406738281 1.499996781349182 50.00022125244141 C 1.499996781349182 43.45157623291016 2.782111167907715 37.10017776489258 5.310725212097168 31.12186431884766 C 7.753411293029785 25.34673500061035 11.25062561035156 20.15983581542969 15.70523929595947 15.70522117614746 C 20.15985298156738 11.25062084197998 25.34676742553711 7.753406524658203 31.12189674377441 5.31073522567749 C 37.10022354125977 2.782120943069458 43.45164108276367 1.500006556510925 49.99972534179688 1.500006556510925 C 56.54780960083008 1.500006556510925 62.89922714233398 2.782120943069458 68.87755584716797 5.31073522567749 C 74.65267944335938 7.753406524658203 79.839599609375 11.25062084197998 84.29421234130859 15.70522117614746 C 88.74882507324219 20.15983581542969 92.24604034423828 25.34673500061035 94.68872833251953 31.12186431884766 C 97.21733856201172 37.10017776489258 98.49945068359375 43.45157623291016 98.49945068359375 49.99964904785156 C 98.49945068359375 56.54829406738281 97.21733856201172 62.89969253540039 94.68872833251953 68.87800598144531 C 92.24604034423828 74.65313720703125 88.74882507324219 79.84004974365234 84.29421234130859 84.29464721679688 C 79.839599609375 88.74925994873047 74.65267944335938 92.24647521972656 68.87755584716797 94.68914794921875 C 62.89922714233398 97.21776580810547 56.54780960083008 98.4998779296875 49.99972534179688 98.4998779296875 Z" stroke="none"/>
                <path d="M 49.99972534179688 3 C 43.65348052978516 3 37.49866485595703 4.242240905761719 31.70623016357422 6.692230224609375 C 26.10989379882812 9.059272766113281 21.08323669433594 12.44853210449219 16.76589202880859 16.76587677001953 C 12.44855499267578 21.08321380615234 9.059295654296875 26.10985565185547 6.692230224609375 31.70618438720703 C 4.24224853515625 37.49859619140625 3 43.65341186523438 3 50.00022888183594 C 3 56.34645843505859 4.24224853515625 62.50127410888672 6.692230224609375 68.29368591308594 C 9.059295654296875 73.8900146484375 12.44855499267578 78.91665649414062 16.76589202880859 83.23399353027344 C 21.08323669433594 87.55132293701172 26.10989379882812 90.94059753417969 31.70623016357422 93.30764007568359 C 37.49866485595703 95.75762939453125 43.65348052978516 96.99987030029297 49.99972534179688 96.99987030029297 C 56.34597015380859 96.99987030029297 62.50078582763672 95.75762939453125 68.293212890625 93.30764007568359 C 73.88955688476562 90.94059753417969 78.91621398925781 87.55132293701172 83.23355865478516 83.23399353027344 C 87.55089569091797 78.91665649414062 90.94015502929688 73.8900146484375 93.30722045898438 68.29368591308594 C 95.7572021484375 62.50127410888672 96.99945068359375 56.34645843505859 96.99945068359375 49.99964141845703 C 96.99945068359375 43.65341186523438 95.7572021484375 37.49859619140625 93.30722045898438 31.70618438720703 C 90.94015502929688 26.10985565185547 87.55089569091797 21.08321380615234 83.23355865478516 16.76587677001953 C 78.91621398925781 12.44853210449219 73.88955688476562 9.059272766113281 68.293212890625 6.692230224609375 C 62.50078582763672 4.242240905761719 56.34597015380859 3 49.99972534179688 3 M 49.99972534179688 0 C 77.61381530761719 0 99.99945068359375 22.38559722900391 99.99945068359375 49.99964141845703 L 99.99945068359375 50.00022888183594 C 99.99945068359375 77.6142578125 77.61381530761719 99.99987030029297 49.99972534179688 99.99987030029297 C 22.38563537597656 99.99987030029297 0 77.6142578125 0 50.00022888183594 L 0 49.99964141845703 C 0 22.38559722900391 22.38563537597656 0 49.99972534179688 0 Z" stroke="none" fill="#fff"/>
              </g>
            </g>
            <g id="Trazado_874923" data-name="Trazado 874923" transform="translate(0 0)" fill="none">
              <path d="M50,0a50,50,0,0,1,50,50h0A50,50,0,0,1,0,50H0A50,50,0,0,1,50,0Z" stroke="none"/>
              <path d="M 49.99972534179688 3 C 43.65348052978516 3 37.49866485595703 4.242240905761719 31.70623016357422 6.692230224609375 C 26.10989379882812 9.059272766113281 21.08323669433594 12.44853210449219 16.76589202880859 16.76587677001953 C 12.44855499267578 21.08321380615234 9.059295654296875 26.10985565185547 6.692230224609375 31.70618438720703 C 4.24224853515625 37.49859619140625 3 43.65341186523438 3 50.00022888183594 C 3 56.34645843505859 4.24224853515625 62.50127410888672 6.692230224609375 68.29368591308594 C 9.059295654296875 73.8900146484375 12.44855499267578 78.91665649414062 16.76589202880859 83.23399353027344 C 21.08323669433594 87.55132293701172 26.10989379882812 90.94059753417969 31.70623016357422 93.30764007568359 C 37.49866485595703 95.75762939453125 43.65348052978516 96.99987030029297 49.99972534179688 96.99987030029297 C 56.34597015380859 96.99987030029297 62.50078582763672 95.75762939453125 68.293212890625 93.30764007568359 C 73.88955688476562 90.94059753417969 78.91621398925781 87.55132293701172 83.23355865478516 83.23399353027344 C 87.55089569091797 78.91665649414062 90.94015502929688 73.8900146484375 93.30722045898438 68.29368591308594 C 95.7572021484375 62.50127410888672 96.99945068359375 56.34645843505859 96.99945068359375 49.99964141845703 C 96.99945068359375 43.65341186523438 95.7572021484375 37.49859619140625 93.30722045898438 31.70618438720703 C 90.94015502929688 26.10985565185547 87.55089569091797 21.08321380615234 83.23355865478516 16.76587677001953 C 78.91621398925781 12.44853210449219 73.88955688476562 9.059272766113281 68.293212890625 6.692230224609375 C 62.50078582763672 4.242240905761719 56.34597015380859 3 49.99972534179688 3 M 49.99972534179688 0 C 77.61381530761719 0 99.99945068359375 22.38559722900391 99.99945068359375 49.99964141845703 L 99.99945068359375 50.00022888183594 C 99.99945068359375 77.6142578125 77.61381530761719 99.99987030029297 49.99972534179688 99.99987030029297 C 22.38563537597656 99.99987030029297 0 77.6142578125 0 50.00022888183594 L 0 49.99964141845703 C 0 22.38559722900391 22.38563537597656 0 49.99972534179688 0 Z" stroke="none" fill="#fff"/>
            </g>
          </g>
        </g>
      </g>
    </g>
    <g id="Grupo_1115329" data-name="Grupo 1115329" transform="translate(1135.597 1933.14)">
      <g id="Grupo_1115329-2" data-name="Grupo 1115329" transform="translate(5.052 36.622)">
        <path id="Trazado_908029" data-name="Trazado 908029" d="M53.242,110.619,52,111.47a1.6,1.6,0,0,1-1.809,0l-.337-.231a1.6,1.6,0,0,0-1.809,0l-.335.23a1.6,1.6,0,0,1-1.81,0l-.336-.23a1.6,1.6,0,0,0-1.81,0l-.335.23a1.6,1.6,0,0,1-1.81,0l-1.24-.851V99.7a5.4,5.4,0,0,1,5.4-5.4,7.469,7.469,0,0,1,7.469,7.469Z" transform="translate(-40.371 -94.293)" fill="#e7a561"/>
      </g>
      <g id="Grupo_1115330" data-name="Grupo 1115330" transform="translate(5.052 36.646)">
        <path id="Trazado_908030" data-name="Trazado 908030" d="M46.367,94.48a7.44,7.44,0,0,1,1.869,4.942v7.352a2.858,2.858,0,0,1-1.242,2.357,1.6,1.6,0,0,1-1.809,0l-.337-.231a1.6,1.6,0,0,0-1.809,0l-.335.23a1.6,1.6,0,0,1-1.81,0l-.336-.23a1.618,1.618,0,0,0-.188-.111v1.993l1.24.851a1.6,1.6,0,0,0,1.81,0l.335-.23a1.6,1.6,0,0,1,1.81,0l.336.23a1.6,1.6,0,0,0,1.81,0l.335-.23a1.6,1.6,0,0,1,1.809,0l.337.231a1.6,1.6,0,0,0,1.809,0l1.242-.851v-8.857A7.469,7.469,0,0,0,46.367,94.48Z" transform="translate(-40.371 -94.48)" fill="#e49542"/>
      </g>
      <g id="Grupo_1115331" data-name="Grupo 1115331" transform="translate(5.052 49.623)">
        <path id="Trazado_908031" data-name="Trazado 908031" d="M77.285,198.311A26.024,26.024,0,0,1,64.8,201.5H53.242L52,202.354a1.6,1.6,0,0,1-1.809,0l-.337-.231a1.6,1.6,0,0,0-1.809,0l-.335.23a1.6,1.6,0,0,1-1.81,0l-.336-.23a1.6,1.6,0,0,0-1.81,0l-.335.23a1.6,1.6,0,0,1-1.81,0l-1.24-.851v3.955a18.359,18.359,0,0,0,17.164,18.32.29.29,0,0,1,.267.229,3.5,3.5,0,0,0,6.91-.461.292.292,0,0,1,.224-.26A18.366,18.366,0,0,0,78.9,205.458v-6.182A1.092,1.092,0,0,0,77.285,198.311Z" transform="translate(-40.371 -198.177)" fill="#e7a561"/>
      </g>
      <g id="Grupo_1115332" data-name="Grupo 1115332" transform="translate(22.446 49.623)">
        <path id="Trazado_908032" data-name="Trazado 908032" d="M198.881,198.311a26.018,26.018,0,0,1-3.4,1.552v3.092A18.365,18.365,0,0,1,183.97,220a6.649,6.649,0,0,0-3.184,2.625,3.514,3.514,0,0,1-1.426,1.294.286.286,0,0,1,.037.092,3.5,3.5,0,0,0,6.91-.461.292.292,0,0,1,.224-.26,18.366,18.366,0,0,0,13.96-17.828v-6.182A1.092,1.092,0,0,0,198.881,198.311Z" transform="translate(-179.36 -198.177)" fill="#e49542"/>
      </g>
      <g id="Grupo_1115333" data-name="Grupo 1115333" transform="translate(0.939 43.391)">
        <path id="Trazado_908033" data-name="Trazado 908033" d="M7.793,152.495h3.82v-4.114h-.675A3.438,3.438,0,0,0,7.5,151.819v.382A.293.293,0,0,0,7.793,152.495Z" transform="translate(-7.5 -148.381)" fill="#ffe07d"/>
      </g>
      <g id="Grupo_1115334" data-name="Grupo 1115334" transform="translate(15.375 56.627)">
        <path id="Trazado_908034" data-name="Trazado 908034" d="M131.4,268.3h-1.472a7.074,7.074,0,1,1,0-14.149h12.35a1.635,1.635,0,0,1,1.635,1.635A12.513,12.513,0,0,1,131.4,268.3Z" transform="translate(-122.857 -254.149)" fill="#ecb780"/>
      </g>
      <g id="Grupo_1115335" data-name="Grupo 1115335" transform="translate(1.375 47.505)">
        <path id="Trazado_908035" data-name="Trazado 908035" d="M12.827,187.524a1.837,1.837,0,0,0,1.837-1.837v-4.435l-3.136,3.136A1.837,1.837,0,0,0,12.827,187.524Z" transform="translate(-10.986 -181.253)" fill="#e28086"/>
      </g>
      <g id="Grupo_1115336" data-name="Grupo 1115336" transform="translate(2.14 29.312)">
        <path id="Trazado_908036" data-name="Trazado 908036" d="M20.93,45.584a5.4,5.4,0,0,1,4.488-2.395,7.45,7.45,0,0,1,2.675.493l.855-.229a5.132,5.132,0,0,0,3.629-6.285l-.226-.843a.6.6,0,0,0-.738-.426l-5.98,1.6a3.287,3.287,0,0,0-1.622,1,2.344,2.344,0,0,1-2.529.691,3.3,3.3,0,1,0-.552,6.386Z" transform="translate(-17.104 -35.878)" fill="#e28086"/>
      </g>
      <g id="Grupo_1115337" data-name="Grupo 1115337" transform="translate(22.423 77.499)">
        <path id="Trazado_908037" data-name="Trazado 908037" d="M184.794,420.929a3.5,3.5,0,0,1-3.309.52l.672,2.509a3.081,3.081,0,0,1-2.975,3.878H189.33a3.5,3.5,0,0,1-3.381-2.594Z" transform="translate(-179.181 -420.929)" fill="#ffe07d"/>
      </g>
      <g id="Grupo_1115338" data-name="Grupo 1115338" transform="translate(10.93 77.499)">
        <path id="Trazado_908038" data-name="Trazado 908038" d="M94.566,420.929a3.5,3.5,0,0,0,3.309.52l-1.016,3.793a2.061,2.061,0,0,0,1.991,2.594H89.894a3.677,3.677,0,0,0,3.551-2.725Z" transform="translate(-87.344 -420.929)" fill="#ecd833"/>
      </g>
      <g id="Grupo_1115339" data-name="Grupo 1115339" transform="translate(16.786 74.055)">
        <path id="Trazado_908039" data-name="Trazado 908039" d="M139.831,394.807a.293.293,0,0,0-.27-.229,18.273,18.273,0,0,1-5.363-1.169,3.5,3.5,0,0,0,6.244,2.752A3.481,3.481,0,0,1,139.831,394.807Z" transform="translate(-134.134 -393.41)" fill="#e7a52e"/>
      </g>
      <g id="Grupo_1115340" data-name="Grupo 1115340" transform="translate(39.962 72.865)">
        <path id="Trazado_908040" data-name="Trazado 908040" d="M324.083,386.647v-.369a2.375,2.375,0,1,0-4.75,0v2.074a4.593,4.593,0,0,0,9.186,0V388a.284.284,0,0,0-.284-.284H325.15A1.066,1.066,0,0,1,324.083,386.647Z" transform="translate(-319.333 -383.903)" fill="#ffe07d"/>
      </g>
      <g id="Grupo_1115341" data-name="Grupo 1115341" transform="translate(53.948 72.865)">
        <path id="Trazado_908041" data-name="Trazado 908041" d="M435.843,386.647v-.369a2.375,2.375,0,1,0-4.75,0v2.074a4.593,4.593,0,0,0,9.186,0V388a.284.284,0,0,0-.284-.284H436.91A1.066,1.066,0,0,1,435.843,386.647Z" transform="translate(-431.093 -383.903)" fill="#ffe07d"/>
      </g>
      <path id="Trazado_908042" data-name="Trazado 908042" d="M1.232,48.443H2.786L1.253,49.977a2.776,2.776,0,0,0,2.861,4.589V56.9A19.35,19.35,0,0,0,15.848,74.658a4.421,4.421,0,0,0,1.25,3.151l-.972,3.629a2.742,2.742,0,0,1-2.645,2.029h-2.55a.939.939,0,1,0,0,1.877H32.572a.939.939,0,1,0,0-1.877,2.565,2.565,0,0,1-2.474-1.9L29.09,77.8a4.423,4.423,0,0,0,1.178-2.272A19.3,19.3,0,0,0,44.515,56.9V50.721a2.031,2.031,0,0,0-3-1.788A25.157,25.157,0,0,1,29.479,52.01H18.862V50.5a.939.939,0,0,0-1.877,0v1.95l-.834.572a.665.665,0,0,1-.747,0l-.337-.231a2.553,2.553,0,0,0-2.871,0l-.335.23a.665.665,0,0,1-.748,0l-.336-.23a2.553,2.553,0,0,0-2.871,0l-.335.23a.664.664,0,0,1-.747,0l-.833-.571V42.025a4.469,4.469,0,0,1,4.464-4.464,6.537,6.537,0,0,1,6.53,6.53v2.032a.939.939,0,1,0,1.877,0V44.091a8.4,8.4,0,0,0-3.422-6.766,6.081,6.081,0,0,0,3.081-6.967l-.226-.843a1.54,1.54,0,0,0-1.888-1.09l-1.764.473a.939.939,0,1,0,.486,1.813l1.439-.386.139.518a4.2,4.2,0,0,1-2.965,5.135l-.573.154a8.372,8.372,0,0,0-2.714-.45,6.334,6.334,0,0,0-4.994,2.437,2.366,2.366,0,1,1,.751-4.6,3.282,3.282,0,0,0,3.539-.958,2.353,2.353,0,0,1,1.161-.719.939.939,0,0,0-.486-1.813A4.224,4.224,0,0,0,8.343,31.32a1.412,1.412,0,0,1-1.519.424,4.216,4.216,0,0,0-2.645-.038,4.245,4.245,0,0,0,.3,8.185,6.312,6.312,0,0,0-.369,2.133v.436A4.383,4.383,0,0,0,0,46.83v.382a1.233,1.233,0,0,0,1.232,1.232ZM19.653,83.468H17.195a4.591,4.591,0,0,0,.743-1.544l.813-3.036a4.411,4.411,0,0,0,1.433.271l-.646,2.409a2.979,2.979,0,0,0,.114,1.9ZM21.1,77.151a2.566,2.566,0,0,1-3.3-1.778,19.158,19.158,0,0,0,3.887.752,4.377,4.377,0,0,0,.233.563,2.521,2.521,0,0,1-.736.432c-.03.009-.058.019-.087.031Zm1.327,6.317a1.122,1.122,0,0,1-1.08-1.412l.9-3.357a4.469,4.469,0,0,0,.845-.545,4.492,4.492,0,0,0,.839.543l.556,2.075a2.141,2.141,0,0,1-2.06,2.7Zm3.392,0a3.987,3.987,0,0,0,.481-3.182L26,79.16a4.392,4.392,0,0,0,1.432-.274l.849,3.169a4.416,4.416,0,0,0,.663,1.412ZM5.991,54.713a2.556,2.556,0,0,0,2.642-.14l.335-.23a.665.665,0,0,1,.747,0l.336.23a2.553,2.553,0,0,0,2.872,0l.335-.23a.665.665,0,0,1,.747,0l.337.231a2.554,2.554,0,0,0,2.871,0l1-.687H29.479A27.039,27.039,0,0,0,42.417,50.58a.134.134,0,0,1,.143,0,.153.153,0,0,1,.079.137V56.9A17.376,17.376,0,0,1,29.393,73.82a1.228,1.228,0,0,0-.936,1.1,2.56,2.56,0,0,1-5.056.338,1.233,1.233,0,0,0-1.125-.971A17.447,17.447,0,0,1,5.991,56.9ZM4.114,51.939a.9.9,0,0,1-.9.9A.9.9,0,0,1,2.58,51.3l1.533-1.533Zm0-7.6v2.223H1.891A2.5,2.5,0,0,1,4.114,44.344Z" transform="translate(0)"/>
      <path id="Trazado_908043" data-name="Trazado 908043" d="M123.371,262.675h1.473a13.363,13.363,0,0,0,7.788-2.483.939.939,0,1,0-1.088-1.53,11.5,11.5,0,0,1-6.7,2.135h-1.473a6.136,6.136,0,0,1,0-12.271h5.522a4.239,4.239,0,0,1-4.152,5.042.939.939,0,1,0,0,1.877,6.109,6.109,0,0,0,6.049-6.919h1.489a7.589,7.589,0,0,1-7.539,8.4h-1.37a.939.939,0,0,0,0,1.877h1.37a9.466,9.466,0,0,0,9.424-10.276h1.556a.7.7,0,0,1,.7.7,11.506,11.506,0,0,1-2.046,6.573.939.939,0,0,0,1.544,1.067,13.376,13.376,0,0,0,2.379-7.641,2.577,2.577,0,0,0-2.574-2.574h-12.35a8.013,8.013,0,0,0,0,16.026Z" transform="translate(-100.922 -190.96)"/>
      <path id="Trazado_908044" data-name="Trazado 908044" d="M312.77,381.793v-.355a1.224,1.224,0,0,0-1.223-1.223h-3.085a.128.128,0,0,1-.128-.128v-.369a3.314,3.314,0,0,0-6.492-.939H301.2a.939.939,0,1,0,0,1.877h.51v1.136A5.54,5.54,0,0,0,305,386.851l-.632,1.1H302.82a.939.939,0,0,0,0,1.877h2.088a.939.939,0,0,0,.813-.469l1.178-2.04a5.563,5.563,0,0,0,.68,0l.365.632h-.462a.939.939,0,1,0,0,1.877h2.088a.939.939,0,0,0,.813-1.408l-.9-1.565A5.54,5.54,0,0,0,312.77,381.793Zm-4.837,3.588-.048.009a3.674,3.674,0,0,1-1.295,0l-.048-.009a3.661,3.661,0,0,1-2.96-3.588v-2.074a1.437,1.437,0,0,1,2.873,0v.369a2.007,2.007,0,0,0,2,2h2.419A3.662,3.662,0,0,1,307.933,385.381Z" transform="translate(-262.683 -304.478)"/>
      <path id="Trazado_908045" data-name="Trazado 908045" d="M424.531,381.793v-.355a1.224,1.224,0,0,0-1.223-1.223h-3.085a.128.128,0,0,1-.128-.128v-.369a3.314,3.314,0,0,0-6.492-.939h-.645a.939.939,0,1,0,0,1.877h.51v1.136a5.54,5.54,0,0,0,3.292,5.058l-.632,1.1h-1.546a.939.939,0,1,0,0,1.877h2.088a.939.939,0,0,0,.813-.469l1.178-2.04a5.561,5.561,0,0,0,.68,0l.365.632h-.462a.939.939,0,1,0,0,1.877h2.088a.939.939,0,0,0,.813-1.408l-.9-1.565A5.54,5.54,0,0,0,424.531,381.793Zm-4.837,3.588-.048.009a3.674,3.674,0,0,1-1.293,0l-.05-.009a3.661,3.661,0,0,1-2.959-3.588v-2.074a1.437,1.437,0,1,1,2.873,0v.369a2.007,2.007,0,0,0,2,2h2.419A3.662,3.662,0,0,1,419.694,385.381Z" transform="translate(-360.458 -304.478)"/>
    </g>
  </g>
</svg>
