<svg xmlns="http://www.w3.org/2000/svg" xmlns:xlink="http://www.w3.org/1999/xlink" width="117.999" height="118" viewBox="0 0 117.999 118">
  <defs>
    <filter id="Trazado_874925" x="0" y="0" width="117.999" height="118" filterUnits="userSpaceOnUse">
      <feOffset dy="3" input="SourceAlpha"/>
      <feGaussianBlur stdDeviation="3" result="blur"/>
      <feFlood flood-opacity="0.161"/>
      <feComposite operator="in" in2="blur"/>
      <feComposite in="SourceGraphic"/>
    </filter>
  </defs>
  <g id="Grupo_1112467" data-name="Grupo 1112467" transform="translate(-793.782 -1933.999)">
    <g id="Grupo_1111552" data-name="Grupo 1111552" transform="translate(-5.719 -577.158)">
      <g id="Grupo_1111316" data-name="Grupo 1111316" transform="translate(808.5 2517.157)">
        <g id="Grupo_1109835" data-name="Grupo 1109835" transform="translate(0 0)">
          <g id="Grupo_1107913" data-name="Grupo 1107913" transform="translate(0 0)">
            <g transform="matrix(1, 0, 0, 1, -9, -6)" filter="url(#Trazado_874925)">
              <g id="Trazado_874925-2" data-name="Trazado 874925" transform="translate(9 6)" fill="#9cc8ff" opacity="0.859">
                <path d="M 49.99972534179688 98.4998779296875 C 43.45164108276367 98.4998779296875 37.10022354125977 97.21776580810547 31.12189674377441 94.68914794921875 C 25.34676742553711 92.24647521972656 20.15985298156738 88.74925994873047 15.70523929595947 84.29464721679688 C 11.25062561035156 79.84004974365234 7.753411293029785 74.65313720703125 5.310725212097168 68.87800598144531 C 2.782111167907715 62.89969253540039 1.499996781349182 56.54829406738281 1.499996781349182 50.00022125244141 C 1.499996781349182 43.45157623291016 2.782111167907715 37.10017776489258 5.310725212097168 31.12186431884766 C 7.753411293029785 25.34673500061035 11.25062561035156 20.15983581542969 15.70523929595947 15.70522117614746 C 20.15985298156738 11.25062084197998 25.34676742553711 7.753406524658203 31.12189674377441 5.31073522567749 C 37.10022354125977 2.782120943069458 43.45164108276367 1.500006556510925 49.99972534179688 1.500006556510925 C 56.54780960083008 1.500006556510925 62.89922714233398 2.782120943069458 68.87755584716797 5.31073522567749 C 74.65267944335938 7.753406524658203 79.839599609375 11.25062084197998 84.29421234130859 15.70522117614746 C 88.74882507324219 20.15983581542969 92.24604034423828 25.34673500061035 94.68872833251953 31.12186431884766 C 97.21733856201172 37.10017776489258 98.49945068359375 43.45157623291016 98.49945068359375 49.99964904785156 C 98.49945068359375 56.54829406738281 97.21733856201172 62.89969253540039 94.68872833251953 68.87800598144531 C 92.24604034423828 74.65313720703125 88.74882507324219 79.84004974365234 84.29421234130859 84.29464721679688 C 79.839599609375 88.74925994873047 74.65267944335938 92.24647521972656 68.87755584716797 94.68914794921875 C 62.89922714233398 97.21776580810547 56.54780960083008 98.4998779296875 49.99972534179688 98.4998779296875 Z" stroke="none"/>
                <path d="M 49.99972534179688 3 C 43.65348052978516 3 37.49866485595703 4.242240905761719 31.70623016357422 6.692230224609375 C 26.10989379882812 9.059272766113281 21.08323669433594 12.44853210449219 16.76589202880859 16.76587677001953 C 12.44855499267578 21.08321380615234 9.059295654296875 26.10985565185547 6.692230224609375 31.70618438720703 C 4.24224853515625 37.49859619140625 3 43.65341186523438 3 50.00022888183594 C 3 56.34645843505859 4.24224853515625 62.50127410888672 6.692230224609375 68.29368591308594 C 9.059295654296875 73.8900146484375 12.44855499267578 78.91665649414062 16.76589202880859 83.23399353027344 C 21.08323669433594 87.55132293701172 26.10989379882812 90.94059753417969 31.70623016357422 93.30764007568359 C 37.49866485595703 95.75762939453125 43.65348052978516 96.99987030029297 49.99972534179688 96.99987030029297 C 56.34597015380859 96.99987030029297 62.50078582763672 95.75762939453125 68.293212890625 93.30764007568359 C 73.88955688476562 90.94059753417969 78.91621398925781 87.55132293701172 83.23355865478516 83.23399353027344 C 87.55089569091797 78.91665649414062 90.94015502929688 73.8900146484375 93.30722045898438 68.29368591308594 C 95.7572021484375 62.50127410888672 96.99945068359375 56.34645843505859 96.99945068359375 49.99964141845703 C 96.99945068359375 43.65341186523438 95.7572021484375 37.49859619140625 93.30722045898438 31.70618438720703 C 90.94015502929688 26.10985565185547 87.55089569091797 21.08321380615234 83.23355865478516 16.76587677001953 C 78.91621398925781 12.44853210449219 73.88955688476562 9.059272766113281 68.293212890625 6.692230224609375 C 62.50078582763672 4.242240905761719 56.34597015380859 3 49.99972534179688 3 M 49.99972534179688 0 C 77.61381530761719 0 99.99945068359375 22.38559722900391 99.99945068359375 49.99964141845703 L 99.99945068359375 50.00022888183594 C 99.99945068359375 77.6142578125 77.61381530761719 99.99987030029297 49.99972534179688 99.99987030029297 C 22.38563537597656 99.99987030029297 0 77.6142578125 0 50.00022888183594 L 0 49.99964141845703 C 0 22.38559722900391 22.38563537597656 0 49.99972534179688 0 Z" stroke="none" fill="#fff"/>
              </g>
            </g>
            <g id="Trazado_874923" data-name="Trazado 874923" transform="translate(0 0)" fill="none">
              <path d="M50,0a50,50,0,0,1,50,50h0A50,50,0,0,1,0,50H0A50,50,0,0,1,50,0Z" stroke="none"/>
              <path d="M 49.99972534179688 3 C 43.65348052978516 3 37.49866485595703 4.242240905761719 31.70623016357422 6.692230224609375 C 26.10989379882812 9.059272766113281 21.08323669433594 12.44853210449219 16.76589202880859 16.76587677001953 C 12.44855499267578 21.08321380615234 9.059295654296875 26.10985565185547 6.692230224609375 31.70618438720703 C 4.24224853515625 37.49859619140625 3 43.65341186523438 3 50.00022888183594 C 3 56.34645843505859 4.24224853515625 62.50127410888672 6.692230224609375 68.29368591308594 C 9.059295654296875 73.8900146484375 12.44855499267578 78.91665649414062 16.76589202880859 83.23399353027344 C 21.08323669433594 87.55132293701172 26.10989379882812 90.94059753417969 31.70623016357422 93.30764007568359 C 37.49866485595703 95.75762939453125 43.65348052978516 96.99987030029297 49.99972534179688 96.99987030029297 C 56.34597015380859 96.99987030029297 62.50078582763672 95.75762939453125 68.293212890625 93.30764007568359 C 73.88955688476562 90.94059753417969 78.91621398925781 87.55132293701172 83.23355865478516 83.23399353027344 C 87.55089569091797 78.91665649414062 90.94015502929688 73.8900146484375 93.30722045898438 68.29368591308594 C 95.7572021484375 62.50127410888672 96.99945068359375 56.34645843505859 96.99945068359375 49.99964141845703 C 96.99945068359375 43.65341186523438 95.7572021484375 37.49859619140625 93.30722045898438 31.70618438720703 C 90.94015502929688 26.10985565185547 87.55089569091797 21.08321380615234 83.23355865478516 16.76587677001953 C 78.91621398925781 12.44853210449219 73.88955688476562 9.059272766113281 68.293212890625 6.692230224609375 C 62.50078582763672 4.242240905761719 56.34597015380859 3 49.99972534179688 3 M 49.99972534179688 0 C 77.61381530761719 0 99.99945068359375 22.38559722900391 99.99945068359375 49.99964141845703 L 99.99945068359375 50.00022888183594 C 99.99945068359375 77.6142578125 77.61381530761719 99.99987030029297 49.99972534179688 99.99987030029297 C 22.38563537597656 99.99987030029297 0 77.6142578125 0 50.00022888183594 L 0 49.99964141845703 C 0 22.38559722900391 22.38563537597656 0 49.99972534179688 0 Z" stroke="none" fill="#fff"/>
            </g>
          </g>
        </g>
      </g>
    </g>
    <g id="Grupo_1113303" data-name="Grupo 1113303" transform="translate(821.311 1929.32)">
      <g id="Grupo_1113303-2" data-name="Grupo 1113303" transform="translate(6.034 35.117)">
        <path id="Trazado_902440" data-name="Trazado 902440" d="M54.09,48.729a3.5,3.5,0,1,0-3.5-3.5A3.5,3.5,0,0,0,54.09,48.729Z" transform="translate(-50.587 -41.722)" fill="#a7e9a6" fill-rule="evenodd"/>
      </g>
      <g id="Grupo_1113304" data-name="Grupo 1113304" transform="translate(42.001 35.117)">
        <path id="Trazado_902441" data-name="Trazado 902441" d="M355.584,41.723a3.5,3.5,0,1,0,3.5,3.5A3.5,3.5,0,0,0,355.584,41.723Z" transform="translate(-352.081 -41.723)" fill="#a7e9a6" fill-rule="evenodd"/>
      </g>
      <g id="Grupo_1113305" data-name="Grupo 1113305" transform="translate(25.36 79.231)">
        <path id="Trazado_902442" data-name="Trazado 902442" d="M219.594,415.021a3.5,3.5,0,1,0-3.5,3.5A3.5,3.5,0,0,0,219.594,415.021Z" transform="translate(-212.587 -411.514)" fill="#a7e9a6" fill-rule="evenodd"/>
      </g>
      <g id="Grupo_1113306" data-name="Grupo 1113306" transform="translate(8.245 35.117)">
        <path id="Trazado_902443" data-name="Trazado 902443" d="M70.417,48.729a3.5,3.5,0,0,0,0-7.007,3.462,3.462,0,0,0-1.187.206,3.5,3.5,0,0,1-.1,6.557A3.479,3.479,0,0,0,70.417,48.729Z" transform="translate(-69.125 -41.722)" fill="#7fdbae" fill-rule="evenodd"/>
      </g>
      <g id="Grupo_1113307" data-name="Grupo 1113307" transform="translate(44.212 35.117)">
        <path id="Trazado_902444" data-name="Trazado 902444" d="M370.724,41.928a3.5,3.5,0,0,1-.1,6.557,3.5,3.5,0,1,0,.1-6.557Z" transform="translate(-370.619 -41.722)" fill="#7fdbae" fill-rule="evenodd"/>
      </g>
      <g id="Grupo_1113308" data-name="Grupo 1113308" transform="translate(27.571 79.231)">
        <path id="Trazado_902445" data-name="Trazado 902445" d="M235.92,415.021a3.5,3.5,0,0,0-3.5-3.507,3.546,3.546,0,0,0-1.187.206,3.507,3.507,0,0,1-.1,6.56,3.552,3.552,0,0,0,1.292.244A3.5,3.5,0,0,0,235.92,415.021Z" transform="translate(-231.125 -411.514)" fill="#7fdbae" fill-rule="evenodd"/>
      </g>
      <g id="Grupo_1113309" data-name="Grupo 1113309" transform="translate(0.894 49.993)">
        <path id="Trazado_902446" data-name="Trazado 902446" d="M32.047,177.857l-7.179-11.433H7.5l7.176,11.433L7.5,189.293H24.868Z" transform="translate(-7.5 -166.423)" fill="#ffd772" fill-rule="evenodd"/>
      </g>
      <g id="Grupo_1113310" data-name="Grupo 1113310" transform="translate(18.262 49.993)">
        <path id="Trazado_902447" data-name="Trazado 902447" d="M153.088,166.423l7.179,11.433-7.179,11.437h17.371l7.179-11.437-7.179-11.433Z" transform="translate(-153.088 -166.423)" fill="#75cef8" fill-rule="evenodd"/>
      </g>
      <g id="Grupo_1113311" data-name="Grupo 1113311" transform="translate(35.633 49.993)">
        <path id="Trazado_902448" data-name="Trazado 902448" d="M298.7,166.423l7.179,11.433L298.7,189.293h17.371l7.179-11.437-7.179-11.433H298.7Z" transform="translate(-298.704 -166.423)" fill="#eb5468" fill-rule="evenodd"/>
      </g>
      <g id="Grupo_1113312" data-name="Grupo 1113312" transform="translate(12.794 49.993)">
        <path id="Trazado_902449" data-name="Trazado 902449" d="M107.251,166.423l7.176,11.433-7.176,11.437h5.468l7.179-11.437-7.179-11.433Z" transform="translate(-107.251 -166.423)" fill="#fbba58" fill-rule="evenodd"/>
      </g>
      <g id="Grupo_1113313" data-name="Grupo 1113313" transform="translate(30.165 49.993)">
        <path id="Trazado_902450" data-name="Trazado 902450" d="M252.868,166.423l7.176,11.433-7.176,11.437h5.468l7.179-11.437-7.179-11.433Z" transform="translate(-252.868 -166.423)" fill="#60b7ff" fill-rule="evenodd"/>
      </g>
      <g id="Grupo_1113314" data-name="Grupo 1113314" transform="translate(47.533 49.993)">
        <path id="Trazado_902451" data-name="Trazado 902451" d="M398.456,166.423l7.179,11.433-7.179,11.437h5.471l7.179-11.437-7.179-11.433Z" transform="translate(-398.456 -166.423)" fill="#e5384f" fill-rule="evenodd"/>
      </g>
      <path id="Trazado_902452" data-name="Trazado 902452" d="M60.941,60.951,53.762,49.517A.9.9,0,0,0,53,49.1H46.4V42.927a4.4,4.4,0,1,0-1.789,0V49.1H28.87a.895.895,0,1,0,0,1.789h6.269l6.617,10.539L35.138,71.969H29.758V67.223a.895.895,0,1,0-1.789,0v4.746H19.88L26.2,61.9a.9.9,0,0,0,0-.952L19.88,50.888h4.861a.895.895,0,1,0,0-1.789H10.432V42.927a4.4,4.4,0,1,0-1.789,0V49.1H.894a.895.895,0,0,0-.758,1.37L7.013,61.427.136,72.388a.895.895,0,0,0,.758,1.37H5.854a.895.895,0,0,0,0-1.789H2.511L8.828,61.9a.9.9,0,0,0,0-.951L2.512,50.888H8.643v3.248a.895.895,0,0,0,1.789,0V50.888h7.335l6.617,10.539L17.767,71.969H9.984a.895.895,0,0,0,0,1.789H27.968v4.67a4.4,4.4,0,1,0,1.789,0v-4.67H53a.9.9,0,0,0,.758-.419L60.941,61.9a.9.9,0,0,0,0-.952ZM42.9,38.62A2.61,2.61,0,1,1,45.5,41.229,2.612,2.612,0,0,1,42.9,38.62Zm-35.967,0a2.609,2.609,0,1,1,2.609,2.609A2.612,2.612,0,0,1,6.929,38.62ZM31.472,82.738a2.609,2.609,0,1,1-2.609-2.612A2.612,2.612,0,0,1,31.472,82.738ZM52.51,71.969H37.251L43.57,61.9a.9.9,0,0,0,0-.952L37.251,50.888h7.358v3.248a.895.895,0,0,0,1.789,0V50.888H52.51l6.617,10.539Z" transform="translate(0)"/>
    </g>
  </g>
</svg>
