<svg xmlns="http://www.w3.org/2000/svg" xmlns:xlink="http://www.w3.org/1999/xlink" width="118" height="118" viewBox="0 0 118 118">
  <defs>
    <filter id="Trazado_874925" x="0" y="0" width="117.999" height="118" filterUnits="userSpaceOnUse">
      <feOffset dy="3" input="SourceAlpha"/>
      <feGaussianBlur stdDeviation="3" result="blur"/>
      <feFlood flood-opacity="0.161"/>
      <feComposite operator="in" in2="blur"/>
      <feComposite in="SourceGraphic"/>
    </filter>
  </defs>
  <g id="Grupo_1112468" data-name="Grupo 1112468" transform="translate(-1108.134 -1933.999)">
    <g id="Grupo_1111553" data-name="Grupo 1111553" transform="translate(308.634 -577.158)">
      <g id="Grupo_1111316" data-name="Grupo 1111316" transform="translate(808.5 2517.157)">
        <g id="Grupo_1109835" data-name="Grupo 1109835" transform="translate(0 0)">
          <g id="Grupo_1107913" data-name="Grupo 1107913" transform="translate(0 0)">
            <g transform="matrix(1, 0, 0, 1, -9, -6)" filter="url(#Trazado_874925)">
              <g id="Trazado_874925-2" data-name="Trazado 874925" transform="translate(9 6)" fill="#9cc8ff" opacity="0.859">
                <path d="M 49.99972534179688 98.4998779296875 C 43.45164108276367 98.4998779296875 37.10022354125977 97.21776580810547 31.12189674377441 94.68914794921875 C 25.34676742553711 92.24647521972656 20.15985298156738 88.74925994873047 15.70523929595947 84.29464721679688 C 11.25062561035156 79.84004974365234 7.753411293029785 74.65313720703125 5.310725212097168 68.87800598144531 C 2.782111167907715 62.89969253540039 1.499996781349182 56.54829406738281 1.499996781349182 50.00022125244141 C 1.499996781349182 43.45157623291016 2.782111167907715 37.10017776489258 5.310725212097168 31.12186431884766 C 7.753411293029785 25.34673500061035 11.25062561035156 20.15983581542969 15.70523929595947 15.70522117614746 C 20.15985298156738 11.25062084197998 25.34676742553711 7.753406524658203 31.12189674377441 5.31073522567749 C 37.10022354125977 2.782120943069458 43.45164108276367 1.500006556510925 49.99972534179688 1.500006556510925 C 56.54780960083008 1.500006556510925 62.89922714233398 2.782120943069458 68.87755584716797 5.31073522567749 C 74.65267944335938 7.753406524658203 79.839599609375 11.25062084197998 84.29421234130859 15.70522117614746 C 88.74882507324219 20.15983581542969 92.24604034423828 25.34673500061035 94.68872833251953 31.12186431884766 C 97.21733856201172 37.10017776489258 98.49945068359375 43.45157623291016 98.49945068359375 49.99964904785156 C 98.49945068359375 56.54829406738281 97.21733856201172 62.89969253540039 94.68872833251953 68.87800598144531 C 92.24604034423828 74.65313720703125 88.74882507324219 79.84004974365234 84.29421234130859 84.29464721679688 C 79.839599609375 88.74925994873047 74.65267944335938 92.24647521972656 68.87755584716797 94.68914794921875 C 62.89922714233398 97.21776580810547 56.54780960083008 98.4998779296875 49.99972534179688 98.4998779296875 Z" stroke="none"/>
                <path d="M 49.99972534179688 3 C 43.65348052978516 3 37.49866485595703 4.242240905761719 31.70623016357422 6.692230224609375 C 26.10989379882812 9.059272766113281 21.08323669433594 12.44853210449219 16.76589202880859 16.76587677001953 C 12.44855499267578 21.08321380615234 9.059295654296875 26.10985565185547 6.692230224609375 31.70618438720703 C 4.24224853515625 37.49859619140625 3 43.65341186523438 3 50.00022888183594 C 3 56.34645843505859 4.24224853515625 62.50127410888672 6.692230224609375 68.29368591308594 C 9.059295654296875 73.8900146484375 12.44855499267578 78.91665649414062 16.76589202880859 83.23399353027344 C 21.08323669433594 87.55132293701172 26.10989379882812 90.94059753417969 31.70623016357422 93.30764007568359 C 37.49866485595703 95.75762939453125 43.65348052978516 96.99987030029297 49.99972534179688 96.99987030029297 C 56.34597015380859 96.99987030029297 62.50078582763672 95.75762939453125 68.293212890625 93.30764007568359 C 73.88955688476562 90.94059753417969 78.91621398925781 87.55132293701172 83.23355865478516 83.23399353027344 C 87.55089569091797 78.91665649414062 90.94015502929688 73.8900146484375 93.30722045898438 68.29368591308594 C 95.7572021484375 62.50127410888672 96.99945068359375 56.34645843505859 96.99945068359375 49.99964141845703 C 96.99945068359375 43.65341186523438 95.7572021484375 37.49859619140625 93.30722045898438 31.70618438720703 C 90.94015502929688 26.10985565185547 87.55089569091797 21.08321380615234 83.23355865478516 16.76587677001953 C 78.91621398925781 12.44853210449219 73.88955688476562 9.059272766113281 68.293212890625 6.692230224609375 C 62.50078582763672 4.242240905761719 56.34597015380859 3 49.99972534179688 3 M 49.99972534179688 0 C 77.61381530761719 0 99.99945068359375 22.38559722900391 99.99945068359375 49.99964141845703 L 99.99945068359375 50.00022888183594 C 99.99945068359375 77.6142578125 77.61381530761719 99.99987030029297 49.99972534179688 99.99987030029297 C 22.38563537597656 99.99987030029297 0 77.6142578125 0 50.00022888183594 L 0 49.99964141845703 C 0 22.38559722900391 22.38563537597656 0 49.99972534179688 0 Z" stroke="none" fill="#fff"/>
              </g>
            </g>
            <g id="Trazado_874923" data-name="Trazado 874923" transform="translate(0 0)" fill="none">
              <path d="M50,0a50,50,0,0,1,50,50h0A50,50,0,0,1,0,50H0A50,50,0,0,1,50,0Z" stroke="none"/>
              <path d="M 49.99972534179688 3 C 43.65348052978516 3 37.49866485595703 4.242240905761719 31.70623016357422 6.692230224609375 C 26.10989379882812 9.059272766113281 21.08323669433594 12.44853210449219 16.76589202880859 16.76587677001953 C 12.44855499267578 21.08321380615234 9.059295654296875 26.10985565185547 6.692230224609375 31.70618438720703 C 4.24224853515625 37.49859619140625 3 43.65341186523438 3 50.00022888183594 C 3 56.34645843505859 4.24224853515625 62.50127410888672 6.692230224609375 68.29368591308594 C 9.059295654296875 73.8900146484375 12.44855499267578 78.91665649414062 16.76589202880859 83.23399353027344 C 21.08323669433594 87.55132293701172 26.10989379882812 90.94059753417969 31.70623016357422 93.30764007568359 C 37.49866485595703 95.75762939453125 43.65348052978516 96.99987030029297 49.99972534179688 96.99987030029297 C 56.34597015380859 96.99987030029297 62.50078582763672 95.75762939453125 68.293212890625 93.30764007568359 C 73.88955688476562 90.94059753417969 78.91621398925781 87.55132293701172 83.23355865478516 83.23399353027344 C 87.55089569091797 78.91665649414062 90.94015502929688 73.8900146484375 93.30722045898438 68.29368591308594 C 95.7572021484375 62.50127410888672 96.99945068359375 56.34645843505859 96.99945068359375 49.99964141845703 C 96.99945068359375 43.65341186523438 95.7572021484375 37.49859619140625 93.30722045898438 31.70618438720703 C 90.94015502929688 26.10985565185547 87.55089569091797 21.08321380615234 83.23355865478516 16.76587677001953 C 78.91621398925781 12.44853210449219 73.88955688476562 9.059272766113281 68.293212890625 6.692230224609375 C 62.50078582763672 4.242240905761719 56.34597015380859 3 49.99972534179688 3 M 49.99972534179688 0 C 77.61381530761719 0 99.99945068359375 22.38559722900391 99.99945068359375 49.99964141845703 L 99.99945068359375 50.00022888183594 C 99.99945068359375 77.6142578125 77.61381530761719 99.99987030029297 49.99972534179688 99.99987030029297 C 22.38563537597656 99.99987030029297 0 77.6142578125 0 50.00022888183594 L 0 49.99964141845703 C 0 22.38559722900391 22.38563537597656 0 49.99972534179688 0 Z" stroke="none" fill="#fff"/>
            </g>
          </g>
        </g>
      </g>
    </g>
    <g id="Grupo_1113315" data-name="Grupo 1113315" transform="translate(1132.26 1955.632)">
      <path id="Trazado_902453" data-name="Trazado 902453" d="M100.025,11h29.512l6.4,6.4V57.773H100.025Z" transform="translate(-83.9 -5.299)" fill="#cfe8ff" fill-rule="evenodd"/>
      <path id="Trazado_902454" data-name="Trazado 902454" d="M395.143,53.878l1.386,1.386V95.634h-1.386Z" transform="translate(-344.49 -43.159)" fill="#b6dbff" fill-rule="evenodd"/>
      <path id="Trazado_902455" data-name="Trazado 902455" d="M11.045,344.19H48.016v18.343H11.045Z" transform="translate(-5.331 -299.506)" fill="#2dd62d"/>
      <path id="Trazado_902456" data-name="Trazado 902456" d="M63.034,360.6a1.856,1.856,0,0,0,1.638,2.293v3.052H32.789V362.9a1.856,1.856,0,0,0,1.638-2.293Z" transform="translate(-24.531 -313.999)" fill="#29b933" fill-rule="evenodd"/>
      <path id="Trazado_902457" data-name="Trazado 902457" d="M35.082,365.933h27.3a2.293,2.293,0,0,0,2.293,2.293V376.9a2.293,2.293,0,0,0-2.293,2.293h-27.3a2.293,2.293,0,0,0-2.293-2.293v-8.669A2.293,2.293,0,0,0,35.082,365.933Z" transform="translate(-24.531 -318.705)" fill="#96ff96" fill-rule="evenodd"/>
      <circle id="Elipse_11645" data-name="Elipse 11645" cx="6.606" cy="6.606" r="6.606" transform="translate(17.123 59.988) rotate(-85.927)" fill="#29b933"/>
      <path id="Trazado_902458" data-name="Trazado 902458" d="M119.287,366.123a6.214,6.214,0,1,1-6.593,6.2A6.606,6.606,0,0,1,119.287,366.123Z" transform="translate(-95.087 -318.872)" fill="#2dd62d" fill-rule="evenodd"/>
      <path id="Trazado_902459" data-name="Trazado 902459" d="M319.724,344.19h.857v18.343h-.857Z" transform="translate(-277.895 -299.506)" fill="#29b933"/>
      <path id="Trazado_902460" data-name="Trazado 902460" d="M352.266,11l6.4,6.4h-6.4Z" transform="translate(-306.63 -5.299)" fill="#4eb1fc" fill-rule="evenodd"/>
      <path id="Trazado_902461" data-name="Trazado 902461" d="M145.557,174.511h4.257v16h-4.257Z" transform="translate(-124.105 -149.679)" fill="#4eb1fc"/>
      <path id="Trazado_902462" data-name="Trazado 902462" d="M81.832,238.53h4.257v8.511H81.832Z" transform="translate(-67.836 -206.208)" fill="#fdc72e"/>
      <path id="Trazado_902463" data-name="Trazado 902463" d="M209.282,185.03h4.257V199.8h-4.257Z" transform="translate(-180.374 -158.967)" fill="#2dd62d"/>
      <path id="Trazado_902464" data-name="Trazado 902464" d="M273.007,135.8h4.257v20.53h-4.257Z" transform="translate(-236.644 -115.493)" fill="#f89b00"/>
      <path id="Trazado_902465" data-name="Trazado 902465" d="M18.106,270.182h4.257v4.808H18.106Z" transform="translate(-11.566 -234.156)" fill="#fb545c"/>
      <path id="Trazado_902466" data-name="Trazado 902466" d="M298.6,135.8h1.263v20.53H298.6Z" transform="translate(-259.243 -115.493)" fill="#e68207"/>
      <path id="Trazado_902467" data-name="Trazado 902467" d="M234.875,185.03h1.263V199.8h-1.263Z" transform="translate(-202.973 -158.967)" fill="#29b933"/>
      <path id="Trazado_902468" data-name="Trazado 902468" d="M171.15,174.511h1.263v16H171.15Z" transform="translate(-146.704 -149.679)" fill="#2a92fa"/>
      <path id="Trazado_902469" data-name="Trazado 902469" d="M107.424,238.53h1.263v8.511h-1.263Z" transform="translate(-90.434 -206.208)" fill="#f9ac00"/>
      <path id="Trazado_902470" data-name="Trazado 902470" d="M43.7,270.182h1.263v4.808H43.7Z" transform="translate(-34.163 -234.156)" fill="#e8333c"/>
      <g id="Grupo_1113315-2" data-name="Grupo 1113315" transform="translate(41.041 32.648)">
        <path id="Trazado_902471" data-name="Trazado 902471" d="M325.467,306.736c4.167,1.643,7.715,7.5,9,12.489,2.157,8.367-2.63,10.1-10.48,10.239-7.849-.137-12.637-1.873-10.48-10.239,1.286-4.988,4.834-10.846,9-12.489h2.957Z" transform="translate(-312.991 -299.082)" fill="#d19458" fill-rule="evenodd"/>
        <path id="Trazado_902472" data-name="Trazado 902472" d="M322.711,329.426c-7.082-.312-11.24-2.3-9.2-10.2,1.286-4.988,4.834-10.846,9-12.489h.4c4.167,1.643,7.715,7.5,9,12.489C333.952,327.128,329.793,329.114,322.711,329.426Z" transform="translate(-312.99 -299.082)" fill="#e6b17c" fill-rule="evenodd"/>
        <path id="Trazado_902473" data-name="Trazado 902473" d="M355.261,249.977l-2.136.006c-4.832-6.617-3.693-8.974-1.449-8.276a3.987,3.987,0,0,1,1.427.846c.626.515,1.124.755,1.658,0,1.162-1.649,2.2-1.649,3.365,0,.534.758,1.033.518,1.658,0a3.988,3.988,0,0,1,1.427-.846c2.244-.7,3.383,1.658-1.449,8.276l-2.136-.006c-.446,0-.814,0-1.182,0s-.736,0-1.182,0Z" transform="translate(-345.445 -241.314)" fill="#d19458" fill-rule="evenodd"/>
        <path id="Trazado_902474" data-name="Trazado 902474" d="M355.26,249.978h-.393l-.978,0-.768,0c-4.828-6.614-3.69-8.97-1.446-8.272a3.985,3.985,0,0,1,1.427.846c.626.515,1.124.755,1.658,0,1.162-1.649,2.2-1.649,3.365,0,.534.758,1.033.518,1.658,0a6.516,6.516,0,0,1,.589-.449c.612,1,.023,3.512-3.161,7.875l-.768,0-.978,0h-.2Z" transform="translate(-345.445 -241.315)" fill="#e6b17c" fill-rule="evenodd"/>
      </g>
      <rect id="Rectángulo_404828" data-name="Rectángulo 404828" width="11.046" height="2.453" rx="1.226" transform="translate(46.516 40.089)" fill="#96602a"/>
      <g id="Grupo_1113316" data-name="Grupo 1113316" transform="translate(5.008 5)">
        <path id="Trazado_902475" data-name="Trazado 902475" d="M367.528,304.913h-6.519a1.226,1.226,0,0,0,0,2.453h6.519a1.226,1.226,0,0,0,0-2.453Z" transform="translate(-318.274 -269.824)" fill="#ab733a" fill-rule="evenodd"/>
        <path id="Trazado_902476" data-name="Trazado 902476" d="M7.241,40.132h2.853v-3.4H7.241Zm-1.4.7V36.026a.7.7,0,0,1,.7-.7H10.8a.7.7,0,0,1,.7.7v4.808a.7.7,0,0,1-.7.7H6.541A.7.7,0,0,1,5.837,40.833ZM39.917,21H37.064V40.131h2.853Zm.7-1.4a.7.7,0,0,1,.7.7v20.53a.7.7,0,0,1-.7.7H36.365a.7.7,0,0,1-.7-.7V20.3a.7.7,0,0,1,.7-.7Zm-8.158,7.164H29.611V40.132h2.853Zm.7-1.4a.7.7,0,0,1,.7.7v14.77a.7.7,0,0,1-.7.7H28.906a.7.7,0,0,1-.7-.7V26.063a.7.7,0,0,1,.7-.7ZM17.552,33.025H14.7v7.107h2.853Zm.7-1.4a.7.7,0,0,1,.7.7v8.511a.7.7,0,0,1-.7.7H13.995a.7.7,0,0,1-.7-.7V32.323a.7.7,0,0,1,.7-.7Zm6.754-6.087H22.152v14.6h2.853Zm.7-1.4a.7.7,0,0,1,.7.7v16a.7.7,0,0,1-.7.7H21.453a.7.7,0,0,1-.7-.7v-16a.7.7,0,0,1,.7-.7H25.71ZM9,34.234a.7.7,0,0,1-.5-1.2L22.677,18.859a.706.706,0,0,1,.772-.15l6.917,2.932L38.711,13.3l-.395.058a.7.7,0,0,1-.2-1.389L40.6,11.6a.7.7,0,0,1,.6.2.729.729,0,0,1,.2.6l-.366,2.489a.7.7,0,0,1-.693.6.672.672,0,0,1-.1-.007.7.7,0,0,1-.592-.8l.056-.392-8.676,8.678a.7.7,0,0,1-.772.15l-6.917-2.932L9.5,34.028a.7.7,0,0,1-.5.206ZM54.614,54.94a3.129,3.129,0,0,0-1.872-1.113v2.987c.987-.1,1.77-.508,1.923-1.039a1.029,1.029,0,0,0-.051-.835Zm-3.275-2.915V48.954a2.642,2.642,0,0,0-1.471.659,1.219,1.219,0,0,0-.366.921,1.319,1.319,0,0,0,.569.94,3.784,3.784,0,0,0,1.268.551Zm4.5,2.236a2.441,2.441,0,0,1,.175,1.908c-.383,1.293-1.827,1.933-3.275,2.054v.958a.7.7,0,1,1-1.4,0v-1a3.725,3.725,0,0,1-3.377-2.58.7.7,0,0,1,1.37-.319,2.324,2.324,0,0,0,2.007,1.471V53.478a5.738,5.738,0,0,1-2.125-.894A2.734,2.734,0,0,1,48.1,50.636a2.6,2.6,0,0,1,.761-2,4.064,4.064,0,0,1,2.481-1.1V46.56a.7.7,0,1,1,1.4,0v.978a5.557,5.557,0,0,1,.863.165A3.233,3.233,0,0,1,56.1,49.972a.7.7,0,0,1-1.37.311c-.18-.782-1.1-1.119-1.5-1.228a3.994,3.994,0,0,0-.485-.1v3.423c.113.029.231.059.344.091a4.322,4.322,0,0,1,2.757,1.8Zm5.993-1.294c.789,3.06.643,5.247-.451,6.686-1.342,1.76-4.223,2.585-9.347,2.676-5.125-.091-8.006-.916-9.347-2.676-1.094-1.439-1.24-3.626-.451-6.686a22.811,22.811,0,0,1,5.322-9.732c.062.006.118.009.18.009h8.592c.062,0,.124,0,.18-.009a22.752,22.752,0,0,1,5.322,9.732ZM28.472,59.784h8.761a3.01,3.01,0,0,1,2.21-2.211V50.139a3.012,3.012,0,0,1-2.21-2.211H28.472a7.3,7.3,0,0,1,0,11.856ZM19.931,47.928H11.164a3,3,0,0,1-2.21,2.211v7.434a3,3,0,0,1,2.21,2.211h8.767a7.3,7.3,0,0,1,0-11.856Zm10.176,5.928A5.906,5.906,0,1,1,24.2,47.95,5.914,5.914,0,0,1,30.107,53.856Zm11.884,8.473V60.986a5.606,5.606,0,0,1-.417-.483,5.732,5.732,0,0,1-.919-1.826.707.707,0,0,1-.507.217,1.6,1.6,0,0,0-1.6,1.592.7.7,0,0,1-.7.7H10.544a.7.7,0,0,1-.7-.7,1.6,1.6,0,0,0-1.6-1.592.7.7,0,0,1-.7-.7V49.52a.7.7,0,0,1,.7-.7,1.6,1.6,0,0,0,1.6-1.592.7.7,0,0,1,.7-.7H37.853a.7.7,0,0,1,.7.7,1.6,1.6,0,0,0,1.6,1.592.7.7,0,0,1,.7.7v3.218l.034-.122a23.7,23.7,0,0,1,1.111-3.275V45.383H6.412V62.329Zm6.241-22.942h7.611c2.3-3.512,2.385-5.18,2.058-5.615-.192-.253-.727-.11-.885-.06a3.222,3.222,0,0,0-1.156.691l-.034.027a2.07,2.07,0,0,1-1.562.628,1.647,1.647,0,0,1-1.116-.768c-.428-.606-.823-.939-1.111-.939s-.682.333-1.105.939a1.669,1.669,0,0,1-1.122.768,2.076,2.076,0,0,1-1.562-.628l-.028-.027a3.273,3.273,0,0,0-1.156-.691c-.163-.05-.7-.193-.891.06-.321.434-.242,2.1,2.058,5.615ZM46.338,11.4h4.008L46.338,7.4V11.4Zm10,30.437a.524.524,0,0,0,0-1.049H47.742a.524.524,0,1,0,0,1.049ZM62.5,60.5c-2.069,2.721-6.444,3.159-10.452,3.229h-.023c-3.061-.053-6.331-.323-8.631-1.66v.958a.7.7,0,0,1-.7.7H5.707a.7.7,0,0,1-.7-.7V44.681a.7.7,0,0,1,.7-.7H42.691a.7.7,0,0,1,.7.7V46.5a21.309,21.309,0,0,1,2.87-3.944,1.927,1.927,0,0,1,.479-2.888c-2.013-3.2-2.6-5.524-1.691-6.736a2.088,2.088,0,0,1,2.43-.56,4.576,4.576,0,0,1,1.629.948l.034.026a1.548,1.548,0,0,0,.474.316.631.631,0,0,0,.163-.182,3.7,3.7,0,0,1,1.556-1.4V12.807h-5.7a.7.7,0,0,1-.7-.7V6.4H16.825V22.329a.7.7,0,1,1-1.4,0V5.7a.691.691,0,0,1,.209-.5.7.7,0,0,1,.5-.206H45.639a.709.709,0,0,1,.5.205l6.4,6.4a.689.689,0,0,1,.209.5v19.98a3.725,3.725,0,0,1,1.55,1.4.881.881,0,0,0,.163.182,1.611,1.611,0,0,0,.479-.316l.028-.026a4.56,4.56,0,0,1,1.635-.948,2.08,2.08,0,0,1,2.424.56c.908,1.212.321,3.533-1.691,6.735a1.927,1.927,0,0,1,.479,2.888A24.216,24.216,0,0,1,63.2,52.616c.9,3.5.671,6.084-.7,7.887ZM25.868,55.434a1.772,1.772,0,0,0-.964-.621V56.45c.547-.1.919-.337.987-.57a.542.542,0,0,0-.023-.445ZM23.5,52.981V51.3a1.492,1.492,0,0,0-.71.364.68.68,0,0,0-.209.507.778.778,0,0,0,.333.53,1.986,1.986,0,0,0,.586.282Zm3.6,1.774A3.258,3.258,0,0,0,25,53.374l-.1-.027V51.292l.1.024c.248.068.829.276.93.731a.7.7,0,0,0,1.37-.311,2.508,2.508,0,0,0-1.923-1.773,4.029,4.029,0,0,0-.474-.1v-.527a.7.7,0,1,0-1.4,0v.532a3.059,3.059,0,0,0-1.725.82,2.054,2.054,0,0,0-.592,1.581,2.137,2.137,0,0,0,.868,1.538,4.028,4.028,0,0,0,1.449.636v1.944a1.321,1.321,0,0,1-1.043-.85.7.7,0,0,0-1.37.319A2.8,2.8,0,0,0,23.5,57.827v.548a.7.7,0,1,0,1.4,0v-.508a2.588,2.588,0,0,0,2.334-1.593,1.933,1.933,0,0,0-.141-1.519Zm-14.867-.2a.7.7,0,1,1,0-1.4h1.387a.7.7,0,0,1,0,1.4Zm24.643-.7a.7.7,0,0,1-.7.7H34.781a.7.7,0,0,1,0-1.4h1.393A.7.7,0,0,1,36.872,53.856Z" transform="translate(-5.008 -5)" fill="#021047" fill-rule="evenodd"/>
      </g>
    </g>
  </g>
</svg>
