<svg xmlns="http://www.w3.org/2000/svg" xmlns:xlink="http://www.w3.org/1999/xlink" width="118" height="118" viewBox="0 0 118 118">
  <defs>
    <filter id="Trazado_874925" x="0" y="0" width="118" height="118" filterUnits="userSpaceOnUse">
      <feOffset dy="3" input="SourceAlpha"/>
      <feGaussianBlur stdDeviation="3" result="blur"/>
      <feFlood flood-opacity="0.161"/>
      <feComposite operator="in" in2="blur"/>
      <feComposite in="SourceGraphic"/>
    </filter>
  </defs>
  <g id="Grupo_1112528" data-name="Grupo 1112528" transform="translate(-793.781 -1933.999)">
    <g id="Grupo_1111552" data-name="Grupo 1111552" transform="translate(-5.719 -577.158)">
      <g id="Grupo_1111316" data-name="Grupo 1111316" transform="translate(808.5 2517.157)">
        <g id="Grupo_1109835" data-name="Grupo 1109835" transform="translate(0 0)">
          <g id="Grupo_1107913" data-name="Grupo 1107913" transform="translate(0 0)">
            <g transform="matrix(1, 0, 0, 1, -9, -6)" filter="url(#Trazado_874925)">
              <g id="Trazado_874925-2" data-name="Trazado 874925" transform="translate(9 6)" fill="#9cc8ff" opacity="0.859">
                <path d="M 49.99972534179688 98.4998779296875 C 43.45164108276367 98.4998779296875 37.10022354125977 97.21776580810547 31.12189674377441 94.68914794921875 C 25.34676742553711 92.24647521972656 20.15985298156738 88.74925994873047 15.70523929595947 84.29464721679688 C 11.25062561035156 79.84004974365234 7.753411293029785 74.65313720703125 5.310725212097168 68.87800598144531 C 2.782111167907715 62.89969253540039 1.499996781349182 56.54829406738281 1.499996781349182 50.00022125244141 C 1.499996781349182 43.45157623291016 2.782111167907715 37.10017776489258 5.310725212097168 31.12186431884766 C 7.753411293029785 25.34673500061035 11.25062561035156 20.15983581542969 15.70523929595947 15.70522117614746 C 20.15985298156738 11.25062084197998 25.34676742553711 7.753406524658203 31.12189674377441 5.31073522567749 C 37.10022354125977 2.782120943069458 43.45164108276367 1.500006556510925 49.99972534179688 1.500006556510925 C 56.54780960083008 1.500006556510925 62.89922714233398 2.782120943069458 68.87755584716797 5.31073522567749 C 74.65267944335938 7.753406524658203 79.839599609375 11.25062084197998 84.29421234130859 15.70522117614746 C 88.74882507324219 20.15983581542969 92.24604034423828 25.34673500061035 94.68872833251953 31.12186431884766 C 97.21733856201172 37.10017776489258 98.49945068359375 43.45157623291016 98.49945068359375 49.99964904785156 C 98.49945068359375 56.54829406738281 97.21733856201172 62.89969253540039 94.68872833251953 68.87800598144531 C 92.24604034423828 74.65313720703125 88.74882507324219 79.84004974365234 84.29421234130859 84.29464721679688 C 79.839599609375 88.74925994873047 74.65267944335938 92.24647521972656 68.87755584716797 94.68914794921875 C 62.89922714233398 97.21776580810547 56.54780960083008 98.4998779296875 49.99972534179688 98.4998779296875 Z" stroke="none"/>
                <path d="M 49.99972534179688 3 C 43.65348052978516 3 37.49866485595703 4.242240905761719 31.70623016357422 6.692230224609375 C 26.10989379882812 9.059272766113281 21.08323669433594 12.44853210449219 16.76589202880859 16.76587677001953 C 12.44855499267578 21.08321380615234 9.059295654296875 26.10985565185547 6.692230224609375 31.70618438720703 C 4.24224853515625 37.49859619140625 3 43.65341186523438 3 50.00022888183594 C 3 56.34645843505859 4.24224853515625 62.50127410888672 6.692230224609375 68.29368591308594 C 9.059295654296875 73.8900146484375 12.44855499267578 78.91665649414062 16.76589202880859 83.23399353027344 C 21.08323669433594 87.55132293701172 26.10989379882812 90.94059753417969 31.70623016357422 93.30764007568359 C 37.49866485595703 95.75762939453125 43.65348052978516 96.99987030029297 49.99972534179688 96.99987030029297 C 56.34597015380859 96.99987030029297 62.50078582763672 95.75762939453125 68.293212890625 93.30764007568359 C 73.88955688476562 90.94059753417969 78.91621398925781 87.55132293701172 83.23355865478516 83.23399353027344 C 87.55089569091797 78.91665649414062 90.94015502929688 73.8900146484375 93.30722045898438 68.29368591308594 C 95.7572021484375 62.50127410888672 96.99945068359375 56.34645843505859 96.99945068359375 49.99964141845703 C 96.99945068359375 43.65341186523438 95.7572021484375 37.49859619140625 93.30722045898438 31.70618438720703 C 90.94015502929688 26.10985565185547 87.55089569091797 21.08321380615234 83.23355865478516 16.76587677001953 C 78.91621398925781 12.44853210449219 73.88955688476562 9.059272766113281 68.293212890625 6.692230224609375 C 62.50078582763672 4.242240905761719 56.34597015380859 3 49.99972534179688 3 M 49.99972534179688 0 C 77.61381530761719 0 99.99945068359375 22.38559722900391 99.99945068359375 49.99964141845703 L 99.99945068359375 50.00022888183594 C 99.99945068359375 77.6142578125 77.61381530761719 99.99987030029297 49.99972534179688 99.99987030029297 C 22.38563537597656 99.99987030029297 0 77.6142578125 0 50.00022888183594 L 0 49.99964141845703 C 0 22.38559722900391 22.38563537597656 0 49.99972534179688 0 Z" stroke="none" fill="#fff"/>
              </g>
            </g>
            <g id="Trazado_874923" data-name="Trazado 874923" transform="translate(0 0)" fill="none">
              <path d="M50,0a50,50,0,0,1,50,50h0A50,50,0,0,1,0,50H0A50,50,0,0,1,50,0Z" stroke="none"/>
              <path d="M 49.99972534179688 3 C 43.65348052978516 3 37.49866485595703 4.242240905761719 31.70623016357422 6.692230224609375 C 26.10989379882812 9.059272766113281 21.08323669433594 12.44853210449219 16.76589202880859 16.76587677001953 C 12.44855499267578 21.08321380615234 9.059295654296875 26.10985565185547 6.692230224609375 31.70618438720703 C 4.24224853515625 37.49859619140625 3 43.65341186523438 3 50.00022888183594 C 3 56.34645843505859 4.24224853515625 62.50127410888672 6.692230224609375 68.29368591308594 C 9.059295654296875 73.8900146484375 12.44855499267578 78.91665649414062 16.76589202880859 83.23399353027344 C 21.08323669433594 87.55132293701172 26.10989379882812 90.94059753417969 31.70623016357422 93.30764007568359 C 37.49866485595703 95.75762939453125 43.65348052978516 96.99987030029297 49.99972534179688 96.99987030029297 C 56.34597015380859 96.99987030029297 62.50078582763672 95.75762939453125 68.293212890625 93.30764007568359 C 73.88955688476562 90.94059753417969 78.91621398925781 87.55132293701172 83.23355865478516 83.23399353027344 C 87.55089569091797 78.91665649414062 90.94015502929688 73.8900146484375 93.30722045898438 68.29368591308594 C 95.7572021484375 62.50127410888672 96.99945068359375 56.34645843505859 96.99945068359375 49.99964141845703 C 96.99945068359375 43.65341186523438 95.7572021484375 37.49859619140625 93.30722045898438 31.70618438720703 C 90.94015502929688 26.10985565185547 87.55089569091797 21.08321380615234 83.23355865478516 16.76587677001953 C 78.91621398925781 12.44853210449219 73.88955688476562 9.059272766113281 68.293212890625 6.692230224609375 C 62.50078582763672 4.242240905761719 56.34597015380859 3 49.99972534179688 3 M 49.99972534179688 0 C 77.61381530761719 0 99.99945068359375 22.38559722900391 99.99945068359375 49.99964141845703 L 99.99945068359375 50.00022888183594 C 99.99945068359375 77.6142578125 77.61381530761719 99.99987030029297 49.99972534179688 99.99987030029297 C 22.38563537597656 99.99987030029297 0 77.6142578125 0 50.00022888183594 L 0 49.99964141845703 C 0 22.38559722900391 22.38563537597656 0 49.99972534179688 0 Z" stroke="none" fill="#fff"/>
            </g>
          </g>
        </g>
      </g>
    </g>
    <g id="Grupo_1115342" data-name="Grupo 1115342" transform="translate(793.488 1957.615)">
      <g id="Grupo_1115342-2" data-name="Grupo 1115342" transform="translate(31.24 10.424)">
        <path id="Trazado_908046" data-name="Trazado 908046" d="M90.417,96.682l-2.853-1.9,4.2-3.978,3.48-5.383A1.9,1.9,0,0,0,93.652,82.5h-18.8l2.483,14.14c-7.731,5.9-19.547,19.113-19.547,24.6,0,4.33,7.815,11.933,12.8,11.933,18.692,0,33.811-1.264,33.811-1.264,3.654-3.208,6.009-7.692,6.009-10.669C110.408,110.857,90.417,96.682,90.417,96.682Z" transform="translate(-55.264 -82.502)" fill="#b3e59f"/>
        <path id="Trazado_908047" data-name="Trazado 908047" d="M72.528,131.916c2.67-3.156,4.991-7.422,4.991-10.669,0-4.464-1.83-10.087-9.39-22.092h2.342c1.414,0,2.473-.234,2.473-2.473V92.891l1.346-2.082H62.752L57.381,82.5H54.546a1.9,1.9,0,0,0-1.592,2.924l4.826,7.465v3.791S37.79,110.857,37.79,121.247c0,5.088,6.84,14.577,15.324,14.577H77.573a14.4,14.4,0,0,0,9.351-3.908ZM41.581,121.247c0-5.5,10.57-16.2,18.3-22.092h4.455c7.56,12.005,9.39,17.628,9.39,22.092,0,3.6-3.091,7.83-6.249,10.669H53.114C48.132,131.916,41.581,125.576,41.581,121.247Z" transform="translate(-37.79 -82.502)" fill="#7fcb8f"/>
        <path id="Trazado_908048" data-name="Trazado 908048" d="M205.626,164.725H190.463a12.008,12.008,0,0,0-.8,1.389c0,.755,1.307,1.478,2.062,1.478.347,0,15.8-.972,15.8-.972A1.9,1.9,0,0,0,205.626,164.725Z" transform="translate(-170.472 -154.336)" fill="#f5deb2"/>
        <path id="Trazado_908049" data-name="Trazado 908049" d="M182.79,165.254a1.363,1.363,0,0,1,.106-.529h0a1.9,1.9,0,0,0,0,3.791h15.163a1.9,1.9,0,0,0,1.9-1.9h-15.8A1.367,1.367,0,0,1,182.79,165.254Z" transform="translate(-162.906 -154.336)" fill="#f4c497"/>
      </g>
      <g id="Grupo_1115343" data-name="Grupo 1115343" transform="translate(30.293 -0.001)">
        <path id="Trazado_908050" data-name="Trazado 908050" d="M46.583,62.8h3.265L45.74,56.445a.948.948,0,1,1,1.592-1.029L52.1,62.8h2.039l-4.108-6.353a.948.948,0,1,1,1.592-1.029L56.4,62.8h4.828c3.4-1.851,8.794-8.943,8.794-13.629a.948.948,0,1,1,1.9,0c0,3.421-2.187,7.121-3.491,9.021a25.7,25.7,0,0,1-4,4.608h6.6c7.887,0,14.413-9.024,14.413-13.629,0-3.436-2.543-7.969-7.355-13.109a.948.948,0,1,1,1.384-1.3c5.22,5.576,7.867,10.423,7.867,14.4,0,2.854-1.865,6.717-4.751,9.84-1.962,2.123-6.072,5.685-11.557,5.685H46.564c-5.485,0-9.585-3.562-11.54-5.686-2.874-3.121-4.731-6.983-4.731-9.839,0-9.247,14.456-20.886,19.041-24.345a2.84,2.84,0,0,1,.423-4.545l-4.148-6.416A2.843,2.843,0,0,1,48,9.477h7.374l-.28-.433a.948.948,0,0,1,1.592-1.029l3.358,5.195a.948.948,0,0,1-1.592,1.029L56.6,11.372H52.573l5.492,8.494h7.813l4.546-7.032a.948.948,0,0,0-.8-1.462h-6.48l1.188,1.837a.948.948,0,0,1-1.592,1.029L59.386,9.043a.948.948,0,0,1,1.592-1.029l.945,1.462h7.7a2.843,2.843,0,0,1,2.387,4.387l-4.148,6.416a2.84,2.84,0,0,1,.419,4.549,99.228,99.228,0,0,1,8.742,7.464.948.948,0,1,1-1.318,1.361,96.773,96.773,0,0,0-9.624-8.1H61.735c5.487,8.607,8.462,14.529,9.6,19.083a.948.948,0,1,1-1.839.458c-1.127-4.524-4.218-10.559-10.009-19.541H58.071a126.89,126.89,0,0,0-7.344,12.63.948.948,0,0,1-1.7-.831,123.014,123.014,0,0,1,6.8-11.8H51.538a96.878,96.878,0,0,0-9.659,8.135c-6.34,6.147-9.691,11.5-9.691,15.482,0,4.605,6.507,13.629,14.394,13.629Zm4.66-39.142H66.4a.948.948,0,0,0,0-1.9H51.221a.948.948,0,0,0,0,1.9Zm.5-3.791h4.061l-5.492-8.494H48a.948.948,0,0,0-.8,1.462Zm-10.2-4.332c-2.981-3.906-1.362-6.282-.062-8.191,1.211-1.779,2.087-3.064.06-5.719A.948.948,0,0,1,43.049.474c2.856,3.742,1.272,6.067,0,7.936-1.248,1.832-2.149,3.156,0,5.975a.948.948,0,0,1-1.507,1.15Zm34.116,7.581c-2.981-3.906-1.362-6.282-.062-8.191,1.211-1.779,2.087-3.064.06-5.719a.948.948,0,1,1,1.507-1.15c2.856,3.742,1.272,6.067,0,7.936-1.248,1.832-2.149,3.156,0,5.975a.948.948,0,0,1-1.507,1.15Zm7.383-7.683c-2.981-3.906-1.362-6.282-.062-8.191,1.211-1.779,2.087-3.064.06-5.719A.948.948,0,0,1,84.547.372c2.856,3.742,1.272,6.067,0,7.936-1.248,1.832-2.149,3.156,0,5.975a.948.948,0,0,1-1.507,1.15Zm-49.08,7.683c-2.981-3.906-1.362-6.282-.062-8.191,1.211-1.779,2.087-3.064.06-5.719a.948.948,0,1,1,1.507-1.15c2.856,3.742,1.272,6.067,0,7.936-1.248,1.832-2.149,3.156,0,5.975a.948.948,0,0,1-1.507,1.15Z" transform="translate(-30.293 0.001)"/>
      </g>
    </g>
  </g>
</svg>
