<svg xmlns="http://www.w3.org/2000/svg" xmlns:xlink="http://www.w3.org/1999/xlink" width="103" height="103" viewBox="0 0 103 103">
  <defs>
    <filter id="Trazado_874925" x="0" y="0" width="103" height="103" filterUnits="userSpaceOnUse">
      <feOffset dy="3" input="SourceAlpha"/>
      <feGaussianBlur stdDeviation="3" result="blur"/>
      <feFlood flood-opacity="0.161"/>
      <feComposite operator="in" in2="blur"/>
      <feComposite in="SourceGraphic"/>
    </filter>
  </defs>
  <g id="Grupo_1112570" data-name="Grupo 1112570" transform="translate(8.949 6)">
    <g id="Grupo_1111552" data-name="Grupo 1111552" transform="translate(0.051 0)">
      <g id="Grupo_1111316" data-name="Grupo 1111316" transform="translate(0 0)">
        <g id="Grupo_1109835" data-name="Grupo 1109835" transform="translate(0 0)">
          <g id="Grupo_1107913" data-name="Grupo 1107913">
            <g transform="matrix(1, 0, 0, 1, -9, -6)" filter="url(#Trazado_874925)">
              <g id="Trazado_874925-2" data-name="Trazado 874925" transform="translate(9 6)" fill="#9ad354" opacity="0.859">
                <path d="M 42.49977493286133 83.49990844726562 C 36.96417617797852 83.49990844726562 31.59496307373047 82.41609191894531 26.54126930236816 80.278564453125 C 21.65922164916992 78.21363830566406 17.27438735961914 75.2572021484375 13.50855159759521 71.49136352539062 C 9.742728233337402 67.72554016113281 6.786280632019043 63.34071731567383 4.721351623535156 58.45867156982422 C 2.583822011947632 53.40499114990234 1.499998450279236 48.03578948974609 1.499998450279236 42.50020217895508 C 1.499998450279236 36.96411895751953 2.583822011947632 31.59491920471191 4.721351623535156 26.54123687744141 C 6.786280632019043 21.65918922424316 9.742728233337402 17.27436637878418 13.50855159759521 13.50854206085205 C 17.27438735961914 9.742707252502441 21.65922164916992 6.786272048950195 26.54126930236816 4.72134256362915 C 31.59496307373047 2.583812952041626 36.96417617797852 1.500001311302185 42.49977493286133 1.500001311302185 C 48.03537368774414 1.500001311302185 53.40458679199219 2.583812952041626 58.45828247070312 4.72134256362915 C 63.34032821655273 6.786272048950195 67.72516632080078 9.742707252502441 71.49099731445312 13.50854206085205 C 75.25682067871094 17.27436637878418 78.21327209472656 21.65918922424316 80.2781982421875 26.54123687744141 C 82.41572570800781 31.59491920471191 83.49954986572266 36.96411895751953 83.49954986572266 42.49970626831055 C 83.49954986572266 48.03578948974609 82.41572570800781 53.40499114990234 80.2781982421875 58.45867156982422 C 78.21327209472656 63.34071731567383 75.25682067871094 67.72554016113281 71.49099731445312 71.49136352539062 C 67.72516632080078 75.2572021484375 63.34032821655273 78.21363830566406 58.45828247070312 80.278564453125 C 53.40458679199219 82.41609191894531 48.03537368774414 83.49990844726562 42.49977493286133 83.49990844726562 Z" stroke="none"/>
                <path d="M 42.49977493286133 2.999992370605469 C 37.166015625 2.999992370605469 31.99338912963867 4.043937683105469 27.12560272216797 6.10284423828125 C 22.42234802246094 8.092155456542969 18.19777679443359 10.94065093994141 14.5692138671875 14.56919097900391 C 10.94065856933594 18.19775390625 8.0921630859375 22.42232894897461 6.102851867675781 27.12556838989258 C 4.0439453125 31.99335479736328 3 37.16596603393555 3 42.50020599365234 C 3 47.83395385742188 4.0439453125 53.00656890869141 6.102851867675781 57.87435150146484 C 8.0921630859375 62.57758331298828 10.94065856933594 66.80215454101562 14.5692138671875 70.43070220947266 C 18.19777679443359 74.05926513671875 22.42234802246094 76.90775299072266 27.12560272216797 78.89704895019531 C 31.99338912963867 80.95595550537109 37.166015625 81.99990081787109 42.49977493286133 81.99990081787109 C 47.83353424072266 81.99990081787109 53.00616073608398 80.95595550537109 57.87394714355469 78.89704895019531 C 62.57720184326172 76.90775299072266 66.80177307128906 74.05926513671875 70.43033599853516 70.43070220947266 C 74.05889892578125 66.80215454101562 76.90738677978516 62.57758331298828 78.89669799804688 57.87435150146484 C 80.95560455322266 53.00656890869141 81.99954986572266 47.83395385742188 81.99954986572266 42.49971389770508 C 81.99954986572266 37.16596603393555 80.95560455322266 31.99335479736328 78.89669799804688 27.12556838989258 C 76.90738677978516 22.42232894897461 74.05889892578125 18.19775390625 70.43033599853516 14.56919097900391 C 66.80177307128906 10.94065093994141 62.57720184326172 8.092155456542969 57.87394714355469 6.10284423828125 C 53.00616073608398 4.043937683105469 47.83353424072266 2.999992370605469 42.49977493286133 2.999992370605469 M 42.49977493286133 -7.62939453125e-06 C 65.97176361083984 -7.62939453125e-06 84.99954986572266 19.02777099609375 84.99954986572266 42.49971389770508 L 84.99954986572266 42.50020599365234 C 84.99954986572266 65.97213745117188 65.97176361083984 84.99990081787109 42.49977493286133 84.99990081787109 C 19.02778625488281 84.99990081787109 0 65.97213745117188 0 42.50020599365234 L 0 42.49971389770508 C 0 19.02777099609375 19.02778625488281 -7.62939453125e-06 42.49977493286133 -7.62939453125e-06 Z" stroke="none" fill="#fff"/>
              </g>
            </g>
            <g id="Trazado_874923" data-name="Trazado 874923" fill="none">
              <path d="M42.5,0A42.5,42.5,0,0,1,85,42.5h0a42.5,42.5,0,0,1-85,0H0A42.5,42.5,0,0,1,42.5,0Z" stroke="none"/>
              <path d="M 42.49977493286133 2.999992370605469 C 37.166015625 2.999992370605469 31.99338912963867 4.043937683105469 27.12560272216797 6.10284423828125 C 22.42234802246094 8.092155456542969 18.19777679443359 10.94065093994141 14.5692138671875 14.56919097900391 C 10.94065856933594 18.19775390625 8.0921630859375 22.42232894897461 6.102851867675781 27.12556838989258 C 4.0439453125 31.99335479736328 3 37.16596603393555 3 42.50020599365234 C 3 47.83395385742188 4.0439453125 53.00656890869141 6.102851867675781 57.87435150146484 C 8.0921630859375 62.57758331298828 10.94065856933594 66.80215454101562 14.5692138671875 70.43070220947266 C 18.19777679443359 74.05926513671875 22.42234802246094 76.90775299072266 27.12560272216797 78.89704895019531 C 31.99338912963867 80.95595550537109 37.166015625 81.99990081787109 42.49977493286133 81.99990081787109 C 47.83353424072266 81.99990081787109 53.00616073608398 80.95595550537109 57.87394714355469 78.89704895019531 C 62.57720184326172 76.90775299072266 66.80177307128906 74.05926513671875 70.43033599853516 70.43070220947266 C 74.05889892578125 66.80215454101562 76.90738677978516 62.57758331298828 78.89669799804688 57.87435150146484 C 80.95560455322266 53.00656890869141 81.99954986572266 47.83395385742188 81.99954986572266 42.49971389770508 C 81.99954986572266 37.16596603393555 80.95560455322266 31.99335479736328 78.89669799804688 27.12556838989258 C 76.90738677978516 22.42232894897461 74.05889892578125 18.19775390625 70.43033599853516 14.56919097900391 C 66.80177307128906 10.94065093994141 62.57720184326172 8.092155456542969 57.87394714355469 6.10284423828125 C 53.00616073608398 4.043937683105469 47.83353424072266 2.999992370605469 42.49977493286133 2.999992370605469 M 42.49977493286133 -7.62939453125e-06 C 65.97176361083984 -7.62939453125e-06 84.99954986572266 19.02777099609375 84.99954986572266 42.49971389770508 L 84.99954986572266 42.50020599365234 C 84.99954986572266 65.97213745117188 65.97176361083984 84.99990081787109 42.49977493286133 84.99990081787109 C 19.02778625488281 84.99990081787109 0 65.97213745117188 0 42.50020599365234 L 0 42.49971389770508 C 0 19.02777099609375 19.02778625488281 -7.62939453125e-06 42.49977493286133 -7.62939453125e-06 Z" stroke="none" fill="#fff"/>
            </g>
          </g>
        </g>
      </g>
    </g>
    <g id="Grupo_1117952" data-name="Grupo 1117952" transform="translate(12.051 15)">
      <path id="Trazado_909404" data-name="Trazado 909404" d="M31.081,17.387a4.276,4.276,0,0,0-4.274,4.274V49.016a4.329,4.329,0,0,0,.333,1.667l-.333.043H8V2H39.629V17.387Z" transform="translate(-0.145 -0.145)" fill="#e6e9ed"/>
      <path id="Trazado_909405" data-name="Trazado 909405" d="M14,39,25.113,50.968H19.984L14,44.984Z" transform="translate(-1.016 -5.516)" fill="#fcd770"/>
      <path id="Trazado_909406" data-name="Trazado 909406" d="M19.984,51.984H14V46Z" transform="translate(-1.016 -6.532)" fill="#fcd770"/>
      <path id="Trazado_909407" data-name="Trazado 909407" d="M57.355,24.274V51.629A4.276,4.276,0,0,1,53.081,55.9H34.274A4.284,4.284,0,0,1,30.333,53.3,4.329,4.329,0,0,1,30,51.629V24.274A4.276,4.276,0,0,1,34.274,20H53.081A4.276,4.276,0,0,1,57.355,24.274Z" transform="translate(-3.339 -2.758)" fill="#969faa"/>
      <path id="Trazado_909408" data-name="Trazado 909408" d="M52.806,34H35.71A1.715,1.715,0,0,0,34,35.71v17.1a1.715,1.715,0,0,0,1.71,1.71h17.1a1.715,1.715,0,0,0,1.71-1.71V35.71A1.715,1.715,0,0,0,52.806,34Z" transform="translate(-3.919 -4.79)" fill="#ffeaa7"/>
      <path id="Trazado_909409" data-name="Trazado 909409" d="M54.516,25.71v1.71a1.715,1.715,0,0,1-1.71,1.71H35.71A1.715,1.715,0,0,1,34,27.419V25.71A1.715,1.715,0,0,1,35.71,24h17.1A1.715,1.715,0,0,1,54.516,25.71Z" transform="translate(-3.919 -3.339)" fill="#69d6f4"/>
      <path id="Trazado_909410" data-name="Trazado 909410" d="M49,39h5.129v1.71H49Z" transform="translate(-6.097 -5.516)"/>
      <path id="Trazado_909411" data-name="Trazado 909411" d="M38.71,42.129h1.71v-1.71h1.71V38.71h-1.71V37H38.71v1.71H37v1.71h1.71Z" transform="translate(-4.355 -5.226)"/>
      <path id="Trazado_909412" data-name="Trazado 909412" d="M42.631,49.5l-1.209-1.209-1.96,1.96-1.96-1.96L36.293,49.5l1.96,1.96-1.96,1.96L37.5,54.631l1.96-1.96,1.96,1.96,1.209-1.209-1.96-1.96Z" transform="translate(-4.252 -6.865)"/>
      <path id="Trazado_909413" data-name="Trazado 909413" d="M0,0H7.253V1.71H0Z" transform="translate(42.29 46.557) rotate(-45)"/>
      <circle id="Elipse_11774" data-name="Elipse 11774" cx="1" cy="1" r="1" transform="translate(42.871 42)"/>
      <circle id="Elipse_11775" data-name="Elipse 11775" cx="1" cy="1" r="1" transform="translate(45.871 45)"/>
      <path id="Trazado_909414" data-name="Trazado 909414" d="M52.661,33h-17.1A2.568,2.568,0,0,0,33,35.565v17.1a2.568,2.568,0,0,0,2.565,2.565h17.1a2.568,2.568,0,0,0,2.565-2.565v-17.1A2.568,2.568,0,0,0,52.661,33Zm.855,2.565v7.694H44.968V34.71h7.694A.856.856,0,0,1,53.516,35.565ZM35.565,34.71h7.694v8.548H34.71V35.565A.856.856,0,0,1,35.565,34.71ZM34.71,52.661V44.968h8.548v8.548H35.565A.856.856,0,0,1,34.71,52.661Zm17.952.855H44.968V44.968h8.548v7.694A.856.856,0,0,1,52.661,53.516Z" transform="translate(-3.774 -4.645)"/>
      <path id="Trazado_909415" data-name="Trazado 909415" d="M52.661,23h-17.1A2.568,2.568,0,0,0,33,25.565v1.71a2.568,2.568,0,0,0,2.565,2.565h17.1a2.568,2.568,0,0,0,2.565-2.565v-1.71A2.568,2.568,0,0,0,52.661,23Zm.855,4.274a.856.856,0,0,1-.855.855h-17.1a.856.856,0,0,1-.855-.855v-1.71a.856.856,0,0,1,.855-.855h17.1a.856.856,0,0,1,.855.855Z" transform="translate(-3.774 -3.194)"/>
      <path id="Trazado_909416" data-name="Trazado 909416" d="M49.742,16.387h-9.4V1H7V51.435H26.5A5.128,5.128,0,0,0,30.935,54H49.742a5.134,5.134,0,0,0,5.129-5.129V21.516A5.134,5.134,0,0,0,49.742,16.387ZM25.806,21.516V46.037L12.129,31.307v15H25.806v2.565a5.127,5.127,0,0,0,.077.855H8.71V2.71H38.629V16.387H30.935c-.161,0-.32.009-.477.024L27.87,13.823l2.815-2.815L29.476,9.8l-2.815,2.815L23.846,9.8l-1.209,1.209,2.815,2.815-2.815,2.815,1.209,1.209,2.815-2.815L28.59,16.96a5.13,5.13,0,0,0-2.783,4.556ZM13.839,41.531,16.9,44.6H13.839ZM19.322,44.6l-5.483-5.483V35.66l8.3,8.936Zm33.84,4.274a3.423,3.423,0,0,1-3.419,3.419H30.935a3.423,3.423,0,0,1-3.419-3.419V21.516A3.423,3.423,0,0,1,30.935,18.1H49.742a3.423,3.423,0,0,1,3.419,3.419Z"/>
      <circle id="Elipse_11776" data-name="Elipse 11776" cx="1" cy="1" r="1" transform="translate(20.871 30)"/>
      <circle id="Elipse_11777" data-name="Elipse 11777" cx="1" cy="1" r="1" transform="translate(16.871 30)"/>
      <path id="Trazado_909417" data-name="Trazado 909417" d="M13,31H24.968v1.71H13Z" transform="translate(-0.871 -4.355)"/>
      <path id="Trazado_909418" data-name="Trazado 909418" d="M13,27H24.968v1.71H13Z" transform="translate(-0.871 -3.774)"/>
      <path id="Trazado_909419" data-name="Trazado 909419" d="M18.919,21.615,22.889,8.71H35.935V7H21.627l-2.869,9.32-1.892-5.046H12v1.71h3.682Z" transform="translate(-0.726 -0.871)"/>
    </g>
  </g>
</svg>
