<svg xmlns="http://www.w3.org/2000/svg" xmlns:xlink="http://www.w3.org/1999/xlink" width="118" height="118" viewBox="0 0 118 118">
  <defs>
    <filter id="Trazado_874925" x="0" y="0" width="118" height="118" filterUnits="userSpaceOnUse">
      <feOffset dy="3" input="SourceAlpha"/>
      <feGaussianBlur stdDeviation="3" result="blur"/>
      <feFlood flood-opacity="0.161"/>
      <feComposite operator="in" in2="blur"/>
      <feComposite in="SourceGraphic"/>
    </filter>
  </defs>
  <g id="Grupo_1112527" data-name="Grupo 1112527" transform="translate(-1108.134 -1933.999)">
    <g id="Grupo_1111553" data-name="Grupo 1111553" transform="translate(308.634 -577.158)">
      <g id="Grupo_1111316" data-name="Grupo 1111316" transform="translate(808.5 2517.157)">
        <g id="Grupo_1109835" data-name="Grupo 1109835" transform="translate(0 0)">
          <g id="Grupo_1107913" data-name="Grupo 1107913" transform="translate(0 0)">
            <g transform="matrix(1, 0, 0, 1, -9, -6)" filter="url(#Trazado_874925)">
              <g id="Trazado_874925-2" data-name="Trazado 874925" transform="translate(9 6)" fill="#9cc8ff" opacity="0.859">
                <path d="M 49.99972534179688 98.4998779296875 C 43.45164108276367 98.4998779296875 37.10022354125977 97.21776580810547 31.12189674377441 94.68914794921875 C 25.34676742553711 92.24647521972656 20.15985298156738 88.74925994873047 15.70523929595947 84.29464721679688 C 11.25062561035156 79.84004974365234 7.753411293029785 74.65313720703125 5.310725212097168 68.87800598144531 C 2.782111167907715 62.89969253540039 1.499996781349182 56.54829406738281 1.499996781349182 50.00022125244141 C 1.499996781349182 43.45157623291016 2.782111167907715 37.10017776489258 5.310725212097168 31.12186431884766 C 7.753411293029785 25.34673500061035 11.25062561035156 20.15983581542969 15.70523929595947 15.70522117614746 C 20.15985298156738 11.25062084197998 25.34676742553711 7.753406524658203 31.12189674377441 5.31073522567749 C 37.10022354125977 2.782120943069458 43.45164108276367 1.500006556510925 49.99972534179688 1.500006556510925 C 56.54780960083008 1.500006556510925 62.89922714233398 2.782120943069458 68.87755584716797 5.31073522567749 C 74.65267944335938 7.753406524658203 79.839599609375 11.25062084197998 84.29421234130859 15.70522117614746 C 88.74882507324219 20.15983581542969 92.24604034423828 25.34673500061035 94.68872833251953 31.12186431884766 C 97.21733856201172 37.10017776489258 98.49945068359375 43.45157623291016 98.49945068359375 49.99964904785156 C 98.49945068359375 56.54829406738281 97.21733856201172 62.89969253540039 94.68872833251953 68.87800598144531 C 92.24604034423828 74.65313720703125 88.74882507324219 79.84004974365234 84.29421234130859 84.29464721679688 C 79.839599609375 88.74925994873047 74.65267944335938 92.24647521972656 68.87755584716797 94.68914794921875 C 62.89922714233398 97.21776580810547 56.54780960083008 98.4998779296875 49.99972534179688 98.4998779296875 Z" stroke="none"/>
                <path d="M 49.99972534179688 3 C 43.65348052978516 3 37.49866485595703 4.242240905761719 31.70623016357422 6.692230224609375 C 26.10989379882812 9.059272766113281 21.08323669433594 12.44853210449219 16.76589202880859 16.76587677001953 C 12.44855499267578 21.08321380615234 9.059295654296875 26.10985565185547 6.692230224609375 31.70618438720703 C 4.24224853515625 37.49859619140625 3 43.65341186523438 3 50.00022888183594 C 3 56.34645843505859 4.24224853515625 62.50127410888672 6.692230224609375 68.29368591308594 C 9.059295654296875 73.8900146484375 12.44855499267578 78.91665649414062 16.76589202880859 83.23399353027344 C 21.08323669433594 87.55132293701172 26.10989379882812 90.94059753417969 31.70623016357422 93.30764007568359 C 37.49866485595703 95.75762939453125 43.65348052978516 96.99987030029297 49.99972534179688 96.99987030029297 C 56.34597015380859 96.99987030029297 62.50078582763672 95.75762939453125 68.293212890625 93.30764007568359 C 73.88955688476562 90.94059753417969 78.91621398925781 87.55132293701172 83.23355865478516 83.23399353027344 C 87.55089569091797 78.91665649414062 90.94015502929688 73.8900146484375 93.30722045898438 68.29368591308594 C 95.7572021484375 62.50127410888672 96.99945068359375 56.34645843505859 96.99945068359375 49.99964141845703 C 96.99945068359375 43.65341186523438 95.7572021484375 37.49859619140625 93.30722045898438 31.70618438720703 C 90.94015502929688 26.10985565185547 87.55089569091797 21.08321380615234 83.23355865478516 16.76587677001953 C 78.91621398925781 12.44853210449219 73.88955688476562 9.059272766113281 68.293212890625 6.692230224609375 C 62.50078582763672 4.242240905761719 56.34597015380859 3 49.99972534179688 3 M 49.99972534179688 0 C 77.61381530761719 0 99.99945068359375 22.38559722900391 99.99945068359375 49.99964141845703 L 99.99945068359375 50.00022888183594 C 99.99945068359375 77.6142578125 77.61381530761719 99.99987030029297 49.99972534179688 99.99987030029297 C 22.38563537597656 99.99987030029297 0 77.6142578125 0 50.00022888183594 L 0 49.99964141845703 C 0 22.38559722900391 22.38563537597656 0 49.99972534179688 0 Z" stroke="none" fill="#fff"/>
              </g>
            </g>
            <g id="Trazado_874923" data-name="Trazado 874923" transform="translate(0 0)" fill="none">
              <path d="M50,0a50,50,0,0,1,50,50h0A50,50,0,0,1,0,50H0A50,50,0,0,1,50,0Z" stroke="none"/>
              <path d="M 49.99972534179688 3 C 43.65348052978516 3 37.49866485595703 4.242240905761719 31.70623016357422 6.692230224609375 C 26.10989379882812 9.059272766113281 21.08323669433594 12.44853210449219 16.76589202880859 16.76587677001953 C 12.44855499267578 21.08321380615234 9.059295654296875 26.10985565185547 6.692230224609375 31.70618438720703 C 4.24224853515625 37.49859619140625 3 43.65341186523438 3 50.00022888183594 C 3 56.34645843505859 4.24224853515625 62.50127410888672 6.692230224609375 68.29368591308594 C 9.059295654296875 73.8900146484375 12.44855499267578 78.91665649414062 16.76589202880859 83.23399353027344 C 21.08323669433594 87.55132293701172 26.10989379882812 90.94059753417969 31.70623016357422 93.30764007568359 C 37.49866485595703 95.75762939453125 43.65348052978516 96.99987030029297 49.99972534179688 96.99987030029297 C 56.34597015380859 96.99987030029297 62.50078582763672 95.75762939453125 68.293212890625 93.30764007568359 C 73.88955688476562 90.94059753417969 78.91621398925781 87.55132293701172 83.23355865478516 83.23399353027344 C 87.55089569091797 78.91665649414062 90.94015502929688 73.8900146484375 93.30722045898438 68.29368591308594 C 95.7572021484375 62.50127410888672 96.99945068359375 56.34645843505859 96.99945068359375 49.99964141845703 C 96.99945068359375 43.65341186523438 95.7572021484375 37.49859619140625 93.30722045898438 31.70618438720703 C 90.94015502929688 26.10985565185547 87.55089569091797 21.08321380615234 83.23355865478516 16.76587677001953 C 78.91621398925781 12.44853210449219 73.88955688476562 9.059272766113281 68.293212890625 6.692230224609375 C 62.50078582763672 4.242240905761719 56.34597015380859 3 49.99972534179688 3 M 49.99972534179688 0 C 77.61381530761719 0 99.99945068359375 22.38559722900391 99.99945068359375 49.99964141845703 L 99.99945068359375 50.00022888183594 C 99.99945068359375 77.6142578125 77.61381530761719 99.99987030029297 49.99972534179688 99.99987030029297 C 22.38563537597656 99.99987030029297 0 77.6142578125 0 50.00022888183594 L 0 49.99964141845703 C 0 22.38559722900391 22.38563537597656 0 49.99972534179688 0 Z" stroke="none" fill="#fff"/>
            </g>
          </g>
        </g>
      </g>
    </g>
    <g id="Grupo_1115344" data-name="Grupo 1115344" transform="translate(1130.431 1902.938)">
      <path id="Trazado_908051" data-name="Trazado 908051" d="M301.733,83.761a40.272,40.272,0,0,1,18.2-9.714,6.543,6.543,0,0,1,1.261-4.217h0s-14.854.368-20.758,14.586A9.67,9.67,0,0,0,301.733,83.761Z" transform="translate(-256.772 -9.821)" fill="#868b9b"/>
      <path id="Trazado_908052" data-name="Trazado 908052" d="M320.987,70.1c.067-.1.136-.19.2-.273h0s-14.854.368-20.758,14.586a9.683,9.683,0,0,0,1.3-.653q.991-.947,2.062-1.815C308.57,73.273,316.909,70.8,320.987,70.1Z" transform="translate(-256.773 -9.822)" fill="#707487"/>
      <path id="Trazado_908053" data-name="Trazado 908053" d="M54.348,293.827a.991.991,0,0,1-.58-1.01L54.5,286.1a4.578,4.578,0,0,1,1.062-2.468l.232-.273c.246-.7.593-1.586,1.082-2.7.965-2.2-1.48-4.429-3.4-7.46.786,2.433,1.473,4.448.243,5.834a27.134,27.134,0,0,0-2.865,3.676,1.745,1.745,0,0,0-.24.7l-1.348,11.636a1.259,1.259,0,0,0,.869,1.379l5.786,1.842a.744.744,0,0,0,.972-.731A4.055,4.055,0,0,0,54.348,293.827Z" transform="translate(-42.093 -183.637)" fill="#ad7b64"/>
      <path id="Trazado_908054" data-name="Trazado 908054" d="M78.32,273.2c.786,2.433,1.473,4.448.243,5.834l-.205.233c.434.667.873,1.282,1.276,1.845.368.514.847,1.184,1.184,1.741.227-.607.519-1.332.9-2.193C82.68,278.457,80.235,276.227,78.32,273.2Z" transform="translate(-66.937 -183.636)" fill="#966653"/>
      <path id="Trazado_908055" data-name="Trazado 908055" d="M16.167,185.41a8.947,8.947,0,0,1,1.507-3.106c-1.869-.777-5.912-1.784-8.856,1.6-4.359,5.012,2.672,16.86-.778,25.12a.9.9,0,0,0,1.39,1.063C22.962,199.2,7.135,185.945,16.167,185.41Z" transform="translate(-6.273 -105.295)" fill="#868b9b"/>
      <path id="Trazado_908056" data-name="Trazado 908056" d="M11.726,183.906a6.6,6.6,0,0,1,3.78-2.234,6.875,6.875,0,0,0-6.686,2.234c-4.359,5.012,2.672,16.86-.778,25.12a.9.9,0,0,0,1.39,1.063,19.9,19.9,0,0,0,1.7-1.527C14.14,200.329,7.447,188.825,11.726,183.906Z" transform="translate(-6.274 -105.298)" fill="#707487"/>
      <path id="Trazado_908057" data-name="Trazado 908057" d="M347.947,264.847l.394-1.118a15.4,15.4,0,0,0,3.236-6.373,14.151,14.151,0,0,1,.52,1.606s.621,1.8,5.491,4.467c4,2.189,4.9,7.258,5.087,8.994a.915.915,0,0,0,.584.743,2.739,2.739,0,0,1,1.528,2.421.7.7,0,0,1-.7.763h-4.405a.973.973,0,0,1-.976-.97v-2.56c-.2-6.061-2.68-5.595-7.639-6.727A10.559,10.559,0,0,1,347.947,264.847Z" transform="translate(-297.383 -170.098)" fill="#ad7b64"/>
      <path id="Trazado_908058" data-name="Trazado 908058" d="M352.1,258.962a14.155,14.155,0,0,0-.52-1.606,15.407,15.407,0,0,1-3.236,6.373l-.394,1.118a10.509,10.509,0,0,0,2.776,1.161l.29-.828a17.814,17.814,0,0,0,2.587-4.431A5.2,5.2,0,0,1,352.1,258.962Z" transform="translate(-297.385 -170.098)" fill="#966653"/>
      <path id="Trazado_908059" data-name="Trazado 908059" d="M127.981,83.076,125.355,78.5l-.5-3.012L122.8,72.211a1.785,1.785,0,0,1-.271-.994,7.477,7.477,0,0,0-1.961-5.356.667.667,0,0,0-.949,0,6.1,6.1,0,0,0-1.77,4.5c-2.532.379-11.185,3.295-18,9.8,0,0-3.615,2.335-10.468,2.335s-11.146-2.561-15.966-2.561-9.188,3.088-9.188,9.715,6.878,10.167,5.372,13.631a27.108,27.108,0,0,0-1.578,4.369,1.756,1.756,0,0,0-.011.744l2.29,11.486a1.259,1.259,0,0,0,1.242,1.049h6.021a.738.738,0,0,0,.693-.991,4.059,4.059,0,0,0-3.537-2.761.993.993,0,0,1-.857-.786l-1.369-6.616a4.6,4.6,0,0,1,.246-2.672l2.026-4.958c.616-1.507,2.372-2.892,3.4-6.22h0c9.568,6.047,20.808,2.41,20.821,2.405.589,2.9,1.563,6.129,1.563,6.129v15.414a1.054,1.054,0,0,0,1.054,1.054h6.71a.552.552,0,0,0,.535-.69c-.438-1.685-2.464-2.272-3.637-2.473a1.024,1.024,0,0,1-.846-1.012V104.408l1.582-4.519a16.752,16.752,0,0,0,3.69-11.749,18.493,18.493,0,0,1,6.926-8.2.806.806,0,0,1,1.156.3c.5.965.778,1.719,1.829,2.172a17.333,17.333,0,0,1,4.956,3.233,1.585,1.585,0,0,0,2.007.149l1.026-.726A1.52,1.52,0,0,0,127.981,83.076Z" transform="translate(-54.892 -6.259)" fill="#bc8c79"/>
      <g id="Grupo_1115344-2" data-name="Grupo 1115344" transform="translate(9.336 59.401)">
        <path id="Trazado_908060" data-name="Trazado 908060" d="M248.44,82.486c6.853,0,10.468-2.335,10.468-2.335a41.169,41.169,0,0,1,17.381-9.686.808.808,0,0,0,.628-.739,6,6,0,0,1,.839-2.682,6.468,6.468,0,0,0-.917-1.192.664.664,0,0,0-.948,0,6.1,6.1,0,0,0-1.77,4.5c-2.532.379-11.185,3.295-18,9.8,0,0-3.119,2.012-9.052,2.3C247.517,82.473,247.972,82.486,248.44,82.486Z" transform="translate(-220.502 -65.653)" fill="#ad7b64"/>
        <path id="Trazado_908061" data-name="Trazado 908061" d="M73.085,203.817,70.8,192.331a1.754,1.754,0,0,1,.011-.744,27.093,27.093,0,0,1,1.578-4.369c1.506-3.464-5.372-7-5.372-13.631,0-6.024,3.609-9.123,7.886-9.637-.491-.049-.984-.078-1.482-.078-4.82,0-9.188,3.088-9.188,9.715s6.878,10.167,5.372,13.631a27.108,27.108,0,0,0-1.578,4.369,1.756,1.756,0,0,0-.011.744l2.29,11.486a1.259,1.259,0,0,0,1.242,1.049h2.784A1.259,1.259,0,0,1,73.085,203.817Z" transform="translate(-64.228 -149.6)" fill="#ad7b64"/>
      </g>
      <path id="Trazado_908062" data-name="Trazado 908062" d="M50.585,194.405v-3.241a1.09,1.09,0,0,0-2.18,0v3.293a2.108,2.108,0,0,0,1.753,2.086,4.757,4.757,0,0,1,2.362,1H46.769c0-16.436.022-15.467-.047-15.693-.544-1.8-1.955-6.949-1.955-9.124a1.09,1.09,0,0,0-2.18,0,15.726,15.726,0,0,0,.272,2.519c-2.721.652-10.98,2.1-18.3-2.123a8.458,8.458,0,0,0-.175-4.776,1.09,1.09,0,1,0-2.055.727c1.247,3.524-1.65,7.654-2.568,8.836-.691.89-.651.963-2.908,6.486a5.669,5.669,0,0,0-.3,3.3l1.369,6.616a2.078,2.078,0,0,0,1.8,1.648,2.948,2.948,0,0,1,2.429,1.579H16.67a.169.169,0,0,1-.167-.141l-.006-.031c-1.683-8.444-2.261-11.194-2.3-11.7a15.011,15.011,0,0,1,.488-1.621l0,0c1.354-3.863,2.621-4-.993-9.049-1.141-1.6-1.4-2.051-1.4-2.051a10.436,10.436,0,0,1-1.842-5.593c0-5.547,3.385-8.625,8.1-8.625,4.04,0,7.871,1.962,13.475,2.451a1.09,1.09,0,0,0,.19-2.172c-5.414-.473-9.239-2.459-13.665-2.459a10.312,10.312,0,0,0-7.15,2.67c-.159.15-.309.306-.456.466-2.152-.721-6.127-1.354-9.2,2.174-4.861,5.588,2.365,17.452-.961,25.416a1.993,1.993,0,0,0,3.079,2.332,19.2,19.2,0,0,0,3.278-3.314l-1.026,8.946A2.343,2.343,0,0,0,7.72,197.79l5.732,1.842a1.829,1.829,0,0,0,1.663-.283c.045-.035.087-.073.129-.111a2.342,2.342,0,0,0,1.426.482h6.021a1.829,1.829,0,0,0,1.718-2.452,5.131,5.131,0,0,0-4.365-3.463c-1.463-7.069-1.691-7.305-1.167-8.587,2.22-5.432,2.14-5.366,2.612-5.974a18.519,18.519,0,0,0,2.384-4.016c5.887,3.232,13.139,3.665,19.421,2.157.5,2.222,1.119,4.342,1.3,4.937v15.254a2.147,2.147,0,0,0,2.144,2.144h6.71a1.642,1.642,0,0,0,1.59-2.054C54.6,195.993,53.019,194.836,50.585,194.405Zm-37.6-3.473.074.369.467,2.326a6.154,6.154,0,0,0-.783-.436Zm-4.57-21.8c-.566-2.134-.68-3.227-.037-3.622A12.534,12.534,0,0,0,8.415,169.131ZM3.048,187.444c2.948-8.43-3.384-19.877.338-24.157A5.8,5.8,0,0,1,9.6,161.556a10.647,10.647,0,0,0-.665,1.515c-4.488.7-3.119,4.878-2.331,7.718C7.968,175.685,9.651,181.747,3.048,187.444ZM9,171.276a17.252,17.252,0,0,0,1.37,2.73c1.357,4.237.881,4.038-.472,5.666A21.56,21.56,0,0,0,9,171.276Zm-.616,24.44a.169.169,0,0,1-.116-.186c0-.01,0-.021,0-.031L9.61,183.863c.069-.6,2.376-3.289,2.813-3.786a3.627,3.627,0,0,0,.862-1.765c1.073,1.882.451,1.913-.593,4.827a5.665,5.665,0,0,0-1.4,3.171l-.721,6.717a2.078,2.078,0,0,0,1.209,2.12,2.949,2.949,0,0,1,1.829,2.247Z" transform="translate(0 -83.938)"/>
      <path id="Trazado_908063" data-name="Trazado 908063" d="M286.415,76.3l-2.528-4.4-.47-2.819a1.09,1.09,0,0,0-.151-.4L281.211,65.4a.7.7,0,0,1-.106-.388,8.613,8.613,0,0,0-2.27-6.145,1.757,1.757,0,0,0-2.5-.007l-.109.113a26.8,26.8,0,0,0-8.048,2.012,24.039,24.039,0,0,0-12.96,12.755,21.177,21.177,0,0,1-5.757,1.309,1.09,1.09,0,0,0,.1,2.175c.034,0,.069,0,.1,0a23.18,23.18,0,0,0,6.806-1.64,11.362,11.362,0,0,0,1.355-.673l.055-.033.033-.021.016-.01a1.091,1.091,0,0,0,.162-.128,39.962,39.962,0,0,1,16.3-9.254,9.606,9.606,0,0,0,.4,1.437,1.09,1.09,0,0,0,2.051-.739,5.293,5.293,0,0,1,.738-5.427h0a6.561,6.561,0,0,1,1.348,4.227,2.868,2.868,0,0,0,.438,1.6L281.3,69.65l.466,2.8a1.083,1.083,0,0,0,.13.363l2.625,4.575a.429.429,0,0,1-.125.566l-1.026.726a.5.5,0,0,1-.627-.05,18.537,18.537,0,0,0-5.275-3.444c-.665-.286-.814-.754-1.294-1.675a1.9,1.9,0,0,0-2.722-.708c-5.027,3.31-7.518,8.284-7.409,9.231a15.609,15.609,0,0,1-3.436,10.916,1.093,1.093,0,0,0-.2.348c-1.719,4.912-1.643,4.623-1.643,4.879v3.964a1.09,1.09,0,0,0,2.18,0V98.36l.712-2.034a17.107,17.107,0,0,0,4.163,1.16c4.642.923,4.827,1.307,4.827,7.821a2.062,2.062,0,0,0,2.06,2.06h4.379a1.789,1.789,0,0,0,1.782-1.962,3.745,3.745,0,0,0-2.114-3.289c-.26-2.224-1.319-7.358-5.6-9.715-3.879-2.135-4.816-3.629-4.95-3.875-.053-.2-.183-.67-.409-1.3a18.208,18.208,0,0,0,.442-5.151,17.44,17.44,0,0,1,6.153-7.276,4.347,4.347,0,0,0,2.218,2.388,16.293,16.293,0,0,1,4.636,3.023,2.682,2.682,0,0,0,3.387.248l1.026-.726A2.6,2.6,0,0,0,286.415,76.3Zm-11.7-14.945a7.173,7.173,0,0,0-.44,1.875,43.228,43.228,0,0,0-14.943,7.525A22.9,22.9,0,0,1,274.716,61.355ZM272.1,94.312c3.559,1.959,4.343,6.74,4.5,8.158a2,2,0,0,0,1.258,1.635,1.432,1.432,0,0,1,.77,1.083h-3.8c0-.025,0-2.451,0-2.476-.2-6.094-2.877-6.627-6.581-7.363a14.631,14.631,0,0,1-3.865-1.089l.019-.054a16.051,16.051,0,0,0,2.388-3.9A17.629,17.629,0,0,0,272.1,94.312Z" transform="translate(-212.363)"/>
      <circle id="Elipse_11719" data-name="Elipse 11719" cx="0.993" cy="0.993" r="0.993" transform="translate(65.983 70.156)"/>
    </g>
  </g>
</svg>
