<svg xmlns="http://www.w3.org/2000/svg" xmlns:xlink="http://www.w3.org/1999/xlink" width="118" height="118" viewBox="0 0 118 118">
  <defs>
    <filter id="Trazado_874925" x="0" y="0" width="118" height="118" filterUnits="userSpaceOnUse">
      <feOffset dy="3" input="SourceAlpha"/>
      <feGaussianBlur stdDeviation="3" result="blur"/>
      <feFlood flood-opacity="0.161"/>
      <feComposite operator="in" in2="blur"/>
      <feComposite in="SourceGraphic"/>
    </filter>
  </defs>
  <g id="Grupo_1112470" data-name="Grupo 1112470" transform="translate(-793.781 -1933.999)">
    <g id="Grupo_1111552" data-name="Grupo 1111552" transform="translate(-5.719 -577.158)">
      <g id="Grupo_1111316" data-name="Grupo 1111316" transform="translate(808.5 2517.157)">
        <g id="Grupo_1109835" data-name="Grupo 1109835" transform="translate(0 0)">
          <g id="Grupo_1107913" data-name="Grupo 1107913" transform="translate(0 0)">
            <g transform="matrix(1, 0, 0, 1, -9, -6)" filter="url(#Trazado_874925)">
              <g id="Trazado_874925-2" data-name="Trazado 874925" transform="translate(9 6)" fill="#9cc8ff" opacity="0.859">
                <path d="M 49.99972534179688 98.4998779296875 C 43.45164108276367 98.4998779296875 37.10022354125977 97.21776580810547 31.12189674377441 94.68914794921875 C 25.34676742553711 92.24647521972656 20.15985298156738 88.74925994873047 15.70523929595947 84.29464721679688 C 11.25062561035156 79.84004974365234 7.753411293029785 74.65313720703125 5.310725212097168 68.87800598144531 C 2.782111167907715 62.89969253540039 1.499996781349182 56.54829406738281 1.499996781349182 50.00022125244141 C 1.499996781349182 43.45157623291016 2.782111167907715 37.10017776489258 5.310725212097168 31.12186431884766 C 7.753411293029785 25.34673500061035 11.25062561035156 20.15983581542969 15.70523929595947 15.70522117614746 C 20.15985298156738 11.25062084197998 25.34676742553711 7.753406524658203 31.12189674377441 5.31073522567749 C 37.10022354125977 2.782120943069458 43.45164108276367 1.500006556510925 49.99972534179688 1.500006556510925 C 56.54780960083008 1.500006556510925 62.89922714233398 2.782120943069458 68.87755584716797 5.31073522567749 C 74.65267944335938 7.753406524658203 79.839599609375 11.25062084197998 84.29421234130859 15.70522117614746 C 88.74882507324219 20.15983581542969 92.24604034423828 25.34673500061035 94.68872833251953 31.12186431884766 C 97.21733856201172 37.10017776489258 98.49945068359375 43.45157623291016 98.49945068359375 49.99964904785156 C 98.49945068359375 56.54829406738281 97.21733856201172 62.89969253540039 94.68872833251953 68.87800598144531 C 92.24604034423828 74.65313720703125 88.74882507324219 79.84004974365234 84.29421234130859 84.29464721679688 C 79.839599609375 88.74925994873047 74.65267944335938 92.24647521972656 68.87755584716797 94.68914794921875 C 62.89922714233398 97.21776580810547 56.54780960083008 98.4998779296875 49.99972534179688 98.4998779296875 Z" stroke="none"/>
                <path d="M 49.99972534179688 3 C 43.65348052978516 3 37.49866485595703 4.242240905761719 31.70623016357422 6.692230224609375 C 26.10989379882812 9.059272766113281 21.08323669433594 12.44853210449219 16.76589202880859 16.76587677001953 C 12.44855499267578 21.08321380615234 9.059295654296875 26.10985565185547 6.692230224609375 31.70618438720703 C 4.24224853515625 37.49859619140625 3 43.65341186523438 3 50.00022888183594 C 3 56.34645843505859 4.24224853515625 62.50127410888672 6.692230224609375 68.29368591308594 C 9.059295654296875 73.8900146484375 12.44855499267578 78.91665649414062 16.76589202880859 83.23399353027344 C 21.08323669433594 87.55132293701172 26.10989379882812 90.94059753417969 31.70623016357422 93.30764007568359 C 37.49866485595703 95.75762939453125 43.65348052978516 96.99987030029297 49.99972534179688 96.99987030029297 C 56.34597015380859 96.99987030029297 62.50078582763672 95.75762939453125 68.293212890625 93.30764007568359 C 73.88955688476562 90.94059753417969 78.91621398925781 87.55132293701172 83.23355865478516 83.23399353027344 C 87.55089569091797 78.91665649414062 90.94015502929688 73.8900146484375 93.30722045898438 68.29368591308594 C 95.7572021484375 62.50127410888672 96.99945068359375 56.34645843505859 96.99945068359375 49.99964141845703 C 96.99945068359375 43.65341186523438 95.7572021484375 37.49859619140625 93.30722045898438 31.70618438720703 C 90.94015502929688 26.10985565185547 87.55089569091797 21.08321380615234 83.23355865478516 16.76587677001953 C 78.91621398925781 12.44853210449219 73.88955688476562 9.059272766113281 68.293212890625 6.692230224609375 C 62.50078582763672 4.242240905761719 56.34597015380859 3 49.99972534179688 3 M 49.99972534179688 0 C 77.61381530761719 0 99.99945068359375 22.38559722900391 99.99945068359375 49.99964141845703 L 99.99945068359375 50.00022888183594 C 99.99945068359375 77.6142578125 77.61381530761719 99.99987030029297 49.99972534179688 99.99987030029297 C 22.38563537597656 99.99987030029297 0 77.6142578125 0 50.00022888183594 L 0 49.99964141845703 C 0 22.38559722900391 22.38563537597656 0 49.99972534179688 0 Z" stroke="none" fill="#fff"/>
              </g>
            </g>
            <g id="Trazado_874923" data-name="Trazado 874923" transform="translate(0 0)" fill="none">
              <path d="M50,0a50,50,0,0,1,50,50h0A50,50,0,0,1,0,50H0A50,50,0,0,1,50,0Z" stroke="none"/>
              <path d="M 49.99972534179688 3 C 43.65348052978516 3 37.49866485595703 4.242240905761719 31.70623016357422 6.692230224609375 C 26.10989379882812 9.059272766113281 21.08323669433594 12.44853210449219 16.76589202880859 16.76587677001953 C 12.44855499267578 21.08321380615234 9.059295654296875 26.10985565185547 6.692230224609375 31.70618438720703 C 4.24224853515625 37.49859619140625 3 43.65341186523438 3 50.00022888183594 C 3 56.34645843505859 4.24224853515625 62.50127410888672 6.692230224609375 68.29368591308594 C 9.059295654296875 73.8900146484375 12.44855499267578 78.91665649414062 16.76589202880859 83.23399353027344 C 21.08323669433594 87.55132293701172 26.10989379882812 90.94059753417969 31.70623016357422 93.30764007568359 C 37.49866485595703 95.75762939453125 43.65348052978516 96.99987030029297 49.99972534179688 96.99987030029297 C 56.34597015380859 96.99987030029297 62.50078582763672 95.75762939453125 68.293212890625 93.30764007568359 C 73.88955688476562 90.94059753417969 78.91621398925781 87.55132293701172 83.23355865478516 83.23399353027344 C 87.55089569091797 78.91665649414062 90.94015502929688 73.8900146484375 93.30722045898438 68.29368591308594 C 95.7572021484375 62.50127410888672 96.99945068359375 56.34645843505859 96.99945068359375 49.99964141845703 C 96.99945068359375 43.65341186523438 95.7572021484375 37.49859619140625 93.30722045898438 31.70618438720703 C 90.94015502929688 26.10985565185547 87.55089569091797 21.08321380615234 83.23355865478516 16.76587677001953 C 78.91621398925781 12.44853210449219 73.88955688476562 9.059272766113281 68.293212890625 6.692230224609375 C 62.50078582763672 4.242240905761719 56.34597015380859 3 49.99972534179688 3 M 49.99972534179688 0 C 77.61381530761719 0 99.99945068359375 22.38559722900391 99.99945068359375 49.99964141845703 L 99.99945068359375 50.00022888183594 C 99.99945068359375 77.6142578125 77.61381530761719 99.99987030029297 49.99972534179688 99.99987030029297 C 22.38563537597656 99.99987030029297 0 77.6142578125 0 50.00022888183594 L 0 49.99964141845703 C 0 22.38559722900391 22.38563537597656 0 49.99972534179688 0 Z" stroke="none" fill="#fff"/>
            </g>
          </g>
        </g>
      </g>
    </g>
    <g id="Grupo_1113317" data-name="Grupo 1113317" transform="translate(825.673 1956.945)">
      <path id="Trazado_902477" data-name="Trazado 902477" d="M77.849,66.644H37.331V12.265A4.265,4.265,0,0,0,33.066,8H73.584a4.265,4.265,0,0,1,4.265,4.265Z" transform="translate(-27.735 -6.934)" fill="#ececec"/>
      <g id="Grupo_1113317-2" data-name="Grupo 1113317" transform="translate(1.066 1.066)">
        <path id="Trazado_902478" data-name="Trazado 902478" d="M72,392.53h44.783a4.265,4.265,0,0,0,4.265-4.265V384H80.53v4.265a4.265,4.265,0,0,1-4.265,4.265Z" transform="translate(-63.47 -333.886)" fill="#fea82f"/>
        <path id="Trazado_902479" data-name="Trazado 902479" d="M16.53,20.8H8v-8.53A4.265,4.265,0,0,1,12.265,8h0a4.265,4.265,0,0,1,4.265,4.265Z" transform="translate(-8 -8)" fill="#fea82f"/>
      </g>
      <path id="Trazado_902480" data-name="Trazado 902480" d="M327.464,155.672a10.665,10.665,0,0,0,0,20.346Z" transform="translate(-277.35 -134.924)" fill="#b6c1ce"/>
      <ellipse id="Elipse_11646" data-name="Elipse 11646" cx="11" cy="10.5" rx="11" ry="10.5" transform="translate(43.108 17.108)" fill="#fea82f"/>
      <path id="Trazado_902481" data-name="Trazado 902481" d="M338.663,209.6a10.664,10.664,0,0,1-10.609-9.6c-.034.351-.053.706-.053,1.066a10.663,10.663,0,0,0,21.325,0c0-.36-.019-.715-.053-1.066A10.664,10.664,0,0,1,338.663,209.6Z" transform="translate(-284.283 -173.344)" fill="#ff8031"/>
      <g id="Grupo_1113318" data-name="Grupo 1113318" transform="translate(0.83 5.327)">
        <rect id="Rectángulo_404829" data-name="Rectángulo 404829" width="12" height="9" transform="translate(0.278 50.781)" fill="#92e0c0"/>
        <rect id="Rectángulo_404830" data-name="Rectángulo 404830" width="30" height="12" transform="translate(14.278 -0.219)" fill="#92e0c0"/>
      </g>
      <rect id="Rectángulo_404831" data-name="Rectángulo 404831" width="9" height="3" transform="translate(1.108 10.108)" fill="#ff8031"/>
      <rect id="Rectángulo_404832" data-name="Rectángulo 404832" width="12" height="4" transform="translate(1.108 61.108)" fill="#48c397"/>
      <path id="Trazado_902482" data-name="Trazado 902482" d="M33.066,188.253l-1.033-8.267a4.167,4.167,0,0,1-.033-.529v-9.065a4.167,4.167,0,0,1,.033-.529l.888-7.1a2.829,2.829,0,0,1,.866-1.852l6.1-7.842A1.855,1.855,0,0,1,41.58,152h0a2.148,2.148,0,0,1,2.149,2.148v.363a2.149,2.149,0,0,1-.4,1.249l-4.137,5.792a4.254,4.254,0,0,0-.794,2.478v6.157a4.277,4.277,0,0,0,.45,1.908l1.683,3.364h0l4.669-4.669a2.26,2.26,0,0,1,1.6-.662h0a2.262,2.262,0,0,1,2.262,2.262h0a2.26,2.26,0,0,1-.662,1.6l-7.868,7.868v6.4Z" transform="translate(-27.735 -131.741)" fill="#f9e0a6"/>
      <path id="Trazado_902483" data-name="Trazado 902483" d="M104,45.861h31.988V32H104Zm2.133-11.729h27.723v9.6H106.133Z" transform="translate(-90.139 -27.735)"/>
      <rect id="Rectángulo_404833" data-name="Rectángulo 404833" width="21" height="2" transform="translate(19.108 33.108)"/>
      <rect id="Rectángulo_404834" data-name="Rectángulo 404834" width="7" height="1" transform="translate(21.108 25.108)"/>
      <rect id="Rectángulo_404835" data-name="Rectángulo 404835" width="6" height="1" transform="translate(32.108 25.108)"/>
      <rect id="Rectángulo_404836" data-name="Rectángulo 404836" width="7" height="3" transform="translate(21.108 28.108)"/>
      <rect id="Rectángulo_404837" data-name="Rectángulo 404837" width="6" height="3" transform="translate(32.108 28.108)"/>
      <rect id="Rectángulo_404838" data-name="Rectángulo 404838" width="18" height="2" transform="translate(28.108 41.108)"/>
      <rect id="Rectángulo_404839" data-name="Rectángulo 404839" width="6" height="2" transform="translate(40.108 46.108)"/>
      <rect id="Rectángulo_404840" data-name="Rectángulo 404840" width="7" height="2" transform="translate(28.108 46.108)"/>
      <path id="Trazado_902484" data-name="Trazado 902484" d="M387.2,156.265a1.067,1.067,0,0,1,1.066,1.066H390.4a3.194,3.194,0,0,0-2.133-3V152h-2.133v2.329a3.191,3.191,0,0,0,1.066,6.2,1.066,1.066,0,1,1-1.066,1.066H384a3.194,3.194,0,0,0,2.133,3v2.329h2.133V164.6a3.191,3.191,0,0,0-1.066-6.2,1.066,1.066,0,1,1,0-2.133Z" transform="translate(-332.82 -131.741)"/>
      <rect id="Rectángulo_404841" data-name="Rectángulo 404841" width="1" height="2" transform="translate(60.108 26.108)"/>
      <rect id="Rectángulo_404842" data-name="Rectángulo 404842" width="3" height="2" transform="translate(46.108 26.108)"/>
      <path id="Trazado_902485" data-name="Trazado 902485" d="M64.19,34.153A11.713,11.713,0,0,0,51.18,16.448V5.331A5.337,5.337,0,0,0,45.849,0H5.331A5.337,5.337,0,0,0,0,5.331v9.6H8.53v7.945L4.212,28.423a3.94,3.94,0,0,0-1.15,2.463l-.887,7.1a5.489,5.489,0,0,0-.042.661v9.065a5.475,5.475,0,0,0,.042.661l.883,7.068H0V66.108H14.928V60.777H54.379a5.337,5.337,0,0,0,5.331-5.331V50.114H51.18V39A11.667,11.667,0,0,0,62.685,36L61.175,34.5a9.578,9.578,0,1,1,1.232-1.515ZM2.133,12.8V5.331a3.2,3.2,0,0,1,6.4,0V12.8ZM4.29,48.114a3.319,3.319,0,0,1-.025-.4V38.651a3.287,3.287,0,0,1,.025-.4l.887-7.1a1.875,1.875,0,0,1,.466-1.146l6.283-8.026.1-.152a.792.792,0,0,1,.754-.5,1.083,1.083,0,0,1,1.082,1.082v.363a1.08,1.08,0,0,1-.2.629L9.524,29.191a5.291,5.291,0,0,0-.994,3.1v6.157a5.382,5.382,0,0,0,.562,2.384L10,42.65H9.6v2.133H12.17L17.152,39.8a1.2,1.2,0,0,1,2.041.846,1.186,1.186,0,0,1-.35.846l-8.18,8.18v5.773H5.207ZM12.8,63.975H2.133v-6.4H12.8Zm44.783-8.53a3.2,3.2,0,0,1-3.2,3.2H18.124a5.3,5.3,0,0,0,1.068-3.2v-3.2H57.578ZM42.65,27.723a11.734,11.734,0,0,0,6.4,10.434V50.114H17.06v5.331a3.194,3.194,0,0,1-2.133,3v-3H12.8v-4.89L20.351,43A3.328,3.328,0,0,0,18,37.319a3.35,3.35,0,0,0-2.353.975l-3.623,3.623L11,39.876a3.222,3.222,0,0,1-.337-1.431V32.288a3.182,3.182,0,0,1,.6-1.86L15.4,24.637a3.192,3.192,0,0,0,.6-1.868v-.363a3.219,3.219,0,0,0-3.215-3.214,2.859,2.859,0,0,0-2.117.911V5.331a5.276,5.276,0,0,0-1.094-3.2h36.28a3.2,3.2,0,0,1,3.2,3.2V17.288A11.734,11.734,0,0,0,42.65,27.723Z" transform="translate(0 0)"/>
    </g>
  </g>
</svg>
