<svg xmlns="http://www.w3.org/2000/svg" xmlns:xlink="http://www.w3.org/1999/xlink" width="118" height="118" viewBox="0 0 118 118">
  <defs>
    <filter id="Trazado_874925" x="0" y="0" width="118" height="118" filterUnits="userSpaceOnUse">
      <feOffset dy="3" input="SourceAlpha"/>
      <feGaussianBlur stdDeviation="3" result="blur"/>
      <feFlood flood-opacity="0.161"/>
      <feComposite operator="in" in2="blur"/>
      <feComposite in="SourceGraphic"/>
    </filter>
  </defs>
  <g id="Grupo_1112530" data-name="Grupo 1112530" transform="translate(-793.781 -1933.999)">
    <g id="Grupo_1111552" data-name="Grupo 1111552" transform="translate(-5.719 -577.158)">
      <g id="Grupo_1111316" data-name="Grupo 1111316" transform="translate(808.5 2517.157)">
        <g id="Grupo_1109835" data-name="Grupo 1109835" transform="translate(0 0)">
          <g id="Grupo_1107913" data-name="Grupo 1107913" transform="translate(0 0)">
            <g transform="matrix(1, 0, 0, 1, -9, -6)" filter="url(#Trazado_874925)">
              <g id="Trazado_874925-2" data-name="Trazado 874925" transform="translate(9 6)" fill="#9cc8ff" opacity="0.859">
                <path d="M 49.99972534179688 98.4998779296875 C 43.45164108276367 98.4998779296875 37.10022354125977 97.21776580810547 31.12189674377441 94.68914794921875 C 25.34676742553711 92.24647521972656 20.15985298156738 88.74925994873047 15.70523929595947 84.29464721679688 C 11.25062561035156 79.84004974365234 7.753411293029785 74.65313720703125 5.310725212097168 68.87800598144531 C 2.782111167907715 62.89969253540039 1.499996781349182 56.54829406738281 1.499996781349182 50.00022125244141 C 1.499996781349182 43.45157623291016 2.782111167907715 37.10017776489258 5.310725212097168 31.12186431884766 C 7.753411293029785 25.34673500061035 11.25062561035156 20.15983581542969 15.70523929595947 15.70522117614746 C 20.15985298156738 11.25062084197998 25.34676742553711 7.753406524658203 31.12189674377441 5.31073522567749 C 37.10022354125977 2.782120943069458 43.45164108276367 1.500006556510925 49.99972534179688 1.500006556510925 C 56.54780960083008 1.500006556510925 62.89922714233398 2.782120943069458 68.87755584716797 5.31073522567749 C 74.65267944335938 7.753406524658203 79.839599609375 11.25062084197998 84.29421234130859 15.70522117614746 C 88.74882507324219 20.15983581542969 92.24604034423828 25.34673500061035 94.68872833251953 31.12186431884766 C 97.21733856201172 37.10017776489258 98.49945068359375 43.45157623291016 98.49945068359375 49.99964904785156 C 98.49945068359375 56.54829406738281 97.21733856201172 62.89969253540039 94.68872833251953 68.87800598144531 C 92.24604034423828 74.65313720703125 88.74882507324219 79.84004974365234 84.29421234130859 84.29464721679688 C 79.839599609375 88.74925994873047 74.65267944335938 92.24647521972656 68.87755584716797 94.68914794921875 C 62.89922714233398 97.21776580810547 56.54780960083008 98.4998779296875 49.99972534179688 98.4998779296875 Z" stroke="none"/>
                <path d="M 49.99972534179688 3 C 43.65348052978516 3 37.49866485595703 4.242240905761719 31.70623016357422 6.692230224609375 C 26.10989379882812 9.059272766113281 21.08323669433594 12.44853210449219 16.76589202880859 16.76587677001953 C 12.44855499267578 21.08321380615234 9.059295654296875 26.10985565185547 6.692230224609375 31.70618438720703 C 4.24224853515625 37.49859619140625 3 43.65341186523438 3 50.00022888183594 C 3 56.34645843505859 4.24224853515625 62.50127410888672 6.692230224609375 68.29368591308594 C 9.059295654296875 73.8900146484375 12.44855499267578 78.91665649414062 16.76589202880859 83.23399353027344 C 21.08323669433594 87.55132293701172 26.10989379882812 90.94059753417969 31.70623016357422 93.30764007568359 C 37.49866485595703 95.75762939453125 43.65348052978516 96.99987030029297 49.99972534179688 96.99987030029297 C 56.34597015380859 96.99987030029297 62.50078582763672 95.75762939453125 68.293212890625 93.30764007568359 C 73.88955688476562 90.94059753417969 78.91621398925781 87.55132293701172 83.23355865478516 83.23399353027344 C 87.55089569091797 78.91665649414062 90.94015502929688 73.8900146484375 93.30722045898438 68.29368591308594 C 95.7572021484375 62.50127410888672 96.99945068359375 56.34645843505859 96.99945068359375 49.99964141845703 C 96.99945068359375 43.65341186523438 95.7572021484375 37.49859619140625 93.30722045898438 31.70618438720703 C 90.94015502929688 26.10985565185547 87.55089569091797 21.08321380615234 83.23355865478516 16.76587677001953 C 78.91621398925781 12.44853210449219 73.88955688476562 9.059272766113281 68.293212890625 6.692230224609375 C 62.50078582763672 4.242240905761719 56.34597015380859 3 49.99972534179688 3 M 49.99972534179688 0 C 77.61381530761719 0 99.99945068359375 22.38559722900391 99.99945068359375 49.99964141845703 L 99.99945068359375 50.00022888183594 C 99.99945068359375 77.6142578125 77.61381530761719 99.99987030029297 49.99972534179688 99.99987030029297 C 22.38563537597656 99.99987030029297 0 77.6142578125 0 50.00022888183594 L 0 49.99964141845703 C 0 22.38559722900391 22.38563537597656 0 49.99972534179688 0 Z" stroke="none" fill="#fff"/>
              </g>
            </g>
            <g id="Trazado_874923" data-name="Trazado 874923" transform="translate(0 0)" fill="none">
              <path d="M50,0a50,50,0,0,1,50,50h0A50,50,0,0,1,0,50H0A50,50,0,0,1,50,0Z" stroke="none"/>
              <path d="M 49.99972534179688 3 C 43.65348052978516 3 37.49866485595703 4.242240905761719 31.70623016357422 6.692230224609375 C 26.10989379882812 9.059272766113281 21.08323669433594 12.44853210449219 16.76589202880859 16.76587677001953 C 12.44855499267578 21.08321380615234 9.059295654296875 26.10985565185547 6.692230224609375 31.70618438720703 C 4.24224853515625 37.49859619140625 3 43.65341186523438 3 50.00022888183594 C 3 56.34645843505859 4.24224853515625 62.50127410888672 6.692230224609375 68.29368591308594 C 9.059295654296875 73.8900146484375 12.44855499267578 78.91665649414062 16.76589202880859 83.23399353027344 C 21.08323669433594 87.55132293701172 26.10989379882812 90.94059753417969 31.70623016357422 93.30764007568359 C 37.49866485595703 95.75762939453125 43.65348052978516 96.99987030029297 49.99972534179688 96.99987030029297 C 56.34597015380859 96.99987030029297 62.50078582763672 95.75762939453125 68.293212890625 93.30764007568359 C 73.88955688476562 90.94059753417969 78.91621398925781 87.55132293701172 83.23355865478516 83.23399353027344 C 87.55089569091797 78.91665649414062 90.94015502929688 73.8900146484375 93.30722045898438 68.29368591308594 C 95.7572021484375 62.50127410888672 96.99945068359375 56.34645843505859 96.99945068359375 49.99964141845703 C 96.99945068359375 43.65341186523438 95.7572021484375 37.49859619140625 93.30722045898438 31.70618438720703 C 90.94015502929688 26.10985565185547 87.55089569091797 21.08321380615234 83.23355865478516 16.76587677001953 C 78.91621398925781 12.44853210449219 73.88955688476562 9.059272766113281 68.293212890625 6.692230224609375 C 62.50078582763672 4.242240905761719 56.34597015380859 3 49.99972534179688 3 M 49.99972534179688 0 C 77.61381530761719 0 99.99945068359375 22.38559722900391 99.99945068359375 49.99964141845703 L 99.99945068359375 50.00022888183594 C 99.99945068359375 77.6142578125 77.61381530761719 99.99987030029297 49.99972534179688 99.99987030029297 C 22.38563537597656 99.99987030029297 0 77.6142578125 0 50.00022888183594 L 0 49.99964141845703 C 0 22.38559722900391 22.38563537597656 0 49.99972534179688 0 Z" stroke="none" fill="#fff"/>
            </g>
          </g>
        </g>
      </g>
    </g>
    <g id="Grupo_1115345" data-name="Grupo 1115345" transform="translate(817.036 1923.743)">
      <g id="Grupo_1115348" data-name="Grupo 1115348" transform="translate(1.091 37.301)">
        <g id="Grupo_1115345-2" data-name="Grupo 1115345" transform="translate(0 0)">
          <path id="Trazado_908064" data-name="Trazado 908064" d="M8.607,73.256,58.633,44.374a1.216,1.216,0,0,1,1.658.444l15.357,26.6a1.216,1.216,0,0,1-.444,1.658L25.178,101.958a1.216,1.216,0,0,1-1.658-.444L8.163,74.914a1.216,1.216,0,0,1,.444-1.658Z" transform="translate(-8.001 -44.212)" fill="#9ec63d" fill-rule="evenodd"/>
          <path id="Trazado_908065" data-name="Trazado 908065" d="M59.861,115.99,97.394,94.32a.6.6,0,0,1,.787.159,4.219,4.219,0,0,0,4.989,1.337.6.6,0,0,1,.761.256l8.145,14.107a.6.6,0,0,1-.159.787,4.219,4.219,0,0,0-1.337,4.989.6.6,0,0,1-.256.761l-37.533,21.67a.6.6,0,0,1-.787-.159,4.219,4.219,0,0,0-4.989-1.337.6.6,0,0,1-.761-.256L58.11,122.527a.6.6,0,0,1,.159-.787,4.219,4.219,0,0,0,1.337-4.989.6.6,0,0,1,.256-.761Z" transform="translate(-51.189 -87.399)" fill="#c2ed56" fill-rule="evenodd"/>
        </g>
        <g id="Grupo_1115347" data-name="Grupo 1115347" transform="translate(4.185 12.701)">
          <path id="Trazado_908066" data-name="Trazado 908066" d="M39.828,137.115H97.593a1.216,1.216,0,0,1,1.213,1.213v30.715a1.216,1.216,0,0,1-1.213,1.214H39.828a1.216,1.216,0,0,1-1.213-1.214V138.328A1.216,1.216,0,0,1,39.828,137.115Z" transform="translate(-38.615 -137.115)" fill="#abd641" fill-rule="evenodd"/>
          <path id="Trazado_908067" data-name="Trazado 908067" d="M70.031,163.744H113.37a.6.6,0,0,1,.6.531,4.219,4.219,0,0,0,3.653,3.653.6.6,0,0,1,.531.6v16.289a.6.6,0,0,1-.531.6,4.219,4.219,0,0,0-3.653,3.653.6.6,0,0,1-.6.531H70.031a.6.6,0,0,1-.6-.531,4.219,4.219,0,0,0-3.653-3.653.6.6,0,0,1-.531-.6V168.53a.6.6,0,0,1,.531-.6,4.219,4.219,0,0,0,3.653-3.653.6.6,0,0,1,.6-.531Z" transform="translate(-61.604 -160.103)" fill="#c2ed56" fill-rule="evenodd"/>
          <g id="Grupo_1115346" data-name="Grupo 1115346" transform="translate(10.581 7.469)">
            <path id="Trazado_908068" data-name="Trazado 908068" d="M371.524,242.235a2.2,2.2,0,1,1-2.2,2.2A2.2,2.2,0,0,1,371.524,242.235Z" transform="translate(-334.693 -235.333)" fill="#abd641" fill-rule="evenodd"/>
            <path id="Trazado_908069" data-name="Trazado 908069" d="M118.208,242.235a2.2,2.2,0,1,1-2.2,2.2A2.2,2.2,0,0,1,118.208,242.235Z" transform="translate(-116.008 -235.333)" fill="#abd641" fill-rule="evenodd"/>
            <circle id="Elipse_11720" data-name="Elipse 11720" cx="9.102" cy="9.102" r="9.102" transform="translate(10.414)" fill="#abd641"/>
          </g>
        </g>
      </g>
      <path id="Trazado_908070" data-name="Trazado 908070" d="M35.372,74.581a8.008,8.008,0,1,1,8.008-8.009A8.017,8.017,0,0,1,35.372,74.581Zm0-18.2a10.2,10.2,0,1,0,10.2,10.194A10.206,10.206,0,0,0,35.372,56.378Zm4.12,12.29c-.21-1.735-1.534-2.814-3.933-3.208-1.785-.293-1.817-.935-1.828-1.177-.045-.913.96-1.188,1.162-1.233a1.911,1.911,0,0,1,2.271,1.058,1.094,1.094,0,1,0,2.017-.847,3.883,3.883,0,0,0-2.714-2.323v-.383a1.094,1.094,0,0,0-2.187,0v.394a3.4,3.4,0,0,0-2.733,3.441c.048.99.587,2.725,3.657,3.229,2,.328,2.082,1.019,2.118,1.312a.733.733,0,0,1-.166.615,2.437,2.437,0,0,1-1.685.608,1.965,1.965,0,0,1-2.088-1.287,1.094,1.094,0,0,0-2.123.529,3.894,3.894,0,0,0,3.02,2.823v.373a1.094,1.094,0,0,0,2.187,0v-.355a4.16,4.16,0,0,0,2.344-1.26A2.9,2.9,0,0,0,39.492,68.668Zm-21.435-.989a1.105,1.105,0,1,1,1.106-1.107A1.107,1.107,0,0,1,18.057,67.679Zm0-4.4a3.292,3.292,0,1,0,3.293,3.291A3.3,3.3,0,0,0,18.057,63.281Zm34.632,4.4a1.105,1.105,0,1,1,1.1-1.107A1.106,1.106,0,0,1,52.689,67.679Zm0-4.4a3.292,3.292,0,1,0,3.292,3.291A3.3,3.3,0,0,0,52.689,63.281Zm8.046,11.026V58.84a5.327,5.327,0,0,1-4.1-4.1H14.114a5.325,5.325,0,0,1-4.1,4.1V74.306a5.324,5.324,0,0,1,4.1,4.1H56.631A5.326,5.326,0,0,1,60.735,74.306Zm1.1-17.54A3.128,3.128,0,0,1,58.7,53.642a1.094,1.094,0,0,0-1.094-1.094H13.134a1.094,1.094,0,0,0-1.094,1.094,3.127,3.127,0,0,1-3.124,3.124A1.094,1.094,0,0,0,7.823,57.86V75.287A1.094,1.094,0,0,0,8.917,76.38,3.127,3.127,0,0,1,12.041,79.5,1.093,1.093,0,0,0,13.134,80.6H57.611A1.093,1.093,0,0,0,58.7,79.5,3.127,3.127,0,0,1,61.83,76.38a1.093,1.093,0,0,0,1.09-1.094V57.86a1.093,1.093,0,0,0-1.09-1.094ZM67.8,65.145a.114.114,0,0,1-.052.073l-1.187.685V62.925l1.232,2.128A.148.148,0,0,1,67.8,65.145ZM64.377,81.931V51.216a.125.125,0,0,0-.122-.12H6.49a.123.123,0,0,0-.121.12V81.931a.123.123,0,0,0,.121.12H64.254A.124.124,0,0,0,64.377,81.931ZM16.092,84.239H27.522L22.5,87.134a5.321,5.321,0,0,0-5.607-1.5ZM17.721,94.1,34.8,84.239H31.9L22.75,89.52a1.1,1.1,0,0,1-1.495-.4,3.124,3.124,0,0,0-4.267-1.143,1.091,1.091,0,0,1-1.493-.4l-1.928-3.337H11.889l5.669,9.817a.114.114,0,0,0,.072.056.124.124,0,0,0,.09-.011ZM2.2,67.457a.122.122,0,0,1-.011-.092.119.119,0,0,1,.054-.072l1.939-1.12V70.89ZM54.266,48.908h-12.9l6.119-3.531a5.319,5.319,0,0,0,5.607,1.5Zm-2-10.5-18.184,10.5h2.907l10.249-5.917a1.093,1.093,0,0,1,1.494.4A3.124,3.124,0,0,0,53,44.535a1.091,1.091,0,0,1,1.493.4l2.3,3.973h1.677L52.434,38.455a.112.112,0,0,0-.072-.056A.12.12,0,0,0,52.271,38.41ZM69.684,63.96l-3.121-5.409V51.216a2.313,2.313,0,0,0-2.309-2.307H61L54.328,37.361a2.309,2.309,0,0,0-3.151-.845L29.712,48.908H6.49a2.312,2.312,0,0,0-2.307,2.307V63.648L1.152,65.4a2.311,2.311,0,0,0-.846,3.153l3.876,6.714v6.666A2.312,2.312,0,0,0,6.49,84.239H9.364l6.3,10.911a2.292,2.292,0,0,0,1.4,1.074,2.319,2.319,0,0,0,.6.079,2.28,2.28,0,0,0,1.147-.309L39.178,84.239H64.254a2.313,2.313,0,0,0,2.309-2.308v-13.5l2.277-1.315a2.308,2.308,0,0,0,.845-3.153Z" transform="translate(0)" fill-rule="evenodd"/>
    </g>
  </g>
</svg>
