<svg xmlns="http://www.w3.org/2000/svg" xmlns:xlink="http://www.w3.org/1999/xlink" width="118" height="118" viewBox="0 0 118 118">
  <defs>
    <filter id="Trazado_874925" x="0" y="0" width="118" height="118" filterUnits="userSpaceOnUse">
      <feOffset dy="3" input="SourceAlpha"/>
      <feGaussianBlur stdDeviation="3" result="blur"/>
      <feFlood flood-opacity="0.161"/>
      <feComposite operator="in" in2="blur"/>
      <feComposite in="SourceGraphic"/>
    </filter>
  </defs>
  <g id="Grupo_1112471" data-name="Grupo 1112471" transform="translate(-1108.134 -1933.999)">
    <g id="Grupo_1111553" data-name="Grupo 1111553" transform="translate(308.634 -577.158)">
      <g id="Grupo_1111316" data-name="Grupo 1111316" transform="translate(808.5 2517.157)">
        <g id="Grupo_1109835" data-name="Grupo 1109835" transform="translate(0 0)">
          <g id="Grupo_1107913" data-name="Grupo 1107913" transform="translate(0 0)">
            <g transform="matrix(1, 0, 0, 1, -9, -6)" filter="url(#Trazado_874925)">
              <g id="Trazado_874925-2" data-name="Trazado 874925" transform="translate(9 6)" fill="#9cc8ff" opacity="0.859">
                <path d="M 49.99972534179688 98.4998779296875 C 43.45164108276367 98.4998779296875 37.10022354125977 97.21776580810547 31.12189674377441 94.68914794921875 C 25.34676742553711 92.24647521972656 20.15985298156738 88.74925994873047 15.70523929595947 84.29464721679688 C 11.25062561035156 79.84004974365234 7.753411293029785 74.65313720703125 5.310725212097168 68.87800598144531 C 2.782111167907715 62.89969253540039 1.499996781349182 56.54829406738281 1.499996781349182 50.00022125244141 C 1.499996781349182 43.45157623291016 2.782111167907715 37.10017776489258 5.310725212097168 31.12186431884766 C 7.753411293029785 25.34673500061035 11.25062561035156 20.15983581542969 15.70523929595947 15.70522117614746 C 20.15985298156738 11.25062084197998 25.34676742553711 7.753406524658203 31.12189674377441 5.31073522567749 C 37.10022354125977 2.782120943069458 43.45164108276367 1.500006556510925 49.99972534179688 1.500006556510925 C 56.54780960083008 1.500006556510925 62.89922714233398 2.782120943069458 68.87755584716797 5.31073522567749 C 74.65267944335938 7.753406524658203 79.839599609375 11.25062084197998 84.29421234130859 15.70522117614746 C 88.74882507324219 20.15983581542969 92.24604034423828 25.34673500061035 94.68872833251953 31.12186431884766 C 97.21733856201172 37.10017776489258 98.49945068359375 43.45157623291016 98.49945068359375 49.99964904785156 C 98.49945068359375 56.54829406738281 97.21733856201172 62.89969253540039 94.68872833251953 68.87800598144531 C 92.24604034423828 74.65313720703125 88.74882507324219 79.84004974365234 84.29421234130859 84.29464721679688 C 79.839599609375 88.74925994873047 74.65267944335938 92.24647521972656 68.87755584716797 94.68914794921875 C 62.89922714233398 97.21776580810547 56.54780960083008 98.4998779296875 49.99972534179688 98.4998779296875 Z" stroke="none"/>
                <path d="M 49.99972534179688 3 C 43.65348052978516 3 37.49866485595703 4.242240905761719 31.70623016357422 6.692230224609375 C 26.10989379882812 9.059272766113281 21.08323669433594 12.44853210449219 16.76589202880859 16.76587677001953 C 12.44855499267578 21.08321380615234 9.059295654296875 26.10985565185547 6.692230224609375 31.70618438720703 C 4.24224853515625 37.49859619140625 3 43.65341186523438 3 50.00022888183594 C 3 56.34645843505859 4.24224853515625 62.50127410888672 6.692230224609375 68.29368591308594 C 9.059295654296875 73.8900146484375 12.44855499267578 78.91665649414062 16.76589202880859 83.23399353027344 C 21.08323669433594 87.55132293701172 26.10989379882812 90.94059753417969 31.70623016357422 93.30764007568359 C 37.49866485595703 95.75762939453125 43.65348052978516 96.99987030029297 49.99972534179688 96.99987030029297 C 56.34597015380859 96.99987030029297 62.50078582763672 95.75762939453125 68.293212890625 93.30764007568359 C 73.88955688476562 90.94059753417969 78.91621398925781 87.55132293701172 83.23355865478516 83.23399353027344 C 87.55089569091797 78.91665649414062 90.94015502929688 73.8900146484375 93.30722045898438 68.29368591308594 C 95.7572021484375 62.50127410888672 96.99945068359375 56.34645843505859 96.99945068359375 49.99964141845703 C 96.99945068359375 43.65341186523438 95.7572021484375 37.49859619140625 93.30722045898438 31.70618438720703 C 90.94015502929688 26.10985565185547 87.55089569091797 21.08321380615234 83.23355865478516 16.76587677001953 C 78.91621398925781 12.44853210449219 73.88955688476562 9.059272766113281 68.293212890625 6.692230224609375 C 62.50078582763672 4.242240905761719 56.34597015380859 3 49.99972534179688 3 M 49.99972534179688 0 C 77.61381530761719 0 99.99945068359375 22.38559722900391 99.99945068359375 49.99964141845703 L 99.99945068359375 50.00022888183594 C 99.99945068359375 77.6142578125 77.61381530761719 99.99987030029297 49.99972534179688 99.99987030029297 C 22.38563537597656 99.99987030029297 0 77.6142578125 0 50.00022888183594 L 0 49.99964141845703 C 0 22.38559722900391 22.38563537597656 0 49.99972534179688 0 Z" stroke="none" fill="#fff"/>
              </g>
            </g>
            <g id="Trazado_874923" data-name="Trazado 874923" transform="translate(0 0)" fill="none">
              <path d="M50,0a50,50,0,0,1,50,50h0A50,50,0,0,1,0,50H0A50,50,0,0,1,50,0Z" stroke="none"/>
              <path d="M 49.99972534179688 3 C 43.65348052978516 3 37.49866485595703 4.242240905761719 31.70623016357422 6.692230224609375 C 26.10989379882812 9.059272766113281 21.08323669433594 12.44853210449219 16.76589202880859 16.76587677001953 C 12.44855499267578 21.08321380615234 9.059295654296875 26.10985565185547 6.692230224609375 31.70618438720703 C 4.24224853515625 37.49859619140625 3 43.65341186523438 3 50.00022888183594 C 3 56.34645843505859 4.24224853515625 62.50127410888672 6.692230224609375 68.29368591308594 C 9.059295654296875 73.8900146484375 12.44855499267578 78.91665649414062 16.76589202880859 83.23399353027344 C 21.08323669433594 87.55132293701172 26.10989379882812 90.94059753417969 31.70623016357422 93.30764007568359 C 37.49866485595703 95.75762939453125 43.65348052978516 96.99987030029297 49.99972534179688 96.99987030029297 C 56.34597015380859 96.99987030029297 62.50078582763672 95.75762939453125 68.293212890625 93.30764007568359 C 73.88955688476562 90.94059753417969 78.91621398925781 87.55132293701172 83.23355865478516 83.23399353027344 C 87.55089569091797 78.91665649414062 90.94015502929688 73.8900146484375 93.30722045898438 68.29368591308594 C 95.7572021484375 62.50127410888672 96.99945068359375 56.34645843505859 96.99945068359375 49.99964141845703 C 96.99945068359375 43.65341186523438 95.7572021484375 37.49859619140625 93.30722045898438 31.70618438720703 C 90.94015502929688 26.10985565185547 87.55089569091797 21.08321380615234 83.23355865478516 16.76587677001953 C 78.91621398925781 12.44853210449219 73.88955688476562 9.059272766113281 68.293212890625 6.692230224609375 C 62.50078582763672 4.242240905761719 56.34597015380859 3 49.99972534179688 3 M 49.99972534179688 0 C 77.61381530761719 0 99.99945068359375 22.38559722900391 99.99945068359375 49.99964141845703 L 99.99945068359375 50.00022888183594 C 99.99945068359375 77.6142578125 77.61381530761719 99.99987030029297 49.99972534179688 99.99987030029297 C 22.38563537597656 99.99987030029297 0 77.6142578125 0 50.00022888183594 L 0 49.99964141845703 C 0 22.38559722900391 22.38563537597656 0 49.99972534179688 0 Z" stroke="none" fill="#fff"/>
            </g>
          </g>
        </g>
      </g>
    </g>
    <g id="Page-1" transform="translate(1137.133 1962.626)">
      <g id="_002---Open-Book" data-name="002---Open-Book">
        <path id="Rectangle-path" d="M26,29h8V49H26Z" fill="#c81e1e"/>
        <path id="Shape" d="M34,20v5H26V20a1,1,0,0,1,1-1h6A1,1,0,0,1,34,20Z" fill="#c81e1e"/>
        <path id="Shape-2" data-name="Shape" d="M34,53v5a1,1,0,0,1-1,1H27a1,1,0,0,1-1-1V53Z" fill="#c81e1e"/>
        <path id="Shape-3" data-name="Shape" d="M26,20.12V57.94a1,1,0,0,1-1.4.91L1.6,48.73a.991.991,0,0,1-.6-.91V10a.993.993,0,0,1,1.4-.91l.98.43L25.4,19.21a.981.981,0,0,1,.6.91Z" fill="#f44335"/>
        <path id="Shape-4" data-name="Shape" d="M25.4,19.21,3.38,9.52,2.4,9.09a.987.987,0,0,0-1.375.71L22.4,19.21a.981.981,0,0,1,.6.91V57.94a.955.955,0,0,1-.025.2l1.625.715a1,1,0,0,0,1.4-.91V20.12A.981.981,0,0,0,25.4,19.21Z" fill="#c81e1e"/>
        <path id="Shape-5" data-name="Shape" d="M59,10V47.82a.991.991,0,0,1-.6.91l-23,10.12a1,1,0,0,1-1.4-.91V20.12a.981.981,0,0,1,.6-.91L56.62,9.52l.98-.43A.993.993,0,0,1,59,10Z" fill="#c81e1e"/>
        <path id="Shape-6" data-name="Shape" d="M56.62,9.52,34.6,19.21a.981.981,0,0,0-.6.91V20a1,1,0,0,0-1-1H30V16s.01-.07.03-.2c.48-1.85,7.38-6.78,16.97-9.49,1.55-.44,3.17-.82,4.84-1.12a2.02,2.02,0,0,1,1.9.73Z" fill="#ffe0b2"/>
        <path id="Shape-7" data-name="Shape" d="M53.74,5.92a2.02,2.02,0,0,0-1.9-.73c-.528.095-1.042.211-1.56.321a2,2,0,0,1,.46.409l2.88,3.6L32.077,19H33a1,1,0,0,1,1,1v.12a.981.981,0,0,1,.6-.91L56.62,9.52Z" fill="#dfc49c"/>
        <path id="Shape-8" data-name="Shape" d="M30,16v3H27a1,1,0,0,0-1,1v.12a.981.981,0,0,0-.6-.91L3.38,9.52l2.88-3.6a2.02,2.02,0,0,1,1.9-.73c1.67.3,3.29.68,4.84,1.12,9.59,2.71,16.49,7.64,16.97,9.49.02.13.03.2.03.2Z" fill="#ffe0b2"/>
        <path id="Shape-9" data-name="Shape" d="M29.97,15.8C29.49,13.95,22.59,9.02,13,6.31V1C27.78,3.77,29.76,14.22,29.97,15.8Z" fill="#dfc49c"/>
        <path id="Shape-10" data-name="Shape" d="M47,1V6.31c-9.59,2.71-16.49,7.64-16.97,9.49C30.24,14.22,32.22,3.77,47,1Z" fill="#dfc49c"/>
        <path id="Shape-11" data-name="Shape" d="M55,28,38,36V26l17-8Z" fill="#f57c00"/>
        <path id="Shape-12" data-name="Shape" d="M5,28l17,8V26L5,18Z" fill="#ff9801"/>
        <path id="Rectangle-path-2" data-name="Rectangle-path" d="M26,25h8v4H26Z" fill="#ffdc00"/>
        <path id="Rectangle-path-3" data-name="Rectangle-path" d="M31,25h3v4H31Z" fill="#fec108"/>
        <path id="Rectangle-path-4" data-name="Rectangle-path" d="M26,49h8v4H26Z" fill="#ffdc00"/>
        <path id="Rectangle-path-5" data-name="Rectangle-path" d="M31,49h3v4H31Z" fill="#fec108"/>
        <g id="Grupo_1113319" data-name="Grupo 1113319">
          <path id="Shape-13" data-name="Shape" d="M59.093,8.326a2,2,0,0,0-1.9-.156l-.276.122-2.4-3a2.989,2.989,0,0,0-2.859-1.086c-1.239.222-2.461.494-3.659.8V1a1,1,0,0,0-.361-.77,1.01,1.01,0,0,0-.823-.213C35.858,2.071,31.617,8.29,30,12.27,28.378,8.283,24.136,2.07,13.184.017a1.012,1.012,0,0,0-.823.213A1,1,0,0,0,12,1V5.012c-1.2-.309-2.42-.581-3.659-.8A3,3,0,0,0,5.482,5.3l-2.4,3-.276-.121A2,2,0,0,0,0,10V47.816a2,2,0,0,0,1.194,1.83l23,10.12a1.914,1.914,0,0,0,1.738-.082A1.979,1.979,0,0,0,27,60h6a1.979,1.979,0,0,0,1.067-.315,1.985,1.985,0,0,0,.932.252,2.006,2.006,0,0,0,.807-.17l23-10.12A2,2,0,0,0,60,47.816V10a1.994,1.994,0,0,0-.907-1.674ZM52.011,6.178a1.006,1.006,0,0,1,.945.367l2.067,2.581-20.83,9.165c-.029.012-.05.035-.079.049A1.991,1.991,0,0,0,33,18H31V16.036c.421-1.409,8.734-7.662,21.011-9.858ZM33,20v4H27V20Zm-6,6h6v2H27Zm0,4h6V48H27Zm0,20h6v2H27ZM46,2.228v3.34a46.75,46.75,0,0,0-13.733,6.506C33.9,8.71,37.618,4.134,46,2.228Zm-32,0c8.376,1.9,12.093,6.475,13.73,9.844A46.743,46.743,0,0,0,14,5.568ZM7.044,6.545a1.007,1.007,0,0,1,.945-.367c12.255,2.192,20.558,8.426,21,9.793l.015.1V18H27a1.991,1.991,0,0,0-1.114.34c-.029-.014-.051-.037-.08-.05L4.977,9.126ZM2,47.816V10L25,20.12V57.936ZM27,58V54h6v4Zm8-.064V20.121L58,10V47.816Z"/>
          <path id="Shape-14" data-name="Shape" d="M55.536,17.156a1,1,0,0,0-.962-.061l-17,8A1,1,0,0,0,37,26V36a1,1,0,0,0,1.426.905l17-8A1,1,0,0,0,56,28V18a1,1,0,0,0-.464-.844ZM54,27.365,39,34.424V26.635l15-7.059Z"/>
          <path id="Shape-15" data-name="Shape" d="M22.426,25.1l-17-8A1,1,0,0,0,4,18V28a1,1,0,0,0,.574.905l17,8A1,1,0,0,0,23,36V26a1,1,0,0,0-.574-.9ZM21,34.424,6,27.365V19.576l15,7.059Z"/>
          <path id="Shape-16" data-name="Shape" d="M22.426,40.1l-17-8a1,1,0,1,0-.852,1.81l17,8a1,1,0,0,0,.852-1.81Z"/>
          <path id="Shape-17" data-name="Shape" d="M20.4,44.144l-12.955-6.1A1,1,0,1,0,6.6,39.856l12.954,6.1a1,1,0,1,0,.852-1.809Z"/>
          <path id="Shape-18" data-name="Shape" d="M54.574,32.1l-17,8a1,1,0,1,0,.852,1.81l17-8a1,1,0,1,0-.852-1.81Z"/>
          <path id="Shape-19" data-name="Shape" d="M52.552,38.047,39.6,44.144a1,1,0,0,0,.852,1.809l12.954-6.1a1,1,0,1,0-.851-1.809Z"/>
        </g>
      </g>
    </g>
  </g>
</svg>
