<svg xmlns="http://www.w3.org/2000/svg" xmlns:xlink="http://www.w3.org/1999/xlink" width="118" height="118" viewBox="0 0 118 118">
  <defs>
    <filter id="Trazado_874925" x="0" y="0" width="118" height="118" filterUnits="userSpaceOnUse">
      <feOffset dy="3" input="SourceAlpha"/>
      <feGaussianBlur stdDeviation="3" result="blur"/>
      <feFlood flood-opacity="0.161"/>
      <feComposite operator="in" in2="blur"/>
      <feComposite in="SourceGraphic"/>
    </filter>
  </defs>
  <g id="Grupo_1112529" data-name="Grupo 1112529" transform="translate(-1108.134 -1933.999)">
    <g id="Grupo_1111553" data-name="Grupo 1111553" transform="translate(308.634 -577.158)">
      <g id="Grupo_1111316" data-name="Grupo 1111316" transform="translate(808.5 2517.157)">
        <g id="Grupo_1109835" data-name="Grupo 1109835" transform="translate(0 0)">
          <g id="Grupo_1107913" data-name="Grupo 1107913" transform="translate(0 0)">
            <g transform="matrix(1, 0, 0, 1, -9, -6)" filter="url(#Trazado_874925)">
              <g id="Trazado_874925-2" data-name="Trazado 874925" transform="translate(9 6)" fill="#9cc8ff" opacity="0.859">
                <path d="M 49.99972534179688 98.4998779296875 C 43.45164108276367 98.4998779296875 37.10022354125977 97.21776580810547 31.12189674377441 94.68914794921875 C 25.34676742553711 92.24647521972656 20.15985298156738 88.74925994873047 15.70523929595947 84.29464721679688 C 11.25062561035156 79.84004974365234 7.753411293029785 74.65313720703125 5.310725212097168 68.87800598144531 C 2.782111167907715 62.89969253540039 1.499996781349182 56.54829406738281 1.499996781349182 50.00022125244141 C 1.499996781349182 43.45157623291016 2.782111167907715 37.10017776489258 5.310725212097168 31.12186431884766 C 7.753411293029785 25.34673500061035 11.25062561035156 20.15983581542969 15.70523929595947 15.70522117614746 C 20.15985298156738 11.25062084197998 25.34676742553711 7.753406524658203 31.12189674377441 5.31073522567749 C 37.10022354125977 2.782120943069458 43.45164108276367 1.500006556510925 49.99972534179688 1.500006556510925 C 56.54780960083008 1.500006556510925 62.89922714233398 2.782120943069458 68.87755584716797 5.31073522567749 C 74.65267944335938 7.753406524658203 79.839599609375 11.25062084197998 84.29421234130859 15.70522117614746 C 88.74882507324219 20.15983581542969 92.24604034423828 25.34673500061035 94.68872833251953 31.12186431884766 C 97.21733856201172 37.10017776489258 98.49945068359375 43.45157623291016 98.49945068359375 49.99964904785156 C 98.49945068359375 56.54829406738281 97.21733856201172 62.89969253540039 94.68872833251953 68.87800598144531 C 92.24604034423828 74.65313720703125 88.74882507324219 79.84004974365234 84.29421234130859 84.29464721679688 C 79.839599609375 88.74925994873047 74.65267944335938 92.24647521972656 68.87755584716797 94.68914794921875 C 62.89922714233398 97.21776580810547 56.54780960083008 98.4998779296875 49.99972534179688 98.4998779296875 Z" stroke="none"/>
                <path d="M 49.99972534179688 3 C 43.65348052978516 3 37.49866485595703 4.242240905761719 31.70623016357422 6.692230224609375 C 26.10989379882812 9.059272766113281 21.08323669433594 12.44853210449219 16.76589202880859 16.76587677001953 C 12.44855499267578 21.08321380615234 9.059295654296875 26.10985565185547 6.692230224609375 31.70618438720703 C 4.24224853515625 37.49859619140625 3 43.65341186523438 3 50.00022888183594 C 3 56.34645843505859 4.24224853515625 62.50127410888672 6.692230224609375 68.29368591308594 C 9.059295654296875 73.8900146484375 12.44855499267578 78.91665649414062 16.76589202880859 83.23399353027344 C 21.08323669433594 87.55132293701172 26.10989379882812 90.94059753417969 31.70623016357422 93.30764007568359 C 37.49866485595703 95.75762939453125 43.65348052978516 96.99987030029297 49.99972534179688 96.99987030029297 C 56.34597015380859 96.99987030029297 62.50078582763672 95.75762939453125 68.293212890625 93.30764007568359 C 73.88955688476562 90.94059753417969 78.91621398925781 87.55132293701172 83.23355865478516 83.23399353027344 C 87.55089569091797 78.91665649414062 90.94015502929688 73.8900146484375 93.30722045898438 68.29368591308594 C 95.7572021484375 62.50127410888672 96.99945068359375 56.34645843505859 96.99945068359375 49.99964141845703 C 96.99945068359375 43.65341186523438 95.7572021484375 37.49859619140625 93.30722045898438 31.70618438720703 C 90.94015502929688 26.10985565185547 87.55089569091797 21.08321380615234 83.23355865478516 16.76587677001953 C 78.91621398925781 12.44853210449219 73.88955688476562 9.059272766113281 68.293212890625 6.692230224609375 C 62.50078582763672 4.242240905761719 56.34597015380859 3 49.99972534179688 3 M 49.99972534179688 0 C 77.61381530761719 0 99.99945068359375 22.38559722900391 99.99945068359375 49.99964141845703 L 99.99945068359375 50.00022888183594 C 99.99945068359375 77.6142578125 77.61381530761719 99.99987030029297 49.99972534179688 99.99987030029297 C 22.38563537597656 99.99987030029297 0 77.6142578125 0 50.00022888183594 L 0 49.99964141845703 C 0 22.38559722900391 22.38563537597656 0 49.99972534179688 0 Z" stroke="none" fill="#fff"/>
              </g>
            </g>
            <g id="Trazado_874923" data-name="Trazado 874923" transform="translate(0 0)" fill="none">
              <path d="M50,0a50,50,0,0,1,50,50h0A50,50,0,0,1,0,50H0A50,50,0,0,1,50,0Z" stroke="none"/>
              <path d="M 49.99972534179688 3 C 43.65348052978516 3 37.49866485595703 4.242240905761719 31.70623016357422 6.692230224609375 C 26.10989379882812 9.059272766113281 21.08323669433594 12.44853210449219 16.76589202880859 16.76587677001953 C 12.44855499267578 21.08321380615234 9.059295654296875 26.10985565185547 6.692230224609375 31.70618438720703 C 4.24224853515625 37.49859619140625 3 43.65341186523438 3 50.00022888183594 C 3 56.34645843505859 4.24224853515625 62.50127410888672 6.692230224609375 68.29368591308594 C 9.059295654296875 73.8900146484375 12.44855499267578 78.91665649414062 16.76589202880859 83.23399353027344 C 21.08323669433594 87.55132293701172 26.10989379882812 90.94059753417969 31.70623016357422 93.30764007568359 C 37.49866485595703 95.75762939453125 43.65348052978516 96.99987030029297 49.99972534179688 96.99987030029297 C 56.34597015380859 96.99987030029297 62.50078582763672 95.75762939453125 68.293212890625 93.30764007568359 C 73.88955688476562 90.94059753417969 78.91621398925781 87.55132293701172 83.23355865478516 83.23399353027344 C 87.55089569091797 78.91665649414062 90.94015502929688 73.8900146484375 93.30722045898438 68.29368591308594 C 95.7572021484375 62.50127410888672 96.99945068359375 56.34645843505859 96.99945068359375 49.99964141845703 C 96.99945068359375 43.65341186523438 95.7572021484375 37.49859619140625 93.30722045898438 31.70618438720703 C 90.94015502929688 26.10985565185547 87.55089569091797 21.08321380615234 83.23355865478516 16.76587677001953 C 78.91621398925781 12.44853210449219 73.88955688476562 9.059272766113281 68.293212890625 6.692230224609375 C 62.50078582763672 4.242240905761719 56.34597015380859 3 49.99972534179688 3 M 49.99972534179688 0 C 77.61381530761719 0 99.99945068359375 22.38559722900391 99.99945068359375 49.99964141845703 L 99.99945068359375 50.00022888183594 C 99.99945068359375 77.6142578125 77.61381530761719 99.99987030029297 49.99972534179688 99.99987030029297 C 22.38563537597656 99.99987030029297 0 77.6142578125 0 50.00022888183594 L 0 49.99964141845703 C 0 22.38559722900391 22.38563537597656 0 49.99972534179688 0 Z" stroke="none" fill="#fff"/>
            </g>
          </g>
        </g>
      </g>
    </g>
    <g id="Grupo_1115349" data-name="Grupo 1115349" transform="translate(1137.63 1948.733)">
      <g id="Grupo_1115352" data-name="Grupo 1115352" transform="translate(0.864 14.165)">
        <path id="Trazado_908071" data-name="Trazado 908071" d="M64.753,386.985H7.5v-11l28.627-2.6,28.627,2.6Z" transform="translate(-7.5 -332.776)" fill="#d98f61"/>
        <path id="Trazado_908072" data-name="Trazado 908072" d="M37.854,373.543l-1.728-.157L7.5,375.99v11h3.456v-11Z" transform="translate(-7.5 -332.776)" fill="#d37f50"/>
        <path id="Trazado_908073" data-name="Trazado 908073" d="M64.753,199.922l-28.627,2.651L7.5,199.922v-3.578H64.753Z" transform="translate(-7.5 -176.129)" fill="#b2e59f"/>
        <path id="Trazado_908074" data-name="Trazado 908074" d="M10.956,199.922v-3.578H7.5v3.578l28.627,2.651,1.728-.16Z" transform="translate(-7.5 -176.129)" fill="#95d6a4"/>
        <path id="Trazado_908075" data-name="Trazado 908075" d="M7.5,267.185v-14.32l2.919-1.789,25.707-.66,25.8.66,2.827,1.789v14.32Z" transform="translate(-7.5 -223.971)" fill="#bd6629"/>
        <path id="Trazado_908076" data-name="Trazado 908076" d="M13.875,255.377l-3.456.089L7.5,257.255v14.32h3.456v-14.32Z" transform="translate(-7.5 -228.361)" fill="#a45924"/>
        <path id="Trazado_908077" data-name="Trazado 908077" d="M7.5,232.507c2.779.027,2.807,1.382,5.642,1.382,2.863,0,2.863-1.382,5.725-1.382s2.863,1.382,5.725,1.382,2.863-1.382,5.725-1.382,2.862,1.382,5.725,1.382,2.863-1.382,5.725-1.382,2.863,1.382,5.725,1.382,2.863-1.382,5.725-1.382,2.863,1.382,5.726,1.382,2.863-1.382,5.726-1.382h.083v-5.1H7.5Z" transform="translate(-7.5 -203.612)" fill="#d98f61"/>
        <circle id="Elipse_11721" data-name="Elipse 11721" cx="1.789" cy="1.789" r="1.789" transform="translate(8.946 47.053)" fill="#f3cbb1"/>
        <circle id="Elipse_11722" data-name="Elipse 11722" cx="1.789" cy="1.789" r="1.789" transform="translate(35.783 47.053)" fill="#f3cbb1"/>
        <g id="Grupo_1115351" data-name="Grupo 1115351" transform="translate(5.723 0)">
          <g id="Grupo_1115349-2" data-name="Grupo 1115349" transform="translate(24.692)">
            <path id="Trazado_908078" data-name="Trazado 908078" d="M279.838,34.423c-3.619.973-7.066-.133-8.068-3.722-1.02-3.654,1.327-7.2,4.908-8.456,8.962-3.138,15.183.035,15.183.035C286.917,23.609,286.378,32.665,279.838,34.423Z" transform="translate(-271.53 -20.86)" fill="#95d6a4"/>
          </g>
          <path id="Trazado_908079" data-name="Trazado 908079" d="M275.225,30.7c-1.02-3.654,1.327-7.2,4.908-8.456a24.31,24.31,0,0,1,6.131-1.317,23.2,23.2,0,0,0-9.586,1.317c-3.58,1.254-5.928,4.8-4.908,8.456.943,3.379,4.055,4.557,7.435,3.871A5.234,5.234,0,0,1,275.225,30.7Z" transform="translate(-246.837 -20.861)" fill="#85c691"/>
          <g id="Grupo_1115350" data-name="Grupo 1115350" transform="translate(0 2.44)">
            <path id="Trazado_908080" data-name="Trazado 908080" d="M69.156,55.625c3.615.988,7.066-.1,8.083-3.689,1.035-3.65-1.3-7.207-4.873-8.476-8.949-3.175-15.183-.027-15.183-.027C62.121,44.782,62.623,53.84,69.156,55.625Z" transform="translate(-57.183 -42.042)" fill="#95d6a4"/>
          </g>
          <path id="Trazado_908081" data-name="Trazado 908081" d="M72.612,55.629c-5.348-1.461-6.654-7.8-9.661-10.786a1.408,1.408,0,0,1,.718-2.368,19.783,19.783,0,0,1,2.482-.359,18.219,18.219,0,0,0-8.969,1.321c4.938,1.349,5.44,10.407,11.973,12.192a8.371,8.371,0,0,0,4.12.158q-.33-.067-.664-.158Z" transform="translate(-57.183 -39.606)" fill="#85c691"/>
        </g>
      </g>
      <g id="Grupo_1115353" data-name="Grupo 1115353" transform="translate(0 13.293)">
        <path id="Trazado_908082" data-name="Trazado 908082" d="M58.117,33.516H30.537a18.522,18.522,0,0,1,1.836-6.377,6.73,6.73,0,0,0,4.787,1.791h0c9.405,0,9.772-11.193,14.674-12.511a.855.855,0,0,0,.639-.838c0-1.318-4.949-2.288-8.156-2.288-4.359,0-13.9,1.378-13.9,9.013a7.042,7.042,0,0,0,.824,3.315,16.581,16.581,0,0,0-1.48,3.315,19.3,19.3,0,0,0-2.293-2.168,7.321,7.321,0,0,0,.291-2.035c0-6.762-8.092-8.423-8.906-8.423a.864.864,0,0,0-.189,1.707c.722.163,7.364,1.243,7.364,6.733a5.5,5.5,0,0,1-.077.918c-2.23-1.456-3.661-1.817-7.058-3.315a.864.864,0,1,0-.672,1.592l4.024,1.7a17.533,17.533,0,0,1,3.128,1.716,4.666,4.666,0,0,1-4.346,2.308c-7.356,0-8.1-8.4-12.261-11.538a20.279,20.279,0,0,1,6.325-.625.864.864,0,0,0,.048-1.727q-.684-.04-1.324-.038c-3.154,0-8.085.921-8.085,2.252a.854.854,0,0,0,.635.837C11.292,20.177,11.539,31.4,21.019,31.4a6.433,6.433,0,0,0,5.728-2.984A17.536,17.536,0,0,1,29.21,30.97a25.26,25.26,0,0,0-.411,2.546H.864A.864.864,0,0,0,0,34.38C0,51.7,0,68.374,0,68.374a.864.864,0,0,0,.864.864H58.117c1.131,0,.863-.972.863-5.33V34.38a.864.864,0,0,0-.864-.864ZM32.146,22.272c0-7.378,12.034-7.24,12.2-7.24a18.7,18.7,0,0,1,5.09.681C45.272,18.833,44.49,27.2,37.157,27.2A4.895,4.895,0,0,1,33.3,25.623c3.349-4.681,6.706-3.451,6.706-5.142,0-.1-.015-.165-.018-.145a.866.866,0,0,0-.841-.67A12.516,12.516,0,0,0,32.4,23.944a5.609,5.609,0,0,1-.258-1.672ZM57.253,35.244v1.85h-7.9a.864.864,0,0,0,0,1.728h7.9V42.23c-2.4.225-2.585,1.347-4.945,1.347-2.558,0-2.662-1.382-5.726-1.382-3.079,0-3.148,1.382-5.725,1.382-2.557,0-2.662-1.382-5.725-1.382-2.646,0-3.165,1.062-4.8,1.316V38.822H45.585a.864.864,0,0,0,0-1.728H30.334c.005-.335,0-.847.053-1.85ZM1.728,38.822H28.606V43.53c-1.757-.226-2.205-1.335-4.925-1.335-3.079,0-3.148,1.382-5.725,1.382-2.557,0-2.662-1.382-5.725-1.382-3.079,0-3.148,1.382-5.725,1.382-2.326,0-2.5-1.061-4.778-1.329Zm0-3.578H28.656c-.054,1-.047,1.666-.05,1.85H1.728ZM57.253,67.51H1.728V58.5H13.295a.864.864,0,0,0,0-1.728H1.728V43.991C3.342,44.25,3.869,45.3,6.506,45.3c3.079,0,3.148-1.382,5.725-1.382,2.557,0,2.662,1.382,5.725,1.382,3.079,0,3.148-1.382,5.725-1.382,2.356,0,2.542,1.115,4.925,1.345v2.349L23.33,49.281c-3.449-1.845-3.358-1.93-3.749-1.93a.865.865,0,0,0-.415,1.622l2.931,1.6-1.5,3.04a.864.864,0,1,0,1.549.765l1.706-3.453,4.756-1.5V52a.864.864,0,1,0,1.728,0V49.45l4.685,1.478,1.706,3.453a.864.864,0,1,0,1.549-.765l-1.5-3.04,2.931-1.6a.864.864,0,1,0-.829-1.516l-3.335,1.824-5.205-1.642V45.254c2.3-.263,2.463-1.331,4.8-1.331,2.557,0,2.662,1.382,5.725,1.382,3.079,0,3.148-1.382,5.725-1.382,2.558,0,2.662,1.382,5.726,1.382,2.746,0,3.151-1.114,4.945-1.337V56.775H17.06a.864.864,0,0,0,0,1.728H57.253Z" transform="translate(0 -13.293)"/>
        <path id="Trazado_908083" data-name="Trazado 908083" d="M31.919,452.875a.864.864,0,1,0,.868.864A.866.866,0,0,0,31.919,452.875Z" transform="translate(-27.48 -402.236)"/>
        <path id="Trazado_908084" data-name="Trazado 908084" d="M80.309,421.811a2.653,2.653,0,1,0,2.653,2.653A2.656,2.656,0,0,0,80.309,421.811Zm0,3.578a.925.925,0,1,1,.925-.925A.926.926,0,0,1,80.309,425.389Z" transform="translate(-68.71 -374.75)"/>
        <path id="Trazado_908085" data-name="Trazado 908085" d="M313.276,427.117a2.653,2.653,0,1,0-2.653-2.653A2.656,2.656,0,0,0,313.276,427.117Zm0-3.578a.925.925,0,1,1-.925.925A.926.926,0,0,1,313.276,423.539Z" transform="translate(-274.84 -374.75)"/>
        <path id="Trazado_908086" data-name="Trazado 908086" d="M171.7,423.535a.864.864,0,1,0-.864-.864A.865.865,0,0,0,171.7,423.535Z" transform="translate(-151.158 -374.747)"/>
        <path id="Trazado_908087" data-name="Trazado 908087" d="M249.191,444.929a.864.864,0,1,0-.677-.677A.864.864,0,0,0,249.191,444.929Z" transform="translate(-219.87 -393.691)"/>
        <path id="Trazado_908088" data-name="Trazado 908088" d="M404.841,454.585a.864.864,0,1,0-1.033-.847A.863.863,0,0,0,404.841,454.585Z" transform="translate(-357.29 -402.235)"/>
        <path id="Trazado_908089" data-name="Trazado 908089" d="M466.633,432.256a.863.863,0,1,0-.695-.847A.864.864,0,0,0,466.633,432.256Z" transform="translate(-412.263 -382.478)"/>
      </g>
    </g>
  </g>
</svg>
